<svg width="451" height="182" viewBox="0 0 451 182" fill="none" xmlns="http://www.w3.org/2000/svg">
<path d="M124.614 5.11386L124.612 5.11522L124.612 5.11535L124.611 5.11577L124.61 5.11607C124.605 5.11908 124.599 5.12253 124.592 5.1264L124.548 5.15104L124.359 5.25737L123.617 5.67412L120.771 7.27203C105.017 16.1167 44.7182 49.9524 12.821 67.6125C12.7721 67.6372 12.7311 67.6594 12.6987 67.6774C12.4203 67.8316 12.2205 67.9916 12.1166 68.0796C11.9055 68.2582 11.7554 68.4271 11.6898 68.5025C11.542 68.6724 11.4175 68.8426 11.3397 68.9516C11.1687 69.191 10.9744 69.488 10.7816 69.7913C10.3864 70.4129 9.87947 71.2482 9.34464 72.1453C8.26978 73.9484 7.02205 76.1025 6.20117 77.5357L4.62219 80.2925L7.2137 82.1302L115.836 159.158L116.657 159.74L117.662 159.797L430.938 177.614L431.815 177.664L432.612 177.294C434.544 176.395 436.833 175.113 437.981 172.536C439.077 170.074 438.763 167.246 438.037 164.273L437.986 164.061L437.908 163.858L414.639 102.728L446.258 34.9977L447.024 33.3573L446.128 31.7844L441.166 23.0761L440.216 21.4093L438.3 21.3132L438.125 24.8088C438.3 21.3132 438.299 21.3132 438.297 21.3131L438.288 21.3126L438.251 21.3108L438.105 21.3034L437.529 21.2745L435.274 21.1613C433.297 21.0619 430.393 20.9159 426.683 20.729C419.262 20.3553 408.618 19.8184 395.724 19.1655C369.937 17.8598 335.153 16.0904 299.164 14.2356C227.21 10.5274 150.515 6.48176 131.2 5.11598L126.658 4.68257L125.567 4.57847L124.614 5.11386ZM127.045 4.76705C127.045 4.76696 127.054 4.76823 127.069 4.77102C127.052 4.76851 127.045 4.76713 127.045 4.76705Z" fill="#B0685C" stroke="#FFFF93" stroke-width="7"/>
<path d="M14.4072 70.7349C14.1853 70.7349 10.8688 76.4284 9.23828 79.2752L117.861 156.303L431.137 174.12C434.8 172.417 436.031 170.808 434.637 165.103L410.842 102.589L443.087 33.5172L438.125 24.8088L126.571 8.24854C126.571 8.24854 51.2754 50.3237 14.4072 70.7349Z" fill="#B0685C" stroke="#584737"/>
<path d="M122.697 17.0388L9.23828 79.2655C9.23828 79.2655 93.139 139.389 118.223 155.773L430.896 174.241C435.398 172.939 435.8 168.818 435.439 166.919C433 161.609 413.129 104.887 412.185 104.887C411.642 104.887 411.303 100.819 412.185 100.548L443.087 33.5074L131.908 14.4702C128.082 13.9742 124.173 15.976 122.697 17.0388Z" fill="#B35242" stroke="#584737"/>
<path d="M161.898 109.86C161.618 110.112 161.1 110.325 160.343 110.499C159.586 110.673 158.755 110.737 157.849 110.689C156.837 110.636 155.939 110.456 155.154 110.147C154.372 109.786 153.863 109.305 153.627 108.705C153.008 107.284 152.276 105.457 151.431 103.223C150.64 100.992 149.782 98.5169 148.856 95.7981C147.987 93.0288 147.071 90.1235 146.109 87.0823C145.2 84.0439 144.316 81.0336 143.458 78.0512C142.599 75.0689 141.789 72.1958 141.026 69.4321C140.265 66.6151 139.623 64.0981 139.098 61.8809C139.44 61.4716 139.94 61.0972 140.599 60.7579C141.258 60.4186 141.986 60.2698 142.785 60.3117C143.797 60.3647 144.53 60.6435 144.985 61.148C145.439 61.6524 145.8 62.3924 146.07 63.3678C148.101 70.4705 150.038 77.3279 151.881 83.9401C153.724 90.5523 155.775 97.2822 158.033 104.13L158.352 104.147C159.683 101.172 161.051 98.0126 162.454 94.6682C163.914 91.2733 165.324 87.7957 166.686 84.2354C168.104 80.6246 169.469 76.9844 170.783 73.3148C172.15 69.648 173.38 66.0541 174.472 62.5331C175.184 62.1966 176.1 62.0576 177.218 62.1163C178.177 62.1665 178.936 62.4466 179.497 62.9567C180.058 63.4667 180.313 64.2011 180.263 65.1598C180.221 65.9587 179.822 67.4599 179.066 69.6633C178.365 71.8163 177.459 74.3323 176.347 77.2114C175.235 80.0904 173.978 83.1756 172.577 86.4668C171.23 89.7607 169.889 92.9216 168.555 95.9493C167.222 98.9769 165.955 101.741 164.756 104.242C163.557 106.742 162.604 108.615 161.898 109.86ZM219.533 95.0159C219.377 97.9985 218.81 100.666 217.832 103.018C216.854 105.37 215.522 107.356 213.834 108.977C212.201 110.6 210.241 111.806 207.957 112.594C205.673 113.382 203.146 113.704 200.376 113.559C197.607 113.414 195.127 112.83 192.938 111.807C190.748 110.784 188.899 109.379 187.391 107.591C185.882 105.803 184.765 103.688 184.038 101.247C183.312 98.8055 183.026 96.0935 183.183 93.1109C183.339 90.1283 183.906 87.461 184.884 85.109C185.915 82.7597 187.274 80.7748 188.961 79.1542C190.648 77.5336 192.634 76.3292 194.918 75.541C197.203 74.7528 199.703 74.4299 202.419 74.5723C205.136 74.7146 207.589 75.2971 209.778 76.3198C211.967 77.3424 213.79 78.7464 215.245 80.5317C216.754 82.3197 217.871 84.4345 218.598 86.8758C219.377 89.32 219.689 92.0334 219.533 95.0159ZM202.143 79.845C198.521 79.6552 195.606 80.7575 193.398 83.1519C191.19 85.5463 189.968 88.9804 189.734 93.4542C189.497 97.9814 190.324 101.55 192.217 104.159C194.166 106.718 196.978 108.093 200.653 108.286C204.327 108.479 207.243 107.376 209.398 104.979C211.553 102.582 212.747 99.1465 212.982 94.6726C213.216 90.1988 212.361 86.6558 210.415 84.0437C208.522 81.4344 205.765 80.0348 202.143 79.845ZM235.49 114.197C235.218 114.29 234.813 114.375 234.275 114.454C233.734 114.586 233.144 114.635 232.504 114.602C230.214 114.482 229.119 113.463 229.22 111.546L231.803 62.2532C232.075 62.1606 232.48 62.0751 233.018 61.9965C233.612 61.8674 234.203 61.8182 234.788 61.8489C237.079 61.9689 238.173 62.9876 238.073 64.905L235.49 114.197ZM260.68 116.719C256.951 116.524 253.959 115.539 251.702 113.765C249.498 111.994 248.497 109.191 248.698 105.356L250.687 67.4086C250.959 67.316 251.364 67.2304 251.902 67.1518C252.496 67.0227 253.113 66.9749 253.752 67.0084C255.989 67.1257 257.057 68.143 256.957 70.0603L256.475 79.2477L269.577 79.9344C269.723 80.2091 269.863 80.5902 269.998 81.078C270.135 81.5124 270.19 81.9959 270.162 82.5285C270.067 84.3394 269.221 85.203 267.623 85.1192L256.199 84.5205L255.11 105.292C254.998 107.422 255.505 108.971 256.629 109.938C257.809 110.854 259.491 111.37 261.675 111.484C262.58 111.532 263.601 111.425 264.736 111.164C265.871 110.903 266.823 110.579 267.591 110.192C267.894 110.528 268.166 110.943 268.407 111.436C268.648 111.93 268.752 112.496 268.718 113.135C268.657 114.307 267.914 115.229 266.49 115.902C265.067 116.575 263.13 116.848 260.68 116.719ZM291.704 113.138C293.941 113.255 295.79 113.138 297.25 112.788C298.766 112.387 299.855 111.99 300.517 111.597L301.124 100.013L291.163 100.532C288.379 100.653 286.295 101.185 284.911 102.127C283.529 103.016 282.788 104.419 282.688 106.337C282.582 108.361 283.271 109.972 284.757 111.172C286.246 112.318 288.562 112.973 291.704 113.138ZM293.395 79.3401C298.029 79.5829 301.649 80.8141 304.257 83.0336C306.864 85.2531 308.051 88.5998 307.816 93.0737L306.824 112.008C306.762 113.179 306.475 114.072 305.963 114.686C305.506 115.25 304.811 115.774 303.877 116.259C302.56 116.938 300.822 117.488 298.664 117.909C296.556 118.386 294.144 118.553 291.428 118.411C286.421 118.148 282.585 116.959 279.919 114.843C277.306 112.73 276.097 109.81 276.292 106.082C276.476 102.566 277.76 99.9901 280.142 98.3525C282.527 96.6617 285.808 95.7121 289.985 95.5038L301.388 94.9798L301.505 92.7429C301.644 90.0799 300.947 88.094 299.414 86.7853C297.88 85.4766 295.755 84.751 293.039 84.6087C290.802 84.4915 288.681 84.7008 286.677 85.2366C284.673 85.7725 282.878 86.3994 281.292 87.1173C280.885 86.7222 280.508 86.2751 280.16 85.7763C279.866 85.2802 279.734 84.7392 279.765 84.1533C279.804 83.4077 280.022 82.805 280.42 82.3452C280.818 81.8854 281.428 81.4634 282.249 81.0791C283.726 80.4089 285.406 79.9362 287.29 79.661C289.176 79.3326 291.211 79.2257 293.395 79.3401ZM324.571 118.866C324.299 118.958 323.894 119.044 323.356 119.123C322.815 119.255 322.225 119.304 321.586 119.27C319.296 119.15 318.201 118.131 318.301 116.214L319.721 89.1313C319.785 87.9063 320.048 86.9588 320.511 86.2887C321.029 85.5682 321.839 84.8897 322.94 84.2531C324.373 83.4203 326.277 82.7457 328.654 82.2294C331.087 81.6626 333.795 81.4574 336.777 81.6137C341.038 81.837 343.113 83.0138 343.001 85.1442C342.973 85.6768 342.867 86.1786 342.682 86.6496C342.5 87.0673 342.267 87.429 341.984 87.7346C341.457 87.6001 340.77 87.4573 339.924 87.3061C339.077 87.155 338.228 87.057 337.376 87.0124C334.926 86.884 332.755 87.0372 330.863 87.4722C328.974 87.8538 327.398 88.3587 326.137 88.9869L324.571 118.866Z" fill="#EABDA1"/>
</svg>
