<svg width="437" height="168" viewBox="0 0 437 168" fill="none" xmlns="http://www.w3.org/2000/svg">
<path d="M6.70408 63.093C6.48217 63.093 3.16567 68.7866 1.53516 71.6333L435.384 25.8753L430.422 17.1669C430.422 17.1669 116.753 1.64136 118.398 0.719116C118.398 0.719116 43.5723 42.6818 6.70408 63.093Z" fill="#B0685C" stroke="#584737"/>
<path d="M114.994 9.39699L1.53516 71.6236C1.53516 71.6236 85.4359 131.747 110.52 148.131L423.193 166.599C427.695 165.298 428.097 161.176 427.735 159.277C425.297 153.968 405.426 97.2448 404.482 97.2448C403.939 97.2448 403.6 93.1771 404.482 92.9059L435.384 25.8656L124.205 6.82837C120.379 6.33236 116.47 8.33411 114.994 9.39699Z" fill="#B35242" stroke="#584737"/>
<path d="M154.195 102.218C153.915 102.47 153.396 102.684 152.64 102.857C151.883 103.031 151.052 103.095 150.146 103.047C149.134 102.994 148.236 102.814 147.451 102.505C146.669 102.144 146.16 101.663 145.924 101.064C145.304 99.6425 144.572 97.815 143.728 95.5811C142.937 93.35 142.079 90.875 141.153 88.1562C140.284 85.3869 139.368 82.4816 138.406 79.4404C137.497 76.402 136.613 73.3917 135.755 70.4093C134.896 67.427 134.085 64.5539 133.322 61.7902C132.562 58.9732 131.92 56.4562 131.395 54.239C131.737 53.8297 132.237 53.4553 132.896 53.116C133.554 52.7767 134.283 52.6279 135.082 52.6698C136.094 52.7228 136.827 53.0016 137.281 53.5061C137.736 54.0105 138.097 54.7505 138.367 55.7259C140.398 62.8286 142.335 69.686 144.178 76.2982C146.021 82.9104 148.072 89.6403 150.33 96.4879L150.649 96.5046C151.98 93.5302 153.347 90.3707 154.751 87.0263C156.211 83.6314 157.621 80.1537 158.983 76.5935C160.4 72.9827 161.766 69.3425 163.08 65.6729C164.447 62.0061 165.677 58.4122 166.769 54.8912C167.481 54.5547 168.396 54.4157 169.515 54.4744C170.474 54.5246 171.233 54.8047 171.794 55.3148C172.355 55.8248 172.61 56.5592 172.56 57.5179C172.518 58.3168 172.119 59.818 171.362 62.0214C170.662 64.1744 169.756 66.6904 168.644 69.5694C167.531 72.4485 166.275 75.5336 164.874 78.8248C163.527 82.1188 162.186 85.2797 160.852 88.3074C159.519 91.335 158.252 94.0992 157.053 96.5999C155.854 99.1006 154.901 100.973 154.195 102.218ZM211.83 87.374C211.673 90.3566 211.106 93.0239 210.129 95.376C209.151 97.728 207.818 99.7143 206.131 101.335C204.497 102.958 202.538 104.164 200.254 104.952C197.97 105.74 195.443 106.062 192.673 105.917C189.904 105.772 187.424 105.188 185.235 104.165C183.045 103.142 181.196 101.737 179.688 99.9491C178.179 98.161 177.062 96.0463 176.335 93.6049C175.608 91.1635 175.323 88.4516 175.48 85.469C175.636 82.4864 176.203 79.8191 177.181 77.4671C178.212 75.1178 179.571 73.1329 181.258 71.5123C182.945 69.8917 184.931 68.6873 187.215 67.8991C189.5 67.1109 192 66.788 194.716 66.9304C197.433 67.0727 199.885 67.6552 202.075 68.6779C204.264 69.7005 206.087 71.1045 207.542 72.8898C209.05 74.6778 210.168 76.7926 210.895 79.2339C211.674 81.6781 211.986 84.3915 211.83 87.374ZM194.44 72.2031C190.818 72.0133 187.903 73.1156 185.695 75.51C183.487 77.9043 182.265 81.3385 182.031 85.8123C181.793 90.3394 182.621 93.9077 184.514 96.517C186.463 99.0758 189.274 100.451 192.949 100.644C196.624 100.837 199.539 99.7344 201.694 97.3372C203.85 94.9401 205.044 91.5046 205.279 87.0307C205.513 82.5568 204.657 79.0139 202.712 76.4018C200.819 73.7925 198.062 72.3929 194.44 72.2031ZM227.787 106.555C227.515 106.648 227.11 106.734 226.571 106.812C226.03 106.944 225.44 106.993 224.801 106.96C222.511 106.84 221.416 105.821 221.517 103.904L224.1 54.6113C224.372 54.5187 224.777 54.4332 225.315 54.3545C225.909 54.2255 226.499 54.1763 227.085 54.207C229.375 54.327 230.47 55.3457 230.37 57.2631L227.787 106.555ZM252.977 109.077C249.248 108.882 246.256 107.897 243.999 106.123C241.795 104.352 240.794 101.549 240.995 97.7146L242.984 59.7667C243.255 59.6741 243.66 59.5885 244.199 59.5099C244.793 59.3808 245.41 59.333 246.049 59.3665C248.286 59.4838 249.354 60.5011 249.253 62.4184L248.772 71.6058L261.874 72.2925C262.02 72.5671 262.16 72.9483 262.295 73.4361C262.432 73.8705 262.487 74.354 262.459 74.8866C262.364 76.6975 261.518 77.561 259.92 77.4773L248.496 76.8786L247.407 97.6501C247.295 99.7805 247.802 101.329 248.926 102.296C250.106 103.212 251.788 103.728 253.972 103.842C254.877 103.89 255.898 103.783 257.033 103.522C258.168 103.261 259.12 102.937 259.888 102.55C260.19 102.886 260.462 103.301 260.704 103.794C260.945 104.288 261.049 104.854 261.015 105.493C260.954 106.665 260.211 107.587 258.787 108.26C257.363 108.933 255.427 109.206 252.977 109.077ZM284.001 105.496C286.238 105.613 288.086 105.496 289.547 105.146C291.063 104.745 292.152 104.348 292.814 103.955L293.421 92.371L283.46 92.8904C280.676 93.0116 278.592 93.5432 277.208 94.4854C275.826 95.3743 275.085 96.7774 274.984 98.6948C274.878 100.719 275.568 102.33 277.054 103.53C278.543 104.676 280.859 105.331 284.001 105.496ZM285.692 71.6982C290.326 71.941 293.946 73.1722 296.554 75.3917C299.161 77.6112 300.348 80.9579 300.113 85.4318L299.121 104.366C299.059 105.537 298.772 106.43 298.259 107.044C297.803 107.608 297.108 108.132 296.174 108.617C294.857 109.296 293.119 109.846 290.961 110.267C288.853 110.744 286.441 110.911 283.725 110.769C278.718 110.506 274.882 109.317 272.215 107.202C269.602 105.089 268.394 102.168 268.589 98.4397C268.773 94.9246 270.057 92.3482 272.439 90.7106C274.824 89.0198 278.105 88.0702 282.281 87.8619L293.684 87.3379L293.802 85.101C293.941 82.438 293.244 80.4521 291.711 79.1434C290.177 77.8347 288.052 77.1091 285.336 76.9668C283.099 76.8495 280.978 77.0589 278.974 77.5947C276.97 78.1305 275.175 78.7574 273.588 79.4754C273.182 79.0803 272.805 78.6332 272.457 78.1344C272.163 77.6383 272.031 77.0973 272.061 76.5114C272.101 75.7658 272.319 75.1631 272.717 74.7033C273.115 74.2435 273.725 73.8214 274.546 73.4372C276.023 72.767 277.703 72.2942 279.587 72.0191C281.473 71.6907 283.508 71.5838 285.692 71.6982ZM316.868 111.224C316.596 111.317 316.191 111.402 315.653 111.481C315.112 111.613 314.522 111.662 313.883 111.628C311.593 111.508 310.498 110.49 310.598 108.572L312.018 81.4894C312.082 80.2644 312.345 79.3169 312.807 78.6468C313.326 77.9263 314.136 77.2478 315.237 76.6112C316.669 75.7784 318.574 75.1038 320.951 74.5875C323.384 74.0207 326.092 73.8155 329.074 73.9718C333.335 74.1951 335.41 75.3719 335.298 77.5023C335.27 78.0349 335.164 78.5367 334.979 79.0077C334.797 79.4254 334.564 79.7871 334.281 80.0927C333.754 79.9582 333.067 79.8154 332.221 79.6642C331.374 79.5131 330.525 79.4151 329.673 79.3705C327.223 79.2421 325.052 79.3953 323.16 79.8302C321.27 80.2119 319.695 80.7168 318.434 81.345L316.868 111.224Z" fill="#EABDA1"/>
</svg>
