<svg width="148" height="139" viewBox="0 0 148 139" fill="none" xmlns="http://www.w3.org/2000/svg">
<path d="M0.235431 115.799C-0.835988 104.316 14.9674 99.167 23.0031 98.0278L127.466 108.964C130.145 119.353 118.761 127.418 112.734 130.152C105.368 133.798 81.6632 140.131 45.7707 136.304C9.87819 132.476 0.458639 121.039 0.235431 115.799Z" fill="black" fill-opacity="0.2"/>
<path d="M47.8684 10.8779L47.4245 11.0047L47.0287 11.2422C16.4671 29.5848 9.13663 59.3704 16.0553 85.0048C22.8995 110.364 43.8738 132.181 70.2966 134.519C92.8098 136.51 108.773 130.04 119.921 120.811C130.971 111.663 137.056 100.004 140.302 91.8937C145.535 78.8192 149.857 46.3888 123.885 21.189C92.3257 -9.43292 47.7832 10.9022 47.8684 10.8779Z" stroke="#FFFF93" stroke-width="7"/>
<path d="M31.2884 28.0341C41.446 15.5143 57.3506 10.1162 64.0332 8.98215C82.7445 4.89958 93.315 8.71182 96.6632 9.39544C100.011 10.0791 118.972 16.1167 131.097 35.3689C143.151 54.5069 144.569 75.0655 134.445 96.8837C124.401 118.531 102.124 129.418 92.1003 130.779C82.0763 132.139 57.3506 133.5 39.9758 118.531C22.601 103.562 17.2549 85.2644 17.2549 70.2206C17.2549 55.2357 18.5914 43.6839 31.2884 28.0341Z" fill="#58F8CA"/>
<path d="M113.687 121.49C120.115 112.194 122.169 102.124 122.392 98.2508C127.749 96.0636 134.892 90.5045 137.793 87.9984C132.436 105.496 119.49 117.617 113.687 121.49Z" fill="#52D6A5"/>
<path d="M70.8301 131.059C26.3662 84.0339 39.8036 36.2802 52.0802 18.2814C51.0089 15.5474 51.6338 13.4969 52.0802 12.8134C37.0804 18.8282 27.9733 31.2679 25.2947 36.7359C19.4912 45.6213 10.9645 70.0906 23.2858 96.8837C35.6071 123.677 60.1159 130.831 70.8301 131.059Z" fill="#83D62E"/>
<path d="M34.6694 24.433C40.6961 17.5297 48.7943 14.1634 52.08 12.8135C50.2603 16.5933 51.9913 17.3047 52.7495 17.5297C42.7051 30.5845 39.8596 54.2022 39.8596 66.1264C32.5806 55.8671 30.7538 33.2933 34.6694 24.433Z" fill="#88F134"/>
<path d="M68.1514 23.7831L92.2583 130.785C102.437 129.688 109.892 124.841 112.347 122.554C143.82 72.2779 102.972 27.8986 79.5352 14.1804C76.8566 19.6676 70.8299 22.8686 68.1514 23.7831Z" fill="#FA5075"/>
<path d="M92.9278 131.059L86.2314 102.352C101.231 105.633 116.588 100.985 122.392 98.2509C121.32 109.187 117.704 116.477 115.695 118.756C111.008 126.274 98.2849 129.692 92.9278 131.059Z" fill="#E7445F"/>
<path d="M68.1168 23.7525C58.2997 25.3939 53.1184 20.789 51.7549 18.2814C22.8487 68.616 52.4366 114.483 70.8438 131.124C81.7518 132.765 89.9328 131.352 92.6598 130.44L68.1168 23.7525Z" fill="#FAFA3A"/>
<path d="M70.8301 131.131C39.3572 101.149 39.625 66.4327 39.625 65.7163C52.5948 87.4959 75.8935 99.4077 86.2318 102.512L93.1959 130.912C84.2229 132.494 74.1783 131.813 70.8301 131.131Z" fill="#E4D730"/>
<path d="M117.705 57.2409C107.526 37.0093 92.0354 22.6104 84.8926 17.598C99.6246 13.4969 111.678 20.332 116.366 25.8C118.374 27.8505 122.794 34.002 124.401 42.2039C126.008 50.4059 120.16 55.646 117.705 57.2409Z" fill="#ABF9E4"/>
<path d="M76.1869 24.433C77.2583 20.0586 82.4368 18.2815 84.8922 17.598C98.2849 25.1165 113.017 46.3049 117.704 57.2409C114.49 59.4281 112.347 57.2409 111.008 55.8739C106.544 49.9503 96.276 37.9663 90.9189 37.4195C85.5618 36.8727 80.6512 34.002 78.8655 32.635C77.5262 31.7237 75.1155 28.8074 76.1869 24.433Z" fill="#FCA8C0"/>
<path d="M60.6651 25.6908C50.7032 23.5892 50.5712 16.2066 51.7971 12.8132C59.0697 9.32534 67.3668 7.80557 72.5557 7.80578C77.2432 7.80597 81.9307 12.4223 79.6043 16.618C77.442 20.5179 70.627 27.7923 60.6651 25.6908Z" fill="#D27492"/>
</svg>
