<svg width="142" height="131" viewBox="0 0 142 131" fill="none" xmlns="http://www.w3.org/2000/svg">
<path d="M0.257892 109.222C-0.813527 97.7389 14.9899 92.5898 23.0255 91.4507L127.489 102.387C130.167 112.776 118.784 120.841 112.757 123.575C105.391 127.22 81.6857 133.554 45.7932 129.727C9.90065 125.899 0.4811 114.462 0.257892 109.222Z" fill="black" fill-opacity="0.2"/>
<path d="M31.3108 21.457C41.4684 8.9371 57.3731 3.53904 64.0557 2.405C82.767 -1.67757 93.3375 2.13467 96.6857 2.81829C100.034 3.50191 118.994 9.53951 131.12 28.7918C143.173 47.9297 144.592 68.4884 134.468 90.3066C124.423 111.954 102.147 122.841 92.1227 124.201C82.0988 125.562 57.3731 126.923 39.9983 111.954C22.6234 96.9844 17.2774 78.6872 17.2773 63.6435C17.2773 48.6585 18.6139 37.1068 31.3108 21.457Z" fill="#58F8CA"/>
<path d="M113.709 114.913C120.137 105.617 122.191 95.5468 122.414 91.6737C127.771 89.4865 134.914 83.9274 137.816 81.4212C132.459 98.9188 119.513 111.039 113.709 114.913Z" fill="#52D6A5"/>
<path d="M70.8525 124.481C26.3887 77.4568 39.826 29.703 52.1027 11.7043C51.0313 8.97026 51.6563 6.91977 52.1027 6.23627C37.1028 12.2511 27.9957 24.6907 25.3172 30.1587C19.5136 39.0442 10.9869 63.5134 23.3083 90.3065C35.6296 117.1 60.1383 124.254 70.8525 124.481Z" fill="#83D62E"/>
<path d="M34.6918 17.8559C40.7186 10.9525 48.8168 7.5863 52.1024 6.23639C50.2827 10.0161 52.0138 10.7275 52.772 10.9525C42.7275 24.0073 39.8821 47.625 39.882 59.5492C32.6031 49.2899 30.7763 26.7162 34.6918 17.8559Z" fill="#88F134"/>
<path d="M68.1738 17.206L92.2807 124.208C102.459 123.111 109.915 118.263 112.37 115.977C143.843 65.7007 102.995 21.3214 79.5577 7.60321C76.8791 13.0905 70.8524 16.2914 68.1738 17.206Z" fill="#FA5075"/>
<path d="M92.9503 124.482L86.2539 95.7747C101.254 99.0555 116.611 94.4077 122.414 91.6737C121.343 102.61 117.727 109.9 115.718 112.179C111.03 119.697 98.3074 123.115 92.9503 124.482Z" fill="#E7445F"/>
<path d="M68.1393 17.1754C58.3221 18.8167 53.1408 14.2118 51.7773 11.7042C22.8712 62.0389 52.4591 107.905 70.8663 124.547C81.7743 126.188 89.9553 124.775 92.6823 123.863L68.1393 17.1754Z" fill="#FAFA3A"/>
<path d="M70.8521 124.554C39.3792 94.5722 39.647 59.8556 39.647 59.1392C52.6168 80.9187 75.9155 92.8305 86.2538 95.9351L93.2179 124.335C84.2448 125.917 74.2003 125.235 70.8521 124.554Z" fill="#E4D730"/>
<path d="M117.727 50.6637C107.548 30.4322 92.0573 16.0332 84.9146 11.0209C99.6466 6.91976 111.7 13.7548 116.387 19.2228C118.396 21.2733 122.816 27.4248 124.423 35.6268C126.03 43.8288 120.182 49.0689 117.727 50.6637Z" fill="#ABF9E4"/>
<path d="M76.2094 17.8559C77.2808 13.4815 82.4593 11.7044 84.9146 11.0209C98.3074 18.5394 113.039 39.7278 117.727 50.6638C114.513 52.851 112.37 50.6638 111.03 49.2968C106.566 43.3731 96.2985 31.3891 90.9414 30.8423C85.5843 30.2955 80.6736 27.4248 78.8879 26.0578C77.5487 25.1465 75.138 22.2302 76.2094 17.8559Z" fill="#FCA8C0"/>
<path d="M60.688 19.1136C50.7262 17.0121 50.5941 9.62947 51.82 6.23605C59.0926 2.74819 67.3898 1.22842 72.5786 1.22863C77.2661 1.22883 81.9536 5.84516 79.6273 10.0409C77.465 13.9408 70.6499 21.2151 60.688 19.1136Z" fill="#D27492"/>
</svg>
