<svg width="308" height="155" viewBox="0 0 308 155" fill="none" xmlns="http://www.w3.org/2000/svg">
<path d="M21.7259 127.365L8.39844 18.8864L285.413 141.968C194.048 151.373 109.043 148.155 76.0824 148.403C49.7137 148.601 39.652 145.35 37.9172 143.7L21.7259 127.365Z" fill="black" fill-opacity="0.15"/>
<path d="M8.42216 14.6124L4.48598 14.9217L5.26511 18.7923L21.1066 97.492L21.2333 98.1214L21.5751 98.6648C25.0808 104.238 30.3363 112.803 34.7073 120.377C36.8959 124.169 38.8392 127.673 40.2266 130.413C40.9228 131.788 41.4523 132.919 41.7994 133.77C41.9735 134.197 42.0815 134.505 42.141 134.708C42.1506 134.741 42.1581 134.768 42.1638 134.79C42.2258 136.241 42.9144 137.367 43.581 138.12C44.2714 138.899 45.1242 139.498 45.9197 139.961C47.5173 140.892 49.5507 141.65 51.5673 142.266C55.1896 143.373 59.3855 144.204 62.5102 144.693C62.9461 145.034 63.3957 145.303 63.8043 145.518C64.6871 145.982 65.7066 146.359 66.7807 146.678C68.9312 147.317 71.6904 147.835 74.8857 148.267C81.2999 149.132 89.939 149.707 100.011 150.06C120.182 150.769 146.456 150.603 172.962 150.013C225.901 148.833 280.2 145.946 288.982 144.872C292.017 144.501 294.277 142.599 295.891 140.339C297.495 138.094 298.71 135.17 299.665 131.944C301.581 125.467 302.699 116.884 303.303 107.682C304.517 89.2158 303.715 67.4204 302.608 52.9865L302.585 52.684L302.51 52.39L291.949 10.9415L291.415 8.84777L289.305 8.38637C278.357 5.99325 259.988 4.86484 237.699 4.5579C215.314 4.24963 188.683 4.76976 161.042 5.76328C105.756 7.75049 46.3004 11.6365 8.42216 14.6124ZM42.1807 134.861C42.1805 134.861 42.1798 134.857 42.1787 134.851C42.1802 134.858 42.1808 134.861 42.1807 134.861Z" fill="#FCFEE6" stroke="#FFFF93" stroke-width="7"/>
<g filter="url(#filter0_d)">
<path d="M117.453 56.0154C117.773 55.9194 118.285 55.8234 118.989 55.7274C119.693 55.5994 120.413 55.5354 121.149 55.5354C121.853 55.5354 122.477 55.5834 123.021 55.6794C123.597 55.7754 124.077 55.9674 124.461 56.2554C124.845 56.5434 125.133 56.9434 125.325 57.4554C125.517 57.9354 125.613 58.5754 125.613 59.3754V64.0794C126.413 63.7594 127.165 63.5354 127.869 63.4074C128.605 63.2794 129.405 63.2154 130.269 63.2154C131.805 63.2154 133.261 63.4874 134.637 64.0314C136.013 64.5754 137.229 65.3754 138.285 66.4314C139.341 67.4554 140.173 68.7354 140.781 70.2714C141.389 71.8074 141.693 73.5834 141.693 75.5994C141.693 77.6794 141.373 79.5034 140.733 81.0714C140.125 82.6074 139.261 83.8874 138.141 84.9114C137.021 85.9354 135.645 86.7194 134.013 87.2634C132.413 87.7754 130.637 88.0314 128.685 88.0314C126.573 88.0314 124.781 87.7754 123.309 87.2634C121.837 86.7834 120.589 86.1754 119.565 85.4394C118.157 84.4474 117.453 83.1674 117.453 81.5994V56.0154ZM128.685 81.5994C130.157 81.5994 131.293 81.1034 132.093 80.1114C132.925 79.0874 133.341 77.5834 133.341 75.5994C133.341 73.5834 132.925 72.0794 132.093 71.0874C131.261 70.0954 130.141 69.5994 128.733 69.5994C128.093 69.5994 127.533 69.6634 127.053 69.7914C126.605 69.9194 126.109 70.1114 125.565 70.3674V80.8314C125.917 81.0554 126.333 81.2474 126.813 81.4074C127.325 81.5354 127.949 81.5994 128.685 81.5994ZM172.213 75.5994C172.213 77.5834 171.909 79.3594 171.301 80.9274C170.693 82.4634 169.829 83.7594 168.709 84.8154C167.621 85.8714 166.309 86.6714 164.773 87.2154C163.237 87.7594 161.525 88.0314 159.637 88.0314C157.749 88.0314 156.037 87.7434 154.501 87.1674C152.965 86.5914 151.637 85.7754 150.517 84.7194C149.429 83.6314 148.581 82.3194 147.973 80.7834C147.365 79.2474 147.061 77.5194 147.061 75.5994C147.061 73.7114 147.365 71.9994 147.973 70.4634C148.581 68.9274 149.429 67.6314 150.517 66.5754C151.637 65.4874 152.965 64.6554 154.501 64.0794C156.037 63.5034 157.749 63.2154 159.637 63.2154C161.525 63.2154 163.237 63.5194 164.773 64.1274C166.309 64.7034 167.621 65.5354 168.709 66.6234C169.829 67.6794 170.693 68.9754 171.301 70.5114C171.909 72.0474 172.213 73.7434 172.213 75.5994ZM155.413 75.5994C155.413 77.5514 155.781 79.0554 156.517 80.1114C157.285 81.1354 158.341 81.6474 159.685 81.6474C161.029 81.6474 162.053 81.1194 162.757 80.0634C163.493 79.0074 163.861 77.5194 163.861 75.5994C163.861 73.6794 163.493 72.2074 162.757 71.1834C162.021 70.1274 160.981 69.5994 159.637 69.5994C158.293 69.5994 157.253 70.1274 156.517 71.1834C155.781 72.2074 155.413 73.6794 155.413 75.5994ZM186.898 87.2154C186.546 87.2794 186.018 87.3594 185.314 87.4554C184.642 87.5834 183.954 87.6474 183.25 87.6474C182.546 87.6474 181.906 87.5994 181.33 87.5034C180.786 87.4074 180.322 87.2154 179.938 86.9274C179.554 86.6394 179.25 86.2554 179.026 85.7754C178.834 85.2634 178.738 84.6074 178.738 83.8074V55.9674C179.09 55.9034 179.602 55.8234 180.274 55.7274C180.978 55.5994 181.682 55.5354 182.386 55.5354C183.09 55.5354 183.714 55.5834 184.258 55.6794C184.834 55.7754 185.314 55.9674 185.698 56.2554C186.082 56.5434 186.37 56.9434 186.562 57.4554C186.786 57.9354 186.898 58.5754 186.898 59.3754V87.2154ZM204.432 82.0794C204.976 82.0794 205.568 82.0314 206.208 81.9354C206.88 81.8074 207.376 81.6474 207.696 81.4554V77.6154L204.24 77.9034C203.344 77.9674 202.608 78.1594 202.032 78.4794C201.456 78.7994 201.168 79.2794 201.168 79.9194C201.168 80.5594 201.408 81.0874 201.888 81.5034C202.4 81.8874 203.248 82.0794 204.432 82.0794ZM204.048 63.2154C205.776 63.2154 207.344 63.3914 208.752 63.7434C210.192 64.0954 211.408 64.6394 212.4 65.3754C213.424 66.0794 214.208 66.9914 214.752 68.1114C215.296 69.1994 215.568 70.4954 215.568 71.9994V82.7514C215.568 83.5834 215.328 84.2714 214.848 84.8154C214.4 85.3274 213.856 85.7754 213.216 86.1594C211.136 87.4074 208.208 88.0314 204.432 88.0314C202.736 88.0314 201.2 87.8714 199.824 87.5514C198.48 87.2314 197.312 86.7514 196.32 86.1114C195.36 85.4714 194.608 84.6554 194.064 83.6634C193.552 82.6714 193.296 81.5194 193.296 80.2074C193.296 77.9994 193.952 76.3034 195.264 75.1194C196.576 73.9354 198.608 73.1994 201.36 72.9114L207.648 72.2394V71.9034C207.648 70.9754 207.232 70.3194 206.4 69.9354C205.6 69.5194 204.432 69.3114 202.896 69.3114C201.68 69.3114 200.496 69.4394 199.344 69.6954C198.192 69.9514 197.152 70.2714 196.224 70.6554C195.808 70.3674 195.456 69.9354 195.168 69.3594C194.88 68.7514 194.736 68.1274 194.736 67.4874C194.736 66.6554 194.928 65.9994 195.312 65.5194C195.728 65.0074 196.352 64.5754 197.184 64.2234C198.112 63.8714 199.2 63.6154 200.448 63.4554C201.728 63.2954 202.928 63.2154 204.048 63.2154Z" fill="#954F3D"/>
</g>
<defs>
<filter id="filter0_d" x="113.453" y="55.5354" width="106.115" height="40.496" filterUnits="userSpaceOnUse" color-interpolation-filters="sRGB">
<feFlood flood-opacity="0" result="BackgroundImageFix"/>
<feColorMatrix in="SourceAlpha" type="matrix" values="0 0 0 0 0 0 0 0 0 0 0 0 0 0 0 0 0 0 127 0"/>
<feOffset dy="4"/>
<feGaussianBlur stdDeviation="2"/>
<feColorMatrix type="matrix" values="0 0 0 0 0 0 0 0 0 0 0 0 0 0 0 0 0 0 0.25 0"/>
<feBlend mode="normal" in2="BackgroundImageFix" result="effect1_dropShadow"/>
<feBlend mode="normal" in="SourceGraphic" in2="effect1_dropShadow" result="shape"/>
</filter>
</defs>
</svg>
