<svg width="308" height="154" viewBox="0 0 308 154" fill="none" xmlns="http://www.w3.org/2000/svg">
<path d="M21.7825 126.51L8.45508 18.0312L285.469 141.113C194.104 150.518 109.1 147.3 76.139 147.548C49.7703 147.746 39.7086 144.495 37.9738 142.845L21.7825 126.51Z" fill="black" fill-opacity="0.15"/>
<path d="M8.4788 13.7573L4.54262 14.0665L5.32175 17.9372L21.1632 96.6369L21.2899 97.2663L21.6318 97.8097C25.1374 103.383 30.3929 111.947 34.7639 119.522C36.9526 123.314 38.8958 126.818 40.2832 129.558C40.9795 130.933 41.509 132.064 41.856 132.915C42.0301 133.342 42.1381 133.65 42.1977 133.853C42.2072 133.886 42.2147 133.913 42.2204 133.934C42.2824 135.386 42.971 136.512 43.6376 137.264C44.3281 138.044 45.1808 138.643 45.9763 139.106C47.574 140.036 49.6074 140.795 51.6239 141.411C55.2462 142.518 59.4422 143.349 62.5669 143.838C63.0027 144.179 63.4523 144.448 63.8609 144.663C64.7438 145.127 65.7633 145.504 66.8373 145.823C68.9879 146.462 71.747 146.98 74.9423 147.411C81.3566 148.277 89.9956 148.852 100.068 149.205C120.238 149.914 146.513 149.748 173.018 149.157C225.958 147.978 280.256 145.091 289.039 144.017C292.073 143.646 294.333 141.744 295.948 139.484C297.551 137.239 298.767 134.315 299.721 131.089C301.638 124.612 302.755 116.029 303.36 106.827C304.574 88.3607 303.772 66.5653 302.664 52.1314L302.641 51.8289L302.566 51.5349L292.005 10.0864L291.472 7.99267L289.361 7.53127C278.413 5.13815 260.045 4.00973 237.756 3.70279C215.37 3.39453 188.739 3.91465 161.099 4.90818C105.813 6.89539 46.3571 10.7814 8.4788 13.7573ZM42.2373 134.006C42.2372 134.005 42.2365 134.002 42.2354 133.996C42.2369 134.003 42.2374 134.006 42.2373 134.006Z" fill="#FCFEE6" stroke="#FFFF93" stroke-width="7"/>
<g filter="url(#filter0_d)">
<path d="M115.585 63.4163C115.905 63.3203 116.401 63.2243 117.073 63.1283C117.777 63.0323 118.497 62.9843 119.233 62.9843C119.937 62.9843 120.561 63.0323 121.105 63.1283C121.681 63.2243 122.161 63.4163 122.545 63.7043C122.929 63.9923 123.217 64.3923 123.409 64.9043C123.633 65.3843 123.745 66.0243 123.745 66.8243V77.1443C123.745 78.4563 124.065 79.4003 124.705 79.9763C125.345 80.5203 126.273 80.7923 127.489 80.7923C128.225 80.7923 128.817 80.7283 129.265 80.6003C129.745 80.4723 130.113 80.3443 130.369 80.2163V63.4163C130.689 63.3203 131.185 63.2243 131.857 63.1283C132.561 63.0323 133.281 62.9843 134.017 62.9843C134.721 62.9843 135.345 63.0323 135.889 63.1283C136.465 63.2243 136.945 63.4163 137.329 63.7043C137.713 63.9923 138.001 64.3923 138.193 64.9043C138.417 65.3843 138.529 66.0243 138.529 66.8243V81.4163C138.529 83.0163 137.857 84.2163 136.513 85.0163C135.393 85.7203 134.049 86.2483 132.481 86.6003C130.945 86.9843 129.265 87.1763 127.441 87.1763C125.713 87.1763 124.113 86.9843 122.641 86.6003C121.201 86.2163 119.953 85.6243 118.897 84.8243C117.841 84.0243 117.025 83.0003 116.449 81.7523C115.873 80.4723 115.585 78.9363 115.585 77.1443V63.4163ZM154.083 86.3603C153.763 86.4563 153.251 86.5523 152.547 86.6483C151.875 86.7443 151.171 86.7923 150.435 86.7923C149.731 86.7923 149.091 86.7443 148.515 86.6483C147.971 86.5523 147.507 86.3603 147.123 86.0723C146.739 85.7843 146.435 85.4003 146.211 84.9203C146.019 84.4083 145.923 83.7523 145.923 82.9523V68.5523C145.923 67.8163 146.051 67.1923 146.307 66.6803C146.595 66.1363 146.995 65.6563 147.507 65.2403C148.019 64.8243 148.643 64.4563 149.379 64.1363C150.147 63.7843 150.963 63.4803 151.827 63.2243C152.691 62.9683 153.587 62.7763 154.515 62.6483C155.443 62.4883 156.371 62.4083 157.299 62.4083C158.835 62.4083 160.051 62.7123 160.947 63.3203C161.843 63.8963 162.291 64.8563 162.291 66.2003C162.291 66.6483 162.227 67.0963 162.099 67.5443C161.971 67.9603 161.811 68.3443 161.619 68.6963C160.947 68.6963 160.259 68.7283 159.555 68.7923C158.851 68.8563 158.163 68.9523 157.491 69.0803C156.819 69.2083 156.179 69.3523 155.571 69.5123C154.995 69.6403 154.499 69.8003 154.083 69.9923V86.3603ZM187.737 79.4483C187.737 81.8803 186.825 83.7843 185.001 85.1603C183.177 86.5363 180.489 87.2243 176.937 87.2243C175.593 87.2243 174.345 87.1283 173.193 86.9363C172.041 86.7443 171.049 86.4563 170.217 86.0723C169.417 85.6563 168.777 85.1443 168.297 84.5363C167.849 83.9283 167.625 83.2083 167.625 82.3763C167.625 81.6083 167.785 80.9683 168.105 80.4563C168.425 79.9123 168.809 79.4643 169.257 79.1123C170.185 79.6243 171.241 80.0883 172.425 80.5043C173.641 80.8883 175.033 81.0803 176.601 81.0803C177.593 81.0803 178.345 80.9363 178.857 80.6483C179.401 80.3603 179.673 79.9763 179.673 79.4963C179.673 79.0483 179.481 78.6963 179.097 78.4403C178.713 78.1843 178.073 77.9763 177.177 77.8163L175.737 77.5283C172.953 76.9843 170.873 76.1363 169.497 74.9843C168.153 73.8003 167.481 72.1203 167.481 69.9443C167.481 68.7603 167.737 67.6883 168.249 66.7283C168.761 65.7683 169.481 64.9683 170.409 64.3283C171.337 63.6883 172.441 63.1923 173.721 62.8403C175.033 62.4883 176.473 62.3123 178.041 62.3123C179.225 62.3123 180.329 62.4083 181.353 62.6003C182.409 62.7603 183.321 63.0163 184.089 63.3683C184.857 63.7203 185.465 64.1843 185.913 64.7603C186.361 65.3043 186.585 65.9603 186.585 66.7283C186.585 67.4643 186.441 68.1043 186.153 68.6483C185.897 69.1603 185.561 69.5923 185.145 69.9443C184.889 69.7843 184.505 69.6243 183.993 69.4643C183.481 69.2723 182.921 69.1123 182.313 68.9843C181.705 68.8243 181.081 68.6963 180.441 68.6003C179.833 68.5043 179.273 68.4563 178.761 68.4563C177.705 68.4563 176.889 68.5843 176.313 68.8403C175.737 69.0643 175.449 69.4323 175.449 69.9443C175.449 70.2963 175.609 70.5843 175.929 70.8083C176.249 71.0323 176.857 71.2403 177.753 71.4323L179.241 71.7683C182.313 72.4723 184.489 73.4483 185.769 74.6963C187.081 75.9123 187.737 77.4963 187.737 79.4483ZM218.461 74.7443C218.461 76.7283 218.157 78.5043 217.549 80.0723C216.941 81.6083 216.077 82.9043 214.957 83.9603C213.869 85.0163 212.557 85.8163 211.021 86.3603C209.485 86.9043 207.773 87.1763 205.885 87.1763C203.997 87.1763 202.285 86.8883 200.749 86.3123C199.213 85.7363 197.885 84.9203 196.765 83.8643C195.677 82.7763 194.829 81.4643 194.221 79.9283C193.613 78.3923 193.309 76.6643 193.309 74.7443C193.309 72.8563 193.613 71.1443 194.221 69.6083C194.829 68.0723 195.677 66.7763 196.765 65.7203C197.885 64.6323 199.213 63.8003 200.749 63.2243C202.285 62.6483 203.997 62.3603 205.885 62.3603C207.773 62.3603 209.485 62.6643 211.021 63.2723C212.557 63.8483 213.869 64.6803 214.957 65.7683C216.077 66.8243 216.941 68.1203 217.549 69.6563C218.157 71.1923 218.461 72.8883 218.461 74.7443ZM201.661 74.7443C201.661 76.6963 202.029 78.2003 202.765 79.2563C203.533 80.2803 204.589 80.7923 205.933 80.7923C207.277 80.7923 208.301 80.2643 209.005 79.2083C209.741 78.1523 210.109 76.6643 210.109 74.7443C210.109 72.8243 209.741 71.3523 209.005 70.3283C208.269 69.2723 207.229 68.7443 205.885 68.7443C204.541 68.7443 203.501 69.2723 202.765 70.3283C202.029 71.3523 201.661 72.8243 201.661 74.7443Z" fill="#954F3D"/>
</g>
<defs>
<filter id="filter0_d" x="111.585" y="62.3123" width="110.875" height="32.912" filterUnits="userSpaceOnUse" color-interpolation-filters="sRGB">
<feFlood flood-opacity="0" result="BackgroundImageFix"/>
<feColorMatrix in="SourceAlpha" type="matrix" values="0 0 0 0 0 0 0 0 0 0 0 0 0 0 0 0 0 0 127 0"/>
<feOffset dy="4"/>
<feGaussianBlur stdDeviation="2"/>
<feColorMatrix type="matrix" values="0 0 0 0 0 0 0 0 0 0 0 0 0 0 0 0 0 0 0.25 0"/>
<feBlend mode="normal" in2="BackgroundImageFix" result="effect1_dropShadow"/>
<feBlend mode="normal" in="SourceGraphic" in2="effect1_dropShadow" result="shape"/>
</filter>
</defs>
</svg>
