<svg width="69" height="93" viewBox="0 0 69 93" fill="none" xmlns="http://www.w3.org/2000/svg">
<path d="M15.3062 3.86107C21.1367 2.73801 22.2347 7.7237 22.0449 10.6687C33.6488 8.25207 43.3949 11.0998 46.9872 12.2158C46.2661 10.0617 48.4306 5.60022 50.7374 4.7512C58.5483 6.52459 59.6036 11.0731 60.1365 13.6966C58.5242 16.3928 54.3995 18.2046 52.4129 19.0669C53.8599 21.6354 54.7147 28.4575 54.7147 33.9191C54.7147 39.0129 44.8926 43.189 44.8172 43.3021C44.7569 43.3926 46.6013 45.7122 47.4307 46.7049C55.5436 50.8066 62.6504 56.544 65.0883 58.9945C65.5081 66.6774 62.3822 70.9174 58.9887 70.0066C56.1754 69.2515 53.5762 67.0267 52.195 65.4788C50.5664 65.4184 50.4138 68.6991 51.0372 70.1232C60.9521 69.3692 59.766 75.7385 59.2621 78.8993C58.8955 81.1987 54.0714 84.5012 51.8723 85.8081C42.9792 87.8947 42.5231 82.7776 42.9792 80.1322C37.5819 82.8689 29.4934 81.4391 26.7224 80.1153L25.8775 80.7788C26.1425 85.2313 23.2933 86.9437 21.1519 87.8531C12.0157 87.3948 9.03588 78.9477 9.04902 74.625C10.3127 67.9181 17.3407 70.0387 17.9479 70.0387C18.4336 70.0387 18.7378 64.9042 17.9681 63.7193L16.2262 65.289L15.3654 66.0992L14.9456 66.5234L14.7503 66.7148L14.6057 66.8477C5.88 69.243 3.95081 61.8895 4.25543 57.9236L23.4118 42.6989C11.7148 38.9448 12.5123 25.3766 14.9013 18.8849C3.32338 9.37541 10.209 5.14244 15.3062 3.86107Z" stroke="#FFFF93" stroke-width="7"/>
<path d="M4.34368 87.9224C-7.52218 80.3424 16.6257 74.4995 30.3171 73.71C66.371 73.71 69.2994 81.6058 66.2569 85.5537C63.975 90.7649 46.6706 92.4625 38.3037 92.6599C18.0493 93.1377 7.76652 90.0937 4.34368 87.9224Z" fill="black" fill-opacity="0.2"/>
<path d="M13.3575 31.4919C14.5435 38.4104 20.6055 41.7874 23.4882 42.611L5.67134 56.9929C5.67134 56.9929 5.09547 57.4887 4.71589 57.8303C4.33631 58.172 4.16117 58.919 4.16117 58.919C4.5387 67.419 11.114 67.9091 14.3544 67.0917L17.9409 63.694C18.847 65.5061 18.3184 68.6785 17.9409 70.0381C12.278 68.62 9.66677 72.0133 9.06902 73.8872C8.6915 83.2499 15.9589 87.1636 19.6398 87.9501C25.1517 87.8746 26.0892 83.1367 25.869 80.7771L26.7184 80.1164C31.6263 83.8162 39.6487 81.658 43.0465 80.1164C42.5179 82.4571 43.2667 84.4265 43.7072 85.1187C51.7862 89.196 57.4796 82.476 59.3164 78.6063C61.0065 70.6027 54.5852 69.5594 51.1633 70.0381C50.3734 69.224 50.8342 66.9796 51.1633 65.9592L52.1508 65.3434C53.7321 68.3085 57.5868 69.7087 59.3164 70.0381C66.482 67.3201 64.9995 60.4016 64.7524 58.919C64.5547 57.733 54.9511 51.3416 50.174 48.2941C46.6159 46.7128 44.9028 43.8465 44.4909 42.611C51.4095 40.6343 54.1275 36.1867 54.6217 34.21C54.8193 24.7217 53.0568 20.0434 52.1508 18.8903C56.3019 16.9135 58.6575 15.2663 59.3164 14.6898C61.2931 9.15493 55.3629 6.28867 52.1508 5.5474C47.6043 5.15205 46.7971 9.83031 46.9619 12.2189C39.0549 8.46307 27.0298 9.66558 22.0057 10.7363V7.77122C20.8196 1.24804 12.7809 5.05323 8.90979 7.77122C6.73539 11.9223 12.122 16.9136 15.0871 18.8903C12.9127 21.0647 13.028 28.1973 13.3575 31.4919Z" fill="#E0713A"/>
<path d="M22.3223 61.2917C22.3223 56.681 24.3603 48.9296 25.9307 45.2543C32.1852 46.6174 40.7652 45.2877 44.2733 44.4525L46.9796 48.0609C49.9866 52.9724 50.7217 64.7331 50.1871 70.7137C47.541 76.3267 40.9103 78.893 36.6556 78.5318C23.0406 77.3758 22.7543 63.2555 22.3223 61.2917Z" fill="#F1834E"/>
<path d="M8.39946 57.9592C5.41896 57.7037 4.77292 58.5821 4.77289 59.2917C4.64009 60.5254 5.0007 64.7577 8.98505 66.6072C11.4725 67.3009 14.3861 67.212 14.4571 65.6507C13.9603 63.3799 11.38 58.2146 8.39946 57.9592Z" fill="url(#paint0_linear)"/>
<path d="M13.1364 79.2648C12.4268 79.5842 10.9649 79.5203 10.7946 76.7101C11.5752 76.4972 13.1364 76.7101 13.1364 79.2648Z" fill="url(#paint1_linear)"/>
<path d="M13.1364 75.3263C13.1364 76.3482 14.5557 76.6746 15.2654 76.7101C15.2654 73.4102 13.1364 72.1329 12.6042 73.0909C12.1784 73.8573 12.7816 74.9005 13.1364 75.3263Z" fill="url(#paint2_linear)"/>
<path d="M18.033 75.8585C17.1105 75.7875 15.2654 74.9856 15.2654 72.3457C16.7201 72.3812 19.3104 73.1334 18.033 75.8585Z" fill="url(#paint3_linear)"/>
<path d="M19.5233 84.6936C16.1169 84.6085 14.5557 82.1744 14.2009 80.968C13.3493 77.9874 15.975 76.8875 17.3943 76.7101C20.8006 76.7101 22.2199 79.5487 22.5038 80.968C23.185 84.3743 20.8006 84.871 19.5233 84.6936Z" fill="url(#paint4_linear)"/>
<path d="M50.4994 76.7101C45.8157 78.4132 45.545 82.2463 46.1837 83.843C50.1009 85.972 53.1606 82.7421 54.0122 80.968C55.2044 76.7952 52.1671 76.3907 50.4994 76.7101Z" fill="url(#paint5_linear)"/>
<path d="M50.4994 75.3263C51.2446 75.7166 52.9903 75.8159 54.0122 73.0909C52.8413 71.9554 50.4994 70.8129 50.4994 75.3263Z" fill="url(#paint6_linear)"/>
<path d="M54.0122 76.7101C55.1121 76.7101 57.2269 75.9862 56.8863 73.0909C55.5734 72.878 53.1606 73.3038 54.0122 76.7101Z" fill="url(#paint7_linear)"/>
<path d="M55.6089 79.2648C56.7088 79.6196 58.8236 79.4351 58.483 75.8585C57.0991 75.9649 54.587 76.7952 55.6089 79.2648Z" fill="url(#paint8_linear)"/>
<path d="M60.944 58.2606C55.443 60.2925 55.5207 65.673 56.2228 67.8825C59.3945 71.6985 62.9308 67.3167 64.273 64.6943C65.9084 58.4995 62.6992 57.7031 60.944 58.2606Z" fill="url(#paint9_linear)"/>
<path d="M27.8638 63.1545C27.4673 54.7791 33.2326 51.8593 36.1648 51.4463C39.1176 51.4463 45.7016 52.6587 46.4588 63.1545C46.1897 71.6315 40.1672 74.8888 37.0321 74.5529C34.1412 74.2432 28.2602 71.5299 27.8638 63.1545Z" fill="url(#paint10_linear)"/>
<path d="M18.6115 34.3514C17.9166 34.878 18.4134 34.3514 18.6115 36.5842C18.8097 38.817 20.7391 40.8918 20.7391 40.8918C21.7477 42.2786 25.1946 43.4323 26.2715 43.5637C32.0745 45.0144 51.0335 46.8726 54.7654 33.7445L51.6544 33.0519C51.2262 35.1068 49.8689 35.7052 49.1071 35.3637C47.7203 34.103 47.9931 32.723 48.2295 32.0663C44.7624 31.4989 42.8816 31.8299 42.4876 32.0663C41.4159 34.2726 39.2043 34.8767 38.2324 34.903C36.5304 34.903 34.4764 33.0118 33.6621 32.0663C28.9342 31.1207 25.8212 32.6197 25.2306 33.2482C24.6401 33.8768 23.6662 36.4067 23.2067 36.5842C22.4936 36.5842 20.9492 35.8486 20.7391 34.903C20.7391 34.903 19.2957 33.8331 18.6115 34.3514Z" fill="url(#paint11_linear)"/>
<path d="M17.4296 14.8882C17.3053 15.4554 16.5367 16.2082 16.4106 16.2983C16.2845 16.3884 15.6974 16.2983 15.49 15.8704C15.2825 15.4425 15.3744 15.4102 14.8292 14.8882C14.2841 14.3662 14.742 14.1004 14.4352 13.7851C14.1285 13.4697 13.9374 13.7851 13.5968 13.4697C12.8528 12.512 12.4291 10.4872 13.0133 9.4389C13.3964 8.7516 14.7638 8.03259 14.8292 8.03259C15.7609 8.03259 16.816 7.3573 17.6295 7.90884C18.5295 8.51915 18.6115 9.3722 18.6115 9.3722C18.6115 9.3722 18.7119 10.3161 18.6115 10.8694C18.5112 11.4228 18.7583 11.7431 18.8472 12.0515C18.9362 12.3598 18.6115 12.6819 18.6115 12.6819L18.2576 13.0098C18.2576 13.0098 17.8888 13.0098 17.6295 12.6819C17.3701 12.354 17.4296 12.0515 17.4296 12.0515C17.4296 12.0515 17.5798 11.2108 17.4296 10.8694C17.2794 10.5281 17.3992 10.4755 16.9568 9.92384C16.5143 9.3722 15.6172 9.92384 15.6172 9.92384C15.6172 9.92384 15.5159 10.2688 15.6172 10.8694C15.7185 11.4701 15.2736 10.4847 14.4352 10.8694C13.2208 11.5395 14.4352 12.0515 14.4352 12.0515C14.4352 12.0515 15.2776 12.4239 15.6172 12.6819C15.9568 12.9399 15.7435 13.4632 16.09 13.7851C16.4365 14.1069 16.9568 14.1328 16.9568 14.1328C16.9568 14.1328 17.5538 14.321 17.4296 14.8882Z" fill="url(#paint12_linear)"/>
<path d="M49.7301 12.6819C49.7301 12.6819 49.6012 13.2568 49.7301 13.8761C49.8591 14.4954 50.3622 14.4954 50.3622 14.4954L50.8777 14.014C50.8777 14.014 50.7185 13.77 50.761 13.1864C50.8034 12.6028 50.7398 12.242 51.005 12.3375C51.2703 12.433 51.6586 12.3293 52.101 11.7362C52.5435 11.1431 52.9535 11.3985 52.9535 11.3985C52.9535 11.3985 53.2019 11.9251 53.5223 12.0515C53.9936 12.2373 53.9486 11.7872 54.2175 12.0515C54.4865 12.3157 54.2175 13.0418 54.2175 13.0418C54.2175 13.0418 53.9607 13.6448 53.5223 13.7851C53.0838 13.9253 52.4494 14.2952 52.101 14.4954C51.7526 14.6956 51.0618 14.9876 51.1838 15.5067C51.2833 15.9301 51.4746 15.9952 52.101 16.1387C52.7274 16.2822 54.0822 15.3253 55.1433 14.5552C56.2044 13.7851 55.924 11.72 55.5448 10.8694C55.1433 10.0031 54.3519 9.56529 53.7751 9.3722C51.6515 8.66128 50.1936 11.2824 49.7301 12.6819Z" fill="url(#paint13_linear)"/>
<path d="M51.0034 14.1946C50.9695 14.8526 51.3025 14.5341 51.3025 14.5341C51.5872 14.5341 51.8351 14.3603 52.1087 14.1946C52.7518 13.8053 53.7877 13.6353 54.0614 12.9425C54.3829 12.1284 53.1806 12.7727 52.6289 11.6267L52.1087 12.1572C51.9077 12.4522 51.7044 12.5816 51.3025 12.5816C50.9006 12.5816 51.0372 13.5367 51.0034 14.1946Z" fill="#E79A4A"/>
<path d="M51.7583 33.2669C51.6054 32.3901 51.1832 30.9979 49.6206 31.1263C48.0581 31.2548 47.8251 32.5198 47.8654 33.2669C48.1437 35.0435 49.1309 35.4697 49.899 35.749C51.6488 35.213 51.9112 34.1437 51.7583 33.2669Z" fill="#FCA18E"/>
<path d="M23.9761 26.55C23.3928 27.6194 22.5762 30.0382 23.9761 31.1582C24.6567 30.5749 25.6094 28.8366 23.9761 26.55Z" fill="#B7682F"/>
<path d="M48.767 26.55C48.3393 27.1723 47.7404 28.86 48.767 30.6333C49.292 29.7972 50.027 27.81 48.767 26.55Z" fill="#B7682F"/>
<path d="M35.4092 36.5831C35.6231 37.6331 36.5992 39.5114 38.7925 38.6248C40.9857 37.7381 40.6007 36.8942 40.1341 36.5831" stroke="#B7682F" stroke-width="0.5" stroke-linecap="round" stroke-linejoin="round"/>
<path d="M20.7097 34.8331C20.1496 32.4532 21.7208 31.6637 22.5764 31.5665C23.3347 31.5665 24.1513 31.5665 24.9096 33.7832C25.156 35.6144 24.6965 36.8187 23.112 36.9772C21.5274 37.1356 20.8264 35.4359 20.7097 34.8331Z" fill="#FCA18E"/>
<path d="M33.8916 10.0851C34.4893 10.3997 35.7036 11.3875 35.7792 12.8221M36.4399 14.8042C36.6287 15.339 37.0062 16.7296 37.0062 18.0132M37.7612 20.939C37.7612 21.5997 37.7612 23.1853 37.7612 24.2424M38.4334 26.1101V28.8169" stroke="#CE634F" stroke-width="0.5"/>
<path d="M14.4802 11.7377C14.8219 11.9317 15.3178 12.1909 15.8136 12.5177C16.3094 12.8445 16.1291 13.5995 16.2981 13.6671C17.3236 13.9488 17.3737 14.3402 17.4798 14.3837C17.586 14.4273 18.0876 14.1285 18.0155 13.8481C17.982 13.7176 17.5685 13.2655 17.3137 12.6655C17.0211 11.9766 17.4839 11.5336 17.0243 10.6144C16.5647 9.69524 16.0711 9.81913 15.8136 9.95912C15.556 10.0991 15.9265 11.0831 15.754 11.2296C15.5816 11.3761 14.9307 10.8613 14.4802 11.0831C14.0297 11.3049 13.9994 11.5711 14.4802 11.7377Z" fill="#E79A4A"/>
<path d="M13.7427 14.4447L12.4688 16.804C10.4978 15.1443 8.91586 12.5682 8.91586 12.149C6.91905 7.28645 11.2042 5.29201 13.7427 4.31388C19.7792 2.3576 21.8724 5.57491 22.0122 7.9737C22.0683 8.93679 22.0122 10.3077 20.8582 10.5541C19.7759 10.7851 19.0527 9.55394 19.0527 9.06488C17.4876 5.65541 14.3017 7.64427 12.9043 9.06488C11.6747 10.2945 12.9509 13.1638 13.7427 14.4447Z" fill="#D63944"/>
<path d="M46.9881 12.2033L48.8129 13.923C48.3099 12.2461 50.1132 8.50017 52.2364 7.91449C54.9751 8.13807 56.4277 9.24935 57.1271 12.0366C57.3507 13.8252 54.7251 15.7522 53.2812 16.3345C52.0515 16.7816 51.8924 18.3693 52.1253 18.8817C56.5409 18.3786 59.2823 15.262 59.981 13.7017C60.9591 10.8371 55.2407 4.14163 51.3281 4.70056C48.1981 5.14771 46.5599 9.76305 46.9881 12.2033Z" fill="#DB6A48"/>
<path d="M38.2623 34.3665C36.1663 33.8775 35.1183 33.3885 34.0703 31.5719C34.0703 30.1745 42.105 29.406 41.8256 31.5719C41.602 33.3045 39.3569 34.1569 38.2623 34.3665Z" fill="#E0583A"/>
<path d="M47.7607 7.70661L49.7725 10.06C50.5113 8.7019 51.3364 8.31047 52.2569 8.07543C53.1775 7.8404 55.7041 8.41819 56.6932 10.6412C57.4218 12.1376 56.9968 13.2686 56.6932 13.6471C56.4739 14.1245 55.3789 15.0607 54.8589 15.4691L56.4152 17.4239C59.1482 15.545 59.4645 14.5201 60.0022 13.6471C60.8563 10.06 55.3903 5.67591 53.9289 5.23934C50.5506 3.39842 48.5515 6.30849 47.7607 7.70661Z" fill="#D63944"/>
<defs>
<linearGradient id="paint0_linear" x1="34.7374" y1="7.69214" x2="34.7374" y2="84.7247" gradientUnits="userSpaceOnUse">
<stop stop-color="#FCCA67" stop-opacity="0.69"/>
<stop offset="1" stop-color="#FCCA67"/>
</linearGradient>
<linearGradient id="paint1_linear" x1="34.7374" y1="7.69214" x2="34.7374" y2="84.7247" gradientUnits="userSpaceOnUse">
<stop stop-color="#FCCA67" stop-opacity="0.69"/>
<stop offset="1" stop-color="#FCCA67"/>
</linearGradient>
<linearGradient id="paint2_linear" x1="34.7374" y1="7.69214" x2="34.7374" y2="84.7247" gradientUnits="userSpaceOnUse">
<stop stop-color="#FCCA67" stop-opacity="0.69"/>
<stop offset="1" stop-color="#FCCA67"/>
</linearGradient>
<linearGradient id="paint3_linear" x1="34.7374" y1="7.69214" x2="34.7374" y2="84.7247" gradientUnits="userSpaceOnUse">
<stop stop-color="#FCCA67" stop-opacity="0.69"/>
<stop offset="1" stop-color="#FCCA67"/>
</linearGradient>
<linearGradient id="paint4_linear" x1="34.7374" y1="7.69214" x2="34.7374" y2="84.7247" gradientUnits="userSpaceOnUse">
<stop stop-color="#FCCA67" stop-opacity="0.69"/>
<stop offset="1" stop-color="#FCCA67"/>
</linearGradient>
<linearGradient id="paint5_linear" x1="34.7374" y1="7.69214" x2="34.7374" y2="84.7247" gradientUnits="userSpaceOnUse">
<stop stop-color="#FCCA67" stop-opacity="0.69"/>
<stop offset="1" stop-color="#FCCA67"/>
</linearGradient>
<linearGradient id="paint6_linear" x1="34.7374" y1="7.69214" x2="34.7374" y2="84.7247" gradientUnits="userSpaceOnUse">
<stop stop-color="#FCCA67" stop-opacity="0.69"/>
<stop offset="1" stop-color="#FCCA67"/>
</linearGradient>
<linearGradient id="paint7_linear" x1="34.7374" y1="7.69214" x2="34.7374" y2="84.7247" gradientUnits="userSpaceOnUse">
<stop stop-color="#FCCA67" stop-opacity="0.69"/>
<stop offset="1" stop-color="#FCCA67"/>
</linearGradient>
<linearGradient id="paint8_linear" x1="34.7374" y1="7.69214" x2="34.7374" y2="84.7247" gradientUnits="userSpaceOnUse">
<stop stop-color="#FCCA67" stop-opacity="0.69"/>
<stop offset="1" stop-color="#FCCA67"/>
</linearGradient>
<linearGradient id="paint9_linear" x1="34.7374" y1="7.69214" x2="34.7374" y2="84.7247" gradientUnits="userSpaceOnUse">
<stop stop-color="#FCCA67" stop-opacity="0.69"/>
<stop offset="1" stop-color="#FCCA67"/>
</linearGradient>
<linearGradient id="paint10_linear" x1="34.7374" y1="7.69214" x2="34.7374" y2="84.7247" gradientUnits="userSpaceOnUse">
<stop stop-color="#FCCA67" stop-opacity="0.69"/>
<stop offset="1" stop-color="#FCCA67"/>
</linearGradient>
<linearGradient id="paint11_linear" x1="34.7374" y1="7.69214" x2="34.7374" y2="84.7247" gradientUnits="userSpaceOnUse">
<stop stop-color="#FCCA67" stop-opacity="0.69"/>
<stop offset="1" stop-color="#FCCA67"/>
</linearGradient>
<linearGradient id="paint12_linear" x1="34.7374" y1="7.69214" x2="34.7374" y2="84.7247" gradientUnits="userSpaceOnUse">
<stop stop-color="#FCCA67" stop-opacity="0.69"/>
<stop offset="1" stop-color="#FCCA67"/>
</linearGradient>
<linearGradient id="paint13_linear" x1="34.7374" y1="7.69214" x2="34.7374" y2="84.7247" gradientUnits="userSpaceOnUse">
<stop stop-color="#FCCA67" stop-opacity="0.69"/>
<stop offset="1" stop-color="#FCCA67"/>
</linearGradient>
</defs>
</svg>
