<svg width="67" height="90" viewBox="0 0 67 90" fill="none" xmlns="http://www.w3.org/2000/svg">
<path d="M3.36614 84.3452C-8.49972 76.7653 15.6481 70.9224 29.3395 70.1328C65.3935 70.1328 68.3219 78.0286 65.2794 81.9765C62.9975 87.1877 45.6931 88.8853 37.3261 89.0827C17.0718 89.5606 6.78898 86.5166 3.36614 84.3452Z" fill="black" fill-opacity="0.2"/>
<path d="M12.3799 27.9147C13.566 34.8333 19.6279 38.2102 22.5107 39.0339L4.6938 53.4157C4.6938 53.4157 4.11793 53.9116 3.73835 54.2532C3.35877 54.5948 3.18363 55.3419 3.18363 55.3419C3.56116 63.8418 10.1364 64.332 13.3769 63.5146L16.9634 60.1168C17.8694 61.929 17.3409 65.1013 16.9634 66.461C11.3005 65.0428 8.68924 68.4362 8.09148 70.3101C7.71396 79.6728 14.9814 83.5865 18.6622 84.373C24.1741 84.2975 25.1117 79.5595 24.8915 77.2L25.7409 76.5393C30.6487 80.2391 38.6712 78.0809 42.0689 76.5393C41.5404 78.88 42.2892 80.8494 42.7296 81.5415C50.8087 85.6188 56.5021 78.8988 58.3389 75.0292C60.029 67.0256 53.6077 65.9822 50.1858 66.461C49.3958 65.6469 49.8566 63.4025 50.1858 62.382L51.1732 61.7663C52.7546 64.7314 56.6092 66.1315 58.3389 66.461C65.5045 63.743 64.022 56.8244 63.7749 55.3419C63.5772 54.1559 53.9736 47.7644 49.1965 44.717C45.6384 43.1356 43.9252 40.2693 43.5134 39.0339C50.4319 37.0571 53.1499 32.6095 53.6441 30.6328C53.8418 21.1445 52.0792 16.4662 51.1732 15.3131C55.3243 13.3363 57.68 11.6891 58.3389 11.1126C60.3156 5.57778 54.3854 2.71152 51.1732 1.97025C46.6267 1.5749 45.8196 6.25316 45.9843 8.64171C38.0774 4.88592 26.0523 6.08843 21.0281 7.15916V4.19407C19.8421 -2.32911 11.8034 1.47608 7.93225 4.19407C5.75785 8.3452 11.1444 13.3364 14.1095 15.3131C11.9351 17.4875 12.0504 24.6202 12.3799 27.9147Z" fill="#E0713A"/>
<path d="M21.3452 57.7145C21.3452 53.1039 23.3833 45.3524 24.9536 41.6772C31.2082 43.0403 39.7881 41.7106 43.2963 40.8754L46.0026 44.4838C49.0096 49.3952 49.7446 61.1559 49.2101 67.1365C46.5639 72.7496 39.9333 75.3159 35.6785 74.9546C22.0635 73.7987 21.7773 59.6783 21.3452 57.7145Z" fill="#F1834E"/>
<path d="M7.42192 54.382C4.44142 54.1266 3.79538 55.005 3.79535 55.7146C3.66255 56.9482 4.02316 61.1805 8.00751 63.0301C10.495 63.7237 13.4086 63.6348 13.4795 62.0736C12.9828 59.8027 10.4024 54.6375 7.42192 54.382Z" fill="url(#paint0_linear)"/>
<path d="M12.1589 75.6877C11.4492 76.007 9.98736 75.9431 9.81704 73.1329C10.5977 72.92 12.1589 73.1329 12.1589 75.6877Z" fill="url(#paint1_linear)"/>
<path d="M12.1589 71.7491C12.1589 72.771 13.5782 73.0975 14.2878 73.1329C14.2878 69.8331 12.1589 68.5557 11.6266 69.5137C11.2009 70.2801 11.8041 71.3233 12.1589 71.7491Z" fill="url(#paint2_linear)"/>
<path d="M17.0555 72.2813C16.1329 72.2104 14.2878 71.4085 14.2878 68.7686C15.7426 68.8041 18.3328 69.5563 17.0555 72.2813Z" fill="url(#paint3_linear)"/>
<path d="M18.5457 81.1165C15.1394 81.0313 13.5782 78.5972 13.2234 77.3908C12.3718 74.4103 14.9975 73.3103 16.4168 73.1329C19.8231 73.1329 21.2424 75.9715 21.5262 77.3908C22.2075 80.7971 19.8231 81.2939 18.5457 81.1165Z" fill="url(#paint4_linear)"/>
<path d="M49.5219 73.1329C44.8382 74.8361 44.5674 78.6692 45.2061 80.2659C49.1234 82.3948 52.1831 79.1649 53.0346 77.3908C54.2269 73.2181 51.1896 72.8136 49.5219 73.1329Z" fill="url(#paint5_linear)"/>
<path d="M49.5219 71.7491C50.267 72.1394 52.0127 72.2388 53.0346 69.5137C51.8637 68.3783 49.5219 67.2358 49.5219 71.7491Z" fill="url(#paint6_linear)"/>
<path d="M53.0346 73.1329C54.1346 73.1329 56.2493 72.4091 55.9087 69.5137C54.5959 69.3008 52.1831 69.7266 53.0346 73.1329Z" fill="url(#paint7_linear)"/>
<path d="M54.6313 75.6877C55.7313 76.0425 57.8461 75.858 57.5054 72.2813C56.1216 72.3878 53.6095 73.2181 54.6313 75.6877Z" fill="url(#paint8_linear)"/>
<path d="M59.9664 54.6835C54.4655 56.7154 54.5431 62.0959 55.2452 64.3054C58.417 68.1213 61.9533 63.7396 63.2955 61.1171C64.9309 54.9223 61.7216 54.1259 59.9664 54.6835Z" fill="url(#paint9_linear)"/>
<path d="M26.8862 59.5774C26.4897 51.202 32.255 48.2822 35.1872 47.8692C38.1401 47.8692 44.7241 49.0816 45.4813 59.5774C45.2122 68.0544 39.1897 71.3117 36.0545 70.9758C33.1636 70.666 27.2827 67.9527 26.8862 59.5774Z" fill="url(#paint10_linear)"/>
<path d="M17.634 30.7743C16.939 31.3009 17.4359 30.7743 17.634 33.0071C17.8321 35.2398 19.7616 37.3146 19.7616 37.3146C20.7702 38.7015 24.217 39.8552 25.294 39.9865C31.097 41.4373 50.056 43.2955 53.7878 30.1673L50.6768 29.4748C50.2487 31.5297 48.8913 32.128 48.1296 31.7865C46.7427 30.5258 47.0156 29.1458 47.252 28.4891C43.7848 27.9217 41.904 28.2527 41.51 28.4891C40.4384 30.6954 38.2268 31.2996 37.2549 31.3258C35.5529 31.3258 33.4988 29.4347 32.6846 28.4891C27.9566 27.5436 24.8436 29.0425 24.2531 29.6711C23.6626 30.2996 22.6887 32.8296 22.2291 33.0071C21.5161 33.0071 19.9717 32.2714 19.7616 31.3258C19.7616 31.3258 18.3181 30.2559 17.634 30.7743Z" fill="url(#paint11_linear)"/>
<path d="M16.452 11.311C16.3278 11.8783 15.5592 12.631 15.4331 12.7211C15.3069 12.8112 14.7199 12.7211 14.5124 12.2932C14.305 11.8653 14.3968 11.833 13.8517 11.311C13.3065 10.7891 13.7644 10.5232 13.4577 10.2079C13.1509 9.89259 12.9599 10.2079 12.6193 9.89259C11.8753 8.93485 11.4515 6.91006 12.0358 5.86175C12.4188 5.17445 13.7863 4.45545 13.8517 4.45545C14.7834 4.45545 15.8385 3.78015 16.6519 4.33169C17.552 4.942 17.634 5.79506 17.634 5.79506C17.634 5.79506 17.7344 6.73894 17.634 7.29229C17.5336 7.84565 17.7807 8.16599 17.8697 8.47432C17.9587 8.78264 17.634 9.10473 17.634 9.10473L17.28 9.43264C17.28 9.43264 16.9113 9.43264 16.6519 9.10473C16.3926 8.77682 16.452 8.47432 16.452 8.47432C16.452 8.47432 16.6022 7.63364 16.452 7.29229C16.3018 6.95095 16.4217 6.89833 15.9792 6.34669C15.5368 5.79506 14.6397 6.34669 14.6397 6.34669C14.6397 6.34669 14.5384 6.69161 14.6397 7.29229C14.741 7.89298 14.2961 6.90751 13.4577 7.29229C12.2432 7.96235 13.4577 8.47432 13.4577 8.47432C13.4577 8.47432 14.3001 8.84671 14.6397 9.10473C14.9792 9.36275 14.7659 9.88606 15.1124 10.2079C15.459 10.5297 15.9792 10.5557 15.9792 10.5557C15.9792 10.5557 16.5763 10.7438 16.452 11.311Z" fill="url(#paint12_linear)"/>
<path d="M48.7526 9.10473C48.7526 9.10473 48.6237 9.6796 48.7526 10.2989C48.8815 10.9183 49.3846 10.9183 49.3846 10.9183L49.9002 10.4369C49.9002 10.4369 49.741 10.1928 49.7835 9.60923C49.8259 9.02563 49.7622 8.66486 50.0275 8.76036C50.2928 8.85586 50.681 8.75211 51.1235 8.15901C51.5659 7.56591 51.9759 7.82135 51.9759 7.82135C51.9759 7.82135 52.2244 8.348 52.5447 8.47432C53.0161 8.66016 52.971 8.21004 53.24 8.47432C53.5089 8.7386 53.24 9.46462 53.24 9.46462C53.24 9.46462 52.9832 10.0676 52.5447 10.2079C52.1063 10.3482 51.4719 10.7181 51.1235 10.9183C50.7751 11.1185 50.0843 11.4105 50.2063 11.9295C50.3057 12.353 50.4971 12.4181 51.1235 12.5615C51.7499 12.705 53.1047 11.7482 54.1657 10.978C55.2268 10.2079 54.9464 8.14281 54.5672 7.29229C54.1657 6.42597 53.3743 5.98814 52.7976 5.79506C50.674 5.08413 49.2161 7.70529 48.7526 9.10473Z" fill="url(#paint13_linear)"/>
<path d="M50.0254 10.6175C49.9915 11.2755 50.3245 10.9569 50.3245 10.9569C50.6092 10.9569 50.8571 10.7832 51.1307 10.6175C51.7738 10.2281 52.8097 10.0581 53.0833 9.3653C53.4049 8.55121 52.2026 9.19553 51.6509 8.04956L51.1307 8.58005C50.9297 8.87502 50.7264 9.00449 50.3245 9.00449C49.9226 9.00449 50.0592 9.95951 50.0254 10.6175Z" fill="#E79A4A"/>
<path d="M50.7808 29.6897C50.6279 28.8129 50.2057 27.4208 48.6431 27.5492C47.0805 27.6776 46.8476 28.9427 46.8879 29.6897C47.1662 31.4663 48.1533 31.8925 48.9215 32.1719C50.6713 31.6358 50.9336 30.5665 50.7808 29.6897Z" fill="#FCA18E"/>
<path d="M22.9986 22.9729C22.4153 24.0423 21.5986 26.461 22.9986 27.5811C23.6791 26.9977 24.6319 25.2595 22.9986 22.9729Z" fill="#B7682F"/>
<path d="M47.7895 22.9729C47.3617 23.5951 46.7629 25.2828 47.7895 27.0561C48.3145 26.22 49.0495 24.2329 47.7895 22.9729Z" fill="#B7682F"/>
<path d="M34.4316 33.006C34.6456 34.056 35.6217 35.9343 37.8149 35.0476C40.0082 34.1609 39.6232 33.3171 39.1565 33.006" stroke="#B7682F" stroke-width="0.5" stroke-linecap="round" stroke-linejoin="round"/>
<path d="M19.7316 31.256C19.1716 28.876 20.7428 28.0866 21.5983 27.9894C22.3566 27.9894 23.1733 27.9894 23.9316 30.206C24.178 32.0373 23.7185 33.2416 22.1339 33.4C20.5494 33.5585 19.8483 31.8587 19.7316 31.256Z" fill="#FCA18E"/>
<path d="M32.9141 6.50793C33.5118 6.82252 34.7261 7.81036 34.8016 9.245M35.4624 11.2271C35.6511 11.7619 36.0287 13.1524 36.0287 14.436M36.7837 17.3619C36.7837 18.0226 36.7837 19.6082 36.7837 20.6652M37.4558 22.533V25.2397" stroke="#CE634F" stroke-width="0.5"/>
<path d="M13.5027 8.16057C13.8444 8.35459 14.3402 8.61377 14.8361 8.94057C15.3319 9.26736 15.1516 10.0224 15.3206 10.09C16.3461 10.3717 16.3962 10.763 16.5023 10.8066C16.6085 10.8501 17.1101 10.5514 17.038 10.2709C17.0044 10.1404 16.5909 9.68837 16.3361 9.08838C16.0435 8.39941 16.5063 7.95641 16.0467 7.03725C15.5872 6.11809 15.0936 6.24199 14.8361 6.38197C14.5785 6.52195 14.9489 7.50594 14.7765 7.65243C14.604 7.79892 13.9532 7.2841 13.5027 7.50594C13.0522 7.72777 13.0218 7.994 13.5027 8.16057Z" fill="#E79A4A"/>
<path d="M12.7652 10.8676L11.4912 13.2268C9.52031 11.5671 7.93832 8.99101 7.93832 8.57181C5.94151 3.70931 10.2267 1.71486 12.7652 0.736732C18.8017 -1.21955 20.8949 1.99776 21.0346 4.39655C21.0908 5.35964 21.0346 6.73057 19.8806 6.97694C18.7983 7.20799 18.0751 5.97679 18.0751 5.48774C16.5101 2.07826 13.3241 4.06712 11.9268 5.48774C10.6971 6.7174 11.9734 9.58664 12.7652 10.8676Z" fill="#D63944"/>
<path d="M46.0106 8.6261L47.8354 10.3458C47.3324 8.66894 49.1356 4.92302 51.2588 4.33734C53.9976 4.56092 55.4502 5.6722 56.1495 8.45948C56.3731 10.2481 53.7475 12.1751 52.3036 12.7573C51.074 13.2045 50.9148 14.7922 51.1477 15.3045C55.5633 14.8015 58.3048 11.6849 59.0035 10.1245C59.9816 7.25996 54.2631 0.564479 50.3506 1.12342C47.2205 1.57057 45.5824 6.18591 46.0106 8.6261Z" fill="#DB6A48"/>
<path d="M37.2853 30.7894C35.1893 30.3004 34.1413 29.8113 33.0933 27.9947C33.0933 26.5973 41.128 25.8289 40.8485 27.9947C40.6249 29.7274 38.3799 30.5798 37.2853 30.7894Z" fill="#E0583A"/>
<path d="M46.7832 4.12947L48.7949 6.48286C49.5337 5.12475 50.3589 4.73332 51.2794 4.49828C52.2 4.26325 54.7266 4.84104 55.7157 7.06408C56.4443 8.56047 56.0193 9.69149 55.7157 10.07C55.4963 10.5474 54.4014 11.4835 53.8813 11.8919L55.4376 13.8468C58.1706 11.9679 58.4869 10.943 59.0247 10.07C59.8787 6.48286 54.4128 2.09876 52.9514 1.6622C49.5731 -0.178725 47.574 2.73135 46.7832 4.12947Z" fill="#D63944"/>
<defs>
<linearGradient id="paint0_linear" x1="33.7599" y1="4.11499" x2="33.7599" y2="81.1476" gradientUnits="userSpaceOnUse">
<stop stop-color="#FCCA67" stop-opacity="0.69"/>
<stop offset="1" stop-color="#FCCA67"/>
</linearGradient>
<linearGradient id="paint1_linear" x1="33.7599" y1="4.11499" x2="33.7599" y2="81.1476" gradientUnits="userSpaceOnUse">
<stop stop-color="#FCCA67" stop-opacity="0.69"/>
<stop offset="1" stop-color="#FCCA67"/>
</linearGradient>
<linearGradient id="paint2_linear" x1="33.7599" y1="4.11499" x2="33.7599" y2="81.1476" gradientUnits="userSpaceOnUse">
<stop stop-color="#FCCA67" stop-opacity="0.69"/>
<stop offset="1" stop-color="#FCCA67"/>
</linearGradient>
<linearGradient id="paint3_linear" x1="33.7599" y1="4.11499" x2="33.7599" y2="81.1476" gradientUnits="userSpaceOnUse">
<stop stop-color="#FCCA67" stop-opacity="0.69"/>
<stop offset="1" stop-color="#FCCA67"/>
</linearGradient>
<linearGradient id="paint4_linear" x1="33.7599" y1="4.11499" x2="33.7599" y2="81.1476" gradientUnits="userSpaceOnUse">
<stop stop-color="#FCCA67" stop-opacity="0.69"/>
<stop offset="1" stop-color="#FCCA67"/>
</linearGradient>
<linearGradient id="paint5_linear" x1="33.7599" y1="4.11499" x2="33.7599" y2="81.1476" gradientUnits="userSpaceOnUse">
<stop stop-color="#FCCA67" stop-opacity="0.69"/>
<stop offset="1" stop-color="#FCCA67"/>
</linearGradient>
<linearGradient id="paint6_linear" x1="33.7599" y1="4.11499" x2="33.7599" y2="81.1476" gradientUnits="userSpaceOnUse">
<stop stop-color="#FCCA67" stop-opacity="0.69"/>
<stop offset="1" stop-color="#FCCA67"/>
</linearGradient>
<linearGradient id="paint7_linear" x1="33.7599" y1="4.11499" x2="33.7599" y2="81.1476" gradientUnits="userSpaceOnUse">
<stop stop-color="#FCCA67" stop-opacity="0.69"/>
<stop offset="1" stop-color="#FCCA67"/>
</linearGradient>
<linearGradient id="paint8_linear" x1="33.7599" y1="4.11499" x2="33.7599" y2="81.1476" gradientUnits="userSpaceOnUse">
<stop stop-color="#FCCA67" stop-opacity="0.69"/>
<stop offset="1" stop-color="#FCCA67"/>
</linearGradient>
<linearGradient id="paint9_linear" x1="33.7599" y1="4.11499" x2="33.7599" y2="81.1476" gradientUnits="userSpaceOnUse">
<stop stop-color="#FCCA67" stop-opacity="0.69"/>
<stop offset="1" stop-color="#FCCA67"/>
</linearGradient>
<linearGradient id="paint10_linear" x1="33.7599" y1="4.11499" x2="33.7599" y2="81.1476" gradientUnits="userSpaceOnUse">
<stop stop-color="#FCCA67" stop-opacity="0.69"/>
<stop offset="1" stop-color="#FCCA67"/>
</linearGradient>
<linearGradient id="paint11_linear" x1="33.7599" y1="4.11499" x2="33.7599" y2="81.1476" gradientUnits="userSpaceOnUse">
<stop stop-color="#FCCA67" stop-opacity="0.69"/>
<stop offset="1" stop-color="#FCCA67"/>
</linearGradient>
<linearGradient id="paint12_linear" x1="33.7599" y1="4.11499" x2="33.7599" y2="81.1476" gradientUnits="userSpaceOnUse">
<stop stop-color="#FCCA67" stop-opacity="0.69"/>
<stop offset="1" stop-color="#FCCA67"/>
</linearGradient>
<linearGradient id="paint13_linear" x1="33.7599" y1="4.11499" x2="33.7599" y2="81.1476" gradientUnits="userSpaceOnUse">
<stop stop-color="#FCCA67" stop-opacity="0.69"/>
<stop offset="1" stop-color="#FCCA67"/>
</linearGradient>
</defs>
</svg>
