<svg width="321" height="375" viewBox="0 0 321 375" fill="none" xmlns="http://www.w3.org/2000/svg">
<path d="M2.00385 28.5C4.00394 25 16.004 16 18.004 16C18.6707 15 20.504 1 32.0039 1C33.5039 1 59.2791 13.0293 66.504 33.5C75.504 59 60.504 138.5 60.504 149.5C60.504 168.476 57.3377 190.167 62.8933 204C67.0039 214.235 65.5369 208.779 76.0039 210C117.504 214.843 123.004 231.5 176.504 277.5C204.004 303 237.504 297.5 299.504 281C308.504 280.5 318.004 284 320.004 289C304.004 287 297.569 285.689 289.504 291C269.004 304.5 232.004 330.5 186.004 316.5C171.004 317 169.604 312.4 168.004 314C166.004 316 165.53 317.202 168.004 320.5C171.004 324.5 169.665 323.367 171.004 325.157C173.504 328.5 180.671 338.833 180.504 342C182.671 345.167 183.004 365.8 179.004 367C171.337 367.333 156.804 367.3 156.004 366.5C155.204 365.7 162.171 355.833 162.504 355C162.913 353.978 163.76 348.366 162.504 344.5C161.302 340.801 161.044 339 158.004 335C154.837 330.833 146.504 323 146.504 317C145.337 317.333 142.204 327.3 141.004 326.5C141.671 332.5 133.993 339.657 132.393 343.657C130.793 347.657 130.727 351.324 130.893 352.657C132.227 353.824 126.004 368 123.504 373C114.004 374.5 102.904 373.8 102.504 373C102.004 372 110.004 346 113.004 347C113.218 339.734 115.151 329.253 119.004 319C121.161 313.26 122.004 309.5 116.504 306.5C113.308 304.757 78.5039 312.5 71.0039 306.5C72.5039 308.667 69.0039 326.9 69.0039 330.5C69.0039 335 72.5039 342 73.0039 347C74.0039 350.333 76.3039 366.2 73.5039 367C70.0039 368 51.0039 366.5 52.0039 365C53.8666 362.206 56.5128 355.018 55.0039 352C54.6039 351.2 50.1706 339.5 51.5039 337.5C54.5039 334.5 49.0039 315.5 51.5039 311C52.4073 309.374 49.0355 311.349 48.9614 311.097L45.5039 319L44.0039 323L42.5039 326.5C39.5039 332.5 31.8039 356.7 25.0039 361.5C20.5029 364.677 8.57858 358.5 3.00394 358.5C1.50394 356.333 10.0039 347 17.0039 340.5C17.0039 339.5 15.5039 338.5 21.0039 325.45C24.3934 314.5 30.704 301.9 29.504 281.5C22.5039 271 19.0039 252.5 26.0039 234.5L21.2111 216.013C20.3669 213.192 19.5773 210.329 19.0039 207.5C11.5039 170.5 45.504 68 42.504 42.5C34.504 39 24.2009 49.8246 15.004 48.5C6.31395 47.2484 2.58693 37.749 2.00393 36C0.837134 32.5 0.503941 34.5 2.00385 28.5Z" fill="#3EB097"/>
<path d="M19.0039 207.5C11.5039 170.5 45.504 68 42.504 42.5C34.504 39 24.2009 49.8246 15.004 48.5C6.31395 47.2484 2.58693 37.749 2.00393 36C0.837134 32.5 0.503941 34.5 2.00385 28.5C4.00394 25 16.004 16 18.004 16C18.6707 15 20.504 1 32.0039 1C33.5039 1 59.2791 13.0293 66.504 33.5C75.504 59 60.504 138.5 60.504 149.5C60.504 168.476 57.3377 190.167 62.8933 204C67.0039 214.235 65.5369 208.779 76.0039 210C117.504 214.843 123.004 231.5 176.504 277.5C204.004 303 237.504 297.5 299.504 281C308.504 280.5 318.004 284 320.004 289C304.004 287 297.569 285.689 289.504 291C269.004 304.5 232.004 330.5 186.004 316.5C171.004 317 169.604 312.4 168.004 314C166.004 316 165.53 317.202 168.004 320.5C171.004 324.5 169.665 323.367 171.004 325.157C173.504 328.5 180.671 338.833 180.504 342C182.671 345.167 183.004 365.8 179.004 367C171.337 367.333 156.804 367.3 156.004 366.5C155.204 365.7 162.171 355.833 162.504 355C162.913 353.978 163.76 348.366 162.504 344.5C161.302 340.801 161.044 339 158.004 335C154.837 330.833 146.504 323 146.504 317C145.337 317.333 142.204 327.3 141.004 326.5C141.671 332.5 133.993 339.657 132.393 343.657C130.793 347.657 130.727 351.324 130.893 352.657C132.227 353.824 126.004 368 123.504 373C114.004 374.5 102.904 373.8 102.504 373C102.004 372 110.004 346 113.004 347C113.218 339.734 115.151 329.253 119.004 319C121.161 313.26 122.004 309.5 116.504 306.5C113.308 304.757 78.5039 312.5 71.0039 306.5C72.5039 308.667 69.0039 326.9 69.0039 330.5C69.0039 335 72.5039 342 73.0039 347C74.0039 350.333 76.3039 366.2 73.5039 367C70.0039 368 51.0039 366.5 52.0039 365C53.8666 362.206 56.5128 355.018 55.0039 352C54.6039 351.2 50.1706 339.5 51.5039 337.5C54.5039 334.5 49.0039 315.5 51.5039 311C52.4752 309.252 48.5039 311.667 49.0039 311L45.5039 319L44.0039 323L42.5039 326.5C39.5039 332.5 31.8039 356.7 25.0039 361.5C20.5029 364.677 8.57858 358.5 3.00394 358.5C1.50394 356.333 10.0039 347 17.0039 340.5C17.0039 339.5 15.5039 338.5 21.0039 325.45C24.3934 314.5 30.704 301.9 29.504 281.5C22.5039 271 19.0039 252.5 26.0039 234.5M19.0039 207.5C20.9511 217.106 25.3905 227.113 26.0039 234.5M19.0039 207.5L26.0039 234.5" stroke="#03604E" stroke-width="0.5"/>
<path d="M108.588 233.413C107.388 233.013 107.422 230.246 107.588 228.913C108.388 227.713 113.255 229.413 115.588 230.413C115.922 231.413 116.388 233.613 115.588 234.413C114.588 235.413 110.088 233.913 108.588 233.413L108.588 233.413Z" fill="#239983"/>
<path d="M164.004 315C161.129 315 152.838 314.333 146.504 313.5C145.504 319.5 156.504 333.623 162.004 342.5C163.351 344.673 162.436 346.291 163.004 347C164.504 353.5 162.004 356 157.504 363C157.112 363.798 155.981 365.229 156.504 366C156.504 366.518 157.703 366.869 159.489 366.93C170.684 366.93 176.352 367.322 178.814 366.93C179.643 366.596 180.134 365.837 180.504 365.5C181.004 363.359 182.655 355.823 181.504 354.5C182.309 348.547 179.21 348.683 180.504 342.5C181.609 341.639 178.278 339.917 176.897 336.218C175.847 333.403 163.541 315.731 164.004 315Z" fill="#259483"/>
<path d="M20.5039 327C23.5039 319 26.5039 307.5 28.5039 301C30.4446 302.642 36.5039 303 42.5039 306.5C43.1942 307.206 47.739 308.858 48.5039 311C49.4473 311.816 40.8136 330 38.5039 336C37.0039 340.5 35.2788 345.405 34.0039 349C33.7489 350.683 29.5039 356 29.5039 356C28.5039 358.5 24.5039 361.5 23.0039 362.5L3.00391 358C5.00391 352.5 14.5039 343 14.5039 343C15.0039 342.5 16.254 341.425 17.0039 340.5C17.0039 333.5 19.5039 331 20.5039 327Z" fill="#259483"/>
<path d="M158.381 296.5C158.847 298.551 158.055 302.654 154.888 305.731C150.929 309.577 148.6 308.808 146.504 316.5" stroke="#177B68" stroke-linecap="round"/>
<path d="M132.893 286.157C132.393 284.157 131.893 285.657 130.893 280.157C131.393 279.824 132.493 279.157 132.893 279.157C133.393 279.157 135.893 281.657 134.893 284.657C133.893 287.657 133.393 288.157 132.893 286.157Z" fill="#1F7D6C"/>
<path d="M116.893 275.157C116.093 274.757 116.893 272.991 117.393 272.157H120.893C120.893 273.157 120.793 275.257 120.393 275.657C119.893 276.157 117.893 275.657 116.893 275.157Z" fill="#169079"/>
<path d="M120.893 271.657C120.093 271.257 120.56 268.824 120.893 267.657C122.06 267.491 124.493 267.157 124.893 267.157C125.393 267.157 125.393 271.657 124.393 272.157C123.393 272.657 121.893 272.157 120.893 271.657Z" fill="#128C75"/>
<path d="M53.3932 298.157C52.3932 298.657 49.8932 298.157 48.8932 295.157C48.5379 294.305 52.3932 293.657 53.3932 294.157C54.3932 294.657 54.3932 297.657 53.3932 298.157Z" fill="#178C76"/>
<path d="M42.3929 297.157C41.5929 296.757 42.0596 293.991 42.3929 292.657C43.3929 292.157 45.3929 296.657 45.3929 297.157C45.3929 297.657 43.3929 297.657 42.3929 297.157Z" fill="#118F77"/>
<path d="M41.3931 299.657C41.3931 298.457 39.7264 299.157 38.8931 299.657L40.0181 302.657C40.4764 302.157 41.3931 300.857 41.3931 299.657Z" fill="#1E8B77"/>
<path d="M45.3929 289.657L43.8929 286.657C43.1429 285.157 47.3929 286.657 48.3929 287.157C49.1929 287.557 46.7262 288.991 45.3929 289.657Z" fill="#299C86"/>
<path d="M37.3932 296.157C36.1932 296.157 37.8932 289.824 38.8932 286.657C39.3932 286.157 40.5932 285.157 41.3932 285.157C42.3932 285.157 41.3932 290.657 41.3932 291.657C41.3932 292.657 38.8932 296.157 37.3932 296.157Z" fill="#118F77"/>
<path d="M121.779 243.122C120.979 242.722 122.112 239.955 122.779 238.622C124.779 237.622 131.279 243.122 130.779 243.122C130.279 243.122 122.779 243.622 121.779 243.122Z" fill="#239A84"/>
<path d="M126.005 254.444C124.805 254.444 124.505 252.111 124.505 250.944C124.444 249.944 129.005 250.944 130.005 250.944C131.005 250.944 133.505 253.444 133.005 254.444C132.505 255.444 127.505 254.444 126.005 254.444Z" fill="#2F9B86"/>
<path d="M112.004 252.291C110.504 252.791 109.004 252.791 106.504 249.791C108.504 246.191 112.337 247.624 114.004 248.791C113.837 249.791 113.204 251.891 112.004 252.291Z" fill="#0F8D77"/>
<path d="M94.0039 256.836C95.5039 257.336 93.0039 260.336 92.5039 260.836C92.0039 261.336 88.0039 260.336 86.5039 259.336C87.3372 258.503 89.1039 256.636 89.5039 255.836C90.0039 254.836 92.5039 256.336 94.0039 256.836Z" fill="#18947C"/>
<path d="M92.8931 224.994C94.3931 224.657 91.8931 228.494 91.3931 228.994C90.8931 229.494 87.8931 229.657 85.8931 228.157C86.7264 227.324 87.9931 224.794 88.3931 223.994C88.8931 222.994 91.3502 225.34 92.8931 224.994Z" fill="#79D1C0"/>
<path d="M103.504 248.035C102.274 248.957 101.504 250.285 101.004 250.785C100.504 251.285 98.5039 252.698 96.5039 251.198C97.3372 250.365 98.6039 249.085 99.0039 248.285C99.5039 247.285 104.504 247.285 103.504 248.035Z" fill="#79D1C0"/>
<path d="M111.3 238.024C111.3 239.094 109.898 239.569 109.548 239.913C109.197 240.256 108.295 241.687 106.893 240.657C106.393 239.657 107.865 238.745 108.146 238.196C108.496 237.509 111.3 237.157 111.3 238.024Z" fill="#79D1C0"/>
<path d="M99.3931 243.657C98.5931 244.057 95.7264 242.491 94.3931 241.657C94.0597 241.491 93.3931 241.057 93.3931 240.657C93.3931 240.157 94.8931 240.157 96.3931 239.157C97.5571 238.381 100.829 239.713 101.769 240.115C101.809 240.122 101.851 240.136 101.893 240.157C102.117 240.269 102.04 240.231 101.769 240.115C100.85 239.948 100.351 243.179 99.3931 243.657Z" fill="#1D9780"/>
<path d="M103.393 233.657C101.393 233.657 101.226 231.657 101.393 230.657C101.393 230.324 101.593 229.657 102.393 229.657C103.393 229.657 106.893 230.657 106.893 232.157C106.893 233.657 105.893 233.657 103.393 233.657Z" fill="#169079"/>
<path d="M116.159 236.775C115.359 235.975 108.159 237.108 104.659 237.775C102.659 240.775 103.659 241.275 104.659 242.275C105.659 243.275 116.159 241.775 116.159 241.275C116.159 240.775 117.159 237.775 116.159 236.775Z" fill="#17917A"/>
<path d="M141.262 290.657C131.383 292.741 118.527 297.22 121.775 330.657" stroke="#78CFC9" stroke-linecap="round"/>
<path d="M44.393 272.657C34.893 277.657 20.593 294.257 39.393 320.657" stroke="#78D3CC" stroke-linecap="round" stroke-linejoin="round"/>
<path d="M67.8931 244.157C65.3931 244.324 59.9931 244.157 58.3931 242.157C58.3931 240.157 61.8931 238.657 63.8931 238.157C65.8931 237.657 65.8931 238.657 67.8931 240.157C69.4931 241.357 68.5597 243.324 67.8931 244.157Z" fill="#048068"/>
<path d="M80.8931 236.657C78.3931 236.157 80.3931 237.157 77.8931 234.657C78.0597 234.491 78.4931 233.957 78.8931 233.157C79.3931 232.157 84.8931 232.157 85.8931 231.657C86.6931 231.257 86.2264 233.491 85.8931 234.657C85.0597 235.491 82.8931 237.057 80.8931 236.657Z" fill="#169079"/>
<path d="M99.3929 224.157C98.5929 223.357 96.0596 223.824 94.8929 224.157C94.5596 225.491 93.9929 228.257 94.3929 228.657C94.8929 229.157 98.8929 228.657 99.3929 228.157C99.8929 227.657 100.393 225.157 99.3929 224.157Z" fill="#18947C"/>
<path d="M70.893 300.157C67.5597 304.991 61.293 315.457 62.893 318.657" stroke="#117965" stroke-linecap="round"/>
<path d="M1.50391 31.5V31.0001C1.50391 30.8334 2.10391 29.4 2.50391 29C2.90391 28.6 2.67057 29.8334 3.00391 30L2.50391 31L1.50391 31.5Z" fill="#2F261D"/>
<path d="M6.12272 29.6778C5.72272 30.0778 5.28931 32.1778 5.62265 32.6778C6.28928 33.6777 7.12256 32.6778 7.62256 32.6778C8.02256 32.6778 8.28923 30.5111 8.12256 29.6778C7.45589 29.6778 6.52272 29.2778 6.12272 29.6778Z" fill="#2F261D"/>
<path d="M6.50391 43.5C11.0039 43.5 10.5445 42.1757 15.0039 39.5C17.5039 38 21.0039 36 23.0039 34.5" stroke="#103F37" stroke-linecap="round" stroke-linejoin="round"/>
<path d="M32.4567 20.0472C30.1926 23.8208 25.2241 21.6196 23.0228 20.0472C21.8274 18.2541 23.2829 15.7035 25.4699 13.8351C26.7346 12.7547 27.2579 12.5 28.6832 12.5C31.5133 12.5 32.7712 16.9026 32.4567 20.0472Z" fill="#16564C"/>
<path d="M30.57 21.9339C32.8342 18.9151 28.3688 15.0157 25.8531 13.4434L24.9097 14.3868C27.9285 15.1415 29.9411 19.7327 30.57 21.9339Z" fill="#D0FF58"/>
<path d="M23.0231 20.0471C21.5136 19.2924 23.652 15.9591 24.9098 14.3868C28.6834 15.8962 30.2557 20.0471 30.5702 21.9339C27.74 22.8773 24.9098 20.9905 23.0231 20.0471Z" fill="#2F261D"/>
</svg>
