<svg width="319" height="372" viewBox="0 0 319 372" fill="none" xmlns="http://www.w3.org/2000/svg">
<path d="M47.7871 21.4103C46.2871 32.9103 26.7871 32.4103 26.2871 31.9103C26.1021 31.7253 24.4126 32.2462 22.2871 33.008L21.7871 33.4103C21.6204 33.7437 21.1871 34.4103 20.7871 34.4103C20.4255 34.4103 20.0639 34.1488 19.8914 34.0134C19.8375 34.4759 18.4577 35.8473 17.7871 36.4103C17.1166 36.9733 17.3669 35.6998 17.0237 35.1455C16.8054 35.2333 15.4898 35.6243 15.2871 35.7066L15.1236 35.7731L15.2871 37.4103L14.1291 37.5975L13.7871 36.5205C13.5348 36.6606 13.2824 36.7905 13.0304 36.9103L13.2871 38.0396L12.2871 38.9103L11.2538 37.5975L10.2871 38.0396C10.1204 38.3298 9.68711 38.9103 9.28711 38.9103C8.88711 38.9103 8.8372 38.3298 8.86225 38.0396C8.32186 38.077 7.7952 38.0702 7.28711 38.0228V38.9103C7.12044 39.077 6.68711 39.4103 6.28711 39.4103C5.78711 39.4103 5.28711 37.9103 5.28711 37.5975C-0.218658 35.6992 -1.89045 28.3459 9.28704 21.9103C9.57978 21.8518 9.9164 21.7562 10.2871 21.619C13.0822 20.5841 17.815 17.1799 20.2871 9.41034C23.0871 0.610344 30.4538 0.410344 33.7871 1.41034C38.9538 4.24368 48.9871 12.2103 47.7871 21.4103Z" fill="#F0EBA9"/>
<path d="M11.7871 41.9103L12.2871 43.4103L13.2871 42.4103V41.9103H11.7871Z" fill="#F0EBA9"/>
<path d="M13.7871 41.9103V39.9103L15.7871 40.4103L16.7871 38.4103L18.129 38.0396L15.7871 40.4103L13.7871 41.9103Z" fill="#F0EBA9"/>
<path d="M20.2871 21.4103C20.6204 23.9103 22.6871 28.6103 28.2871 27.4103M10.2871 21.619C13.0822 20.5841 17.815 17.1799 20.2871 9.41034C23.0871 0.610344 30.4538 0.410344 33.7871 1.41034C38.9538 4.24368 48.9871 12.2103 47.7871 21.4103C46.2871 32.9103 26.7871 32.4103 26.2871 31.9103C26.1021 31.7253 24.4126 32.2462 22.2871 33.008M10.2871 21.619C9.9164 21.7562 9.57978 21.8518 9.28704 21.9103C-1.89045 28.3459 -0.218658 35.6992 5.28711 37.5975M10.2871 21.619C9.28711 25.4136 8.88711 33.5436 15.2871 35.7066M15.2871 35.7066C15.2319 35.729 15.1774 35.7511 15.1236 35.7731M15.2871 35.7066C15.4898 35.6243 16.8054 35.2333 17.0237 35.1455M5.28711 37.5975C5.28711 37.9103 5.78711 39.4103 6.28711 39.4103C6.68711 39.4103 7.12044 39.077 7.28711 38.9103V38.0228M5.28711 37.5975C5.90917 37.8119 6.58017 37.9568 7.28711 38.0228M7.28711 38.0228C7.7952 38.0702 8.32186 38.077 8.86225 38.0396M8.86225 38.0396C8.8372 38.3298 8.88711 38.9103 9.28711 38.9103C9.68711 38.9103 10.1204 38.3298 10.2871 38.0396L11.2538 37.5975M8.86225 38.0396C9.636 37.986 10.4379 37.842 11.2538 37.5975M11.2538 37.5975L12.2871 38.9103L13.2871 38.0396L13.0304 36.9103M11.2538 37.5975C11.8405 37.4216 12.4345 37.1938 13.0304 36.9103M13.0304 36.9103C13.2824 36.7905 13.5348 36.6606 13.7871 36.5205M13.7871 36.5205C14.1208 36.3353 14.4544 36.1321 14.787 35.9103C14.896 35.8658 15.0083 35.82 15.1236 35.7731M13.7871 36.5205L14.1291 37.5975L15.2871 37.4103L15.1236 35.7731M17.0237 35.1455C17.3669 35.6998 17.1166 36.9733 17.7871 36.4103C18.4577 35.8473 19.8375 34.4759 19.8914 34.0134M17.0237 35.1455C17.8962 34.7945 18.8825 34.4039 19.8914 34.0134M19.8914 34.0134C20.2234 33.8849 19.4535 34.0621 19.7871 33.935M15.7871 40.4103L13.7871 39.9103C13.7871 40.4103 13.7871 41.5103 13.7871 41.9103L15.7871 40.4103ZM15.7871 40.4103L16.7871 38.4103L18.129 38.0396L15.7871 40.4103ZM19.7871 33.935C19.7871 33.9103 20.2871 34.4103 20.7871 34.4103C21.1871 34.4103 21.6204 33.7437 21.7871 33.4103L22.2871 33.008M19.7871 33.935C20.6441 33.6086 21.4958 33.2916 22.2871 33.008M27.2871 9.41034C26.4538 12.4103 27.0871 18.0103 36.2871 16.4103C36.6204 18.577 34.8871 22.9103 25.2871 22.9103C24.1204 22.577 21.8871 21.1103 22.2871 17.9103C22.7871 13.9103 25.7871 9.41034 27.2871 9.41034ZM40.2871 16.4103C39.7871 17.7437 39.0871 20.4103 40.2871 20.4103C41.7871 20.4103 43.7871 16.4103 42.7871 16.4103C41.9871 16.4103 40.7871 16.4103 40.2871 16.4103ZM31.7871 24.9103C32.2871 24.9103 35.9492 23.4103 37.7871 21.4103C38.2871 22.7437 38.9871 25.5103 37.7871 25.9103C36.2871 26.4103 32.7871 26.9103 31.7871 24.9103ZM5.28711 30.9103C5.62047 29.9103 6.58717 28.0103 7.78711 28.4103C8.98705 28.8103 8.28709 31.9103 7.78711 33.4103C6.78711 33.7437 4.88711 33.7103 5.28711 30.9103ZM12.2871 43.4103L11.7871 41.9103H13.2871V42.4103L12.2871 43.4103Z" stroke="black" stroke-width="0.5"/>
<path d="M11.7868 44.4103C11.3868 43.2103 20.9534 35.9103 25.7868 32.4103C42.7867 31.4103 43.7868 27.4103 44.2868 27.4103C46.3764 27.1205 47.5402 24.0243 47.6695 22.5486C52.6695 23.2153 61.5868 26.8103 56.7868 36.4103C57.2868 36.7271 64.7868 48.9103 64.7868 49.9103C64.7868 50.9103 61.2868 57.4103 60.7868 56.9103C61.9535 60.077 64.4868 66.5103 65.2868 66.9103C66.2868 67.4103 65.7868 71.9103 65.2868 72.4103C64.8868 72.8103 62.7868 79.577 61.7868 82.9103C62.6201 89.9378 64.1868 104.135 63.7868 104.702C63.3868 105.269 58.2868 109.41 55.7868 111.41C55.0148 112.03 58.2868 123.91 58.2868 124.41C58.2868 124.81 58.6201 128.244 58.7868 129.91C57.6201 130.91 54.9868 133.21 53.7868 134.41C53.0368 135.16 52.5368 135.16 52.1618 134.91C51.6618 134.802 52.3701 139.199 52.7868 141.41C52.3868 141.81 55.2868 147.244 56.7868 149.91C56.9535 150.744 57.1868 152.81 56.7868 154.41C56.3868 156.01 51.9535 159.077 49.7868 160.41C49.1201 164.577 48.8868 174.81 53.2868 182.41C52.2868 184.244 49.8868 188.01 48.2868 188.41C50.2868 192.077 54.3868 200.11 54.7868 202.91C55.1868 205.71 52.2868 208.744 50.7868 209.91C52.7868 213.91 62.7868 216.41 63.7868 218.91C64.1813 219.897 63.7003 221.41 62.9315 222.91C63.7166 223.91 65.7868 225.61 67.7868 224.41C70.2868 222.91 75.7868 215.41 79.2868 216.91C79.9535 217.41 80.6868 219.51 78.2868 223.91C81.4542 224.589 85.804 226.788 85.6456 231.007C87.4789 229.007 91.3869 224.91 91.7869 224.91C92.2869 224.91 94.7869 224.41 94.7869 226.91C94.7869 229.41 90.7869 233.91 90.7869 234.41C90.7869 234.687 92.0601 235.616 93.2869 236.438C93.8355 236.806 94.3748 237.153 94.7869 237.41C96.4535 234.744 100.387 229.41 102.787 229.41C105.187 229.41 104.454 231.744 103.787 232.91L100.287 239.41C100.85 240.068 101.827 241.064 102.787 241.737C103.53 242.258 104.263 242.585 104.787 242.41C106.287 241.91 110.287 234.91 111.787 235.41C113.287 235.91 114.287 236.91 114.287 237.41C114.287 237.91 110.787 244.91 110.287 244.91C110.581 245.352 111.084 245.95 111.691 246.41C112.458 246.993 113.393 247.357 114.287 246.91C115.954 244.244 119.687 239.21 121.287 240.41C123.287 241.91 121.787 244.91 119.287 248.91C119.647 249.87 120.473 251.417 121.505 251.91C121.906 252.102 122.339 252.134 122.787 251.91C123.787 249.91 126.187 246.01 127.787 246.41C128.954 246.577 130.987 247.31 129.787 248.91C128.287 250.91 126.787 254.91 127.287 254.91C127.476 255.383 127.901 256.059 128.525 256.41C129.002 256.678 129.594 256.757 130.287 256.41C131.454 254.244 134.087 250.01 135.287 250.41C136.787 250.91 137.787 251.41 137.787 252.41C137.787 253.21 135.454 257.077 134.287 258.91C134.416 259.555 134.823 260.637 135.556 260.91C135.771 260.991 136.015 261.001 136.287 260.91C137.787 260.41 141.287 255.41 142.287 255.91C143.287 256.41 144.787 257.41 143.787 258.91C142.787 260.41 139.787 263.41 140.287 263.91C140.787 264.41 141.287 266.41 142.787 265.91C144.287 265.41 147.287 260.91 148.287 261.41C149.287 261.91 150.287 262.41 149.787 263.91C149.387 265.11 146.954 267.744 145.787 268.91L150.287 270.91C151.454 269.744 153.987 267.51 154.787 267.91C155.787 268.41 157.787 269.41 154.787 272.91C156.12 274.077 158.787 276.51 158.787 276.91C159.787 276.577 161.887 276.01 162.287 276.41C162.687 276.81 162.12 278.91 161.787 279.91C162.527 280.968 163.398 282.294 164.287 283.766C165.787 282.981 168.887 282.01 169.287 284.41C168.761 285.597 167.567 288.115 166.998 288.691C167.363 289.431 167.708 290.174 168.024 290.91C168.778 290.744 170.487 290.41 171.287 290.41C172.287 290.41 174.787 286.41 175.787 286.91C176.787 287.41 178.287 287.91 176.287 290.91C176.287 291.244 176.387 291.91 176.787 291.91C177.184 291.91 178.525 293.17 178.562 294.189C179.304 294.116 180.887 294.013 181.287 294.189C181.954 292.93 183.587 290.51 184.787 290.91C185.987 291.31 186.62 291.744 186.787 291.91C186.62 292.577 186.087 294.01 185.287 294.41C184.487 294.81 185.954 295.91 186.787 296.41C187.008 296.631 187.331 297.042 187.408 297.41C188.034 297.244 189.387 296.91 189.787 296.91C190.287 296.91 191.787 293.41 192.787 293.41C193.787 293.41 193.787 296.41 193.287 297.91C193.921 298.182 194.781 298.719 195.178 299.41C195.714 299.244 196.987 299.01 197.787 299.41C198.12 297.577 199.087 294.01 200.287 294.41C201.787 294.91 201.787 296.41 201.787 296.91V298.91C202.378 298.91 203.571 299.225 204.113 300.41C204.671 300.077 205.987 299.41 206.787 299.41C207.787 299.41 208.787 295.41 209.787 295.41C210.787 295.41 211.287 297.91 211.287 299.41C211.716 299.625 212.42 300.142 212.868 300.91H215.287C215.787 300.91 216.787 295.41 217.787 296.41C218.787 297.41 219.287 299.41 218.787 299.91C219.787 300.244 221.687 301.11 221.287 301.91C222.62 301.744 225.387 301.31 225.787 300.91C226.287 300.41 225.787 293.91 229.787 300.41C230.287 300.577 231.487 300.91 232.287 300.91C232.636 300.91 232.984 301.32 233.248 301.91C233.928 301.244 235.487 300.01 236.287 300.41C237.287 300.91 235.787 296.91 236.787 296.91C237.787 296.91 239.287 296.41 240.287 299.91C241.287 299.577 243.387 299.11 243.787 299.91C244.454 299.91 245.787 299.71 245.787 298.91C245.787 297.91 245.287 294.41 248.287 296.41C248.454 297.244 248.987 298.81 249.787 298.41C250.787 297.91 251.787 296.41 252.287 297.41C252.954 297.077 254.287 296.31 254.287 295.91C254.287 295.41 254.287 291.91 256.287 293.41C256.62 294.077 257.387 295.41 257.787 295.41C258.276 295.41 258.765 294.454 259.722 294.879C259.779 294.711 261.734 293.91 261.287 293.91C260.787 293.91 261.287 290.91 262.287 290.41C263.087 290.01 264.287 291.91 264.787 292.91C265.596 292.775 267.059 292.597 267.589 292.746C267.988 292.467 268.887 291.91 269.287 291.91C269.687 291.91 269.454 289.91 269.287 288.91C270.12 289.244 271.787 290.01 271.787 290.41C271.787 290.81 273.454 290.91 274.287 290.91C274.787 290.244 275.987 289.01 276.787 289.41L276.956 289.495L278.787 289.41C278.787 287.81 281.12 287.41 282.287 287.41C282.32 287.51 282.36 287.633 282.402 287.77C283.03 286.65 284.687 284.51 286.287 284.91C286.699 285.013 287.009 285.185 287.24 285.394C288.121 284.222 290.108 282.459 291.657 284.008C291.755 284.106 291.973 284.105 292.05 284.199C293.129 283.27 295.487 281.61 296.287 282.41C296.435 282.558 296.561 282.728 296.664 282.91C297.871 282.077 300.487 280.71 301.287 281.91C301.395 282.072 301.474 282.24 301.527 282.41C302.947 282.077 305.887 281.61 306.287 282.41C306.399 282.635 306.436 282.876 306.419 283.109C307.33 282.676 309.315 282.069 309.969 283.109C310.061 283.255 310.134 283.394 310.192 283.525C316.117 284.417 318.057 286.487 318.287 287.41C315.887 288.21 312.004 285.542 310.363 284.108C310.452 284.783 310.098 285.169 309.969 285.269C309.787 285.41 306.673 285.142 306.23 283.776C305.985 284.26 305.561 284.576 305.287 284.41C304.887 284.169 302.54 283.976 301.417 283.91C301.073 284.68 300.35 285.192 299.787 284.91C298.987 284.51 297.585 284.209 296.984 284.108C296.978 284.813 296.606 285.41 295.787 285.41H292.555C292.538 286.178 291.823 286.696 291.287 286.91H287.849C287.846 287.099 287.822 287.271 287.787 287.41C287.62 288.077 286.587 289.31 283.787 288.91L282.787 289.41C282.787 289.81 281.12 290.577 280.287 290.91H278.787C278.787 291.4 276.388 294.288 275.35 293.467C275.313 293.727 274.018 294.825 273.287 295.41L274.787 298.41C274.454 298.91 273.487 299.61 272.287 298.41C270.787 296.91 271.113 295.526 269.2 296.235C269.23 296.297 269.259 296.355 269.287 296.41C268.287 296.41 265.787 297.41 266.287 297.91C266.687 298.31 267.454 299.744 267.787 300.41C267.787 301.91 267.587 304.41 266.787 302.41C265.987 300.41 263.12 299.41 261.787 298.91C260.954 299.41 259.187 300.41 258.787 300.41C258.287 300.41 261.787 303.583 260.787 304.41C259.787 305.238 256.287 301.91 256.287 301.41C256.287 301.01 254.378 300.91 253.423 300.91C253.425 301.137 253.385 301.312 253.287 301.41C252.787 301.91 251.287 302.91 250.787 302.91C251.787 304.077 253.587 306.51 252.787 306.91C251.787 307.41 247.287 304.91 247.287 303.91C247.036 303.577 246.11 303.11 244.411 303.91C244.287 304.27 244.087 304.61 243.787 304.91H240.787L243.287 309.41C243.287 310.077 242.887 311.11 241.287 309.91C239.687 308.71 237.954 306.535 237.287 305.597L233.408 305.41C233.372 305.476 233.331 305.539 233.287 305.597C232.287 305.535 230.287 305.51 230.287 305.91C230.287 306.41 231.787 309.91 232.287 309.91C232.787 309.91 233.287 312.41 232.287 312.41C231.287 312.41 225.787 306.224 226.287 305.91C226.787 305.597 223.035 307.066 221.661 305.238C221.705 305.37 221.748 305.491 221.787 305.597C221.787 306.701 221.387 309.01 219.787 309.41C219.139 309.713 222.287 314.91 222.787 316.41C223.187 317.61 221.287 316.91 220.287 316.41C219.487 316.41 216.832 311.174 215.605 308.555C215.317 308.877 213.008 306.698 212.869 306.056C212.839 306.194 212.811 306.313 212.787 306.41C212.481 307.021 211.691 307.968 210.392 308.521C210.928 309.109 211.913 310.541 212.287 312.41C212.687 314.41 212.454 315.244 212.287 315.41C210.687 316.21 207.954 311.174 206.787 308.555C205.694 307.745 204.185 306.411 204.287 305.597C204.153 306.374 203.97 306.91 203.787 306.91C203.454 307.244 202.687 307.91 202.287 307.91C202.2 307.91 202.023 307.91 201.787 307.908C200.787 309.405 204.287 313.91 204.287 314.41C204.287 314.81 203.62 314.91 203.287 314.91C200.087 314.51 198.62 309.889 198.287 307.628C198.051 307.569 197.874 307.497 197.787 307.41C197.287 306.91 195.639 304.91 195.787 304.41C195.187 304.577 194.003 304.81 194.071 304.41C193.899 305.131 193.539 305.765 193.287 305.91C193.277 305.921 193.266 305.931 193.256 305.941C192.879 306.508 194.787 312.934 194.787 313.91C194.787 314.71 194.454 315.244 194.287 315.41C191.593 313.486 190.226 308.453 189.829 305.91C189.814 305.81 189.799 305.714 189.787 305.622C189.289 305.921 188.924 306.048 188.787 305.91C188.287 305.41 185.099 303.41 185.787 302.41C185.387 302.41 183.62 303.41 182.787 303.91C182.387 305.51 183.287 310.577 183.787 312.91C181.787 312.91 179.805 306.476 179.064 303.259C177.493 302.682 176.09 301.651 175.847 299.91C175.545 300.221 175.198 300.41 174.787 300.41C174.343 300.41 173.824 300.46 173.287 300.52C173.687 301.008 173.787 309.65 173.787 313.91C171.787 313.51 169.111 304.515 168.024 300.068C166.216 300.155 163.476 299.787 161.287 297.91C160.954 297.41 159.987 296.51 158.787 296.91C158.488 301.067 155.842 302.156 153.787 302.533C153.336 302.63 157.266 308.825 159.287 311.91C160.287 310.91 163.787 313.91 164.287 315.91C164.687 317.51 162.787 319.91 161.787 320.91H157.787C157.787 321.197 157.725 321.463 157.617 321.709C158.84 321.809 161.487 321.948 162.287 321.709C163.287 321.41 166.287 320.41 166.787 322.41C167.287 324.41 167.287 325.41 166.287 327.41C165.287 329.41 172.287 338.41 173.287 338.41C174.287 338.41 177.287 340.41 175.787 343.41C175.574 343.836 175.361 344.164 175.152 344.41C176.363 344.244 178.687 344.71 178.287 347.91C178.175 347.91 178.001 347.935 177.787 347.968C177.042 348.084 175.824 348.299 175.152 347.91C174.984 347.813 174.857 347.636 174.764 347.41C174.77 348.259 174.775 349.299 174.777 350.41C174.782 354.32 174.744 359.099 174.569 359.41C174.287 359.91 173.58 363.25 172.934 362.91C172.58 363.41 171.287 364.91 170.787 364.91C170.758 364.91 170.724 364.903 170.685 364.89C171.083 365.87 166.287 366.91 165.787 366.91C165.575 366.91 165.634 366.536 165.787 366.084C165.287 365.91 159.787 366.736 159.287 366.41C159.188 366.346 159.245 366.171 159.416 365.931C158.873 365.982 157.487 365.95 156.287 365.41C154.787 364.736 160.287 362.41 161.425 362.41C161.664 361.445 162.494 360.445 163.066 359.91C163.071 359.693 163.19 359.507 163.287 359.41C165.287 359.41 166.12 353.874 166.287 351.106C165.283 350.225 165.631 348.345 165.98 347.41C165.592 347.28 165.194 347.114 164.787 346.91C164.787 346.41 163.787 345.41 164.787 342.91C163.12 338.91 158.787 330.61 154.787 329.41C153.915 328.289 152.95 326.219 154.188 324.91C154.057 324.592 153.874 323.938 154.188 323.873C154.034 323.898 153.898 323.91 153.787 323.91C152.787 323.91 147.287 320.91 149.787 317.91C152.287 314.91 147.287 307.41 146.787 307.287C144.094 310.869 140.776 315.827 138.787 318.91C140.287 323.91 137.287 325.41 136.287 325.91C135.287 326.41 132.787 326.41 132.287 324.41C131.887 322.81 128.787 321.744 127.287 321.41C122.287 315.91 129.287 311.91 132.287 313.41C135.12 309.744 140.987 302.01 141.787 300.41C142.587 298.81 141.139 297.357 140.139 297.191C133.396 294.493 135.909 290.108 136.521 288.951C136.559 288.861 136.599 288.773 136.639 288.691C136.688 288.591 136.738 288.497 136.787 288.41C137.12 287.577 137.687 285.81 137.287 285.41C137.059 285.183 135.172 284.851 133.467 283.565C132.684 285.847 131.052 290.91 130.787 292.91C130.522 294.91 129.343 295.077 128.787 294.91C126.922 294.382 129.564 285.024 131.118 280.41C130.516 278.739 130.409 276.481 131.287 273.41C131.704 271.95 132.298 270.802 133.016 269.91L132.402 269.467C131.508 271.02 130.485 272.747 129.787 273.91C126.787 281.244 120.987 296.11 121.787 296.91C121.287 297.91 120.087 299.21 119.287 296.41C118.45 293.482 123.563 278.305 127.306 269.91L124.287 269.258C119.727 277.1 113.751 289.449 112.787 299.41C112.12 300.077 110.787 300.71 110.787 297.91C110.787 294.41 113.287 279.41 119.787 266.91L116.474 265.173C112.343 272.18 100.395 298.663 101.787 301.91C101.287 302.91 100.087 304.11 99.2869 300.91C98.4235 297.457 106.504 272.017 110.981 262.231C110.416 261.958 109.187 261.342 108.787 261.071C102.545 273.044 93.7379 292.369 94.7869 300.41C94.7869 301.744 94.2869 303.71 92.2869 300.91C92.6202 291.244 95.0869 269.21 102.287 258.41L99.2869 256.717C84.4814 286.375 85.7529 296.08 85.2869 298.41C84.8869 300.41 84.1202 299.91 83.7869 299.41C80.1902 281.028 88.4115 261.861 92.8783 253.307L89.6159 251.49C84.4881 259.73 73.8753 278.531 71.7869 293.91C71.6202 294.244 71.1868 294.91 70.7868 294.91C71.2868 295.41 70.2868 301.41 70.2868 303.91C70.2868 306.41 68.7868 307.91 67.7868 307.91C66.7868 307.91 66.7868 308.41 65.2868 306.91C63.7868 305.41 59.7868 305.91 59.2868 306.91C58.8868 307.71 57.7868 307.577 57.2868 307.41C51.6868 303.01 53.6201 293.577 55.2868 289.41C55.2868 288.885 49.8287 283.879 44.2868 278.945C43.2868 279.979 44.7868 289.41 45.7868 290.91C46.7868 292.41 50.7868 305.41 48.2868 308.91C46.2868 311.71 43.7868 310.077 42.7868 308.91C41.6201 307.91 38.9868 306.41 37.7868 308.41C36.5868 310.41 34.9017 309.244 34.2092 308.41C28.6315 299.91 34.2092 288.41 34.7868 287.91C35.2489 287.51 34.5943 276.41 34.2092 270.91C28.234 267.129 28.0326 257.935 28.7868 253.41C29.1868 245.81 32.9499 244.577 34.7814 244.91C35.3978 243.947 36.1008 243.096 36.7868 242.41C33.5868 240.01 28.1201 223.41 25.7868 215.41C22.1868 211.81 21.9535 194.577 22.2868 186.41C20.2868 167.21 23.1201 160.744 24.7868 159.91C24.7868 146.31 29.7868 135.244 32.2868 131.41C31.8868 123.81 35.4535 114.577 37.2868 110.91C39.6806 91.7601 42.6049 88.5933 43.7777 89.4039C42.5971 88.5313 44.6231 73.0575 45.7868 65.4103C45.3868 65.0103 45.2868 49.9103 45.2868 42.4103L42.7868 38.4103C42.3868 38.8103 35.6201 37.9103 32.2868 37.4103C27.4535 40.2437 17.2868 46.1103 15.2868 46.9103C12.7868 47.9103 12.2868 45.9103 11.7868 44.4103Z" fill="#F0EBA9"/>
<path d="M56.8978 309.41C57.1808 308.973 57.4934 308.639 57.7868 308.41H67.2868C71.2868 313.41 67.7868 318.41 66.2868 319.41C65.0868 320.21 66.1201 327.41 66.7868 330.91C68.4535 333.744 70.9868 339.51 67.7868 339.91C68.2339 340.357 68.921 341.524 68.4892 342.91C70.0884 343.91 72.8868 347.91 71.2868 355.91C71.4535 356.744 71.6868 358.61 71.2868 359.41C72.2868 360.077 73.9868 361.81 72.7868 363.41C71.5868 365.01 68.6201 365.41 67.2868 365.41C66.4039 364.94 64.8516 363.94 65.2725 363.49C63.9407 364.484 62.3424 365.41 61.7868 365.41C60.9868 365.41 60.7868 363.657 60.7868 362.78C60.3318 363.311 59.9481 363.749 59.7868 363.91C59.2868 364.41 55.2868 364.41 54.7868 363.41C54.3868 362.61 56.9535 360.41 58.2868 359.41V356.41C57.8868 356.41 57.4535 355.744 57.2868 355.41C57.4535 353.077 57.5868 348.31 56.7868 347.91C55.9868 347.51 55.7868 345.744 55.7868 344.91C54.9868 344.91 54.7868 341.91 54.7868 340.41C53.6201 340.577 51.8868 339.31 54.2868 332.91C56.6868 326.51 54.9535 321.244 53.7868 319.41C50.1868 311.81 54.5645 309.577 56.8978 309.41Z" fill="#F0EBA9"/>
<path d="M29.7868 309.41C30.9793 309.244 33.4489 309.11 33.7868 309.91C33.9653 310.333 34.3502 310.666 34.7729 310.91C35.9442 310.41 38.6868 309.71 40.2868 310.91C42.2868 312.41 46.2868 314.41 44.7868 316.91C43.2868 319.41 41.2868 322.41 38.7868 322.91C36.7868 323.31 35.2775 330.077 34.7729 333.41C35.2775 335.577 35.5868 340.31 32.7868 341.91C29.9868 343.51 28.0547 342.052 27.4386 341.123C27.3865 341.223 27.3358 341.319 27.2868 341.41C25.7868 340.91 22.7868 339.61 22.7868 338.41C22.7868 337.21 21.1201 337.577 20.2868 337.91C18.9535 338.077 16.7868 337.41 18.7868 333.41C20.7868 329.41 23.2868 328.41 24.2868 328.41C25.7868 325.91 28.5868 320.51 27.7868 318.91C26.7868 316.91 27.7868 310.41 29.7868 309.41Z" fill="#F0EBA9"/>
<path d="M16.7868 341.41C17.9535 340.744 20.4868 339.91 21.2868 341.91C22.2868 341.91 24.3868 342.01 24.7868 342.41C24.916 342.539 24.9791 342.915 24.9998 343.41C26.4288 343.077 29.2868 342.71 29.2868 343.91C29.2868 345.41 29.7868 345.91 29.2868 347.41C29.2868 348.632 28.4478 351.811 25.2328 355.41C24.9379 355.741 24.6229 356.074 24.2869 356.41C24.6869 356.41 24.4535 358.077 24.2869 358.91C23.4869 362.11 18.6202 360.655 16.2869 359.528C11.8936 360.49 10.6544 358.875 10.5917 357.91C9.1567 358.244 6.08681 358.41 5.28681 356.41C4.48681 354.41 8.49004 353.91 10.5917 353.91C10.4691 353.738 10.3656 353.568 10.2868 353.41C9.8868 352.61 11.4535 351.077 12.2868 350.41C11.8868 349.61 15.1201 346.744 16.7868 345.41V341.41Z" fill="#F0EBA9"/>
<path d="M115.287 344.91C116.487 342.51 118.12 343.244 118.787 343.91C120.287 340.744 123.187 333.91 122.787 331.91C122.387 329.91 122.62 327.41 122.787 326.41C123.303 324.99 124.701 323.129 126.793 324.41C127.791 324.41 129.987 324.71 130.787 325.91C131.787 327.41 133.287 328.91 134.287 328.41C135.287 327.91 137.287 333.41 133.787 333.91C131.954 334.41 127.987 337.81 126.787 347.41C126.787 347.91 127.787 350.41 126.787 351.41C126.71 351.487 126.624 351.555 126.531 351.614L127.287 354.91C127.068 354.942 126.809 354.972 126.531 354.995L127.287 358.41C126.62 359.077 124.987 360.41 123.787 360.41C122.287 360.41 124.787 356.41 124.787 356.169V354.994C124.21 354.923 123.787 354.751 123.787 354.41C123.787 353.61 124.12 352.428 124.287 351.937C123.6 351.864 123.004 351.702 122.787 351.614C123.187 352.414 122.62 354.91 122.287 355.91C122.454 358.244 122.687 363.01 122.287 363.41C121.787 363.91 121.287 367.41 120.287 367.41C120.146 367.41 119.975 367.39 119.787 367.353C119.454 367.872 118.587 369.01 117.787 369.41C117.605 369.501 117.424 369.491 117.249 369.41C116.262 370.244 113.987 371.71 112.787 370.91C112.787 370.771 112.795 370.594 112.814 370.41C111.138 370.577 107.787 371.01 107.787 371.41C107.787 371.91 106.287 370.91 106.787 370.41C106.886 370.311 107.023 370.133 107.186 369.91C106.553 370.244 104.987 370.71 103.787 369.91C102.587 369.11 106.493 366.666 108.39 365.681C108.77 365.134 109.706 364.643 110.287 364.41C111.454 362.41 113.787 358.01 113.787 356.41C113.787 354.81 114.764 354.41 115.252 354.41C115.246 354.052 115.402 353.645 115.528 353.41C115.286 353.315 115.033 353.157 114.787 352.91C113.987 352.11 115.364 350.118 116.153 349.222C115.054 347.96 114.524 346.435 115.287 344.91Z" fill="#F0EBA9"/>
<path d="M32.2868 37.4103C27.4535 40.2437 17.2868 46.1103 15.2868 46.9103C12.7868 47.9103 12.2868 45.9103 11.7868 44.4103C11.3868 43.2103 20.9534 35.9103 25.7868 32.4103C42.7867 31.4103 43.7868 27.4103 44.2868 27.4103M32.2868 37.4103C31.6201 37.077 30.2868 36.2103 30.2868 35.4103M32.2868 37.4103C35.6201 37.9103 42.3868 38.8103 42.7868 38.4103M42.7868 38.4103C42.9681 38.229 43.7413 37.7846 44.4624 36.9103M42.7868 38.4103L45.2868 42.4103M44.2868 27.4103C44.5002 27.837 44.6879 28.2481 44.8521 28.6441M44.2868 27.4103C46.3764 27.1205 47.5402 24.0243 47.6695 22.5486C52.6695 23.2153 61.5868 26.8103 56.7868 36.4103M56.7868 36.4103C56.2868 36.4103 53.7868 32.9103 51.2868 36.4103M56.7868 36.4103C57.2868 36.7271 64.7868 48.9103 64.7868 49.9103C64.7868 50.9103 61.2868 57.4103 60.7868 56.9103M51.2868 36.4103C51.497 33.8995 50.5043 28.831 44.8521 28.6441M51.2868 36.4103C51.4535 37.9103 50.8868 41.0103 47.2868 41.4103M44.8521 28.6441C46.6499 32.9793 45.6236 35.5023 44.4624 36.9103M47.2868 41.4103C46.3453 39.9103 44.4624 36.9103 44.4624 36.9103M47.2868 41.4103L45.2868 42.4103M45.2868 42.4103C45.2868 49.9103 45.3868 65.0103 45.7868 65.4103M45.7868 65.4103C46.2868 65.9103 46.7868 63.4103 47.7868 63.4103M45.7868 65.4103C44.6201 73.077 42.5868 88.6103 43.7868 89.4103M47.7868 63.4103C48.7868 63.4103 52.7868 63.9103 53.2868 63.9103C53.6417 63.9103 55.8599 59.9739 57.2868 57.3401M47.7868 63.4103C47.9535 58.9103 48.3868 49.9103 48.7868 49.9103C49.2868 49.9103 49.7868 43.8874 55.7868 49.9103L56.6953 54.4103M60.7868 56.9103C60.3868 56.5103 58.6201 56.4103 57.7868 56.4103C57.6365 56.6921 57.468 57.0056 57.2868 57.3401M60.7868 56.9103C61.9535 60.077 64.4868 66.5103 65.2868 66.9103C66.2868 67.4103 65.7868 71.9103 65.2868 72.4103C64.8868 72.8103 62.7868 79.577 61.7868 82.9103M57.2868 57.3401L56.6953 54.4103M48.2868 56.4103C51.0591 56.4103 56.6221 56.0103 56.6953 54.4103M61.7868 82.9103C60.9321 82.7882 59.3974 82.8987 58.4806 83.9103M61.7868 82.9103C62.6201 89.9378 64.1868 104.135 63.7868 104.702C63.3868 105.269 58.2868 109.41 55.7868 111.41M43.7868 89.4103C44.1847 89.6756 45.3217 89.7298 46.7868 89.6101M43.7868 89.4103C42.6201 88.577 39.6868 91.7103 37.2868 110.91M46.7868 89.6101C50.8444 89.2788 57.4194 87.6145 57.7868 85.4103C57.8937 84.7687 58.146 84.2795 58.4806 83.9103M46.7868 89.6101C47.194 86.8899 47.8241 82.8404 48.4087 79.4103M58.4806 83.9103L57.9126 80.4103M48.4087 79.4103C49.0204 75.8212 49.5823 72.9103 49.7868 72.9103C50.2868 72.9103 53.1038 67.4103 56.6953 72.9103L57.9126 80.4103M48.4087 79.4103C50.6186 80.4103 55.6132 82.0103 57.9126 80.4103M58.4806 64.4103C58.416 67.9103 58.5868 75.0103 59.7868 75.4103M37.2868 110.91L40.2868 111.41M37.2868 110.91C35.4535 114.577 31.8868 123.81 32.2868 131.41M40.2868 111.41L41.7868 111.91M40.2868 111.41C40.9417 108.027 42.4116 102.298 44.3593 98.4103M52.2868 108.41L48.7868 112.41H43.2868L41.7868 111.91M52.2868 108.41L52.4172 105.41M52.2868 108.41C55.0868 106.81 55.7868 109.744 55.7868 111.41M41.7868 111.91C42.6201 109.244 44.3868 103.91 44.7868 103.91M44.7868 103.91C45.0339 103.91 45.6754 104.292 46.2868 104.702M44.7868 103.91L44.3593 98.4103M52.4172 105.41L52.7868 96.9103C52.6201 95.577 51.3868 93.2103 47.7868 94.4103C46.5445 94.8244 45.3856 96.3619 44.3593 98.4103M52.4172 105.41H47.2868C47.032 105.219 46.6651 104.955 46.2868 104.702M46.2868 104.702C48.5457 104.271 52.6081 102.01 50.7868 96.4103M59.0537 89.6101C57.7981 90.8769 55.3868 93.7103 55.7868 94.9103C56.1868 96.1103 55.9535 100.41 55.7868 102.41C56.1201 102.98 56.7868 104.177 56.7868 104.41M55.7868 111.41C55.0148 112.03 58.2868 123.91 58.2868 124.41C58.2868 124.81 58.6201 128.244 58.7868 129.91C57.6201 130.91 54.9868 133.21 53.7868 134.41C53.0368 135.16 52.5368 135.16 52.1618 134.91M32.2868 131.41L35.2868 131.91M32.2868 131.41C29.7868 135.244 24.7868 146.31 24.7868 159.91M35.2868 131.91C36.6201 135.077 40.8868 139.91 47.2868 133.91M35.2868 131.91C34.9535 129.577 35.1868 123.81 38.7868 119.41C42.3868 115.01 45.9535 117.577 47.2868 119.41V130.41M47.2868 133.91C48.4535 133.744 50.8868 133.51 51.2868 133.91C51.5368 134.16 51.7868 134.66 52.1618 134.91M47.2868 133.91V130.41M52.7868 116.91C51.2868 119.744 48.8868 126.21 51.2868 129.41M47.2868 130.41C44.1201 130.244 37.7868 129.41 37.7868 127.41M44.2868 118.91C45.2254 121.244 45.9394 126.01 41.2868 126.41M24.7868 159.91C25.7868 158.91 28.0868 157.41 29.2868 159.41M24.7868 159.91C23.1201 160.744 20.2868 167.21 22.2868 186.41M29.2868 159.41C30.5546 161.523 35.3942 162.922 40.7868 160.587M29.2868 159.41C29.5892 157.38 30.0572 154.898 30.6753 152.41M49.7868 160.41C47.7868 156.81 44.9535 157.91 43.7868 158.91C42.7806 159.607 41.7744 160.16 40.7868 160.587M49.7868 160.41C51.9535 159.077 56.3868 156.01 56.7868 154.41C57.1868 152.81 56.9535 150.744 56.7868 149.91C55.2868 147.244 52.3868 141.81 52.7868 141.41C52.3701 139.199 51.6618 134.802 52.1618 134.91M49.7868 160.41C49.1201 164.577 48.8868 174.81 53.2868 182.41C52.2868 184.244 49.8868 188.01 48.2868 188.41M48.7868 141.91C48.7868 142.41 44.2868 148.41 47.7868 154.41M41.2868 154.41C45.2868 144.91 39.7868 141.41 39.2868 141.41C35.4345 138.151 32.442 145.3 30.6753 152.41M41.2868 154.41C40.9887 156.528 40.4713 160.729 40.7868 160.587M41.2868 154.41C37.8791 154.244 30.9861 153.61 30.6753 152.41M39.7868 145.91C39.9535 147.41 39.7868 150.61 37.7868 151.41M22.2868 186.41L24.7868 185.41M22.2868 186.41C21.9535 194.577 22.1868 211.81 25.7868 215.41M24.7868 185.41C24.6201 179.91 25.0868 168.51 28.2868 166.91M24.7868 185.41C25.3676 185.78 25.9328 186.112 26.4822 186.41M28.2868 166.91C32.2868 164.91 38.7868 166.91 39.7868 169.91C39.873 170.169 39.9483 170.507 40.014 170.91M28.2868 166.91L28.7868 170.91M40.2868 185.91C38.8858 187.934 34.2571 190.626 26.4822 186.41M40.2868 185.91C40.4355 182.044 40.5577 174.25 40.014 170.91M40.2868 185.91C43.8868 180.31 47.1201 185.244 48.2868 188.41M33.7868 174.41C35.1201 177.244 36.7868 183.41 32.7868 185.41M26.4822 186.41C26.7504 181.577 27.5868 171.71 28.7868 170.91M28.7868 170.91C31.6049 171.577 37.7957 172.51 40.014 170.91M44.7868 166.41C42.9535 169.244 40.5868 175.51 45.7868 177.91M48.2868 188.41C50.2868 192.077 54.3868 200.11 54.7868 202.91C55.1868 205.71 52.2868 208.744 50.7868 209.91M25.7868 215.41C25.6586 214.641 26.0825 213.458 28.2868 213.499M25.7868 215.41C28.1201 223.41 33.5868 240.01 36.7868 242.41M30.7868 213.91C29.7708 213.633 28.9486 213.511 28.2868 213.499M30.7868 213.91C34.5793 214.945 37.4208 217.405 40.7868 214.899M30.7868 213.91C29.9868 213.663 30.1201 209.141 30.2868 206.91M50.7868 209.91C47.9868 206.71 46.2868 207.244 45.7868 207.91C43.9241 211.636 42.3023 213.771 40.7868 214.899M50.7868 209.91C52.7868 213.91 62.7868 216.41 63.7868 218.91C64.1813 219.897 63.7003 221.41 62.9315 222.91M42.7868 190.41C42.6201 195.41 43.7868 204.71 49.7868 201.91M28.2868 213.499C26.6201 207.969 24.2868 196.51 28.2868 194.91M28.2868 194.91C33.2868 192.91 39.2868 193.41 40.7868 197.41C41.401 199.048 41.5174 202.413 41.4178 205.91M28.2868 194.91C27.0868 196.11 29.1201 203.41 30.2868 206.91M40.7868 214.899C41.0309 212.704 41.3227 209.247 41.4178 205.91M30.2868 206.91C33.9875 207.077 41.3947 207.11 41.4178 205.91M35.2868 194.41C36.0613 196.577 36.8457 201.41 33.7868 203.41M36.7868 242.41C37.1201 242.244 37.9868 241.81 38.7868 241.41M36.7868 242.41C36.1008 243.096 35.3978 243.947 34.7814 244.91M38.7868 241.41C36.4535 236.41 32.1868 225.81 33.7868 223.41M38.7868 241.41H39.7868M33.7868 223.41C35.7868 220.41 42.2868 219.91 44.7868 220.91C46.7868 221.71 52.2868 233.577 54.7868 239.41M33.7868 223.41C34.9535 227.077 37.5868 234.41 38.7868 234.41C39.9868 234.41 39.9535 239.077 39.7868 241.41M54.7868 239.41C56.2868 238.91 59.3868 237.71 59.7868 236.91M54.7868 239.41C53.1868 241.41 44.1201 241.577 39.7868 241.41M59.7868 236.91C60.1868 236.11 60.2868 229.91 60.2868 226.91C61.0471 225.981 62.1413 224.452 62.9315 222.91M59.7868 236.91C61.7868 237.31 65.9535 232.744 67.7868 230.41C68.9868 226.41 75.2868 224.41 78.2868 223.91M49.2868 216.91C49.9535 221.381 52.7868 228.64 58.7868 221.91M62.9315 222.91C63.7166 223.91 65.7868 225.61 67.7868 224.41C70.2868 222.91 75.7868 215.41 79.2868 216.91C79.9535 217.41 80.6868 219.51 78.2868 223.91M78.2868 223.91C82.9535 224.91 90.1868 229.21 81.7868 238.41C81.4928 238.704 81.0466 239.053 80.4523 239.41M66.2868 242.41C66.2868 241.61 67.9535 241.41 68.7868 241.41C71.0646 241.663 73.0689 241.59 74.7869 241.328M66.2868 242.41C64.9535 241.577 61.8868 240.41 60.2868 242.41C58.6868 244.41 57.2868 243.244 56.7868 242.41C55.2868 242.244 52.2868 242.41 52.2868 244.41C51.1256 246.5 49.8836 251.163 51.266 256.91M66.2868 242.41C67.3641 245.319 67.9308 247.996 68.1568 250.41M55.2868 289.41C53.6201 293.577 51.6868 303.01 57.2868 307.41C57.7868 307.577 58.8868 307.71 59.2868 306.91C59.7868 305.91 63.7868 305.41 65.2868 306.91C66.7868 308.41 66.7868 307.91 67.7868 307.91C68.7868 307.91 70.2868 306.41 70.2868 303.91C70.2868 301.41 71.2868 295.41 70.7868 294.91M55.2868 289.41C55.8886 288.207 56.2703 286.658 56.4853 284.91M55.2868 289.41C55.2868 288.885 49.8287 283.879 44.2868 278.945M70.7868 294.91C71.1868 294.91 71.6202 294.244 71.7869 293.91C74.4348 274.41 90.7869 249.41 92.2869 247.41C93.4869 245.81 92.1202 244.077 91.2869 243.41M70.7868 294.91C70.5864 294.71 70.2255 294.429 69.8648 294.068M57.2868 338.91C54.0868 335.31 56.9535 331.744 58.7868 330.41C60.3868 326.81 59.1201 321.91 58.2868 319.91C54.2868 313.51 56.2868 309.577 57.7868 308.41H67.2868C71.2868 313.41 67.7868 318.41 66.2868 319.41C65.0868 320.21 66.1201 327.41 66.7868 330.91C68.4535 333.744 70.9868 339.51 67.7868 339.91M57.2868 338.91L54.7868 340.41M57.2868 338.91C58.0142 339.078 59.076 339.291 60.2868 339.485M67.7868 339.91C66.7643 340.038 65.5443 340.033 64.2868 339.951M67.7868 339.91C68.2339 340.357 68.921 341.524 68.4892 342.91M56.8978 309.41C54.5645 309.577 50.1868 311.81 53.7868 319.41C54.9535 321.244 56.6868 326.51 54.2868 332.91C51.8868 339.31 53.6201 340.577 54.7868 340.41M54.7868 340.41C54.7868 341.91 54.9868 344.91 55.7868 344.91M55.7868 344.91C56.5868 344.91 58.4535 344.577 59.2868 344.41M55.7868 344.91C55.7868 345.744 55.9868 347.51 56.7868 347.91C57.5868 348.31 57.4535 353.077 57.2868 355.41C57.4535 355.744 57.8868 356.41 58.2868 356.41M59.2868 344.41C59.2868 342.718 59.4868 339.365 60.2868 339.485M59.2868 344.41C60.4535 344.577 62.8868 344.81 63.2868 344.41M59.2868 344.41C58.8868 344.81 60.4535 346.91 61.2868 347.91V356.41M60.2868 339.485C61.53 339.684 62.9302 339.862 64.2868 339.951M63.2868 344.41C63.7868 343.91 63.7868 339.922 64.2868 339.951M63.2868 344.41C63.7965 344.538 64.5301 344.655 65.2868 344.663M58.2868 356.41C58.6868 356.41 60.4535 356.41 61.2868 356.41M58.2868 356.41V359.41M61.2868 356.41C61.6201 357.077 62.2868 358.51 62.2868 358.91M61.2868 356.41C64.4868 356.81 65.9535 355.91 66.2868 355.41M62.2868 358.91C62.2868 359.31 59.6201 359.41 58.2868 359.41M62.2868 358.91L62.7868 360.41C62.2896 361.007 61.46 361.995 60.7868 362.78M62.2868 358.91C63.4535 359.117 65.8868 359.47 66.2868 359.221M58.2868 359.41C56.9535 360.41 54.3868 362.61 54.7868 363.41C55.2868 364.41 59.2868 364.41 59.7868 363.91C59.9481 363.749 60.3318 363.311 60.7868 362.78M65.2868 344.663C66.5097 344.675 67.7926 344.399 68.2868 343.41C68.3714 343.241 68.4381 343.074 68.4892 342.91M65.2868 344.663C65.7868 346.912 66.6868 352.21 66.2868 355.41M66.2868 355.41C66.4535 356.577 66.6868 358.972 66.2868 359.221M66.2868 355.41C66.2213 356.21 69.5928 356.077 71.2868 355.91M66.2868 359.221C66.6609 359.617 67.3848 360.61 67.2868 361.41M66.2868 359.221C66.967 359.401 67.9763 359.621 68.9136 359.733M60.7868 362.78C60.7868 363.657 60.9868 365.41 61.7868 365.41C62.3571 365.41 64.0262 364.434 65.3778 363.41M67.2868 361.41C67.2342 361.84 66.3961 362.639 65.3778 363.41M67.2868 361.41L68.9136 359.733M68.4892 342.91C70.0884 343.91 72.8868 347.91 71.2868 355.91M71.2868 355.91C71.4535 356.744 71.6868 358.61 71.2868 359.41M71.2868 359.41C72.2868 360.077 73.9868 361.81 72.7868 363.41C71.5868 365.01 68.6201 365.41 67.2868 365.41C66.3475 364.91 64.6507 363.81 65.3778 363.41M71.2868 359.41C71.0682 359.848 70.0432 359.869 68.9136 359.733M51.266 256.91C49.7998 258.609 47.4159 259.535 45.2868 260M51.266 256.91C51.6493 258.504 52.2345 260.181 53.0793 261.91M34.7814 244.91C31.9532 249.332 30.9489 256.141 41.7868 260.41C42.6335 260.41 43.9066 260.302 45.2868 260M34.7814 244.91C32.9499 244.577 29.1868 245.81 28.7868 253.41M28.7868 253.41C29.7868 252.244 31.9868 250.11 32.7868 250.91M28.7868 253.41C28.0326 257.935 28.234 267.129 34.2092 270.91M45.2868 260C45.2868 261.47 45.2868 264.61 45.2868 265.41C45.2868 266.41 52.7868 277.91 53.2868 277.91M53.2868 277.91C53.7868 277.91 54.1838 284.91 56.4853 284.91M53.2868 277.91L53.0793 261.91M56.4853 284.91C57.2706 278.527 55.8335 269.49 54.7868 264.91C54.1262 263.897 53.5606 262.896 53.0793 261.91M34.2092 270.91C34.8363 271.307 35.5269 271.644 36.2868 271.91C38.4627 273.8 41.3862 276.362 44.2868 278.945M34.2092 270.91C34.5943 276.41 35.2489 287.51 34.7868 287.91C34.2092 288.41 28.6315 299.91 34.2092 308.41C34.9017 309.244 36.5868 310.41 37.7868 308.41C38.9868 306.41 41.6201 307.91 42.7868 308.91C43.7868 310.077 46.2868 311.71 48.2868 308.91C50.7868 305.41 46.7868 292.41 45.7868 290.91C44.7868 289.41 43.2868 279.979 44.2868 278.945M34.7729 310.91C34.3502 310.666 33.9653 310.333 33.7868 309.91C33.4489 309.11 30.9793 309.244 29.7868 309.41C27.7868 310.41 26.7868 316.91 27.7868 318.91C28.5868 320.51 25.7868 325.91 24.2868 328.41C23.2868 328.41 20.7868 329.41 18.7868 333.41C16.7868 337.41 18.9535 338.077 20.2868 337.91C21.1201 337.577 22.7868 337.21 22.7868 338.41C22.7868 339.61 25.7868 340.91 27.2868 341.41C27.3358 341.319 27.3865 341.223 27.4386 341.123M34.7729 310.91C35.3502 311.244 35.9981 311.41 36.2868 311.41C36.7868 311.41 40.2868 311.91 39.2868 314.91C38.2868 317.91 36.7868 321.41 33.2868 322.41C31.7868 324.577 28.9868 329.51 29.7868 331.91C30.5532 334.209 28.6275 338.834 27.4386 341.123M34.7729 310.91C35.9442 310.41 38.6868 309.71 40.2868 310.91C42.2868 312.41 46.2868 314.41 44.7868 316.91C43.2868 319.41 41.2868 322.41 38.7868 322.91C36.7868 323.31 35.2775 330.077 34.7729 333.41C35.2775 335.577 35.5868 340.31 32.7868 341.91C29.9868 343.51 28.0547 342.052 27.4386 341.123M21.2868 341.91C20.4868 339.91 17.9535 340.744 16.7868 341.41C16.7868 342.41 16.7868 344.61 16.7868 345.41M21.2868 341.91C20.9535 343.244 20.3868 345.91 20.7868 345.91M21.2868 341.91C22.2868 341.91 24.3868 342.01 24.7868 342.41C24.916 342.539 24.9791 342.915 24.9998 343.41M20.7868 345.91C21.2868 345.91 16.7868 346.41 16.7868 345.41M20.7868 345.91C21.1868 346.71 23.6201 346.91 24.7868 346.91M20.7868 345.91C20.7868 347.11 18.0403 350.705 16.2869 352.816M16.7868 345.41C15.1201 346.744 11.8868 349.61 12.2868 350.41M24.7868 346.91C24.8996 346.008 25.043 344.448 24.9998 343.41M24.7868 346.91C26.1201 347.577 28.8868 348.61 29.2868 347.41M24.7868 346.91C23.9179 348.7 22.288 351.923 21.2869 353.507M24.9998 343.41C26.4288 343.077 29.2868 342.71 29.2868 343.91C29.2868 345.41 29.7868 345.91 29.2868 347.41M29.2868 347.41C29.2868 348.632 28.4478 351.811 25.2328 355.41M12.2868 350.41C12.7868 351.41 12.2868 353.91 15.7868 353.41M12.2868 350.41C11.4535 351.077 9.8868 352.61 10.2868 353.41C10.3656 353.568 10.4691 353.738 10.5917 353.91M15.7868 353.41C15.3833 353.814 14.524 354.608 13.7869 355.11M15.7868 353.41C15.9406 353.23 16.1086 353.031 16.2869 352.816M13.2868 355.41C12.4443 355.832 11.2469 354.833 10.5917 353.91M13.2868 355.41L10.5917 357.91M13.2868 355.41C13.4412 355.333 13.6105 355.23 13.7869 355.11M10.5917 353.91C8.49004 353.91 4.48681 354.41 5.28681 356.41C6.08681 358.41 9.1567 358.244 10.5917 357.91M10.5917 357.91C10.6544 358.875 11.8936 360.49 16.2869 359.528M13.7869 355.11C14.5654 354.947 16.0382 355.662 17.2766 356.41M17.2766 356.41C18.1133 355.91 19.5867 354.81 18.7868 354.41M17.2766 356.41C17.6416 356.631 17.9863 356.854 18.2869 357.059M18.7868 354.41C17.9869 354.01 16.7869 353.181 16.2869 352.816M18.7868 354.41C19.3332 354.207 20.1185 354.078 20.588 354.41M16.2869 359.528C16.4492 359.492 16.6158 359.453 16.7868 359.41L18.7868 357.41C18.6406 357.304 18.4721 357.185 18.2869 357.059M16.2869 359.528C18.6202 360.655 23.4869 362.11 24.2869 358.91C24.4535 358.077 24.6869 356.41 24.2869 356.41M24.2869 356.41C23.7869 356.41 18.2869 356.207 18.2869 357.059M24.2869 356.41C24.6229 356.074 24.9379 355.74 25.2328 355.41M20.7869 356.41C21.1497 355.279 20.9777 354.686 20.588 354.41M20.588 354.41C20.7372 354.317 20.9831 353.987 21.2869 353.507M21.2869 353.507C22.5142 354.241 25.0217 355.651 25.2328 355.41M85.6456 231.007C87.4789 229.007 91.3869 224.91 91.7869 224.91C92.2869 224.91 94.7869 224.41 94.7869 226.91C94.7869 229.41 90.7869 233.91 90.7869 234.41C90.7869 234.687 92.0601 235.616 93.2869 236.438M145.787 268.91C146.954 267.744 149.387 265.11 149.787 263.91C150.287 262.41 149.287 261.91 148.287 261.41C147.287 260.91 144.287 265.41 142.787 265.91C141.287 266.41 140.787 264.41 140.287 263.91C139.787 263.41 142.787 260.41 143.787 258.91C144.787 257.41 143.287 256.41 142.287 255.91C141.287 255.41 137.787 260.41 136.287 260.91C136.015 261.001 135.771 260.991 135.556 260.91M145.787 268.91L150.287 270.91C151.454 269.744 153.987 267.51 154.787 267.91C155.787 268.41 157.787 269.41 154.787 272.91C156.12 274.077 158.787 276.51 158.787 276.91M145.787 268.91C142.62 267.258 136.427 265.674 133.016 269.91M158.787 276.91C159.787 276.577 161.887 276.01 162.287 276.41C162.687 276.81 162.12 278.91 161.787 279.91M158.787 276.91L161.787 279.91M161.787 279.91C162.527 280.968 163.398 282.294 164.287 283.766M169.287 299.91C170.422 298.018 169.588 294.559 168.024 290.91M169.287 299.91C168.96 299.983 168.528 300.043 168.024 300.068M169.287 299.91C169.287 301.077 171.405 300.731 173.287 300.52M158.787 296.91C159.987 296.51 160.954 297.41 161.287 297.91C163.476 299.787 166.216 300.155 168.024 300.068M158.787 296.91C158.679 296.946 158.987 296.945 158.787 296.91ZM158.787 296.91C156.767 296.563 149.971 292.881 146.787 290.91C145.856 291.376 144.361 292.015 142.787 292.484M158.787 296.91C158.488 301.067 155.842 302.156 153.787 302.533M139.787 271.41C136.62 274.577 132.987 281.61 143.787 284.41M152.787 277.41C161.287 282.91 173.787 299.91 163.287 296.41M164.287 283.766C165.787 282.981 168.887 282.01 169.287 284.41C168.761 285.597 167.567 288.115 166.998 288.691M164.287 283.766C165.212 285.297 166.157 286.984 166.998 288.691M166.998 288.691C167.363 289.431 167.708 290.174 168.024 290.91M93.2869 236.438C93.8355 236.806 94.3748 237.153 94.7869 237.41C96.4535 234.744 100.387 229.41 102.787 229.41C105.187 229.41 104.454 231.744 103.787 232.91L100.287 239.41C100.85 240.068 101.827 241.064 102.787 241.737M93.2869 236.438L91.2869 243.41M91.2869 243.41C90.0869 242.61 88.1202 243.077 87.2869 243.41C85.927 245.235 84.6667 247.072 83.4996 248.91M69.8648 294.068C69.3255 293.529 68.7868 292.809 68.7868 291.91C68.7868 290.435 66.851 293.314 65.3599 273.41M69.8648 294.068C69.3859 286.433 71.6214 267.616 83.4996 248.91M74.7869 241.328C72.7002 244.355 68.4528 250.41 68.1568 250.41M74.7869 241.328C77.3021 240.945 79.2038 240.16 80.4523 239.41M68.1568 250.41C68.9798 259.202 65.2868 264.518 65.2868 264.91C65.2868 265.31 65.2868 270.077 65.2868 272.41C65.3111 272.75 65.3354 273.083 65.3599 273.41M80.4523 239.41V244.91C79.9056 245.658 79.3034 246.498 78.6636 247.41M65.3599 273.41C64.9047 268.394 73.1678 255.248 78.6636 247.41M78.6636 247.41C80.0132 247.91 82.8698 248.91 83.4996 248.91M102.787 241.737C103.53 242.258 104.263 242.585 104.787 242.41C106.287 241.91 110.287 234.91 111.787 235.41C113.287 235.91 114.287 236.91 114.287 237.41C114.287 237.91 110.787 244.91 110.287 244.91C110.581 245.352 111.084 245.95 111.691 246.41M102.787 241.737C102.12 243.295 100.887 246.51 101.287 246.91M101.287 246.91C99.9535 246.577 96.8869 246.71 95.2869 249.91C94.8854 250.713 94.0003 251.159 92.8783 253.307M101.287 246.91C102.487 247.71 102.787 249.244 102.787 249.91C101.53 252.289 100.366 254.556 99.2869 256.717M89.2869 251.307L92.8783 253.307M92.8783 253.307C88.4115 261.861 80.1902 281.028 83.7869 299.41C84.1202 299.91 84.8869 300.41 85.2869 298.41C85.7529 296.08 84.4814 286.375 99.2869 256.717M99.2869 256.717L102.287 258.41M102.287 258.41C103.287 255.577 105.887 250.11 108.287 250.91C109.011 251.014 109.607 251.139 110.087 251.307M102.287 258.41C95.0869 269.21 92.6202 291.244 92.2869 300.91C94.2869 303.71 94.7869 301.744 94.7869 300.41C93.7379 292.369 102.545 273.044 108.787 261.071M111.691 246.41C112.458 246.993 113.393 247.357 114.287 246.91C115.954 244.244 119.687 239.21 121.287 240.41C123.287 241.91 121.787 244.91 119.287 248.91C119.647 249.87 120.473 251.417 121.505 251.91M111.691 246.41C111.59 248.008 111.128 251.224 110.087 251.307M110.087 251.307C111.93 251.953 112.08 253.238 111.287 256.41C110.532 257.774 109.686 259.346 108.787 261.071M121.505 251.91C121.906 252.102 122.339 252.134 122.787 251.91C123.787 249.91 126.187 246.01 127.787 246.41C128.954 246.577 130.987 247.31 129.787 248.91C128.287 250.91 126.787 254.91 127.287 254.91C127.476 255.383 127.901 256.059 128.525 256.41M121.505 251.91C120.765 253.744 119.287 257.51 119.287 257.91M119.287 257.91C119.287 258.41 120.287 259.91 117.287 263.91C117.07 264.2 116.796 264.627 116.474 265.173M119.287 257.91C118.287 256.744 115.587 255.31 112.787 258.91C112.308 259.525 111.69 260.682 110.981 262.231M108.787 261.071C109.187 261.342 110.416 261.958 110.981 262.231M110.981 262.231C106.504 272.017 98.4235 297.457 99.2869 300.91C100.087 304.11 101.287 302.91 101.787 301.91C100.395 298.663 112.343 272.18 116.474 265.173M116.474 265.173L119.787 266.91M119.787 266.91C120.954 264.964 123.387 261.071 123.787 261.071C124.155 261.071 126.425 260.44 127.193 261.91M119.787 266.91C113.287 279.41 110.787 294.41 110.787 297.91C110.787 300.71 112.12 300.077 112.787 299.41C113.751 289.449 119.727 277.1 124.287 269.258M128.525 256.41C129.002 256.678 129.594 256.757 130.287 256.41C131.454 254.244 134.087 250.01 135.287 250.41C136.787 250.91 137.787 251.41 137.787 252.41C137.787 253.21 135.454 257.077 134.287 258.91C134.416 259.555 134.823 260.637 135.556 260.91M128.525 256.41C128.216 258.137 127.518 261.653 127.193 261.91M127.193 261.91C127.467 262.435 127.55 263.227 127.287 264.41C126.435 265.689 125.403 267.338 124.287 269.258M135.556 260.91C135.133 262.41 134.287 265.51 134.287 265.91M134.287 265.91C132.287 263.51 130.12 264.91 129.287 265.91C128.715 266.891 128.037 268.271 127.306 269.91M134.287 265.91C134.287 266.124 133.429 267.681 132.402 269.467M124.287 269.258L127.306 269.91M127.306 269.91C123.563 278.305 118.45 293.482 119.287 296.41C120.087 299.21 121.287 297.91 121.787 296.91C120.987 296.11 126.787 281.244 129.787 273.91C130.485 272.747 131.508 271.02 132.402 269.467M131.118 280.41C130.516 278.739 130.409 276.481 131.287 273.41C131.704 271.95 132.298 270.802 133.016 269.91M131.118 280.41C129.564 285.024 126.922 294.382 128.787 294.91C129.343 295.077 130.522 294.91 130.787 292.91C131.052 290.91 132.684 285.847 133.467 283.565M131.118 280.41C131.637 281.85 132.524 282.854 133.467 283.565M133.467 283.565C135.172 284.851 137.059 285.183 137.287 285.41C137.687 285.81 137.12 287.577 136.787 288.41C136.12 289.577 135.387 292.11 137.787 292.91C139.069 293.338 140.98 293.023 142.787 292.484M136.639 288.691C136.589 289.102 132.639 294.191 140.139 297.191C141.139 297.357 142.587 298.81 141.787 300.41C140.987 302.01 135.12 309.744 132.287 313.41C129.287 311.91 122.287 315.91 127.287 321.41C128.787 321.744 131.887 322.81 132.287 324.41C132.787 326.41 135.287 326.41 136.287 325.91C137.287 325.41 140.287 323.91 138.787 318.91C140.776 315.827 144.094 310.869 146.787 307.287M146.787 307.287C147.287 307.41 152.287 314.91 149.787 317.91C147.287 320.91 152.787 323.91 153.787 323.91C153.898 323.91 154.034 323.898 154.188 323.873M146.787 307.287C147.459 306.392 148.093 305.583 148.657 304.91M153.787 302.533C152.628 302.745 151.508 302.73 150.787 302.91C150.38 303.012 149.62 303.763 148.657 304.91M153.787 302.533C153.336 302.63 157.266 308.825 159.287 311.91C160.287 310.91 163.787 313.91 164.287 315.91C164.687 317.51 162.787 319.91 161.787 320.91H157.787C157.787 321.197 157.725 321.463 157.617 321.709M159.787 331.91C161.787 334.744 165.787 340.61 165.787 341.41M142.787 292.484C142.62 293.293 142.387 295.01 142.787 295.41C143.287 295.91 143.787 297.91 142.787 298.41M144.787 302.91C142.454 304.744 137.687 309.31 137.287 312.91M130.787 318.41C132.12 318.41 134.787 319.11 134.787 321.91M148.657 304.91C148.787 305.41 150.287 310.41 152.287 310.91M154.287 319.91C154.62 318.577 156.087 316.01 159.287 316.41M154.188 324.91C152.95 326.219 153.915 328.289 154.787 329.41C158.787 330.61 163.12 338.91 164.787 342.91C163.787 345.41 164.787 346.41 164.787 346.91C165.194 347.114 165.592 347.28 165.98 347.41M154.188 324.91C154.606 324.468 155.276 324.112 156.287 323.91C157.12 324.244 159.187 324.61 160.787 323.41C162.787 321.91 163.787 323.91 163.787 326.91C163.787 329.91 163.787 331.41 164.287 331.41C164.787 331.41 168.787 340.41 170.787 340.91C172.504 341.34 173.853 342.506 172.934 344.41M154.188 324.91C154.057 324.592 153.874 323.938 154.188 323.873M154.188 323.873C155.218 323.708 157.052 322.986 157.617 321.709M157.617 321.709C158.84 321.809 161.487 321.948 162.287 321.709C163.287 321.41 166.287 320.41 166.787 322.41C167.287 324.41 167.287 325.41 166.287 327.41C165.287 329.41 172.287 338.41 173.287 338.41C174.287 338.41 177.287 340.41 175.787 343.41C175.574 343.836 175.361 344.164 175.152 344.41M172.934 344.41C172.782 344.724 172.57 345.057 172.287 345.41C172.146 345.587 172.002 345.754 171.855 345.91M172.934 344.41C173.228 344.846 173.843 345.31 174.569 344.91M175.152 344.41C176.363 344.244 178.687 344.71 178.287 347.91C178.175 347.91 178.001 347.935 177.787 347.968M175.152 344.41C174.952 344.645 174.757 344.807 174.569 344.91M174.569 344.91C174.498 345.541 174.472 346.708 174.764 347.41M174.764 347.41C174.857 347.636 174.984 347.813 175.152 347.91C175.824 348.299 177.042 348.084 177.787 347.968M174.764 347.41C174.77 348.259 174.775 349.299 174.777 350.41M174.764 347.41C174.454 347.81 172.696 346.577 171.855 345.91M172.934 362.91C173.58 363.25 174.287 359.91 174.569 359.41C174.744 359.099 174.782 354.32 174.777 350.41M172.934 362.91C172.287 362.571 169.787 361.91 170.287 360.91M172.934 362.91C172.58 363.41 171.287 364.91 170.787 364.91C170.758 364.91 170.724 364.903 170.685 364.89M170.287 360.91C170.287 360.077 170.487 358.41 171.287 358.41C172.087 358.41 171.62 354.077 171.287 351.91M170.287 360.91C169.787 361.41 168.687 362.51 168.287 362.91M171.287 351.91C171.287 351.622 171.922 350.79 172.24 350.41M171.287 351.91C170.699 351.75 169.867 351.344 169.287 350.645M168.787 347.684C169.909 347.49 170.932 346.899 171.855 345.91M168.787 347.684C167.912 347.834 166.976 347.743 165.98 347.41M168.787 347.684C168.39 348.983 168.715 349.956 169.287 350.645M170.787 346.41C170.787 346.706 171.007 349.354 172.24 350.41M174.777 350.41C173.644 351.056 172.827 350.914 172.24 350.41M165.98 347.41C165.631 348.345 165.283 350.225 166.287 351.106M169.287 350.645C169.16 351.044 168.704 351.653 167.787 351.636M167.787 351.636C167.5 351.631 167.168 351.564 166.787 351.41C166.592 351.332 166.426 351.229 166.287 351.106M167.787 351.636C168.249 354.061 168.535 359.31 165.98 360.91M165.98 360.91C166.582 361.744 167.887 363.31 168.287 362.91M165.98 360.91C165.534 361.252 165.136 361.36 164.787 361.335M168.287 362.91C167.722 363.744 166.532 365.31 166.287 364.91M168.287 362.91C168.906 363.529 170.184 364.722 170.685 364.89M166.287 351.106C166.12 353.874 165.287 359.41 163.287 359.41C163.19 359.507 163.071 359.693 163.066 359.91M166.287 364.91C165.98 364.41 163.787 362.91 164.287 362.91M166.287 364.91C166.13 365.224 165.922 365.684 165.787 366.084M164.287 362.91C164.687 362.91 164.787 361.86 164.787 361.335M164.287 362.91C163.546 362.91 162.6 363.346 161.727 363.91M164.787 361.335C164.113 361.286 163.616 360.74 163.287 360.41C163.119 360.242 163.062 360.068 163.066 359.91M170.685 364.89C171.083 365.87 166.287 366.91 165.787 366.91C165.575 366.91 165.634 366.536 165.787 366.084M165.787 366.084C165.287 365.91 159.787 366.736 159.287 366.41C159.188 366.346 159.245 366.171 159.416 365.931M163.066 359.91C162.494 360.445 161.664 361.445 161.425 362.41M161.727 363.91C161.343 363.48 161.292 362.95 161.425 362.41M161.727 363.91C160.708 364.569 159.79 365.405 159.416 365.931M161.425 362.41C160.287 362.41 154.787 364.736 156.287 365.41C157.487 365.95 158.873 365.982 159.416 365.931M176.287 349.41C176.56 349.41 177.581 349.56 178.287 350.022M174.787 353.41C174.802 353.41 177.787 353.91 178.787 351.91C179.24 351.004 178.872 350.406 178.287 350.022M177.787 347.968C177.893 348.609 178.14 349.916 178.287 350.022M120.287 351.91C121.328 352.257 122.156 352.052 122.787 351.614M120.287 351.91C119.787 352.624 118.887 354.235 119.287 354.968M120.287 351.91C119.588 351.677 118.861 351.335 118.177 350.91M124.287 332.41C123.62 335.577 121.887 342.31 120.287 343.91M126.793 324.41C124.701 323.129 123.303 324.99 122.787 326.41C122.62 327.41 122.387 329.91 122.787 331.91C123.187 333.91 120.287 340.744 118.787 343.91C118.12 343.244 116.487 342.51 115.287 344.91C114.524 346.435 115.054 347.96 116.153 349.222M126.793 324.41C127.4 324.783 128.067 325.42 128.787 326.41C129.12 326.91 130.087 327.91 131.287 327.91C132.787 327.91 134.787 332.41 128.787 333.41C127.287 336.077 124.387 341.71 124.787 342.91L124.287 349.41C124.098 350.071 123.61 351.041 122.787 351.614M126.793 324.41C127.791 324.41 129.987 324.71 130.787 325.91C131.787 327.41 133.287 328.91 134.287 328.41C135.287 327.91 137.287 333.41 133.787 333.91C131.954 334.41 127.987 337.81 126.787 347.41C126.787 347.91 127.787 350.41 126.787 351.41C126.71 351.487 126.624 351.555 126.531 351.614M122.787 351.614C123.004 351.702 123.6 351.864 124.287 351.937M122.787 351.614C123.187 352.414 122.62 354.91 122.287 355.91M126.531 351.614L127.287 354.91C127.068 354.942 126.809 354.972 126.531 354.995M126.531 351.614C125.941 351.988 125.057 352.019 124.287 351.937M124.287 351.937C124.12 352.428 123.787 353.61 123.787 354.41C123.787 354.751 124.21 354.923 124.787 354.994M126.531 354.995L127.287 358.41C126.62 359.077 124.987 360.41 123.787 360.41C122.287 360.41 124.787 356.41 124.787 356.169V354.994M126.531 354.995C125.959 355.042 125.31 355.059 124.787 354.994M119.287 354.968C119.687 355.7 121.454 355.91 122.287 355.91M119.287 354.968C119.381 355.552 117.787 353.91 116.787 353.41M119.287 354.968C119.287 355.509 119.281 356.204 119.268 356.91M122.287 355.91C122.454 358.244 122.687 363.01 122.287 363.41C121.787 363.91 121.287 367.41 120.287 367.41C120.146 367.41 119.975 367.39 119.787 367.353M118.177 350.91C117.38 351.577 115.987 353.01 116.787 353.41M118.177 350.91C117.418 350.439 116.712 349.864 116.153 349.222M116.787 353.41C116.556 353.526 116.07 353.625 115.528 353.41M116.153 349.222C115.364 350.118 113.987 352.11 114.787 352.91C115.033 353.157 115.286 353.315 115.528 353.41M115.528 353.41C115.402 353.645 115.246 354.052 115.252 354.41M119.268 356.91C119.223 359.211 119.093 361.91 118.787 361.91C118.287 361.91 117.787 364.41 117.287 365.41C117.195 365.594 117.204 365.777 117.287 365.955M119.268 356.91C119.268 356.91 116.153 355.41 115.528 354.995C115.329 354.862 115.256 354.647 115.252 354.41M116.153 355.41C115.864 358.577 114.787 365.11 112.787 365.91M112.787 365.91C112.557 365.9 112.295 365.812 112.025 365.681M112.787 365.91C113.426 366.555 114.591 367.637 115.183 367.91M117.287 365.955C116.935 366.296 116.31 366.927 115.899 367.41M117.287 365.955C117.59 366.607 118.886 367.176 119.787 367.353M115.899 367.41C115.725 367.614 115.589 367.792 115.528 367.91C115.481 368.001 115.357 367.991 115.183 367.91M115.899 367.41C116.127 368.055 116.653 369.137 117.249 369.41M119.787 367.353C119.454 367.872 118.587 369.01 117.787 369.41C117.605 369.501 117.424 369.491 117.249 369.41M115.252 354.41C114.764 354.41 113.787 354.81 113.787 356.41C113.787 358.01 111.454 362.41 110.287 364.41M110.287 364.41C109.454 364.744 107.887 365.61 108.287 366.41C108.682 367.2 108.765 367.366 109.522 367.401M110.287 364.41C110.643 364.756 111.356 365.354 112.025 365.681M112.025 365.681C111.974 366.056 111.761 366.677 111.287 367.063M111.287 367.063C111.033 367.27 110.705 367.41 110.287 367.41C109.972 367.41 109.723 367.41 109.522 367.401M111.287 367.063C111.787 368.012 112.887 369.81 113.287 369.41M113.287 369.41C113.687 369.01 114.718 368.244 115.183 367.91M113.287 369.41C112.998 369.41 112.866 369.932 112.814 370.41M117.249 369.41C116.262 370.244 113.987 371.71 112.787 370.91C112.787 370.771 112.795 370.594 112.814 370.41M112.814 370.41C111.138 370.577 107.787 371.01 107.787 371.41C107.787 371.91 106.287 370.91 106.787 370.41C106.886 370.311 107.023 370.133 107.186 369.91M109.522 367.401C108.909 367.394 107.842 369.011 107.186 369.91M108.39 365.681C106.493 366.666 102.587 369.11 103.787 369.91C104.987 370.71 106.553 370.244 107.186 369.91M168.024 290.91C168.778 290.744 170.487 290.41 171.287 290.41C172.287 290.41 174.787 286.41 175.787 286.91C176.787 287.41 178.287 287.91 176.287 290.91C176.287 291.244 176.387 291.91 176.787 291.91C177.184 291.91 178.525 293.17 178.562 294.189M174.787 294.91C174.787 295.41 173.787 299.41 172.287 298.91M178.562 294.189C178.572 294.455 178.493 294.704 178.287 294.91C177.492 295.705 177.013 298.71 175.847 299.91M178.562 294.189C179.304 294.116 180.887 294.013 181.287 294.189C181.954 292.93 183.587 290.51 184.787 290.91C185.987 291.31 186.62 291.744 186.787 291.91C186.62 292.577 186.087 294.01 185.287 294.41C184.487 294.81 185.954 295.91 186.787 296.41C187.008 296.631 187.331 297.042 187.408 297.41M185.787 302.41C186.187 302.41 186.62 301.077 186.787 300.41C186.787 299.744 186.887 298.31 187.287 297.91C187.422 297.775 187.447 297.598 187.408 297.41M185.787 302.41C185.387 302.41 183.62 303.41 182.787 303.91M185.787 302.41C185.099 303.41 188.287 305.41 188.787 305.91C188.924 306.048 189.289 305.921 189.787 305.622M182.787 303.91C181.817 303.91 180.382 303.744 179.064 303.259M182.787 303.91C182.387 305.51 183.287 310.577 183.787 312.91C181.787 312.91 179.805 306.476 179.064 303.259M175.847 299.91C175.545 300.221 175.198 300.41 174.787 300.41C174.343 300.41 173.824 300.46 173.287 300.52M175.847 299.91C176.09 301.651 177.493 302.682 179.064 303.259M179.287 302.41C180.787 302.077 183.687 300.91 183.287 298.91M186.287 298.41C185.454 299.077 183.987 300.51 184.787 300.91M168.024 300.068C169.111 304.515 171.787 313.51 173.787 313.91C173.787 309.65 173.687 301.008 173.287 300.52M187.408 297.41C188.034 297.244 189.387 296.91 189.787 296.91C190.287 296.91 191.787 293.41 192.787 293.41C193.787 293.41 193.787 296.41 193.287 297.91C193.921 298.182 194.781 298.719 195.178 299.41M189.787 305.622C190.814 305.006 192.41 303.661 193.75 302.41M189.787 305.622C189.799 305.714 189.814 305.81 189.829 305.91M193.287 305.91C192.787 306.199 194.787 312.91 194.787 313.91C194.787 314.71 194.454 315.244 194.287 315.41C191.593 313.486 190.226 308.453 189.829 305.91M193.287 305.91C192.087 307.11 190.482 306.41 189.829 305.91M193.287 305.91C193.539 305.765 193.899 305.131 194.071 304.41M193.75 302.41C194.121 302.064 194.472 301.725 194.787 301.41C195.317 300.88 195.459 300.371 195.37 299.91M193.75 302.41C194.227 302.906 194.24 303.701 194.071 304.41M195.37 299.91C195.842 300.41 196.587 302.01 195.787 304.41M195.37 299.91C195.336 299.736 195.269 299.569 195.178 299.41M195.787 304.41C195.187 304.577 194.003 304.81 194.071 304.41M195.787 304.41C195.639 304.91 197.287 306.91 197.787 307.41C197.874 307.497 198.051 307.569 198.287 307.628M195.178 299.41C195.714 299.244 196.987 299.01 197.787 299.41C198.12 297.577 199.087 294.01 200.287 294.41C201.787 294.91 201.787 296.41 201.787 296.91C201.787 297.31 201.787 298.41 201.787 298.91C202.378 298.91 203.571 299.225 204.113 300.41M198.287 307.628C198.62 309.889 200.087 314.51 203.287 314.91C203.62 314.91 204.287 314.81 204.287 314.41C204.287 313.91 200.787 309.405 201.787 307.908M198.287 307.628C199.175 307.851 200.899 307.898 201.787 307.908M201.787 307.908C202.023 307.91 202.2 307.91 202.287 307.91C202.687 307.91 203.454 307.244 203.787 306.91C203.97 306.91 204.153 306.374 204.287 305.597M201.787 301.41C201.787 302.91 201.487 305.91 200.287 305.91M192.287 300.52C191.954 301.65 191.087 303.91 190.287 303.91M204.113 300.41C204.183 300.562 204.241 300.729 204.287 300.91C204.604 302.178 204.519 304.25 204.287 305.597M204.113 300.41C204.671 300.077 205.987 299.41 206.787 299.41C207.787 299.41 208.787 295.41 209.787 295.41C210.787 295.41 211.287 297.91 211.287 299.41C211.716 299.625 212.42 300.142 212.868 300.91M204.287 305.597C204.185 306.411 205.694 307.745 206.787 308.555M210.287 301.41C210.454 303.41 210.287 307.31 208.287 306.91M206.787 308.555C206.968 308.69 207.138 308.81 207.287 308.91C207.458 308.932 207.624 308.946 207.787 308.955C210.675 309.11 212.314 307.357 212.787 306.41C212.819 306.281 212.858 306.111 212.899 305.91M206.787 308.555C207.954 311.174 210.687 316.21 212.287 315.41C212.454 315.244 212.687 314.41 212.287 312.41C211.887 310.41 210.787 308.91 210.287 308.41M212.868 300.91C213.117 301.336 213.287 301.839 213.287 302.41C213.287 303.7 213.07 305.076 212.899 305.91M212.868 300.91C213.508 300.91 214.887 300.91 215.287 300.91C215.787 300.91 216.787 295.41 217.787 296.41C218.787 297.41 219.287 299.41 218.787 299.91C219.787 300.244 221.687 301.11 221.287 301.91M221.287 301.91C222.62 301.744 225.387 301.31 225.787 300.91C226.287 300.41 225.787 293.91 229.787 300.41C230.287 300.577 231.487 300.91 232.287 300.91C232.636 300.91 232.984 301.32 233.248 301.91M221.287 301.91C220.934 302.616 221.333 304.248 221.661 305.238M219.787 309.41C221.387 309.01 221.787 306.701 221.787 305.597C221.748 305.491 221.705 305.37 221.661 305.238M219.787 309.41C218.787 309.41 215.922 308.201 215.605 308.555M219.787 309.41C219.139 309.713 222.287 314.91 222.787 316.41C223.187 317.61 221.287 316.91 220.287 316.41C219.487 316.41 216.832 311.174 215.605 308.555M215.605 308.555C215.287 308.91 212.511 306.224 212.899 305.91M221.661 305.238C223.035 307.066 226.787 305.597 226.287 305.91C225.787 306.224 231.287 312.41 232.287 312.41C233.287 312.41 232.787 309.91 232.287 309.91C231.787 309.91 230.287 306.41 230.287 305.91C230.287 305.51 232.287 305.535 233.287 305.597C233.331 305.539 233.372 305.476 233.408 305.41M233.248 301.91C233.928 301.244 235.487 300.01 236.287 300.41C237.287 300.91 235.787 296.91 236.787 296.91C237.787 296.91 239.287 296.41 240.287 299.91C241.287 299.577 243.387 299.11 243.787 299.91M233.248 301.91C233.707 302.937 233.91 304.509 233.408 305.41M243.787 299.91C244.454 299.91 245.787 299.71 245.787 298.91C245.787 297.91 245.287 294.41 248.287 296.41C248.454 297.244 248.987 298.81 249.787 298.41C250.787 297.91 251.787 296.41 252.287 297.41M243.787 299.91C244.187 300.71 244.907 302.47 244.411 303.91M233.408 305.41L237.287 305.597C237.954 306.535 239.687 308.71 241.287 309.91C242.887 311.11 243.287 310.077 243.287 309.41L240.787 304.91H243.787C244.087 304.61 244.287 304.27 244.411 303.91M252.287 297.41C252.954 297.077 254.287 296.31 254.287 295.91C254.287 295.41 254.287 291.91 256.287 293.41C256.62 294.077 257.387 295.41 257.787 295.41C258.287 295.41 258.787 294.41 259.787 294.91M252.287 297.41C252.689 298.214 253.413 299.986 253.423 300.91M244.411 303.91C246.11 303.11 247.036 303.577 247.287 303.91C247.287 304.91 251.787 307.41 252.787 306.91C253.587 306.51 251.787 304.077 250.787 302.91C251.287 302.91 252.787 301.91 253.287 301.41C253.385 301.312 253.425 301.137 253.423 300.91M259.787 294.91C260.587 295.31 261.454 297.744 261.787 298.91M259.787 294.91C259.287 294.91 261.787 293.91 261.287 293.91C260.787 293.91 261.287 290.91 262.287 290.41C263.087 290.01 264.287 291.91 264.787 292.91C265.596 292.775 267.059 292.597 267.589 292.746M261.787 298.91C260.954 299.41 259.187 300.41 258.787 300.41C258.287 300.41 261.787 303.583 260.787 304.41C259.787 305.238 256.287 301.91 256.287 301.41C256.287 301.01 254.378 300.91 253.423 300.91M261.787 298.91C263.12 299.41 265.987 300.41 266.787 302.41C267.587 304.41 267.787 301.91 267.787 300.41C267.454 299.744 266.687 298.31 266.287 297.91C265.787 297.41 268.287 296.41 269.287 296.41C269.259 296.355 269.23 296.297 269.2 296.235M267.589 292.746C267.714 292.781 267.787 292.834 267.787 292.91C267.787 293.288 268.68 295.184 269.2 296.235M267.589 292.746C267.988 292.467 268.887 291.91 269.287 291.91C269.687 291.91 269.454 289.91 269.287 288.91C270.12 289.244 271.787 290.01 271.787 290.41C271.787 290.81 273.454 290.91 274.287 290.91M274.287 290.91C274.454 291.744 274.887 293.41 275.287 293.41M274.287 290.91C274.787 290.244 275.987 289.01 276.787 289.41C276.843 289.439 276.9 289.467 276.956 289.495M275.287 293.41C275.687 293.41 274.12 294.744 273.287 295.41L274.787 298.41C274.454 298.91 273.487 299.61 272.287 298.41C270.787 296.91 271.113 295.526 269.2 296.235M275.287 293.41C276.287 294.41 278.787 291.41 278.787 290.91M278.787 290.91C278.787 290.439 277.897 289.967 276.956 289.495M278.787 290.91C279.454 290.91 280.687 290.91 280.287 290.91M276.956 289.495L278.787 289.41M278.787 289.41C279.12 289.91 279.887 290.91 280.287 290.91M278.787 289.41C278.787 287.81 281.12 287.41 282.287 287.41C282.32 287.51 282.36 287.633 282.402 287.77M280.287 290.91C281.12 290.577 282.787 289.81 282.787 289.41M282.787 289.41C282.787 289.09 282.573 288.321 282.402 287.77M282.787 289.41L283.787 288.91C286.587 289.31 287.62 288.077 287.787 287.41C287.822 287.271 287.846 287.099 287.849 286.91M282.402 287.77C283.03 286.65 284.687 284.51 286.287 284.91C287.554 285.227 287.859 286.191 287.849 286.91M287.157 285.508C287.99 284.341 290.057 282.408 291.657 284.008C291.755 284.106 291.973 284.105 292.05 284.199M287.849 286.91H291.287C291.823 286.696 292.538 286.178 292.555 285.41M292.05 284.199C293.129 283.27 295.487 281.61 296.287 282.41C296.435 282.558 296.561 282.728 296.664 282.91M292.05 284.199C292.422 284.652 292.562 285.058 292.555 285.41M292.555 285.41C293.132 285.41 294.587 285.41 295.787 285.41C296.606 285.41 296.978 284.813 296.984 284.108M296.664 282.91C297.871 282.077 300.487 280.71 301.287 281.91C301.395 282.072 301.474 282.24 301.527 282.41M296.664 282.91C296.875 283.286 296.987 283.714 296.984 284.108M296.984 284.108C297.585 284.209 298.987 284.51 299.787 284.91C300.35 285.192 301.073 284.68 301.417 283.91M301.527 282.41C302.947 282.077 305.887 281.61 306.287 282.41C306.399 282.635 306.436 282.876 306.419 283.109M301.527 282.41C301.69 282.927 301.618 283.462 301.417 283.91M301.417 283.91C302.54 283.976 304.887 284.169 305.287 284.41C305.561 284.576 305.985 284.26 306.23 283.776M306.419 283.109C307.33 282.676 309.315 282.069 309.969 283.109C310.061 283.255 310.134 283.394 310.192 283.525M306.419 283.109C306.403 283.346 306.332 283.575 306.23 283.776M306.23 283.776C306.673 285.142 309.787 285.41 309.969 285.269C310.098 285.169 310.452 284.783 310.363 284.108M310.363 284.108C312.004 285.542 315.887 288.21 318.287 287.41C318.057 286.487 316.117 284.417 310.192 283.525M310.363 284.108C310.339 283.933 310.287 283.739 310.192 283.525M132.402 269.467L133.016 269.91" stroke="black" stroke-width="0.5"/>
</svg>
