<svg width="331" height="172" viewBox="0 0 331 172" fill="none" xmlns="http://www.w3.org/2000/svg">
<path d="M0.605469 171.857H325.465L30.6348 133.941L8.0503 149.861L0.605469 171.857Z" fill="black" fill-opacity="0.15"/>
<path d="M19.4814 78.3039V46.2386H330.481V78.3039H322.095L318.6 132.108H321.396L325.589 136.456V171.782H26.4702L25.7713 138.086L30.6635 133.739L26.4702 78.3039H19.4814Z" stroke="#E28E58" stroke-width="0.1"/>
<path d="M20.0073 78.304V46.7822H330.482V78.304H20.0073Z" fill="#E0874E" stroke="#CC6524"/>
<path d="M54.4253 78.8474H26.4702L30.6635 133.739H55.823L54.4253 78.8474Z" fill="#CF7840" stroke="#CC6524"/>
<path d="M321.573 78.304L293.756 79.0544L292.742 131.565H318.057L321.573 78.304Z" fill="#CF7840" stroke="#CC6524"/>
<path d="M26.4702 138.086L30.6635 134.282L320.697 132.108L324.89 136.456V171.239H27.1691L26.4702 138.086Z" fill="#E0874E" stroke="#CC6524"/>
<path d="M27.1689 138.63L324.191 137" stroke="#D47234"/>
<path d="M56.3407 133.523L54.915 78.7797H293.271L292.267 131.815L56.3407 133.523Z" fill="url(#paint0_linear)"/>
<path d="M32.6362 15.5161L20.2236 45.7212H330.169L320.851 15.5161H176.743H32.6362Z" fill="#E0874E" stroke="#CC6524"/>
<path d="M52.2627 0.619507L33.8091 14.526H319.867L303.428 0.619549L52.2627 0.619507Z" fill="#EB9761" stroke="#CE6A2B"/>
<defs>
<linearGradient id="paint0_linear" x1="174.283" y1="79.3908" x2="174.283" y2="133.195" gradientUnits="userSpaceOnUse">
<stop stop-color="#CF7840"/>
<stop offset="1" stop-color="#E0874E"/>
</linearGradient>
</defs>
</svg>
