<svg width="336" height="186" viewBox="0 0 336 186" fill="none" xmlns="http://www.w3.org/2000/svg">
<path d="M0.270508 179.553H325.13L30.2999 141.637L7.71534 157.556L0.270508 179.553Z" fill="black" fill-opacity="0.15"/>
<path d="M21.6567 178.934V182.436L25.1581 182.434L323.392 182.313L326.89 182.312V178.813V144.132V142.904L326.123 141.945L321.719 136.44L320.668 135.127H320.362L323.711 88.6119H328.891H332.391V85.1119V53.6399V53.1029L332.23 52.5905L322.432 21.4154L322.119 20.4197L321.312 19.758L303.201 4.91264L302.233 4.11951H300.982H50.3939H49.1888L48.2392 4.86142L29.2372 19.7067L28.4954 20.2862L28.1444 21.1597L15.3774 52.9286L15.125 53.5568V54.2337V86.0026V89.5026H18.625H21.9103L25.6905 139.723L22.879 142.132L21.6567 143.18V144.79V178.934Z" stroke="#FFFF93" stroke-width="7"/>
<path d="M19.1465 85.9993V53.9341H330.146V85.9993H321.76L318.265 139.804H321.061L325.254 144.151V179.478H26.1353L25.4364 145.782L30.3285 141.434L26.1353 85.9993H19.1465Z" stroke="#E28E58" stroke-width="0.1"/>
<path d="M19.6724 85.9994V54.4777H330.147V85.9994H19.6724Z" fill="#E0874E" stroke="#CC6524"/>
<path d="M54.0903 86.5428H26.1353L30.3285 141.434H55.4881L54.0903 86.5428Z" fill="#CF7840" stroke="#CC6524"/>
<path d="M321.238 85.9994L293.421 86.7499L292.407 139.26H317.722L321.238 85.9994Z" fill="#CF7840" stroke="#CC6524"/>
<path d="M26.1353 145.782L30.3285 141.978L320.362 139.804L324.555 144.151V178.934H26.8341L26.1353 145.782Z" fill="#E0874E" stroke="#CC6524"/>
<path d="M26.834 146.325L323.856 144.695" stroke="#D47234"/>
<path d="M56.0057 141.218L54.5801 86.4751H292.936L291.932 139.511L56.0057 141.218Z" fill="url(#paint0_linear)"/>
<path d="M32.3012 23.2117L19.8887 53.4167H329.834L320.516 23.2117H176.408H32.3012Z" fill="#E0874E" stroke="#CC6524"/>
<path d="M51.9278 8.31494L33.4741 22.2215H319.532L303.093 8.31498L51.9278 8.31494Z" fill="#EB9761" stroke="#CE6A2B"/>
<defs>
<linearGradient id="paint0_linear" x1="173.948" y1="87.0862" x2="173.948" y2="140.891" gradientUnits="userSpaceOnUse">
<stop stop-color="#CF7840"/>
<stop offset="1" stop-color="#E0874E"/>
</linearGradient>
</defs>
</svg>
