<svg width="349" height="230" viewBox="0 0 349 230" fill="none" xmlns="http://www.w3.org/2000/svg">
<path d="M61.5089 216.044L175.718 222.162L169.192 137.73L55.7974 140.992L0.324219 172.4L61.5089 216.044Z" fill="black" fill-opacity="0.2"/>
<path d="M127.987 177.687V179.123L128.997 180.146L172.188 223.88L173.578 225.287L175.5 224.822L251.559 206.442L254.237 205.794V203.04V200.488L265.358 207.454L266.536 208.192L267.899 207.921L342.146 193.162L344.964 192.602V189.729V108.509V106.031L342.626 105.208L298.454 89.6533L299.238 27.0617L299.266 24.8455L297.274 23.8729L258.339 4.85819L257.519 4.45753L256.607 4.50867L172.671 9.21705L169.367 9.40238V12.7116V84.9674V86.6306L170.657 87.681L180.253 95.4984L131.12 100.682L127.987 101.013V104.163V177.687Z" stroke="#FFFF93" stroke-width="7"/>
<path d="M341.671 108.511L267.045 120.679V204.634L341.671 190.033V108.511Z" fill="#51AD91"/>
<path d="M274.75 192.467V127.777L331.126 119.463V182.531L274.75 192.467Z" fill="url(#paint0_radial)"/>
<path d="M293.99 91.8132L341.679 108.54L267.385 121.43L220.2 99.9941H221.012L293.99 91.8132Z" fill="#68C1A7"/>
<path d="M220.366 176.504V99.9527L267.335 121.431L267.086 204.594L220.366 176.504Z" fill="#2E9F8E"/>
<path d="M319.61 143.452C319.715 147.71 315.814 149.603 314.351 147.549C309.462 140.686 299.627 144.043 297.064 147.549C288.469 159.307 295.139 168 300.353 170.192C310.08 174.45 313.738 167.165 314.351 162.99C315.194 157.256 321.055 159.547 321.055 162.489C321.581 175.415 311.153 179.397 305.874 179.773C291.889 180.768 286.246 169.524 284.449 162.99C280.979 145.306 292.423 137.378 298.579 135.624C314.943 131.992 319.675 139.653 319.61 143.452Z" fill="#4EAE93"/>
<path d="M131.319 177.445L174.592 221.622V136.372L131.136 103.611L131.319 177.445Z" fill="#44A82A"/>
<path d="M251.123 124.848L174.573 136.403V221.619L251.123 203.421V124.848Z" fill="#8FB429"/>
<path d="M241.881 197.066L184.106 210.064V143.047L241.881 134.669V197.066Z" fill="url(#paint1_radial)"/>
<path d="M208.371 95.9606L251.15 124.874L174.543 136.422L131.097 103.665L208.371 95.9606Z" fill="url(#paint2_linear)"/>
<path d="M198.839 192.443V157.779C198.426 155.288 200.303 154.465 201.293 154.365L223.123 153.548C230.467 158.69 227.747 166.231 225.469 169.359C235.914 174.827 232.405 185.578 229.345 190.271L203.946 196.187C199.784 197.085 198.807 194.065 198.839 192.443Z" fill="#4AA526"/>
<path d="M208.431 168.339V162.321L215.775 160.893C218.794 161.628 217.645 164.871 216.693 166.401L208.431 168.339Z" fill="#FFC637"/>
<path d="M207.716 176.704V187.925L221.59 184.457C225.099 182.58 221.148 177.69 218.733 175.48L207.716 176.704Z" fill="#FFC637"/>
<path d="M294.753 108.838L212.456 117.655V31.0837L296.357 26.808L294.753 108.838Z" fill="url(#paint3_linear)"/>
<path d="M284.061 98.1511L223.942 105.098V40.7028L284.061 36.4279V98.1511Z" fill="url(#paint4_radial)"/>
<path d="M256.81 7.8374L296.363 26.7906L212.57 31.3956L172.643 12.3999L256.81 7.8374Z" fill="url(#paint5_linear)"/>
<path d="M172.642 85.3246V12.3802L212.606 31.3981V117.635L172.642 85.3246Z" fill="#DE482D"/>
<path d="M247.458 48.9861L235.433 89.8676C239.066 100.128 244.25 94.1429 246.388 89.8676L249.327 80.5153H262.954L268.298 88.5312C274.711 94.7302 276.67 89.6891 276.848 86.3937L257.61 48.9861C253.549 42.3596 249.149 46.2251 247.458 48.9861Z" fill="#F04D2C"/>
<path d="M249.326 70.6287L253.068 60.4756L258.145 70.6287H249.326Z" fill="#FFC637"/>
<defs>
<radialGradient id="paint0_radial" cx="0" cy="0" r="1" gradientUnits="userSpaceOnUse" gradientTransform="translate(302.938 155.965) rotate(90) scale(36.5023 28.1881)">
<stop offset="0.661458" stop-color="#FFC637"/>
<stop offset="1" stop-color="#E6B231"/>
</radialGradient>
<radialGradient id="paint1_radial" cx="0" cy="0" r="1" gradientUnits="userSpaceOnUse" gradientTransform="translate(212.994 172.367) rotate(90) scale(37.6974 28.8871)">
<stop offset="0.640625" stop-color="#FFC637"/>
<stop offset="1" stop-color="#E6B231"/>
</radialGradient>
<linearGradient id="paint2_linear" x1="177.77" y1="95.9606" x2="191.123" y2="136.422" gradientUnits="userSpaceOnUse">
<stop stop-color="#90942A"/>
<stop offset="1" stop-color="#C1C638"/>
</linearGradient>
<linearGradient id="paint3_linear" x1="254.406" y1="26.808" x2="254.406" y2="117.655" gradientUnits="userSpaceOnUse">
<stop stop-color="#EA5237"/>
<stop offset="1" stop-color="#DC452A"/>
</linearGradient>
<radialGradient id="paint4_radial" cx="0" cy="0" r="1" gradientUnits="userSpaceOnUse" gradientTransform="translate(254.001 70.7629) rotate(90) scale(34.335 30.0591)">
<stop offset="0.65625" stop-color="#FFC637"/>
<stop offset="1" stop-color="#E6B231"/>
</radialGradient>
<linearGradient id="paint5_linear" x1="233.964" y1="7.8374" x2="233.964" y2="31.3509" gradientUnits="userSpaceOnUse">
<stop stop-color="#DC452A"/>
<stop offset="1" stop-color="#EE644B"/>
</linearGradient>
</defs>
</svg>
