<svg width="129" height="128" viewBox="0 0 129 128" fill="none" xmlns="http://www.w3.org/2000/svg">
<g clip-path="url(#clip0)">
<path d="M0.71709 111.724C-2.08291 100.124 28.2171 95.8907 43.7171 95.224C54.3838 96.0573 76.5171 97.924 79.7171 98.724C83.7171 99.724 91.2171 103.224 94.2171 106.224C97.2171 109.224 96.2171 110.724 96.2171 111.724C90.2171 124.124 63.0504 126.891 50.2171 126.724C34.8837 126.558 3.51709 123.324 0.71709 111.724Z" fill="black" fill-opacity="0.2"/>
<path d="M12.5472 61.3912C13.4186 62.8587 15.3854 65.867 16.2816 66.1605C17.402 66.5274 18.5223 65.4268 19.2692 64.6931V64.693C20.0161 63.9593 18.8957 66.1605 19.6426 67.2611C20.265 68.3618 22.4061 70.4896 25.9911 70.1961C26.8625 69.3401 28.6052 67.4813 28.6052 66.8943C29.1031 67.9949 30.2484 70.1961 30.8459 70.1961C31.5927 70.1961 31.9662 70.9299 37.1944 70.1961C37.4433 68.9732 37.9413 66.454 37.9413 66.1605C37.9413 65.7937 40.5554 69.0955 41.3022 69.0955C42.0491 69.0955 46.5304 67.2611 46.5304 66.5274V62.4918C47.5263 62.8587 49.5926 63.5924 49.8914 63.5924C50.2648 63.5924 59.2274 62.1249 73.0448 35.3432C72.0489 29.2286 70.8788 16.1924 74.1651 12.9639C78.273 8.92833 90.5965 3.42524 115.991 1.224C123.211 2.32462 134.812 9.5887 123.46 29.8401C121.923 31.3501 114.847 34.0779 98.4388 34.2979C98.3143 35.3801 98.1401 37.6178 98.4388 37.9113C98.8115 38.2774 101.044 40.8357 102.167 51.7846C102.42 51.2178 108.627 48.5678 110.763 48.9175C112.555 49.211 114.497 51.9748 115.244 53.32C115.244 55.9615 113.999 57.111 113.377 57.3556C113.676 56.7686 113.003 55.6435 112.63 55.1543C112.331 54.5673 111.51 54.9098 111.136 55.1543C111.136 55.7413 110.389 56.8664 110.016 57.3556C110.315 56.1816 108.149 54.9098 107.028 54.4206C105.833 55.0076 103.259 57.3556 102.122 58.4562C101.813 64.3117 100.76 71.4639 98.0654 75.3324C96.2295 77.8574 93.2353 81.3814 89.7368 84.5042C88.6541 87.0723 85.1443 92.8689 79.7667 95.5104C79.0198 95.8773 78.497 98.2986 82.3808 105.049C84.3725 105.294 89.0281 105.709 91.7169 105.415C92.8372 106.271 95.3766 108.205 96.5716 109.085C95.3761 108.963 92.3353 108.792 89.7368 109.085C89.8989 110.063 90.6712 112.313 92.4637 113.488C92.0903 113.732 91.1194 114.22 90.2231 114.22C84.3725 112.753 73.1195 109.672 74.912 109.085C76.7045 108.498 76.6547 107.862 76.4057 107.618C75.9861 105.538 73.9284 100.646 69.0544 97.7116C65.7508 100.07 62.7037 99.9128 62.215 99.9128C61.6175 99.9128 61.966 102.604 62.215 103.949C61.9162 104.828 64.0822 108.474 65.2025 110.186C67.8166 110.308 73.4182 110.626 74.912 110.92C76.4057 111.213 77.2771 113.731 77.5261 114.954C75.7833 114.465 72.4473 113.78 73.0448 114.954C73.6423 116.129 74.0406 118.624 74.1651 119.724C58.854 117.156 56.6133 114.954 56.2399 114.954C55.9411 114.954 56.1154 113.977 56.2399 113.488C57.7337 113.781 58.3561 112.632 58.4805 112.02C55.8665 108.351 44.5729 98.4834 44.2898 97.7116C43.213 94.7766 44.0408 92.9423 44.2898 90.741C23.6758 86.632 14.5389 72.3974 12.5472 65.7937C11.9497 63.7392 12.2983 62.0026 12.5472 61.3912Z" fill="#93E336"/>
<path d="M17.0718 66.5275C17.0754 66.5382 17.0792 66.5489 17.0831 66.5595C17.2218 66.6809 18.6036 65.3895 19.3124 64.6931V67.2612L18.939 67.6281C18.4472 67.6281 17.3966 67.4133 17.0831 66.5595C17.0757 66.553 17.0718 66.5424 17.0718 66.5275Z" fill="#5B9C1A"/>
<path d="M29.7688 77.5336C29.3953 76.7999 29.3953 77.5336 30.1422 75.6992L32.3828 74.5986C33.1297 74.2317 32.3828 75.3324 33.1297 75.6992C33.8766 76.0661 33.1297 77.1667 33.1297 77.5336C33.1297 77.9005 30.1422 78.2673 29.7688 77.5336Z" fill="#64C329"/>
<path d="M71.5943 58.0894H69.3536L67.8599 59.19V61.0243V61.7581C68.3578 62.0027 69.4283 62.4918 69.7271 62.4918H71.5943C71.8931 62.4918 72.2167 61.7581 72.3412 61.3912L73.0881 60.2906L72.3412 58.8231L71.5943 58.0894Z" fill="#91D93D"/>
<path d="M73.835 81.2023C72.9388 81.7893 73.7106 88.2952 74.2085 91.4748C83.7686 92.6487 94.6233 80.4686 98.8557 74.2317C106.325 53.32 98.8557 38.2782 98.4822 37.9113C98.1835 37.6178 98.3577 35.3432 98.4822 34.2426C97.2872 34.5361 93.254 34.3648 91.3868 34.2426C90.1918 40.406 91.3868 47.5723 92.1337 50.385C94.5237 49.798 96.864 50.1404 97.7353 50.385C100.125 51.559 100.474 55.7658 100.349 57.7224L99.6025 58.4562L98.8557 57.3556C97.9594 54.4206 97.4864 56.3772 97.3619 57.7224C96.9269 58.8964 96.4338 59.4345 96.2416 59.5568L94.0009 56.2549C93.1047 56.2549 90.8889 58.7008 89.8931 59.9237C88.3993 68.7286 78.5653 77.7782 73.835 81.2023Z" fill="#D0FF58"/>
<path d="M37.2507 70.1267L37.2378 70.1961C37.2378 70.1727 37.2422 70.1496 37.2507 70.1267L37.9847 66.1605C38.8561 67.1389 40.7482 69.0955 41.3457 69.0955C40.0311 69.2129 37.4544 69.5783 37.2507 70.1267Z" fill="#5B9C1A" fill-opacity="0.8"/>
<path d="M86.7305 32.2726C76.4887 34.171 75.951 21.402 73.8348 15.532C71.7436 13.4775 72.2374 33.8863 73.8348 35.2152C41.3454 96.8499 13.3373 63.2255 12.5904 62.8587C11.9929 62.5652 12.5904 65.1822 12.9639 66.5274C25.6609 90.0073 46.9471 90.0073 45.4533 90.0073C44.2583 90.0073 44.4574 94.8989 44.7064 97.3447C46.7977 100.574 52.2997 104.071 54.7893 105.416C46.2002 93.3091 49.9346 93.3091 49.5611 89.6404C49.2624 86.7054 52.9221 81.5692 54.7893 79.3679C54.9138 78.7565 55.0134 77.4602 54.4159 77.1667C53.8184 76.8732 49.6856 80.7132 47.6939 82.6698C46.7977 81.7893 47.3205 78.3896 47.6939 76.7998C48.6898 74.7209 52.1005 70.1227 57.7768 68.3618C64.8722 66.1605 73.8348 40.9104 76.5984 38.8222C79.3619 36.7339 83.9416 40.9234 85.6677 38.8222C87.3937 36.721 91.0915 32.6117 86.7305 32.2726Z" fill="#7CDA3C"/>
<path d="M125.743 25.0708L123.129 28.0058L117.9 24.337L113.793 29.1064L110.058 25.0708L107.071 29.1064L102.963 25.8045" stroke="#4B940E"/>
<path d="M113.793 12.9639C113.793 12.4748 113.718 11.4964 113.419 11.4964L114.54 10.3958C114.913 10.0289 115.66 10.7627 116.033 10.7627C116.332 10.7627 116.656 11.4964 116.78 11.8633C116.905 12.3525 117.079 13.4042 116.78 13.6977C116.482 13.9912 115.909 13.82 115.66 13.6977L114.913 13.3308L113.793 12.9639Z" fill="#4B940E"/>
<path d="M46.5737 62.4917V66.5273C46.5737 66.2338 48.5654 64.4484 49.5613 63.5923L46.5737 62.4917Z" fill="#67C531"/>
<path d="M90.2661 22.8695H88.0254L86.5317 23.9701V25.8045V26.5382C87.0296 26.7828 88.1001 27.272 88.3989 27.272H90.2661C90.5648 27.272 90.8885 26.5382 91.013 26.1714L91.7598 25.0707L91.013 23.6033L90.2661 22.8695Z" fill="#4B940E"/>
<path d="M30.5155 70.563C28.6483 70.9298 26.7811 70.9298 26.0342 70.563L28.6483 67.2611L30.5155 70.563Z" fill="#66AA20"/>
<path d="M76.4489 107.618C74.9552 101.748 71.0963 98.5676 69.3535 97.7116C70.2498 98.0051 72.7145 94.1651 73.8348 92.2085C78.3161 92.7955 84.9136 88.5397 87.6522 86.3385L86.9053 87.806C83.1709 92.9422 78.3161 95.5103 77.5693 96.2441C76.8224 96.9778 80.5568 105.416 81.3037 105.783C81.9012 106.077 88.0256 106.149 91.0132 106.149C92.5069 106.883 93.2538 108.718 92.8804 108.351C92.5069 107.985 88.0256 108.351 87.6522 109.085C87.3534 109.672 89.5194 112.265 90.6397 113.488H89.5194C88.7725 113.488 87.204 113.341 86.9053 112.754C86.6065 112.167 78.8141 110.308 74.9552 109.451C75.8514 108.865 76.3244 107.985 76.4489 107.618Z" fill="#64C329"/>
</g>
<defs>
<clipPath id="clip0">
<rect width="128" height="127" fill="white" transform="translate(0.371582 0.3125)"/>
</clipPath>
</defs>
</svg>
