<svg width="133" height="131" viewBox="0 0 133 131" fill="none" xmlns="http://www.w3.org/2000/svg">
<path d="M0.695117 115.301C-2.10488 103.701 28.1951 99.468 43.6951 98.8013C54.3618 99.6346 76.4951 101.501 79.6951 102.301C83.6951 103.301 91.1951 106.801 94.1951 109.801C97.1951 112.801 96.1951 114.301 96.1951 115.301C90.1951 127.701 63.0284 130.468 50.1951 130.301C34.8617 130.135 3.49512 126.901 0.695117 115.301Z" fill="black" fill-opacity="0.2"/>
<path d="M43.5123 69.2565C42.9702 69.515 42.3748 69.7844 41.8156 70.0288L39.7487 67.9839L36.4126 64.6833L35.5346 69.2933C35.4658 69.6542 35.3923 70.0288 35.3151 70.4227C35.2386 70.8125 35.1585 71.2211 35.0756 71.6539C35.0636 71.7163 35.0518 71.7784 35.0401 71.8399C34.658 71.8538 34.2031 71.8367 33.7056 71.7928C33.0883 71.7384 32.4834 71.6503 31.9889 71.5692C31.9008 71.4091 31.8054 71.2326 31.7047 71.045C31.6697 70.9798 31.6338 70.9128 31.5975 70.8449C31.4227 70.5185 31.2367 70.1711 31.0854 69.9054C31.0012 69.7575 30.8811 69.5515 30.7542 69.3713L30.7507 69.3662C30.7073 69.3045 30.545 69.0736 30.2971 68.8555L30.2918 68.8509C30.2019 68.7716 29.7805 68.3999 29.1088 68.2674C28.6942 68.1856 28.1197 68.1847 27.5294 68.47C27.05 68.7018 26.7318 69.0394 26.5307 69.3415C26.5285 69.3445 26.5261 69.3477 26.5233 69.3514C26.487 69.3998 26.431 69.473 26.3527 69.5741C26.2697 69.6815 26.1874 69.7873 26.0956 69.9054C25.9946 70.0353 25.882 70.1799 25.7443 70.3578C25.4211 70.7752 25.0371 71.2754 24.6781 71.7618C24.3736 71.7641 23.894 71.627 23.1309 71.1174C22.6242 70.7791 22.1567 70.3803 21.7367 70.0079C21.6975 69.9732 21.6558 69.936 21.6126 69.8975C21.6205 69.8069 21.629 69.7122 21.6381 69.6121C21.645 69.5356 21.6522 69.456 21.6596 69.3726C21.6884 69.0475 21.7208 68.6588 21.7308 68.3006L21.9279 61.2055L17.3278 66.611C17.1642 66.8033 17.0187 66.9608 16.8913 67.0894C16.8041 66.9658 16.7095 66.8297 16.6079 66.6817C16.4528 66.4559 16.2805 66.2006 16.0992 65.932C15.609 65.2058 15.0533 64.3826 14.5968 63.7836L9.31196 56.8485L10.1191 65.5303C11.0471 75.511 17.565 83.1051 24.6177 88.2037C30.3976 92.3822 36.8562 95.1215 41.66 96.2231C41.118 99.3781 41.7485 101.727 42.934 103L42.9913 103.061L43.0526 103.119C45.2751 105.204 48.5171 108.498 51.2882 111.41C52.354 112.53 53.3419 113.585 54.1672 114.484L53.841 114.457V117.171V118.334V119.689L54.9763 120.428C55.8549 121.001 57.2241 121.534 58.6002 122.002C60.058 122.498 61.7995 123.01 63.6019 123.495C67.2024 124.465 71.1698 125.361 73.8239 125.834L77.7015 126.525L76.6762 122.722L76.1342 120.712L76.7403 120.805L79.2313 121.188L79.5941 118.694C79.6808 118.098 79.6755 117.542 79.6005 117.024C79.7964 117.082 79.9952 117.141 80.1963 117.2C81.2658 117.516 82.403 117.849 83.5433 118.183C85.8053 118.846 88.0791 119.513 89.8593 120.051L90.9609 120.384L91.9302 119.763L93.2725 118.904L98.4935 115.563L95.4271 114.95H96.2202H104.215L97.6444 110.395L92.9195 107.12L91.9259 106.431L90.7691 106.782C90.6039 106.832 90.1948 106.898 89.4857 106.913C88.8184 106.928 88.0324 106.895 87.1989 106.831C85.879 106.729 84.5304 106.555 83.5025 106.402C83.3673 106.234 83.2075 105.999 83.0335 105.68C82.7047 105.076 82.4038 104.314 82.151 103.468C81.8265 102.383 81.6189 101.292 81.5135 100.414C85.3531 97.9032 87.7796 95.2977 89.3234 93.1983C90.1759 92.0389 90.7431 91.0558 91.1153 90.3778C91.2086 90.2077 91.276 90.0827 91.3292 89.9841C91.336 89.9714 91.3427 89.9592 91.3491 89.9473C91.4736 89.8386 91.5923 89.7234 91.6936 89.622C91.9427 89.3722 92.2456 89.0436 92.5735 88.6755C93.2369 87.931 94.0959 86.9197 95.0163 85.8051C96.8534 83.5804 99.0061 80.8577 100.425 78.8901C101.19 77.8289 101.782 76.4449 102.25 75.064C102.731 73.6458 103.136 72.0608 103.466 70.4876C104.019 67.8546 104.388 65.1246 104.536 63.0644C105.041 62.6408 105.652 62.159 106.26 61.701C106.615 61.4337 106.955 61.1851 107.254 60.973C107.358 61.0688 107.464 61.1737 107.567 61.2842C107.769 61.5007 107.926 61.702 108.026 61.8525L110.557 65.6878L111.669 63.1508L112.467 65.7521L115.422 62.0298C116.106 61.1681 116.715 60.3255 117.105 59.4905C117.533 58.575 117.758 57.5367 117.489 56.3987C117.249 55.3872 116.676 54.5823 116.199 53.9845C115.873 53.5757 115.449 53.0964 115.01 52.6C114.816 52.3806 114.619 52.1579 114.426 51.9365C113.301 50.6449 111.797 50.1701 110.442 50.0824C109.121 49.9969 107.774 50.2598 106.591 50.614C105.699 50.8812 104.814 51.2274 103.984 51.6009C103.967 51.5093 103.949 51.4181 103.931 51.3272C103.618 49.7455 103.172 48.0406 102.708 46.4827C102.244 44.9241 101.751 43.4702 101.334 42.3851C101.128 41.8507 100.924 41.3604 100.738 40.9789C100.651 40.7998 100.53 40.5667 100.382 40.3475C100.355 40.3081 100.318 40.2547 100.271 40.1928C100.269 40.1774 100.267 40.1616 100.266 40.1453C111.637 39.9767 118.257 38.6468 122.194 36.6605C124.376 35.5593 125.804 34.2227 126.716 32.7271C127.48 31.4735 127.794 30.2402 127.978 29.3083C130.476 24.8467 131.141 18.7282 129.566 13.521C127.892 7.98872 123.575 3.25258 116.169 2.8348C109.179 2.44052 101.315 4.03404 94.2177 6.04704C88.4636 7.67905 83.0416 9.64027 78.8556 11.1544C77.8633 11.5134 76.9404 11.8472 76.099 12.1455L76.0067 12.1783L75.9171 12.2182C73.4702 13.3084 71.9292 15.3579 70.9927 17.6102C70.0651 19.841 69.6545 22.4346 69.5289 24.9938C69.2958 29.7439 70.0244 34.8783 70.8301 38.5426C63.5178 54.6643 54.2921 62.4161 50.2147 64.6365L47.4823 63.7919L44.2823 62.8028L44.2442 66.152C44.2375 66.7479 44.209 67.5449 44.1818 68.3054C44.179 68.3848 44.1761 68.4638 44.1734 68.5421C44.1686 68.677 44.1639 68.8102 44.1595 68.9394C43.9661 69.0372 43.7489 69.1436 43.5123 69.2565ZM100.329 40.5402C100.329 40.5399 100.329 40.5397 100.329 40.5394C100.332 40.5508 100.334 40.5568 100.334 40.5568C100.333 40.5567 100.332 40.5514 100.329 40.5402ZM65.1507 108.776C64.9231 108.287 64.702 107.811 64.5188 107.424L64.3307 105.746C65.4784 105.563 66.5121 105.236 67.3943 104.86C67.9752 104.613 68.5164 104.334 69.0017 104.042C70.1958 105.11 71.2571 106.399 72.1321 107.692C72.8908 108.813 73.4559 109.856 73.8236 110.65C73.5666 110.818 73.2315 111.093 72.9739 111.511C72.9105 111.614 72.8532 111.723 72.8034 111.837C71.5004 111.788 70.0825 111.702 68.8079 111.614C67.8856 111.55 67.0534 111.486 66.4135 111.436C66.2861 111.181 66.1434 110.888 65.9894 110.565C65.7431 110.049 65.4416 109.401 65.1507 108.776ZM64.9556 111.334C65.015 111.334 65.0727 111.336 65.1288 111.34C65.0564 111.336 64.9973 111.334 64.9556 111.334ZM91.5026 89.6718C91.5023 89.6723 91.5006 89.6752 91.4974 89.6801C91.5012 89.6739 91.5028 89.6713 91.5026 89.6718Z" stroke="#FFFF93" stroke-width="5"/>
<path d="M12.5252 64.9685C13.3966 66.436 15.3634 69.4443 16.2596 69.7378C17.38 70.1047 18.5003 69.0041 19.2472 68.2704V68.2703C19.9941 67.5366 18.8737 69.7378 19.6206 70.8384C20.243 71.9391 22.3841 74.0669 25.9691 73.7734C26.8405 72.9174 28.5832 71.0586 28.5832 70.4716C29.0811 71.5722 30.2264 73.7734 30.8239 73.7734C31.5707 73.7734 31.9442 74.5072 37.1724 73.7734C37.4213 72.5505 37.9193 70.0313 37.9193 69.7378C37.9193 69.371 40.5334 72.6728 41.2802 72.6728C42.0271 72.6728 46.5084 70.8384 46.5084 70.1047V66.0691C47.5043 66.436 49.5706 67.1697 49.8694 67.1697C50.2428 67.1697 59.2054 65.7022 73.0228 38.9205C72.0269 32.8059 70.8568 19.7697 74.1431 16.5412C78.251 12.5056 90.5745 7.00251 115.969 4.80127C123.189 5.90189 134.79 13.166 123.438 33.4174C121.901 34.9274 114.825 37.6552 98.4168 37.8752C98.2923 38.9574 98.1181 41.1951 98.4168 41.4886C98.7895 41.8547 101.022 44.413 102.145 55.3619C102.398 54.7951 108.605 52.1451 110.741 52.4948C112.533 52.7883 114.475 55.5521 115.222 56.8973C115.222 59.5388 113.977 60.6883 113.355 60.9329C113.654 60.3459 112.981 59.2208 112.608 58.7316C112.309 58.1446 111.488 58.4871 111.114 58.7316C111.114 59.3186 110.367 60.4437 109.994 60.9329C110.293 59.7589 108.127 58.4871 107.006 57.9979C105.811 58.5849 103.237 60.9329 102.1 62.0335C101.791 67.889 100.738 75.0412 98.0434 78.9097C96.2075 81.4347 93.2133 84.9587 89.7148 88.0815C88.6321 90.6496 85.1223 96.4462 79.7447 99.0877C78.9978 99.4546 78.475 101.876 82.3588 108.627C84.3505 108.871 89.0061 109.287 91.6949 108.993C92.8152 109.849 95.3546 111.782 96.5496 112.662C95.3541 112.54 92.3133 112.369 89.7148 112.662C89.8769 113.641 90.6492 115.891 92.4417 117.065C92.0683 117.309 91.0974 117.798 90.2011 117.798C84.3505 116.331 73.0975 113.249 74.89 112.662C76.6825 112.075 76.6327 111.439 76.3837 111.195C75.9641 109.116 73.9064 104.224 69.0324 101.289C65.7288 103.647 62.6817 103.49 62.193 103.49C61.5955 103.49 61.944 106.181 62.193 107.526C61.8942 108.406 64.0602 112.051 65.1805 113.763C67.7946 113.885 73.3962 114.203 74.89 114.497C76.3837 114.79 77.2551 117.309 77.5041 118.532C75.7613 118.043 72.4253 117.358 73.0228 118.532C73.6203 119.706 74.0186 122.201 74.1431 123.301C58.832 120.733 56.5913 118.532 56.2179 118.532C55.9191 118.532 56.0934 117.554 56.2179 117.065C57.7117 117.358 58.3341 116.209 58.4585 115.597C55.8445 111.928 44.5509 102.061 44.2678 101.289C43.191 98.3539 44.0188 96.5196 44.2678 94.3183C23.6538 90.2093 14.5169 75.9747 12.5252 69.371C11.9277 67.3165 12.2763 65.5799 12.5252 64.9685Z" fill="#93E336"/>
<path d="M17.0498 70.1048C17.0534 70.1155 17.0572 70.1262 17.0611 70.1368C17.1998 70.2582 18.5816 68.9668 19.2904 68.2704V70.8385L18.917 71.2054C18.4252 71.2054 17.3746 70.9906 17.0611 70.1368C17.0537 70.1303 17.0498 70.1197 17.0498 70.1048Z" fill="#5B9C1A"/>
<path d="M29.7473 81.1109C29.3738 80.3772 29.3738 81.1109 30.1207 79.2765L32.3613 78.1759C33.1082 77.809 32.3613 78.9097 33.1082 79.2765C33.8551 79.6434 33.1082 80.744 33.1082 81.1109C33.1082 81.4778 30.1207 81.8446 29.7473 81.1109Z" fill="#64C329"/>
<path d="M71.5723 61.6666H69.3316L67.8379 62.7672V64.6015V65.3353C68.3358 65.5799 69.4063 66.069 69.7051 66.069H71.5723C71.8711 66.069 72.1947 65.3353 72.3192 64.9684L73.0661 63.8678L72.3192 62.4003L71.5723 61.6666Z" fill="#91D93D"/>
<path d="M73.8135 84.7795C72.9173 85.3665 73.6891 91.8724 74.187 95.052C83.7471 96.2259 94.6018 84.0458 98.8342 77.8089C106.303 56.8972 98.8342 41.8554 98.4607 41.4885C98.162 41.195 98.3362 38.9204 98.4607 37.8198C97.2657 38.1133 93.2325 37.942 91.3653 37.8198C90.1703 43.9832 91.3653 51.1495 92.1122 53.9622C94.5022 53.3752 96.8425 53.7176 97.7138 53.9622C100.104 55.1362 100.452 59.343 100.328 61.2996L99.581 62.0334L98.8342 60.9328C97.9379 57.9978 97.4649 59.9544 97.3404 61.2996C96.9054 62.4736 96.4123 63.0117 96.2201 63.134L93.9794 59.8321C93.0832 59.8321 90.8674 62.278 89.8716 63.5009C88.3778 72.3058 78.5438 81.3554 73.8135 84.7795Z" fill="#D0FF58"/>
<path d="M37.2287 73.704L37.2158 73.7734C37.2158 73.75 37.2202 73.7269 37.2287 73.704L37.9627 69.7378C38.8341 70.7162 40.7262 72.6728 41.3237 72.6728C40.0091 72.7902 37.4324 73.1556 37.2287 73.704Z" fill="#5B9C1A" fill-opacity="0.8"/>
<path d="M86.708 35.8499C76.4662 37.7483 75.9285 24.9793 73.8123 19.1093C71.7211 17.0548 72.2149 37.4636 73.8123 38.7925C41.3229 100.427 13.3148 66.8028 12.5679 66.436C11.9704 66.1425 12.5679 68.7595 12.9414 70.1047C25.6384 93.5846 46.9246 93.5846 45.4308 93.5846C44.2358 93.5846 44.4349 98.4762 44.6839 100.922C46.7752 104.151 52.2772 107.648 54.7668 108.993C46.1777 96.8864 49.9121 96.8864 49.5386 93.2177C49.2399 90.2827 52.8996 85.1465 54.7668 82.9452C54.8913 82.3338 54.9909 81.0375 54.3934 80.744C53.7959 80.4505 49.6631 84.2905 47.6714 86.2471C46.7752 85.3666 47.298 81.9669 47.6714 80.3771C48.6673 78.2982 52.078 73.7 57.7543 71.9391C64.8497 69.7378 73.8123 44.4877 76.5759 42.3995C79.3394 40.3112 83.9191 44.5007 85.6452 42.3995C87.3712 40.2983 91.069 36.189 86.708 35.8499Z" fill="#7CDA3C"/>
<path d="M125.721 28.6481L123.107 31.5831L117.878 27.9143L113.771 32.6837L110.036 28.6481L107.049 32.6837L102.941 29.3818" stroke="#4B940E"/>
<path d="M113.771 16.5412C113.771 16.0521 113.696 15.0737 113.397 15.0737L114.518 13.9731C114.891 13.6062 115.638 14.34 116.011 14.34C116.31 14.34 116.634 15.0737 116.758 15.4406C116.883 15.9298 117.057 16.9815 116.758 17.275C116.46 17.5685 115.887 17.3973 115.638 17.275L114.891 16.9081L113.771 16.5412Z" fill="#4B940E"/>
<path d="M46.5518 66.069V70.1046C46.5518 69.8111 48.5435 68.0257 49.5394 67.1696L46.5518 66.069Z" fill="#67C531"/>
<path d="M90.2442 26.4468H88.0035L86.5098 27.5474V29.3818V30.1155C87.0077 30.3601 88.0782 30.8493 88.377 30.8493H90.2442C90.5429 30.8493 90.8666 30.1155 90.9911 29.7487L91.7379 28.648L90.9911 27.1806L90.2442 26.4468Z" fill="#4B940E"/>
<path d="M30.494 74.1403C28.6268 74.5071 26.7596 74.5071 26.0127 74.1403L28.6268 70.8384L30.494 74.1403Z" fill="#66AA20"/>
<path d="M76.4265 111.195C74.9328 105.325 71.0739 102.145 69.3311 101.289C70.2274 101.582 72.6921 97.7424 73.8124 95.7858C78.2937 96.3728 84.8912 92.117 87.6298 89.9158L86.8829 91.3833C83.1485 96.5195 78.2937 99.0876 77.5469 99.8214C76.8 100.555 80.5344 108.993 81.2812 109.36C81.8787 109.654 88.0032 109.727 90.9908 109.727C92.4845 110.461 93.2313 112.295 92.8579 111.928C92.4844 111.562 88.0032 111.928 87.6298 112.662C87.331 113.249 89.4969 115.842 90.6172 117.065H89.4969C88.75 117.065 87.1816 116.918 86.8829 116.331C86.5841 115.744 78.7917 113.885 74.9328 113.029C75.829 112.442 76.302 111.562 76.4265 111.195Z" fill="#64C329"/>
</svg>
