<svg width="308" height="154" viewBox="0 0 308 154" fill="none" xmlns="http://www.w3.org/2000/svg">
<path d="M21.7278 126.984L8.40039 18.5056L285.415 141.587C194.05 150.992 109.045 147.775 76.0843 148.022C49.7157 148.22 39.6539 144.97 37.9191 143.32L21.7278 126.984Z" fill="black" fill-opacity="0.15"/>
<path d="M8.42411 14.2317L4.48794 14.5409L5.26706 18.4116L21.1085 97.1112L21.2352 97.7406L21.5771 98.2841C25.0827 103.857 30.3382 112.422 34.7092 119.996C36.8979 123.789 38.8411 127.292 40.2285 130.033C40.9248 131.408 41.4543 132.538 41.8014 133.39C41.9754 133.817 42.0834 134.125 42.143 134.327C42.1525 134.36 42.16 134.387 42.1657 134.409C42.2277 135.86 42.9163 136.986 43.5829 137.739C44.2734 138.518 45.1262 139.118 45.9216 139.581C47.5193 140.511 49.5527 141.27 51.5692 141.885C55.1915 142.992 59.3875 143.823 62.5122 144.312C62.9481 144.653 63.3976 144.922 63.8062 145.137C64.6891 145.601 65.7086 145.978 66.7827 146.297C68.9332 146.936 71.6924 147.455 74.8876 147.886C81.3019 148.751 89.9409 149.326 100.013 149.68C120.184 150.388 146.458 150.223 172.964 149.632C225.903 148.452 280.202 145.565 288.984 144.491C292.019 144.12 294.279 142.219 295.893 139.958C297.497 137.713 298.712 134.79 299.667 131.563C301.583 125.087 302.7 116.503 303.305 107.301C304.519 88.8351 303.717 67.0397 302.61 52.6058L302.586 52.3033L302.512 52.0093L291.951 10.5607L291.417 8.46703L289.307 8.00564C278.359 5.61252 259.99 4.4841 237.701 4.17716C215.316 3.86889 188.685 4.38902 161.044 5.38255C105.758 7.36976 46.3024 11.2558 8.42411 14.2317ZM42.1826 134.48C42.1825 134.48 42.1818 134.476 42.1807 134.47C42.1822 134.477 42.1828 134.48 42.1826 134.48Z" fill="#FCFEE6" stroke="#FFFF93" stroke-width="7"/>
<g filter="url(#filter0_d)">
<path d="M29.4847 75.2187C29.4847 73.1067 29.8047 71.2827 30.4447 69.7467C31.0847 68.1787 31.9647 66.8827 33.0847 65.8587C34.2367 64.8347 35.5647 64.0827 37.0687 63.6027C38.6047 63.0907 40.2527 62.8347 42.0127 62.8347C42.6527 62.8347 43.2767 62.8987 43.8847 63.0267C44.4927 63.1227 44.9887 63.2507 45.3727 63.4107V55.6347C45.6927 55.5387 46.2047 55.4427 46.9087 55.3467C47.6127 55.2187 48.3327 55.1547 49.0687 55.1547C49.7727 55.1547 50.3967 55.2027 50.9407 55.2987C51.5167 55.3947 51.9967 55.5867 52.3807 55.8747C52.7647 56.1627 53.0527 56.5627 53.2447 57.0747C53.4367 57.5547 53.5327 58.1947 53.5327 58.9947V81.7467C53.5327 83.2507 52.8287 84.4507 51.4207 85.3467C50.4927 85.9547 49.2927 86.4827 47.8207 86.9307C46.3487 87.4107 44.6527 87.6507 42.7327 87.6507C40.6527 87.6507 38.7807 87.3627 37.1167 86.7867C35.4847 86.2107 34.0927 85.3787 32.9407 84.2907C31.8207 83.2027 30.9567 81.9067 30.3487 80.4027C29.7727 78.8667 29.4847 77.1387 29.4847 75.2187ZM43.1167 69.2187C41.3887 69.2187 40.0607 69.7147 39.1327 70.7067C38.2047 71.6987 37.7407 73.2027 37.7407 75.2187C37.7407 77.2027 38.1727 78.7067 39.0367 79.7307C39.9007 80.7227 41.1487 81.2187 42.7807 81.2187C43.3567 81.2187 43.8687 81.1387 44.3167 80.9787C44.7967 80.7867 45.1647 80.5787 45.4207 80.3547V69.7947C44.7807 69.4107 44.0127 69.2187 43.1167 69.2187ZM60.8257 57.0747C60.8257 55.8587 61.2257 54.8347 62.0257 54.0027C62.8577 53.1707 63.9457 52.7547 65.2897 52.7547C66.6337 52.7547 67.7057 53.1707 68.5057 54.0027C69.3377 54.8347 69.7537 55.8587 69.7537 57.0747C69.7537 58.2907 69.3377 59.3147 68.5057 60.1467C67.7057 60.9787 66.6337 61.3947 65.2897 61.3947C63.9457 61.3947 62.8577 60.9787 62.0257 60.1467C61.2257 59.3147 60.8257 58.2907 60.8257 57.0747ZM69.3697 86.8347C69.0177 86.8987 68.4897 86.9787 67.7857 87.0747C67.1137 87.2027 66.4257 87.2667 65.7217 87.2667C65.0177 87.2667 64.3777 87.2187 63.8017 87.1227C63.2577 87.0267 62.7937 86.8347 62.4097 86.5467C62.0257 86.2587 61.7217 85.8747 61.4977 85.3947C61.3057 84.8827 61.2097 84.2267 61.2097 83.4267V63.8907C61.5617 63.8267 62.0737 63.7467 62.7457 63.6507C63.4497 63.5227 64.1537 63.4587 64.8577 63.4587C65.5617 63.4587 66.1857 63.5067 66.7297 63.6027C67.3057 63.6987 67.7857 63.8907 68.1697 64.1787C68.5537 64.4667 68.8417 64.8667 69.0337 65.3787C69.2577 65.8587 69.3697 66.4987 69.3697 67.2987V86.8347ZM91.7486 72.0987C91.7486 71.1067 91.4606 70.3867 90.8846 69.9387C90.3406 69.4587 89.5886 69.2187 88.6286 69.2187C87.9886 69.2187 87.3486 69.2987 86.7086 69.4587C86.1006 69.6187 85.5726 69.8587 85.1246 70.1787V86.8347C84.8046 86.9307 84.2926 87.0267 83.5886 87.1227C82.9166 87.2187 82.2126 87.2667 81.4766 87.2667C80.7726 87.2667 80.1326 87.2187 79.5566 87.1227C79.0126 87.0267 78.5486 86.8347 78.1646 86.5467C77.7806 86.2587 77.4766 85.8747 77.2526 85.3947C77.0606 84.8827 76.9646 84.2267 76.9646 83.4267V69.0267C76.9646 68.1627 77.1406 67.4587 77.4926 66.9147C77.8766 66.3707 78.3886 65.8747 79.0286 65.4267C80.1166 64.6587 81.4766 64.0347 83.1086 63.5547C84.7726 63.0747 86.6126 62.8347 88.6286 62.8347C92.2446 62.8347 95.0286 63.6347 96.9806 65.2347C98.9326 66.8027 99.9086 68.9947 99.9086 71.8107V86.8347C99.5886 86.9307 99.0766 87.0267 98.3726 87.1227C97.7006 87.2187 96.9966 87.2667 96.2606 87.2667C95.5566 87.2667 94.9166 87.2187 94.3406 87.1227C93.7966 87.0267 93.3326 86.8347 92.9486 86.5467C92.5646 86.2587 92.2606 85.8747 92.0366 85.3947C91.8446 84.8827 91.7486 84.2267 91.7486 83.4267V72.0987ZM131.493 75.2187C131.493 77.2027 131.189 78.9787 130.581 80.5467C129.973 82.0827 129.109 83.3787 127.989 84.4347C126.901 85.4907 125.589 86.2907 124.053 86.8347C122.517 87.3787 120.805 87.6507 118.917 87.6507C117.029 87.6507 115.317 87.3627 113.781 86.7867C112.245 86.2107 110.917 85.3947 109.797 84.3387C108.709 83.2507 107.861 81.9387 107.253 80.4027C106.645 78.8667 106.341 77.1387 106.341 75.2187C106.341 73.3307 106.645 71.6187 107.253 70.0827C107.861 68.5467 108.709 67.2507 109.797 66.1947C110.917 65.1067 112.245 64.2747 113.781 63.6987C115.317 63.1227 117.029 62.8347 118.917 62.8347C120.805 62.8347 122.517 63.1387 124.053 63.7467C125.589 64.3227 126.901 65.1547 127.989 66.2427C129.109 67.2987 129.973 68.5947 130.581 70.1307C131.189 71.6667 131.493 73.3627 131.493 75.2187ZM114.693 75.2187C114.693 77.1707 115.061 78.6747 115.797 79.7307C116.565 80.7547 117.621 81.2667 118.965 81.2667C120.309 81.2667 121.333 80.7387 122.037 79.6827C122.773 78.6267 123.141 77.1387 123.141 75.2187C123.141 73.2987 122.773 71.8267 122.037 70.8027C121.301 69.7467 120.261 69.2187 118.917 69.2187C117.573 69.2187 116.533 69.7467 115.797 70.8027C115.061 71.8267 114.693 73.2987 114.693 75.2187ZM157.554 79.9227C157.554 82.3547 156.642 84.2587 154.818 85.6347C152.994 87.0107 150.306 87.6987 146.754 87.6987C145.41 87.6987 144.162 87.6027 143.01 87.4107C141.858 87.2187 140.866 86.9307 140.034 86.5467C139.234 86.1307 138.594 85.6187 138.114 85.0107C137.666 84.4027 137.442 83.6827 137.442 82.8507C137.442 82.0827 137.602 81.4427 137.922 80.9307C138.242 80.3867 138.626 79.9387 139.074 79.5867C140.002 80.0987 141.058 80.5627 142.242 80.9787C143.458 81.3627 144.85 81.5547 146.418 81.5547C147.41 81.5547 148.162 81.4107 148.674 81.1227C149.218 80.8347 149.49 80.4507 149.49 79.9707C149.49 79.5227 149.298 79.1707 148.914 78.9147C148.53 78.6587 147.89 78.4507 146.994 78.2907L145.554 78.0027C142.77 77.4587 140.69 76.6107 139.314 75.4587C137.97 74.2747 137.298 72.5947 137.298 70.4187C137.298 69.2347 137.554 68.1627 138.066 67.2027C138.578 66.2427 139.298 65.4427 140.226 64.8027C141.154 64.1627 142.258 63.6667 143.538 63.3147C144.85 62.9627 146.29 62.7867 147.858 62.7867C149.042 62.7867 150.146 62.8827 151.17 63.0747C152.226 63.2347 153.138 63.4907 153.906 63.8427C154.674 64.1947 155.282 64.6587 155.73 65.2347C156.178 65.7787 156.402 66.4347 156.402 67.2027C156.402 67.9387 156.258 68.5787 155.97 69.1227C155.714 69.6347 155.378 70.0667 154.962 70.4187C154.706 70.2587 154.322 70.0987 153.81 69.9387C153.298 69.7467 152.738 69.5867 152.13 69.4587C151.522 69.2987 150.898 69.1707 150.258 69.0747C149.65 68.9787 149.09 68.9307 148.578 68.9307C147.522 68.9307 146.706 69.0587 146.13 69.3147C145.554 69.5387 145.266 69.9067 145.266 70.4187C145.266 70.7707 145.426 71.0587 145.746 71.2827C146.066 71.5067 146.674 71.7147 147.57 71.9067L149.058 72.2427C152.13 72.9467 154.306 73.9227 155.586 75.1707C156.898 76.3867 157.554 77.9707 157.554 79.9227ZM183.579 79.9227C183.579 82.3547 182.667 84.2587 180.843 85.6347C179.019 87.0107 176.331 87.6987 172.779 87.6987C171.435 87.6987 170.187 87.6027 169.035 87.4107C167.883 87.2187 166.891 86.9307 166.059 86.5467C165.259 86.1307 164.619 85.6187 164.139 85.0107C163.691 84.4027 163.467 83.6827 163.467 82.8507C163.467 82.0827 163.627 81.4427 163.947 80.9307C164.267 80.3867 164.651 79.9387 165.099 79.5867C166.027 80.0987 167.083 80.5627 168.267 80.9787C169.483 81.3627 170.875 81.5547 172.443 81.5547C173.435 81.5547 174.187 81.4107 174.699 81.1227C175.243 80.8347 175.515 80.4507 175.515 79.9707C175.515 79.5227 175.323 79.1707 174.939 78.9147C174.555 78.6587 173.915 78.4507 173.019 78.2907L171.579 78.0027C168.795 77.4587 166.715 76.6107 165.339 75.4587C163.995 74.2747 163.323 72.5947 163.323 70.4187C163.323 69.2347 163.579 68.1627 164.091 67.2027C164.603 66.2427 165.323 65.4427 166.251 64.8027C167.179 64.1627 168.283 63.6667 169.563 63.3147C170.875 62.9627 172.315 62.7867 173.883 62.7867C175.067 62.7867 176.171 62.8827 177.195 63.0747C178.251 63.2347 179.163 63.4907 179.931 63.8427C180.699 64.1947 181.307 64.6587 181.755 65.2347C182.203 65.7787 182.427 66.4347 182.427 67.2027C182.427 67.9387 182.283 68.5787 181.995 69.1227C181.739 69.6347 181.403 70.0667 180.987 70.4187C180.731 70.2587 180.347 70.0987 179.835 69.9387C179.323 69.7467 178.763 69.5867 178.155 69.4587C177.547 69.2987 176.923 69.1707 176.283 69.0747C175.675 68.9787 175.115 68.9307 174.603 68.9307C173.547 68.9307 172.731 69.0587 172.155 69.3147C171.579 69.5387 171.291 69.9067 171.291 70.4187C171.291 70.7707 171.451 71.0587 171.771 71.2827C172.091 71.5067 172.699 71.7147 173.595 71.9067L175.083 72.2427C178.155 72.9467 180.331 73.9227 181.611 75.1707C182.923 76.3867 183.579 77.9707 183.579 79.9227ZM200.377 81.6987C200.921 81.6987 201.513 81.6507 202.153 81.5547C202.825 81.4267 203.321 81.2667 203.641 81.0747V77.2347L200.185 77.5227C199.289 77.5867 198.553 77.7787 197.977 78.0987C197.401 78.4187 197.113 78.8987 197.113 79.5387C197.113 80.1787 197.353 80.7067 197.833 81.1227C198.345 81.5067 199.193 81.6987 200.377 81.6987ZM199.993 62.8347C201.721 62.8347 203.289 63.0107 204.697 63.3627C206.137 63.7147 207.353 64.2587 208.345 64.9947C209.369 65.6987 210.153 66.6107 210.697 67.7307C211.241 68.8187 211.513 70.1147 211.513 71.6187V82.3707C211.513 83.2027 211.273 83.8907 210.793 84.4347C210.345 84.9467 209.801 85.3947 209.161 85.7787C207.081 87.0267 204.153 87.6507 200.377 87.6507C198.681 87.6507 197.145 87.4907 195.769 87.1707C194.425 86.8507 193.257 86.3707 192.265 85.7307C191.305 85.0907 190.553 84.2747 190.009 83.2827C189.497 82.2907 189.241 81.1387 189.241 79.8267C189.241 77.6187 189.897 75.9227 191.209 74.7387C192.521 73.5547 194.553 72.8187 197.305 72.5307L203.593 71.8587V71.5227C203.593 70.5947 203.177 69.9387 202.345 69.5547C201.545 69.1387 200.377 68.9307 198.841 68.9307C197.625 68.9307 196.441 69.0587 195.289 69.3147C194.137 69.5707 193.097 69.8907 192.169 70.2747C191.753 69.9867 191.401 69.5547 191.113 68.9787C190.825 68.3707 190.681 67.7467 190.681 67.1067C190.681 66.2747 190.873 65.6187 191.257 65.1387C191.673 64.6267 192.297 64.1947 193.129 63.8427C194.057 63.4907 195.145 63.2347 196.393 63.0747C197.673 62.9147 198.873 62.8347 199.993 62.8347ZM218.902 63.8907C219.222 63.7947 219.718 63.6987 220.39 63.6027C221.094 63.5067 221.814 63.4587 222.55 63.4587C223.254 63.4587 223.878 63.5067 224.422 63.6027C224.998 63.6987 225.478 63.8907 225.862 64.1787C226.246 64.4667 226.534 64.8667 226.726 65.3787C226.95 65.8587 227.062 66.4987 227.062 67.2987V77.6187C227.062 78.9307 227.382 79.8747 228.022 80.4507C228.662 80.9947 229.59 81.2667 230.806 81.2667C231.542 81.2667 232.134 81.2027 232.582 81.0747C233.062 80.9467 233.43 80.8187 233.686 80.6907V63.8907C234.006 63.7947 234.502 63.6987 235.174 63.6027C235.878 63.5067 236.598 63.4587 237.334 63.4587C238.038 63.4587 238.662 63.5067 239.206 63.6027C239.782 63.6987 240.262 63.8907 240.646 64.1787C241.03 64.4667 241.318 64.8667 241.51 65.3787C241.734 65.8587 241.846 66.4987 241.846 67.2987V81.8907C241.846 83.4907 241.174 84.6907 239.83 85.4907C238.71 86.1947 237.366 86.7227 235.798 87.0747C234.262 87.4587 232.582 87.6507 230.758 87.6507C229.03 87.6507 227.43 87.4587 225.958 87.0747C224.518 86.6907 223.27 86.0987 222.214 85.2987C221.158 84.4987 220.342 83.4747 219.766 82.2267C219.19 80.9467 218.902 79.4107 218.902 77.6187V63.8907ZM257.4 86.8347C257.08 86.9307 256.568 87.0267 255.864 87.1227C255.192 87.2187 254.488 87.2667 253.752 87.2667C253.048 87.2667 252.408 87.2187 251.832 87.1227C251.288 87.0267 250.824 86.8347 250.44 86.5467C250.056 86.2587 249.752 85.8747 249.528 85.3947C249.336 84.8827 249.24 84.2267 249.24 83.4267V69.0267C249.24 68.2907 249.368 67.6667 249.624 67.1547C249.912 66.6107 250.312 66.1307 250.824 65.7147C251.336 65.2987 251.96 64.9307 252.696 64.6107C253.464 64.2587 254.28 63.9547 255.144 63.6987C256.008 63.4427 256.904 63.2507 257.832 63.1227C258.76 62.9627 259.688 62.8827 260.616 62.8827C262.152 62.8827 263.368 63.1867 264.264 63.7947C265.16 64.3707 265.608 65.3307 265.608 66.6747C265.608 67.1227 265.544 67.5707 265.416 68.0187C265.288 68.4347 265.128 68.8187 264.936 69.1707C264.264 69.1707 263.576 69.2027 262.872 69.2667C262.168 69.3307 261.48 69.4267 260.808 69.5547C260.136 69.6827 259.496 69.8267 258.888 69.9867C258.312 70.1147 257.816 70.2747 257.4 70.4667V86.8347ZM294.627 75.2187C294.627 77.2027 294.323 78.9787 293.715 80.5467C293.107 82.0827 292.243 83.3787 291.123 84.4347C290.035 85.4907 288.723 86.2907 287.187 86.8347C285.651 87.3787 283.939 87.6507 282.051 87.6507C280.163 87.6507 278.451 87.3627 276.915 86.7867C275.379 86.2107 274.051 85.3947 272.931 84.3387C271.843 83.2507 270.995 81.9387 270.387 80.4027C269.779 78.8667 269.475 77.1387 269.475 75.2187C269.475 73.3307 269.779 71.6187 270.387 70.0827C270.995 68.5467 271.843 67.2507 272.931 66.1947C274.051 65.1067 275.379 64.2747 276.915 63.6987C278.451 63.1227 280.163 62.8347 282.051 62.8347C283.939 62.8347 285.651 63.1387 287.187 63.7467C288.723 64.3227 290.035 65.1547 291.123 66.2427C292.243 67.2987 293.107 68.5947 293.715 70.1307C294.323 71.6667 294.627 73.3627 294.627 75.2187ZM277.827 75.2187C277.827 77.1707 278.195 78.6747 278.931 79.7307C279.699 80.7547 280.755 81.2667 282.099 81.2667C283.443 81.2667 284.467 80.7387 285.171 79.6827C285.907 78.6267 286.275 77.1387 286.275 75.2187C286.275 73.2987 285.907 71.8267 285.171 70.8027C284.435 69.7467 283.395 69.2187 282.051 69.2187C280.707 69.2187 279.667 69.7467 278.931 70.8027C278.195 71.8267 277.827 73.2987 277.827 75.2187Z" fill="#954F3D"/>
</g>
<defs>
<filter id="filter0_d" x="25.4844" y="52.7547" width="273.143" height="42.944" filterUnits="userSpaceOnUse" color-interpolation-filters="sRGB">
<feFlood flood-opacity="0" result="BackgroundImageFix"/>
<feColorMatrix in="SourceAlpha" type="matrix" values="0 0 0 0 0 0 0 0 0 0 0 0 0 0 0 0 0 0 127 0"/>
<feOffset dy="4"/>
<feGaussianBlur stdDeviation="2"/>
<feColorMatrix type="matrix" values="0 0 0 0 0 0 0 0 0 0 0 0 0 0 0 0 0 0 0.25 0"/>
<feBlend mode="normal" in2="BackgroundImageFix" result="effect1_dropShadow"/>
<feBlend mode="normal" in="SourceGraphic" in2="effect1_dropShadow" result="shape"/>
</filter>
</defs>
</svg>
