<svg width="115" height="68" viewBox="0 0 115 68" fill="none" xmlns="http://www.w3.org/2000/svg">
<path d="M0.653562 47.5405C0.179523 39.2561 19.8127 33.5302 29.6885 31.7028L108.498 48.7587C107.549 57.0431 91.9061 62.769 84.203 64.5964C66.6635 69.9569 38.5767 66.83 26.7257 64.5964C3.49776 59.7233 -0.334034 51.1953 0.653562 47.5405Z" fill="black" fill-opacity="0.2"/>
<path d="M69.9821 58.505C36.3253 57.5304 28.3061 50.7892 28.5037 47.5405C27.5944 45.5913 29.3098 45.1039 30.2812 45.1039C55.1683 44.9009 105.417 44.6166 107.313 45.1039C109.209 45.5912 109.683 46.9313 109.683 47.5405C102.098 57.2868 80.0554 58.9111 69.9821 58.505Z" fill="#68BE7B"/>
<path d="M29.6885 15.865V45.713L96.054 51.8044L107.905 45.713V15.2559L29.6885 15.865Z" fill="#35B771"/>
<path d="M38.5771 49.977V19.5199L93.0917 20.129L94.2768 51.1953C91.9066 53.1445 74.7227 54.241 67.6121 54.8501C50.0726 54.8501 40.9473 51.6014 38.5771 49.977Z" fill="#40DEA3"/>
<path d="M29.6885 16.4741V45.1038C33.8363 49.9769 37.3916 49.9769 40.9469 51.1952L29.6885 16.4741Z" fill="#FF784A"/>
<path d="M29.6885 23.1747V45.1038C33.4808 49.4896 36.2065 49.9769 38.5767 50.5861L29.6885 23.1747Z" fill="#EE2941"/>
<path d="M49.8355 21.3473L40.9473 51.1953L44.5026 52.4135L64.6492 54.8501H68.2045L53.3908 21.9564L49.8355 21.3473Z" fill="#F67853"/>
<path d="M51.6129 25.0022L42.7246 51.8045C49.2427 54.241 59.9085 54.8502 65.2415 54.8502L51.6129 25.0022Z" fill="#E9395E"/>
<path d="M83.6104 21.9564L68.2041 54.8501H71.1668L94.8688 52.4135L96.0539 51.8044L85.9806 21.9564H83.6104Z" fill="#F08757"/>
<path d="M85.388 24.3931L70.5742 54.8502C85.388 55.4593 91.906 53.6319 94.8687 52.4136L85.388 24.3931Z" fill="#EA395E"/>
<path d="M107.905 15.2559L96.0537 51.8044L103.164 48.1495L107.905 45.1038V15.2559Z" fill="#EC8A4F"/>
<path d="M107.905 20.7382L97.2393 51.1953C104.35 48.1496 106.127 46.9313 107.905 45.1038V20.7382Z" fill="#EF223C"/>
<path d="M64.0563 5.50951C34.1918 5.99682 27.5157 11.804 27.9107 14.6466C32.1771 20.4944 55.3655 23.1747 67.019 23.1747C103.52 23.1747 110.275 15.662 108.497 12.2102C107.075 6.8497 78.2774 5.30646 64.0563 5.50951Z" fill="#369961"/>
<path d="M67.6117 20.129C46.7539 20.6163 35.614 16.6772 32.6513 14.6467C30.7551 10.2609 57.5383 8.75835 71.167 8.5553C97.7132 8.5553 104.745 12.6162 104.942 14.6467C97.8317 19.5199 77.0925 20.332 67.6117 20.129Z" fill="#FBC25F"/>
<path d="M95.4614 0.636545C98.7797 0.149231 98.4242 3.07303 97.2391 3.68226C94.8688 5.14425 66.624 9.9767 52.7979 12.2102C51.0202 14.0376 49.8351 14.0376 48.65 14.0376C46.7539 14.5249 44.3046 13.4285 43.9096 12.8193C43.4356 10.8701 46.0823 9.57057 47.4649 9.16447C49.5388 8.55533 51.8103 9.16447 52.7979 9.77361C77.4479 3.43854 91.5111 1.04262 95.4614 0.636545Z" fill="#DD405D"/>
<path d="M113.831 9.77372C115.016 10.3828 114.423 12.4133 113.831 12.8194C110.987 14.2814 81.8331 14.6468 67.612 14.6468C66.6639 15.6214 64.8467 15.8651 64.0567 15.8651C60.7384 15.8651 59.1187 14.6468 58.7237 14.0377C57.7756 12.5757 61.884 11.3981 64.0567 10.992C65.6178 10.7002 67.0194 11.6011 67.0194 12.2103C103.046 8.79909 113.238 9.16457 113.831 9.77372Z" fill="#DF385C"/>
</svg>
