<svg width="119" height="71" viewBox="0 0 119 71" fill="none" xmlns="http://www.w3.org/2000/svg">
<path d="M0.675535 50.9633C0.201495 42.679 19.8346 36.953 29.7105 35.1256L108.519 52.1816C107.571 60.4659 91.9281 66.1919 84.225 68.0193C66.6855 73.3797 38.5987 70.2528 26.7477 68.0193C3.51973 63.1462 -0.312061 54.6182 0.675535 50.9633Z" fill="black" fill-opacity="0.2"/>
<path d="M61.4892 61.6136C96.0653 63.1774 104.492 55.4166 109.791 50.7543C109.791 49.4736 108.514 48.7972 107.875 48.6191C107.955 38.8018 108.114 19.0957 108.114 18.8095C108.654 18.4915 108.79 17.5111 108.79 17.0607C112.446 17.0289 113.758 16.5175 113.957 16.2657C116.055 13.245 113.559 12.7283 112.049 12.8476H104.855C103.805 11.4167 92.2817 10.1581 86.651 9.70765C91.1025 9.1353 95.6508 7.64363 97.3684 6.96934C100.009 3.28585 96.268 3.58129 94.0672 4.18945L69.6554 8.88059C38.5542 7.83819 29.693 15.1356 29.693 15.1356C26.0095 17.4291 28.1582 19.2187 29.693 19.8268V48.3218C28.859 48.3913 28.303 49.3353 28.1292 49.7987C26.2527 56.5401 49.5873 60.4842 61.4892 61.6136Z" stroke="#FFFF93" stroke-width="7"/>
<path d="M70.0036 61.9279C36.3468 60.9533 28.3276 54.2121 28.5251 50.9633C27.6159 49.0141 29.3313 48.5268 30.3027 48.5268C55.1898 48.3237 105.438 48.0394 107.334 48.5268C109.23 49.0141 109.704 50.3542 109.704 50.9633C102.12 60.7096 80.0769 62.334 70.0036 61.9279Z" fill="#68BE7B"/>
<path d="M29.7104 19.2879V49.1358L96.076 55.2272L107.927 49.1358V18.6787L29.7104 19.2879Z" fill="#35B771"/>
<path d="M38.5986 53.3999V22.9427L93.1132 23.5519L94.2983 54.6181C91.9281 56.5674 74.7441 57.6639 67.6336 58.273C50.0941 58.273 40.9688 55.0242 38.5986 53.3999Z" fill="#40DEA3"/>
<path d="M29.7104 19.897V48.5267C33.8583 53.3998 37.4136 53.3998 40.9689 54.6181L29.7104 19.897Z" fill="#FF784A"/>
<path d="M29.7104 26.5975V48.5267C33.5028 52.9125 36.2285 53.3998 38.5987 54.0089L29.7104 26.5975Z" fill="#EE2941"/>
<path d="M49.857 24.7701L40.9688 54.6181L44.524 55.8364L64.6707 58.273H68.226L53.4123 25.3793L49.857 24.7701Z" fill="#F67853"/>
<path d="M51.6348 28.425L42.7466 55.2273C49.2646 57.6639 59.9305 58.273 65.2635 58.273L51.6348 28.425Z" fill="#E9395E"/>
<path d="M83.6324 25.3793L68.2261 58.2729H71.1888L94.8908 55.8364L96.0759 55.2272L86.0026 25.3793H83.6324Z" fill="#F08757"/>
<path d="M85.4099 27.8159L70.5962 58.273C85.4099 58.8822 91.928 57.0547 94.8907 55.8365L85.4099 27.8159Z" fill="#EA395E"/>
<path d="M107.927 18.6787L96.0762 55.2272L103.187 51.5724L107.927 48.5267V18.6787Z" fill="#EC8A4F"/>
<path d="M107.927 24.161L97.2612 54.6181C104.372 51.5724 106.149 50.3541 107.927 48.5267V24.161Z" fill="#EF223C"/>
<path d="M64.0782 8.93236C34.2137 9.41967 27.5377 15.2268 27.9327 18.0695C32.1991 23.9172 55.3875 26.5975 67.041 26.5976C103.542 26.5976 110.297 19.0848 108.519 15.633C107.097 10.2726 78.2994 8.72931 64.0782 8.93236Z" fill="#369961"/>
<path d="M67.6336 23.5519C46.7759 24.0392 35.636 20.1 32.6732 18.0696C30.7771 13.6837 57.5603 12.1812 71.1889 11.9781C97.7352 11.9781 104.767 16.0391 104.964 18.0696C97.8537 22.9427 77.1144 23.7549 67.6336 23.5519Z" fill="#FBC25F"/>
<path d="M95.4834 4.0594C98.8017 3.57208 98.4462 6.49588 97.261 7.10511C94.8908 8.5671 66.646 13.3996 52.8198 15.633C51.0422 17.4605 49.8571 17.4605 48.672 17.4605C46.7758 17.9478 44.3266 16.8513 43.9316 16.2422C43.4575 14.2929 46.1043 12.9934 47.4869 12.5873C49.5608 11.9782 51.8322 12.5873 52.8198 13.1965C77.4699 6.86139 91.5331 4.46547 95.4834 4.0594Z" fill="#DD405D"/>
<path d="M113.852 13.1966C115.037 13.8057 114.445 15.8362 113.852 16.2423C111.008 17.7042 81.8546 18.0697 67.6335 18.0697C66.6854 19.0443 64.8682 19.288 64.0781 19.288C60.7599 19.288 59.1402 18.0697 58.7452 17.4605C57.7971 15.9986 61.9055 14.8209 64.0781 14.4148C65.6393 14.123 67.0409 15.024 67.0409 15.6331C103.068 12.2219 113.26 12.5874 113.852 13.1966Z" fill="#DF385C"/>
</svg>
