<svg width="308" height="154" viewBox="0 0 308 154" fill="none" xmlns="http://www.w3.org/2000/svg">
<path d="M21.7845 126.677L8.45703 18.1977L285.471 141.279C194.106 150.684 109.102 147.467 76.141 147.714C49.7723 147.912 39.7106 144.662 37.9758 143.012L21.7845 126.677Z" fill="black" fill-opacity="0.15"/>
<path d="M8.48075 13.9238L4.54458 14.233L5.3237 18.1037L21.1652 96.8034L21.2919 97.4328L21.6337 97.9762C25.1394 103.549 30.3949 112.114 34.7658 119.688C36.9545 123.481 38.8978 126.985 40.2851 129.725C40.9814 131.1 41.5109 132.23 41.858 133.082C42.0321 133.509 42.1401 133.817 42.1996 134.02C42.2092 134.052 42.2166 134.079 42.2224 134.101C42.2844 135.552 42.973 136.679 43.6396 137.431C44.33 138.21 45.1828 138.81 45.9783 139.273C47.5759 140.203 49.6093 140.962 51.6259 141.578C55.2482 142.684 59.4441 143.515 62.5688 144.004C63.0047 144.345 63.4543 144.614 63.8629 144.829C64.7457 145.293 65.7652 145.67 66.8393 145.99C68.9898 146.629 71.749 147.147 74.9443 147.578C81.3585 148.444 89.9976 149.018 100.07 149.372C120.24 150.08 146.515 149.915 173.02 149.324C225.96 148.144 280.258 145.257 289.041 144.183C292.075 143.812 294.335 141.911 295.95 139.65C297.553 137.405 298.768 134.482 299.723 131.255C301.64 124.779 302.757 116.195 303.362 106.993C304.576 88.5272 303.773 66.7318 302.666 52.2979L302.643 51.9954L302.568 51.7014L292.007 10.2529L291.474 8.15917L289.363 7.69777C278.415 5.30465 260.047 4.17623 237.758 3.86929C215.372 3.56103 188.741 4.08115 161.101 5.07468C105.815 7.06189 46.359 10.9479 8.48075 13.9238ZM42.2393 134.172C42.2391 134.172 42.2384 134.169 42.2373 134.162C42.2388 134.169 42.2394 134.173 42.2393 134.172Z" fill="#FCFEE6" stroke="#FFFF93" stroke-width="7"/>
<g filter="url(#filter0_d)">
<path d="M86.9788 78.5588C86.9788 79.3908 87.2348 79.9828 87.7468 80.3348C88.2908 80.6868 89.0428 80.8628 90.0028 80.8628C90.4828 80.8628 90.9788 80.8308 91.4908 80.7668C92.0028 80.6708 92.4508 80.5588 92.8348 80.4308C93.1228 80.7828 93.3628 81.1828 93.5548 81.6308C93.7788 82.0468 93.8908 82.5588 93.8908 83.1668C93.8908 84.3828 93.4268 85.3748 92.4988 86.1428C91.6028 86.9108 90.0028 87.2948 87.6988 87.2948C84.8828 87.2948 82.7068 86.6548 81.1708 85.3748C79.6668 84.0948 78.9148 82.0148 78.9148 79.1348V58.5908C79.2668 58.4948 79.7628 58.3988 80.4028 58.3028C81.0748 58.1748 81.7788 58.1108 82.5148 58.1108C83.9228 58.1108 85.0108 58.3668 85.7788 58.8788C86.5788 59.3588 86.9788 60.3988 86.9788 61.9988V65.0708H93.2668C93.4588 65.4228 93.6348 65.8708 93.7948 66.4148C93.9868 66.9268 94.0828 67.5028 94.0828 68.1428C94.0828 69.2628 93.8268 70.0788 93.3148 70.5908C92.8348 71.0708 92.1788 71.3108 91.3468 71.3108H86.9788V78.5588ZM110.422 81.3908C110.966 81.3908 111.558 81.3428 112.198 81.2468C112.87 81.1188 113.366 80.9588 113.686 80.7668V76.9268L110.23 77.2148C109.334 77.2788 108.598 77.4708 108.022 77.7908C107.446 78.1108 107.158 78.5908 107.158 79.2308C107.158 79.8708 107.398 80.3988 107.878 80.8148C108.39 81.1988 109.238 81.3908 110.422 81.3908ZM110.038 62.5268C111.766 62.5268 113.334 62.7028 114.742 63.0548C116.182 63.4068 117.398 63.9508 118.39 64.6868C119.414 65.3908 120.198 66.3028 120.742 67.4228C121.286 68.5108 121.558 69.8068 121.558 71.3108V82.0628C121.558 82.8948 121.318 83.5828 120.838 84.1268C120.39 84.6388 119.846 85.0868 119.206 85.4708C117.126 86.7188 114.198 87.3428 110.422 87.3428C108.726 87.3428 107.19 87.1828 105.814 86.8628C104.47 86.5428 103.302 86.0628 102.31 85.4228C101.35 84.7828 100.598 83.9668 100.054 82.9748C99.5416 81.9828 99.2856 80.8308 99.2856 79.5188C99.2856 77.3108 99.9416 75.6148 101.254 74.4308C102.566 73.2468 104.598 72.5108 107.35 72.2228L113.638 71.5508V71.2148C113.638 70.2868 113.222 69.6308 112.39 69.2468C111.59 68.8308 110.422 68.6228 108.886 68.6228C107.67 68.6228 106.486 68.7508 105.334 69.0068C104.182 69.2628 103.142 69.5828 102.214 69.9668C101.798 69.6788 101.446 69.2468 101.158 68.6708C100.87 68.0628 100.726 67.4388 100.726 66.7988C100.726 65.9668 100.918 65.3108 101.302 64.8308C101.718 64.3188 102.342 63.8868 103.174 63.5348C104.102 63.1828 105.19 62.9268 106.438 62.7668C107.718 62.6068 108.918 62.5268 110.038 62.5268ZM140.131 62.5268C141.443 62.5268 142.723 62.7188 143.971 63.1028C145.251 63.4548 146.355 63.9988 147.283 64.7348C148.243 64.0948 149.315 63.5668 150.499 63.1508C151.715 62.7348 153.171 62.5268 154.867 62.5268C156.083 62.5268 157.267 62.6868 158.419 63.0068C159.603 63.3268 160.643 63.8388 161.539 64.5428C162.467 65.2148 163.203 66.1268 163.747 67.2788C164.291 68.3988 164.563 69.7748 164.563 71.4068V86.5268C164.243 86.6228 163.731 86.7188 163.027 86.8148C162.355 86.9108 161.651 86.9588 160.915 86.9588C160.211 86.9588 159.571 86.9108 158.995 86.8148C158.451 86.7188 157.987 86.5268 157.603 86.2388C157.219 85.9508 156.915 85.5668 156.691 85.0868C156.499 84.5748 156.403 83.9188 156.403 83.1188V71.6468C156.403 70.6868 156.131 69.9988 155.587 69.5828C155.043 69.1348 154.307 68.9108 153.379 68.9108C152.931 68.9108 152.451 69.0228 151.939 69.2468C151.427 69.4388 151.043 69.6468 150.787 69.8708C150.819 69.9988 150.835 70.1268 150.835 70.2548C150.835 70.3508 150.835 70.4468 150.835 70.5428V86.5268C150.483 86.6228 149.955 86.7188 149.251 86.8148C148.579 86.9108 147.891 86.9588 147.187 86.9588C146.483 86.9588 145.843 86.9108 145.267 86.8148C144.723 86.7188 144.259 86.5268 143.875 86.2388C143.491 85.9508 143.187 85.5668 142.963 85.0868C142.771 84.5748 142.675 83.9188 142.675 83.1188V71.6468C142.675 70.6868 142.371 69.9988 141.763 69.5828C141.187 69.1348 140.483 68.9108 139.651 68.9108C139.075 68.9108 138.579 69.0068 138.163 69.1988C137.747 69.3588 137.395 69.5188 137.107 69.6788V86.5268C136.787 86.6228 136.275 86.7188 135.571 86.8148C134.899 86.9108 134.195 86.9588 133.459 86.9588C132.755 86.9588 132.115 86.9108 131.539 86.8148C130.995 86.7188 130.531 86.5268 130.147 86.2388C129.763 85.9508 129.459 85.5668 129.235 85.0868C129.043 84.5748 128.947 83.9188 128.947 83.1188V68.6228C128.947 67.7588 129.123 67.0708 129.475 66.5588C129.859 66.0468 130.371 65.5668 131.011 65.1188C132.099 64.3508 133.443 63.7268 135.043 63.2468C136.675 62.7668 138.371 62.5268 140.131 62.5268ZM172.037 55.3268C172.357 55.2308 172.869 55.1348 173.573 55.0388C174.277 54.9108 174.997 54.8468 175.733 54.8468C176.437 54.8468 177.061 54.8948 177.605 54.9908C178.181 55.0868 178.661 55.2788 179.045 55.5668C179.429 55.8548 179.717 56.2548 179.909 56.7668C180.101 57.2468 180.197 57.8868 180.197 58.6868V63.3908C180.997 63.0708 181.749 62.8468 182.453 62.7188C183.189 62.5908 183.989 62.5268 184.853 62.5268C186.389 62.5268 187.845 62.7988 189.221 63.3428C190.597 63.8868 191.813 64.6868 192.869 65.7428C193.925 66.7668 194.757 68.0468 195.365 69.5828C195.973 71.1188 196.277 72.8948 196.277 74.9108C196.277 76.9908 195.957 78.8148 195.317 80.3828C194.709 81.9188 193.845 83.1988 192.725 84.2228C191.605 85.2468 190.229 86.0308 188.597 86.5748C186.997 87.0868 185.221 87.3428 183.269 87.3428C181.157 87.3428 179.365 87.0868 177.893 86.5748C176.421 86.0948 175.173 85.4868 174.149 84.7508C172.741 83.7588 172.037 82.4788 172.037 80.9108V55.3268ZM183.269 80.9108C184.741 80.9108 185.877 80.4148 186.677 79.4228C187.509 78.3988 187.925 76.8948 187.925 74.9108C187.925 72.8948 187.509 71.3908 186.677 70.3988C185.845 69.4068 184.725 68.9108 183.317 68.9108C182.677 68.9108 182.117 68.9748 181.637 69.1028C181.189 69.2308 180.693 69.4228 180.149 69.6788V80.1428C180.501 80.3668 180.917 80.5588 181.397 80.7188C181.909 80.8468 182.533 80.9108 183.269 80.9108ZM226.797 74.9108C226.797 76.8948 226.493 78.6708 225.885 80.2388C225.277 81.7748 224.413 83.0708 223.293 84.1268C222.205 85.1828 220.893 85.9828 219.357 86.5268C217.821 87.0708 216.109 87.3428 214.221 87.3428C212.333 87.3428 210.621 87.0548 209.085 86.4788C207.549 85.9028 206.221 85.0868 205.101 84.0308C204.013 82.9428 203.165 81.6308 202.557 80.0948C201.949 78.5588 201.645 76.8308 201.645 74.9108C201.645 73.0228 201.949 71.3108 202.557 69.7748C203.165 68.2388 204.013 66.9428 205.101 65.8868C206.221 64.7988 207.549 63.9668 209.085 63.3908C210.621 62.8148 212.333 62.5268 214.221 62.5268C216.109 62.5268 217.821 62.8308 219.357 63.4388C220.893 64.0148 222.205 64.8468 223.293 65.9348C224.413 66.9908 225.277 68.2868 225.885 69.8228C226.493 71.3588 226.797 73.0548 226.797 74.9108ZM209.997 74.9108C209.997 76.8628 210.365 78.3668 211.101 79.4228C211.869 80.4468 212.925 80.9588 214.269 80.9588C215.613 80.9588 216.637 80.4308 217.341 79.3748C218.077 78.3188 218.445 76.8308 218.445 74.9108C218.445 72.9908 218.077 71.5188 217.341 70.4948C216.605 69.4388 215.565 68.9108 214.221 68.9108C212.877 68.9108 211.837 69.4388 211.101 70.4948C210.365 71.5188 209.997 72.9908 209.997 74.9108ZM241.338 86.5268C241.018 86.6228 240.506 86.7188 239.802 86.8148C239.13 86.9108 238.426 86.9588 237.69 86.9588C236.986 86.9588 236.346 86.9108 235.77 86.8148C235.226 86.7188 234.762 86.5268 234.378 86.2388C233.994 85.9508 233.69 85.5668 233.466 85.0868C233.274 84.5748 233.178 83.9188 233.178 83.1188V68.7188C233.178 67.9828 233.306 67.3588 233.562 66.8468C233.85 66.3028 234.25 65.8228 234.762 65.4068C235.274 64.9908 235.898 64.6228 236.634 64.3028C237.402 63.9508 238.218 63.6468 239.082 63.3908C239.946 63.1348 240.842 62.9428 241.77 62.8148C242.698 62.6548 243.626 62.5748 244.554 62.5748C246.09 62.5748 247.306 62.8788 248.202 63.4868C249.098 64.0628 249.546 65.0228 249.546 66.3668C249.546 66.8148 249.482 67.2628 249.354 67.7108C249.226 68.1268 249.066 68.5108 248.874 68.8628C248.202 68.8628 247.514 68.8948 246.81 68.9588C246.106 69.0228 245.418 69.1188 244.746 69.2468C244.074 69.3748 243.434 69.5188 242.826 69.6788C242.25 69.8068 241.754 69.9668 241.338 70.1588V86.5268Z" fill="#954F3D"/>
</g>
<defs>
<filter id="filter0_d" x="74.915" y="54.8468" width="178.631" height="40.496" filterUnits="userSpaceOnUse" color-interpolation-filters="sRGB">
<feFlood flood-opacity="0" result="BackgroundImageFix"/>
<feColorMatrix in="SourceAlpha" type="matrix" values="0 0 0 0 0 0 0 0 0 0 0 0 0 0 0 0 0 0 127 0"/>
<feOffset dy="4"/>
<feGaussianBlur stdDeviation="2"/>
<feColorMatrix type="matrix" values="0 0 0 0 0 0 0 0 0 0 0 0 0 0 0 0 0 0 0.25 0"/>
<feBlend mode="normal" in2="BackgroundImageFix" result="effect1_dropShadow"/>
<feBlend mode="normal" in="SourceGraphic" in2="effect1_dropShadow" result="shape"/>
</filter>
</defs>
</svg>
