<svg width="55" height="54" viewBox="0 0 55 54" fill="none" xmlns="http://www.w3.org/2000/svg">
<path d="M2.00243 44.7781C-0.397566 41.1781 3.33577 38.2781 5.50243 37.2781H46.0024C48.4024 37.6781 49.8358 38.4447 50.0024 38.7781C52.8024 40.3781 51.0024 43.4447 50.0024 44.7781C48.4024 47.1781 44.0024 49.1114 42.0024 49.7781C38.4024 51.7781 30.5024 51.9447 27.0024 51.7781C25.8024 52.1781 18.1691 51.2781 14.5024 50.7781C11.3358 50.2781 4.40243 48.3781 2.00243 44.7781Z" fill="black" fill-opacity="0.2"/>
<path d="M4.50237 29.2779C4.90237 26.4779 6.3357 25.4446 7.00236 25.2779C7.00236 25.2779 2.89974 20.0029 4.37546 13.1952C4.37546 13.1952 4.94696 11.4812 5.94668 9.4339C7.5653 7.19641 12.9337 2.45983 20.5952 4.82792C31.1591 8.09312 27.5024 20.778 27.5024 20.778C31.5024 23.978 35.1691 22.4447 36.5024 21.278C39.7024 18.478 43.1691 17.1113 44.5024 16.7779C47.7024 15.5779 49.5024 18.2779 50.0024 19.7779C51.6024 25.3779 50.0024 32.1113 49.0024 34.7779C47.5024 38.7779 41.0024 44.1113 37.5024 46.2779C31.9024 49.4779 26.5024 49.9446 24.5024 49.7779C21.7024 49.7779 18.669 49.1113 17.5024 48.7779C12.7024 47.1779 8.83571 42.778 7.50237 40.778C4.30237 35.1779 4.16903 30.7779 4.50237 29.2779Z" fill="#F7D625" stroke="#FFFF93" stroke-width="7"/>
<path d="M5.54692 36.2781C3.80965 31.6454 4.54689 27.6114 5.54689 26.7781C9.5469 29.5781 14.7136 31.2781 16.5469 31.2781C21.5469 31.7781 26.0469 28.1114 27.5469 25.7781C29.1469 26.9781 34.8803 26.6114 37.5469 26.2781C37.9469 26.6781 37.3802 28.7781 37.0469 29.7781C36.2469 32.5781 33.3803 34.6114 32.0469 35.2781C31.2469 36.4781 24.0469 37.7781 20.5469 36.2781C21.7469 37.0781 23.7136 37.9447 24.5469 38.2781C27.7469 39.8781 32.5469 38.9447 34.5469 38.2781C38.0469 36.7781 40.2136 35.1114 42.5469 33.2781C42.5469 34.8781 42.0469 38.7781 39.0469 41.7781C35.5469 44.7781 35.0469 44.7781 32.5469 45.7781C30.0556 46.7746 21.5469 46.2781 19.5469 45.7781C15.0469 44.4447 7.04693 40.2781 5.54692 36.2781Z" fill="#FCEB46"/>
<path d="M4.50236 13.2781C6.10236 5.67808 13.3357 4.27808 16.5024 4.27808C22.1024 4.27808 25.669 7.77808 26.5024 9.77808C28.5024 13.7781 28.399 17.1398 27.5024 20.2781C26.5024 23.7781 25.0024 25.7781 20.5024 27.7781C16.0024 28.7781 11.5024 28.2781 7.50237 25.2781C3.64906 22.3881 3.83569 16.1114 4.50236 13.2781Z" fill="#F8E642"/>
<path d="M5.00244 19.7781C6.60244 19.7781 9.66911 17.4447 11.0024 16.2781C12.0024 16.2781 13.5024 16.2781 14.5024 18.2781C15.3024 19.8781 14.5024 21.6114 14.0024 22.2781C12.0024 23.0781 9.16911 22.9447 8.00244 22.7781C6.00244 22.7781 5.16911 20.7781 5.00244 19.7781Z" fill="#FBAE17"/>
<path d="M20.0024 14.7778C19.0024 14.7778 19.0024 15.6112 19.0024 16.2778C19.0024 17.278 19.5024 17.278 20.5024 17.2779C21.0681 17.2778 21.0024 16.4445 21.0024 15.7778C21.0024 15.278 21.0024 14.7779 20.0024 14.7778Z" fill="#B17336"/>
<path d="M20.0024 19.278C19.2024 19.278 18.5024 18.778 18.5024 18.278C18.5024 17.716 18.7112 17.4446 19.0024 17.278C19.5024 17.1113 20.87 16.6455 21.5024 17.278C22.0024 17.7779 21.8358 18.4446 21.5024 18.778C21.3358 18.9446 20.8024 19.278 20.0024 19.278Z" fill="#F8A585"/>
<path d="M7.00244 14.278C7.00244 13.478 7.16911 13.2781 7.50244 13.278C8.00244 13.278 8.50244 13.1598 8.50244 14.2779C8.50244 15.278 8.50244 15.778 7.50244 15.778C7.10244 15.778 7.00244 14.778 7.00244 14.278Z" fill="#D1A743"/>
<path d="M6.00244 15.7781C6.00244 14.9781 6.66911 14.7781 7.00244 14.7781C7.33577 14.7781 7.60243 14.8781 8.00243 15.2781C8.40243 15.6781 8.1691 16.4448 8.00243 16.7781C7.60243 17.5781 6.83576 17.4448 6.50243 17.2781C6.00244 16.7781 6.00244 16.2781 6.00244 15.7781Z" fill="#FBC07E"/>
</svg>
