<svg width="51" height="49" viewBox="0 0 51 49" fill="none" xmlns="http://www.w3.org/2000/svg">
<path d="M0.980461 41.3569C-1.41954 37.7569 2.31379 34.8569 4.48046 33.8569H44.9805C47.3805 34.2569 48.8138 35.0236 48.9805 35.3569C51.7805 36.9569 49.9805 40.0236 48.9805 41.3569C47.3805 43.7569 42.9805 45.6903 40.9805 46.3569C37.3805 48.3569 29.4805 48.5236 25.9805 48.3569C24.7805 48.7569 17.1471 47.8569 13.4805 47.3569C10.3138 46.8569 3.38046 44.9569 0.980461 41.3569Z" fill="black" fill-opacity="0.2"/>
<path d="M3.48003 25.8569C3.88003 23.0569 5.31336 22.0236 5.98003 21.8569L26.48 17.3569C30.48 20.557 34.1467 19.0236 35.48 17.8569C38.68 15.0569 42.1467 13.6902 43.48 13.3569C46.68 12.1569 48.48 14.8569 48.98 16.3569C50.58 21.9569 48.98 28.6902 47.98 31.3569C46.48 35.3569 39.98 40.6902 36.48 42.8569C30.88 46.0569 25.48 46.5236 23.48 46.3569C20.68 46.3569 17.6467 45.6902 16.48 45.3569C11.68 43.7569 7.81337 39.3569 6.48003 37.3569C3.28003 31.7569 3.14669 27.3569 3.48003 25.8569Z" fill="#F7D625"/>
<path d="M4.52495 32.8569C2.78768 28.2242 3.52492 24.1903 4.52492 23.3569C8.52493 26.1569 13.6916 27.8569 15.5249 27.8569C20.5249 28.3569 25.025 24.6903 26.525 22.3569C28.125 23.5569 33.8583 23.1903 36.5249 22.8569C36.9249 23.2569 36.3583 25.3569 36.0249 26.3569C35.2249 29.1569 32.3583 31.1903 31.025 31.8569C30.225 33.0569 23.025 34.3569 19.5249 32.8569C20.7249 33.6569 22.6916 34.5236 23.525 34.8569C26.725 36.4569 31.525 35.5236 33.525 34.8569C37.025 33.3569 39.1916 31.6903 41.5249 29.8569C41.5249 31.4569 41.025 35.3569 38.025 38.3569C34.525 41.3569 34.025 41.3569 31.525 42.3569C29.0336 43.3535 20.5249 42.8569 18.5249 42.3569C14.025 41.0236 6.02495 36.8569 4.52495 32.8569Z" fill="#FCEB46"/>
<path d="M3.48039 9.85693C5.08039 2.25693 12.3137 0.856934 15.4804 0.856934C21.0804 0.856934 24.6471 4.35693 25.4804 6.35693C27.4804 10.3569 27.3771 13.7186 26.4804 16.8569C25.4804 20.3569 23.9804 22.3569 19.4804 24.3569C14.9804 25.3569 10.4804 24.8569 6.4804 21.8569C2.62709 18.967 2.81372 12.6903 3.48039 9.85693Z" fill="#F8E642"/>
<path d="M3.98047 16.3569C5.58047 16.3569 8.64714 14.0236 9.98047 12.8569C10.9805 12.8569 12.4805 12.8569 13.4805 14.8569C14.2805 16.4569 13.4805 18.1903 12.9805 18.8569C10.9805 19.6569 8.14714 19.5236 6.98047 19.3569C4.98047 19.3569 4.14714 17.3569 3.98047 16.3569Z" fill="#FBAE17"/>
<path d="M18.9805 11.3569C17.9805 11.3569 17.9805 12.1903 17.9805 12.8569C17.9805 13.8571 18.4805 13.8571 19.4805 13.857C20.0462 13.8569 19.9805 13.0236 19.9805 12.3569C19.9805 11.8571 19.9805 11.357 18.9805 11.3569Z" fill="#B17336"/>
<path d="M18.9805 15.8571C18.1805 15.8571 17.4805 15.3571 17.4805 14.8571C17.4805 14.2951 17.6893 14.0237 17.9805 13.8571C18.4805 13.6904 19.848 13.2246 20.4805 13.8571C20.9805 14.357 20.8138 15.0237 20.4805 15.3571C20.3138 15.5237 19.7805 15.8571 18.9805 15.8571Z" fill="#F8A585"/>
<path d="M5.98047 10.8571C5.98047 10.0571 6.14714 9.85717 6.48047 9.85713C6.98047 9.85706 7.48047 9.73894 7.48047 10.857C7.48047 11.8571 7.48047 12.3571 6.48047 12.3571C6.08047 12.3571 5.98047 11.3571 5.98047 10.8571Z" fill="#D1A743"/>
<path d="M4.98047 12.3569C4.98047 11.5569 5.64714 11.3569 5.98047 11.3569C6.3138 11.3569 6.58046 11.457 6.98046 11.857C7.38046 12.257 7.14712 13.0236 6.98046 13.357C6.58046 14.157 5.81379 14.0236 5.48046 13.857C4.98047 13.3569 4.98047 12.8569 4.98047 12.3569Z" fill="#FBC07E"/>
</svg>
