<svg width="308" height="154" viewBox="0 0 308 154" fill="none" xmlns="http://www.w3.org/2000/svg">
<path d="M22.2288 126.538L8.90137 18.0596L285.916 141.141C194.551 150.546 109.546 147.329 76.5853 147.576C50.2166 147.774 40.1549 144.524 38.4201 142.874L22.2288 126.538Z" fill="black" fill-opacity="0.15"/>
<path d="M8.92509 13.7856L4.98891 14.0949L5.76804 17.9655L21.6095 96.6652L21.7362 97.2946L22.0781 97.8381C25.5837 103.411 30.8392 111.976 35.2102 119.55C37.3988 123.343 39.3421 126.846 40.7295 129.586C41.4258 130.962 41.9553 132.092 42.3023 132.944C42.4764 133.371 42.5844 133.678 42.644 133.881C42.6535 133.914 42.661 133.941 42.6667 133.963C42.7287 135.414 43.4173 136.54 44.0839 137.293C44.7744 138.072 45.6271 138.671 46.4226 139.135C48.0202 140.065 50.0536 140.823 52.0702 141.439C55.6925 142.546 59.8885 143.377 63.0131 143.866C63.449 144.207 63.8986 144.476 64.3072 144.691C65.1901 145.155 66.2095 145.532 67.2836 145.851C69.4342 146.49 72.1933 147.009 75.3886 147.44C81.8028 148.305 90.4419 148.88 100.514 149.234C120.685 149.942 146.959 149.777 173.465 149.186C226.404 148.006 280.703 145.119 289.485 144.045C292.52 143.674 294.78 141.773 296.394 139.512C297.998 137.267 299.213 134.344 300.168 131.117C302.084 124.641 303.201 116.057 303.806 106.855C305.02 88.389 304.218 66.5936 303.111 52.1597L303.087 51.8573L303.013 51.5633L292.452 10.1147L291.918 8.02099L289.808 7.55959C278.86 5.16647 260.491 4.03805 238.202 3.73111C215.817 3.42285 189.186 3.94297 161.545 4.9365C106.259 6.92371 46.8034 10.8097 8.92509 13.7856ZM42.6836 134.034C42.6835 134.034 42.6828 134.03 42.6817 134.024C42.6832 134.031 42.6837 134.034 42.6836 134.034Z" fill="#FCFEE6" stroke="#FFFF93" stroke-width="7"/>
<g filter="url(#filter0_d)">
<path d="M125.892 62.3886C127.812 62.3886 129.588 62.6446 131.22 63.1566C132.884 63.6366 134.308 64.3886 135.492 65.4126C136.676 66.4366 137.604 67.7326 138.276 69.3006C138.948 70.8366 139.284 72.6766 139.284 74.8206C139.284 76.8686 138.996 78.6606 138.42 80.1966C137.844 81.7326 137.028 83.0286 135.972 84.0846C134.916 85.1086 133.636 85.8766 132.132 86.3886C130.66 86.9006 129.012 87.1566 127.188 87.1566C125.812 87.1566 124.532 86.9486 123.348 86.5326V94.5006C123.028 94.5966 122.516 94.6926 121.812 94.7886C121.108 94.9166 120.388 94.9806 119.652 94.9806C118.948 94.9806 118.308 94.9326 117.732 94.8366C117.188 94.7406 116.724 94.5486 116.34 94.2606C115.956 93.9726 115.668 93.5726 115.476 93.0606C115.284 92.5806 115.188 91.9406 115.188 91.1406V68.1006C115.188 67.2366 115.364 66.5326 115.716 65.9886C116.1 65.4446 116.612 64.9486 117.252 64.5006C118.244 63.8606 119.476 63.3486 120.948 62.9646C122.42 62.5806 124.068 62.3886 125.892 62.3886ZM125.988 80.7246C129.284 80.7246 130.932 78.7566 130.932 74.8206C130.932 72.7726 130.516 71.2526 129.684 70.2606C128.884 69.2686 127.716 68.7726 126.18 68.7726C125.572 68.7726 125.028 68.8526 124.548 69.0126C124.068 69.1406 123.652 69.3006 123.3 69.4926V80.0526C123.684 80.2446 124.1 80.4046 124.548 80.5326C124.996 80.6606 125.476 80.7246 125.988 80.7246ZM155.744 81.2526C156.288 81.2526 156.88 81.2046 157.52 81.1086C158.192 80.9806 158.688 80.8206 159.008 80.6286V76.7886L155.552 77.0766C154.656 77.1406 153.92 77.3326 153.344 77.6526C152.768 77.9726 152.48 78.4526 152.48 79.0926C152.48 79.7326 152.72 80.2606 153.2 80.6766C153.712 81.0606 154.56 81.2526 155.744 81.2526ZM155.36 62.3886C157.088 62.3886 158.656 62.5646 160.064 62.9166C161.504 63.2686 162.72 63.8126 163.712 64.5486C164.736 65.2526 165.52 66.1646 166.064 67.2846C166.608 68.3726 166.88 69.6686 166.88 71.1726V81.9246C166.88 82.7566 166.64 83.4446 166.16 83.9886C165.712 84.5006 165.168 84.9486 164.528 85.3326C162.448 86.5806 159.52 87.2046 155.744 87.2046C154.048 87.2046 152.512 87.0446 151.136 86.7246C149.792 86.4046 148.624 85.9246 147.632 85.2846C146.672 84.6446 145.92 83.8286 145.376 82.8366C144.864 81.8446 144.608 80.6926 144.608 79.3806C144.608 77.1726 145.264 75.4766 146.576 74.2926C147.888 73.1086 149.92 72.3726 152.672 72.0846L158.96 71.4126V71.0766C158.96 70.1486 158.544 69.4926 157.712 69.1086C156.912 68.6926 155.744 68.4846 154.208 68.4846C152.992 68.4846 151.808 68.6126 150.656 68.8686C149.504 69.1246 148.464 69.4446 147.536 69.8286C147.12 69.5406 146.768 69.1086 146.48 68.5326C146.192 67.9246 146.048 67.3006 146.048 66.6606C146.048 65.8286 146.24 65.1726 146.624 64.6926C147.04 64.1806 147.664 63.7486 148.496 63.3966C149.424 63.0446 150.512 62.7886 151.76 62.6286C153.04 62.4686 154.24 62.3886 155.36 62.3886ZM182.429 78.4206C182.429 79.2526 182.685 79.8446 183.197 80.1966C183.741 80.5486 184.493 80.7246 185.453 80.7246C185.933 80.7246 186.429 80.6926 186.941 80.6286C187.453 80.5326 187.901 80.4206 188.285 80.2926C188.573 80.6446 188.813 81.0446 189.005 81.4926C189.229 81.9086 189.341 82.4206 189.341 83.0286C189.341 84.2446 188.877 85.2366 187.949 86.0046C187.053 86.7726 185.453 87.1566 183.149 87.1566C180.333 87.1566 178.157 86.5166 176.621 85.2366C175.117 83.9566 174.365 81.8766 174.365 78.9966V58.4526C174.717 58.3566 175.213 58.2606 175.853 58.1646C176.525 58.0366 177.229 57.9726 177.965 57.9726C179.373 57.9726 180.461 58.2286 181.229 58.7406C182.029 59.2206 182.429 60.2606 182.429 61.8606V64.9326H188.717C188.909 65.2846 189.085 65.7326 189.245 66.2766C189.437 66.7886 189.533 67.3646 189.533 68.0046C189.533 69.1246 189.277 69.9406 188.765 70.4526C188.285 70.9326 187.629 71.1726 186.797 71.1726H182.429V78.4206ZM219.751 74.7726C219.751 76.7566 219.447 78.5326 218.839 80.1006C218.231 81.6366 217.367 82.9326 216.247 83.9886C215.159 85.0446 213.847 85.8446 212.311 86.3886C210.775 86.9326 209.063 87.2046 207.175 87.2046C205.287 87.2046 203.575 86.9166 202.039 86.3406C200.503 85.7646 199.175 84.9486 198.055 83.8926C196.967 82.8046 196.119 81.4926 195.511 79.9566C194.903 78.4206 194.599 76.6926 194.599 74.7726C194.599 72.8846 194.903 71.1726 195.511 69.6366C196.119 68.1006 196.967 66.8046 198.055 65.7486C199.175 64.6606 200.503 63.8286 202.039 63.2526C203.575 62.6766 205.287 62.3886 207.175 62.3886C209.063 62.3886 210.775 62.6926 212.311 63.3006C213.847 63.8766 215.159 64.7086 216.247 65.7966C217.367 66.8526 218.231 68.1486 218.839 69.6846C219.447 71.2206 219.751 72.9166 219.751 74.7726ZM202.951 74.7726C202.951 76.7246 203.319 78.2286 204.055 79.2846C204.823 80.3086 205.879 80.8206 207.223 80.8206C208.567 80.8206 209.591 80.2926 210.295 79.2366C211.031 78.1806 211.399 76.6926 211.399 74.7726C211.399 72.8526 211.031 71.3806 210.295 70.3566C209.559 69.3006 208.519 68.7726 207.175 68.7726C205.831 68.7726 204.791 69.3006 204.055 70.3566C203.319 71.3806 202.951 72.8526 202.951 74.7726Z" fill="#954F3D"/>
</g>
<defs>
<filter id="filter0_d" x="111.188" y="57.9726" width="112.563" height="45.008" filterUnits="userSpaceOnUse" color-interpolation-filters="sRGB">
<feFlood flood-opacity="0" result="BackgroundImageFix"/>
<feColorMatrix in="SourceAlpha" type="matrix" values="0 0 0 0 0 0 0 0 0 0 0 0 0 0 0 0 0 0 127 0"/>
<feOffset dy="4"/>
<feGaussianBlur stdDeviation="2"/>
<feColorMatrix type="matrix" values="0 0 0 0 0 0 0 0 0 0 0 0 0 0 0 0 0 0 0.25 0"/>
<feBlend mode="normal" in2="BackgroundImageFix" result="effect1_dropShadow"/>
<feBlend mode="normal" in="SourceGraphic" in2="effect1_dropShadow" result="shape"/>
</filter>
</defs>
</svg>
