<svg width="89" height="78" viewBox="0 0 89 78" fill="none" xmlns="http://www.w3.org/2000/svg">
<path d="M19.6214 46.1827C8.9689 41.6173 8.20801 50.748 8.20801 51.5089V52.2698L11.2516 51.5089C11.2516 50.9002 16.8314 47.7045 19.6214 46.1827Z" fill="#79E0E7"/>
<path d="M47.0135 36.2911C43.9699 35.0737 38.6437 39.8419 36.361 42.3782H40.1655C40.1655 41.7695 48.7889 40.0956 53.1006 39.3347C52.3397 38.8274 50.057 37.5085 47.0135 36.2911Z" fill="#79E0E7"/>
<path d="M19.6214 46.1827C8.9689 41.6173 8.20801 50.748 8.20801 51.5089V52.2698L11.2516 51.5089C11.2516 50.9002 16.8314 47.7045 19.6214 46.1827Z" stroke="#79E0E7" stroke-width="0.1"/>
<path d="M47.0135 36.2911C43.9699 35.0737 38.6437 39.8419 36.361 42.3782H40.1655C40.1655 41.7695 48.7889 40.0956 53.1006 39.3347C52.3397 38.8274 50.057 37.5085 47.0135 36.2911Z" stroke="#79E0E7" stroke-width="0.1"/>
<path d="M79.7321 89.5537C83.9931 83.4665 83.5366 72.814 82.7757 68.2487L83.5366 67.4878C91.5808 62.6561 86.0885 48.5684 86.0885 47.0466C86.0885 45.8292 83.283 42.1248 81.2539 40.8566C87.341 28.6823 66.0363 13.9718 54.623 8.13825C-6.24829 -4.03602 5.16491 55.3135 4.40402 56.8352C3.89671 58.1034 4.44532 61.3979 3.83661 62.0067C3.2279 62.6154 5.41838 70.2777 7.44742 74.3358C8.20831 77.8867 9.57792 85.1405 8.9692 85.7492C8.20831 86.5101 12.7737 94.119 16.5781 100.206M79.7321 89.5537C74.4059 97.1626 40.7295 110.835 33.8814 109.313C27.0334 107.791 20.3826 106.293 16.5781 100.206M79.7321 89.5537C79.8881 91.9148 80.8673 96.9939 83.5366 98.4216C86.8732 100.206 85.2356 113.008 63.5462 120.621C42.7869 125.559 9.99522 120.902 16.5781 100.206" stroke="#79E0E7" stroke-width="0.5"/>
<path d="M56.1445 24.8778C62.8404 21.2255 56.3982 11.689 52.3401 7.37727C41.0958 5.59247 34.0787 6.6164 25.7089 11.1817C6.68658 10.4209 3.23903 41.6925 4.40367 56.8352C0.142676 55.6178 0.0921022 44.661 0.599439 39.3347C-0.922344 35.5303 6.68657 11.1817 18.0999 3.57281C27.2306 -2.51432 38.644 1.03651 43.2094 3.57281L54.6227 4.3337C80.1887 6.76856 88.102 31.7258 88.8629 43.9001C87.3411 46.9436 82.0148 47.7045 82.0148 46.9436C82.0148 46.3349 79.9858 45.6755 78.9713 45.4218C78.9713 46.69 78.5147 49.3785 76.6886 49.9872C74.8625 50.5959 71.3624 46.1827 69.8406 43.9001C72.2754 38.4216 69.3333 35.023 67.5579 34.0085C63.2969 36.4433 58.1736 28.9359 56.1445 24.8778Z" fill="#79E0E7" stroke="#79E0E7" stroke-width="0.1"/>
<path d="M15.8169 32.4869C12.7733 31.2695 7.95434 39.0813 5.92529 43.1394C7.95434 41.6176 12.6211 38.4218 15.056 37.813C18.0996 37.0522 19.6213 34.0087 15.8169 32.4869Z" fill="#79E0E7"/>
<path d="M36.361 34.0086C33.9261 35.2259 33.8247 31.4723 34.0783 29.4432C37.1218 27.1606 47.7743 26.3997 49.2961 28.6823C50.5135 30.5085 47.7743 31.4723 46.2525 31.7259C40.1654 30.9649 39.4045 32.4869 36.361 34.0086Z" fill="#79E0E7"/>
<path d="M15.8169 32.4869C12.7733 31.2695 7.95434 39.0813 5.92529 43.1394C7.95434 41.6176 12.6211 38.4218 15.056 37.813C18.0996 37.0522 19.6213 34.0087 15.8169 32.4869Z" stroke="#79E0E7" stroke-width="0.1"/>
<path d="M36.361 34.0086C33.9261 35.2259 33.8247 31.4723 34.0783 29.4432C37.1218 27.1606 47.7743 26.3997 49.2961 28.6823C50.5135 30.5085 47.7743 31.4723 46.2525 31.7259C40.1654 30.9649 39.4045 32.4869 36.361 34.0086Z" stroke="#79E0E7" stroke-width="0.1"/>
<path d="M38.6443 60.6398C37.4268 60.031 35.1664 60.8811 34.8398 62.1615H35.1664L38.6443 60.6398Z" fill="#79E0E7"/>
<path d="M26.0883 63.5412C25.2087 63.2866 24.5451 64.8757 24.4101 65.5219L26.0883 64.6828C26.3969 64.5285 26.9679 63.7959 26.0883 63.5412Z" fill="#79E0E7"/>
<path d="M37.6795 53.8207C39.9257 54.5041 45.9487 58.0527 41.6877 59.8789M21.1436 60.6398C20.3827 62.6688 19.774 66.5747 23.4263 65.966M27.5605 42.2106C27.2765 46.9727 26.8788 56.8351 27.5605 58.1879M32.4505 54.807C33.3656 54.807 35.0102 56.2706 34.8398 57.1227M34.8398 62.1615C35.1664 60.8811 37.4268 60.031 38.6443 60.6398L35.1664 62.1615H34.8398ZM24.4101 65.5219C24.5451 64.8757 25.2087 63.2866 26.0883 63.5412C26.9679 63.7959 26.3969 64.5285 26.0883 64.6828L24.4101 65.5219Z" stroke="#79E0E7" stroke-width="0.3"/>
<path d="M22.8669 82.6675C24.873 76.5828 34.6018 66.78 51.4517 73.4397C51.1842 78.8558 43.8893 87.7225 22.8669 82.6675Z" fill="#79E0E7" stroke="#79E0E7" stroke-width="0.1"/>
<path d="M47.2844 74.6371C46.2926 77.7116 33.482 79.7614 27.2007 80.402C27.2007 80.1541 27.3618 79.2862 28.0064 77.7985C28.812 75.9389 47.2844 72.8395 47.6565 72.8395C47.9541 72.8395 47.5324 74.0379 47.2844 74.6371Z" fill="#CBF3F6" stroke="#79E0E7" stroke-width="0.1"/>
<path d="M42.1481 54.2535C45.6007 55.6701 52.0386 61.9561 53.3136 68.0117M18.6424 63.1512C16.8717 66.781 14.8752 75.2601 16.4688 77.5974" stroke="#79E0E7" stroke-width="0.6"/>
<path d="M80.8848 55.1405C81.4243 53.7529 80.0819 53.5345 79.3433 53.5988C79.1184 51.479 79.4615 49.4072 80.8848 48.2029C88.4005 41.8434 86.4734 54.3695 87.437 55.7185C88.4005 57.0675 86.9552 61.4998 85.8953 65.2577C84.8354 69.0155 82.5228 65.8358 82.3301 65.2577" stroke="#79E0E7" stroke-width="0.3"/>
<path d="M82.178 51.1882C85.5277 54.9767 85.0489 53.2221 85.3282 56.0136C85.5516 58.2467 84.3314 59.6823 83.6933 60.121" stroke="#79E0E7" stroke-width="0.2"/>
<path d="M82.7099 68.3956C81.8652 65.8618 79.9055 60.659 78.8245 60.1184" stroke="#79E0E7" stroke-width="0.3"/>
<path d="M46.9993 40.3957C50.1776 39.5827 54.4056 40.107 55.7362 41.0826" stroke="#79E0E7" stroke-width="0.2"/>
<path d="M14.1738 50.6499C11.5599 50.8024 8.81736 52.683 8.81738 54.169" stroke="#79E0E7" stroke-width="0.2"/>
<path d="M58.0867 50.1002C60.6203 52.3672 65.6077 57.3812 65.2876 59.3015" stroke="#79E0E7" stroke-width="0.2"/>
</svg>
