<svg width="50" height="51" viewBox="0 0 50 51" fill="none" xmlns="http://www.w3.org/2000/svg">
<g clip-path="url(#clip0)">
<path d="M20.999 7.90438L12.3105 16.5909H2.34375C1.04883 16.5909 0 17.6397 0 18.9347V32.9971C0 34.2911 1.04883 35.3409 2.34375 35.3409H12.3105L20.999 44.0274C22.4668 45.4952 25 44.4639 25 42.3702V9.56161C25 7.4659 22.4648 6.43856 20.999 7.90438ZM45.082 25.9659L49.5391 21.5089C50.1543 20.8936 50.1543 19.8956 49.5391 19.2804L47.3105 17.0518C46.6953 16.4366 45.6973 16.4366 45.082 17.0518L40.625 21.5089L36.168 17.0518C35.5527 16.4366 34.5547 16.4366 33.9395 17.0518L31.7109 19.2804C31.0957 19.8956 31.0957 20.8936 31.7109 21.5089L36.168 25.9659L31.7119 30.422C31.0967 31.0372 31.0967 32.0352 31.7119 32.6505L33.9404 34.879C34.5557 35.4942 35.5537 35.4942 36.1689 34.879L40.625 30.4229L45.082 34.88C45.6973 35.4952 46.6953 35.4952 47.3105 34.88L49.5391 32.6514C50.1543 32.0362 50.1543 31.0382 49.5391 30.4229L45.082 25.9659Z" fill="#BCB186"/>
</g>
<defs>
<clipPath id="clip0">
<rect width="50" height="50" fill="white" transform="translate(0 0.965942)"/>
</clipPath>
</defs>
</svg>
