<svg width="51" height="46" viewBox="0 0 51 46" fill="none" xmlns="http://www.w3.org/2000/svg">
<g clip-path="url(#clip0)">
<path d="M19.2898 6.91143L11.5667 14.6328H2.70736C1.55632 14.6328 0.624023 15.5651 0.624023 16.7161V29.2161C0.624023 30.3663 1.55632 31.2995 2.70736 31.2995H11.5667L19.2898 39.0208C20.5945 40.3255 22.8462 39.4088 22.8462 37.5477V8.38452C22.8462 6.52168 20.5928 5.60848 19.2898 6.91143ZM39.5433 2.47741C38.5737 1.84112 37.2707 2.10935 36.6344 3.0807C35.9973 4.05032 36.2681 5.35327 37.2377 5.98956C42.9903 9.76473 46.4235 16.1111 46.4235 22.967C46.4235 29.8229 42.9903 36.1692 37.2377 39.9444C36.2681 40.5798 35.9973 41.8837 36.6344 42.8524C37.2455 43.7821 38.5381 44.1163 39.5433 43.4557C46.4808 38.9019 50.624 31.2413 50.624 22.9661C50.624 14.6909 46.4808 7.03123 39.5433 2.47741ZM42.2907 22.9661C42.2907 17.4514 39.5077 12.3811 34.8454 9.40362C33.874 8.78383 32.5858 9.07202 31.9704 10.0512C31.3549 11.0304 31.6423 12.3264 32.6136 12.947C36.0641 15.151 38.124 18.8958 38.124 22.9661C38.124 27.0364 36.0641 30.7812 32.6136 32.9852C31.6423 33.605 31.3549 34.901 31.9704 35.8811C32.5355 36.7804 33.8037 37.1953 34.8454 36.5286C39.5077 33.5512 42.2907 28.4817 42.2907 22.9661ZM29.9843 16.2934C28.9791 15.7439 27.7108 16.1059 27.1535 17.1137C26.5988 18.1215 26.966 19.388 27.9738 19.9444C29.0945 20.5599 29.7907 21.7187 29.7907 22.9661C29.7907 24.2144 29.0945 25.3724 27.9747 25.9878C26.9669 26.5442 26.5997 27.8107 27.1544 28.8186C27.7126 29.8307 28.9817 30.1901 29.9851 29.6389C32.4357 28.289 33.9582 25.7326 33.9582 22.9653C33.9582 20.1979 32.4357 17.6423 29.9843 16.2934Z" fill="#584737"/>
</g>
<defs>
<clipPath id="clip0">
<rect width="50" height="44.4444" fill="white" transform="translate(0.624023 0.743896)"/>
</clipPath>
</defs>
</svg>
