<svg width="51" height="46" viewBox="0 0 51 46" fill="none" xmlns="http://www.w3.org/2000/svg">
<g clip-path="url(#clip0)">
<path d="M19.2898 7.13348L11.5667 14.8548H2.70736C1.55632 14.8548 0.624023 15.7871 0.624023 16.9382V29.4382C0.624023 30.5883 1.55632 31.5215 2.70736 31.5215H11.5667L19.2898 39.2429C20.5945 40.5475 22.8462 39.6309 22.8462 37.7698V8.60657C22.8462 6.74372 20.5928 5.83053 19.2898 7.13348ZM39.5433 2.69945C38.5737 2.06317 37.2707 2.3314 36.6344 3.30275C35.9973 4.27237 36.2681 5.57532 37.2377 6.2116C42.9903 9.98678 46.4235 16.3331 46.4235 23.189C46.4235 30.0449 42.9903 36.3913 37.2377 40.1665C36.2681 40.8019 35.9973 42.1057 36.6344 43.0745C37.2455 44.0041 38.5381 44.3383 39.5433 43.6778C46.4808 39.1239 50.624 31.4633 50.624 23.1882C50.624 14.913 46.4808 7.25327 39.5433 2.69945ZM42.2907 23.1882C42.2907 17.6734 39.5077 12.6031 34.8454 9.62567C33.874 9.00588 32.5858 9.29407 31.9704 10.2732C31.3549 11.2524 31.6423 12.5484 32.6136 13.1691C36.0641 15.3731 38.124 19.1179 38.124 23.1882C38.124 27.2585 36.0641 31.0033 32.6136 33.2073C31.6423 33.8271 31.3549 35.1231 31.9704 36.1031C32.5355 37.0024 33.8037 37.4173 34.8454 36.7507C39.5077 33.7732 42.2907 28.7038 42.2907 23.1882ZM29.9843 16.5154C28.9791 15.9659 27.7108 16.3279 27.1535 17.3357C26.5988 18.3435 26.966 19.61 27.9739 20.1665C29.0945 20.7819 29.7907 21.9408 29.7907 23.1882C29.7907 24.4364 29.0945 25.5944 27.9747 26.2099C26.9669 26.7663 26.5997 28.0328 27.1544 29.0406C27.7126 30.0528 28.9817 30.4121 29.9851 29.8609C32.4357 28.5111 33.9582 25.9547 33.9582 23.1873C33.9582 20.4199 32.4357 17.8644 29.9843 16.5154Z" fill="#BCB186"/>
</g>
<defs>
<clipPath id="clip0">
<rect width="50" height="44.4444" fill="white" transform="translate(0.624023 0.965942)"/>
</clipPath>
</defs>
</svg>
