<svg width="1515" height="720" viewBox="0 0 1515 720" fill="none" xmlns="http://www.w3.org/2000/svg">
<g clip-path="url(#clip0)">
<rect width="1514" height="720" transform="translate(0.772461)" fill="white"/>
<rect x="-14.3667" y="-6.54968" width="1632.99" height="601.006" fill="#79E0E7"/>
<path d="M1618.62 770.509V525.37L-14.3623 526.049V769.847L1618.62 770.509Z" fill="#E58E47"/>
<line y1="-2" x2="214.054" y2="-2" transform="matrix(0.49885 -0.866689 0.86536 0.501151 386.871 773.273)" stroke="#D3723E" stroke-width="4"/>
<line x1="685.133" y1="772.403" x2="790.672" y2="582.005" stroke="#D3723E" stroke-width="4"/>
<line x1="992.29" y1="771.852" x2="1079.79" y2="600.13" stroke="#D3723E" stroke-width="4"/>
<line x1="1260.46" y1="774.642" x2="1365.82" y2="526.43" stroke="#D3723E" stroke-width="4"/>
<path d="M-14.5889 -8.03113H122.11L1366.62 672.286L-14.5889 702.533V-8.03113Z" fill="black" fill-opacity="0.1"/>
<path d="M126.622 11.3184L220.173 -17.5513L1459.91 -17.5513V530.605L1366.87 667.074H126.622V11.3184Z" fill="#E0874E"/>
<rect x="126.141" y="-17.5513" width="1240.48" height="684.793" fill="#FEA966"/>
<rect x="189.614" y="35.9989" width="1108.86" height="570.238" fill="#CD6353"/>
<path d="M295.199 499.841L189.614 606.237V35.9989H295.199V499.841Z" fill="#B35242"/>
<path d="M1298.71 500.029H297.744L189.614 606.237H1298.71V500.029Z" fill="#E0874F"/>
<line x1="1507.12" y1="773.88" x2="1612.48" y2="525.667" stroke="#D3723E" stroke-width="4"/>
<path d="M309.961 719.915C229.924 573.275 70.6347 556.982 0.994629 567.165V719.915H309.961Z" fill="#58F8CA"/>
<path d="M0.772461 581.179C93.8235 616.515 156.095 685.059 176.708 719.904H0.772461V581.179Z" fill="#FA5075"/>
<path d="M0.960449 702.533V719.889H5.00892L0.960449 702.533Z" fill="#FAFA3A"/>
<path d="M47.1032 606.25C48.6298 572.538 16.9954 567.608 0.987305 569.357V652.048C32.3143 642.188 47.1032 615.95 47.1032 606.25Z" fill="#D27492"/>
<path d="M71.4369 616.792C194.878 590.618 249.359 674.692 261.17 720H114.896C113.245 716.356 105.868 714.521 102.386 714.059C57.4659 709.306 37.0987 690.562 32.5301 681.784C12.7229 641.462 50.215 621.655 71.4369 616.792Z" fill="white" fill-opacity="0.25"/>
<path d="M1188.01 720C1189.07 711.527 1195.63 697.653 1213.43 709.938L1217.13 720H1274.86C1272.74 712.057 1273.05 695.534 1291.27 692.993C1296.39 694.228 1306.63 701.36 1306.63 720H1329.4L1315.1 684.52C1316.69 676.753 1324.42 663.973 1342.64 674.988L1358 720H1371.23C1367.53 712.233 1362.34 695.111 1371.23 688.756C1374.94 687.344 1384.16 685.367 1391.36 688.756C1393.83 694.934 1399.09 709.197 1400.36 716.823H1405.66C1402.83 702.348 1398.88 672.811 1405.66 665.185C1408.58 660.128 1420.92 655.881 1427.37 663.867C1431.03 666.601 1435.28 676.108 1435.28 709.686L1450.65 706.247V702.606C1447.55 695.325 1442.28 678.778 1446 670.849C1449.23 665.253 1458.62 657.216 1470.27 669.838C1471.69 672.265 1474.52 678.94 1474.52 686.222C1475.33 686.155 1477.47 688.771 1479.58 699.775L1493.13 697.347V640.71C1495.02 634.777 1501.99 625.297 1514.77 634.844V720H1371.23H1358H1329.4H1306.63H1274.86H1217.13H1188.01Z" fill="#FFFF93"/>
</g>
<defs>
<clipPath id="clip0">
<rect width="1514" height="720" fill="white" transform="translate(0.772461)"/>
</clipPath>
</defs>
</svg>
