<svg width="1516" height="720" viewBox="0 0 1516 720" fill="none" xmlns="http://www.w3.org/2000/svg">
<g clip-path="url(#clip0)">
<rect width="1515" height="720" transform="translate(0.772461)" fill="white"/>
<rect x="0.771973" width="1515" height="720" fill="#79E0E7"/>
<path d="M-53.6938 148.548L241.41 69.8989L108.647 148.548V720H-53.6938L-53.6938 148.548Z" fill="black" fill-opacity="0.1"/>
<path d="M108.421 148.661L241.409 69.7619H1448.62V720H109.136L108.421 148.661Z" fill="#E0874E"/>
<path d="M108.429 148.661L1354.9 148.276V720H108.653L108.429 148.661Z" fill="#FEA966"/>
<rect x="172.025" y="195.863" width="1130.92" height="506.262" fill="#CD6353"/>
<path d="M281.955 608.59L172.008 702.107L169.666 195.894H279.71L281.955 608.59Z" fill="#B35242"/>
<path d="M1302.98 608.584L282.022 608.584L172.059 702.093H1302.98V608.584Z" fill="#E0874F"/>
<line y1="-0.5" x2="122.315" y2="-0.5" transform="matrix(-0.766378 0.64239 -0.736381 -0.676567 1448.64 69.7619)" stroke="black" stroke-opacity="0.07"/>
<ellipse rx="112.422" ry="21.253" transform="matrix(0.995509 0.0946716 -0.118714 0.992929 1032.51 125.762)" fill="black" fill-opacity="0.2"/>
<path d="M1052.34 18.2221C1016.99 13.3713 995.686 42.4762 989.454 57.6351L1038.75 63.6984C1037.39 60.0603 1046.11 43.9919 1050.64 36.4125C1054.72 29.1363 1053.48 21.2538 1052.34 18.2221Z" fill="#FDCD3B"/>
<path d="M1038.74 60.6666C1012.91 49.7523 995.119 52.0764 991.153 54.6029C992.853 50.0553 994.552 48.5394 996.252 45.5077C1004.41 40.6568 1030.81 49.5502 1040.44 54.6031V56.119L1038.74 60.6666Z" fill="#F3B759"/>
<path d="M1047.24 42.4761C1026.85 32.7744 1009.28 31.3599 1006.45 33.3811C1013.25 27.3176 1014.95 26.8123 1016.65 25.8017C1024.81 20.9509 1043.84 32.3702 1050.64 36.4125L1047.24 42.4761Z" fill="#F5B752"/>
<path d="M953.76 104.627C908.889 76.7351 944.129 61.6773 967.358 57.635C1029.91 46.7207 1111.26 92.5003 1144.13 116.754C1153.64 120.392 1148.09 123.323 1144.13 124.334C1039.42 140.099 973.59 117.765 953.76 104.627Z" fill="#77D4B5"/>
<path d="M938.463 65.2143C946.962 88.4578 1007.47 133.429 1140.73 115.238C1104.47 86.9418 1005.09 34.8966 938.463 65.2143Z" fill="#85E8CB"/>
<path d="M965.658 57.6347C976.989 63.6982 1016.65 77.6445 1077.84 78.8572C1043.84 60.6666 994.552 51.5714 965.658 57.6347Z" fill="#8CFDD7"/>
<path d="M940.163 66.7302C946.961 60.6666 966.273 58.4425 965.658 57.6349C973.816 68.5492 986.054 76.3307 991.153 77.3413V94.016C985.714 97.6541 974.156 97.5531 969.057 97.0478C947.301 87.3461 940.163 71.7831 940.163 66.7302Z" fill="#A3F6DA"/>
<path d="M941.863 65.2142C948.662 59.1507 960.559 59.1507 960.559 59.1507C963.279 66.4269 977.556 77.3413 984.355 80.3731V90.9842H969.058C951.381 86.1334 942.429 70.7724 941.863 65.2142Z" fill="#7CC5A6"/>
<ellipse cx="1011.55" cy="92.5001" rx="11.8978" ry="10.6112" fill="#A8FCDB"/>
<ellipse cx="1011.55" cy="92.5001" rx="8.49844" ry="7.57941" fill="#7DCFB1"/>
<ellipse cx="1079.54" cy="107.659" rx="11.8978" ry="10.6112" fill="#A8FCDB"/>
<ellipse cx="1079.54" cy="107.659" rx="8.49844" ry="7.57941" fill="#7DCFB1"/>
<ellipse cx="1045.54" cy="101.595" rx="11.8978" ry="10.6112" fill="#A8FCDB"/>
<ellipse cx="1045.54" cy="101.595" rx="8.49844" ry="7.57941" fill="#7DCFB1"/>
<ellipse rx="4.8054" ry="16.0413" transform="matrix(0.961078 0.276278 -0.339891 0.940465 940.381 57.7194)" fill="#F2C744"/>
<ellipse rx="4.8054" ry="16.0413" transform="matrix(0.961078 0.276278 -0.339891 0.940465 928.137 89.2076)" fill="#F2C744"/>
<ellipse cx="933.363" cy="74.3096" rx="5.09907" ry="4.54764" fill="#7DC1A8"/>
<path d="M1030.25 119.786C1015.29 107.659 990.02 107.659 979.255 109.175C973.816 160.109 1001.92 180.927 1016.65 184.969C1024.81 182.543 1026.85 173.852 1026.85 169.81L1030.25 119.786Z" fill="#FEC73C"/>
<path d="M1026.85 160.714C1006.45 153.438 991.72 157.683 987.754 160.714C986.054 157.683 982.655 151.62 984.355 151.619C992.513 143.13 1017.78 149.093 1028.55 153.135C1027.79 152.857 1028.55 160.714 1026.85 160.714Z" fill="#F2B355"/>
<path d="M980.955 136.461C979.255 142.524 977.556 121.302 979.255 124.333C984.628 115.948 1015.87 120.678 1029.74 125.665C1029.91 125.726 1030.08 125.788 1030.25 125.85L1029.74 125.665L1028.55 141.008V139.492C994.552 124.334 981.538 134.381 980.955 136.461Z" fill="#F5B655"/>
<path d="M1152.62 148.588C1141.75 153.439 1117.5 136.461 1106.73 127.365C1105.37 120.089 1125.43 120.291 1135.63 121.302C1150.58 133.429 1153.19 144.545 1152.62 148.588Z" fill="#FDC439"/>
<path d="M1142.42 118.27C1128.83 115.845 1116.36 105.132 1111.83 100.08C1117.27 86.7398 1137.89 82.3943 1147.52 81.889C1152.96 89.1652 1146.39 109.175 1142.42 118.27Z" fill="#FCC13F"/>
<path d="M1145.82 84.9207C1139.03 83.708 1123.73 98.0584 1116.93 104.627C1116.55 104.997 1113.53 103.111 1111.83 100.08C1116.93 86.4366 1139.03 81.889 1147.52 81.889L1145.82 84.9207Z" fill="#F8ED91"/>
</g>
<defs>
<clipPath id="clip0">
<rect width="1515" height="720" fill="white" transform="translate(0.772461)"/>
</clipPath>
</defs>
</svg>
