<svg width="1516" height="721" viewBox="0 0 1516 721" fill="none" xmlns="http://www.w3.org/2000/svg">
<rect x="0.307617" y="0.196167" width="1515" height="720" fill="#79E0E7"/>
<path d="M0.307617 0.196167H122.998V720.196H0.307617V0.196167Z" fill="black" fill-opacity="0.1"/>
<path d="M123.478 720.196V0.196167L1455.69 0.19617V720.196H123.478Z" fill="#E0874E"/>
<rect x="122.998" y="0.196167" width="1239.48" height="720" fill="#FEA966"/>
<rect x="189.211" y="0.196167" width="1105.61" height="46.0679" fill="#CD6353"/>
<rect x="189.211" y="126.055" width="1105.61" height="477.978" fill="#CD6353"/>
<rect x="186.419" y="679.683" width="1107.97" height="40.5132" fill="#CD6353"/>
<path d="M189.14 0.19623L250.025 0.196167L189.14 46.2885V0.19623Z" fill="#B35242"/>
<path d="M1294.82 0.196167H251.49L189.268 46.2884H1294.82V0.196167Z" fill="#E0874F"/>
<path d="M294.487 522.391L189.14 604.04V126.002L294.487 126.002V522.391Z" fill="#B35242"/>
<path d="M1294.78 522.579L294.499 521.82L189.201 604.04H1294.78V522.579Z" fill="#E0874F"/>
<path d="M291.919 720.196H186.419V679.617L291.919 679.617V720.196Z" fill="#B35242"/>
</svg>
