<svg width="171" height="191" viewBox="0 0 171 191" fill="none" xmlns="http://www.w3.org/2000/svg">
<path d="M8.63403 161.882L0.914551 15.0796L161.366 181.643C108.446 194.371 59.2098 190.017 40.1183 190.352C24.8451 190.619 19.0171 186.221 18.0123 183.988L8.63403 161.882Z" fill="black" fill-opacity="0.15"/>
<path d="M1.08838 14.0179L10.264 120.521C14.342 135.668 22.498 167.098 22.498 171.642C22.498 176.186 29.6345 179.689 33.2027 180.872C37.7905 196.493 153.249 183.712 163.189 180.872C171.141 178.6 170.58 100.403 169.306 61.5891L163.189 5.4976C138.721 -6.99873 44.9268 5.97098 1.08838 14.0179Z" fill="#FCFEE6"/>
<path d="M64.6466 164.033C63.7327 164.033 60.7625 162.509 59.3916 161.748C88.2714 161.748 101.432 147.43 104.402 140.271C123.777 138.443 136.846 130.37 140.959 126.562C168.376 103.897 159.389 65.9387 151.469 49.7928C155.048 51.3921 163.563 63.0013 160.837 96.1741C158.095 129.532 124.28 140.956 106.687 142.555C97.0907 162.433 65.789 164.033 64.6466 164.033Z" fill="#B9B9B9"/>
<path d="M70.3595 142.327C64.876 145.069 46.1407 135.092 37.4585 129.761C53.3607 138.534 66.78 140.423 71.5019 140.271L70.3595 142.327Z" fill="#B9B9B9"/>
<path d="M67.3892 63.5021C67.3892 64.8328 60.7633 59.3134 58.25 56.8762C66.4753 42.7105 76.7568 38.5979 92.9789 40.8827C105.957 42.7105 112.247 54.363 114.227 60.075C114.459 63.6748 114.141 66.7769 113.419 69.4426C113.156 71.8797 112.537 76.9367 112.171 77.6679C111.714 78.5818 108.059 86.5786 93.2074 88.6349C92.9789 94.5754 92.9332 107.187 93.6643 109.198C91.0749 109.96 84.9821 111.391 81.3264 111.026C80.1079 110.417 77.7165 109.152 77.8992 108.97C77.6708 108.741 77.2595 108.193 77.4423 107.827C75.7972 107.827 75.4621 88.3303 75.6144 78.5818C93.2074 77.4394 94.8067 66.9293 92.5219 60.075C92.0627 59.6157 91.6056 59.1907 91.1511 58.7982C81.098 52.9518 73.5581 63.2737 72.8727 63.9591C72.3243 64.5075 68.9885 63.8829 67.3892 63.5021Z" fill="#84C899"/>
<path d="M93.4358 117.88C87.7696 111.3 81.9357 115.139 79.7271 117.88C75.8886 127.751 84.0682 129.609 88.6378 129.304C96.3147 127.111 95.0352 120.774 93.4358 117.88Z" fill="#84C899"/>
<path d="M67.3892 63.5021C67.3892 64.8328 60.7633 59.3134 58.25 56.8762C66.4753 42.7105 76.7568 38.5979 92.9789 40.8827C105.957 42.7105 112.247 54.363 114.227 60.075C114.459 63.6748 114.141 66.7769 113.419 69.4426M67.3892 63.5021C68.9885 63.8829 72.3243 64.5075 72.8727 63.9591C73.5581 63.2737 81.098 52.9518 91.1511 58.7982M67.3892 63.5021C67.3892 62.6194 78.2613 47.6668 91.1511 58.7982M77.4423 107.827C75.7972 107.827 75.4621 88.3303 75.6144 78.5818C93.2074 77.4394 94.8067 66.9293 92.5219 60.075C92.0627 59.6157 91.6056 59.1907 91.1511 58.7982M77.4423 107.827C79.0873 107.827 88.3331 107.218 92.7504 106.913L92.065 84.5223C98.5545 84.6471 110.146 81.5306 113.419 69.4426M77.4423 107.827C77.2595 108.193 77.6708 108.741 77.8992 108.97C77.7165 109.152 80.1079 110.417 81.3264 111.026C84.9821 111.391 91.0749 109.96 93.6643 109.198C92.9332 107.187 92.9789 94.5754 93.2074 88.6349C108.059 86.5786 111.714 78.5818 112.171 77.6679C112.537 76.9367 113.156 71.8797 113.419 69.4426M83.8397 98.4595C83.8397 98.0026 83.7483 97.5456 84.2967 97.5456C84.845 97.5456 84.7536 97.8502 84.5251 98.231C84.449 98.3072 84.2053 98.4595 83.8397 98.4595ZM86.5815 99.3734C86.7338 99.145 86.6729 98.5052 87.0384 98.688C87.4954 98.9165 87.2669 99.3734 87.0384 99.3734C86.8861 99.4496 86.7185 100.013 86.353 99.8304C86.2768 99.7542 86.3987 99.739 86.5815 99.3734ZM79.7271 117.88C81.9357 115.139 87.7696 111.3 93.4358 117.88C95.0352 120.774 96.3147 127.111 88.6378 129.304C84.0682 129.609 75.8886 127.751 79.7271 117.88ZM99.8333 68.7572C99.6048 68.4525 99.2849 68.4373 99.8333 68.0717C100.382 67.7062 100.443 68.8333 100.519 69.4426C100.29 68.9857 100.199 69.1227 99.8333 68.7572ZM102.575 67.6148C102.651 67.3863 102.255 66.7466 102.804 66.9293C103.352 67.1121 103.184 67.8433 103.032 68.3002C102.575 68.4525 102.392 68.8943 102.575 67.6148ZM75.1575 49.5649C75.2336 49.3364 75.5687 48.8795 76.2999 48.8795C77.2138 48.8795 75.8429 49.7934 75.6144 49.7934C75.386 49.7934 74.7005 50.2503 75.1575 49.5649ZM79.0416 47.9655C79.0416 48.2702 79.0416 48.3768 79.9556 48.194C80.1079 47.9655 80.5953 47.9198 80.4125 47.7371C80.184 47.5086 79.2701 47.2801 79.0416 47.9655ZM85.4391 123.135C84.7536 123.211 83.3827 122.496 83.3827 121.764C83.3827 121.033 84.1443 122.374 84.2967 122.45C84.8298 122.602 85.4391 122.724 85.4391 122.907C85.4391 123.09 85.4391 122.983 85.4391 123.135ZM86.5815 121.079C86.5053 120.698 85.8046 120.165 86.353 120.165C86.9013 120.165 87.3431 121.079 87.4954 121.536C87.4954 121.688 87.404 121.993 87.0384 121.993C86.5815 121.993 86.5815 121.307 86.5815 121.079Z" stroke="#3B5C45" stroke-width="0.5"/>
<path d="M72.6438 63.9587L68.0742 63.2733L69.2166 61.4454C72.6438 56.1904 80.4121 53.9056 84.5247 55.2765L87.2665 56.6473C81.783 55.7334 73.3292 61.6739 72.6438 63.9587Z" fill="#4B8E41"/>
<path d="M92.75 88.1776L92.5215 84.9789L94.1208 84.7504C103.032 82.6941 105.088 81.3232 106.002 80.8663C106.733 80.5007 109.353 77.7437 110.571 76.2967L110.571 76.2966C110.754 75.931 111.942 73.5549 112.399 73.3264C113.313 77.2106 108.744 82.0087 107.601 82.4656C101.569 87.4008 95.0348 88.4822 92.75 88.1776Z" fill="#4A8F3C"/>
<path d="M59.3924 155.808C63.962 153.675 73.1469 146.349 73.3297 134.102C55.3559 133.721 19.637 122.815 20.5509 82.2372C18.4946 63.8827 28.045 27.3564 82.6973 28.0876C103.26 28.0876 142.742 29.6412 150.784 66.0152C154.668 82.7703 155.674 118.977 121.31 129.761C113.314 131.665 97.9141 135.199 100.29 134.102C97.8531 141.337 86.2616 155.808 59.3924 155.808Z" stroke="#898989" stroke-width="0.5"/>
<path d="M58.7063 159.006C73.0243 158.701 95.4001 154.162 102.346 137.529C119.482 135.93 156.678 128.298 156.496 84.9787C156.496 61.9023 151.012 27.1734 90.9219 24.8886C67.1071 23.9831 37.1835 27.5846 24.2059 49.3359C16.2853 66.7765 8.66928 102.8 34.9444 124.734C39.2094 128.923 60.5798 137.529 71.7296 137.529" stroke="#EBEBEB"/>
</svg>
