<svg width="184" height="203" viewBox="0 0 184 203" fill="none" xmlns="http://www.w3.org/2000/svg">
<path d="M15.5017 168.774L7.78223 21.9719L168.234 188.535C115.313 201.263 66.0775 196.909 46.986 197.244C31.7128 197.512 25.8848 193.113 24.88 190.88L15.5017 168.774Z" fill="black" fill-opacity="0.15"/>
<path d="M13.6446 127.713L13.6713 128.023L13.7521 128.323C15.787 135.881 18.8389 147.501 21.38 157.789C22.6513 162.936 23.7891 167.727 24.607 171.501C25.0164 173.39 25.3399 174.998 25.5593 176.256C25.7936 177.599 25.8657 178.308 25.8657 178.534C25.8657 182.638 28.9743 185.565 31.3467 187.259C33.3743 188.706 35.6644 189.824 37.5333 190.563C38.2287 191.668 39.1792 192.549 40.181 193.245C41.678 194.284 43.5219 195.076 45.5128 195.704C49.4977 196.96 54.726 197.757 60.632 198.242C72.4917 199.215 87.8491 198.984 103.238 198.183C118.657 197.38 134.233 195.998 146.581 194.638C152.755 193.959 158.138 193.283 162.302 192.685C166.368 192.102 169.505 191.562 171.018 191.13C172.774 190.628 173.836 189.284 174.435 188.303C175.086 187.239 175.59 185.95 176.002 184.602C176.832 181.885 177.487 178.26 178.018 174.066C179.086 165.636 179.725 154.3 180.073 141.925C180.771 117.143 180.31 87.8139 179.672 68.3666L179.667 68.234L179.653 68.102L173.536 12.0105L173.331 10.1323L171.648 9.27293C164.771 5.76052 153.613 4.23556 140.683 3.81956C127.574 3.3978 112.037 4.10995 95.9773 5.45865C63.8476 8.15689 29.3225 13.4298 7.32416 17.4677L4.19597 18.0419L4.46897 21.2106L13.6446 127.713Z" fill="#FCFEE6" stroke="#FFFF93" stroke-width="7"/>
<path d="M71.5143 170.925C70.6004 170.925 67.6302 169.402 66.2593 168.64C95.1391 168.64 108.3 154.322 111.27 147.163C130.645 145.335 143.714 137.262 147.826 133.454C175.244 110.789 166.257 72.831 158.337 56.6851C161.916 58.2845 170.431 69.8936 167.704 103.066C164.962 136.424 131.147 147.848 113.555 149.448C103.958 169.326 72.6567 170.925 71.5143 170.925Z" fill="#B9B9B9"/>
<path d="M77.2272 149.219C71.7437 151.961 53.0084 141.984 44.3262 136.653C60.2283 145.427 73.6477 147.315 78.3696 147.163L77.2272 149.219Z" fill="#B9B9B9"/>
<path d="M74.2569 70.3945C74.2569 71.7252 67.631 66.2057 65.1177 63.7686C73.3429 49.6028 83.6245 45.4902 99.8466 47.775C112.824 49.6028 119.115 61.2553 121.095 66.9673C121.326 70.5671 121.009 73.6692 120.287 76.335C120.023 78.7721 119.404 83.8291 119.039 84.5602C118.582 85.4741 114.926 93.4709 100.075 95.5272C99.8466 101.468 99.8009 114.08 100.532 116.09C97.9426 116.852 91.8498 118.284 88.1941 117.918C86.9756 117.309 84.5841 116.045 84.7669 115.862C84.5384 115.633 84.1272 115.085 84.31 114.72C82.6649 114.72 82.3298 95.2226 82.4821 85.4741C100.075 84.3317 101.674 73.8217 99.3896 66.9673C98.9304 66.5081 98.4733 66.0831 98.0187 65.6905C87.9656 59.8441 80.4258 70.166 79.7404 70.8514C79.192 71.3998 75.8562 70.7753 74.2569 70.3945Z" fill="#84C899"/>
<path d="M100.304 124.773C94.6372 118.192 88.8034 122.031 86.5948 124.773C82.7563 134.643 90.9359 136.501 95.5055 136.197C103.182 134.003 101.903 127.667 100.304 124.773Z" fill="#84C899"/>
<path d="M74.2569 70.3945C74.2569 71.7252 67.631 66.2057 65.1177 63.7686C73.3429 49.6028 83.6245 45.4902 99.8466 47.775C112.824 49.6028 119.115 61.2553 121.095 66.9673C121.326 70.5671 121.009 73.6692 120.287 76.335M74.2569 70.3945C75.8562 70.7753 79.192 71.3998 79.7404 70.8514C80.4258 70.166 87.9656 59.8441 98.0187 65.6905M74.2569 70.3945C74.2569 69.5117 85.1289 54.5591 98.0187 65.6905M84.31 114.72C82.6649 114.72 82.3298 95.2226 82.4821 85.4741C100.075 84.3317 101.674 73.8217 99.3896 66.9673C98.9304 66.5081 98.4733 66.0831 98.0187 65.6905M84.31 114.72C85.955 114.72 95.2008 114.11 99.6181 113.806L98.9326 91.4146C105.422 91.5394 117.014 88.4229 120.287 76.335M84.31 114.72C84.1272 115.085 84.5384 115.633 84.7669 115.862C84.5841 116.045 86.9756 117.309 88.1941 117.918C91.8498 118.284 97.9426 116.852 100.532 116.09C99.8009 114.08 99.8466 101.468 100.075 95.5272C114.926 93.4709 118.582 85.4741 119.039 84.5602C119.404 83.8291 120.023 78.7721 120.287 76.335M90.7074 105.352C90.7074 104.895 90.616 104.438 91.1643 104.438C91.7127 104.438 91.6213 104.743 91.3928 105.123C91.3167 105.2 91.073 105.352 90.7074 105.352ZM93.4491 106.266C93.6015 106.037 93.5405 105.398 93.9061 105.58C94.3631 105.809 94.1346 106.266 93.9061 106.266C93.7538 106.342 93.5862 106.906 93.2207 106.723C93.1445 106.647 93.2664 106.631 93.4491 106.266ZM86.5948 124.773C88.8034 122.031 94.6372 118.192 100.304 124.773C101.903 127.667 103.182 134.003 95.5055 136.197C90.9359 136.501 82.7563 134.643 86.5948 124.773ZM106.701 75.6495C106.472 75.3449 106.153 75.3296 106.701 74.9641C107.249 74.5985 107.31 75.7257 107.386 76.335C107.158 75.878 107.067 76.0151 106.701 75.6495ZM109.443 74.5071C109.519 74.2786 109.123 73.6389 109.671 73.8217C110.22 74.0045 110.052 74.7356 109.9 75.1926C109.443 75.3449 109.26 75.7866 109.443 74.5071ZM82.0252 56.4572C82.1013 56.2288 82.4364 55.7718 83.1676 55.7718C84.0815 55.7718 82.7106 56.6857 82.4821 56.6857C82.2536 56.6857 81.5682 57.1427 82.0252 56.4572ZM85.9093 54.8579C85.9093 55.1625 85.9093 55.2691 86.8232 55.0864C86.9756 54.8579 87.463 54.8122 87.2802 54.6294C87.0517 54.4009 86.1378 54.1724 85.9093 54.8579ZM92.3067 130.028C91.6213 130.104 90.2504 129.388 90.2504 128.657C90.2504 127.926 91.012 129.266 91.1643 129.342C91.6975 129.495 92.3067 129.616 92.3067 129.799C92.3067 129.982 92.3067 129.875 92.3067 130.028ZM93.4491 127.971C93.373 127.591 92.6723 127.057 93.2207 127.057C93.769 127.057 94.2107 127.971 94.3631 128.428C94.3631 128.581 94.2717 128.885 93.9061 128.885C93.4491 128.885 93.4491 128.2 93.4491 127.971Z" stroke="#3B5C45" stroke-width="0.5"/>
<path d="M79.5115 70.851L74.9419 70.1656L76.0843 68.3378C79.5115 63.0827 87.2798 60.7979 91.3924 62.1688L94.1342 63.5397C88.6507 62.6258 80.1969 68.5662 79.5115 70.851Z" fill="#4B8E41"/>
<path d="M99.6176 95.0699L99.3892 91.8712L100.989 91.6428C109.899 89.5864 111.956 88.2156 112.869 87.7586C113.601 87.393 116.22 84.636 117.439 83.189L117.439 83.189C117.622 82.8233 118.81 80.4472 119.267 80.2188C120.181 84.1029 115.611 88.901 114.469 89.358C108.437 94.2931 101.902 95.3746 99.6176 95.0699Z" fill="#4A8F3C"/>
<path d="M66.2601 162.7C70.8297 160.567 80.0146 153.241 80.1973 140.994C62.2236 140.614 26.5046 129.708 27.4186 89.1296C25.3623 70.775 34.9127 34.2488 89.565 34.9799C110.128 34.9799 149.609 36.5336 157.652 72.9075C161.536 89.6627 162.541 125.869 128.178 136.653C120.181 138.557 104.782 142.091 107.158 140.994C104.721 148.23 93.1293 162.7 66.2601 162.7Z" stroke="#898989" stroke-width="0.5"/>
<path d="M65.574 165.898C79.892 165.594 102.268 161.055 109.214 144.421C126.35 142.822 163.546 135.191 163.363 91.871C163.363 68.7946 157.88 34.0657 97.7896 31.7809C73.9747 30.8754 44.0512 34.477 31.0736 56.2282C23.153 73.6688 15.537 109.692 41.8121 131.626C46.0771 135.815 67.4475 144.421 78.5973 144.421" stroke="#EBEBEB"/>
</svg>
