<svg width="178" height="91" viewBox="0 0 178 91" fill="none" xmlns="http://www.w3.org/2000/svg">
<path d="M0.0561523 90.9596H155.119L158.447 88.2186L176.023 72.3435L176.647 10.0481L21.3758 71.5117L0.0561523 90.9596Z" fill="black" fill-opacity="0.2"/>
<path d="M15.791 78.6325L43.9663 0.474609H171.721L151.871 78.8824L15.791 78.6325Z" fill="url(#paint0_linear)"/>
<path d="M77.9908 13.7904C79.0716 9.9308 82.6865 9.35184 84.3589 9.54481H100.762C104.622 9.54481 104.558 12.3752 104.043 13.7904L97.4818 33.6677C96.0923 37.8361 93.6865 38.7495 92.6572 38.6852H74.131C69.6538 38.5308 70.4643 35.2758 71.4292 33.6677L77.9908 13.7904Z" fill="#66517A"/>
<path d="M123.5 13.6539C124.325 9.73153 127.894 8.91615 129.575 8.99875L145.943 7.92028C149.794 7.66652 149.916 10.495 149.496 11.941L144.256 32.2066C143.143 36.4574 140.803 37.527 139.771 37.5305L121.285 38.7485C116.807 38.8889 117.402 35.5876 118.259 33.9195L123.5 13.6539Z" fill="#FFFFC7"/>
<ellipse cx="133.618" cy="23.5686" rx="7.20797" ry="8.41407" transform="rotate(8.41608 133.618 23.5686)" fill="#FA5075"/>
<path d="M136.131 19.8714C137.901 16.2754 141.561 16.3692 143.169 16.8656L159.295 19.8736C163.089 20.5814 162.507 23.352 161.741 24.6488L151.646 42.9858C149.516 46.8287 146.983 47.2855 145.983 47.0335L127.771 43.6362C123.398 42.6635 124.792 39.6123 126.035 38.2083L136.131 19.8714Z" fill="#66517A"/>
<path d="M94.3072 48.4308C95.388 44.5712 99.003 43.9922 100.675 44.1852H117.079C120.939 44.1852 120.874 47.0156 120.36 48.4308L113.798 68.308C112.409 72.4765 110.003 73.3899 108.974 73.3256H90.4474C85.9702 73.1712 86.7807 69.9162 87.7456 68.308L94.3072 48.4308Z" fill="#66517A"/>
<path d="M36.5147 48.463C37.5955 44.6034 41.2105 44.0244 42.8829 44.2174H59.2864C63.1461 44.2174 63.0817 47.0478 62.5671 48.463L56.0057 68.3403C54.6162 72.5087 52.2104 73.4221 51.1812 73.3578H32.6549C28.1777 73.2034 28.9882 69.9485 29.9532 68.3403L36.5147 48.463Z" fill="#66517A"/>
<path d="M23.8963 88.0885H158.791L151.844 78.8254L15.7983 78.561L23.8963 88.0885Z" fill="#5687AB"/>
<path d="M177.124 9.73779L171.528 0.474609L151.8 78.811L158.796 88.1277L177.124 9.73779Z" fill="url(#paint1_linear)"/>
<path d="M48.5982 13.7904C49.679 9.9308 53.294 9.35184 54.9664 9.54481H71.3699C75.2296 9.54481 75.1652 12.3752 74.6506 13.7904L68.0892 33.6677C66.6997 37.8361 64.2939 38.7495 63.2647 38.6852H44.7384C40.2612 38.5308 41.0717 35.2758 42.0366 33.6677L48.5982 13.7904Z" fill="#FFFFC7"/>
<path d="M59.5361 12.6143L60.9291 20.5359L68.6624 21.5489L61.79 25.4317L63.1831 33.3532L57.5427 27.8313L50.6703 31.7141L54.0567 24.4186L48.4163 18.8967L56.1497 19.9098L59.5361 12.6143Z" fill="#86B476"/>
<path d="M65.4107 48.4469C66.4915 44.5873 70.1065 44.0083 71.7789 44.2013H88.1824C92.0421 44.2013 91.9777 47.0317 91.4631 48.4469L84.9017 68.3242C83.5122 72.4926 81.1064 73.406 80.0772 73.3417H61.5509C57.0737 73.1873 57.8842 69.9323 58.8491 68.3242L65.4107 48.4469Z" fill="#FFFFC7"/>
<path d="M76.3461 47.7296L77.7392 55.6511L85.4725 56.6642L78.6001 60.5469L79.9931 68.4685L74.3527 62.9466L67.4804 66.8293L70.8668 59.5339L65.2264 54.012L72.9597 55.025L76.3461 47.7296Z" fill="#86B476"/>
<path d="M134.585 33.7856C136.7 30.3809 140.333 30.8339 141.885 31.4859L157.637 36.064C161.343 37.1412 160.491 39.8412 159.602 41.0565L147.754 58.3127C145.256 61.9277 142.691 62.1334 141.721 61.7844L123.93 56.6139C119.674 55.2161 121.361 52.3167 122.736 51.0417L134.585 33.7856Z" fill="#FFFFC7"/>
<ellipse cx="140.706" cy="46.5603" rx="7.20797" ry="8.41407" transform="rotate(28.3917 140.706 46.5603)" fill="#FA5075"/>
<defs>
<linearGradient id="paint0_linear" x1="122.641" y1="0.474614" x2="93.7559" y2="78.6325" gradientUnits="userSpaceOnUse">
<stop stop-color="#79B3A8"/>
<stop offset="0.46875" stop-color="#9CE6D9"/>
</linearGradient>
<linearGradient id="paint1_linear" x1="164.58" y1="0.47461" x2="140.892" y2="84.3968" gradientUnits="userSpaceOnUse">
<stop stop-color="#497391"/>
<stop offset="1" stop-color="#70B0DE"/>
</linearGradient>
</defs>
</svg>
