<svg width="181" height="96" viewBox="0 0 181 96" fill="none" xmlns="http://www.w3.org/2000/svg">
<path d="M158.642 91.9949H23.4569L16.4307 81.3149L44.2548 3.74451H171.009L176.911 13.5814L158.642 91.9949Z" stroke="#FFFF93" stroke-width="7"/>
<path d="M0.0302734 94.347H155.094L158.421 91.6061L175.997 75.731L176.621 13.4355L21.3499 74.8991L0.0302734 94.347Z" fill="black" fill-opacity="0.2"/>
<path d="M15.7656 82.02L43.9409 3.86206H171.695L151.846 82.2698L15.7656 82.02Z" fill="url(#paint0_linear)"/>
<path d="M77.9654 17.1779C79.0462 13.3183 82.6612 12.7393 84.3335 12.9323H100.737C104.597 12.9323 104.532 15.7627 104.018 17.1779L97.4564 37.0551C96.0669 41.2235 93.6611 42.137 92.6318 42.0727H74.1056C69.6284 41.9183 70.4389 38.6633 71.4038 37.0551L77.9654 17.1779Z" fill="#66517A"/>
<path d="M123.474 17.0414C124.299 13.1191 127.868 12.3037 129.549 12.3863L145.917 11.3078C149.769 11.0541 149.89 13.8826 149.47 15.3286L144.23 35.5942C143.117 39.845 140.777 40.9146 139.745 40.9181L121.259 42.1361C116.782 42.2764 117.376 38.9752 118.233 37.3071L123.474 17.0414Z" fill="#FFFFC7"/>
<ellipse cx="133.591" cy="26.9563" rx="7.20797" ry="8.41407" transform="rotate(8.41608 133.591 26.9563)" fill="#FA5075"/>
<path d="M136.105 23.2588C137.875 19.6629 141.535 19.7566 143.143 20.253L159.269 23.261C163.063 23.9688 162.481 26.7394 161.715 28.0363L151.62 46.3732C149.49 50.2162 146.957 50.6729 145.957 50.421L127.745 47.0237C123.372 46.0509 124.766 42.9998 126.009 41.5958L136.105 23.2588Z" fill="#66517A"/>
<path d="M94.2818 51.8182C95.3626 47.9586 98.9776 47.3797 100.65 47.5726H117.054C120.913 47.5726 120.849 50.403 120.334 51.8182L113.773 71.6955C112.383 75.8639 109.977 76.7774 108.948 76.713H90.422C85.9448 76.5586 86.7553 73.3037 87.7202 71.6955L94.2818 51.8182Z" fill="#66517A"/>
<path d="M36.4888 51.8506C37.5696 47.991 41.1846 47.412 42.857 47.605H59.2605C63.1202 47.605 63.0559 50.4354 62.5412 51.8506L55.9798 71.7278C54.5904 75.8963 52.1845 76.8097 51.1553 76.7454H32.629C28.1518 76.591 28.9624 73.336 29.9273 71.7278L36.4888 51.8506Z" fill="#66517A"/>
<path d="M23.8704 91.4759H158.765L151.818 82.2128L15.7725 81.9485L23.8704 91.4759Z" fill="#5687AB"/>
<path d="M177.098 13.1252L171.502 3.86206L151.773 82.1984L158.77 91.5151L177.098 13.1252Z" fill="url(#paint1_linear)"/>
<path d="M48.5728 17.1779C49.6536 13.3183 53.2686 12.7393 54.941 12.9323H71.3445C75.2042 12.9323 75.1398 15.7627 74.6252 17.1779L68.0638 37.0551C66.6744 41.2235 64.2685 42.137 63.2393 42.0727H44.713C40.2358 41.9183 41.0463 38.6633 42.0113 37.0551L48.5728 17.1779Z" fill="#FFFFC7"/>
<path d="M59.5112 16.0018L60.9042 23.9233L68.6375 24.9364L61.7651 28.8191L63.1582 36.7407L57.5178 31.2188L50.6454 35.1015L54.0318 27.8061L48.3914 22.2842L56.1248 23.2972L59.5112 16.0018Z" fill="#86B476"/>
<path d="M65.3853 51.8344C66.4661 47.9747 70.0811 47.3958 71.7535 47.5888H88.157C92.0167 47.5888 91.9523 50.4192 91.4377 51.8344L84.8763 71.7116C83.4869 75.88 81.081 76.7935 80.0518 76.7291H61.5255C57.0483 76.5748 57.8588 73.3198 58.8238 71.7116L65.3853 51.8344Z" fill="#FFFFC7"/>
<path d="M76.3208 51.117L77.7138 59.0386L85.4471 60.0516L78.5747 63.9344L79.9677 71.8559L74.3273 66.334L67.455 70.2168L70.8414 62.9213L65.201 57.3994L72.9343 58.4125L76.3208 51.117Z" fill="#86B476"/>
<path d="M134.559 37.173C136.674 33.7684 140.307 34.2213 141.859 34.8734L157.611 39.4515C161.317 40.5286 160.465 43.2286 159.576 44.444L147.728 61.7002C145.23 65.3152 142.665 65.5209 141.695 65.1719L123.905 60.0014C119.648 58.6036 121.335 55.7042 122.71 54.4292L134.559 37.173Z" fill="#FFFFC7"/>
<ellipse cx="140.681" cy="49.9477" rx="7.20797" ry="8.41407" transform="rotate(28.3917 140.681 49.9477)" fill="#FA5075"/>
<defs>
<linearGradient id="paint0_linear" x1="122.616" y1="3.86207" x2="93.7305" y2="82.02" gradientUnits="userSpaceOnUse">
<stop stop-color="#79B3A8"/>
<stop offset="0.46875" stop-color="#9CE6D9"/>
</linearGradient>
<linearGradient id="paint1_linear" x1="164.554" y1="3.86206" x2="140.866" y2="87.7842" gradientUnits="userSpaceOnUse">
<stop stop-color="#497391"/>
<stop offset="1" stop-color="#70B0DE"/>
</linearGradient>
</defs>
</svg>
