<svg width="341" height="278" viewBox="0 0 341 278" fill="none" xmlns="http://www.w3.org/2000/svg">
<path d="M0.80127 270.399H328.183L32.6731 203.089L19.0572 239.152L7.64919 248.352L0.80261 264.176L0.80127 270.399Z" fill="black" fill-opacity="0.2"/>
<path d="M325.601 227.149H325.053L328.093 180.345H333.199H336.699V176.845V144.78V144.162L336.487 143.581L323.498 107.962L333.178 30.5402L333.338 29.259L332.628 28.1808L317.951 5.89817L316.914 4.32336H315.028H36.1767H34.1334L33.1289 6.10269L20.5491 28.3853L19.9805 29.3925L20.124 30.5402L29.8152 108.057L18.8534 143.752L18.6992 144.255V144.78V176.845V180.345H22.1992H25.9427L29.7605 230.815L26.1641 234.012L24.9564 235.085L24.9899 236.7L25.6887 270.396L25.7598 273.823H29.188H328.307H331.807V270.323V234.997V233.584L330.826 232.568L326.633 228.22L325.601 227.149Z" stroke="#FFFF93" stroke-width="7"/>
<path d="M46.4087 40.3837L49.397 92.2578H303.684L307.871 40.3837H46.4087Z" fill="#A84F40"/>
<path d="M33.7178 108.91L24.2959 30.6494H36.4098L39.5118 69.8152L41.1207 89.3451L41.7937 99.6712L42.4667 108.91H33.7178Z" fill="#8F4E24" stroke="#8F4E24"/>
<path d="M319.921 108.367L329.006 30.106H314.33L308.739 108.367H319.921Z" fill="#8F4E24"/>
<path d="M22.8984 144.236L33.3816 109.454L43.8554 109.252H306.604L319.921 108.91L333.2 144.78H315.728L308.04 113.802H42.5543L33.3816 144.236H22.8984Z" fill="#8F4E24"/>
<path d="M36.876 30.106H314.33M314.33 30.106H329.006L319.921 108.367H308.739L314.33 30.106ZM43.8554 109.252L33.3816 109.454L22.8984 144.236H33.3816L42.5543 113.802M43.8554 109.252H306.604M43.8554 109.252L42.5543 113.802M306.604 109.252L308.04 113.802M306.604 109.252L319.921 108.91L333.2 144.78H315.728L308.04 113.802M308.04 113.802H42.5543" stroke="#8F4E24"/>
<path d="M43.1657 108.367L42.4668 99.1277L308.739 99.6712L308.04 108.367H43.1657Z" fill="#8F4E24" stroke="#8F4E24"/>
<path d="M314.172 31.0671H37.3555L38.058 39.8886H313.469L314.172 31.0671Z" fill="#8F4E24" stroke="#8F4E24"/>
<path d="M315.267 144.734H33.7314L34.613 141.749H314.579L315.267 144.734Z" fill="#8F4E24"/>
<path d="M22.7251 176.845V145.323H333.199V176.845H22.7251Z" fill="#E0874E" stroke="#CC6524"/>
<path d="M57.143 177.389H29.188L33.3812 232.28H58.5408L57.143 177.389Z" fill="#CF7840" stroke="#CC6524"/>
<path d="M33.168 108.367H320.62" stroke="#54250D" stroke-width="0.5"/>
<path d="M324.291 176.845L296.474 177.596L295.46 230.106H320.775L324.291 176.845Z" fill="#CF7840" stroke="#CC6524"/>
<path d="M29.188 236.628L33.3812 232.823L323.415 230.649L327.608 234.997V269.78H29.8869L29.188 236.628Z" fill="#E0874E" stroke="#CC6524"/>
<path d="M29.8872 237.171L326.91 235.541" stroke="#D47234"/>
<path d="M59.0585 232.064L57.6328 177.321H295.989L294.985 230.357L59.0585 232.064Z" fill="url(#paint0_linear)"/>
<path d="M36.1768 8.36682L24.2959 29.5625H329.006L315.028 8.36682H36.1768Z" fill="#E0874E" stroke="#CC6524"/>
<path d="M34.6528 141.753L42.938 114.254H307.651L314.469 141.787L34.6528 141.753Z" fill="url(#paint1_linear)"/>
<path d="M42.931 114.318L34.6523 141.757L42.4727 141.795L42.931 114.318Z" fill="black" fill-opacity="0.4"/>
<path d="M307.83 114.84V141.748H314.47L307.83 114.84Z" fill="black" fill-opacity="0.4"/>
<path d="M49.4395 92.2578L42.166 98.5946L308.891 99.1671L303.596 92.2578H49.4395Z" fill="url(#paint2_linear)"/>
<path d="M49.3911 92.2997L42.2257 98.5566L37.7086 40.3798L46.8037 40.3798L49.3911 92.2997Z" fill="#673128"/>
<path d="M303.561 92.2771L308.842 99.0976L313.084 40.3577H307.501L303.561 92.2771Z" fill="#673128"/>
<defs>
<linearGradient id="paint0_linear" x1="177" y1="177.932" x2="177" y2="231.736" gradientUnits="userSpaceOnUse">
<stop stop-color="#CF7840"/>
<stop offset="1" stop-color="#E0874E"/>
</linearGradient>
<linearGradient id="paint1_linear" x1="174.561" y1="114.254" x2="174.561" y2="141.787" gradientUnits="userSpaceOnUse">
<stop stop-color="#CE6757"/>
<stop offset="1" stop-color="#A44C3D"/>
</linearGradient>
<linearGradient id="paint2_linear" x1="42.166" y1="99.1671" x2="308.891" y2="99.1671" gradientUnits="userSpaceOnUse">
<stop stop-color="#AE5243"/>
<stop offset="1" stop-color="#CB6555"/>
</linearGradient>
</defs>
</svg>
