<svg width="334" height="264" viewBox="0 0 334 264" fill="none" xmlns="http://www.w3.org/2000/svg">
<path d="M0.842773 263.178H328.225L32.7146 195.868L19.0987 231.932L7.6907 241.132L0.844114 256.955L0.842773 263.178Z" fill="black" fill-opacity="0.2"/>
<path d="M22.2407 137.559V169.624H29.2295L33.4227 225.059L28.5306 229.407L29.2295 263.103H328.348V227.776L324.155 223.429H321.36L324.854 169.624H333.241V137.559M22.2407 137.559L33.4227 101.146M22.2407 137.559H33.4227M333.241 137.559L319.962 101.146M333.241 137.559H315.07M33.4227 101.146H44.6048M33.4227 101.146L23.6385 22.8851M44.6048 101.146H306.683M44.6048 101.146L42.9358 106.581M33.4227 137.559H315.07M33.4227 137.559L42.9358 106.581M319.962 101.146H306.683M319.962 101.146L329.746 22.8851M306.683 101.146L307.935 106.581M315.07 137.559L307.935 106.581M42.9358 106.581H307.935M23.6385 22.8851H329.746M23.6385 22.8851L36.2183 0.602539H315.07L329.746 22.8851M42.9358 91.3634L38.3149 33.7547H312.973L307.935 91.3634H42.9358Z" stroke="#E28E58" stroke-width="0.1"/>
<path d="M46.4502 33.1628L49.4385 85.037H303.726L307.912 33.1628H46.4502Z" fill="#A84F40"/>
<path d="M33.7593 101.69L24.3374 23.4287H36.4513L39.5533 62.5945L41.1622 82.1244L41.8352 92.4504L42.5082 101.69H33.7593Z" fill="#8F4E24" stroke="#8F4E24"/>
<path d="M319.962 101.146L329.048 22.8851H314.371L308.78 101.146H319.962Z" fill="#8F4E24"/>
<path d="M22.9399 137.016L33.4231 102.233L43.8969 102.031H306.645L319.962 101.689L333.241 137.559H315.769L308.082 106.581H42.5958L33.4231 137.016H22.9399Z" fill="#8F4E24"/>
<path d="M36.9175 22.8851H314.371M314.371 22.8851H329.048L319.962 101.146H308.78L314.371 22.8851ZM43.8969 102.031L33.4231 102.233L22.9399 137.016H33.4231L42.5958 106.581M43.8969 102.031H306.645M43.8969 102.031L42.5958 106.581M306.645 102.031L308.082 106.581M306.645 102.031L319.962 101.689L333.241 137.559H315.769L308.082 106.581M308.082 106.581H42.5958" stroke="#8F4E24"/>
<path d="M43.2072 101.146L42.5083 91.9069L308.78 92.4503L308.081 101.146H43.2072Z" fill="#8F4E24" stroke="#8F4E24"/>
<path d="M314.213 23.8463H37.397L38.0996 32.6678H313.511L314.213 23.8463Z" fill="#8F4E24" stroke="#8F4E24"/>
<path d="M315.308 137.514H33.7729L34.6545 134.528H314.62L315.308 137.514Z" fill="#8F4E24"/>
<path d="M22.7666 169.624V138.103H333.241V169.624H22.7666Z" fill="#E0874E" stroke="#CC6524"/>
<path d="M57.1845 170.168H29.2295L33.4228 225.059H58.5823L57.1845 170.168Z" fill="#CF7840" stroke="#CC6524"/>
<path d="M33.2095 101.146H320.661" stroke="#54250D" stroke-width="0.5"/>
<path d="M324.332 169.624L296.515 170.375L295.501 222.885H320.816L324.332 169.624Z" fill="#CF7840" stroke="#CC6524"/>
<path d="M29.2295 229.407L33.4228 225.603L323.456 223.429L327.65 227.776V262.559H29.9284L29.2295 229.407Z" fill="#E0874E" stroke="#CC6524"/>
<path d="M29.9287 229.95L326.951 228.32" stroke="#D47234"/>
<path d="M59.1 224.843L57.6743 170.1H296.03L295.027 223.136L59.1 224.843Z" fill="url(#paint0_linear)"/>
<path d="M36.2183 1.146L24.3374 22.3416H329.048L315.07 1.146H36.2183Z" fill="#E0874E" stroke="#CC6524"/>
<path d="M34.6943 134.532L42.9795 107.033H307.693L314.511 134.566L34.6943 134.532Z" fill="url(#paint1_linear)"/>
<path d="M42.9725 107.097L34.6938 134.536L42.5142 134.574L42.9725 107.097Z" fill="black" fill-opacity="0.4"/>
<path d="M307.872 107.62V134.527H314.512L307.872 107.62Z" fill="black" fill-opacity="0.4"/>
<path d="M49.481 85.037L42.2075 91.3738L308.932 91.9463L303.638 85.037H49.481Z" fill="url(#paint2_linear)"/>
<path d="M49.4326 85.0789L42.2672 91.3358L37.7501 33.1589L46.8452 33.1589L49.4326 85.0789Z" fill="#673128"/>
<path d="M303.603 85.0561L308.883 91.8766L313.126 33.1367H307.543L303.603 85.0561Z" fill="#673128"/>
<defs>
<linearGradient id="paint0_linear" x1="177.042" y1="170.711" x2="177.042" y2="224.516" gradientUnits="userSpaceOnUse">
<stop stop-color="#CF7840"/>
<stop offset="1" stop-color="#E0874E"/>
</linearGradient>
<linearGradient id="paint1_linear" x1="174.602" y1="107.033" x2="174.602" y2="134.566" gradientUnits="userSpaceOnUse">
<stop stop-color="#CE6757"/>
<stop offset="1" stop-color="#A44C3D"/>
</linearGradient>
<linearGradient id="paint2_linear" x1="42.2075" y1="91.9462" x2="308.932" y2="91.9463" gradientUnits="userSpaceOnUse">
<stop stop-color="#AE5243"/>
<stop offset="1" stop-color="#CB6555"/>
</linearGradient>
</defs>
</svg>
