<svg width="308" height="154" viewBox="0 0 308 154" fill="none" xmlns="http://www.w3.org/2000/svg">
<path d="M21.7278 126.398L8.40039 17.9189L285.415 141C194.05 150.405 109.045 147.188 76.0843 147.435C49.7157 147.633 39.6539 144.383 37.9191 142.733L21.7278 126.398Z" fill="black" fill-opacity="0.15"/>
<path d="M8.42411 13.645L4.48794 13.9542L5.26706 17.8249L21.1085 96.5246L21.2352 97.154L21.5771 97.6974C25.0827 103.271 30.3382 111.835 34.7092 119.409C36.8979 123.202 38.8411 126.706 40.2285 129.446C40.9248 130.821 41.4543 131.951 41.8014 132.803C41.9754 133.23 42.0834 133.538 42.143 133.741C42.1525 133.773 42.16 133.8 42.1657 133.822C42.2277 135.273 42.9163 136.4 43.5829 137.152C44.2734 137.931 45.1262 138.531 45.9216 138.994C47.5193 139.924 49.5527 140.683 51.5692 141.299C55.1915 142.405 59.3875 143.236 62.5122 143.726C62.9481 144.066 63.3976 144.335 63.8062 144.55C64.6891 145.014 65.7086 145.392 66.7827 145.711C68.9332 146.35 71.6924 146.868 74.8876 147.299C81.3019 148.165 89.9409 148.739 100.013 149.093C120.184 149.802 146.458 149.636 172.964 149.045C225.903 147.865 280.202 144.979 288.984 143.905C292.019 143.534 294.279 141.632 295.893 139.372C297.497 137.126 298.712 134.203 299.667 130.976C301.583 124.5 302.7 115.917 303.305 106.714C304.519 88.2484 303.717 66.453 302.61 52.0191L302.586 51.7166L302.512 51.4226L291.951 9.97406L291.417 7.88036L289.307 7.41897C278.359 5.02585 259.99 3.89743 237.701 3.59049C215.316 3.28222 188.685 3.80235 161.044 4.79588C105.758 6.78309 46.3024 10.6691 8.42411 13.645ZM42.1826 133.893C42.1825 133.893 42.1818 133.89 42.1807 133.883C42.1822 133.891 42.1828 133.894 42.1826 133.893Z" fill="#FCFEE6" stroke="#FFFF93" stroke-width="7"/>
<g filter="url(#filter0_d)">
<path d="M114.401 81.112C114.945 81.112 115.537 81.064 116.177 80.968C116.849 80.84 117.345 80.68 117.665 80.488V76.648L114.209 76.936C113.313 77 112.577 77.192 112.001 77.512C111.425 77.832 111.137 78.312 111.137 78.952C111.137 79.592 111.377 80.12 111.857 80.536C112.369 80.92 113.217 81.112 114.401 81.112ZM114.017 62.248C115.745 62.248 117.313 62.424 118.721 62.776C120.161 63.128 121.377 63.672 122.369 64.408C123.393 65.112 124.177 66.024 124.721 67.144C125.265 68.232 125.537 69.528 125.537 71.032V81.784C125.537 82.616 125.297 83.304 124.817 83.848C124.369 84.36 123.825 84.808 123.185 85.192C121.105 86.44 118.177 87.064 114.401 87.064C112.705 87.064 111.169 86.904 109.793 86.584C108.449 86.264 107.281 85.784 106.289 85.144C105.329 84.504 104.577 83.688 104.033 82.696C103.521 81.704 103.265 80.552 103.265 79.24C103.265 77.032 103.921 75.336 105.233 74.152C106.545 72.968 108.577 72.232 111.329 71.944L117.617 71.272V70.936C117.617 70.008 117.201 69.352 116.369 68.968C115.569 68.552 114.401 68.344 112.865 68.344C111.649 68.344 110.465 68.472 109.313 68.728C108.161 68.984 107.121 69.304 106.193 69.688C105.777 69.4 105.425 68.968 105.137 68.392C104.849 67.784 104.705 67.16 104.705 66.52C104.705 65.688 104.897 65.032 105.281 64.552C105.697 64.04 106.321 63.608 107.153 63.256C108.081 62.904 109.169 62.648 110.417 62.488C111.697 62.328 112.897 62.248 114.017 62.248ZM147.964 85.672C147.516 86.024 146.86 86.312 145.996 86.536C145.132 86.76 144.156 86.872 143.068 86.872C141.82 86.872 140.732 86.712 139.804 86.392C138.908 86.072 138.284 85.56 137.932 84.856C137.644 84.312 137.292 83.56 136.876 82.6C136.492 81.608 136.076 80.52 135.628 79.336C135.18 78.12 134.716 76.824 134.236 75.448C133.756 74.072 133.292 72.712 132.844 71.368C132.428 70.024 132.044 68.728 131.692 67.48C131.34 66.232 131.052 65.128 130.828 64.168C131.276 63.72 131.868 63.336 132.604 63.016C133.372 62.664 134.204 62.488 135.1 62.488C136.22 62.488 137.132 62.728 137.836 63.208C138.572 63.656 139.116 64.52 139.468 65.8L141.34 73.144C141.692 74.584 142.028 75.896 142.348 77.08C142.668 78.232 142.908 79.128 143.068 79.768H143.308C143.916 77.4 144.556 74.776 145.228 71.896C145.9 69.016 146.508 66.184 147.052 63.4C147.596 63.112 148.204 62.888 148.876 62.728C149.58 62.568 150.252 62.488 150.892 62.488C152.012 62.488 152.956 62.728 153.724 63.208C154.492 63.688 154.876 64.52 154.876 65.704C154.876 66.216 154.748 66.968 154.492 67.96C154.268 68.92 153.964 70.024 153.58 71.272C153.228 72.488 152.796 73.784 152.284 75.16C151.804 76.536 151.308 77.88 150.796 79.192C150.284 80.504 149.772 81.736 149.26 82.888C148.78 84.008 148.348 84.936 147.964 85.672ZM160.728 56.488C160.728 55.272 161.128 54.248 161.928 53.416C162.76 52.584 163.848 52.168 165.192 52.168C166.536 52.168 167.608 52.584 168.408 53.416C169.24 54.248 169.656 55.272 169.656 56.488C169.656 57.704 169.24 58.728 168.408 59.56C167.608 60.392 166.536 60.808 165.192 60.808C163.848 60.808 162.76 60.392 161.928 59.56C161.128 58.728 160.728 57.704 160.728 56.488ZM169.272 86.248C168.92 86.312 168.392 86.392 167.688 86.488C167.016 86.616 166.328 86.68 165.624 86.68C164.92 86.68 164.28 86.632 163.704 86.536C163.16 86.44 162.696 86.248 162.312 85.96C161.928 85.672 161.624 85.288 161.4 84.808C161.208 84.296 161.112 83.64 161.112 82.84V63.304C161.464 63.24 161.976 63.16 162.648 63.064C163.352 62.936 164.056 62.872 164.76 62.872C165.464 62.872 166.088 62.92 166.632 63.016C167.208 63.112 167.688 63.304 168.072 63.592C168.456 63.88 168.744 64.28 168.936 64.792C169.16 65.272 169.272 65.912 169.272 66.712V86.248ZM186.851 81.112C187.395 81.112 187.987 81.064 188.627 80.968C189.299 80.84 189.795 80.68 190.115 80.488V76.648L186.659 76.936C185.763 77 185.027 77.192 184.451 77.512C183.875 77.832 183.587 78.312 183.587 78.952C183.587 79.592 183.827 80.12 184.307 80.536C184.819 80.92 185.667 81.112 186.851 81.112ZM186.467 62.248C188.195 62.248 189.763 62.424 191.171 62.776C192.611 63.128 193.827 63.672 194.819 64.408C195.843 65.112 196.627 66.024 197.171 67.144C197.715 68.232 197.987 69.528 197.987 71.032V81.784C197.987 82.616 197.747 83.304 197.267 83.848C196.819 84.36 196.275 84.808 195.635 85.192C193.555 86.44 190.627 87.064 186.851 87.064C185.155 87.064 183.619 86.904 182.243 86.584C180.899 86.264 179.731 85.784 178.739 85.144C177.779 84.504 177.027 83.688 176.483 82.696C175.971 81.704 175.715 80.552 175.715 79.24C175.715 77.032 176.371 75.336 177.683 74.152C178.995 72.968 181.027 72.232 183.779 71.944L190.067 71.272V70.936C190.067 70.008 189.651 69.352 188.819 68.968C188.019 68.552 186.851 68.344 185.315 68.344C184.099 68.344 182.915 68.472 181.763 68.728C180.611 68.984 179.571 69.304 178.643 69.688C178.227 69.4 177.875 68.968 177.587 68.392C177.299 67.784 177.155 67.16 177.155 66.52C177.155 65.688 177.347 65.032 177.731 64.552C178.147 64.04 178.771 63.608 179.603 63.256C180.531 62.904 181.619 62.648 182.867 62.488C184.147 62.328 185.347 62.248 186.467 62.248ZM187.523 52.84C188.099 53 188.579 53.128 188.963 53.224C189.347 53.32 189.667 53.368 189.923 53.368C190.627 53.368 191.171 53.16 191.555 52.744C191.939 52.328 192.211 51.976 192.371 51.688C193.491 51.688 194.419 52.056 195.155 52.792C195.923 53.496 196.307 54.408 196.307 55.528C196.307 56.968 195.859 58.024 194.963 58.696C194.067 59.368 192.947 59.704 191.603 59.704C191.155 59.704 190.707 59.688 190.259 59.656C189.811 59.592 189.315 59.48 188.771 59.32L186.851 58.744C186.403 58.616 186.019 58.52 185.699 58.456C185.411 58.36 185.123 58.312 184.835 58.312C184.131 58.312 183.587 58.52 183.203 58.936C182.851 59.32 182.579 59.672 182.387 59.992C181.267 59.992 180.323 59.64 179.555 58.936C178.819 58.2 178.451 57.272 178.451 56.152C178.451 55.448 178.579 54.84 178.835 54.328C179.123 53.784 179.491 53.336 179.939 52.984C180.387 52.632 180.883 52.376 181.427 52.216C182.003 52.056 182.579 51.976 183.155 51.976C183.571 51.976 184.067 52.024 184.643 52.12C185.251 52.216 186.211 52.456 187.523 52.84ZM229.52 74.632C229.52 76.616 229.216 78.392 228.608 79.96C228 81.496 227.136 82.792 226.016 83.848C224.928 84.904 223.616 85.704 222.08 86.248C220.544 86.792 218.832 87.064 216.944 87.064C215.056 87.064 213.344 86.776 211.808 86.2C210.272 85.624 208.944 84.808 207.824 83.752C206.736 82.664 205.888 81.352 205.28 79.816C204.672 78.28 204.368 76.552 204.368 74.632C204.368 72.744 204.672 71.032 205.28 69.496C205.888 67.96 206.736 66.664 207.824 65.608C208.944 64.52 210.272 63.688 211.808 63.112C213.344 62.536 215.056 62.248 216.944 62.248C218.832 62.248 220.544 62.552 222.08 63.16C223.616 63.736 224.928 64.568 226.016 65.656C227.136 66.712 228 68.008 228.608 69.544C229.216 71.08 229.52 72.776 229.52 74.632ZM212.72 74.632C212.72 76.584 213.088 78.088 213.824 79.144C214.592 80.168 215.648 80.68 216.992 80.68C218.336 80.68 219.36 80.152 220.064 79.096C220.8 78.04 221.168 76.552 221.168 74.632C221.168 72.712 220.8 71.24 220.064 70.216C219.328 69.16 218.288 68.632 216.944 68.632C215.6 68.632 214.56 69.16 213.824 70.216C213.088 71.24 212.72 72.712 212.72 74.632Z" fill="#954F3D"/>
</g>
<defs>
<filter id="filter0_d" x="99.2646" y="51.688" width="134.255" height="43.376" filterUnits="userSpaceOnUse" color-interpolation-filters="sRGB">
<feFlood flood-opacity="0" result="BackgroundImageFix"/>
<feColorMatrix in="SourceAlpha" type="matrix" values="0 0 0 0 0 0 0 0 0 0 0 0 0 0 0 0 0 0 127 0"/>
<feOffset dy="4"/>
<feGaussianBlur stdDeviation="2"/>
<feColorMatrix type="matrix" values="0 0 0 0 0 0 0 0 0 0 0 0 0 0 0 0 0 0 0.25 0"/>
<feBlend mode="normal" in2="BackgroundImageFix" result="effect1_dropShadow"/>
<feBlend mode="normal" in="SourceGraphic" in2="effect1_dropShadow" result="shape"/>
</filter>
</defs>
</svg>
