<svg width="88" height="66" viewBox="0 0 88 66" fill="none" xmlns="http://www.w3.org/2000/svg">
<ellipse rx="39.7697" ry="7.5183" transform="matrix(0.995509 0.0946716 -0.118714 0.992929 42.3323 41.5498)" fill="black" fill-opacity="0.2"/>
<path d="M40.3998 56.4586C40.1632 60.9578 37.8344 62.3786 36.6996 62.5266C31.7239 61.5939 22.0685 55.4009 23.2531 38.0895C19.2101 36.7911 10.3964 32.9208 7.4857 27.827C7.08411 29.8019 5.73518 33.8009 3.55214 33.9976C2.85855 33.4076 2.33497 30.6345 5.78929 24.2624C5.44899 23.6399 5.24607 22.2432 7.15685 21.6362C7.73757 18.3673 9.46663 11.8801 11.7371 12.0824C12.2054 12.3727 12.7037 14.2066 10.9503 19.2196C14.9492 17.9602 23.8126 15.706 27.2747 16.7643C29.6178 11.4803 37.334 1.41726 49.4539 3.43685C50.0513 4.34983 50.5457 7.3308 47.7442 11.9509C46.5285 14.0532 44.2128 18.5101 44.6754 19.5194C49.2806 20.7574 60.9774 24.8341 70.9227 31.2369C72.3349 29.2932 76.7435 25.5108 83.08 25.9307C83.881 27.1238 84.7036 31.2446 81.5854 38.183C82.9906 38.5495 83.5964 39.4558 83.7237 39.8631C83.571 40.9017 81.3436 41.2632 80.249 41.3141C84.3423 44.7354 85.0092 48.3399 84.8311 49.7145C81.2876 51.3335 72.765 45.6034 68.9466 42.536C59.0799 43.6051 46.5709 42.8414 41.4161 41.9632L40.3998 56.4586Z" stroke="#FFFF93" stroke-width="5"/>
<path d="M49.349 3.50745C36.8426 1.79146 29.3067 12.0874 27.1021 17.4499L44.5388 19.5948C44.0578 18.3078 47.1443 12.6236 48.7477 9.94234C50.1908 7.36836 49.7498 4.57992 49.349 3.50745Z" fill="#FDCD3B"/>
<path d="M44.5387 18.5223C35.3994 14.6614 29.1061 15.4835 27.7031 16.3773C28.3044 14.7686 28.9057 14.2323 29.5069 13.1598C32.393 11.4438 41.7327 14.5899 45.1399 16.3773V16.9136L44.5387 18.5223Z" fill="#F3B759"/>
<path d="M47.5452 12.0873C40.33 8.65533 34.1169 8.15494 33.1147 8.86993C35.5198 6.72497 36.1211 6.54621 36.7224 6.18872C39.6084 4.47275 46.3427 8.51234 48.7477 9.94232L47.5452 12.0873Z" fill="#F5B752"/>
<path d="M14.4753 34.0735C-1.39824 24.2066 11.0681 18.8798 19.2854 17.4499C41.4121 13.5889 70.1928 29.7835 81.8174 38.3635C85.1845 39.6505 83.2203 40.6872 81.8174 41.0447C44.7792 46.6217 21.4901 38.721 14.4753 34.0735Z" fill="#77D4B5"/>
<path d="M9.06396 20.131C12.0703 28.3534 33.4755 44.2621 80.615 37.8271C67.7879 27.8172 32.6337 9.40605 9.06396 20.131Z" fill="#85E8CB"/>
<path d="M18.6841 17.4497C22.6925 19.5947 36.7221 24.5282 58.3678 24.9572C46.3424 18.5222 28.9057 15.3048 18.6841 17.4497Z" fill="#8CFDD7"/>
<path d="M9.66504 20.6673C12.0701 18.5223 18.9018 17.7355 18.6841 17.4498C21.5702 21.3108 25.8993 24.0635 27.7031 24.421V30.3197C25.779 31.6067 21.6904 31.571 19.8866 31.3922C12.1904 27.9603 9.66504 22.4548 9.66504 20.6673Z" fill="#A3F6DA"/>
<path d="M10.2666 20.1309C12.6717 17.986 16.8806 17.986 16.8806 17.986C17.8426 20.5599 22.8932 24.4209 25.2983 25.4934V29.2472H19.8869C13.6337 27.5312 10.467 22.0972 10.2666 20.1309Z" fill="#7CC5A6"/>
<ellipse cx="34.9184" cy="29.7835" rx="4.20888" ry="3.75373" fill="#A8FCDB"/>
<ellipse cx="34.9185" cy="29.7833" rx="3.00634" ry="2.68123" fill="#7DCFB1"/>
<ellipse cx="58.9691" cy="35.1458" rx="4.20888" ry="3.75373" fill="#A8FCDB"/>
<ellipse cx="58.9692" cy="35.1458" rx="3.00634" ry="2.68123" fill="#7DCFB1"/>
<ellipse cx="46.9437" cy="33.0008" rx="4.20888" ry="3.75373" fill="#A8FCDB"/>
<ellipse cx="46.9438" cy="33.0008" rx="3.00634" ry="2.68123" fill="#7DCFB1"/>
<ellipse rx="1.69992" ry="5.67466" transform="matrix(0.961078 0.276278 -0.339891 0.940465 9.74308 17.4797)" fill="#F2C744"/>
<ellipse rx="1.69992" ry="5.67466" transform="matrix(0.961078 0.276278 -0.339891 0.940465 5.41105 28.6187)" fill="#F2C744"/>
<ellipse cx="7.26035" cy="23.3485" rx="1.80381" ry="1.60874" fill="#7DC1A8"/>
<path d="M41.5323 39.436C36.2411 35.146 27.3022 35.146 23.4942 35.6823C21.5701 53.7002 31.5111 61.0646 36.7221 62.4946C39.6082 61.6366 40.3297 58.5621 40.3297 57.1321L41.5323 39.436Z" fill="#FEC73C"/>
<path d="M40.3298 53.9145C33.1146 51.3405 27.9036 52.842 26.5007 53.9145C25.8994 52.8421 24.6969 50.6971 25.2981 50.697C28.1842 47.694 37.1231 49.8034 40.9311 51.2333C40.6635 51.1348 40.9311 53.9145 40.3298 53.9145Z" fill="#F2B355"/>
<path d="M24.0954 45.3345C23.4942 47.4795 22.893 39.9721 23.4941 41.0445C25.3947 38.0781 36.448 39.7514 41.3536 41.5155C41.4141 41.5373 41.4736 41.559 41.5322 41.5808L41.3536 41.5155L40.931 46.9433V46.407C28.9056 41.0446 24.3017 44.5988 24.0954 45.3345Z" fill="#F5B655"/>
<path d="M84.8239 49.6246C80.9758 51.3406 72.3977 45.3346 68.5897 42.1171C68.1087 39.5431 75.2036 39.6146 78.8112 39.9721C84.1024 44.2621 85.0244 48.1946 84.8239 49.6246Z" fill="#FDC439"/>
<path d="M81.2164 38.8997C76.4062 38.0417 71.9969 34.2522 70.3936 32.4647C72.3176 27.7458 79.613 26.2085 83.0202 26.0298C84.9443 28.6038 82.6194 35.6822 81.2164 38.8997Z" fill="#FCC13F"/>
<path d="M82.4189 27.1023C80.0139 26.6733 74.6024 31.7497 72.1974 34.0735C72.0618 34.2044 70.9948 33.5372 70.3936 32.4647C72.1974 27.6385 80.0139 26.0298 83.0202 26.0298L82.4189 27.1023Z" fill="#F8ED91"/>
</svg>
