<svg width="84" height="61" viewBox="0 0 84 61" fill="none" xmlns="http://www.w3.org/2000/svg">
<ellipse rx="39.7697" ry="7.5183" transform="matrix(0.995509 0.0946716 -0.118714 0.992929 41.3098 39.127)" fill="black" fill-opacity="0.2"/>
<path d="M48.326 1.08459C35.8197 -0.631395 28.2838 9.66454 26.0791 15.027L43.5159 17.1719C43.0349 15.8849 46.1214 10.2007 47.7248 7.51949C49.1678 4.94551 48.7269 2.15707 48.326 1.08459Z" fill="#FDCD3B"/>
<path d="M43.5162 16.0995C34.3769 12.2385 28.0836 13.0607 26.6807 13.9544C27.2819 12.3457 27.8832 11.8095 28.4845 10.737C31.3706 9.02098 40.7103 12.167 44.1175 13.9545V14.4907L43.5162 16.0995Z" fill="#F3B759"/>
<path d="M46.5222 9.66445C39.307 6.23248 33.0939 5.73209 32.0918 6.44708C34.4969 4.30212 35.0981 4.12336 35.6994 3.76587C38.5855 2.04989 45.3197 6.08949 47.7248 7.51947L46.5222 9.66445Z" fill="#F5B752"/>
<path d="M13.4533 31.6507C-2.42021 21.7837 10.0461 16.457 18.2634 15.027C40.3901 11.166 69.1709 27.3607 80.7954 35.9406C84.1625 37.2276 82.1984 38.2644 80.7954 38.6219C43.7573 44.1988 20.4681 36.2981 13.4533 31.6507Z" fill="#77D4B5"/>
<path d="M8.04102 17.7081C11.0474 25.9306 32.4525 41.8392 79.592 35.4042C66.7649 25.3943 31.6108 6.9832 8.04102 17.7081Z" fill="#85E8CB"/>
<path d="M17.6621 15.0268C21.6706 17.1718 35.7002 22.1054 57.3459 22.5344C45.3205 16.0994 27.8837 12.8819 17.6621 15.0268Z" fill="#8CFDD7"/>
<path d="M8.64258 18.2445C11.0477 16.0995 17.8793 15.3127 17.6616 15.027C20.5477 18.888 24.8768 21.6407 26.6806 21.9982V27.8969C24.7566 29.1839 20.668 29.1481 18.8641 28.9694C11.1679 25.5374 8.64258 20.0319 8.64258 18.2445Z" fill="#A3F6DA"/>
<path d="M9.24414 17.7081C11.6492 15.5631 15.8581 15.5631 15.8581 15.5631C16.8201 18.1371 21.8708 21.9981 24.2759 23.0706V26.8243H18.8644C12.6112 25.1083 9.44456 19.6743 9.24414 17.7081Z" fill="#7CC5A6"/>
<ellipse cx="33.8964" cy="27.3607" rx="4.20888" ry="3.75373" fill="#A8FCDB"/>
<ellipse cx="33.896" cy="27.3606" rx="3.00634" ry="2.68123" fill="#7DCFB1"/>
<ellipse cx="57.9472" cy="32.7231" rx="4.20888" ry="3.75373" fill="#A8FCDB"/>
<ellipse cx="57.9468" cy="32.7231" rx="3.00634" ry="2.68123" fill="#7DCFB1"/>
<ellipse cx="45.9218" cy="30.5781" rx="4.20888" ry="3.75373" fill="#A8FCDB"/>
<ellipse cx="45.9214" cy="30.5781" rx="3.00634" ry="2.68123" fill="#7DCFB1"/>
<ellipse rx="1.69992" ry="5.67466" transform="matrix(0.961078 0.276278 -0.339891 0.940465 8.72062 15.0568)" fill="#F2C744"/>
<ellipse rx="1.69992" ry="5.67466" transform="matrix(0.961078 0.276278 -0.339891 0.940465 4.38859 26.1959)" fill="#F2C744"/>
<ellipse cx="6.2374" cy="20.9256" rx="1.80381" ry="1.60874" fill="#7DC1A8"/>
<path d="M40.5103 37.0131C35.2191 32.7232 26.2803 32.7232 22.4722 33.2594C20.5482 51.2773 30.4891 58.6417 35.7001 60.0717C38.5862 59.2137 39.3077 56.1392 39.3077 54.7092L40.5103 37.0131Z" fill="#FEC73C"/>
<path d="M39.3079 51.4916C32.0926 48.9176 26.8817 50.4191 25.4787 51.4916C24.8774 50.4192 23.6749 48.2742 24.2762 48.2742C27.1622 45.2712 36.1011 47.3805 39.9091 48.8105C39.6415 48.7119 39.9091 51.4916 39.3079 51.4916Z" fill="#F2B355"/>
<path d="M23.073 42.9117C22.4717 45.0567 21.8705 37.5492 22.4716 38.6216C24.3722 35.6553 35.4256 37.3285 40.3311 39.0927C40.3916 39.1144 40.4512 39.1362 40.5098 39.158L40.3311 39.0927L39.9085 44.5204V43.9842C27.8831 38.6217 23.2792 42.176 23.073 42.9117Z" fill="#F5B655"/>
<path d="M83.8015 47.2017C79.9534 48.9177 71.3753 42.9117 67.5672 39.6943C67.0862 37.1203 74.1812 37.1918 77.7888 37.5493C83.08 41.8392 84.0019 45.7717 83.8015 47.2017Z" fill="#FDC439"/>
<path d="M80.1939 36.4769C75.3838 35.6189 70.9745 31.8294 69.3711 30.0419C71.2952 25.3229 78.5905 23.7857 81.9977 23.6069C83.9218 26.1809 81.5969 33.2594 80.1939 36.4769Z" fill="#FCC13F"/>
<path d="M81.3965 24.6794C78.9914 24.2504 73.58 29.3269 71.1749 31.6506C71.0394 31.7816 69.9724 31.1144 69.3711 30.0419C71.1749 25.2157 78.9914 23.6069 81.9977 23.6069L81.3965 24.6794Z" fill="#F8ED91"/>
</svg>
