<svg width="459" height="222" viewBox="0 0 459 222" fill="none" xmlns="http://www.w3.org/2000/svg">
<path d="M21.5161 187.858L0.619629 17.7713L434.958 210.754C291.704 225.501 158.423 220.456 106.743 220.844C65.399 221.154 49.6229 216.058 46.9029 213.471L21.5161 187.858Z" fill="black" fill-opacity="0.15"/>
<path d="M1.0874 16.541L25.9257 139.936C36.9647 157.486 59.0427 193.901 59.0427 199.166C59.0427 204.431 78.361 208.49 88.0201 209.861C100.439 227.959 412.981 213.151 439.889 209.861C461.415 207.228 459.897 116.628 456.448 71.6576L439.889 6.66926C373.655 -7.80914 119.757 7.21773 1.0874 16.541Z" fill="#FCFEE6"/>
<g filter="url(#filter0_d)">
<path d="M134.666 72.162C135.37 72.034 136.49 71.874 138.026 71.682C139.562 71.426 141.034 71.298 142.442 71.298C143.914 71.298 145.194 71.426 146.282 71.682C147.434 71.874 148.394 72.258 149.162 72.834C149.93 73.41 150.506 74.21 150.89 75.234C151.274 76.258 151.466 77.602 151.466 79.266V114.786C151.466 120.482 149.834 124.77 146.57 127.65C143.306 130.466 138.506 131.874 132.17 131.874C128.842 131.874 126.154 131.362 124.106 130.338C122.634 129.634 121.546 128.674 120.842 127.458C120.202 126.242 119.882 124.866 119.882 123.33C119.882 122.05 120.042 120.93 120.362 119.97C120.746 119.01 121.194 118.242 121.706 117.666C122.922 117.922 123.946 118.114 124.778 118.242C125.674 118.306 126.634 118.338 127.658 118.338C130.154 118.338 131.946 117.73 133.034 116.514C134.122 115.234 134.666 113.378 134.666 110.946V72.162ZM215.508 107.01C215.508 110.978 214.9 114.53 213.684 117.666C212.468 120.738 210.74 123.33 208.5 125.442C206.324 127.554 203.7 129.154 200.628 130.242C197.556 131.33 194.132 131.874 190.356 131.874C186.58 131.874 183.156 131.298 180.084 130.146C177.012 128.994 174.356 127.362 172.116 125.25C169.94 123.074 168.244 120.45 167.028 117.378C165.812 114.306 165.204 110.85 165.204 107.01C165.204 103.234 165.812 99.81 167.028 96.738C168.244 93.666 169.94 91.074 172.116 88.962C174.356 86.786 177.012 85.122 180.084 83.97C183.156 82.818 186.58 82.242 190.356 82.242C194.132 82.242 197.556 82.85 200.628 84.066C203.7 85.218 206.324 86.882 208.5 89.058C210.74 91.17 212.468 93.762 213.684 96.834C214.9 99.906 215.508 103.298 215.508 107.01ZM181.908 107.01C181.908 110.914 182.644 113.922 184.116 116.034C185.652 118.082 187.764 119.106 190.452 119.106C193.14 119.106 195.188 118.05 196.596 115.938C198.068 113.826 198.804 110.85 198.804 107.01C198.804 103.17 198.068 100.226 196.596 98.178C195.124 96.066 193.044 95.01 190.356 95.01C187.668 95.01 185.588 96.066 184.116 98.178C182.644 100.226 181.908 103.17 181.908 107.01ZM251.022 82.242C254.67 82.242 257.966 82.722 260.91 83.682C263.918 84.578 266.446 85.762 268.494 87.234C269.774 88.13 270.766 89.122 271.47 90.21C272.238 91.298 272.622 92.706 272.622 94.434V128.034C272.622 131.426 271.982 134.338 270.702 136.77C269.422 139.266 267.662 141.314 265.422 142.914C263.246 144.578 260.654 145.794 257.646 146.562C254.702 147.33 251.534 147.714 248.142 147.714C242.318 147.714 237.742 146.914 234.414 145.314C231.086 143.778 229.422 141.25 229.422 137.73C229.422 136.258 229.71 134.946 230.286 133.794C230.926 132.706 231.63 131.874 232.398 131.298C234.254 132.322 236.334 133.186 238.638 133.89C241.006 134.594 243.438 134.946 245.934 134.946C249.39 134.946 252.142 134.37 254.19 133.218C256.238 132.066 257.262 130.21 257.262 127.65V126.114C254.638 127.266 251.438 127.842 247.662 127.842C244.782 127.842 242.03 127.426 239.406 126.594C236.846 125.698 234.574 124.354 232.59 122.562C230.67 120.706 229.102 118.338 227.886 115.458C226.734 112.578 226.158 109.154 226.158 105.186C226.158 101.282 226.766 97.89 227.982 95.01C229.262 92.13 230.99 89.762 233.166 87.906C235.406 85.986 238.03 84.578 241.038 83.682C244.11 82.722 247.438 82.242 251.022 82.242ZM256.974 96.162C256.526 95.906 255.854 95.65 254.958 95.394C254.126 95.138 253.07 95.01 251.79 95.01C248.654 95.01 246.286 95.906 244.686 97.698C243.15 99.426 242.382 101.922 242.382 105.186C242.382 108.898 243.15 111.586 244.686 113.25C246.286 114.85 248.302 115.65 250.734 115.65C253.358 115.65 255.438 115.042 256.974 113.826V96.162ZM307.507 119.97C308.595 119.97 309.779 119.874 311.059 119.682C312.403 119.426 313.395 119.106 314.035 118.722V111.042L307.123 111.618C305.331 111.746 303.859 112.13 302.707 112.77C301.555 113.41 300.979 114.37 300.979 115.65C300.979 116.93 301.459 117.986 302.419 118.818C303.443 119.586 305.139 119.97 307.507 119.97ZM306.739 82.242C310.195 82.242 313.331 82.594 316.147 83.298C319.027 84.002 321.459 85.09 323.443 86.562C325.491 87.97 327.059 89.794 328.147 92.034C329.235 94.21 329.779 96.802 329.779 99.81V121.314C329.779 122.978 329.299 124.354 328.339 125.442C327.443 126.466 326.355 127.362 325.075 128.13C320.915 130.626 315.059 131.874 307.507 131.874C304.115 131.874 301.043 131.554 298.291 130.914C295.603 130.274 293.267 129.314 291.283 128.034C289.363 126.754 287.859 125.122 286.771 123.138C285.747 121.154 285.235 118.85 285.235 116.226C285.235 111.81 286.547 108.418 289.171 106.05C291.795 103.682 295.859 102.21 301.363 101.634L313.939 100.29V99.618C313.939 97.762 313.107 96.45 311.443 95.682C309.843 94.85 307.507 94.434 304.435 94.434C302.003 94.434 299.635 94.69 297.331 95.202C295.027 95.714 292.947 96.354 291.091 97.122C290.259 96.546 289.555 95.682 288.979 94.53C288.403 93.314 288.115 92.066 288.115 90.786C288.115 89.122 288.499 87.81 289.267 86.85C290.099 85.826 291.347 84.962 293.011 84.258C294.867 83.554 297.043 83.042 299.539 82.722C302.099 82.402 304.499 82.242 306.739 82.242ZM360.878 130.242C360.238 130.434 359.214 130.626 357.806 130.818C356.462 131.01 355.054 131.106 353.582 131.106C352.174 131.106 350.894 131.01 349.742 130.818C348.654 130.626 347.726 130.242 346.958 129.666C346.19 129.09 345.582 128.322 345.134 127.362C344.75 126.338 344.558 125.026 344.558 123.426V94.626C344.558 93.154 344.814 91.906 345.326 90.882C345.902 89.794 346.702 88.834 347.726 88.002C348.75 87.17 349.998 86.434 351.47 85.794C353.006 85.09 354.638 84.482 356.366 83.97C358.094 83.458 359.886 83.074 361.742 82.818C363.598 82.498 365.454 82.338 367.31 82.338C370.382 82.338 372.814 82.946 374.606 84.162C376.398 85.314 377.294 87.234 377.294 89.922C377.294 90.818 377.166 91.714 376.91 92.61C376.654 93.442 376.334 94.21 375.95 94.914C374.606 94.914 373.23 94.978 371.822 95.106C370.414 95.234 369.038 95.426 367.694 95.682C366.35 95.938 365.07 96.226 363.854 96.546C362.702 96.802 361.71 97.122 360.878 97.506V130.242Z" fill="#954F3D"/>
</g>
<defs>
<filter id="filter0_d" x="115.882" y="71.298" width="265.412" height="84.416" filterUnits="userSpaceOnUse" color-interpolation-filters="sRGB">
<feFlood flood-opacity="0" result="BackgroundImageFix"/>
<feColorMatrix in="SourceAlpha" type="matrix" values="0 0 0 0 0 0 0 0 0 0 0 0 0 0 0 0 0 0 127 0"/>
<feOffset dy="4"/>
<feGaussianBlur stdDeviation="2"/>
<feColorMatrix type="matrix" values="0 0 0 0 0 0 0 0 0 0 0 0 0 0 0 0 0 0 0.25 0"/>
<feBlend mode="normal" in2="BackgroundImageFix" result="effect1_dropShadow"/>
<feBlend mode="normal" in="SourceGraphic" in2="effect1_dropShadow" result="shape"/>
</filter>
</defs>
</svg>
