<svg width="474" height="233" viewBox="0 0 474 233" fill="none" xmlns="http://www.w3.org/2000/svg">
<path d="M29.4179 194.858L8.52148 24.7713L442.86 217.754C299.606 232.501 166.325 227.456 114.645 227.844C73.3008 228.154 57.5247 223.058 54.8047 220.471L29.4179 194.858Z" fill="black" fill-opacity="0.15"/>
<path d="M30.3964 147.627L30.5231 148.256L30.8649 148.8C36.3698 157.551 44.6242 171.003 51.4942 182.908C54.9324 188.865 58.0002 194.395 60.1998 198.74C61.3022 200.917 62.1597 202.744 62.7332 204.151C63.0205 204.855 63.2164 205.406 63.3355 205.812C63.4159 206.086 63.4394 206.221 63.4451 206.251C63.4707 208.004 64.2909 209.406 65.1738 210.402C66.0624 211.405 67.2021 212.22 68.353 212.89C70.6613 214.234 73.6787 215.371 76.7886 216.321C82.561 218.084 89.3219 219.402 94.2089 220.146C94.8693 220.725 95.6073 221.186 96.3193 221.56C97.5486 222.207 99.0142 222.755 100.628 223.234C103.857 224.194 108.067 224.99 113.035 225.66C122.995 227.004 136.463 227.902 152.234 228.456C183.803 229.565 224.954 229.306 266.501 228.38C349.523 226.53 434.56 222.005 448.216 220.335C452.225 219.844 455.329 217.326 457.672 214.045C460.005 210.779 461.833 206.432 463.301 201.473C466.243 191.531 467.983 178.248 468.929 163.866C470.823 135.04 469.571 100.968 467.839 78.3899L467.816 78.0875L467.741 77.7935L451.182 12.8051L450.649 10.7114L448.538 10.25C431.593 6.54581 402.978 4.77427 368.022 4.29289C332.969 3.81019 291.25 4.62456 247.928 6.18176C161.278 9.2963 68.0854 15.3873 8.71513 20.0517L4.77895 20.361L5.55808 24.2316L30.3964 147.627Z" fill="#FCFEE6" stroke="#FFFF93" stroke-width="7"/>
<g filter="url(#filter0_d)">
<path d="M142.568 79.162C143.272 79.034 144.392 78.874 145.928 78.682C147.464 78.426 148.936 78.298 150.344 78.298C151.816 78.298 153.096 78.426 154.184 78.682C155.336 78.874 156.296 79.258 157.064 79.834C157.832 80.41 158.408 81.21 158.792 82.234C159.176 83.258 159.368 84.602 159.368 86.266V121.786C159.368 127.482 157.736 131.77 154.472 134.65C151.208 137.466 146.408 138.874 140.072 138.874C136.744 138.874 134.056 138.362 132.008 137.338C130.536 136.634 129.448 135.674 128.744 134.458C128.104 133.242 127.784 131.866 127.784 130.33C127.784 129.05 127.944 127.93 128.264 126.97C128.648 126.01 129.096 125.242 129.608 124.666C130.824 124.922 131.848 125.114 132.68 125.242C133.576 125.306 134.536 125.338 135.56 125.338C138.056 125.338 139.848 124.73 140.936 123.514C142.024 122.234 142.568 120.378 142.568 117.946V79.162ZM223.41 114.01C223.41 117.978 222.802 121.53 221.586 124.666C220.37 127.738 218.642 130.33 216.402 132.442C214.226 134.554 211.602 136.154 208.53 137.242C205.458 138.33 202.034 138.874 198.258 138.874C194.482 138.874 191.058 138.298 187.986 137.146C184.914 135.994 182.258 134.362 180.018 132.25C177.842 130.074 176.146 127.45 174.93 124.378C173.714 121.306 173.106 117.85 173.106 114.01C173.106 110.234 173.714 106.81 174.93 103.738C176.146 100.666 177.842 98.074 180.018 95.962C182.258 93.786 184.914 92.122 187.986 90.97C191.058 89.818 194.482 89.242 198.258 89.242C202.034 89.242 205.458 89.85 208.53 91.066C211.602 92.218 214.226 93.882 216.402 96.058C218.642 98.17 220.37 100.762 221.586 103.834C222.802 106.906 223.41 110.298 223.41 114.01ZM189.81 114.01C189.81 117.914 190.546 120.922 192.018 123.034C193.554 125.082 195.666 126.106 198.354 126.106C201.042 126.106 203.09 125.05 204.498 122.938C205.97 120.826 206.706 117.85 206.706 114.01C206.706 110.17 205.97 107.226 204.498 105.178C203.026 103.066 200.946 102.01 198.258 102.01C195.57 102.01 193.49 103.066 192.018 105.178C190.546 107.226 189.81 110.17 189.81 114.01ZM258.924 89.242C262.572 89.242 265.868 89.722 268.812 90.682C271.82 91.578 274.348 92.762 276.396 94.234C277.676 95.13 278.668 96.122 279.372 97.21C280.14 98.298 280.524 99.706 280.524 101.434V135.034C280.524 138.426 279.884 141.338 278.604 143.77C277.324 146.266 275.564 148.314 273.324 149.914C271.148 151.578 268.556 152.794 265.548 153.562C262.604 154.33 259.436 154.714 256.044 154.714C250.22 154.714 245.644 153.914 242.316 152.314C238.988 150.778 237.324 148.25 237.324 144.73C237.324 143.258 237.612 141.946 238.188 140.794C238.828 139.706 239.532 138.874 240.3 138.298C242.156 139.322 244.236 140.186 246.54 140.89C248.908 141.594 251.34 141.946 253.836 141.946C257.292 141.946 260.044 141.37 262.092 140.218C264.14 139.066 265.164 137.21 265.164 134.65V133.114C262.54 134.266 259.34 134.842 255.564 134.842C252.684 134.842 249.932 134.426 247.308 133.594C244.748 132.698 242.476 131.354 240.492 129.562C238.572 127.706 237.004 125.338 235.788 122.458C234.636 119.578 234.06 116.154 234.06 112.186C234.06 108.282 234.668 104.89 235.884 102.01C237.164 99.13 238.892 96.762 241.068 94.906C243.308 92.986 245.932 91.578 248.94 90.682C252.012 89.722 255.34 89.242 258.924 89.242ZM264.876 103.162C264.428 102.906 263.756 102.65 262.86 102.394C262.028 102.138 260.972 102.01 259.692 102.01C256.556 102.01 254.188 102.906 252.588 104.698C251.052 106.426 250.284 108.922 250.284 112.186C250.284 115.898 251.052 118.586 252.588 120.25C254.188 121.85 256.204 122.65 258.636 122.65C261.26 122.65 263.34 122.042 264.876 120.826V103.162ZM315.409 126.97C316.497 126.97 317.681 126.874 318.961 126.682C320.305 126.426 321.297 126.106 321.937 125.722V118.042L315.025 118.618C313.233 118.746 311.761 119.13 310.609 119.77C309.457 120.41 308.881 121.37 308.881 122.65C308.881 123.93 309.361 124.986 310.321 125.818C311.345 126.586 313.041 126.97 315.409 126.97ZM314.641 89.242C318.097 89.242 321.233 89.594 324.049 90.298C326.929 91.002 329.361 92.09 331.345 93.562C333.393 94.97 334.961 96.794 336.049 99.034C337.137 101.21 337.681 103.802 337.681 106.81V128.314C337.681 129.978 337.201 131.354 336.241 132.442C335.345 133.466 334.257 134.362 332.977 135.13C328.817 137.626 322.961 138.874 315.409 138.874C312.017 138.874 308.945 138.554 306.193 137.914C303.505 137.274 301.169 136.314 299.185 135.034C297.265 133.754 295.761 132.122 294.673 130.138C293.649 128.154 293.137 125.85 293.137 123.226C293.137 118.81 294.449 115.418 297.073 113.05C299.697 110.682 303.761 109.21 309.265 108.634L321.841 107.29V106.618C321.841 104.762 321.009 103.45 319.345 102.682C317.745 101.85 315.409 101.434 312.337 101.434C309.905 101.434 307.537 101.69 305.233 102.202C302.929 102.714 300.849 103.354 298.993 104.122C298.161 103.546 297.457 102.682 296.881 101.53C296.305 100.314 296.017 99.066 296.017 97.786C296.017 96.122 296.401 94.81 297.169 93.85C298.001 92.826 299.249 91.962 300.913 91.258C302.769 90.554 304.945 90.042 307.441 89.722C310.001 89.402 312.401 89.242 314.641 89.242ZM368.78 137.242C368.14 137.434 367.116 137.626 365.708 137.818C364.364 138.01 362.956 138.106 361.484 138.106C360.076 138.106 358.796 138.01 357.644 137.818C356.556 137.626 355.628 137.242 354.86 136.666C354.092 136.09 353.484 135.322 353.036 134.362C352.652 133.338 352.46 132.026 352.46 130.426V101.626C352.46 100.154 352.716 98.906 353.228 97.882C353.804 96.794 354.604 95.834 355.628 95.002C356.652 94.17 357.9 93.434 359.372 92.794C360.908 92.09 362.54 91.482 364.268 90.97C365.996 90.458 367.788 90.074 369.644 89.818C371.5 89.498 373.356 89.338 375.212 89.338C378.284 89.338 380.716 89.946 382.508 91.162C384.3 92.314 385.196 94.234 385.196 96.922C385.196 97.818 385.068 98.714 384.812 99.61C384.556 100.442 384.236 101.21 383.852 101.914C382.508 101.914 381.132 101.978 379.724 102.106C378.316 102.234 376.94 102.426 375.596 102.682C374.252 102.938 372.972 103.226 371.756 103.546C370.604 103.802 369.612 104.122 368.78 104.506V137.242Z" fill="#954F3D"/>
</g>
<defs>
<filter id="filter0_d" x="123.784" y="78.298" width="265.412" height="84.416" filterUnits="userSpaceOnUse" color-interpolation-filters="sRGB">
<feFlood flood-opacity="0" result="BackgroundImageFix"/>
<feColorMatrix in="SourceAlpha" type="matrix" values="0 0 0 0 0 0 0 0 0 0 0 0 0 0 0 0 0 0 127 0"/>
<feOffset dy="4"/>
<feGaussianBlur stdDeviation="2"/>
<feColorMatrix type="matrix" values="0 0 0 0 0 0 0 0 0 0 0 0 0 0 0 0 0 0 0.25 0"/>
<feBlend mode="normal" in2="BackgroundImageFix" result="effect1_dropShadow"/>
<feBlend mode="normal" in="SourceGraphic" in2="effect1_dropShadow" result="shape"/>
</filter>
</defs>
</svg>
