<svg width="113" height="431" viewBox="0 0 113 431" fill="none" xmlns="http://www.w3.org/2000/svg">
<path d="M86.1211 429.618L5.43408 428.727C18.2016 427.586 71.3214 397.165 96.2853 382.098C99.8516 427.924 86.1211 429.618 86.1211 429.618Z" fill="black" fill-opacity="0.2"/>
<path d="M17.0488 391.222C17.0488 420.019 10.2572 426.947 5.77441 430.75H83.4081C94.501 429.324 96.7698 403.759 96.5176 391.156V12.885H17.0488V391.222Z" fill="#FCD37B"/>
<path d="M40.9556 373.758C40.7093 374.645 41.8107 375.203 42.3922 375.371C43.0079 375.976 45.368 373.254 45.5733 373.355C45.7785 373.456 46.189 374.464 46.2916 374.162C46.3737 373.92 46.4626 373.725 46.4968 373.658C46.4968 373.557 46.5174 373.335 46.5994 373.254C46.6815 373.174 46.7705 373.221 46.8047 373.254C46.8389 373.288 46.9073 373.395 46.9073 373.557C46.9073 373.718 47.0441 373.893 47.1125 373.96L47.3178 373.758C47.3998 372.307 46.8047 371.809 46.4968 371.742C46.0864 371.581 45.368 371.675 45.0602 371.742C44.6497 370.371 44.7524 368.214 44.855 367.306C45.5524 367.325 46.2015 367.33 46.8047 367.322M46.8047 367.322C51.3132 367.261 53.2576 366.512 53.68 366.097C56.7995 360.532 53.6115 358.536 51.6276 358.233C44.6497 358.838 41.2634 360.35 40.1346 361.459C39.2316 362.346 39.5531 365.929 39.8268 367.609C36.03 374.968 33.5672 375.371 33.4646 375.371C33.3825 375.371 32.8147 375.17 32.541 375.069C32.541 375.371 32.541 376.016 32.541 376.178C32.541 376.379 31.3096 376.883 31.1044 376.883C30.8992 376.883 30.1809 375.976 30.1809 376.077C30.1809 376.158 30.044 376.85 29.9756 377.186C28.539 377.388 28.4364 377.186 28.2312 377.186C28.067 377.186 27.7523 376.581 27.6155 376.279C27.6155 376.44 27.1366 376.951 26.8971 377.186C25.912 377.267 25.3237 376.682 25.1527 376.379C24.9474 376.077 25.2553 375.472 25.0501 375.674C24.8448 375.875 24.537 376.178 24.2291 376.077C23.9828 375.996 23.4424 375.17 23.203 374.766C23.1345 374.934 23.0388 375.412 23.203 375.976C23.7502 377.791 26.2609 381.702 31.9253 382.831C31.8569 383.436 31.6294 383.94 31.9253 384.747C32.0031 384.959 35.1064 387.67 35.8247 388.678C35.7905 388.846 35.6195 389.162 35.209 389.082C35.1748 389.216 35.127 389.485 35.209 389.485C35.3117 389.485 35.9274 390.09 40.1346 390.795C40.1004 390.493 39.991 389.807 39.8268 389.485C39.6626 389.162 40.5793 389.35 41.0582 389.485C40.9898 389.149 40.7503 388.457 40.3399 388.376C39.9294 388.295 38.3901 388.208 37.6718 388.174C37.364 387.704 36.7688 386.702 36.8509 386.461C36.7825 386.091 36.6867 385.352 36.8509 385.352C36.9852 385.352 37.8225 385.395 38.7303 384.747M46.8047 367.322C46.7705 367.619 46.7226 368.234 46.8047 368.315C46.9073 368.415 47.523 369.121 47.8308 372.145M47.8308 372.145C47.8518 372.609 47.8541 373.249 47.8166 373.96M47.8308 372.145C47.7282 372.045 49.5753 371.238 50.191 371.339C50.6836 371.42 51.2172 372.179 51.4224 372.549C51.4224 373.274 51.0803 373.59 50.9093 373.658C50.9914 373.496 50.8067 373.187 50.7041 373.053C50.622 372.891 50.3962 372.985 50.2936 373.053C50.2936 373.214 50.0884 373.523 49.9858 373.658C50.0679 373.335 49.4727 372.985 49.1648 372.851C48.8365 373.012 48.1292 373.658 47.8166 373.96M44.4135 381.118C45.3748 380.259 46.1976 379.291 46.7021 378.597C47.4424 377.534 47.7317 375.569 47.8166 373.96M44.4135 381.118C43.0935 382.296 41.5121 383.266 40.1346 383.033C39.709 383.869 39.2098 384.404 38.7303 384.747M44.4135 381.118C44.116 381.823 43.1515 383.416 41.6739 384.142C41.4686 384.243 41.325 384.908 42.3922 386.763C42.9395 386.83 44.2187 386.944 44.9576 386.864C45.2654 387.099 45.9632 387.63 46.2916 387.872C45.9631 387.838 45.1275 387.791 44.4135 387.872C44.458 388.141 44.6703 388.759 45.1628 389.082C45.0602 389.149 44.7934 389.283 44.5471 389.283C42.9395 388.88 39.8473 388.033 40.3399 387.872C40.8324 387.711 40.8187 387.536 40.7503 387.469C40.635 386.897 40.0696 385.553 38.7303 384.747" stroke="#584737"/>
<path d="M54.3074 364.786L53.5891 365.593L52.1525 364.585L51.0237 365.895L49.9976 364.786L49.1766 365.895L48.0479 364.988" stroke="#584737"/>
<path d="M51.024 361.459C51.024 361.325 51.0035 361.056 50.9214 361.056L51.2292 360.754C51.3319 360.653 51.5371 360.855 51.6397 360.855C51.7218 360.855 51.8107 361.056 51.8449 361.157C51.8791 361.291 51.927 361.58 51.8449 361.661C51.7628 361.742 51.6055 361.695 51.5371 361.661L51.3319 361.56L51.024 361.459Z" fill="#584737"/>
<path d="M44.5594 364.181H43.9437L43.5332 364.484V364.988V365.189C43.67 365.257 43.9642 365.391 44.0463 365.391H44.5594C44.6415 365.391 44.7304 365.189 44.7646 365.089L44.9698 364.786L44.7646 364.383L44.5594 364.181Z" fill="#584737"/>
<path d="M45.1302 176.918L45.0132 176.607L44.8962 176.918L43.9951 179.312H41.0669H40.6324L41.0004 179.543L43.3529 181.019L42.4572 183.399L42.3267 183.746L42.6407 183.549L45.0132 182.06L47.3858 183.549L47.6997 183.746L47.5692 183.399L46.6736 181.019L49.026 179.543L49.3941 179.312H48.9596H46.0314L45.1302 176.918Z" stroke="#584737" stroke-width="0.25"/>
<rect x="39.3711" y="173.491" width="11.2842" height="12.9852" rx="1.5" stroke="#584737"/>
<rect x="24.8726" y="173.491" width="11.2842" height="12.9852" rx="1.5" fill="#584737" stroke="#584737"/>
<rect x="39.3711" y="157.779" width="11.2842" height="12.9852" rx="1.5" fill="#584737" stroke="#584737"/>
<path d="M30.6317 161.205L30.5147 160.895L30.3977 161.205L29.4966 163.6H26.5683H26.1338L26.5019 163.831L28.8543 165.307L27.9587 167.687L27.8282 168.034L28.1421 167.837L30.5147 166.348L32.8873 167.837L33.2012 168.034L33.0707 167.687L32.175 165.307L34.5275 163.831L34.8955 163.6H34.4611H31.5328L30.6317 161.205Z" stroke="#584737" stroke-width="0.25"/>
<rect x="24.8726" y="157.779" width="11.2842" height="12.9852" rx="1.5" stroke="#584737"/>
<path d="M25.0567 289.926C24.4587 289.926 23.9171 289.779 23.4317 289.484C22.9551 289.189 22.5781 288.765 22.3007 288.21C22.0234 287.647 21.8847 286.984 21.8847 286.221C21.8847 284.904 22.1664 283.686 22.7297 282.568C23.2931 281.441 24.1251 280.54 25.2257 279.864C26.3264 279.179 27.6481 278.837 29.1907 278.837C29.5894 278.837 30.0141 278.867 30.4647 278.928C30.9241 278.989 31.3401 279.08 31.7127 279.201C31.9554 279.27 32.0767 279.444 32.0767 279.721C32.0767 279.946 31.9901 280.159 31.8167 280.358C31.6521 280.557 31.4571 280.657 31.2317 280.657C31.1624 280.657 31.1104 280.653 31.0757 280.644C30.6251 280.54 30.2394 280.466 29.9187 280.423C29.5981 280.371 29.2601 280.345 28.9047 280.345C27.8041 280.345 26.8681 280.614 26.0967 281.151C25.3254 281.68 24.7491 282.382 24.3677 283.257C23.9864 284.132 23.7957 285.077 23.7957 286.091C23.7957 286.828 23.9387 287.4 24.2247 287.807C24.5194 288.206 24.9007 288.405 25.3687 288.405C25.8974 288.405 26.3611 288.188 26.7597 287.755C27.1584 287.322 27.5224 286.62 27.8517 285.649C28.1811 284.678 28.5061 283.361 28.8267 281.697C28.8787 281.454 28.9827 281.29 29.1387 281.203C29.2947 281.116 29.5027 281.073 29.7627 281.073C30.3781 281.073 30.6857 281.272 30.6857 281.671C30.6857 281.74 30.6727 281.827 30.6467 281.931C30.4214 282.772 30.2134 283.703 30.0227 284.726C29.8407 285.74 29.7497 286.511 29.7497 287.04C29.7497 287.508 29.8191 287.85 29.9577 288.067C30.0964 288.275 30.3087 288.379 30.5947 288.379C30.8721 288.379 31.1364 288.288 31.3877 288.106C31.6391 287.915 31.9554 287.595 32.3367 287.144C32.4407 287.023 32.5577 286.962 32.6877 286.962C32.8004 286.962 32.8871 287.014 32.9477 287.118C33.0171 287.222 33.0517 287.365 33.0517 287.547C33.0517 287.885 32.9694 288.154 32.8047 288.353C32.3801 288.864 31.9641 289.254 31.5567 289.523C31.1494 289.792 30.6511 289.926 30.0617 289.926C29.4551 289.926 28.9654 289.753 28.5927 289.406C28.2201 289.051 27.9861 288.552 27.8907 287.911C27.2494 289.254 26.3047 289.926 25.0567 289.926ZM42.9144 281.541C42.9144 282.278 42.6544 282.915 42.1344 283.452C41.6144 283.981 40.856 284.362 39.8594 284.596C40.3967 284.743 40.804 284.986 41.0814 285.324C41.3587 285.653 41.4974 286.035 41.4974 286.468C41.4974 287.153 41.2807 287.746 40.8474 288.249C40.4227 288.752 39.7987 289.142 38.9754 289.419C38.152 289.688 37.1597 289.822 35.9984 289.822C35.565 289.822 35.2184 289.809 34.9584 289.783C34.9497 290.026 34.8457 290.208 34.6464 290.329C34.447 290.45 34.1914 290.511 33.8794 290.511C33.5674 290.511 33.3507 290.442 33.2294 290.303C33.1167 290.164 33.069 289.961 33.0864 289.692C33.1644 288.479 33.316 287.209 33.5414 285.883C33.7667 284.548 34.0527 283.261 34.3994 282.022C34.46 281.805 34.5814 281.654 34.7634 281.567C34.9454 281.48 35.1837 281.437 35.4784 281.437C36.007 281.437 36.2714 281.584 36.2714 281.879C36.2714 282 36.2454 282.139 36.1934 282.295C35.968 282.971 35.7427 283.89 35.5174 285.051C35.292 286.204 35.1317 287.304 35.0364 288.353C35.4524 288.388 35.7904 288.405 36.0504 288.405C37.2637 288.405 38.152 288.232 38.7154 287.885C39.2874 287.53 39.5734 287.079 39.5734 286.533C39.5734 286.152 39.4087 285.831 39.0794 285.571C38.7587 285.311 38.217 285.168 37.4544 285.142C37.281 285.133 37.1597 285.09 37.0904 285.012C37.021 284.934 36.9864 284.808 36.9864 284.635C36.9864 284.384 37.0384 284.18 37.1424 284.024C37.2464 283.868 37.437 283.786 37.7144 283.777C38.3297 283.76 38.8844 283.669 39.3784 283.504C39.881 283.339 40.2754 283.11 40.5614 282.815C40.8474 282.512 40.9904 282.161 40.9904 281.762C40.9904 281.259 40.7434 280.865 40.2494 280.579C39.7554 280.284 38.997 280.137 37.9744 280.137C37.047 280.137 36.15 280.258 35.2834 280.501C34.4167 280.735 33.68 281.034 33.0734 281.398C32.796 281.563 32.562 281.645 32.3714 281.645C32.2154 281.645 32.094 281.593 32.0074 281.489C31.9294 281.376 31.8904 281.238 31.8904 281.073C31.8904 280.856 31.9337 280.67 32.0204 280.514C32.1157 280.358 32.3367 280.18 32.6834 279.981C33.4114 279.565 34.265 279.24 35.2444 279.006C36.2237 278.772 37.2247 278.655 38.2474 278.655C39.816 278.655 40.986 278.919 41.7574 279.448C42.5287 279.977 42.9144 280.674 42.9144 281.541ZM48.2723 289.926C47.241 289.926 46.344 289.74 45.5813 289.367C44.8186 288.986 44.2336 288.448 43.8263 287.755C43.419 287.062 43.2153 286.256 43.2153 285.337C43.2153 284.063 43.4536 282.932 43.9303 281.944C44.4156 280.956 45.07 280.193 45.8933 279.656C46.7166 279.11 47.631 278.837 48.6363 278.837C49.5723 278.837 50.283 279.08 50.7683 279.565C51.2536 280.042 51.4963 280.674 51.4963 281.463C51.4963 281.992 51.401 282.416 51.2103 282.737C51.0283 283.058 50.764 283.218 50.4173 283.218C50.1746 283.218 49.984 283.162 49.8453 283.049C49.7066 282.936 49.6373 282.772 49.6373 282.555C49.6373 282.477 49.6546 282.334 49.6893 282.126C49.7413 281.866 49.7673 281.658 49.7673 281.502C49.7673 280.713 49.347 280.319 48.5063 280.319C47.9343 280.319 47.3883 280.505 46.8683 280.878C46.3483 281.251 45.928 281.801 45.6073 282.529C45.2866 283.248 45.1263 284.106 45.1263 285.103C45.1263 286.143 45.4166 286.949 45.9973 287.521C46.578 288.084 47.436 288.366 48.5713 288.366C49.1346 288.366 49.7023 288.297 50.2743 288.158C50.855 288.011 51.4963 287.79 52.1983 287.495C52.3283 287.443 52.4366 287.417 52.5233 287.417C52.662 287.417 52.766 287.469 52.8353 287.573C52.9046 287.677 52.9393 287.811 52.9393 287.976C52.9393 288.505 52.6533 288.895 52.0813 289.146C51.466 289.415 50.8246 289.614 50.1573 289.744C49.4986 289.865 48.8703 289.926 48.2723 289.926Z" fill="#584737"/>
<path d="M86.9957 413.463C86.9957 413.463 88.7107 411.768 88.9124 406.501H70.5572C69.807 410.524 67.4438 413.463 67.4438 413.463H86.9957Z" fill="#E0874E"/>
<path d="M74.9634 392.801C74.4337 396.314 71.9766 399.714 71.9766 399.714H89.8624C89.8624 399.714 91.1571 397.146 91.5955 392.801H74.9634Z" fill="#E0874E"/>
<rect x="54.9873" y="374.514" width="36.6217" height="7" fill="#E0874E"/>
<rect x="71.6094" y="355.963" width="20" height="7" fill="#E0874E"/>
<rect x="71.6094" y="337.412" width="20" height="7" fill="#E0874E"/>
<rect x="71.6094" y="318.861" width="20" height="7" fill="#E0874E"/>
<rect x="71.6094" y="299.861" width="20" height="7" fill="#E0874E"/>
<rect x="54.9873" y="280.861" width="36.6221" height="7" fill="#E0874E"/>
<rect x="71.6094" y="262.31" width="20" height="7" fill="#E0874E"/>
<rect x="71.6094" y="243.527" width="20" height="7" fill="#E0874E"/>
<rect x="71.6094" y="224.976" width="20" height="7" fill="#E0874E"/>
<rect x="71.6094" y="206.13" width="20" height="7" fill="#E0874E"/>
<rect x="71.6094" y="187.627" width="20" height="7" fill="#E0874E"/>
<rect x="54.9873" y="168.627" width="36.6221" height="7" fill="#E0874E"/>
<rect x="71.6094" y="149.627" width="20" height="7" fill="#E0874E"/>
<rect x="71.6094" y="132.086" width="20" height="7" fill="#E0874E"/>
<rect x="71.6094" y="112.544" width="20" height="7" fill="#E0874E"/>
<rect x="71.6094" y="94.0016" width="20" height="7" fill="#E0874E"/>
<rect x="71.6094" y="74.2419" width="20" height="7" fill="#E0874E"/>
<rect x="71.6094" y="55.7" width="20" height="7" fill="#E0874E"/>
<rect x="54.9873" y="37.1578" width="36.6221" height="7" fill="#E0874E"/>
<path d="M31.7483 4.86304L9.36035 23.2568V24.5182H10.832L11.6728 25.4642L12.3035 24.5182L13.0392 26.1999L34.0607 7.91126V6.86018H32.9045V5.59889L31.7483 4.86304Z" fill="url(#paint0_linear)"/>
<path d="M104.318 22.5658L83.0973 2.83654L81.8473 3.0051L82.0439 4.4635L81.2188 5.42323L82.2405 5.92181L80.6722 6.87568L101.606 25.2648L102.648 25.1244L102.493 23.9785L103.743 23.81L104.318 22.5658Z" fill="url(#paint1_linear)"/>
<path d="M110.561 382.34L81.6046 383.382L80.8395 384.385L82.0094 385.278L82.1041 386.54L83.1793 386.171L82.7441 387.954L110.55 386.166L111.188 385.33L110.269 384.629L111.034 383.626L110.561 382.34Z" fill="url(#paint2_linear)"/>
<path d="M105.889 178.115L77.0496 180.911L76.3466 181.958L77.5685 182.778L77.7395 184.032L78.7903 183.598L78.464 185.405L106.111 181.934L106.696 181.062L105.736 180.417L106.439 179.37L105.889 178.115Z" fill="url(#paint3_linear)"/>
<path d="M2.0203 222.094L30.8601 219.298L31.563 218.251L30.3412 217.431L30.1702 216.177L29.1193 216.611L29.4456 214.804L1.79902 218.275L1.21327 219.147L2.17326 219.792L1.47036 220.839L2.0203 222.094Z" fill="url(#paint4_linear)"/>
<path d="M34.4224 381.067L7.76759 377.77L6.79744 378.576L7.61961 379.566L7.36183 380.736L8.44172 380.555L7.55934 382.124L33.3698 384.569L34.1782 383.898L33.5323 383.12L34.5024 382.314L34.4224 381.067Z" fill="url(#paint5_linear)"/>
<path d="M31.1203 51.6054C30.6862 51.5395 30.7249 45.7101 30.7249 45.7101C30.3178 44.3407 39.8981 42.597 42.6785 45.7101C42.7943 46.7674 42.9004 49.4422 42.398 51.6837M28.0089 29.9092C26.7832 29.4472 23.0228 28.3173 21.9796 30.4732C20.6854 33.148 24.7089 40.9798 26.8696 41.812C27.1534 41.8758 27.7532 41.9651 27.8827 41.812C28.0446 41.6205 30.8237 38.3693 30.9317 38.3827C31.018 38.3935 30.4847 37.8441 30.2073 37.568C29.599 38.2512 28.3534 39.6176 28.237 39.6176C28.0916 39.6176 26.0152 41.1608 24.5511 36.2455C23.087 31.3302 26.1583 31.3841 28.1145 32.09M45.3328 29.892C46.5585 29.43 50.2908 28.3173 51.3339 30.4732C52.6282 33.148 48.6047 40.9798 46.4439 41.812C46.1602 41.8758 45.5603 41.9651 45.4308 41.812C45.2689 41.6205 42.4898 38.3693 42.3819 38.3828M43.1063 37.568C43.7146 38.2512 44.9602 39.6176 45.0765 39.6176C45.222 39.6176 47.2983 41.1608 48.7625 36.2455C50.2266 31.3302 47.2529 31.4125 45.2967 32.1184M28.0103 29.8669C27.884 32.331 28.6549 37.7455 32.7489 39.6912C36.843 41.6369 40.8597 39.6883 42.3563 38.4709C43.4875 37.438 45.6692 34.2713 45.3467 29.8669M32.4291 39.4979C32.816 40.2143 33.627 42.2321 33.6384 44.192C34.7369 44.0249 37.4982 43.7909 39.7561 44.192C39.9567 42.8071 40.4302 39.9068 40.6939 39.4942M42.826 51.6696V52.4468H30.6043V51.6026L42.826 51.6696ZM42.826 51.6696V52.1662M37.0059 28.869H45.3563V29.206M27.583 31.9156L27.9303 32.033M28.1524 41.4943L27.8625 41.8228C27.7482 41.9213 27.2012 41.9213 26.8085 41.7871L26.6166 41.6929L26.3715 41.5271L26.1872 41.3772L26.0075 41.2143M32.5638 39.7423L33.0097 40.8469L33.3498 41.9737L33.5571 43.0919L33.6451 44.1998C34.0987 44.0999 35.1576 44.0238 35.245 44.0238M40.5938 39.6373C40.5938 39.6373 40.5907 39.638 40.5885 39.639M32.1589 46.0055H41.1065C41.1065 47.3441 41.5861 48.1012 41.809 48.2481C41.2542 49.1488 41.2623 50.155 41.3749 50.6113H32.1589C32.2091 50.277 32.3207 49.3909 31.6984 48.2528C31.954 47.9407 32.2706 47.0007 32.1589 46.0055ZM32.4857 46.4566H40.8337C40.8964 46.9454 41.1295 47.9933 41.5607 48.2741C41.2766 48.6459 40.7635 49.5651 40.9841 50.2671H32.4857C32.7063 49.8158 32.2183 48.7504 31.9467 48.2741C32.3378 48.0033 32.469 46.9496 32.4857 46.4566ZM45.3615 29.9759H28.0152V28.869H45.3615V29.9759ZM46.0143 29.9005C46.0259 29.8969 46.0376 29.8933 46.0495 29.8897C46.0323 29.8926 46.0204 29.8962 46.0143 29.9005Z" stroke="#584737" stroke-width="0.75"/>
<defs>
<linearGradient id="paint0_linear" x1="26.1776" y1="6.43975" x2="11.7779" y2="18.9475" gradientUnits="userSpaceOnUse">
<stop stop-color="#C4C4C4" stop-opacity="0.58"/>
<stop offset="1" stop-color="#C4C4C4" stop-opacity="0.56"/>
</linearGradient>
<linearGradient id="paint1_linear" x1="102.011" y1="17.2558" x2="87.691" y2="4.6566" gradientUnits="userSpaceOnUse">
<stop stop-color="#C4C4C4" stop-opacity="0.58"/>
<stop offset="1" stop-color="#C4C4C4" stop-opacity="0.56"/>
</linearGradient>
<linearGradient id="paint2_linear" x1="105.176" y1="380.214" x2="86.1406" y2="381.423" gradientUnits="userSpaceOnUse">
<stop stop-color="#C4C4C4" stop-opacity="0.58"/>
<stop offset="1" stop-color="#C4C4C4" stop-opacity="0.56"/>
</linearGradient>
<linearGradient id="paint3_linear" x1="100.385" y1="176.319" x2="81.4585" y2="178.68" gradientUnits="userSpaceOnUse">
<stop stop-color="#C4C4C4" stop-opacity="0.58"/>
<stop offset="1" stop-color="#C4C4C4" stop-opacity="0.56"/>
</linearGradient>
<linearGradient id="paint4_linear" x1="7.5244" y1="223.889" x2="26.4512" y2="221.529" gradientUnits="userSpaceOnUse">
<stop stop-color="#C4C4C4" stop-opacity="0.58"/>
<stop offset="1" stop-color="#C4C4C4" stop-opacity="0.56"/>
</linearGradient>
<linearGradient id="paint5_linear" x1="30.0975" y1="378.329" x2="12.9637" y2="374.353" gradientUnits="userSpaceOnUse">
<stop stop-color="#C4C4C4" stop-opacity="0.58"/>
<stop offset="1" stop-color="#C4C4C4" stop-opacity="0.56"/>
</linearGradient>
</defs>
</svg>
