<svg width="605" height="281" viewBox="0 0 605 281" fill="none" xmlns="http://www.w3.org/2000/svg">
<path d="M360.826 37.6382C360.826 37.6118 360.824 37.5501 360.807 37.4445C360.749 37.085 360.571 36.5483 360.242 35.8945C359.924 35.2627 359.535 34.6578 359.184 34.1902L354.117 27.4385L362.475 28.6241C364.638 28.9308 367.827 28.184 371.34 26.7147C374.723 25.2998 377.853 23.4532 379.649 22.2196L384.003 19.2282L385.06 24.4043C385.641 27.2487 386.699 28.1734 387.23 28.4867C387.701 28.7639 388.176 28.8106 388.494 28.7844C477.041 -22.0646 556.371 17.8485 585.136 44.3774L593.468 52.0621L582.253 50.413C576.477 49.5636 558.708 49.28 539.617 49.5969C520.597 49.9127 500.894 50.8128 491.363 52.2123C489.318 52.5127 485.786 53.9427 481.072 56.4668C476.488 58.921 471.166 62.1968 465.683 65.8238C454.716 73.0777 443.305 81.602 436.202 87.4282L434.771 88.6023L433.907 88.3484C433.855 88.3849 433.798 88.4255 433.736 88.4704C432.974 89.0311 431.914 90.0013 430.579 91.4022C427.935 94.1757 424.611 98.2108 421.029 102.848C413.941 112.024 406.081 123.246 400.959 130.855C392.692 147.185 386.89 157.491 382.938 163.663C380.968 166.74 379.382 168.91 378.119 170.302C377.505 170.978 376.821 171.636 376.08 172.103C375.952 172.184 375.748 172.305 375.486 172.428C375.367 172.71 375.227 173.077 375.07 173.541C374.531 175.136 373.933 177.436 373.306 180.289C372.06 185.969 370.782 193.484 369.68 201.136C368.578 208.78 367.663 216.493 367.135 222.551C366.87 225.586 366.707 228.162 366.662 230.089C366.639 231.056 366.647 231.808 366.68 232.348C366.697 232.629 366.718 232.79 366.727 232.862C367.128 233.759 367.975 234.697 369.17 235.562C370.034 236.188 370.928 236.664 371.628 236.976C375.817 236.459 379.659 238.508 382.406 240.602C385.525 242.979 388.072 246.039 389.508 248.175L389.739 248.519L389.883 248.906C391.731 253.866 393.818 255.473 395.038 255.976C396.272 256.484 397.345 256.17 397.877 255.835L398.517 255.431L399.267 255.329C399.999 255.228 400.597 255.373 400.82 255.431C401.118 255.508 401.382 255.608 401.579 255.689C401.977 255.854 402.389 256.066 402.763 256.272C403.526 256.691 404.433 257.253 405.339 257.839C407.166 259.021 409.203 260.442 410.524 261.391L411.057 261.774L411.415 262.324C413.037 264.814 413.581 267.592 412.245 270.155C411.101 272.35 408.96 273.552 407.404 274.224C405.736 274.944 403.97 275.374 402.77 275.641C402.444 275.714 402.194 275.767 401.987 275.811C401.849 275.841 401.73 275.866 401.619 275.891L401.246 276.029C396.249 277.883 392.054 276.629 389.065 274.212C386.431 272.083 384.811 269.147 384.026 266.942C379.51 259.337 373.258 255.535 367.684 254.446C366.561 255.051 365.334 255.274 364.144 255.231C364.201 255.264 364.258 255.297 364.313 255.328C373.451 254.775 379.196 260.6 379.15 266.983C379.126 270.222 377.482 273.474 374.075 275.062C370.782 276.596 366.631 276.215 362.127 274.176L360.096 273.257L360.076 271.489C359.89 271.217 359.554 270.81 359.019 270.272C357.92 269.166 356.316 267.832 354.417 266.403C350.973 263.81 346.868 261.132 343.857 259.288C328.987 259.228 321.08 252.896 318.833 248.347L318.647 247.969L318.555 247.558C316.101 236.544 307.82 232.058 304.049 231.101C244.147 229.99 213.098 201.305 204.23 185.204C192.483 179.649 181.818 181.723 177.64 183.483C170.192 191.338 150.917 207.051 141.749 213.815C139.923 215.522 136.724 217.728 133.001 220.085C129.061 222.581 124.253 225.419 119.21 228.295C109.237 233.981 98.2365 239.875 90.9609 243.666L90.9605 243.666L90.8928 243.702C90.7893 243.769 90.671 243.84 90.5406 243.908L90.5375 243.909C90.3602 244.002 89.6469 244.374 88.6761 244.337L75.468 243.83L87.1112 237.778C87.1601 237.732 87.2227 237.671 87.3002 237.594C87.5366 237.357 87.8413 237.036 88.2152 236.626C88.9618 235.807 89.918 234.708 91.0437 233.38C93.2916 230.727 96.1474 227.239 99.2258 223.421C105.379 215.789 112.369 206.903 117.054 200.886L117.744 200L118.232 199.855C118.273 199.81 118.319 199.758 118.37 199.698C118.774 199.229 119.321 198.506 120 197.53C121.345 195.595 123.026 192.929 124.832 189.933C126.335 187.439 127.904 184.751 129.408 182.125C119.064 186.956 105.406 192.55 92.8754 197.424C84.1092 200.834 75.8162 203.922 69.4615 206.193C66.2863 207.327 63.5798 208.263 61.5331 208.935C60.5118 209.27 59.6345 209.546 58.9356 209.75C58.3226 209.928 57.6167 210.122 57.0671 210.194C56.1286 210.318 55.2525 210.36 54.4554 210.281C53.698 210.206 52.7239 209.994 51.8461 209.367C50.8361 208.646 50.1887 207.53 50.1144 206.267C50.0499 205.169 50.4332 204.288 50.7744 203.742L51.1099 203.205L51.6122 202.82L127.497 144.621L127.381 144.439L127.861 142.889C128.232 141.69 128.93 140.402 129.695 139.174C130.492 137.898 131.496 136.478 132.632 134.978C134.907 131.977 137.824 128.506 140.935 124.976C146.656 118.484 153.153 111.656 157.807 106.926C157.769 106.808 157.725 106.677 157.671 106.531C157.335 105.606 156.774 104.425 155.985 103.008C154.413 100.181 152.116 96.7391 149.462 93.077C144.4 86.0921 138.238 78.5826 133.891 73.5488L133.788 73.5112C133.499 73.8339 133.167 74.1048 132.808 74.3181C131.953 74.8255 131.086 74.9383 130.475 74.9321L130.265 74.9299L130.056 74.9027C123.965 74.1059 119.426 72.988 116.145 71.6048C112.928 70.2488 110.451 68.4373 109.255 65.948C107.96 63.2564 108.551 60.6329 109.661 58.6844C109.73 58.5616 109.803 58.4404 109.878 58.3209C92.2516 51.0088 72.106 48.9188 53.5472 49.4609C33.4213 50.0488 15.476 53.7223 5.20831 56.8887L2.35693 50.5545C93.32 -4.81895 161.853 54.9513 185.634 75.692C187.247 77.098 188.653 78.3247 189.847 79.324C190.706 78.6514 191.734 77.9084 192.875 77.1236C195.456 75.3477 198.752 73.2631 202.29 71.147C209.339 66.9296 217.558 62.4589 223.223 59.9771L225.739 58.8747L227.408 61.0569C227.694 61.4313 228.226 62.23 228.821 63.3098C229.412 64.3832 229.446 65.4639 229.388 66.1693C229.328 66.9054 229.14 67.5795 228.954 68.1078C228.584 69.1619 228.047 70.1284 227.649 70.736L227.304 71.264L226.796 71.6381C218.625 77.6558 211.293 88.2427 207.531 94.716C207.652 94.8175 207.775 94.9214 207.899 95.0273C209.318 96.2396 211.102 97.9183 213.134 99.9175C217.21 103.928 222.453 109.399 228.083 115.418C238.907 126.99 251.259 140.698 259.72 150.226C272.165 150.136 285.403 143.438 296.019 135.254C301.478 131.046 306.086 126.563 309.359 122.657C310.997 120.701 312.26 118.938 313.124 117.467C314.036 115.914 314.329 114.977 314.372 114.61C314.571 112.905 315.382 110.816 316.363 108.723C317.395 106.52 318.801 103.933 320.479 101.107C323.839 95.4486 328.385 88.6669 333.454 81.8145C343.487 68.2545 355.993 53.8423 365.697 47.5419C367.424 46.4208 368.663 45.4774 369.523 44.7022C369.71 44.5335 369.873 44.378 370.015 44.2357C369.433 44.1049 368.673 43.9853 367.723 43.9063C365.873 43.7524 363.768 43.7849 361.878 43.9255L361.069 37.138C361.039 37.1753 361.007 37.2183 360.975 37.2676C360.857 37.4529 360.831 37.5932 360.826 37.6382ZM360.826 37.6382C360.826 37.6488 360.825 37.6537 360.825 37.6535C360.825 37.6532 360.825 37.648 360.826 37.6382ZM335.525 231.524C336.852 234.096 338.704 236.124 340.741 237.714C341.702 238.464 342.697 239.111 343.688 239.663C343.174 239.032 342.694 238.424 342.257 237.851C341.331 236.636 340.54 235.505 339.999 234.591C339.76 234.186 339.496 233.701 339.303 233.206C338.726 232.909 337.938 232.545 336.983 232.134C336.517 231.934 336.027 231.729 335.525 231.524ZM55.1218 203.312C55.1222 203.312 55.129 203.313 55.1427 203.314C55.1285 203.312 55.1213 203.311 55.1218 203.312ZM360.198 271.693C360.199 271.695 360.195 271.683 360.181 271.657C360.19 271.679 360.196 271.692 360.198 271.693ZM118.017 200.077C118.02 200.074 118.024 200.07 118.029 200.065C118.003 200.085 117.99 200.097 117.991 200.097C117.992 200.097 118.001 200.091 118.017 200.077Z" stroke="#FFFF93" stroke-width="7"/>
<path d="M116.133 36.962C161.571 48.9897 229.728 119.931 258.127 153.898L204.67 170.604L161.237 107.124C162.573 101.778 145.088 80.3955 136.179 70.3724C121.144 63.6903 141.191 75.384 122.815 70.3724C108.114 66.3632 112.235 59.7924 116.133 57.0082C74.7039 38.2984 24.2542 46.9851 4.2079 53.6672C49.6461 24.2661 97.757 30.2799 116.133 36.962Z" fill="url(#paint0_linear)"/>
<path d="M146.203 152.228C143.53 176.283 107.224 221.276 89.4052 240.765L166.249 170.604C174.268 161.249 159.567 152.228 146.203 152.228Z" fill="url(#paint1_linear)"/>
<path d="M54.3238 205.685L149.543 132.182L194.647 162.251L169.59 185.638C152.216 205.685 108.894 230.742 89.4047 240.765C145.534 189.982 161.794 167.263 162.908 162.251C70.6949 205.016 52.0964 209.026 54.3238 205.685Z" fill="url(#paint2_linear)"/>
<path d="M390.098 31.9504C472.956 -17.497 552.695 21.3705 582.208 46.9851C524.742 38.9666 490.329 46.9851 480.306 51.9967C400.121 92.0894 390.098 153.898 375.064 167.263C363.036 177.954 362.256 216.265 363.37 234.083C366.043 239.429 370.052 240.765 371.722 240.765C376.734 239.095 385.087 247.448 386.757 250.789C390.766 261.48 397.337 260.812 400.121 259.141C420.168 269.164 401.792 270.835 400.121 272.505C393.439 276.515 388.428 268.607 386.757 264.153C378.739 252.125 370.052 250.232 366.711 250.789C361.365 254.798 348.892 240.209 343.324 232.413C341.987 229.74 333.857 226.844 329.959 225.731C332.632 240.431 344.437 245.22 350.006 245.777C354.015 253.796 360.586 258.028 363.37 259.141C370.052 256.845 373.95 261.525 375.064 264.153C377.736 273.508 368.381 272.505 363.37 270.835C363.37 266.826 351.119 259.141 344.994 255.8C327.621 254.464 322.164 248.561 321.607 245.777C318.934 235.086 309.356 229.072 304.902 227.401C248.772 228.738 215.807 197.889 206.341 182.297C192.977 173.945 179.613 178.956 177.942 178.956C176.606 178.956 170.703 183.411 167.919 185.638C167.919 166.928 173.487 160.024 176.272 158.91C182.954 153.564 176.828 152.228 172.931 152.228C148.875 158.91 135.065 149.444 131.168 143.875C167.251 94.4279 208.568 69.8156 224.717 63.6904C226.057 65.1368 226.097 66.2194 224.717 68.6703C224.717 68.6703 215.05 76.7026 212.649 80.1871C185.552 119.515 190.367 132.807 191.306 142.205C215.362 155.569 250.331 155.569 264.809 153.898C298.22 145.88 314.368 124.943 318.266 115.476C326.284 90.0846 358.358 58.122 373.393 45.3146C378.739 41.3054 367.825 40.3031 361.699 40.3031C367.045 38.9667 363.927 34.1778 361.699 31.9504C365.709 34.6232 376.734 28.6094 381.746 25.2684C381.746 31.9505 387.314 32.5073 390.098 31.9504Z" fill="#E1503D"/>
<path d="M363.37 219.226C363.302 219.135 363.233 219.044 363.163 218.952C363.177 214.169 370.847 171.148 373.393 169.111C378.739 167.774 387.871 148.507 391.769 139.041C418.497 85.5846 467.499 56.072 490.329 48.8331C517.058 43.8216 563.832 45.4921 582.208 47.1626C531.424 12.4158 463.601 12.461 438.543 20.2568C410.479 21.5932 376.177 54.4015 363.37 68.8793C336.642 100.953 332.187 129.018 333.301 139.041C330.628 153.742 318.823 162.985 313.254 165.769C305.236 171.115 307.686 174.679 309.913 175.793C327.168 181.102 352.992 205.526 363.163 218.952C363.162 219.399 363.227 219.512 363.37 219.226Z" fill="url(#paint3_linear)"/>
<path d="M314.925 142.205C320.27 111.467 352.79 69.2587 368.381 51.9967C333.635 84.0707 321.607 107.681 319.936 115.476C317.263 122.159 313.254 126.056 311.584 127.17C272.828 167.263 217.478 155.012 194.647 143.875C217.366 165.258 260.911 165.035 279.844 162.251C301.226 159.578 312.141 147.773 314.925 142.205Z" fill="url(#paint4_linear)"/>
<path d="M510.376 36.962C502.357 27.6071 492.557 21.9274 488.659 20.2568C487.323 19.6273 482.534 21.1082 480.307 21.9274C500.353 33.9551 508.705 36.962 510.376 36.962Z" fill="url(#paint5_linear)"/>
<path d="M430.191 77.0545C426.293 69.2588 413.486 52.999 393.439 50.3262C399.008 56.4514 414.154 70.3724 430.191 77.0545Z" fill="url(#paint6_linear)"/>
<path d="M365.04 172.274C363.37 167.263 355.351 156.905 336.641 155.569C339.982 160.024 350.339 169.601 365.04 172.274Z" fill="url(#paint7_linear)"/>
<path d="M142.861 141.773C138.852 149.792 154.555 149.569 162.907 148.455C172.262 141.773 172.374 131.193 171.26 126.738C171.26 121.393 165.692 124.511 162.907 126.738C162.907 132.084 155.112 133.421 151.214 133.421C145.868 136.093 143.418 140.103 142.861 141.773Z" fill="#F26B5A"/>
<path d="M156.225 138.864L154.555 137.193H151.214L149.543 138.864V142.205L151.214 145.546H154.555L156.225 143.875L157.896 142.205L156.225 138.864Z" fill="#7A3E3E"/>
<path d="M154.555 138.864H151.214V142.205H154.555V138.864Z" fill="#3C626B"/>
<defs>
<linearGradient id="paint0_linear" x1="54.3235" y1="36.962" x2="229.728" y2="147.216" gradientUnits="userSpaceOnUse">
<stop stop-color="#CA473A"/>
<stop offset="1" stop-color="#7D2C24"/>
</linearGradient>
<linearGradient id="paint1_linear" x1="167.919" y1="158.91" x2="96.0868" y2="239.095" gradientUnits="userSpaceOnUse">
<stop stop-color="#3B0E0C"/>
<stop offset="1" stop-color="#A12722"/>
</linearGradient>
<linearGradient id="paint2_linear" x1="184.624" y1="153.898" x2="76.0405" y2="232.413" gradientUnits="userSpaceOnUse">
<stop stop-color="#C48628"/>
<stop offset="1" stop-color="#F8C132"/>
</linearGradient>
<linearGradient id="paint3_linear" x1="346.665" y1="41.9736" x2="425.179" y2="112.135" gradientUnits="userSpaceOnUse">
<stop offset="0.223958" stop-color="#EE695A" stop-opacity="0.35"/>
<stop offset="1" stop-color="#FF7060"/>
</linearGradient>
<linearGradient id="paint4_linear" x1="278.173" y1="102.112" x2="326.618" y2="162.251" gradientUnits="userSpaceOnUse">
<stop stop-color="#FDAAA1"/>
<stop offset="1" stop-color="#EE695A"/>
</linearGradient>
<linearGradient id="paint5_linear" x1="495.341" y1="20.1051" x2="515.388" y2="35.2915" gradientUnits="userSpaceOnUse">
<stop stop-color="#E1503D"/>
<stop offset="1" stop-color="#943528"/>
</linearGradient>
<linearGradient id="paint6_linear" x1="411.815" y1="50.3262" x2="431.861" y2="68.7019" gradientUnits="userSpaceOnUse">
<stop stop-color="#E1503D"/>
<stop offset="1" stop-color="#943528"/>
</linearGradient>
<linearGradient id="paint7_linear" x1="350.841" y1="155.569" x2="368.381" y2="168.933" gradientUnits="userSpaceOnUse">
<stop stop-color="#E1503D"/>
<stop offset="1" stop-color="#943528"/>
</linearGradient>
</defs>
</svg>
