<svg width="579" height="266" viewBox="0 0 579 266" fill="none" xmlns="http://www.w3.org/2000/svg">
<path d="M112.495 29.0365C157.933 41.0642 226.09 112.006 254.489 145.973L201.033 162.678L157.599 99.1983C158.936 93.8526 141.451 72.47 132.541 62.4469C117.507 55.7648 137.553 67.4584 119.177 62.4469C104.477 58.4376 108.597 51.8669 112.495 49.0827C71.0662 30.3729 20.6165 39.0596 0.570206 45.7417C46.0084 16.3405 94.1193 22.3544 112.495 29.0365Z" fill="url(#paint0_linear)"/>
<path d="M142.565 144.302C139.892 168.358 103.586 213.351 85.7675 232.84L162.611 162.678C170.63 153.323 155.929 144.302 142.565 144.302Z" fill="url(#paint1_linear)"/>
<path d="M50.6861 197.759L145.906 124.256L191.01 154.325L165.952 177.713C148.579 197.759 105.256 222.817 85.767 232.84C141.896 182.056 158.156 159.337 159.27 154.325C67.0572 197.091 48.4587 201.1 50.6861 197.759Z" fill="url(#paint2_linear)"/>
<path d="M386.461 24.0249C469.318 -25.4225 549.058 13.4449 578.57 39.0596C521.104 31.0411 486.692 39.0596 476.669 44.0712C396.484 84.1638 386.461 145.973 371.426 159.337C359.398 170.028 358.618 208.339 359.732 226.158C362.405 231.504 366.414 232.84 368.085 232.84C373.096 231.169 381.449 239.522 383.119 242.863C387.129 253.554 393.699 252.886 396.484 251.216C416.53 261.239 398.154 262.909 396.484 264.58C389.802 268.589 384.79 260.682 383.119 256.227C375.101 244.199 366.414 242.306 363.073 242.863C357.728 246.872 345.254 232.283 339.686 224.487C338.35 221.814 330.22 218.919 326.322 217.805C328.995 232.506 340.8 237.295 346.368 237.852C350.377 245.87 356.948 250.102 359.732 251.216C366.414 248.919 370.312 253.6 371.426 256.227C374.099 265.582 364.744 264.58 359.732 262.909C359.732 258.9 347.482 251.216 341.356 247.875C323.983 246.538 318.526 240.636 317.969 237.852C315.296 227.16 305.719 221.146 301.264 219.476C245.135 220.812 212.17 189.963 202.703 174.372C189.339 166.019 175.975 171.031 174.304 171.031C172.968 171.031 167.066 175.485 164.281 177.713C164.281 159.003 169.85 152.098 172.634 150.984C179.316 145.639 173.191 144.302 169.293 144.302C145.237 150.984 131.428 141.518 127.53 135.95C163.613 86.5024 204.931 61.8901 221.079 55.7648C222.42 57.2113 222.459 58.2939 221.079 60.7447C221.079 60.7447 211.413 68.777 209.012 72.2616C181.915 111.59 186.729 124.882 187.669 134.279C211.724 147.643 246.694 147.643 261.172 145.973C294.582 137.954 310.73 117.017 314.628 107.551C322.647 82.159 354.721 50.1964 369.755 37.3891C375.101 33.3798 364.187 32.3775 358.062 32.3775C363.407 31.0411 360.289 26.2523 358.062 24.0249C362.071 26.6977 373.096 20.6839 378.108 17.3429C378.108 24.0249 383.676 24.5818 386.461 24.0249Z" fill="#E1503D"/>
<path d="M359.732 211.301C359.664 211.21 359.595 211.118 359.525 211.026C359.54 206.243 367.209 163.222 369.755 161.185C375.101 159.849 384.233 140.582 388.131 131.116C414.859 77.659 463.861 48.1465 486.692 40.9076C513.42 35.896 560.195 37.5666 578.57 39.2371C527.787 4.49027 459.963 4.53551 434.906 12.3313C406.841 13.6677 372.54 46.476 359.732 60.9538C333.004 93.0278 328.549 121.092 329.663 131.116C326.99 145.816 315.185 155.06 309.617 157.844C301.598 163.19 304.048 166.753 306.276 167.867C323.531 173.176 349.355 197.601 359.525 211.026C359.524 211.473 359.589 211.586 359.732 211.301Z" fill="url(#paint3_linear)"/>
<path d="M311.287 134.279C316.633 103.542 349.152 61.3332 364.744 44.0712C329.997 76.1452 317.969 99.7552 316.299 107.551C313.626 114.233 309.616 118.131 307.946 119.245C269.19 159.337 213.84 147.087 191.01 135.95C213.729 157.332 257.274 157.11 276.206 154.325C297.589 151.653 308.503 139.848 311.287 134.279Z" fill="url(#paint4_linear)"/>
<path d="M506.738 29.0365C498.72 19.6816 488.919 14.0018 485.022 12.3313C483.685 11.7018 478.896 13.1827 476.669 14.0018C496.715 26.0296 505.068 29.0365 506.738 29.0365Z" fill="url(#paint5_linear)"/>
<path d="M426.553 69.129C422.655 61.3332 409.848 45.0735 389.802 42.4007C395.37 48.5259 410.516 62.4469 426.553 69.129Z" fill="url(#paint6_linear)"/>
<path d="M361.402 164.349C359.732 159.337 351.713 148.98 333.004 147.643C336.345 152.098 346.702 161.676 361.402 164.349Z" fill="url(#paint7_linear)"/>
<path d="M139.223 133.848C135.214 141.866 150.917 141.643 159.27 140.53C168.625 133.848 168.736 123.268 167.622 118.813C167.622 113.467 162.054 116.586 159.27 118.813C159.27 124.159 151.474 125.495 147.576 125.495C142.23 128.168 139.78 132.177 139.223 133.848Z" fill="#F26B5A"/>
<path d="M152.588 130.938L150.917 129.268H147.576L145.906 130.938V134.279L147.576 137.62H150.917L152.588 135.95L154.258 134.279L152.588 130.938Z" fill="#7A3E3E"/>
<path d="M150.917 130.938H147.576V134.279H150.917V130.938Z" fill="#3C626B"/>
<defs>
<linearGradient id="paint0_linear" x1="50.6858" y1="29.0365" x2="226.09" y2="139.291" gradientUnits="userSpaceOnUse">
<stop stop-color="#CA473A"/>
<stop offset="1" stop-color="#7D2C24"/>
</linearGradient>
<linearGradient id="paint1_linear" x1="164.281" y1="150.984" x2="92.4491" y2="231.169" gradientUnits="userSpaceOnUse">
<stop stop-color="#3B0E0C"/>
<stop offset="1" stop-color="#A12722"/>
</linearGradient>
<linearGradient id="paint2_linear" x1="180.987" y1="145.973" x2="72.4028" y2="224.487" gradientUnits="userSpaceOnUse">
<stop stop-color="#C48628"/>
<stop offset="1" stop-color="#F8C132"/>
</linearGradient>
<linearGradient id="paint3_linear" x1="343.027" y1="34.048" x2="421.541" y2="104.21" gradientUnits="userSpaceOnUse">
<stop offset="0.223958" stop-color="#EE695A" stop-opacity="0.35"/>
<stop offset="1" stop-color="#FF7060"/>
</linearGradient>
<linearGradient id="paint4_linear" x1="274.536" y1="94.1868" x2="322.981" y2="154.325" gradientUnits="userSpaceOnUse">
<stop stop-color="#FDAAA1"/>
<stop offset="1" stop-color="#EE695A"/>
</linearGradient>
<linearGradient id="paint5_linear" x1="491.704" y1="12.1796" x2="511.75" y2="27.366" gradientUnits="userSpaceOnUse">
<stop stop-color="#E1503D"/>
<stop offset="1" stop-color="#943528"/>
</linearGradient>
<linearGradient id="paint6_linear" x1="408.178" y1="42.4007" x2="428.224" y2="60.7764" gradientUnits="userSpaceOnUse">
<stop stop-color="#E1503D"/>
<stop offset="1" stop-color="#943528"/>
</linearGradient>
<linearGradient id="paint7_linear" x1="347.203" y1="147.643" x2="364.743" y2="161.008" gradientUnits="userSpaceOnUse">
<stop stop-color="#E1503D"/>
<stop offset="1" stop-color="#943528"/>
</linearGradient>
</defs>
</svg>
