<svg width="554" height="318" viewBox="0 0 554 318" fill="none" xmlns="http://www.w3.org/2000/svg">
<path d="M181.124 164.672C181.607 164.46 182.736 158.335 183.241 155.298C184.846 154.697 189.216 159.801 191.2 162.429C194.364 162.459 195.772 163.455 196.081 163.95C196.29 166.002 196.254 167.795 196.052 169.359C196.79 169.29 199.585 169.915 200.376 173.289C200.077 173.611 201.265 174.912 208.406 177.544C208.653 178.265 208.825 179.374 208.659 180.597C210.879 178.604 212.453 181.838 212.8 181.927C213.147 182.016 215.116 185.708 215.593 186.322C216.07 186.936 220.699 187.459 222.626 188.675C223.493 189.222 223.781 190.242 223.599 191.311C225.124 191.036 228.466 191.252 229.637 194.307C230.807 197.362 234.215 197.963 235.772 197.881C237.686 197.896 241.104 198.974 239.47 203.162C237.428 208.398 234.492 214.086 229.726 211.11C228.613 210.015 226.424 207.73 226.574 207.349C226.723 206.968 224.57 206.827 223.475 206.805C221.934 206.963 218.179 205.929 215.492 200.53C214.109 200.998 212.897 201.061 212.572 200.998C211.905 200.868 209.179 198 208.978 197.145C208.778 196.29 207.182 194.721 205.532 194.781C204.212 194.829 201.814 192.433 200.779 191.229C199.479 191.998 197.665 192.004 195.292 189.957L190.903 183.689L190.359 179.181C190.244 169.72 180.52 164.937 181.124 164.672Z" fill="#F1EAB2"/>
<path d="M190.359 179.181C190.244 169.72 180.52 164.937 181.124 164.672C181.607 164.46 182.736 158.335 183.241 155.298C184.846 154.697 189.216 159.801 191.2 162.429C194.364 162.459 195.772 163.455 196.081 163.95C196.29 166.002 196.254 167.795 196.052 169.359M190.359 179.181C191.393 178.457 195.201 175.937 196.052 169.359M190.359 179.181L190.903 183.689C192.263 185.632 195.046 189.606 195.292 189.957C197.665 192.004 199.479 191.998 200.779 191.229M196.052 169.359C196.79 169.29 199.585 169.915 200.376 173.289C200.077 173.611 201.265 174.912 208.406 177.544C208.653 178.265 208.825 179.374 208.659 180.597M200.779 191.229C202.73 190.073 203.523 187.196 203.31 186.949C203.028 186.62 204.25 186.071 204.897 185.838C207.439 184.432 208.415 182.393 208.659 180.597M200.779 191.229C201.814 192.433 204.212 194.829 205.532 194.781C207.182 194.721 208.778 196.29 208.978 197.145C209.179 198 211.905 200.868 212.572 200.998C212.897 201.061 214.109 200.998 215.492 200.53M208.659 180.597C210.879 178.604 212.453 181.838 212.8 181.927C213.147 182.016 215.116 185.708 215.593 186.322C216.07 186.936 220.699 187.459 222.626 188.675C223.493 189.222 223.781 190.242 223.599 191.311M223.599 191.311C223.377 192.617 222.455 193.995 221.033 194.672C218.447 195.903 219.701 197.3 219.591 197.377C218.597 199.095 216.95 200.037 215.492 200.53M223.599 191.311C225.124 191.036 228.466 191.252 229.637 194.307C230.807 197.362 234.215 197.963 235.772 197.881C237.686 197.896 241.104 198.974 239.47 203.162C237.428 208.398 234.492 214.086 229.726 211.11C228.613 210.015 226.424 207.73 226.574 207.349C226.723 206.968 224.57 206.827 223.475 206.805C221.934 206.963 218.179 205.929 215.492 200.53" stroke="black"/>
<path d="M237.543 208.706C239.372 198.528 250.337 194.348 255.591 193.531L256.854 201.282C253.401 208.832 259.375 211.345 262.793 211.658C256.316 228.213 250.809 229.755 248.866 228.457C248.809 228.243 247.906 227.374 247.461 226.967C245.568 225.937 245.456 223.981 246.053 221.999C244.722 221.833 245.173 218.581 245.565 216.976C238.048 215.969 237.009 211.22 237.543 208.706Z" fill="#F1EAB2"/>
<path d="M245.565 216.976C238.048 215.969 237.009 211.22 237.543 208.706C239.372 198.528 250.337 194.348 255.591 193.531L256.854 201.282C253.401 208.832 259.375 211.345 262.793 211.658C256.316 228.213 250.809 229.755 248.866 228.457C248.809 228.243 247.906 227.374 247.461 226.967C245.568 225.937 245.456 223.981 246.053 221.999M245.565 216.976C246.496 217.1 247.526 217.168 248.665 217.166C247.749 218.336 246.602 220.179 246.053 221.999M245.565 216.976C245.173 218.581 244.722 221.833 246.053 221.999" stroke="black"/>
<path d="M247.131 207.974C243.743 208.554 241.491 202.005 241.797 201.16C239.415 198.628 230.673 194.017 226.599 192.028C225.012 192.199 222.964 191.054 222.132 190.221C221.319 189.407 222.876 189.452 223.529 189.577C224.05 189.678 224.087 189.536 224.039 189.452C223.016 188.252 225.652 188.818 227.098 189.251C229.949 190.03 230.388 191.028 230.251 191.429L245.277 200.85C247.36 200.117 249.133 197.275 250.24 199.856C251.196 202.086 248.431 201.971 247.712 203.355C247.302 204.144 248.703 207.026 247.131 207.974Z" fill="#F1EAB2"/>
<path d="M227.467 191.763C227.204 191.911 226.91 191.995 226.599 192.028M226.599 192.028C225.012 192.199 222.964 191.054 222.132 190.221C221.319 189.407 222.876 189.452 223.529 189.577C224.05 189.678 224.087 189.536 224.039 189.452C223.016 188.252 225.652 188.818 227.098 189.251C229.949 190.03 230.388 191.028 230.251 191.429L245.277 200.85C247.36 200.117 249.133 197.275 250.24 199.856C251.196 202.086 248.431 201.971 247.712 203.355C247.302 204.144 248.703 207.026 247.131 207.974C243.743 208.554 241.491 202.005 241.797 201.16C239.415 198.628 230.673 194.017 226.599 192.028Z" stroke="black"/>
<path d="M223.294 191.714C223.082 191.602 222.401 191.488 222.087 191.444C215.108 186.301 211.032 179.127 209.866 176.183C200.318 162.16 183.266 137.26 182.328 136.348C173.714 132.587 166.686 135.84 172.374 132.843C168.037 132.499 170.51 131.465 172.383 130.977C174.517 132.213 175.897 132.028 178.624 132.81C179.852 133.412 174.76 128.641 176.895 130.18C182.55 131.039 197.52 145.756 196.718 146.14C203.476 156.6 215.833 179.88 218.176 182.092C221.103 184.857 225.05 189.894 224.541 189.37C224.133 188.952 222.453 188.198 221.663 187.874C220.406 187.725 223.559 191.854 223.294 191.714Z" fill="#F1EAB2"/>
<path d="M221.663 187.874C220.406 187.725 223.559 191.854 223.294 191.714C223.082 191.602 222.401 191.488 222.087 191.444C215.108 186.301 211.032 179.127 209.866 176.183C200.318 162.16 183.266 137.26 182.328 136.348C173.714 132.587 166.686 135.84 172.374 132.843C168.037 132.499 170.51 131.465 172.383 130.977C174.517 132.213 175.897 132.028 178.624 132.81M221.663 187.874C220.301 186.313 217.434 183.062 216.863 182.548C216.292 182.035 201.479 157.134 193.119 145.142C192.689 143.818 186.065 136.459 178.624 132.81M221.663 187.874C222.453 188.198 224.133 188.952 224.541 189.37C225.05 189.894 221.103 184.857 218.176 182.092C215.833 179.88 203.476 156.6 196.718 146.14C197.52 145.756 182.55 131.039 176.895 130.18C174.76 128.641 179.852 133.412 178.624 132.81" stroke="black"/>
<path d="M176.564 132.883C175.377 132.283 173.978 131.803 172.356 131.564C171.461 131.618 170.526 131.842 170.085 132.32C168.822 131.631 168.143 131.117 167.875 130.738L156.068 126.96L156.153 126.727C154.504 126.31 151.049 125.418 150.417 125.189C150.212 125.115 149.979 125.012 149.759 124.892C149.051 125.151 144.055 124.018 141.646 123.419C143.639 122.217 147.521 123.12 149.212 123.722C149.865 123.355 154.416 124.921 156.609 125.75C156.825 125.734 157.256 125.879 157.495 125.975C157.449 125.842 157.446 125.731 157.479 125.638C156.059 125.267 152.956 124.33 151.907 123.55C151.758 123.439 151.657 123.336 151.596 123.242C151.402 123.038 146.079 121.364 143.442 120.553C146.061 120.198 150.434 121.696 152.293 122.489C152.722 122.4 153.193 122.412 153.319 122.523C153.566 122.741 157.313 124.426 159.156 125.242C159.531 125.271 159.904 125.329 160.2 125.389C159.774 125.108 159.504 124.884 159.35 124.708C159.26 124.614 156.574 123.03 155.243 122.249C155.163 122.144 155.078 122.025 154.996 121.9L150.74 119.526C149.306 118.99 146.9 117.948 148.751 118.063C150.603 118.177 153.872 119.757 155.275 120.533C156.645 120.933 160.479 123.53 162.225 124.779C165.411 125.935 170.367 128.192 172.946 129.418C173.493 129.516 174.048 129.672 174.594 129.867C176.236 130.452 177.806 131.388 178.892 132.15C179.269 132.415 179.588 132.658 179.831 132.859C178.801 132.671 177.691 132.649 176.564 132.883Z" fill="#F1EAB2"/>
<path d="M172.356 131.564C173.978 131.803 175.377 132.283 176.564 132.883C177.691 132.649 178.801 132.671 179.831 132.859C179.588 132.658 179.269 132.415 178.892 132.15C177.806 131.388 176.236 130.452 174.594 129.867C174.048 129.672 173.493 129.516 172.946 129.418M172.356 131.564C171.889 130.788 171.725 130.266 171.731 129.925M172.356 131.564C171.461 131.618 170.526 131.842 170.085 132.32C168.822 131.631 168.143 131.117 167.875 130.738M171.731 129.925C171.733 129.85 171.742 129.784 171.758 129.726M171.731 129.925C170.796 129.808 169.683 129.737 168.87 129.818M172.946 129.418C172.806 129.393 172.667 129.371 172.528 129.354C172.231 129.301 171.861 129.36 171.758 129.726M172.946 129.418C170.367 128.192 165.411 125.935 162.225 124.779M160.2 125.389C164.062 126.768 171.78 129.567 171.758 129.726M160.2 125.389C159.774 125.108 159.504 124.884 159.35 124.708M160.2 125.389C159.904 125.329 159.531 125.271 159.156 125.242M157.495 125.975C161.094 127.094 168.408 129.429 168.87 129.818M157.495 125.975C157.449 125.842 157.446 125.731 157.479 125.638M157.495 125.975C157.256 125.879 156.825 125.734 156.609 125.75M168.87 129.818C167.999 129.905 167.471 130.168 167.875 130.738M167.875 130.738L156.068 126.96C156.091 126.895 156.121 126.815 156.153 126.727M162.225 124.779C161.332 124.455 160.578 124.217 160.054 124.113C159.531 124.066 158.865 124.152 159.35 124.708M162.225 124.779C160.479 123.53 156.645 120.933 155.275 120.533M155.275 120.533C153.872 119.757 150.603 118.177 148.751 118.063C146.9 117.948 149.306 118.99 150.74 119.526L154.996 121.9M155.275 120.533C154.101 120.19 154.504 121.153 154.996 121.9M159.35 124.708C159.26 124.614 156.574 123.03 155.243 122.249C155.163 122.144 155.078 122.025 154.996 121.9M159.156 125.242C157.313 124.426 153.566 122.741 153.319 122.523C153.193 122.412 152.722 122.4 152.293 122.489M159.156 125.242C158.39 125.182 157.616 125.241 157.479 125.638M157.479 125.638C156.059 125.267 152.956 124.33 151.907 123.55C151.758 123.439 151.657 123.336 151.596 123.242M152.293 122.489C150.434 121.696 146.061 120.198 143.442 120.553C146.079 121.364 151.402 123.038 151.596 123.242M152.293 122.489C151.785 122.595 151.337 122.844 151.596 123.242M156.609 125.75C156.545 125.755 156.5 125.774 156.485 125.814C156.436 125.95 156.274 126.394 156.153 126.727M156.609 125.75C154.416 124.921 149.865 123.355 149.212 123.722M149.212 123.722C147.521 123.12 143.639 122.217 141.646 123.419C144.055 124.018 149.051 125.151 149.759 124.892M149.212 123.722C148.608 124.062 149.127 124.547 149.759 124.892M156.153 126.727C154.504 126.31 151.049 125.418 150.417 125.189C150.212 125.115 149.979 125.012 149.759 124.892" stroke="black"/>
<path d="M173.673 124.789C173.065 124.621 171.59 126.149 170.929 126.934C171.547 127.043 171.878 127.764 171.967 128.11C173.227 128.027 175.105 129.382 175.352 129.395C175.599 129.408 177.148 127.541 177.392 127.004C177.637 126.466 174.433 125 173.673 124.789Z" fill="#F1EAB2" stroke="black"/>
<path d="M175.23 123.692C176.323 123.753 177.153 122.372 177.431 121.674C175.434 121.479 172.836 118.168 171.787 116.538C161.155 110.912 149.434 87.2994 148.66 83.85C148.041 81.0904 145.151 80.925 143.784 81.1872C142.749 86.1157 140.403 86.4789 139.359 86.0444C138.589 88.2692 142.058 91.224 143.889 92.4233C143.876 95.57 162.705 117.713 163.533 118.023C164.196 118.271 165.362 119.805 165.863 120.541C167.849 124.583 171.904 124.721 173.683 124.284C173.743 124.061 174.136 123.63 175.23 123.692Z" fill="#F1EAB2" stroke="black"/>
<path d="M142.765 84.0779C141.81 84.4256 137.143 88.693 135.482 86.7287C134.474 85.5368 134.049 84.0328 133.813 82.8743C129.102 82.2086 103.622 62.9588 102.758 63.3149C101.893 63.671 99.3315 60.5023 99.215 60.2962C99.1372 60.1585 98.6929 60.0802 99.5995 58.572C91.2101 58.1654 73.7893 57.5703 71.2209 58.4418C65.3666 59.7382 53.4916 62.0895 52.8264 61.1229C50.762 63.6179 45.2542 67.7231 39.6653 70.6191C29.7896 79.3377 9.84308 96.9545 9.06316 97.6722C8.08826 98.5692 17.9664 84.888 18.4104 84.6179C18.8542 84.348 43.4942 58.2361 51.778 59.4243C51.3485 59.3558 52.4851 58.5714 53.1114 58.1853C68.0813 54.9047 99.0227 49.5122 103.028 54.1864C105.626 52.0515 106.82 56.3507 107.103 59.032C118.438 71.5111 135.201 76.4298 137.237 75.9489C139.354 75.4489 140.755 76.6969 142.525 79.7033C143.941 82.1084 143.275 83.6218 142.765 84.0779Z" fill="#F1EAB2"/>
<path d="M133.483 81.2366C133.585 81.5182 133.66 82.1237 133.813 82.8743M105.784 57.515C106.214 58.0326 106.654 58.5382 107.103 59.032M107.103 59.032C118.438 71.5111 135.201 76.4298 137.237 75.9489C139.354 75.4489 140.755 76.6969 142.525 79.7033C143.941 82.1084 143.275 83.6218 142.765 84.0779C141.81 84.4256 137.143 88.693 135.482 86.7287C134.474 85.5368 134.049 84.0328 133.813 82.8743M107.103 59.032C106.82 56.3507 105.626 52.0515 103.028 54.1864M133.813 82.8743C129.102 82.2086 103.622 62.9588 102.758 63.3149C101.893 63.671 99.3315 60.5023 99.215 60.2962C99.1372 60.1585 98.6929 60.0802 99.5995 58.572M99.5995 58.572C100.05 57.8223 100.834 56.7195 102.163 55.0805C102.468 54.7054 102.756 54.4105 103.028 54.1864M99.5995 58.572C91.2101 58.1654 73.7893 57.5703 71.2209 58.4418C65.3666 59.7382 53.4916 62.0895 52.8264 61.1229M52.8264 61.1229C51.9949 59.9146 52.3538 59.4996 51.7868 59.4255M52.8264 61.1229C50.762 63.6179 45.2542 67.7231 39.6653 70.6191C29.7896 79.3377 9.84308 96.9545 9.06316 97.6722C8.08826 98.5692 17.9664 84.888 18.4104 84.6179C18.8544 84.3479 43.5118 58.2175 51.7868 59.4255M51.7868 59.4255C51.3332 59.3663 52.4809 58.574 53.1114 58.1853C68.0813 54.9047 99.0227 49.5122 103.028 54.1864" stroke="black"/>
<path d="M259.816 211.576C263.864 212.268 266.554 204.445 266.189 203.435C269.034 200.411 279.477 194.903 284.344 192.527C286.239 192.731 288.685 191.363 289.68 190.367C290.651 189.395 288.791 189.449 288.012 189.599C287.388 189.719 287.345 189.549 287.401 189.449C288.624 188.016 285.475 188.692 283.748 189.21C280.342 190.14 279.818 191.332 279.981 191.811L262.031 203.065C259.543 202.189 257.425 198.794 256.103 201.877C254.96 204.541 258.264 204.405 259.122 206.057C259.612 207 257.939 210.443 259.816 211.576Z" fill="#F1EAB2"/>
<path d="M283.306 192.21C283.621 192.386 283.972 192.487 284.344 192.527M284.344 192.527C286.239 192.731 288.685 191.363 289.68 190.367C290.651 189.395 288.791 189.449 288.012 189.599C287.388 189.719 287.345 189.549 287.401 189.449C288.624 188.016 285.475 188.692 283.748 189.21C280.342 190.14 279.818 191.332 279.981 191.811L262.031 203.065C259.543 202.189 257.425 198.794 256.103 201.877C254.96 204.541 258.264 204.405 259.122 206.057C259.612 207 257.939 210.443 259.816 211.576C263.864 212.268 266.554 204.445 266.189 203.435C269.034 200.411 279.477 194.903 284.344 192.527Z" stroke="black"/>
<path d="M288.292 192.151C288.545 192.018 289.359 191.881 289.734 191.829C298.07 185.685 302.94 177.115 304.333 173.598C315.739 156.847 336.109 127.101 337.229 126.011C347.519 121.519 355.914 125.405 349.12 121.825C354.301 121.414 351.346 120.179 349.109 119.596C346.56 121.073 344.911 120.851 341.653 121.786C340.187 122.505 346.27 116.805 343.719 118.644C336.964 119.67 319.081 137.251 320.039 137.71C311.966 150.204 297.204 178.014 294.406 180.657C290.909 183.96 286.194 189.977 286.802 189.352C287.289 188.851 289.297 187.951 290.24 187.564C291.742 187.386 287.975 192.319 288.292 192.151Z" fill="#F1EAB2"/>
<path d="M290.24 187.564C291.742 187.386 287.975 192.319 288.292 192.151C288.545 192.018 289.359 191.881 289.734 191.829C298.07 185.685 302.94 177.115 304.333 173.598C315.739 156.847 336.109 127.101 337.229 126.011C347.519 121.519 355.914 125.405 349.12 121.825C354.301 121.414 351.346 120.179 349.109 119.596C346.56 121.073 344.911 120.851 341.653 121.786M290.24 187.564C291.867 185.699 295.292 181.816 295.974 181.202C296.657 180.588 314.351 150.842 324.339 136.517C324.852 134.936 332.765 126.144 341.653 121.786M290.24 187.564C289.297 187.951 287.289 188.851 286.802 189.352C286.194 189.977 290.909 183.96 294.406 180.657C297.204 178.014 311.966 150.204 320.039 137.71C319.081 137.251 336.964 119.67 343.719 118.644C346.27 116.805 340.187 122.505 341.653 121.786" stroke="black"/>
<path d="M344.115 121.873C345.533 121.156 347.204 120.583 349.141 120.297C350.211 120.362 351.328 120.629 351.855 121.201C353.363 120.377 354.175 119.763 354.495 119.31L368.599 114.798L368.498 114.519C370.467 114.021 374.595 112.955 375.35 112.682C375.594 112.593 375.873 112.47 376.136 112.327C376.981 112.636 382.949 111.282 385.827 110.567C383.446 109.131 378.809 110.21 376.789 110.929C376.009 110.491 370.573 112.362 367.952 113.352C367.695 113.332 367.18 113.505 366.895 113.62C366.949 113.462 366.952 113.329 366.914 113.218C368.61 112.775 372.316 111.655 373.569 110.723C373.748 110.591 373.868 110.468 373.941 110.356C374.174 110.113 380.532 108.113 383.682 107.143C380.554 106.72 375.329 108.509 373.108 109.456C372.596 109.35 372.033 109.365 371.883 109.496C371.588 109.757 367.111 111.771 364.91 112.745C364.462 112.78 364.016 112.849 363.663 112.92C364.172 112.584 364.494 112.317 364.678 112.107C364.785 111.995 367.994 110.102 369.585 109.17C369.681 109.044 369.781 108.902 369.879 108.753L374.964 105.916C376.677 105.277 379.551 104.031 377.339 104.169C375.128 104.306 371.222 106.193 369.546 107.12C367.909 107.597 363.329 110.7 361.244 112.192C357.438 113.573 351.517 116.269 348.437 117.733C347.783 117.85 347.121 118.037 346.468 118.269C344.507 118.969 342.631 120.087 341.334 120.997C340.883 121.313 340.502 121.605 340.212 121.844C341.443 121.619 342.769 121.593 344.115 121.873Z" fill="#F1EAB2"/>
<path d="M349.141 120.297C347.204 120.583 345.533 121.156 344.115 121.873C342.769 121.593 341.443 121.619 340.212 121.844C340.502 121.605 340.883 121.313 341.334 120.997C342.631 120.087 344.507 118.969 346.468 118.269C347.121 118.037 347.783 117.85 348.437 117.733M349.141 120.297C349.699 119.37 349.896 118.747 349.888 118.339M349.141 120.297C350.211 120.362 351.328 120.629 351.855 121.201C353.363 120.377 354.175 119.763 354.495 119.31M349.888 118.339C349.886 118.25 349.875 118.171 349.856 118.101M349.888 118.339C351.006 118.2 352.334 118.115 353.306 118.212M348.437 117.733C348.604 117.703 348.771 117.678 348.936 117.657C349.291 117.593 349.733 117.664 349.856 118.101M348.437 117.733C351.517 116.269 357.438 113.573 361.244 112.192M363.663 112.92C359.05 114.568 349.83 117.911 349.856 118.101M363.663 112.92C364.172 112.584 364.494 112.317 364.678 112.107M363.663 112.92C364.016 112.849 364.462 112.78 364.91 112.745M366.895 113.62C362.595 114.957 353.858 117.746 353.306 118.212M366.895 113.62C366.949 113.462 366.952 113.329 366.914 113.218M366.895 113.62C367.18 113.505 367.695 113.332 367.952 113.352M353.306 118.212C354.347 118.316 354.977 118.629 354.495 119.31M354.495 119.31L368.599 114.798C368.571 114.72 368.536 114.624 368.498 114.519M361.244 112.192C362.311 111.804 363.212 111.52 363.837 111.396C364.462 111.34 365.258 111.443 364.678 112.107M361.244 112.192C363.329 110.7 367.909 107.597 369.546 107.12M369.546 107.12C371.222 106.193 375.128 104.306 377.339 104.169C379.551 104.031 376.677 105.277 374.964 105.916L369.879 108.753M369.546 107.12C370.949 106.71 370.467 107.86 369.879 108.753M364.678 112.107C364.785 111.995 367.994 110.102 369.585 109.17C369.681 109.044 369.781 108.902 369.879 108.753M364.91 112.745C367.111 111.771 371.588 109.757 371.883 109.496C372.033 109.365 372.596 109.35 373.108 109.456M364.91 112.745C365.825 112.674 366.749 112.744 366.914 113.218M366.914 113.218C368.61 112.775 372.316 111.655 373.569 110.723C373.748 110.591 373.868 110.468 373.941 110.356M373.108 109.456C375.329 108.509 380.554 106.72 383.682 107.143C380.532 108.113 374.174 110.113 373.941 110.356M373.108 109.456C373.715 109.583 374.251 109.88 373.941 110.356M367.952 113.352C368.03 113.357 368.083 113.381 368.101 113.428C368.16 113.591 368.353 114.121 368.498 114.519M367.952 113.352C370.573 112.362 376.009 110.491 376.789 110.929M376.789 110.929C378.809 110.21 383.446 109.131 385.827 110.567C382.949 111.282 376.981 112.636 376.136 112.327M376.789 110.929C377.511 111.336 376.89 111.915 376.136 112.327M368.498 114.519C370.467 114.021 374.595 112.955 375.35 112.682C375.594 112.593 375.873 112.47 376.136 112.327" stroke="black"/>
<path d="M347.568 112.204C348.295 112.003 350.057 113.828 350.847 114.766C350.108 114.896 349.712 115.757 349.607 116.171C348.102 116.072 345.858 117.691 345.563 117.706C345.268 117.721 343.417 115.492 343.126 114.85C342.834 114.207 346.661 112.455 347.568 112.204Z" fill="#F1EAB2" stroke="black"/>
<path d="M345.709 110.893C344.403 110.966 343.412 109.317 343.079 108.483C345.464 108.25 348.568 104.295 349.821 102.347C362.522 95.6269 376.524 67.4194 377.449 63.2987C378.188 60.0022 381.64 59.8046 383.274 60.1179C384.51 66.0053 387.312 66.4392 388.559 65.9202C389.479 68.5779 385.335 72.1076 383.148 73.5403C383.164 77.2992 360.671 103.751 359.681 104.122C358.889 104.418 357.496 106.251 356.898 107.13C354.526 111.958 349.682 112.122 347.556 111.601C347.485 111.334 347.015 110.82 345.709 110.893Z" fill="#F1EAB2" stroke="black"/>
<path d="M384.49 63.571C385.631 63.9864 391.206 69.0841 393.19 66.7377C394.395 65.3137 394.902 63.5171 395.184 62.1332C400.811 61.338 431.249 38.3425 432.282 38.7679C433.315 39.1933 436.375 35.408 436.514 35.1618C436.607 34.9973 437.138 34.9038 436.055 33.102C446.077 32.6164 466.887 31.9055 469.955 32.9465C476.949 34.4953 491.135 37.304 491.929 36.1493C494.395 39.1298 500.975 44.0339 507.651 47.4933C519.449 57.9085 543.276 78.9532 544.208 79.8105C545.373 80.8821 533.572 64.5387 533.042 64.2161C532.512 63.8936 503.077 32.7008 493.182 34.1202C493.695 34.0384 492.337 33.1014 491.589 32.6401C473.706 28.7212 436.744 22.2794 431.959 27.8632C428.855 25.3128 427.429 30.4486 427.091 33.6516C413.551 48.5589 393.526 54.4348 391.093 53.8603C388.565 53.263 386.892 54.7538 384.777 58.3452C383.085 61.2183 383.881 63.0262 384.49 63.571Z" fill="#F1EAB2"/>
<path d="M395.578 60.1768C395.456 60.5133 395.367 61.2366 395.184 62.1332M428.667 31.8394C428.153 32.4577 427.627 33.0617 427.091 33.6516M427.091 33.6516C413.551 48.5589 393.526 54.4348 391.093 53.8603C388.565 53.263 386.892 54.7538 384.777 58.3452C383.085 61.2183 383.881 63.0262 384.49 63.571C385.631 63.9864 391.206 69.0841 393.19 66.7377C394.395 65.3137 394.902 63.5171 395.184 62.1332M427.091 33.6516C427.429 30.4486 428.855 25.3128 431.959 27.8632M395.184 62.1332C400.812 61.338 431.249 38.3425 432.282 38.7679C433.315 39.1933 436.375 35.408 436.514 35.1618C436.607 34.9973 437.138 34.9038 436.055 33.102M436.055 33.102C435.517 32.2066 434.58 30.8891 432.992 28.9312C432.629 28.4832 432.285 28.1308 431.959 27.8632M436.055 33.102C446.077 32.6164 466.887 31.9055 469.955 32.9465C476.949 34.4953 491.135 37.304 491.929 36.1493M491.929 36.1493C492.923 34.7059 492.494 34.2102 493.171 34.1217M491.929 36.1493C494.395 39.1298 500.975 44.0339 507.651 47.4933C519.449 57.9085 543.276 78.9532 544.208 79.8105C545.373 80.8821 533.572 64.5387 533.042 64.2161C532.512 63.8935 503.056 32.6786 493.171 34.1217M493.171 34.1217C493.713 34.051 492.342 33.1045 491.589 32.6401C473.706 28.7212 436.744 22.2794 431.959 27.8632" stroke="black"/>
<path d="M308.47 229.823C306.699 227.671 303.66 223.364 304.978 222.511C306.967 221.224 308.888 221.061 314.083 228.339C316.391 233.526 321.274 244.145 322.332 245.124L322.373 245.162C323.738 246.424 327.715 250.102 325.44 251.855C327.043 254.956 331.792 258.831 333.966 260.381C336.793 263.208 344.297 267.79 347.696 269.727C353.305 270.951 353.171 274.004 352.909 274.266C352.647 274.528 351.892 275.947 351.316 275.859C350.856 275.788 351.48 278.084 351.849 279.24C351.601 281.24 350.394 280.566 349.821 279.979C345.702 275.966 335.553 266.728 327.915 261.872C320.277 257.016 317.987 253.417 317.797 252.225C316.152 252.324 313.616 250.847 314.536 246.508C313.539 241.971 310.93 232.283 308.47 229.823Z" fill="#F1EAB2"/>
<path d="M325.44 251.855C327.738 250.084 323.656 246.348 322.332 245.124C321.274 244.145 316.391 233.526 314.083 228.339C308.888 221.061 306.967 221.224 304.978 222.511C303.66 223.364 306.699 227.671 308.47 229.823C310.93 232.283 313.539 241.971 314.536 246.508C313.616 250.847 316.152 252.324 317.797 252.225M325.44 251.855C323.602 253.272 320.831 251.778 319.676 250.855C319.544 250.987 319.128 251.207 319.056 251.475C318.938 251.912 318.434 252.186 317.797 252.225M325.44 251.855C327.043 254.956 331.792 258.831 333.966 260.381C336.793 263.208 344.297 267.79 347.696 269.727C353.305 270.951 353.171 274.004 352.909 274.266C352.647 274.528 351.892 275.947 351.316 275.859C350.856 275.788 351.48 278.084 351.849 279.24C351.601 281.24 350.394 280.566 349.821 279.979C345.702 275.966 335.553 266.728 327.915 261.872C320.277 257.016 317.987 253.417 317.797 252.225" stroke="black"/>
<path d="M352.075 276.399C352.359 275.709 353.117 274.612 353.884 275.741C355.267 275.298 358.276 274.761 359.247 276.156C359.308 276.244 359.363 276.333 359.412 276.422C360.798 276.432 363.674 276.648 364.088 277.428C364.578 278.351 360.01 279.021 359.559 278.972C361.441 279.797 364.979 281.778 365.436 283.637C365.436 283.637 369.503 286.07 368.46 287.121C367.625 287.961 365.12 286.175 363.971 285.177C363.35 285.016 362.669 284.617 362.201 284.272C362.356 284.698 362.231 284.885 362.056 285.056C363.025 286.05 364.708 287.993 365.62 289.668C366.098 289.788 370.242 295.102 369.623 295.477C369.129 295.778 366.692 294.291 365.536 293.51C365.476 293.54 365.417 293.561 365.36 293.574L366.436 295.72C367.043 296.021 371.407 304.474 370.949 304.346C370.582 304.244 366.379 299.928 364.324 297.783L361.464 291.793C361.428 291.878 361.398 291.898 361.381 291.823C361.286 291.413 356.899 285.971 357.367 286.032C357.741 286.08 357.257 284.269 356.968 283.357C356.576 283.136 354.99 280.982 354.48 280.925C353.969 280.868 353.5 280.068 353.501 279.582C353.502 279.096 352.546 276.713 352.075 276.399Z" fill="#F1EAB2"/>
<path d="M353.884 275.741C353.117 274.612 352.359 275.709 352.075 276.399C352.546 276.713 353.502 279.096 353.501 279.582C353.5 280.068 353.969 280.868 354.48 280.925C354.99 280.982 356.576 283.136 356.968 283.357M353.884 275.741C353.438 276.227 352.69 277.28 353.27 277.603C353.63 277.802 354.584 278.26 355.435 279.144M353.884 275.741C355.267 275.298 358.276 274.761 359.247 276.156C359.308 276.244 359.363 276.333 359.412 276.422M356.968 283.357C357.257 284.269 357.741 286.08 357.367 286.032C356.899 285.971 361.286 291.413 361.381 291.823C361.398 291.898 361.428 291.878 361.464 291.793M356.968 283.357C356.974 283.229 356.977 283.103 356.976 282.98M355.435 279.144C355.954 279.683 356.434 280.381 356.716 281.275M355.435 279.144C355.549 279.458 357.02 279.618 358.215 279.686M356.976 282.98L361.914 289.849C361.896 289.947 361.876 290.055 361.854 290.17M356.976 282.98C356.971 282.344 356.875 281.779 356.716 281.275M356.716 281.275C358.3 282.827 361.512 285.843 361.686 285.483C361.777 285.294 361.93 285.179 362.056 285.056M362.201 284.272C361.934 283.538 357.467 280.079 358.215 279.686M362.201 284.272C362.669 284.617 363.35 285.016 363.971 285.177M362.201 284.272C362.356 284.698 362.231 284.885 362.056 285.056M358.215 279.686C358.55 279.705 358.864 279.716 359.119 279.722C359.252 279.541 359.403 279.276 359.524 278.957M359.412 276.422C360.798 276.432 363.674 276.648 364.088 277.428C364.606 278.403 359.474 279.096 359.524 278.957M359.412 276.422C359.906 277.325 359.784 278.268 359.524 278.957M359.524 278.957C361.396 279.772 364.976 281.766 365.436 283.637M363.971 285.177C364.746 285.377 365.426 285.208 365.483 284.101C365.49 283.947 365.474 283.793 365.436 283.637M363.971 285.177C365.12 286.175 367.625 287.961 368.46 287.121C369.503 286.07 365.436 283.637 365.436 283.637M362.056 285.056C363.025 286.05 364.708 287.993 365.62 289.668M361.854 290.17C361.805 290.427 364.04 292.559 365.164 293.593C365.223 293.596 365.289 293.591 365.36 293.574M361.854 290.17C361.736 290.776 361.57 291.55 361.464 291.793M361.464 291.793L364.324 297.783M364.324 297.783C364.808 297.031 365.908 295.567 366.436 295.72M364.324 297.783C366.379 299.928 370.582 304.244 370.949 304.346C371.407 304.474 367.043 296.021 366.436 295.72M366.436 295.72L365.36 293.574M365.36 293.574C365.417 293.561 365.476 293.54 365.536 293.51M365.536 293.51C365.925 293.318 366.34 292.755 366.247 291.429C366.212 290.93 365.974 290.319 365.62 289.668M365.536 293.51C366.692 294.291 369.129 295.778 369.623 295.477C370.242 295.102 366.098 289.788 365.62 289.668" stroke="black"/>
<path d="M314.546 217.455L312.525 217.128C310.832 218.219 306.942 219.993 304.933 218.356C301.341 221.425 295.921 228.423 302.974 231.861C303.627 232.42 304.933 233.768 304.933 234.685C304.933 235.831 306.464 237.14 309.831 236.813C312.525 236.551 315.199 235.612 316.199 235.176C318.196 237.285 323.823 240.821 330.358 238.094C331.101 237.783 335.446 237.783 335.701 233.444C335.957 229.105 335.701 227.704 335.701 227.465C335.701 227.225 332.787 221.724 322.973 220.802C320.56 220.25 315.498 218.807 314.546 217.455Z" fill="#F1EAB2"/>
<path d="M314.546 217.455L312.525 217.128C310.832 218.219 306.942 219.993 304.933 218.356C301.341 221.425 295.921 228.423 302.974 231.861C303.627 232.42 304.933 233.768 304.933 234.685C304.933 235.831 306.464 237.14 309.831 236.813C312.525 236.551 315.199 235.612 316.199 235.176M314.546 217.455C313.77 218.792 313.076 222.104 316.505 224.658M314.546 217.455C315.498 218.807 320.56 220.25 322.973 220.802C332.787 221.724 335.701 227.225 335.701 227.465C335.701 227.704 335.957 229.105 335.701 233.444C335.446 237.783 331.101 237.783 330.358 238.094C323.823 240.821 318.196 237.285 316.199 235.176M316.199 235.176C315.668 234.398 314.766 232.704 315.403 232.147C316.199 231.452 315.036 226.377 318.709 226.582M325.116 225.054C325.769 225.117 330.433 226.551 329.5 228.484" stroke="black"/>
<path d="M325.825 236.839C323.294 234.675 318.825 230.237 320.2 228.96C322.273 227.034 324.499 226.443 332.121 233.929C335.913 239.553 343.861 251.034 345.309 251.966L345.365 252.002C347.232 253.204 352.675 256.706 350.362 259.24C352.892 262.556 359.283 266.131 362.162 267.503C366.075 270.243 375.855 274.077 380.256 275.652C387.109 275.928 387.586 279.547 387.331 279.91C387.077 280.274 386.483 282.099 385.788 282.115C385.232 282.128 386.442 284.699 387.116 285.983C387.239 288.388 385.679 287.844 384.883 287.272C379.204 283.406 365.347 274.642 355.352 270.513C345.358 266.384 341.917 262.625 341.446 261.261C339.531 261.719 336.242 260.507 336.423 255.212C334.309 250.081 329.229 239.223 325.825 236.839Z" fill="#F1EAB2"/>
<path d="M350.362 259.24C352.699 256.68 347.12 253.132 345.309 251.966C343.861 251.034 335.913 239.553 332.121 233.929C324.499 226.443 322.273 227.034 320.2 228.96C318.825 230.237 323.294 234.675 325.825 236.839C329.229 239.223 334.309 250.081 336.423 255.212C336.242 260.507 339.531 261.719 341.446 261.261M350.362 259.24C348.493 261.289 344.924 260.107 343.373 259.26C343.245 259.443 342.801 259.788 342.772 260.118C342.724 260.656 342.188 261.084 341.446 261.261M350.362 259.24C352.892 262.556 359.283 266.131 362.162 267.503C366.075 270.243 375.855 274.077 380.256 275.652C387.109 275.928 387.586 279.547 387.331 279.91C387.077 280.274 386.483 282.099 385.788 282.115C385.232 282.128 386.442 284.699 387.116 285.983C387.239 288.388 385.679 287.844 384.883 287.272C379.204 283.406 365.347 274.642 355.352 270.513C345.358 266.384 341.917 262.625 341.446 261.261" stroke="black"/>
<path d="M386.793 282.593C386.983 281.723 387.648 280.274 388.785 281.443C390.32 280.635 393.749 279.38 395.18 280.819C395.271 280.91 395.354 281.003 395.43 281.098C397.063 280.823 400.491 280.48 401.14 281.311C401.909 282.295 396.672 284.032 396.132 284.068C398.517 284.648 403.091 286.244 404.014 288.337C404.014 288.337 409.304 290.356 408.295 291.809C407.487 292.971 404.169 291.389 402.611 290.453C401.847 290.392 400.962 290.064 400.34 289.756C400.61 290.224 400.502 290.471 400.332 290.708C401.679 291.677 404.062 293.613 405.482 295.395C406.07 295.437 412.047 300.829 411.398 301.4C410.878 301.856 407.703 300.612 406.18 299.933C406.116 299.98 406.05 300.017 405.986 300.045L407.697 302.346C408.475 302.575 415.363 311.615 414.797 311.56C414.344 311.515 408.504 307.309 405.641 305.212L401.034 298.757C401.008 298.864 400.977 298.894 400.942 298.81C400.745 298.347 394.455 292.854 395.017 292.829C395.468 292.809 394.522 290.778 393.993 289.765C393.486 289.586 391.174 287.381 390.561 287.42C389.948 287.459 389.23 286.615 389.131 286.042C389.031 285.47 387.412 282.865 386.793 282.593Z" fill="#F1EAB2"/>
<path d="M388.785 281.443C387.648 280.274 386.983 281.723 386.793 282.593C387.412 282.865 389.031 285.47 389.131 286.042C389.23 286.615 389.948 287.459 390.561 287.42C391.174 287.381 393.486 289.586 393.993 289.765M388.785 281.443C388.36 282.108 387.699 283.502 388.449 283.761C388.913 283.922 390.131 284.263 391.315 285.125M388.785 281.443C390.32 280.635 393.749 279.38 395.18 280.819C395.271 280.91 395.354 281.003 395.43 281.098M393.993 289.765C394.522 290.778 395.468 292.809 395.017 292.829C394.455 292.854 400.745 298.347 400.942 298.81C400.977 298.894 401.008 298.864 401.034 298.757M393.993 289.765C393.974 289.612 393.951 289.464 393.924 289.319M391.315 285.125C392.038 285.652 392.748 286.373 393.265 287.367M391.315 285.125C391.514 285.471 393.279 285.355 394.699 285.186M393.924 289.319L401.16 296.377C401.159 296.496 401.157 296.628 401.155 296.767M393.924 289.319C393.787 288.573 393.557 287.927 393.265 287.367M393.265 287.367C395.451 288.865 399.855 291.746 399.985 291.287C400.053 291.045 400.209 290.879 400.332 290.708M400.34 289.756C399.873 288.948 393.9 285.804 394.699 285.186M400.34 289.756C400.962 290.064 401.847 290.392 402.611 290.453M400.34 289.756C400.61 290.224 400.502 290.471 400.332 290.708M394.699 285.186C395.097 285.139 395.468 285.088 395.77 285.041C395.889 284.801 396.011 284.458 396.087 284.057M395.43 281.098C397.063 280.823 400.491 280.48 401.14 281.311C401.952 282.351 396.058 284.232 396.087 284.057M395.43 281.098C396.199 282.058 396.251 283.193 396.087 284.057M396.087 284.057C398.46 284.628 403.085 286.231 404.014 288.337M402.611 290.453C403.563 290.528 404.329 290.187 404.166 288.873C404.143 288.691 404.091 288.512 404.014 288.337M402.611 290.453C404.169 291.389 407.487 292.971 408.295 291.809C409.304 290.356 404.014 288.337 404.014 288.337M400.332 290.708C401.679 291.677 404.062 293.613 405.482 295.395M401.155 296.767C401.151 297.079 404.223 299.124 405.76 300.108C405.83 300.1 405.907 300.079 405.986 300.045M401.155 296.767C401.142 297.504 401.107 298.449 401.034 298.757M401.034 298.757L405.641 305.212M405.641 305.212C406.054 304.227 407.045 302.275 407.697 302.346M405.641 305.212C408.504 307.309 414.344 311.515 414.797 311.56C415.363 311.615 408.475 302.575 407.697 302.346M407.697 302.346L405.986 300.045M405.986 300.045C406.05 300.017 406.116 299.98 406.18 299.933M406.18 299.933C406.598 299.626 406.969 298.878 406.586 297.337C406.441 296.757 406.034 296.088 405.482 295.395M406.18 299.933C407.703 300.612 410.878 301.856 411.398 301.4C412.047 300.829 406.07 295.437 405.482 295.395" stroke="black"/>
<path d="M226.233 93.7208C215.897 95.413 192.615 102.675 182.17 118.185M182.17 118.185C184.209 117.781 188.193 118.224 187.814 123.221C187.34 129.467 186.735 136.822 189.309 138.817C191.368 140.412 192.154 143.959 192.289 145.533M182.17 118.185C181.368 118.61 179.664 119.424 179.269 119.278" stroke="black" stroke-width="0.5"/>
<path d="M58.8004 258.76C60.6711 249.618 69.698 225.868 71.2096 225.463C72.7211 225.058 92.5168 187.083 109.643 178.444C120.995 163.704 145.64 133.924 153.401 132.718C165.205 117.228 199.571 86.4693 242.603 87.3587C247.315 90.6922 251.049 97.3897 228.291 97.512C219.611 99.2589 200.818 105.186 195.088 114.92C195.082 119.438 195.656 128.838 197.992 130.297C200.912 132.12 204.901 141.821 201.082 147.013C199.608 149.846 196.518 155.535 195.945 155.622C199.572 159.654 204.432 170.407 194.855 181.165C182.884 194.612 182.852 189.614 121.518 265.237C115.63 273.908 104.422 288.198 106.698 275.993C107.38 274.116 108.257 271.857 109.305 269.331C114.822 256.025 125.067 235.327 136.442 224.284C144.902 211.855 161.997 185.808 162.701 181.049C162.273 181.18 161.845 181.301 161.417 181.413C158.531 183.193 152.332 186.859 150.63 187.285C148.502 187.818 112.023 219.982 100.443 223.997C92.8893 233.092 73.9855 252.778 58.8004 258.76Z" fill="#F1EAB2"/>
<path d="M195.945 155.622C196.518 155.535 199.608 149.846 201.082 147.013C204.901 141.821 200.912 132.12 197.992 130.297C195.656 128.838 195.082 119.438 195.088 114.92C200.818 105.186 219.611 99.2589 228.291 97.512C251.049 97.3897 247.315 90.6922 242.603 87.3587C199.571 86.4693 165.205 117.228 153.401 132.718C145.64 133.924 120.995 163.704 109.643 178.444C92.5169 187.083 72.7211 225.058 71.2096 225.463C69.698 225.868 60.6711 249.618 58.8004 258.76C73.9855 252.778 92.8893 233.092 100.443 223.997C112.023 219.982 148.502 187.818 150.63 187.285C152.332 186.859 158.531 183.193 161.417 181.413C161.845 181.301 162.273 181.18 162.701 181.049M195.945 155.622C199.572 159.654 204.432 170.407 194.855 181.165C182.884 194.612 182.852 189.614 121.518 265.237C115.63 273.908 104.422 288.198 106.698 275.993C107.38 274.116 108.257 271.857 109.305 269.331M195.945 155.622C193.08 159.306 187.707 165.188 181.144 170.493M162.701 181.049C161.997 185.808 144.902 211.855 136.442 224.284C125.067 235.327 114.822 256.025 109.305 269.331M162.701 181.049C169.168 179.07 175.583 174.988 181.144 170.493M88.3762 213.306C82.5441 221.248 71.9753 237.558 76.3576 239.262C83.4862 232.293 98.2622 218.215 100.338 217.658C102.932 216.963 123.391 201.143 125.291 197.854C127.19 194.564 149.816 178.436 156.258 179.742M181.144 170.493C159.743 203.715 115.413 269.993 109.305 269.331M151.748 150.784C151.172 151.982 151.116 153.101 151.251 153.787C152.015 164.487 150.723 170.52 148.35 172.324C150.126 173.718 154.935 171.027 155.691 170.357C156.084 170.008 157.672 168.93 159.185 167.927M151.748 150.784C152.395 149.44 153.696 147.996 156.118 146.952C161.844 144.483 165.411 140.645 165.881 140.363C166.351 140.082 173.065 133.453 177.467 137.96C181.868 142.467 185.009 148.084 182.911 151.882C181.941 153.637 179.74 155.577 177.576 157.175M151.748 150.784C154.464 152.225 159.752 157.67 159.185 167.927M159.185 167.927C159.996 167.389 160.785 166.873 161.357 166.502L164.595 164.732M164.595 164.732L173.383 159.93C174.429 159.332 175.992 158.345 177.576 157.175M164.595 164.732C163.639 160.351 161.923 150.841 162.703 147.849C163.678 144.108 168.62 140.41 173.665 144.912C177.701 148.513 177.954 154.588 177.576 157.175M110.273 190.835C110.914 189.725 112.609 187.956 114.259 189.767C116.323 192.031 118.458 198.548 114.503 201.55C113.96 201.696 109.508 203.568 109.745 204.088C109.981 204.607 103.498 211.582 102.1 209.629C100.703 207.676 96.5249 203.745 110.273 190.835ZM121.824 186.343C121.321 183.778 121.502 177.717 126.25 173.994C132.186 169.339 137.903 160.003 141.469 159.392C145.035 158.782 144.24 158.65 143.916 164.4C143.592 170.15 141.317 183.054 130.485 184.644C128.753 185.569 125.218 187.563 124.929 188.137C124.569 188.854 121.44 188.518 121.824 186.343Z" stroke="black"/>
<path d="M251.643 201.027C251.317 200.454 248.018 200.379 246.41 200.413C236.464 194.433 235.935 187.317 236.914 184.506C244.886 174.159 279.39 183.04 282.084 183.956C284.778 184.872 288.616 188.872 288.155 189.356C287.694 189.839 271.943 192.177 264.411 190.314C258.385 188.824 255.582 192.107 254.933 193.935C255.644 200.174 252.052 201.744 251.643 201.027Z" fill="#F1EAB2" stroke="black"/>
<path d="M246.988 229.065C245.891 229.504 244.305 229.661 243.65 229.686C244.463 229.179 245.244 228.645 245.994 228.087C239.265 220.623 241.841 200.199 244.433 189.358C243.309 187.375 243.408 184.081 243.65 182.44C242.919 181.834 245.57 178.592 246.988 177.046C260.546 173.488 280.306 191.375 288.491 200.764C292.6 203.12 294.849 205.621 295.869 208.089C297.253 208.311 300.04 208.793 300.122 208.95C301.138 208.95 304.759 210.12 306.611 214.892C307.775 215.035 310.142 215.449 310.3 215.96C324.424 222.971 311.236 233.659 310.3 234.719C309.552 235.567 306.835 236.033 305.57 236.161C310.298 233.407 311.601 228.192 311.526 223.461C311.525 223.39 305.999 224.045 306.305 223.461C303.449 228.574 296.601 232.534 296.021 233.064C295.404 233.627 293.707 233.696 292.936 233.659C299.661 227.808 301.713 221.566 301.789 216.611C301.197 216.797 300.334 217.027 299.4 217.206C299.277 217.23 299.153 217.252 299.029 217.274C298.091 218.096 296.033 222.639 294.979 225.159C294.268 223.892 295.276 219.488 295.869 217.445C295.533 217.399 295.231 217.322 294.979 217.206C292.631 221.59 288.491 224.796 288.491 225.159C288.491 225.767 286.209 226.468 285.068 226.743C289.986 222.264 291.346 215.919 291.531 211.415C290.697 212.051 289.203 212.969 287.765 213.363C286.201 218.397 284.528 224.872 283.518 229.065C281.863 227.558 283.392 220.201 285.361 213.321C285.297 213.289 285.234 213.254 285.173 213.216C282.2 220.631 275.281 225.13 269.702 227.718C269.308 229.657 268.951 231.47 268.647 233.064C268.014 232.734 267.833 231.033 267.961 228.485C264.572 229.904 261.982 230.566 261.63 230.745C260.706 231.212 258.484 230.939 257.488 230.745C261.781 229.481 265.312 227.667 268.202 225.528C268.744 220.414 269.998 213.466 271.301 207.096C270.378 206.975 269.292 206.676 268.647 206.465C264.778 220.463 255.325 225.884 250.257 227.934C250.474 229.321 250.676 230.2 250.676 230.745C249.26 230.478 248.046 229.896 247.011 229.056C247.003 229.059 246.995 229.062 246.988 229.065Z" fill="#F1EAB2"/>
<path d="M262.733 190.354C263.279 189.927 268.03 192.984 270.337 194.566M262.733 190.354C258.747 189.11 256.351 191.171 255.651 192.357C253.835 193.156 252.398 193.482 251.211 193.494M262.733 190.354C262.818 192.85 262.615 196.236 261.933 200.036M270.337 194.566C270.206 199.097 269.594 203.038 268.647 206.465M270.337 194.566C271.224 195.156 272.374 195.914 273.574 196.696M280.206 200.764L286.596 203.916M280.206 200.764C280.26 201.693 280.249 202.755 280.153 203.916M280.206 200.764C280.043 200.764 279.053 200.183 277.715 199.349M286.596 203.916C286.814 207.434 286.255 210.518 285.173 213.216M286.596 203.916C286.989 204.047 287.609 204.222 288.235 204.336M288.491 200.764C280.306 191.375 260.546 173.488 246.988 177.046C245.57 178.592 242.919 181.834 243.65 182.44C243.408 184.081 243.309 187.375 244.433 189.358M288.491 200.764C288.875 201.704 289.509 203.194 290.059 204.336M288.491 200.764C292.6 203.12 294.849 205.621 295.869 208.089M291.012 205.936C290.839 205.86 290.474 205.197 290.059 204.336M291.012 205.936C291.217 206.027 291.66 208.273 291.531 211.415M291.012 205.936C289.472 205.936 285.375 221.356 283.518 229.065C281.057 226.824 285.637 211.645 288.235 204.336M300.122 208.95C301.138 208.95 304.759 210.12 306.611 214.892M300.122 208.95C300.04 208.793 297.253 208.311 295.869 208.089M300.122 208.95C301.023 210.616 301.838 213.332 301.789 216.611M310.3 215.96C324.424 222.971 311.236 233.659 310.3 234.719C309.552 235.567 306.835 236.033 305.57 236.161C310.298 233.407 311.601 228.192 311.526 223.461M310.3 215.96C310.142 215.449 307.775 215.035 306.611 214.892M310.3 215.96C310.912 217.82 311.48 220.549 311.526 223.461M290.059 204.336C289.655 204.513 288.941 204.463 288.235 204.336M306.611 214.892C306.971 215.821 307.264 216.885 307.459 218.103C307.755 219.96 307.247 221.773 306.305 223.461M311.526 223.461C311.525 223.39 305.999 224.045 306.305 223.461M306.305 223.461C303.449 228.574 296.601 232.534 296.021 233.064C295.404 233.627 293.707 233.696 292.936 233.659C299.661 227.808 301.713 221.566 301.789 216.611M295.869 208.089C297.204 211.317 296.436 214.488 294.979 217.206M301.789 216.611C301.197 216.797 300.334 217.027 299.4 217.206M294.979 217.206C292.631 221.59 288.491 224.796 288.491 225.159C288.491 225.767 286.209 226.468 285.068 226.743C289.986 222.264 291.346 215.919 291.531 211.415M294.979 217.206C295.231 217.322 295.533 217.399 295.869 217.445M291.531 211.415C290.141 212.474 286.922 214.317 285.173 213.216M285.173 213.216C279.956 226.228 262.585 230.262 261.63 230.745C260.706 231.212 258.484 230.939 257.488 230.745C269.893 227.094 275.93 218.854 278.535 211.415M278.535 211.415C276.394 211.076 272.247 209.718 272.788 207.002M278.535 211.415C279.477 208.726 279.97 206.141 280.153 203.916M272.788 207.002C275.097 206.246 279.803 204.57 280.153 203.916M272.788 207.002C272.1 207.431 269.74 206.823 268.647 206.465M268.647 206.465C263.445 225.286 248.147 228.602 246.988 229.065C245.891 229.504 244.305 229.661 243.65 229.686C255.187 222.502 260.168 209.877 261.933 200.036M249.166 193.156C247.591 192.584 246.505 191.384 245.248 190.354C244.923 190.087 244.655 189.748 244.433 189.358M249.166 193.156C249.144 193.588 251.86 200.753 261.933 200.036M249.166 193.156C249.765 193.374 250.434 193.501 251.211 193.494M244.433 189.358C241.367 202.182 238.323 228.413 250.676 230.745C250.676 229.686 249.912 227.36 249.759 222.493C248.907 219.75 247.715 211.419 249.759 200.036L251.211 193.494M273.574 196.696C270.871 208.267 266.102 231.739 268.647 233.064C270.839 221.596 275.722 198.799 277.715 199.349M273.574 196.696C275.002 197.627 276.501 198.592 277.715 199.349M295.869 217.445C295.276 219.488 294.268 223.892 294.979 225.159C296.212 222.209 298.822 216.488 299.4 217.206M295.869 217.445C296.879 217.583 298.199 217.436 299.4 217.206" stroke="black"/>
</svg>
