<svg width="89" height="97" viewBox="0 0 89 97" fill="none" xmlns="http://www.w3.org/2000/svg">
<path d="M34.0769 26.7999L34.1288 26.628C35.2409 22.9437 37.4803 18.823 40.3867 15.1432C43.2943 11.4619 47.0455 7.99882 51.3317 5.84434C55.663 3.66725 60.7087 2.76044 65.8415 4.59922C70.9195 6.41834 75.4734 10.7084 79.3361 17.6578L79.4533 17.8687L79.5404 18.0936C82.7532 26.3853 85.7655 40.4385 84.4816 54.5282C83.1938 68.6617 77.4982 83.3891 62.6957 91.8798L62.1983 92.1651L61.6359 92.2768C59.684 92.6643 55.7828 93.4035 51.1624 91.8986C46.4804 90.3736 41.5702 86.7273 37.1111 79.3749L34.0769 26.7999ZM34.0769 26.7999L34.0429 26.9762M34.0769 26.7999L34.0429 26.9762M34.0429 26.9762C28.0235 58.1657 33.8943 74.0711 37.111 79.3748L34.0429 26.9762ZM29.2435 19.5802L25.8636 17.918L24.4534 21.4105C20.8999 30.2112 20.1304 42.7501 20.7577 53.7099C21.075 59.2536 21.7585 64.5471 22.6898 68.9605C23.5904 73.2286 24.8111 77.1228 26.4282 79.5182L28.1493 82.0676L30.8986 80.6882L35.2453 78.5073L32.1061 72.2506L30.9644 72.8235C30.4854 71.4491 29.9946 69.6743 29.539 67.5152C28.6914 63.4985 28.0468 58.5598 27.7463 53.3099C27.2033 43.8229 27.8113 33.8042 30.0608 26.5304L32.654 21.2575L29.2435 19.5802ZM13.2104 14.6637L9.7043 13.2234L8.5474 16.8329C1.90623 37.5533 3.06999 65.1523 9.94973 84.5557L11.2101 88.1103L14.6608 86.5884L19.2582 84.5609L22.235 83.2481L21.1427 80.1834C13.8973 59.855 11.8572 39.8726 19.7933 21.1974L21.1787 17.9372L17.902 16.5911L13.2104 14.6637Z" stroke="#FFFF93" stroke-width="7"/>
<path d="M80.8174 36.8019C73.1269 -6.65784 50.4924 5.71078 42.1029 17.7406C28.295 36.0395 32.8393 92.0798 57.9207 89.1571C78.9391 86.7077 82.3834 54.2044 80.8174 36.8019Z" fill="#C9AC8E"/>
<path d="M75.9822 19.8134L72.3644 25.1521C77.8643 42.6895 74.682 58.6272 72.1924 64.627C57.8689 95.3803 44.5887 76.9439 39.5263 64.8773L36.665 67.8917C44.6895 94.4882 59.2528 90.7478 65.1984 86.8459C86.0179 74.012 83.1481 31.5639 75.9822 19.8134Z" fill="#A57C5C"/>
<path d="M46.18 18.6599C33.7964 32.4834 36.6942 55.5681 39.6911 65.3825C46.6491 83.003 58.9234 88.9144 69.8686 69.5887C78.6247 54.1282 75.3411 33.893 72.6049 25.7081C68.9564 17.5988 58.5637 4.83631 46.18 18.6599Z" fill="#5A6362"/>
<path d="M45.0858 49.3908C44.3579 48.9302 39.7787 52.8871 37.5801 54.9232C39.8971 78.6316 55.963 74.339 63.7063 69.2291C75.1956 59.9709 75.8608 42.89 74.7572 35.5068C71.041 33.5066 67.939 36.0666 66.8525 37.5967C67.5711 41.0001 67.5988 47.3833 67.5228 50.1494C67.0525 55.0409 64.154 65.1145 56.3226 66.2765C46.5333 67.7289 45.9957 49.9666 45.0858 49.3908Z" fill="#848685"/>
<path d="M64.0608 69.0104C73.6797 61.0391 75.4697 45.9 75.1623 39.3269C77.7008 68.2805 62.5291 81.4376 56.3991 81.4376C47.1012 82.412 41.1338 70.0766 39.3123 63.7871C39.2389 63.536 39.3923 63.4798 39.4782 63.4831C44.1367 77.8125 57.8077 73.1385 64.0608 69.0104Z" fill="#989C9D"/>
<path d="M56.7848 27.0718C46.0672 29.2748 44.7596 43.9533 45.4153 50.2314C47.8975 70.2246 57.2709 67.2718 61.6472 63.2963C66.7299 55.8579 68.2383 51.2804 67.0906 39.9321C66.1725 30.8535 60.0114 27.3574 56.7848 27.0718Z" fill="#5A6662"/>
<path d="M56.7488 29.7312C48.939 30.9984 46.8191 42.8499 46.7354 48.6173C48.2101 62.3615 54.668 64.0511 57.7126 63.1779C63.7458 60.2048 65.5335 51.0542 65.6731 46.8505C66.1089 33.4963 59.9051 29.8734 56.7488 29.7312Z" fill="#B1B3B2"/>
<path d="M46.8789 49.7042C47.0782 64.0232 62.0565 71.5333 65.3463 49.7042C56.3179 66.6006 49.2729 56.7444 46.8789 49.7042Z" fill="#737979"/>
<path d="M63.384 41.4579C54.5696 32.1123 50.9232 45.3519 50.2019 53.14C45.8734 40.9334 50.8468 34.2579 53.8745 32.446C60.9837 29.6995 63.1763 37.3096 63.384 41.4579Z" fill="#E3E7EA"/>
<path d="M61.0419 39.3764C60.1424 53.3723 53.5064 56.3228 50.3008 56.0486C55.5287 62.9746 61.4759 56.4344 63.796 52.2986C65.8375 49.8408 65.7106 44.2989 65.392 41.8351C64.9865 35.1797 60.897 32.0847 58.9029 31.3691C62.2913 34.0673 63.279 39.2171 63.3493 41.4548L61.0419 39.3764Z" fill="#A2A2A2"/>
<path d="M30.2108 24.0591C24.9792 34.467 24.3997 63.5459 31.5208 76.3502" stroke="#9A4600" stroke-width="5"/>
<path d="M14.2108 18.9045C8.97922 31.5445 8.39969 66.8595 15.5208 82.4097" stroke="#9A4600" stroke-width="5"/>
</svg>
