<svg width="74" height="84" viewBox="0 0 74 84" fill="none" xmlns="http://www.w3.org/2000/svg">
<path d="M73.334 30.448C65.6435 -13.0118 43.009 -0.643192 34.6195 11.3866C20.8116 29.6856 25.3559 85.7259 50.4373 82.8031C71.4557 80.3538 74.9 47.8505 73.334 30.448Z" fill="#C9AC8E"/>
<path d="M68.4988 13.4594L64.881 18.7981C70.3809 36.3356 67.1986 52.2733 64.709 58.273C50.3855 89.0263 37.1053 70.5899 32.0429 58.5233L29.1816 61.5378C37.2061 88.1342 51.7694 84.3939 57.715 80.492C78.5345 67.6581 75.6647 25.2099 68.4988 13.4594Z" fill="#A57C5C"/>
<path d="M38.6969 12.3059C26.3132 26.1295 29.2111 49.2142 32.2079 59.0286C39.1659 76.649 51.4402 82.5605 62.3854 63.2348C71.1416 47.7742 67.858 27.5391 65.1217 19.3541C61.4733 11.2449 51.0805 -1.51764 38.6969 12.3059Z" fill="#5A6362"/>
<path d="M37.6026 43.0368C36.8747 42.5762 32.2955 46.5331 30.0969 48.5692C32.414 72.2776 48.4798 67.985 56.2231 62.8751C67.7124 53.6169 68.3776 36.536 67.2741 29.1528C63.5578 27.1526 60.4558 29.7126 59.3694 31.2427C60.088 34.6461 60.1157 41.0293 60.0397 43.7954C59.5693 48.6869 56.6708 58.7605 48.8394 59.9225C39.0502 61.3749 38.5125 43.6126 37.6026 43.0368Z" fill="#848685"/>
<path d="M56.5777 62.6565C66.1965 54.6852 67.9865 39.5461 67.6792 32.973C70.2177 61.9266 55.0459 75.0837 48.916 75.0837C39.6181 76.0581 33.6506 63.7227 31.8291 57.4332C31.7557 57.1821 31.9091 57.1259 31.995 57.1291C36.6535 71.4586 50.3245 66.7846 56.5777 62.6565Z" fill="#989C9D"/>
<path d="M49.3009 20.7177C38.5834 22.9208 37.2757 37.5993 37.9314 43.8774C40.4136 63.8705 49.787 60.9177 54.1633 56.9422C59.246 49.5038 60.7545 44.9264 59.6067 33.5781C58.6886 24.4995 52.5275 21.0033 49.3009 20.7177Z" fill="#5A6662"/>
<path d="M49.2654 23.3773C41.4556 24.6445 39.3357 36.496 39.252 42.2633C40.7267 56.0075 47.1846 57.6971 50.2292 56.8239C56.2624 53.8509 58.0501 44.7003 58.1897 40.4966C58.6255 27.1423 52.4217 23.5194 49.2654 23.3773Z" fill="#B1B3B2"/>
<path d="M39.3958 43.3503C39.595 57.6692 54.5733 65.1794 57.8632 43.3503C48.8348 60.2466 41.7897 50.3904 39.3958 43.3503Z" fill="#737979"/>
<path d="M55.9011 35.1039C47.0866 25.7583 43.4403 38.9979 42.719 46.786C38.3905 34.5794 43.3638 27.9039 46.3916 26.092C53.5008 23.3455 55.6934 30.9556 55.9011 35.1039Z" fill="#E3E7EA"/>
<path d="M53.5582 33.0224C52.6587 47.0183 46.0227 49.9688 42.8171 49.6946C48.045 56.6206 53.9923 50.0804 56.3124 45.9446C58.3538 43.4868 58.227 37.9449 57.9083 35.4811C57.5029 28.8257 53.4133 25.7307 51.4193 25.0151C54.8077 27.7133 55.7953 32.8631 55.8656 35.1008L53.5582 33.0224Z" fill="#A2A2A2"/>
<path d="M22.7274 17.7052C17.4958 28.1131 16.9163 57.192 24.0374 69.9963" stroke="#9A4600" stroke-width="5"/>
<path d="M6.72745 12.5506C1.49583 25.1906 0.916296 60.5056 8.03741 76.0558" stroke="#9A4600" stroke-width="5"/>
</svg>
