<svg width="133" height="89" viewBox="0 0 133 89" fill="none" xmlns="http://www.w3.org/2000/svg">
<path d="M21.0763 48.8481H21.0765L48.8053 46.5794L61.6613 44.3107L94.9358 52.6293L125.942 56.9146C121.152 74.0561 97.2045 81.1143 79.3069 81.1143C60.905 82.8788 7.71629 70.527 1.4143 59.6876C-4.88764 48.8482 12.5055 48.8481 21.0763 48.8481Z" fill="black" fill-opacity="0.2"/>
<path d="M16.4022 37.7898H18.5052H18.6914C18.9086 47.2523 23.6336 50.4566 23.9866 51.1083C28.7441 56.1048 38.3877 57.3901 42.6149 57.4082C45.3738 57.2996 48.0549 56.9466 49.0506 56.7837C50.6799 54.6764 51.5398 46.7454 51.7661 43.0433H57.5501L56.7897 53.7423C56.3118 54.394 56.3009 55.444 56.3552 55.8875C56.7897 57.8644 61.1164 61.7983 63.2254 63.5181L74.6305 72.099L85.9813 80.7886V80.9787C87.5237 85.8666 93.7747 85.8123 95.6756 83.8028L94.4807 82.1192C88.6153 83.6833 87.6739 80.327 87.9364 78.4533L92.0097 73.1852C97.6579 73.5328 97.2596 77.1498 96.3544 78.9149L98.6626 79.811C101.117 73.5111 96.5174 71.2663 93.9105 70.9314L94.2092 70.4697L80.4145 62.0517C84.151 62.7903 93.7204 62.6129 98.038 62.4319C98.6898 61.8236 98.9975 59.6621 99.0699 58.6573C99.0482 57.9405 99.2419 57.019 99.3415 56.6479L126.605 57.3539L128.967 43.2605C128.967 42.044 127.628 41.8123 126.958 41.8485C124.09 41.6964 123.971 46.7816 124.27 49.3432L100.373 47.5781C100.721 45.6013 101.097 37.1054 101.242 33.1046L127.067 34.0278L129.103 17.2461C128.973 16.5292 126.786 16.1328 125.709 16.0241C122.646 15.9807 122.767 20.1155 123.211 22.1883V26.0986L101.242 24.3878C101.329 23.4754 100.898 20.8396 100.672 19.6357L93.829 19.1198L97.5967 18.0472C101.557 17.6653 103.929 13.5042 103.486 11.7956L101.436 11.6348C101.179 12.5514 100.431 13.6383 100.089 14.0671C98.4168 16.5115 96.1761 15.7556 95.2649 15.0722C94.1713 14.3003 93.6031 11.5209 93.4557 10.2277C94.903 5.38717 98.1729 6.44184 99.6269 7.57423L100.833 5.44345L100.512 5.31133C95.4304 2.30626 92.8852 5.19747 92.2477 7.0187L60.2164 19.2439C58.7412 19.5717 58.7822 21.4749 58.9871 22.3855L58.2358 33.313H51.9525C52.2257 29.3245 51.2923 23.1823 50.7915 20.6098C50.1904 19.4078 46.3522 18.3332 44.5081 17.9462V16.3754C41.2845 15.1733 35.3791 15.8745 32.8294 16.3754C30.8624 16.9217 30.5983 18.2421 30.7121 18.834C21.2598 21.5659 18.6358 31.3155 18.5052 35.8488H16.4022C14.7198 32.4845 12.3587 32.0747 11.3885 32.2904C8.28294 32.808 7.29082 34.8783 7.18296 35.8488C6.96729 37.035 7.18294 40.5394 10.4179 41.3482C13.5234 42.9009 15.7014 39.6229 16.4022 37.7898Z" stroke="#FFFF93" stroke-width="7"/>
<path d="M18.7174 35.7261C18.9275 26.7149 26.3029 20.4659 30.765 18.8595C30.765 17.1461 32.2185 16.5243 32.9453 16.4276C35.9297 15.6136 41.9514 16.0884 44.5891 16.4276V18.8595C48.1162 18.8595 50.2288 20.2874 50.8443 21.0013C53.1806 33.9498 51.7589 50.6782 49.5057 56.0732C43.7229 58.8575 34.7901 56.4508 30.9527 55.2907C20.6177 50.6021 18.5072 44.7373 18.7174 35.7261Z" fill="#55E8BB"/>
<path d="M19.1777 42.3098C24.4323 49.7281 42.7901 49.5962 51.1614 48.6303C50.6664 52.7806 49.5341 56.2584 48.9546 56.8379C27.6271 59.6198 20.1677 48.7826 19.1777 42.3098Z" fill="#4EC59D"/>
<path d="M51.5021 25.0818C34.7868 18.6343 19.5755 32.9114 18.9785 33.2696C22.4171 13.7847 45.8161 15.9275 50.9357 20.9311L51.5021 25.0818Z" fill="#ABF5DE"/>
<path d="M44.6177 51.2843V16.3948C38.3818 15.3555 33.9153 16.0893 32.4306 16.5223C30.9459 33.7451 31.7502 46.9539 32.3688 51.2843C38.9016 55.59 43.2568 53.0784 44.6177 51.2843Z" fill="#50C99E"/>
<ellipse cx="11.6521" cy="36.8889" rx="4.37423" ry="4.48132" fill="#FAD830"/>
<path d="M14.0823 37.8078C12.0086 40.1407 9.45177 39.48 8.40771 38.508C12.597 43.3134 17.0975 38.3438 15.3694 35.4276C13.9869 33.0947 12.1022 33.4876 11.3821 33.9196C14.9247 34.3516 14.6583 36.6917 14.0823 37.8078Z" fill="#D2A814"/>
<path d="M100.785 5.34879C94.3674 1.76382 91.7162 6.78501 91.1928 9.74372L93.3144 11.0614C94.3581 5.43248 97.9459 6.33565 99.6093 7.49085L100.785 5.34879Z" fill="#49BAA1"/>
<path d="M101.479 11.6447C98.9751 17.494 95.6524 15.8038 94.304 14.2275L93.8735 16.3584C97.2915 20.5975 103.959 15.9362 103.51 11.7727L101.479 11.6447Z" fill="#49BAA1"/>
<path d="M39.5307 28.3301C36.0046 28.3301 33.9631 22.7623 39.5307 20.5353" stroke="#3B947E" stroke-width="0.75" stroke-linecap="round" stroke-linejoin="round"/>
<path d="M39.2362 46.9299C36.638 46.9299 33.6686 41.919 39.2362 39.3208" stroke="#3B947E" stroke-width="0.75"/>
<path d="M16.0264 37.6998H18.7036V35.7557H16.0264V37.6998Z" fill="#57E5B3"/>
<path d="M45.8486 39.3755V28.6835C48.3893 29.848 49.8714 31.33 49.9772 34.0824C50.0831 36.8348 47.2954 38.2816 45.8486 39.3755Z" fill="white"/>
<path d="M124.261 49.3595L100.22 47.5629L98.9819 56.6409L126.596 57.3278L128.932 43.3145C128.822 41.8856 127.329 41.8032 126.596 41.9406C124.288 42.0505 124.078 46.9323 124.261 49.3595Z" fill="#5AE9BE"/>
<path d="M61.1546 18.7373C58.8451 19.3487 58.7772 21.3695 59.0319 22.3035C64.4449 20.4419 83.2594 19.5298 92.9956 19.3316L97.5808 18.058V16.8693C93.1655 14.9673 93.1372 9.17086 93.6749 6.51038L92.0616 7.18962L61.1546 18.7373Z" fill="#42CCA1"/>
<path d="M59.0814 22.2258L56.7524 54.1961C64.6286 52.587 75.2077 58.6071 79.5128 61.8183L97.9328 62.4534C98.7797 61.6912 99.062 59.1011 99.0973 57.9014C101.638 40.9635 101.744 22.2258 100.685 19.6852C83.4085 17.6526 65.7507 20.532 59.0814 22.2258Z" fill="#5AE9BE"/>
<path d="M58.3868 42.9749H51.0356V33.4473H58.3868V42.9749Z" fill="#58EABE"/>
<path d="M90.7343 49.75C81.983 49.4677 64.2688 48.8184 63.4219 48.4797L64.904 24.7665L91.5812 24.7666L90.7343 49.75Z" fill="#50C99C"/>
<path d="M69.8794 45.092V40.0107H72.4201V45.092H69.8794Z" fill="#F3D833"/>
<path d="M68.3972 45.1979H65.4331V40.2225H68.3972V45.1979Z" fill="#E85462"/>
<path d="M73.2669 38.1052H66.8093V34.4H73.2669V38.1052Z" fill="#E85462"/>
<path d="M67.4492 28.0303V32.1904H74.546V28.0303H67.4492Z" fill="#F3D833"/>
<path d="M92.9809 56.7436C89.8485 55.3732 67.3973 52.5379 56.7666 54.1977C69.0602 53.319 74.1307 59.3693 79.4863 61.8121C81.9009 62.7258 93.2023 62.5785 97.9607 62.4969C98.7413 61.3602 99.0426 59.5662 99.0426 58.32C97.9332 58.5157 94.4491 57.2874 92.9809 56.7436Z" fill="#45D1A4"/>
<path d="M101.264 25.5414C83.6552 20.8846 64.3324 39.4993 57.0562 49.5041C57.6625 41.0758 59.043 23.5541 59.043 22.2444C70.3134 18.9316 92.5116 18.3605 100.896 19.6639L101.264 25.5414Z" fill="white" fill-opacity="0.31"/>
<path d="M98.6432 79.7719C101.274 72.9075 95.9261 71.0008 92.9229 70.9055L91.9219 73.1936C97.6421 73.4224 97.2608 77.1024 96.3551 78.9138L98.6432 79.7719Z" fill="#49BAA1"/>
<path d="M94.4867 82.1223C88.3352 83.7486 87.6222 80.0895 88.0347 78.0566L86.0902 79.0288C84.8529 84.3319 92.6306 86.7182 95.6356 83.8016L94.4867 82.1223Z" fill="#49BAA1"/>
<path d="M71.299 69.4649C71.299 69.4649 57.7599 59.3367 56.3794 55.9862C56.3794 53.2355 57.0871 53.3145 58.9341 53.2355C62.924 53.2353 71.0022 56.5071 74.3241 58.396L94.2225 70.501L86.0155 80.8576L71.299 69.4649Z" fill="#5AE9BD"/>
<path d="M89.3499 76.7037C85.896 75.5523 65.0368 61.0755 56.8816 53.6399C53.6721 57.1853 64.3257 64.3265 74.0021 71.4919C80.9809 77.1645 84.349 79.5773 86.0284 80.8462L89.3499 76.7037Z" fill="#42CCA1"/>
<path d="M74.5288 58.4719C74.4073 59.9299 69.3412 64.7197 67.2656 66.5421L69.5917 68.2511C72.5077 66.0641 75.9436 61.418 76.8549 59.8486L74.5288 58.4719Z" fill="black" fill-opacity="0.1"/>
<path d="M80.312 62.0483C76.5902 67.2892 73.3092 69.9015 72.3281 70.2496C73.6585 71.2276 74.0166 71.5437 74.6503 72.0347C76.3213 71.8069 81.1324 66.0766 82.9679 63.6239L80.312 62.0483Z" fill="black" fill-opacity="0.1"/>
<path d="M127.05 33.9721L101.229 33.0582V24.4503L123.263 26.1271V20.1756C122.974 14.6209 127.05 15.8773 129.124 17.1999L127.05 33.9721Z" fill="#5AE9BE"/>
<path d="M101.491 56.7186L99.0425 56.6104L100.354 47.6023L102.73 47.7407L101.491 56.7186Z" fill="#45D1A4"/>
<path d="M121.053 49.1054L120.225 57.1893L126.596 57.3162L128.871 43.7236C129.177 42.2483 127.795 41.5343 126.141 42.0582C124.496 42.4921 123.964 46.9526 124.293 49.3585L121.053 49.1054Z" fill="#45D1A4"/>
<path d="M101.209 24.4761V33.0839L103.719 33.1329L104.198 24.6755L101.209 24.4761Z" fill="#45D1A4"/>
<path d="M107.645 24.9492V33.2825L110.925 33.3978V25.1945L107.645 24.9492Z" fill="#45D1A4"/>
<path d="M114.34 25.4498V33.5165L117.184 33.6054L117.326 25.6838L114.34 25.4498Z" fill="#45D1A4"/>
<path d="M127.049 33.9509L121.5 33.7714V27.6548V27.2446V25.9689L123.267 26.1125V22.2832C122.489 13.847 127.068 16.0342 129.119 17.2097L127.049 33.9509Z" fill="#45D1A4"/>
<path d="M77.4831 19.4271L73.9155 19.6893V14.0086L76.6372 12.9908L77.4831 19.4271Z" fill="white" fill-opacity="0.3"/>
<path d="M78.7773 12.152L80.1832 19.2175L84.1847 19.0012L81.7334 11.0704L78.7773 12.152Z" fill="white" fill-opacity="0.3"/>
<path d="M109.283 56.8827L105.51 56.7843L106.576 48.0742L110.316 48.3038L109.283 56.8827Z" fill="#45D1A4"/>
<path d="M116.746 56.9811H113.072L113.876 48.5827L117.614 48.8311L116.746 56.9811Z" fill="#45D1A4"/>
</svg>
