<svg width="308" height="154" viewBox="0 0 308 154" fill="none" xmlns="http://www.w3.org/2000/svg">
<path d="M22.0823 126.489L8.75488 18.0105L285.769 141.092C194.404 150.497 109.4 147.279 76.4388 147.527C50.0701 147.725 40.0084 144.474 38.2736 142.824L22.0823 126.489Z" fill="black" fill-opacity="0.15"/>
<path d="M8.7786 13.7366L4.84243 14.0458L5.62156 17.9165L21.463 96.6161L21.5897 97.2455L21.9316 97.789C25.4372 103.362 30.6927 111.927 35.0637 119.501C37.2524 123.294 39.1956 126.797 40.583 129.537C41.2793 130.913 41.8088 132.043 42.1558 132.894C42.3299 133.321 42.4379 133.629 42.4975 133.832C42.507 133.865 42.5145 133.892 42.5202 133.914C42.5822 135.365 43.2708 136.491 43.9374 137.244C44.6279 138.023 45.4807 138.622 46.2761 139.086C47.8738 140.016 49.9072 140.774 51.9237 141.39C55.546 142.497 59.742 143.328 62.8667 143.817C63.3025 144.158 63.7521 144.427 64.1607 144.642C65.0436 145.106 66.0631 145.483 67.1371 145.802C69.2877 146.441 72.0468 146.96 75.2421 147.391C81.6564 148.256 90.2954 148.831 100.367 149.185C120.538 149.893 146.813 149.727 173.318 149.137C226.258 147.957 280.556 145.07 289.338 143.996C292.373 143.625 294.633 141.724 296.248 139.463C297.851 137.218 299.066 134.295 300.021 131.068C301.938 124.591 303.055 116.008 303.66 106.806C304.874 88.34 304.071 66.5446 302.964 52.1107L302.941 51.8082L302.866 51.5142L292.305 10.0656L291.772 7.97192L289.661 7.51052C278.713 5.1174 260.345 3.98898 238.056 3.68204C215.67 3.37378 189.039 3.8939 161.398 4.88743C106.113 6.87464 46.6569 10.7607 8.7786 13.7366ZM42.5371 133.985C42.537 133.985 42.5363 133.981 42.5352 133.975C42.5367 133.982 42.5372 133.985 42.5371 133.985Z" fill="#FCFEE6" stroke="#FFFF93" stroke-width="7"/>
<g filter="url(#filter0_d)">
<path d="M122.17 86.3395C121.85 86.4355 121.338 86.5315 120.634 86.6275C119.962 86.7235 119.258 86.7715 118.522 86.7715C117.818 86.7715 117.178 86.7235 116.602 86.6275C116.058 86.5315 115.594 86.3395 115.21 86.0515C114.826 85.7635 114.522 85.3795 114.298 84.8995C114.106 84.3875 114.01 83.7315 114.01 82.9315V68.5315C114.01 67.7955 114.138 67.1715 114.394 66.6595C114.682 66.1155 115.082 65.6355 115.594 65.2195C116.106 64.8035 116.73 64.4355 117.466 64.1155C118.234 63.7635 119.05 63.4595 119.914 63.2035C120.778 62.9475 121.674 62.7555 122.602 62.6275C123.53 62.4675 124.458 62.3875 125.386 62.3875C126.922 62.3875 128.138 62.6915 129.034 63.2995C129.93 63.8755 130.378 64.8355 130.378 66.1795C130.378 66.6275 130.314 67.0755 130.186 67.5235C130.058 67.9395 129.898 68.3235 129.706 68.6755C129.034 68.6755 128.346 68.7075 127.642 68.7715C126.938 68.8355 126.25 68.9315 125.578 69.0595C124.906 69.1875 124.266 69.3315 123.658 69.4915C123.082 69.6195 122.586 69.7795 122.17 69.9715V86.3395ZM159.398 74.7235C159.398 76.7075 159.094 78.4835 158.486 80.0515C157.878 81.5875 157.014 82.8835 155.894 83.9395C154.806 84.9955 153.494 85.7955 151.958 86.3395C150.422 86.8835 148.71 87.1555 146.822 87.1555C144.934 87.1555 143.222 86.8675 141.686 86.2915C140.15 85.7155 138.822 84.8995 137.702 83.8435C136.614 82.7555 135.766 81.4435 135.158 79.9075C134.55 78.3715 134.246 76.6435 134.246 74.7235C134.246 72.8355 134.55 71.1235 135.158 69.5875C135.766 68.0515 136.614 66.7555 137.702 65.6995C138.822 64.6115 140.15 63.7795 141.686 63.2035C143.222 62.6275 144.934 62.3395 146.822 62.3395C148.71 62.3395 150.422 62.6435 151.958 63.2515C153.494 63.8275 154.806 64.6595 155.894 65.7475C157.014 66.8035 157.878 68.0995 158.486 69.6355C159.094 71.1715 159.398 72.8675 159.398 74.7235ZM142.598 74.7235C142.598 76.6755 142.966 78.1795 143.702 79.2355C144.47 80.2595 145.526 80.7715 146.87 80.7715C148.214 80.7715 149.238 80.2435 149.942 79.1875C150.678 78.1315 151.046 76.6435 151.046 74.7235C151.046 72.8035 150.678 71.3315 149.942 70.3075C149.206 69.2515 148.166 68.7235 146.822 68.7235C145.478 68.7235 144.438 69.2515 143.702 70.3075C142.966 71.3315 142.598 72.8035 142.598 74.7235ZM165.875 55.1395C166.195 55.0435 166.707 54.9475 167.411 54.8515C168.115 54.7235 168.835 54.6595 169.571 54.6595C170.275 54.6595 170.899 54.7075 171.443 54.8035C172.019 54.8995 172.499 55.0915 172.883 55.3795C173.267 55.6675 173.555 56.0675 173.747 56.5795C173.939 57.0595 174.035 57.6995 174.035 58.4995V63.2035C174.835 62.8835 175.587 62.6595 176.291 62.5315C177.027 62.4035 177.827 62.3395 178.691 62.3395C180.227 62.3395 181.683 62.6115 183.059 63.1555C184.435 63.6995 185.651 64.4995 186.707 65.5555C187.763 66.5795 188.595 67.8595 189.203 69.3955C189.811 70.9315 190.115 72.7075 190.115 74.7235C190.115 76.8035 189.795 78.6275 189.155 80.1955C188.547 81.7315 187.683 83.0115 186.563 84.0355C185.443 85.0595 184.067 85.8435 182.435 86.3875C180.835 86.8995 179.059 87.1555 177.107 87.1555C174.995 87.1555 173.203 86.8995 171.731 86.3875C170.259 85.9075 169.011 85.2995 167.987 84.5635C166.579 83.5715 165.875 82.2915 165.875 80.7235V55.1395ZM177.107 80.7235C178.579 80.7235 179.715 80.2275 180.515 79.2355C181.347 78.2115 181.763 76.7075 181.763 74.7235C181.763 72.7075 181.347 71.2035 180.515 70.2115C179.683 69.2195 178.563 68.7235 177.155 68.7235C176.515 68.7235 175.955 68.7875 175.475 68.9155C175.027 69.0435 174.531 69.2355 173.987 69.4915V79.9555C174.339 80.1795 174.755 80.3715 175.235 80.5315C175.747 80.6595 176.371 80.7235 177.107 80.7235ZM207.915 56.5315C206.827 57.4595 205.979 58.2115 205.371 58.7875C204.763 59.3635 204.155 59.9235 203.547 60.4675C202.299 60.4675 201.307 60.1795 200.571 59.6035C199.835 58.9955 199.467 58.2275 199.467 57.2995C199.467 56.6595 199.643 56.0835 199.995 55.5715C200.347 55.0595 200.939 54.4995 201.771 53.8915L204.123 52.2115C204.891 51.6675 205.579 51.2835 206.187 51.0595C206.827 50.8035 207.467 50.6755 208.107 50.6755C208.523 50.6755 208.891 50.7075 209.211 50.7715C209.563 50.8035 209.915 50.9155 210.267 51.1075C210.619 51.2675 211.003 51.5235 211.419 51.8755C211.835 52.1955 212.363 52.6275 213.003 53.1715L216.363 56.1475C216.395 56.3075 216.411 56.4515 216.411 56.5795C216.443 56.7075 216.459 56.8515 216.459 57.0115C216.459 58.0035 216.187 58.8195 215.643 59.4595C215.131 60.0675 214.379 60.3715 213.387 60.3715C213.067 60.3715 212.779 60.3555 212.523 60.3235C212.267 60.2595 211.995 60.1475 211.707 59.9875C211.451 59.8275 211.147 59.6035 210.795 59.3155C210.443 58.9955 210.027 58.5795 209.547 58.0675L207.915 56.5315ZM220.635 74.7235C220.635 76.7075 220.331 78.4835 219.723 80.0515C219.115 81.5875 218.251 82.8835 217.131 83.9395C216.043 84.9955 214.731 85.7955 213.195 86.3395C211.659 86.8835 209.947 87.1555 208.059 87.1555C206.171 87.1555 204.459 86.8675 202.923 86.2915C201.387 85.7155 200.059 84.8995 198.939 83.8435C197.851 82.7555 197.003 81.4435 196.395 79.9075C195.787 78.3715 195.483 76.6435 195.483 74.7235C195.483 72.8355 195.787 71.1235 196.395 69.5875C197.003 68.0515 197.851 66.7555 198.939 65.6995C200.059 64.6115 201.387 63.7795 202.923 63.2035C204.459 62.6275 206.171 62.3395 208.059 62.3395C209.947 62.3395 211.659 62.6435 213.195 63.2515C214.731 63.8275 216.043 64.6595 217.131 65.7475C218.251 66.8035 219.115 68.0995 219.723 69.6355C220.331 71.1715 220.635 72.8675 220.635 74.7235ZM203.835 74.7235C203.835 76.6755 204.203 78.1795 204.939 79.2355C205.707 80.2595 206.763 80.7715 208.107 80.7715C209.451 80.7715 210.475 80.2435 211.179 79.1875C211.915 78.1315 212.283 76.6435 212.283 74.7235C212.283 72.8035 211.915 71.3315 211.179 70.3075C210.443 69.2515 209.403 68.7235 208.059 68.7235C206.715 68.7235 205.675 69.2515 204.939 70.3075C204.203 71.3315 203.835 72.8035 203.835 74.7235Z" fill="#954F3D"/>
</g>
<defs>
<filter id="filter0_d" x="110.01" y="50.6755" width="114.625" height="44.48" filterUnits="userSpaceOnUse" color-interpolation-filters="sRGB">
<feFlood flood-opacity="0" result="BackgroundImageFix"/>
<feColorMatrix in="SourceAlpha" type="matrix" values="0 0 0 0 0 0 0 0 0 0 0 0 0 0 0 0 0 0 127 0"/>
<feOffset dy="4"/>
<feGaussianBlur stdDeviation="2"/>
<feColorMatrix type="matrix" values="0 0 0 0 0 0 0 0 0 0 0 0 0 0 0 0 0 0 0.25 0"/>
<feBlend mode="normal" in2="BackgroundImageFix" result="effect1_dropShadow"/>
<feBlend mode="normal" in="SourceGraphic" in2="effect1_dropShadow" result="shape"/>
</filter>
</defs>
</svg>
