<svg width="130" height="83" viewBox="0 0 130 83" fill="none" xmlns="http://www.w3.org/2000/svg">
<path d="M18.6954 33.3033C18.9056 24.2921 26.2809 18.043 30.743 16.4367C30.743 14.7233 32.1966 14.1015 32.9233 14.0047C35.9078 13.1908 41.9294 13.6656 44.5671 14.0047V16.4367C48.0942 16.4367 50.2069 17.8645 50.8223 18.5785C53.1587 31.527 51.737 48.2553 49.4837 53.6503C43.7009 56.4347 34.7681 54.028 30.9307 52.8678C20.5958 48.1793 18.4853 42.3145 18.6954 33.3033Z" fill="#55E8BB"/>
<path d="M21.0543 46.4252H21.0545L48.7833 44.1566L61.6394 41.8878L94.9139 50.2064L125.92 54.4918C121.13 71.6332 97.1826 78.6914 79.2849 78.6914C60.8831 80.456 7.69431 68.1042 1.39232 57.2647C-4.90961 46.4253 12.4835 46.4253 21.0543 46.4252Z" fill="black" fill-opacity="0.2"/>
<path d="M19.1553 39.887C24.4099 47.3052 42.7676 47.1734 51.1389 46.2075C50.6439 50.3577 49.5117 53.8355 48.9321 54.4151C27.6046 57.1969 20.1452 46.3598 19.1553 39.887Z" fill="#4EC59D"/>
<path d="M51.4796 22.6589C34.7643 16.2114 19.553 30.4885 18.9561 30.8468C22.3946 11.3619 45.7937 13.5046 50.9133 18.5082L51.4796 22.6589Z" fill="#ABF5DE"/>
<path d="M44.5963 48.8615V13.972C38.3603 12.9327 33.8938 13.6664 32.4092 14.0994C30.9244 31.3222 31.7287 44.531 32.3474 48.8615C38.8801 53.1672 43.2353 50.6555 44.5963 48.8615Z" fill="#50C99E"/>
<ellipse cx="11.6301" cy="34.4661" rx="4.37423" ry="4.48132" fill="#FAD830"/>
<path d="M14.0603 35.3849C11.9866 37.7179 9.4298 37.0572 8.38574 36.0851C12.5751 40.8905 17.0755 35.9209 15.3474 33.0048C13.9649 30.6718 12.0802 31.0647 11.3602 31.4967C14.9027 31.9288 14.6363 34.2689 14.0603 35.3849Z" fill="#D2A814"/>
<path d="M100.764 2.92594C94.3459 -0.659028 91.6947 4.36216 91.1713 7.32087L93.2929 8.63852C94.3366 3.00963 97.9244 3.9128 99.5878 5.068L100.764 2.92594Z" fill="#49BAA1"/>
<path d="M101.457 9.22185C98.9531 15.0711 95.6304 13.3809 94.282 11.8047L93.8515 13.9356C97.2696 18.1747 103.937 13.5134 103.488 9.34982L101.457 9.22185Z" fill="#49BAA1"/>
<path d="M39.5087 25.9072C35.9826 25.9072 33.9412 20.3395 39.5087 18.1124" stroke="#3B947E" stroke-width="0.75" stroke-linecap="round" stroke-linejoin="round"/>
<path d="M39.2142 44.5071C36.616 44.5071 33.6466 39.4962 39.2142 36.8979" stroke="#3B947E" stroke-width="0.75"/>
<path d="M16.0039 35.277H18.6811V33.3329H16.0039V35.277Z" fill="#57E5B3"/>
<path d="M45.8271 36.9526V26.2606C48.3678 27.4251 49.8499 28.9072 49.9558 31.6596C50.0616 34.412 47.2739 35.8587 45.8271 36.9526Z" fill="white"/>
<path d="M124.239 46.9366L100.198 45.14L98.96 54.218L126.574 54.9049L128.91 40.8916C128.8 39.4628 127.307 39.3804 126.574 39.5178C124.266 39.6277 124.056 44.5095 124.239 46.9366Z" fill="#5AE9BE"/>
<path d="M61.1331 16.3145C58.8236 16.9258 58.7557 18.9466 59.0104 19.8806C64.4235 18.0191 83.2379 17.1069 92.9742 16.9088L97.5593 15.6352V14.4464C93.144 12.5445 93.1157 6.748 93.6534 4.08752L92.0402 4.76677L61.1331 16.3145Z" fill="#42CCA1"/>
<path d="M59.0594 19.8029L56.7305 51.7733C64.6066 50.1641 75.1857 56.1842 79.4908 59.3954L97.9108 60.0306C98.7577 59.2684 99.04 56.6783 99.0753 55.4785C101.616 38.5406 101.722 19.8029 100.663 17.2623C83.3865 15.2298 65.7287 18.1092 59.0594 19.8029Z" fill="#5AE9BE"/>
<path d="M58.3648 40.552H51.0137V31.0244H58.3648V40.552Z" fill="#58EABE"/>
<path d="M90.7118 47.3272C81.9606 47.0449 64.2463 46.3956 63.3994 46.0568L64.8815 22.3437L91.5587 22.3438L90.7118 47.3272Z" fill="#50C99C"/>
<path d="M69.8574 42.6692V37.5879H72.3981V42.6692H69.8574Z" fill="#F3D833"/>
<path d="M68.3753 42.7751H65.4111V37.7996H68.3753V42.7751Z" fill="#E85462"/>
<path d="M73.2449 35.6824H66.7873V31.9772H73.2449V35.6824Z" fill="#E85462"/>
<path d="M67.4268 25.6074V29.7676H74.5235V25.6074H67.4268Z" fill="#F3D833"/>
<path d="M92.9594 54.3207C89.827 52.9503 67.3758 50.115 56.7451 51.7749C69.0387 50.8962 74.1092 56.9465 79.4648 59.3893C81.8794 60.3029 93.1808 60.1556 97.9392 60.074C98.7198 58.9374 99.0211 57.1433 99.0211 55.8971C97.9117 56.0929 94.4277 54.8645 92.9594 54.3207Z" fill="#45D1A4"/>
<path d="M101.242 23.1186C83.6332 18.4618 64.3104 37.0765 57.0342 47.0813C57.6405 38.653 59.021 21.1313 59.021 19.8215C70.2915 16.5088 92.4896 15.9376 100.874 17.2411L101.242 23.1186Z" fill="white" fill-opacity="0.31"/>
<path d="M98.6207 77.349C101.252 70.4847 95.9036 68.578 92.9005 68.4827L91.8994 70.7707C97.6197 70.9995 97.2383 74.6796 96.3326 76.491L98.6207 77.349Z" fill="#49BAA1"/>
<path d="M94.4652 79.6995C88.3137 81.3258 87.6007 77.6666 88.0132 75.6338L86.0687 76.606C84.8314 81.909 92.6091 84.2954 95.6142 81.3787L94.4652 79.6995Z" fill="#49BAA1"/>
<path d="M71.2771 67.042C71.2771 67.042 57.7379 56.9139 56.3574 53.5634C56.3574 50.8126 57.0651 50.8917 58.9121 50.8126C62.9021 50.8124 70.9802 54.0843 74.3022 55.9732L94.2005 68.0782L85.9935 78.4347L71.2771 67.042Z" fill="#5AE9BD"/>
<path d="M89.3274 74.2808C85.8735 73.1295 65.0143 58.6527 56.8591 51.217C53.6496 54.7625 64.3033 61.9036 73.9796 69.069C80.9584 74.7417 84.3266 77.1544 86.006 78.4233L89.3274 74.2808Z" fill="#42CCA1"/>
<path d="M74.5073 56.0491C74.3858 57.5071 69.3197 62.2968 67.2441 64.1192L69.5702 65.8282C72.4862 63.6413 75.9221 58.9951 76.8334 57.4258L74.5073 56.0491Z" fill="black" fill-opacity="0.1"/>
<path d="M80.2895 59.6255C76.5677 64.8663 73.2867 67.4787 72.3057 67.8268C73.636 68.8047 73.9941 69.1208 74.6279 69.6119C76.2989 69.384 81.1099 63.6537 82.9455 61.201L80.2895 59.6255Z" fill="black" fill-opacity="0.1"/>
<path d="M127.028 31.5493L101.207 30.6353V22.0274L123.241 23.7042V17.7527C122.952 12.198 127.028 13.4545 129.102 14.777L127.028 31.5493Z" fill="#5AE9BE"/>
<path d="M101.469 54.2958L99.0205 54.1876L100.332 45.1794L102.708 45.3178L101.469 54.2958Z" fill="#45D1A4"/>
<path d="M121.03 46.6826L120.203 54.7664L126.574 54.8933L128.849 41.3007C129.155 39.8255 127.772 39.1114 126.118 39.6353C124.473 40.0692 123.942 44.5298 124.271 46.9356L121.03 46.6826Z" fill="#45D1A4"/>
<path d="M101.187 22.0532V30.661L103.697 30.71L104.175 22.2526L101.187 22.0532Z" fill="#45D1A4"/>
<path d="M107.623 22.5264V30.8596L110.904 30.975V22.7717L107.623 22.5264Z" fill="#45D1A4"/>
<path d="M114.318 23.027V31.0936L117.162 31.1825L117.304 23.261L114.318 23.027Z" fill="#45D1A4"/>
<path d="M127.027 31.528L121.479 31.3486V25.2319V24.8217V23.5461L123.245 23.6897V19.8604C122.467 11.4242 127.046 13.6113 129.097 14.7869L127.027 31.528Z" fill="#45D1A4"/>
<path d="M77.4611 17.0043L73.8936 17.2665V11.5857L76.6152 10.568L77.4611 17.0043Z" fill="white" fill-opacity="0.3"/>
<path d="M78.7559 9.72911L80.1618 16.7947L84.1632 16.5784L81.7119 8.64758L78.7559 9.72911Z" fill="white" fill-opacity="0.3"/>
<path d="M109.261 54.4598L105.488 54.3614L106.554 45.6514L110.294 45.881L109.261 54.4598Z" fill="#45D1A4"/>
<path d="M116.724 54.5582H113.05L113.854 46.1598L117.592 46.4083L116.724 54.5582Z" fill="#45D1A4"/>
</svg>
