<svg width="1515" height="720" viewBox="0 0 1515 720" fill="none" xmlns="http://www.w3.org/2000/svg">
<g clip-path="url(#clip0)">
<rect width="1514" height="720" transform="translate(0.772461)" fill="white"/>
<rect x="0.772461" y="522.404" width="1514" height="197.597" fill="#E58E47"/>
<line x1="-60.4596" y1="737.91" x2="64.5404" y2="521.404" stroke="#D3723E" stroke-width="4"/>
<line x1="2.04041" y1="737.91" x2="127.04" y2="521.404" stroke="#D3723E" stroke-width="4"/>
<line x1="66.4217" y1="739.015" x2="187.624" y2="520.36" stroke="#D3723E" stroke-width="4"/>
<line x1="132.741" y1="746.837" x2="246.239" y2="524.085" stroke="#D3723E" stroke-width="4"/>
<line x1="201.59" y1="750.65" x2="299.272" y2="520.524" stroke="#D3723E" stroke-width="4"/>
<line x1="267.64" y1="760.146" x2="353.145" y2="525.223" stroke="#D3723E" stroke-width="4"/>
<line x1="335.895" y1="760.975" x2="404.805" y2="520.66" stroke="#D3723E" stroke-width="4"/>
<line x1="401.327" y1="763.221" x2="453.305" y2="518.684" stroke="#D3723E" stroke-width="4"/>
<line x1="470.895" y1="764.874" x2="505.688" y2="517.307" stroke="#D3723E" stroke-width="4"/>
<line x1="538.733" y1="766.093" x2="551.817" y2="516.435" stroke="#D3723E" stroke-width="4"/>
<line x1="604.788" y1="772.845" x2="600.425" y2="522.883" stroke="#D3723E" stroke-width="4"/>
<line x1="660.97" y1="766.823" x2="652.245" y2="516.975" stroke="#D3723E" stroke-width="4"/>
<line x1="722.509" y1="765.528" x2="700.72" y2="516.479" stroke="#D3723E" stroke-width="4"/>
<line x1="794.639" y1="767.513" x2="742.661" y2="522.976" stroke="#D3723E" stroke-width="4"/>
<line x1="855.027" y1="766.087" x2="790.322" y2="524.606" stroke="#D3723E" stroke-width="4"/>
<line x1="917.411" y1="760.67" x2="836.019" y2="524.29" stroke="#D3723E" stroke-width="4"/>
<line x1="974.607" y1="752.673" x2="876.924" y2="522.547" stroke="#D3723E" stroke-width="4"/>
<line x1="1037.76" y1="744.37" x2="920.391" y2="523.634" stroke="#D3723E" stroke-width="4"/>
<line x1="1092.1" y1="719.292" x2="955.939" y2="509.624" stroke="#D3723E" stroke-width="4"/>
<line x1="1165.71" y1="718.236" x2="1008.38" y2="523.949" stroke="#D3723E" stroke-width="4"/>
<line y1="-2" x2="273.082" y2="-2" transform="matrix(-0.699157 -0.714968 0.699259 -0.714869 1246.77 717)" stroke="#D3723E" stroke-width="4"/>
<line y1="-2" x2="273.082" y2="-2" transform="matrix(-0.66078 -0.75058 0.735714 -0.677293 1302.48 721.105)" stroke="#D3723E" stroke-width="4"/>
<line y1="-2" x2="273.082" y2="-2" transform="matrix(-0.686573 -0.727061 0.711629 -0.702556 1355.44 716.382)" stroke="#D3723E" stroke-width="4"/>
<line y1="-2" x2="273.082" y2="-2" transform="matrix(-0.832529 -0.553982 0.535349 -0.844631 1456.41 660.283)" stroke="#D3723E" stroke-width="4"/>
<line y1="-1" x2="50.5978" y2="-1" transform="matrix(0.999998 -0.00201485 0.883581 0.468278 1033.77 552.82)" stroke="#D3723E" stroke-width="2"/>
<line y1="-1" x2="62.7945" y2="-1" transform="matrix(0.997118 -0.0758633 0.750415 0.660967 1067.16 680.764)" stroke="#D3723E" stroke-width="2"/>
<line y1="-1" x2="54.674" y2="-1" transform="matrix(0.998895 -0.0470062 0.758925 0.651178 964.772 605)" stroke="#D3723E" stroke-width="2"/>
<line y1="-1" x2="45.6365" y2="-1" transform="matrix(0.999898 -0.0142496 0.751888 0.659291 885.764 544.602)" stroke="#D3723E" stroke-width="2"/>
<line y1="-1" x2="62.9566" y2="-1" transform="matrix(0.999185 -0.0403662 0.709366 0.70484 951.702 702.501)" stroke="#D3723E" stroke-width="2"/>
<line y1="-1" x2="51.1566" y2="-1" transform="matrix(0.999664 -0.0259085 0.658057 0.752968 870.703 626.663)" stroke="#D3723E" stroke-width="2"/>
<line y1="-1" x2="51.1566" y2="-1" transform="matrix(0.999964 -0.00845802 0.644815 0.764338 811.765 599.471)" stroke="#D3723E" stroke-width="2"/>
<line y1="-1" x2="52.1511" y2="-1" transform="matrix(0.999956 -0.00941241 0.664014 0.74772 744.772 540)" stroke="#D3723E" stroke-width="2"/>
<line y1="-1" x2="52" y2="-1" transform="matrix(0.999968 -0.00795738 0.724285 0.689501 550.307 545.491)" stroke="#D3723E" stroke-width="2"/>
<line y1="-1" x2="52" y2="-1" transform="matrix(0.999968 -0.00795737 0.724285 0.689501 654.954 593.491)" stroke="#D3723E" stroke-width="2"/>
<line x1="22.063" y1="598" x2="82.063" y2="598" stroke="#D3723E" stroke-width="2"/>
<line y1="-1" x2="53" y2="-1" transform="matrix(0.999891 0.0147555 0.705289 0.70892 348.523 539.791)" stroke="#D3723E" stroke-width="2"/>
<line y1="-1" x2="60" y2="-1" transform="matrix(0.99991 0.0134185 -0.0187715 0.999824 162.84 569)" stroke="#D3723E" stroke-width="2"/>
<ellipse cx="419.326" cy="712.201" rx="444.308" ry="136.693" transform="rotate(5.61756 419.326 712.201)" fill="#5A9793"/>
<path d="M670.003 709.988C668.403 709.988 667.337 714.655 667.003 716.988L671.503 718.488C674.003 716.488 674.003 712.488 674.003 711.488C674.003 710.488 672.003 709.988 670.003 709.988Z" fill="#457875"/>
<path d="M653.503 704.488C651.503 704.888 651.337 711.655 651.503 714.988L656.003 714.988C658.003 712.588 657.837 707.655 657.503 705.488C657.003 704.988 655.503 704.088 653.503 704.488Z" fill="#457875"/>
<path d="M643.503 699.988L643.503 714.988L649.003 714.988L649.003 699.988C646.603 696.388 644.337 698.488 643.503 699.988Z" fill="#457875"/>
<path d="M634.003 705.988C633.203 707.988 634.67 712.155 635.503 713.988L639.003 713.988C640.203 708.788 639.503 706.488 639.003 705.988C636.603 703.188 634.67 704.821 634.003 705.988Z" fill="#457875"/>
<path d="M662.503 701.988C660.103 702.788 658.503 711.655 658.003 715.988L663.003 716.988C664.337 713.988 666.903 707.288 666.503 704.488C666.103 701.688 663.67 701.655 662.503 701.988Z" fill="#457875"/>
<path d="M440.003 695.988C438.403 695.988 437.337 700.655 437.003 702.988L441.503 704.488C444.003 702.488 444.003 698.488 444.003 697.488C444.003 696.488 442.003 695.988 440.003 695.988Z" fill="#5A9793"/>
<path d="M423.503 690.488C421.503 690.888 421.337 697.655 421.503 700.988L426.003 700.988C428.003 698.588 427.837 693.655 427.503 691.488C427.003 690.988 425.503 690.088 423.503 690.488Z" fill="#5A9793"/>
<path d="M413.503 685.988L413.503 700.988L419.003 700.988L419.003 685.988C416.603 682.388 414.337 684.488 413.503 685.988Z" fill="#5A9793"/>
<path d="M404.003 691.988C403.203 693.988 404.67 698.155 405.503 699.988L409.003 699.988C410.203 694.788 409.503 692.488 409.003 691.988C406.603 689.188 404.67 690.821 404.003 691.988Z" fill="#5A9793"/>
<path d="M432.503 687.988C430.103 688.788 428.503 697.655 428.003 701.988L433.003 702.988C434.337 699.988 436.903 693.288 436.503 690.488C436.103 687.688 433.67 687.655 432.503 687.988Z" fill="#5A9793"/>
<path d="M116.003 664.988C114.403 664.988 113.337 669.655 113.003 671.988L117.503 673.488C120.003 671.488 120.003 667.488 120.003 666.488C120.003 665.488 118.003 664.988 116.003 664.988Z" fill="#457875"/>
<path d="M99.5034 659.488C97.5034 659.888 97.3368 666.655 97.5034 669.988L102.003 669.988C104.003 667.588 103.837 662.655 103.503 660.488C103.003 659.988 101.503 659.088 99.5034 659.488Z" fill="#457875"/>
<path d="M89.5034 654.988L89.5034 669.988L95.0034 669.988L95.0034 654.988C92.6034 651.388 90.3368 653.488 89.5034 654.988Z" fill="#457875"/>
<path d="M80.0032 660.988C79.2032 662.988 80.6699 667.155 81.5032 668.988L85.0032 668.988C86.2032 663.788 85.5032 661.488 85.0032 660.988C82.6032 658.188 80.6699 659.821 80.0032 660.988Z" fill="#457875"/>
<path d="M108.503 656.988C106.103 657.788 104.503 666.655 104.003 670.988L109.003 671.988C110.337 668.988 112.903 662.288 112.503 659.488C112.103 656.688 109.67 656.655 108.503 656.988Z" fill="#457875"/>
<path d="M74.272 652.144C71.872 652.944 70.272 661.811 69.772 666.144L74.772 667.144C76.1053 664.144 78.672 657.444 78.272 654.644C77.872 651.844 75.4386 651.811 74.272 652.144Z" fill="#457875"/>
<path d="M286.003 650.988C284.403 650.988 283.337 655.654 283.003 657.988L287.503 659.488C290.003 657.488 290.003 653.488 290.003 652.488C290.003 651.488 288.003 650.988 286.003 650.988Z" fill="#457875"/>
<path d="M269.503 645.488C267.503 645.888 267.337 652.654 267.503 655.988L272.003 655.988C274.003 653.588 273.837 648.654 273.503 646.488C273.003 645.988 271.503 645.088 269.503 645.488Z" fill="#457875"/>
<path d="M250.003 646.988C249.203 648.988 250.67 653.154 251.503 654.988L255.003 654.988C256.203 649.788 255.503 647.488 255.003 646.988C252.603 644.188 250.67 645.821 250.003 646.988Z" fill="#457875"/>
<path d="M263.272 635.144C260.872 635.944 259.272 644.81 258.772 649.144L263.772 650.144C265.105 647.144 267.672 640.444 267.272 637.644C266.872 634.844 264.439 634.81 263.272 635.144Z" fill="#457875"/>
<path d="M440.003 695.988C438.403 695.988 437.337 700.655 437.003 702.988L441.503 704.488C444.003 702.488 444.003 698.488 444.003 697.488C444.003 696.488 442.003 695.988 440.003 695.988Z" fill="#457875"/>
<path d="M423.503 690.488C421.503 690.888 421.337 697.655 421.503 700.988L426.003 700.988C428.003 698.588 427.837 693.655 427.503 691.488C427.003 690.988 425.503 690.088 423.503 690.488Z" fill="#457875"/>
<path d="M413.503 685.988L413.503 700.988L419.003 700.988L419.003 685.988C416.603 682.388 414.337 684.488 413.503 685.988Z" fill="#457875"/>
<path d="M404.003 691.988C403.203 693.988 404.67 698.155 405.503 699.988L409.003 699.988C410.203 694.788 409.503 692.488 409.003 691.988C406.603 689.188 404.67 690.821 404.003 691.988Z" fill="#457875"/>
<path d="M432.503 687.988C430.103 688.788 428.503 697.655 428.003 701.988L433.003 702.988C434.337 699.988 436.903 693.288 436.503 690.488C436.103 687.688 433.67 687.655 432.503 687.988Z" fill="#457875"/>
<path d="M834.958 700.661C833.388 700.357 831.453 704.735 830.682 706.963L834.814 709.291C837.649 707.803 838.41 703.876 838.6 702.895C838.79 701.913 836.922 701.042 834.958 700.661Z" fill="#5A9793"/>
<path d="M819.806 692.123C817.766 692.135 816.316 698.747 815.845 702.051L820.263 702.907C822.683 700.931 823.458 696.056 823.543 693.865C823.147 693.279 821.846 692.111 819.806 692.123Z" fill="#5A9793"/>
<path d="M810.845 685.803L807.991 700.529L813.391 701.575L816.244 686.849C814.573 682.858 811.948 684.489 810.845 685.803Z" fill="#5A9793"/>
<path d="M800.376 689.886C799.21 691.697 799.858 696.067 800.327 698.025L803.763 698.691C805.93 693.814 805.681 691.423 805.285 690.837C803.461 687.632 801.253 688.868 800.376 689.886Z" fill="#5A9793"/>
<path d="M829.117 691.38C826.609 691.709 823.351 700.11 822.036 704.269L826.755 706.202C828.634 703.51 832.429 697.421 832.568 694.596C832.708 691.771 830.326 691.275 829.117 691.38Z" fill="#5A9793"/>
<path d="M725.958 637.661C724.388 637.357 722.453 641.735 721.682 643.963L725.814 646.291C728.649 644.803 729.41 640.876 729.6 639.894C729.79 638.913 727.922 638.041 725.958 637.661Z" fill="#5A9793"/>
<path d="M710.806 629.123C708.766 629.135 707.316 635.747 706.845 639.051L711.263 639.907C713.683 637.931 714.458 633.056 714.543 630.865C714.147 630.279 712.846 629.111 710.806 629.123Z" fill="#5A9793"/>
<path d="M701.845 622.803L698.991 637.529L704.391 638.575L707.244 623.849C705.573 619.858 702.948 621.489 701.845 622.803Z" fill="#5A9793"/>
<path d="M691.376 626.886C690.21 628.698 690.858 633.067 691.327 635.026L694.763 635.691C696.93 630.814 696.681 628.423 696.285 627.837C694.461 624.632 692.253 625.868 691.376 626.886Z" fill="#5A9793"/>
<path d="M720.117 628.38C717.609 628.709 714.351 637.11 713.036 641.269L717.755 643.202C719.634 640.51 723.429 634.421 723.568 631.596C723.708 628.771 721.326 628.275 720.117 628.38Z" fill="#5A9793"/>
<path d="M777.958 660.661C776.388 660.357 774.453 664.735 773.682 666.963L777.814 669.291C780.649 667.803 781.41 663.876 781.6 662.895C781.79 661.913 779.922 661.042 777.958 660.661Z" fill="#5A9793"/>
<path d="M762.806 652.123C760.766 652.135 759.316 658.747 758.845 662.051L763.263 662.907C765.683 660.931 766.458 656.056 766.543 653.865C766.147 653.279 764.846 652.111 762.806 652.123Z" fill="#5A9793"/>
<path d="M753.845 645.803L750.991 660.529L756.391 661.575L759.244 646.849C757.573 642.858 754.948 644.489 753.845 645.803Z" fill="#5A9793"/>
<path d="M743.376 649.886C742.21 651.697 742.858 656.067 743.327 658.025L746.763 658.691C748.93 653.814 748.681 651.423 748.285 650.837C746.461 647.632 744.253 648.868 743.376 649.886Z" fill="#5A9793"/>
<path d="M772.117 651.38C769.609 651.709 766.351 660.11 765.036 664.269L769.755 666.202C771.634 663.51 775.429 657.421 775.568 654.596C775.708 651.771 773.326 651.275 772.117 651.38Z" fill="#5A9793"/>
<path d="M805.958 674.661C804.388 674.357 802.453 678.735 801.682 680.963L805.814 683.291C808.649 681.803 809.41 677.876 809.6 676.894C809.79 675.913 807.922 675.041 805.958 674.661Z" fill="#5A9793"/>
<path d="M790.806 666.123C788.766 666.135 787.316 672.746 786.845 676.051L791.263 676.907C793.683 674.931 794.458 670.056 794.543 667.865C794.147 667.279 792.846 666.11 790.806 666.123Z" fill="#5A9793"/>
<path d="M781.845 659.803L778.991 674.529L784.391 675.575L787.244 660.849C785.573 656.858 782.948 658.489 781.845 659.803Z" fill="#5A9793"/>
<path d="M771.376 663.886C770.21 665.697 770.858 670.067 771.327 672.025L774.763 672.691C776.93 667.814 776.681 665.423 776.285 664.837C774.461 661.632 772.253 662.867 771.376 663.886Z" fill="#5A9793"/>
<path d="M800.117 665.38C797.609 665.709 794.351 674.11 793.036 678.269L797.755 680.202C799.634 677.51 803.429 671.42 803.568 668.596C803.708 665.771 801.326 665.275 800.117 665.38Z" fill="#5A9793"/>
<path d="M856.958 715.661C855.388 715.357 853.453 719.735 852.682 721.963L856.814 724.291C859.649 722.803 860.41 718.876 860.6 717.894C860.79 716.913 858.922 716.041 856.958 715.661Z" fill="#5A9793"/>
<path d="M841.806 707.123C839.766 707.135 838.316 713.746 837.845 717.051L842.263 717.907C844.683 715.931 845.458 711.056 845.543 708.865C845.147 708.279 843.846 707.11 841.806 707.123Z" fill="#5A9793"/>
<path d="M832.845 700.803L829.991 715.529L835.391 716.575L838.244 701.849C836.573 697.858 833.948 699.489 832.845 700.803Z" fill="#5A9793"/>
<path d="M822.376 704.886C821.21 706.697 821.858 711.067 822.327 713.025L825.763 713.691C827.93 708.814 827.681 706.423 827.285 705.837C825.461 702.632 823.253 703.867 822.376 704.886Z" fill="#5A9793"/>
<path d="M851.117 706.38C848.609 706.709 845.351 715.11 844.036 719.269L848.755 721.202C850.634 718.51 854.429 712.42 854.568 709.596C854.708 706.771 852.326 706.275 851.117 706.38Z" fill="#5A9793"/>
<path d="M824.958 685.661C823.388 685.357 821.453 689.735 820.682 691.963L824.814 694.291C827.649 692.803 828.41 688.876 828.6 687.895C828.79 686.913 826.922 686.042 824.958 685.661Z" fill="#5A9793"/>
<path d="M809.806 677.123C807.766 677.135 806.316 683.747 805.845 687.051L810.263 687.907C812.683 685.931 813.458 681.056 813.543 678.865C813.147 678.279 811.846 677.111 809.806 677.123Z" fill="#5A9793"/>
<path d="M800.845 670.803L797.991 685.529L803.391 686.575L806.244 671.849C804.573 667.858 801.948 669.489 800.845 670.803Z" fill="#5A9793"/>
<path d="M790.376 674.886C789.21 676.697 789.858 681.067 790.327 683.025L793.763 683.691C795.93 678.814 795.681 676.423 795.285 675.837C793.461 672.632 791.253 673.868 790.376 674.886Z" fill="#5A9793"/>
<path d="M819.117 676.38C816.609 676.709 813.351 685.11 812.036 689.269L816.755 691.202C818.634 688.51 822.429 682.421 822.568 679.596C822.708 676.771 820.326 676.275 819.117 676.38Z" fill="#5A9793"/>
<path d="M750.958 651.661C749.388 651.357 747.453 655.735 746.682 657.963L750.814 660.291C753.649 658.803 754.41 654.876 754.6 653.895C754.79 652.913 752.922 652.042 750.958 651.661Z" fill="#5A9793"/>
<path d="M735.806 643.123C733.766 643.135 732.316 649.747 731.845 653.051L736.263 653.907C738.683 651.931 739.458 647.056 739.543 644.865C739.147 644.279 737.846 643.111 735.806 643.123Z" fill="#5A9793"/>
<path d="M726.845 636.803L723.991 651.529L729.391 652.575L732.244 637.849C730.573 633.858 727.948 635.489 726.845 636.803Z" fill="#5A9793"/>
<path d="M716.376 640.886C715.21 642.698 715.858 647.067 716.327 649.026L719.763 649.691C721.93 644.814 721.681 642.423 721.285 641.837C719.461 638.632 717.253 639.868 716.376 640.886Z" fill="#5A9793"/>
<path d="M745.117 642.38C742.609 642.709 739.351 651.11 738.036 655.269L742.755 657.202C744.634 654.51 748.429 648.421 748.568 645.596C748.708 642.771 746.326 642.275 745.117 642.38Z" fill="#5A9793"/>
<path d="M684.958 622.661C683.388 622.357 681.453 626.735 680.682 628.963L684.814 631.291C687.649 629.803 688.41 625.876 688.6 624.894C688.79 623.913 686.922 623.041 684.958 622.661Z" fill="#5A9793"/>
<path d="M669.806 614.123C667.766 614.135 666.316 620.747 665.845 624.051L670.263 624.907C672.683 622.931 673.458 618.056 673.543 615.865C673.147 615.279 671.846 614.111 669.806 614.123Z" fill="#5A9793"/>
<path d="M660.845 607.803L657.991 622.529L663.391 623.575L666.244 608.849C664.573 604.858 661.948 606.489 660.845 607.803Z" fill="#5A9793"/>
<path d="M650.376 611.886C649.21 613.698 649.858 618.067 650.327 620.026L653.763 620.691C655.93 615.814 655.681 613.423 655.285 612.837C653.461 609.632 651.253 610.868 650.376 611.886Z" fill="#5A9793"/>
<path d="M679.117 613.38C676.609 613.709 673.351 622.11 672.036 626.269L676.755 628.202C678.634 625.51 682.429 619.421 682.568 616.596C682.708 613.771 680.326 613.275 679.117 613.38Z" fill="#5A9793"/>
<path d="M642.958 613.661C641.388 613.357 639.453 617.735 638.682 619.963L642.814 622.291C645.649 620.803 646.41 616.876 646.6 615.894C646.79 614.913 644.922 614.041 642.958 613.661Z" fill="#5A9793"/>
<path d="M627.806 605.123C625.766 605.135 624.316 611.747 623.845 615.051L628.263 615.907C630.683 613.931 631.458 609.056 631.543 606.865C631.147 606.279 629.846 605.111 627.806 605.123Z" fill="#5A9793"/>
<path d="M618.845 598.803L615.991 613.529L621.391 614.575L624.244 599.849C622.573 595.858 619.948 597.489 618.845 598.803Z" fill="#5A9793"/>
<path d="M608.376 602.886C607.21 604.698 607.858 609.067 608.327 611.026L611.763 611.691C613.93 606.814 613.681 604.423 613.285 603.837C611.461 600.632 609.253 601.868 608.376 602.886Z" fill="#5A9793"/>
<path d="M637.117 604.38C634.609 604.709 631.351 613.11 630.036 617.269L634.755 619.202C636.634 616.51 640.429 610.421 640.568 607.596C640.708 604.771 638.326 604.275 637.117 604.38Z" fill="#5A9793"/>
<path d="M619.958 604.661C618.388 604.356 616.453 608.735 615.682 610.962L619.814 613.291C622.649 611.803 623.41 607.876 623.6 606.894C623.79 605.912 621.922 605.041 619.958 604.661Z" fill="#5A9793"/>
<path d="M604.806 596.123C602.766 596.135 601.316 602.746 600.845 606.05L605.263 606.906C607.683 604.931 608.458 600.056 608.543 597.865C608.147 597.279 606.846 596.11 604.806 596.123Z" fill="#5A9793"/>
<path d="M595.845 589.803L592.991 604.529L598.391 605.575L601.244 590.849C599.573 586.858 596.948 588.488 595.845 589.803Z" fill="#5A9793"/>
<path d="M585.376 593.886C584.21 595.697 584.858 600.067 585.327 602.025L588.763 602.691C590.93 597.814 590.681 595.423 590.285 594.837C588.461 591.632 586.253 592.867 585.376 593.886Z" fill="#5A9793"/>
<path d="M614.117 595.38C611.609 595.709 608.351 604.109 607.036 608.269L611.755 610.201C613.634 607.51 617.429 601.42 617.568 598.595C617.708 595.77 615.326 595.275 614.117 595.38Z" fill="#5A9793"/>
<path d="M568.958 596.661C567.388 596.356 565.453 600.735 564.682 602.962L568.814 605.291C571.649 603.803 572.41 599.876 572.6 598.894C572.79 597.912 570.922 597.041 568.958 596.661Z" fill="#5A9793"/>
<path d="M553.806 588.123C551.766 588.135 550.316 594.746 549.845 598.05L554.263 598.906C556.683 596.931 557.458 592.056 557.543 589.865C557.147 589.279 555.846 588.11 553.806 588.123Z" fill="#5A9793"/>
<path d="M544.845 581.803L541.991 596.529L547.391 597.575L550.244 582.849C548.573 578.858 545.948 580.488 544.845 581.803Z" fill="#5A9793"/>
<path d="M534.376 585.886C533.21 587.697 533.858 592.067 534.327 594.025L537.763 594.691C539.93 589.814 539.681 587.423 539.285 586.837C537.461 583.632 535.253 584.867 534.376 585.886Z" fill="#5A9793"/>
<path d="M563.117 587.38C560.609 587.709 557.351 596.109 556.036 600.269L560.755 602.201C562.634 599.51 566.429 593.42 566.568 590.595C566.708 587.77 564.326 587.275 563.117 587.38Z" fill="#5A9793"/>
<path d="M550.958 590.661C549.388 590.356 547.453 594.735 546.682 596.962L550.814 599.291C553.649 597.803 554.41 593.876 554.6 592.894C554.79 591.912 552.922 591.041 550.958 590.661Z" fill="#5A9793"/>
<path d="M535.806 582.123C533.766 582.135 532.316 588.746 531.845 592.05L536.263 592.906C538.683 590.931 539.458 586.056 539.543 583.865C539.147 583.279 537.846 582.11 535.806 582.123Z" fill="#5A9793"/>
<path d="M526.845 575.803L523.991 590.529L529.391 591.575L532.244 576.849C530.573 572.858 527.948 574.488 526.845 575.803Z" fill="#5A9793"/>
<path d="M516.376 579.886C515.21 581.697 515.858 586.067 516.327 588.025L519.763 588.691C521.93 583.814 521.681 581.423 521.285 580.837C519.461 577.632 517.253 578.867 516.376 579.886Z" fill="#5A9793"/>
<path d="M545.117 581.38C542.609 581.709 539.351 590.109 538.036 594.269L542.755 596.201C544.634 593.51 548.429 587.42 548.568 584.595C548.708 581.77 546.326 581.275 545.117 581.38Z" fill="#5A9793"/>
<path d="M514.958 587.661C513.388 587.356 511.453 591.735 510.682 593.962L514.814 596.291C517.649 594.803 518.41 590.876 518.6 589.894C518.79 588.912 516.922 588.041 514.958 587.661Z" fill="#5A9793"/>
<path d="M499.806 579.123C497.766 579.135 496.316 585.746 495.845 589.05L500.263 589.906C502.683 587.931 503.458 583.056 503.543 580.865C503.147 580.279 501.846 579.11 499.806 579.123Z" fill="#5A9793"/>
<path d="M490.845 572.803L487.991 587.529L493.391 588.575L496.244 573.849C494.573 569.858 491.948 571.488 490.845 572.803Z" fill="#5A9793"/>
<path d="M480.376 576.886C479.21 578.697 479.858 583.067 480.327 585.025L483.763 585.691C485.93 580.814 485.681 578.423 485.285 577.837C483.461 574.632 481.253 575.867 480.376 576.886Z" fill="#5A9793"/>
<path d="M509.117 578.38C506.609 578.709 503.351 587.109 502.036 591.269L506.755 593.201C508.634 590.51 512.429 584.42 512.568 581.595C512.708 578.77 510.326 578.275 509.117 578.38Z" fill="#5A9793"/>
<path d="M283.031 569.997C281.431 570.001 280.376 574.67 280.048 577.004L284.551 578.494C287.046 576.488 287.037 572.488 287.035 571.488C287.032 570.488 285.031 569.992 283.031 569.997Z" fill="#5A9793"/>
<path d="M266.518 564.536C264.519 564.94 264.368 571.708 264.543 575.04L269.043 575.03C271.037 572.625 270.859 567.692 270.521 565.526C270.019 565.028 268.517 564.131 266.518 564.536Z" fill="#5A9793"/>
<path d="M256.508 560.059L256.543 575.059L262.043 575.046L262.008 560.046C259.6 556.452 257.338 558.557 256.508 560.059Z" fill="#5A9793"/>
<path d="M247.022 566.081C246.227 568.083 247.703 572.246 248.541 574.078L252.041 574.07C253.229 568.867 252.523 566.568 252.022 566.07C249.615 563.275 247.686 564.913 247.022 566.081Z" fill="#5A9793"/>
<path d="M275.513 562.015C273.114 562.82 271.535 571.691 271.045 576.025L276.048 577.014C277.374 574.011 279.925 567.305 279.518 564.505C279.112 561.706 276.678 561.679 275.513 562.015Z" fill="#5A9793"/>
<path d="M256.031 571.997C254.431 572.001 253.376 576.67 253.048 579.004L257.551 580.494C260.046 578.488 260.037 574.488 260.035 573.488C260.032 572.488 258.031 571.992 256.031 571.997Z" fill="#5A9793"/>
<path d="M239.518 566.536C237.519 566.94 237.368 573.708 237.543 577.04L242.043 577.03C244.037 574.625 243.859 569.692 243.521 567.526C243.019 567.028 241.517 566.131 239.518 566.536Z" fill="#5A9793"/>
<path d="M229.508 562.059L229.543 577.059L235.043 577.046L235.008 562.046C232.6 558.452 230.338 560.557 229.508 562.059Z" fill="#5A9793"/>
<path d="M220.022 568.081C219.227 570.083 220.703 574.246 221.541 576.078L225.041 576.07C226.229 570.867 225.523 568.568 225.022 568.07C222.615 565.275 220.686 566.913 220.022 568.081Z" fill="#5A9793"/>
<path d="M248.513 564.015C246.114 564.82 244.535 573.691 244.045 578.025L249.048 579.014C250.374 576.011 252.925 569.305 252.518 566.505C252.112 563.706 249.678 563.679 248.513 564.015Z" fill="#5A9793"/>
<path d="M209.031 574.997C207.431 575.001 206.376 579.67 206.048 582.004L210.551 583.494C213.046 581.488 213.037 577.488 213.035 576.488C213.032 575.488 211.031 574.992 209.031 574.997Z" fill="#5A9793"/>
<path d="M192.518 569.536C190.519 569.94 190.368 576.708 190.543 580.04L195.043 580.03C197.037 577.625 196.859 572.692 196.521 570.526C196.019 570.028 194.517 569.131 192.518 569.536Z" fill="#5A9793"/>
<path d="M182.508 565.059L182.543 580.059L188.043 580.046L188.008 565.046C185.6 561.452 183.338 563.557 182.508 565.059Z" fill="#5A9793"/>
<path d="M173.022 571.081C172.227 573.083 173.703 577.246 174.541 579.078L178.041 579.07C179.229 573.867 178.523 571.568 178.022 571.07C175.615 568.275 173.686 569.913 173.022 571.081Z" fill="#5A9793"/>
<path d="M201.513 567.015C199.114 567.82 197.535 576.691 197.045 581.025L202.048 582.014C203.374 579.011 205.925 572.305 205.518 569.505C205.112 566.706 202.678 566.679 201.513 567.015Z" fill="#5A9793"/>
<path d="M177.031 577.997C175.431 578.001 174.376 582.67 174.048 585.004L178.551 586.494C181.046 584.488 181.037 580.488 181.035 579.488C181.032 578.488 179.031 577.992 177.031 577.997Z" fill="#5A9793"/>
<path d="M160.518 572.536C158.519 572.94 158.368 579.708 158.543 583.04L163.043 583.03C165.037 580.625 164.859 575.692 164.521 573.526C164.019 573.028 162.517 572.131 160.518 572.536Z" fill="#5A9793"/>
<path d="M150.508 568.059L150.543 583.059L156.043 583.046L156.008 568.046C153.6 564.452 151.338 566.557 150.508 568.059Z" fill="#5A9793"/>
<path d="M141.022 574.081C140.227 576.083 141.703 580.246 142.541 582.078L146.041 582.07C147.229 576.867 146.523 574.568 146.022 574.07C143.615 571.275 141.686 572.913 141.022 574.081Z" fill="#5A9793"/>
<path d="M169.513 570.015C167.114 570.82 165.535 579.691 165.045 584.025L170.048 585.014C171.374 582.011 173.925 575.305 173.518 572.505C173.112 569.706 170.678 569.679 169.513 570.015Z" fill="#5A9793"/>
<path d="M137.031 584.997C135.431 585.001 134.376 589.67 134.048 592.004L138.551 593.494C141.046 591.488 141.037 587.488 141.035 586.488C141.032 585.488 139.031 584.992 137.031 584.997Z" fill="#5A9793"/>
<path d="M120.518 579.536C118.519 579.94 118.368 586.708 118.543 590.04L123.043 590.03C125.037 587.625 124.859 582.692 124.521 580.526C124.019 580.028 122.517 579.131 120.518 579.536Z" fill="#5A9793"/>
<path d="M110.508 575.059L110.543 590.059L116.043 590.046L116.008 575.046C113.6 571.452 111.338 573.557 110.508 575.059Z" fill="#5A9793"/>
<path d="M101.022 581.081C100.227 583.083 101.703 587.246 102.541 589.078L106.041 589.07C107.229 583.867 106.523 581.568 106.022 581.07C103.615 578.275 101.686 579.913 101.022 581.081Z" fill="#5A9793"/>
<path d="M129.513 577.015C127.114 577.82 125.535 586.691 125.045 591.025L130.048 592.014C131.374 589.011 133.925 582.305 133.518 579.505C133.112 576.706 130.678 576.679 129.513 577.015Z" fill="#5A9793"/>
<path d="M473.985 582.636C472.424 582.286 470.361 586.605 469.524 588.809L473.586 591.259C476.463 589.855 477.34 585.952 477.559 584.977C477.778 584.001 475.937 583.075 473.985 582.636Z" fill="#5A9793"/>
<path d="M459.091 573.654C457.052 573.606 455.407 580.172 454.839 583.461L459.23 584.447C461.707 582.543 462.625 577.694 462.775 575.506C462.397 574.909 461.131 573.702 459.091 573.654Z" fill="#5A9793"/>
<path d="M450.321 567.072L447.034 581.707L452.4 582.913L455.687 568.277C454.134 564.239 451.463 565.791 450.321 567.072Z" fill="#5A9793"/>
<path d="M439.737 570.844C438.518 572.62 439.036 577.007 439.447 578.979L442.862 579.746C445.173 574.935 444.994 572.537 444.615 571.94C442.887 568.682 440.643 569.852 439.737 570.844Z" fill="#5A9793"/>
<path d="M468.421 573.187C465.904 573.442 462.399 581.742 460.962 585.861L465.621 587.932C467.58 585.297 471.552 579.323 471.776 576.503C471.999 573.683 469.632 573.118 468.421 573.187Z" fill="#5A9793"/>
<path d="M102.93 584.636C101.419 585.163 101.948 589.921 102.401 592.234L107.144 592.169C108.847 589.458 107.53 585.68 107.201 584.736C106.872 583.792 104.819 583.978 102.93 584.636Z" fill="#5A9793"/>
<path d="M85.5393 584.874C83.7824 585.91 85.8523 592.354 87.1068 595.447L91.356 593.966C92.4546 591.041 90.6734 586.438 89.6455 584.502C89.0088 584.194 87.2962 583.838 85.5393 584.874Z" fill="#5A9793"/>
<path d="M74.6152 583.916L79.5525 598.08L84.746 596.27L79.8087 582.106C76.3575 579.496 74.9084 582.225 74.6152 583.916Z" fill="#5A9793"/>
<path d="M67.6193 592.709C67.5222 594.861 70.2786 598.312 71.6689 599.769L74.9739 598.617C74.3955 593.312 72.9774 591.371 72.3407 591.063C69.1528 589.209 67.8648 591.388 67.6193 592.709Z" fill="#5A9793"/>
<path d="M93.215 579.551C91.2121 581.096 92.6197 589.995 93.5739 594.252L98.6244 593.55C98.896 590.279 99.1143 583.107 97.815 580.595C96.5157 578.083 94.207 578.852 93.215 579.551Z" fill="#5A9793"/>
<path d="M76.93 591.636C75.4192 592.163 75.948 596.92 76.4012 599.233L81.1442 599.169C82.8466 596.457 81.53 592.68 81.2008 591.736C80.8717 590.792 78.8186 590.978 76.93 591.636Z" fill="#5A9793"/>
<path d="M59.5393 591.874C57.7824 592.91 59.8523 599.354 61.1068 602.447L65.356 600.966C66.4546 598.041 64.6734 593.438 63.6455 591.501C63.0088 591.194 61.2962 590.838 59.5393 591.874Z" fill="#5A9793"/>
<path d="M48.6152 590.916L53.5525 605.08L58.746 603.27L53.8087 589.105C50.3575 586.496 48.9084 589.225 48.6152 590.916Z" fill="#5A9793"/>
<path d="M41.6193 599.708C41.5222 601.86 44.2786 605.312 45.6689 606.769L48.9739 605.617C48.3955 600.312 46.9774 598.37 46.3407 598.063C43.1528 596.209 41.8648 598.387 41.6193 599.708Z" fill="#5A9793"/>
<path d="M67.215 586.551C65.2121 588.096 66.6197 596.995 67.5739 601.252L72.6244 600.55C72.896 597.278 73.1143 590.107 71.815 587.595C70.5157 585.082 68.207 585.852 67.215 586.551Z" fill="#5A9793"/>
<path d="M35.0373 602.953C33.762 603.919 35.7296 608.283 36.8728 610.344L41.3656 608.823C42.1507 605.719 39.7354 602.531 39.1315 601.734C38.5277 600.936 36.6316 601.746 35.0373 602.953Z" fill="#5A9793"/>
<path d="M18.564 608.532C17.2113 610.058 21.1643 615.553 23.3099 618.109L26.897 615.392C27.042 612.271 23.9302 608.44 22.3562 606.914C21.6558 606.817 19.9167 607.005 18.564 608.532Z" fill="#5A9793"/>
<path d="M7.87555 610.983L16.933 622.94L21.3171 619.619L12.2597 607.662C8.17282 606.242 7.63407 609.285 7.87555 610.983Z" fill="#5A9793"/>
<path d="M3.92596 621.502C4.49593 623.58 8.18099 626.015 9.95227 626.974L12.7422 624.86C10.5588 619.991 8.61202 618.58 7.91155 618.483C4.30776 617.701 3.75291 620.17 3.92596 621.502Z" fill="#5A9793"/>
<path d="M24.2285 601.105C22.7985 603.192 26.8771 611.226 29.0951 614.982L33.6845 612.76C32.9358 609.563 30.9361 602.673 28.9265 600.682C26.917 598.692 24.9572 600.135 24.2285 601.105Z" fill="#5A9793"/>
<path d="M423.958 577.661C422.388 577.356 420.453 581.735 419.682 583.962L423.814 586.291C426.649 584.803 427.41 580.876 427.6 579.894C427.79 578.912 425.922 578.041 423.958 577.661Z" fill="#5A9793"/>
<path d="M408.806 569.123C406.766 569.135 405.316 575.746 404.845 579.05L409.263 579.906C411.683 577.931 412.458 573.056 412.543 570.865C412.147 570.279 410.846 569.11 408.806 569.123Z" fill="#5A9793"/>
<path d="M399.845 562.803L396.991 577.529L402.391 578.575L405.244 563.849C403.573 559.858 400.948 561.488 399.845 562.803Z" fill="#5A9793"/>
<path d="M389.376 566.886C388.21 568.697 388.858 573.067 389.327 575.025L392.763 575.691C394.93 570.814 394.681 568.423 394.285 567.837C392.461 564.632 390.253 565.867 389.376 566.886Z" fill="#5A9793"/>
<path d="M418.117 568.38C415.609 568.709 412.351 577.109 411.036 581.269L415.755 583.201C417.634 580.51 421.429 574.42 421.568 571.595C421.708 568.77 419.326 568.275 418.117 568.38Z" fill="#5A9793"/>
<path d="M441.958 579.661C440.388 579.356 438.453 583.735 437.682 585.962L441.814 588.291C444.649 586.803 445.41 582.876 445.6 581.894C445.79 580.912 443.922 580.041 441.958 579.661Z" fill="#5A9793"/>
<path d="M426.806 571.123C424.766 571.135 423.316 577.746 422.845 581.05L427.263 581.906C429.683 579.931 430.458 575.056 430.543 572.865C430.147 572.279 428.846 571.11 426.806 571.123Z" fill="#5A9793"/>
<path d="M417.845 564.803L414.991 579.529L420.391 580.575L423.244 565.849C421.573 561.858 418.948 563.488 417.845 564.803Z" fill="#5A9793"/>
<path d="M407.376 568.886C406.21 570.697 406.858 575.067 407.327 577.025L410.763 577.691C412.93 572.814 412.681 570.423 412.285 569.837C410.461 566.632 408.253 567.867 407.376 568.886Z" fill="#5A9793"/>
<path d="M436.117 570.38C433.609 570.709 430.351 579.109 429.036 583.269L433.755 585.201C435.634 582.51 439.429 576.42 439.568 573.595C439.708 570.77 437.326 570.275 436.117 570.38Z" fill="#5A9793"/>
<path d="M395.958 576.661C394.388 576.356 392.453 580.735 391.682 582.962L395.814 585.291C398.649 583.803 399.41 579.876 399.6 578.894C399.79 577.912 397.922 577.041 395.958 576.661Z" fill="#5A9793"/>
<path d="M380.806 568.123C378.766 568.135 377.316 574.746 376.845 578.05L381.263 578.906C383.683 576.931 384.458 572.056 384.543 569.865C384.147 569.279 382.846 568.11 380.806 568.123Z" fill="#5A9793"/>
<path d="M371.845 561.803L368.991 576.529L374.391 577.575L377.244 562.849C375.573 558.858 372.948 560.488 371.845 561.803Z" fill="#5A9793"/>
<path d="M361.376 565.886C360.21 567.697 360.858 572.067 361.327 574.025L364.763 574.691C366.93 569.814 366.681 567.423 366.285 566.837C364.461 563.632 362.253 564.867 361.376 565.886Z" fill="#5A9793"/>
<path d="M390.117 567.38C387.609 567.709 384.351 576.109 383.036 580.269L387.755 582.201C389.634 579.51 393.429 573.42 393.568 570.595C393.708 567.77 391.326 567.275 390.117 567.38Z" fill="#5A9793"/>
<path d="M373.958 575.661C372.388 575.356 370.453 579.735 369.682 581.962L373.814 584.291C376.649 582.803 377.41 578.876 377.6 577.894C377.79 576.912 375.922 576.041 373.958 575.661Z" fill="#5A9793"/>
<path d="M358.806 567.123C356.766 567.135 355.316 573.746 354.845 577.05L359.263 577.906C361.683 575.931 362.458 571.056 362.543 568.865C362.147 568.279 360.846 567.11 358.806 567.123Z" fill="#5A9793"/>
<path d="M349.845 560.803L346.991 575.529L352.391 576.575L355.244 561.849C353.573 557.858 350.948 559.488 349.845 560.803Z" fill="#5A9793"/>
<path d="M339.376 564.886C338.21 566.697 338.858 571.067 339.327 573.025L342.763 573.691C344.93 568.814 344.681 566.423 344.285 565.837C342.461 562.632 340.253 563.867 339.376 564.886Z" fill="#5A9793"/>
<path d="M368.117 566.38C365.609 566.709 362.351 575.109 361.036 579.269L365.755 581.201C367.634 578.51 371.429 572.42 371.568 569.595C371.708 566.77 369.326 566.275 368.117 566.38Z" fill="#5A9793"/>
<path d="M344.958 572.661C343.388 572.356 341.453 576.735 340.682 578.962L344.814 581.291C347.649 579.803 348.41 575.876 348.6 574.894C348.79 573.912 346.922 573.041 344.958 572.661Z" fill="#5A9793"/>
<path d="M329.806 564.123C327.766 564.135 326.316 570.746 325.845 574.05L330.263 574.906C332.683 572.931 333.458 568.056 333.543 565.865C333.147 565.279 331.846 564.11 329.806 564.123Z" fill="#5A9793"/>
<path d="M320.845 557.803L317.991 572.529L323.391 573.575L326.244 558.849C324.573 554.858 321.948 556.488 320.845 557.803Z" fill="#5A9793"/>
<path d="M310.376 561.886C309.21 563.697 309.858 568.067 310.327 570.025L313.763 570.691C315.93 565.814 315.681 563.423 315.285 562.837C313.461 559.632 311.253 560.867 310.376 561.886Z" fill="#5A9793"/>
<path d="M339.117 563.38C336.609 563.709 333.351 572.109 332.036 576.269L336.755 578.201C338.634 575.51 342.429 569.42 342.568 566.595C342.708 563.77 340.326 563.275 339.117 563.38Z" fill="#5A9793"/>
<path d="M315.958 572.661C314.388 572.356 312.453 576.735 311.682 578.962L315.814 581.291C318.649 579.803 319.41 575.876 319.6 574.894C319.79 573.912 317.922 573.041 315.958 572.661Z" fill="#5A9793"/>
<path d="M300.806 564.123C298.766 564.135 297.316 570.746 296.845 574.05L301.263 574.906C303.683 572.931 304.458 568.056 304.543 565.865C304.147 565.279 302.846 564.11 300.806 564.123Z" fill="#5A9793"/>
<path d="M291.845 557.803L288.991 572.529L294.391 573.575L297.244 558.849C295.573 554.858 292.948 556.488 291.845 557.803Z" fill="#5A9793"/>
<path d="M281.376 561.886C280.21 563.697 280.858 568.067 281.327 570.025L284.763 570.691C286.93 565.814 286.681 563.423 286.285 562.837C284.461 559.632 282.253 560.867 281.376 561.886Z" fill="#5A9793"/>
<path d="M310.117 563.38C307.609 563.709 304.351 572.109 303.036 576.269L307.755 578.201C309.634 575.51 313.429 569.42 313.568 566.595C313.708 563.77 311.326 563.275 310.117 563.38Z" fill="#5A9793"/>
<path d="M198.772 691C197.172 691 196.105 695.667 195.772 698L200.272 699.5C202.772 697.5 202.772 693.5 202.772 692.5C202.772 691.5 200.772 691 198.772 691Z" fill="#457875"/>
<path d="M188.821 695.1C186.821 695.5 186.654 702.266 186.821 705.6L191.321 705.6C193.321 703.2 193.154 698.266 192.821 696.1C192.321 695.6 190.821 694.7 188.821 695.1Z" fill="#457875"/>
<path d="M170.003 691.988C169.203 693.988 170.67 698.154 171.503 699.988L175.003 699.988C176.203 694.788 175.503 692.488 175.003 691.988C172.603 689.188 170.67 690.821 170.003 691.988Z" fill="#457875"/>
<path d="M183.272 680.144C180.872 680.944 179.272 689.81 178.772 694.144L183.772 695.144C185.105 692.144 187.672 685.444 187.272 682.644C186.872 679.844 184.439 679.81 183.272 680.144Z" fill="#457875"/>
<path d="M197.272 675.144C194.872 675.944 193.272 684.81 192.772 689.144L197.772 690.144C199.105 687.144 201.672 680.444 201.272 677.644C200.872 674.844 198.438 674.81 197.272 675.144Z" fill="#457875"/>
<rect x="0.772461" y="0.577637" width="1514" height="523.08" fill="#79E0E7"/>
<path d="M1248.88 551.688V1.88574H1515.55V721.222H1424.62L1248.88 551.688Z" fill="#6DCDD3"/>
<path d="M1189.24 187.86C1191.73 191.664 1213.69 189.445 1224.36 187.86C1229.92 180.69 1224.85 179.385 1221.62 179.629C1219.42 165.582 1210.34 169.387 1206.07 173.045C1195.54 168.948 1194.37 174.752 1195.1 178.166C1187.63 180.214 1188.09 185.482 1189.24 187.86Z" fill="white" fill-opacity="0.5"/>
<path d="M844.984 351.204C847.471 355.008 869.431 352.789 880.1 351.204C885.661 344.034 880.588 342.73 877.357 342.974C875.162 328.927 866.078 332.731 861.811 336.389C851.275 332.292 850.105 338.096 850.836 341.51C843.374 343.559 843.825 348.826 844.984 351.204Z" fill="white" fill-opacity="0.5"/>
<path d="M1046.43 292.924C1050.21 298.699 1083.54 295.33 1099.73 292.924C1108.17 282.042 1100.47 280.062 1095.57 280.432C1092.24 259.112 1078.45 264.886 1071.97 270.438C1055.98 264.22 1054.21 273.029 1055.32 278.211C1043.99 281.32 1044.67 289.315 1046.43 292.924Z" fill="white" fill-opacity="0.5"/>
<path d="M1193.43 46.7174C1195.92 50.5217 1217.88 48.3026 1228.55 46.7174C1234.11 39.5476 1229.04 38.243 1225.8 38.487C1223.61 24.4403 1214.53 28.2446 1210.26 31.9026C1199.72 27.8057 1198.55 33.6096 1199.28 37.0237C1191.82 39.0722 1192.27 44.3397 1193.43 46.7174Z" fill="white" fill-opacity="0.5"/>
<path d="M364.378 314.317C366.865 318.121 388.825 315.902 399.495 314.317C405.055 307.147 399.982 305.842 396.751 306.086C394.556 292.04 385.472 295.844 381.205 299.502C370.669 295.405 369.499 301.209 370.23 304.623C362.768 306.672 363.219 311.939 364.378 314.317Z" fill="white" fill-opacity="0.5"/>
<path d="M623.182 349.488C627.701 356.4 667.597 352.368 686.979 349.488C697.08 336.463 687.865 334.093 681.995 334.536C678.008 309.017 661.505 315.929 653.752 322.574C634.613 315.131 632.486 325.676 633.815 331.878C620.258 335.599 621.078 345.169 623.182 349.488Z" fill="white" fill-opacity="0.5"/>
<path d="M1040.94 107.597C1044.09 112.42 1071.93 109.606 1085.46 107.597C1092.51 98.5082 1086.08 96.8545 1081.98 97.1637C1079.2 79.3574 1067.68 84.1799 1062.27 88.817C1048.92 83.6236 1047.43 90.981 1048.36 95.3088C1038.9 97.9056 1039.47 104.583 1040.94 107.597Z" fill="white" fill-opacity="0.5"/>
<path d="M243.609 53.0259C248.346 60.2702 290.163 56.0443 310.48 53.0259C321.068 39.3728 311.409 36.8886 305.256 37.3532C301.077 10.6048 283.778 17.8491 275.652 24.8149C255.59 17.0133 253.361 28.0655 254.754 34.5668C240.544 38.4676 241.403 48.4982 243.609 53.0259Z" fill="white" fill-opacity="0.5"/>
<path d="M825.265 46.7174C827.753 50.5217 849.713 48.3026 860.382 46.7174C865.942 39.5476 860.87 38.243 857.639 38.487C855.444 24.4403 846.36 28.2446 842.092 31.9026C831.557 27.8057 830.387 33.6096 831.118 37.0237C823.656 39.0722 824.107 44.3397 825.265 46.7174Z" fill="white" fill-opacity="0.5"/>
<path d="M875.366 193.611C877.197 196.496 893.362 194.813 901.216 193.611C905.309 188.175 901.575 187.185 899.197 187.37C897.581 176.719 890.894 179.604 887.753 182.378C879.997 179.271 879.136 183.672 879.674 186.261C874.181 187.814 874.513 191.808 875.366 193.611Z" fill="white" fill-opacity="0.5"/>
<path d="M1219.26 398.803C1221.09 401.688 1237.25 400.005 1245.11 398.803C1249.2 393.367 1245.47 392.378 1243.09 392.563C1241.47 381.911 1234.79 384.796 1231.64 387.57C1223.89 384.463 1223.03 388.864 1223.57 391.453C1218.07 393.006 1218.4 397 1219.26 398.803Z" fill="white" fill-opacity="0.5"/>
<path d="M386.878 113.258C389.365 117.062 411.325 114.843 421.995 113.258C427.555 106.088 422.482 104.784 419.251 105.028C417.056 90.9808 407.972 94.7851 403.705 98.4431C393.169 94.3462 391.999 100.15 392.73 103.564C385.268 105.613 385.719 110.88 386.878 113.258Z" fill="white" fill-opacity="0.5"/>
<path d="M619.337 82.4203C621.824 86.2246 643.784 84.0054 654.454 82.4203C660.014 75.2505 654.941 73.9459 651.71 74.1899C649.515 60.1431 640.431 63.9475 636.164 67.6055C625.628 63.5085 624.458 69.3125 625.189 72.7266C617.727 74.7751 618.178 80.0426 619.337 82.4203Z" fill="white" fill-opacity="0.5"/>
<path d="M453.005 207.114C456.736 212.82 489.676 209.492 505.68 207.114C514.02 196.359 506.412 194.402 501.565 194.768C498.273 173.698 484.647 179.405 478.245 184.892C462.443 178.746 460.687 187.452 461.784 192.573C450.591 195.646 451.267 203.547 453.005 207.114Z" fill="white" fill-opacity="0.5"/>
<path d="M17.7608 112.306C21.492 118.012 54.4324 114.684 70.4362 112.306C78.7763 101.551 71.1678 99.5944 66.321 99.9604C63.0288 78.8902 49.4027 84.5967 43.0012 90.0837C27.1986 83.9384 25.4427 92.6443 26.5401 97.7655C15.3465 100.838 16.0233 108.739 17.7608 112.306Z" fill="white" fill-opacity="0.5"/>
<path d="M-42.2275 169.5L60.2725 138.5L276.452 540.362L-45.7632 558.229L-42.2275 169.5Z" fill="black" fill-opacity="0.1"/>
<path d="M-42.6968 228.655L46.2 203.376L233.69 531.077L-45.7632 545.647L-42.6968 228.655Z" fill="url(#paint0_linear)" fill-opacity="0.1"/>
<path d="M42.8374 155.086L60.5596 138.129H295.411V525.789L286.599 533.023L277.786 540.258H42.8374V155.086Z" fill="#E0874E"/>
<rect x="42.7466" y="154.999" width="234.993" height="385.293" fill="#FEA966"/>
<rect x="60.9839" y="174.016" width="200.456" height="100" fill="#CD6353"/>
<rect x="60.9839" y="296.113" width="200.456" height="100" fill="#CD6353"/>
<rect x="60.9839" y="418.202" width="200.456" height="100" fill="#CD6353"/>
<path d="M80.0709 255.479L60.5654 274.164V174.022H80.0709V255.479Z" fill="#B35242"/>
<path d="M261.064 255.539H80.4806L60.9731 273.932H261.064V255.539Z" fill="#E0874F"/>
<path d="M80.0709 379.032L60.5654 397.717V297.574H80.0709V379.032Z" fill="#B35242"/>
<path d="M261.064 379.091H80.4806L60.9731 397.484H261.064V379.091Z" fill="#E0874F"/>
<path d="M80.4894 499.518L60.9839 518.202V418.06H80.4894V499.518Z" fill="#B35242"/>
<path d="M261.483 499.577H80.8991L61.3916 517.97H261.483V499.577Z" fill="#E0874F"/>
<line x1="295.761" y1="138.491" x2="278.085" y2="155.374" stroke="black" stroke-opacity="0.07"/>
<path d="M1302.27 627.5H946.272V590.5L1261.77 577.5L1302.27 627.5Z" fill="black" fill-opacity="0.19"/>
<path d="M1309.46 627.812H1296.76L1222.26 332H1233.26L1307.97 406.985C1313.39 414.808 1313.63 417.195 1313.06 419.368L1309.46 627.812Z" fill="#E5642A"/>
<path d="M1300.02 419.368L1296.64 627.812L1222.26 548.7V332L1285.65 398.73C1294.95 410.425 1300.59 413.663 1300.02 419.368Z" fill="#BE5221"/>
<path d="M906.633 432.052L953.609 600.295L1288.32 589.202L1222.99 432.052H906.633Z" fill="#5AA0A2"/>
<path d="M935.389 479.323C981.336 441.227 1109.51 452.968 1167.85 463.6L1200.29 503.782C1090.37 544.042 978.682 528.055 936.578 515.028L935.389 479.323Z" fill="#50ADB5"/>
<path d="M963.126 499.769C970.501 476.277 1013.54 436.948 1126.67 467.562C1132.88 490.623 1108.85 529.349 963.126 499.769Z" fill="#80C4C9"/>
<path d="M952.401 565.334C954.162 560.931 957.049 563.499 958.273 565.334L961.943 570.837L967.081 570.149C972.953 569.049 971.485 573.13 970.017 574.965L966.347 578.405L970.017 586.66C971.778 591.613 966.836 591.017 964.145 590.099L958.273 587.348L952.401 591.475C947.116 594.777 946.773 591.017 947.263 588.724V581.844L942.859 578.405C938.748 575.653 942.125 573.589 944.327 572.901L950.199 570.837L952.401 565.334Z" fill="#D2BD41"/>
<path d="M1139.78 510.543C1141.54 506.14 1144.43 508.708 1145.65 510.543L1149.32 516.046L1154.46 515.358C1160.33 514.257 1158.87 518.339 1157.4 520.174L1153.73 523.613L1157.4 531.869C1159.16 536.822 1154.22 536.225 1151.53 535.308L1145.65 532.556L1139.78 536.684C1134.5 539.986 1134.15 536.225 1134.64 533.932V527.053L1130.24 523.613C1126.13 520.862 1129.51 518.798 1131.71 518.11L1137.58 516.046L1139.78 510.543Z" fill="#D2BD41"/>
<path d="M991.512 455.508C993.274 451.105 996.161 453.673 997.384 455.508L1001.05 461.011L1006.19 460.323C1012.06 459.222 1010.6 463.304 1009.13 465.139L1005.46 468.578L1009.13 476.834C1010.89 481.787 1005.95 481.191 1003.26 480.273L997.384 477.522L991.512 481.649C986.227 484.951 985.885 481.191 986.374 478.897V472.018L981.97 468.578C977.86 465.827 981.236 463.763 983.438 463.075L989.31 461.011L991.512 455.508Z" fill="#D2BD41"/>
<path d="M917.377 432.806L922.693 431.445C926.886 431.996 944.289 431.996 944.289 431.996L939.397 438.309L943.068 446.564C944.829 451.518 939.887 450.921 937.195 450.004L931.323 447.252L925.451 451.38C920.167 454.682 919.824 450.921 920.313 448.628V441.749L915.909 438.309C911.799 435.558 915.175 433.494 917.377 432.806Z" fill="#D2BD41"/>
<path d="M1071.52 436.245L1066.07 431.967H1066.08C1070.71 431.967 1090.6 431.967 1090.6 432.806L1094.27 441.061C1096.03 446.014 1091.09 445.418 1088.4 444.501L1082.53 441.749L1076.66 445.876C1071.37 449.179 1071.03 445.418 1071.52 443.125V436.245Z" fill="#D2BD41"/>
<path d="M1006.5 529.649C1008.26 525.246 1011.15 527.814 1012.38 529.649L1016.05 535.152L1021.18 534.464C1027.06 533.364 1025.59 537.445 1024.12 539.28L1020.45 542.719L1024.12 550.975C1025.88 555.928 1020.94 555.332 1018.25 554.414L1012.38 551.663L1006.5 555.79C1001.22 559.092 1000.88 555.332 1001.37 553.039V546.159L996.961 542.719C992.851 539.968 996.227 537.904 998.429 537.216L1004.3 535.152L1006.5 529.649Z" fill="#D2BD41"/>
<path d="M1132.44 455.508C1134.2 451.105 1137.09 453.673 1138.31 455.508L1141.98 461.011L1147.12 460.323C1152.99 459.222 1151.53 463.304 1150.06 465.139L1146.39 468.578L1150.06 476.834C1151.82 481.787 1146.88 481.191 1144.19 480.273L1138.31 477.522L1132.44 481.649C1127.16 484.951 1126.81 481.191 1127.3 478.897V472.018L1122.9 468.578C1118.79 465.827 1122.17 463.763 1124.37 463.075L1130.24 461.011L1132.44 455.508Z" fill="#D2BD41"/>
<path d="M1151.1 578.441C1152.84 574.02 1155.68 576.599 1156.89 578.441L1160.51 583.968L1165.58 583.277C1171.37 582.172 1169.93 586.271 1168.48 588.114L1164.86 591.568C1164.84 592.408 1164.78 592.837 1164.71 593.012C1164.76 593.157 1164.8 593.319 1164.86 593.5C1158.51 594 1152.77 593.5 1144.77 594L1141.68 591.568C1137.63 588.804 1140.96 586.732 1143.13 586.041L1148.92 583.968L1151.1 578.441Z" fill="#D2BD41"/>
<path d="M1069.32 531.181C1071.08 526.778 1073.97 529.346 1075.19 531.181L1078.86 536.684L1084 535.996C1089.87 534.895 1088.4 538.977 1086.93 540.812L1083.26 544.251L1086.93 552.506C1088.69 557.46 1083.75 556.863 1081.06 555.946L1075.19 553.194L1069.32 557.322C1064.03 560.624 1063.69 556.863 1064.18 554.57V547.691L1059.77 544.251C1055.66 541.499 1059.04 539.436 1061.24 538.748L1067.11 536.684L1069.32 531.181Z" fill="#D2BD41"/>
<path d="M1061.98 476.146C1063.74 471.743 1066.63 474.311 1067.85 476.146L1071.52 481.649L1076.66 480.961C1082.53 479.861 1081.06 483.942 1079.59 485.777L1075.92 489.217L1079.59 497.472C1081.35 502.425 1076.41 501.829 1073.72 500.911L1067.85 498.16L1061.98 502.287C1056.69 505.589 1056.35 501.829 1056.84 499.536V492.656L1052.43 489.217C1048.32 486.465 1051.7 484.401 1053.9 483.713L1059.77 481.649L1061.98 476.146Z" fill="#D2BD41"/>
<path d="M1054.64 586.215C1056.4 581.812 1059.29 584.381 1060.51 586.215L1064.18 591.719L1069.32 591.031C1075.19 589.93 1073.72 594.012 1072.25 595.846L1071.77 596.5C1063.27 596.5 1066.27 596.5 1053.77 597H1049.27L1044.77 597.5C1043.27 596.5 1044.36 594.47 1046.56 593.782L1052.43 591.719L1054.64 586.215Z" fill="#D2BD41"/>
<path d="M950.408 491.28C952.17 486.878 955.057 489.446 956.28 491.28L959.95 496.784L965.088 496.096C970.96 494.995 969.492 499.077 968.024 500.911L964.354 504.351L968.024 512.606C969.786 517.559 964.843 516.963 962.152 516.046L956.28 513.294L950.408 517.422C945.123 520.724 944.781 516.963 945.27 514.67V507.791L940.866 504.351C936.755 501.599 940.132 499.536 942.334 498.848L948.206 496.784L950.408 491.28Z" fill="#D2BD41"/>
<path d="M1297.86 555.579L1211.98 559.019V591.351L1297.86 589.288V555.579Z" fill="#E5642A"/>
<path d="M952.875 628.5H941.865L888.772 379.5H900.272L950.673 484.722C954.772 491.5 955.077 496.5 955.077 498.48L952.875 628.5Z" fill="#E5642A"/>
<path d="M943.272 507L941.865 628.5L888.772 524.5V379.5L930.855 469.587C944.272 492.5 943.772 495.5 943.272 507Z" fill="#BE5221"/>
<path d="M1281.3 556.222L1182.95 560.395L1175.28 511.71L1256.19 497.104L1276.42 517.969C1287.02 528.541 1284.09 547.876 1281.3 556.222Z" fill="#CFEFFE"/>
<path d="M1283.18 548.011L1209.78 547.324L1206.84 530.125C1250.88 536.179 1275.1 529.437 1281.71 525.998C1284.65 530.813 1284.4 543.655 1283.18 548.011Z" fill="#DFFFFE"/>
<path d="M1163.54 502.608L1103.35 432.439H1080.59C1075.31 428.036 1082.79 423.266 1087.2 421.432H1130.5C1135.2 421.432 1143.23 428.77 1146.65 432.439L1201.7 502.608C1212.27 507.561 1212.96 528.52 1211.98 538.381V597.543C1207.87 604.147 1187.27 602.588 1177.48 600.983V538.381C1178.07 517.467 1168.43 505.818 1163.54 502.608Z" fill="#C7FFFE"/>
<path d="M1205.96 418.615C1214.92 409.536 1222.11 417.469 1224.59 422.57C1241.37 430.458 1263.66 456.915 1272.71 469.157C1291.4 478.314 1278.29 486.251 1269.4 489.075C1261.27 509.155 1229.54 511.49 1214.69 510.147C1207.62 517.522 1200.6 508.295 1197.97 502.76C1183.15 492.685 1173.5 477.964 1169.82 472.069C1164.28 461.37 1154.98 451.976 1147.91 447.853C1134.05 444.841 1144.7 439.142 1151.76 436.669C1173.19 416.552 1196.83 416.251 1205.96 418.615Z" fill="white"/>
<path d="M1261.36 485.428C1266.07 482.655 1264.49 485.267 1263.1 486.92C1246.75 505.305 1228.98 504.195 1222.14 501.342C1218.39 498.322 1221.05 497.267 1222.84 497.117C1240.3 497.687 1255.79 489.562 1261.36 485.428Z" fill="#D7F1FE"/>
<path d="M1213.76 419.751C1212.28 419.041 1209.84 420.622 1208.81 421.502C1195.39 419.048 1183.64 426.277 1179.44 430.197C1169.6 438.159 1167.64 453.203 1168.48 460.127C1167.91 469.935 1183.48 481.893 1190.74 486.249C1203.82 495.576 1205.86 503.293 1206.21 505.198C1206.36 510.661 1204.34 508.429 1203.31 506.63C1199.56 497.18 1190.93 490.399 1187.09 488.189C1173.79 481.797 1167.41 469.243 1165.18 463.973C1163.43 455.309 1151.69 450.464 1146.61 447.662C1139.14 444.594 1139.32 443.508 1146.07 438.928L1162.46 428.338L1170.6 423.344L1179.09 420.256C1189.19 415.547 1206.71 418.105 1207.26 418.803C1207.7 419.362 1210.31 417.806 1211.56 416.958C1212.38 416.046 1214.82 414.96 1218.05 417.905C1221.29 420.85 1216.53 420.363 1213.76 419.751Z" fill="#EBFFFE"/>
<path d="M912.027 588.443C905.013 602.222 917.384 660.473 924.446 687.875L933.213 666.736C926.2 639.803 925.42 607.494 925.907 594.706C927.076 592.827 930.778 592.879 932.482 593.14C931.314 607.546 936.866 646.641 939.788 664.387L952.208 660.473C947.532 630.408 947.337 600.97 947.824 590.009L960.244 589.226V660.473L972.664 658.907L975.586 590.792C979.677 588.286 981.674 593.923 982.161 597.055C985.083 603.945 978.995 641.16 975.586 658.907H990.197L997.503 598.621C998.672 582.962 988.736 576.438 983.622 575.133C983.038 573.254 959.026 572.784 947.094 572.784C921.378 572.784 913.001 583.223 912.027 588.443Z" fill="#6CDC4F"/>
<path d="M905.452 746.595C899.607 730.936 936.135 719.192 965.358 719.192C1015.77 719.192 1026.73 723.89 1031.84 735.634C1044.26 742.68 1031.84 754.424 1026.73 759.122C1009.19 775.407 972.664 771.649 955.861 771.649C911.296 764.602 905.208 751.032 905.452 746.595Z" fill="black" fill-opacity="0.2"/>
<path d="M1009.92 738.766C1008.17 729.997 1012.11 714.756 1014.31 708.231L1031.11 701.185C1034.62 704.317 1036.95 717.626 1037.68 723.89C1038.27 733.285 1036.95 738.766 1036.22 740.332C1035.05 744.716 1030.87 746.856 1028.92 747.378C1025.41 748.631 1020.64 747.9 1018.69 747.378C1012.84 746.125 1010.41 741.114 1009.92 738.766Z" fill="#6DDE52"/>
<path d="M969.011 748.161C967.257 743.15 973.151 721.019 976.316 710.58H993.119C1000.72 736.887 999.695 750.771 998.233 754.424C995.896 759.435 990.441 761.732 988.005 762.254C982.161 762.88 976.803 760.427 974.855 759.122C970.764 757.243 969.254 751.032 969.011 748.161Z" fill="#6ADC51"/>
<path d="M931.021 734.851C929.268 728.588 933.7 711.885 936.135 704.317L954.399 709.797C959.075 727.335 957.322 736.939 955.86 739.549C954.692 742.054 952.451 743.724 951.477 744.246C947.386 746.125 941.493 745.029 939.057 744.246C933.213 741.741 931.265 736.939 931.021 734.851Z" fill="#6ADC51"/>
<path d="M924.446 693.356V676.131H1037.68V693.356C1035.93 698.993 1028.19 703.534 1024.53 705.1C1015.77 708.858 995.068 710.319 985.814 710.58C965.358 711.206 950.503 709.275 945.633 708.231C933.359 705.1 926.394 697.009 924.446 693.356Z" fill="#72E855"/>
<path d="M977.778 694.139C939.788 695.391 926.394 682.656 924.446 676.131C924.446 659.846 972.177 657.863 996.042 658.907C1022.34 658.907 1034.03 668.041 1036.95 672.217C1039.88 677.697 1034.27 683.7 1031.84 684.743C1029.65 687.353 1015.77 692.886 977.778 694.139Z" fill="#A6FE50"/>
<path d="M1083.12 775.645C1081.17 752.727 1088.27 700.12 1092.07 676.681L1110.38 682.758C1115.59 706.37 1115.81 757.415 1115.26 779.986C1103.02 786.126 1092.07 785.339 1083.12 775.645Z" fill="#4EB049"/>
<path d="M1141.11 731.782C1139.15 708.864 1146.26 656.256 1150.06 632.817L1168.37 638.894C1173.57 662.507 1173.79 713.551 1173.25 736.122C1161 742.262 1150.06 741.475 1141.11 731.782Z" fill="#4EB049"/>
<path d="M1255.11 745.782C1253.15 722.864 1260.26 670.256 1264.06 646.817L1282.37 652.894C1287.57 676.507 1287.79 727.551 1287.25 750.122C1275 756.262 1264.06 755.475 1255.11 745.782Z" fill="#4EB049"/>
<path d="M1200.11 781.782C1198.15 758.864 1205.26 706.256 1209.06 682.817L1227.37 688.894C1232.57 712.507 1232.79 763.551 1232.25 786.122C1220 792.262 1209.06 791.475 1200.11 781.782Z" fill="#4EB049"/>
<path d="M1040.77 661.721V642.036H1345.77L1344.99 657.784C1323.99 683.767 1236.84 690.854 1188.6 690.854C1102.03 690.854 1054 672.744 1040.77 661.721Z" fill="#76D34F"/>
<ellipse cx="1193.27" cy="641.249" rx="152.5" ry="35.4319" fill="#90FF49"/>
<path d="M1021.98 2.30985L1021.94 2.30137L1021.89 2.30137L1009.39 2.30137C1008.97 2.21249 1008.28 2.24828 1007.8 2.92992C1007.33 3.58474 1007.14 4.73209 1007.41 6.64027C1007.45 8.08122 1006.56 11.1025 1002.89 15.9049C998.623 21.4955 998.157 27.9733 1000.64 33.138C1003.13 38.3035 1008.54 42.0965 1015.89 42.3887L1015.9 42.3891H1015.91C1023.69 42.3891 1029.21 38.9484 1031.52 33.8372C1033.82 28.734 1032.85 22.1177 1027.98 15.9002C1027.74 15.5887 1027.49 15.2776 1027.24 14.9648C1025.32 12.5738 1023.32 10.0873 1023.32 6.59682V6.57432L1023.32 6.55191C1023.3 6.30653 1023.31 5.98781 1023.31 5.60493L1023.31 5.55868C1023.32 5.16995 1023.32 4.73025 1023.29 4.31487C1023.26 3.90595 1023.18 3.4707 1023 3.10788C1022.81 2.7243 1022.48 2.40354 1021.98 2.30985Z" fill="#F8ECB2" stroke="#DED4A2"/>
<path d="M1009.39 2.33149L1009.47 2.36268H1009.56H1021.29H1021.49L1021.63 2.23331C1022.37 1.56664 1022.65 0.875945 1022.63 0.23952C1022.6 -0.375247 1022.29 -0.849729 1022 -1.10892L1021.82 -1.26771L1021.58 -1.22651L1016.01 -0.25653L1016 -0.334515L1022.15 -1.48447L1022.21 -1.4956L1022.27 -1.52065C1022.52 -1.63488 1022.74 -1.76044 1022.88 -1.91327C1022.96 -1.99295 1023.04 -2.10963 1023.07 -2.26468C1023.11 -2.43583 1023.07 -2.59786 1022.99 -2.72589C1022.86 -2.9354 1022.63 -3.02282 1022.52 -3.05922C1022.39 -3.10579 1022.24 -3.13239 1022.12 -3.14624L1022.05 -3.15391L1021.98 -3.14322L1008.85 -1.05553L1008.64 -1.02154L1008.52 -0.842373C1007.96 -0.0270042 1007.92 0.715584 1008.21 1.3141C1008.49 1.86705 1009.01 2.19132 1009.39 2.33149ZM1008.4 -3.14162L1008.25 -3.11619L1008.15 -3.01882C1007.96 -2.84498 1007.79 -2.60325 1007.8 -2.29908C1007.81 -1.99922 1007.98 -1.78882 1008.13 -1.66597C1008.4 -1.42946 1008.8 -1.30236 1009.05 -1.2475L1009.15 -1.22514L1009.25 -1.24474C1010.54 -1.49217 1012.74 -1.84912 1015.07 -2.22495L1015.23 -2.25047C1017.6 -2.63451 1020.07 -3.03551 1021.76 -3.35334L1021.8 -3.36053L1021.83 -3.37352C1022.2 -3.50286 1022.5 -3.65701 1022.69 -3.86779C1022.79 -3.98238 1022.87 -4.13169 1022.89 -4.31292C1022.91 -4.4957 1022.86 -4.65393 1022.79 -4.77384C1022.66 -4.98924 1022.44 -5.12744 1022.3 -5.2081C1022.13 -5.29802 1021.95 -5.36547 1021.82 -5.40958L1021.74 -5.43431H1021.66C1021.6 -5.43431 1021.51 -5.42154 1021.44 -5.41225C1021.36 -5.4003 1021.24 -5.38303 1021.1 -5.36129C1020.92 -5.33291 1020.7 -5.29635 1020.44 -5.25291C1020.88 -5.32807 1021.24 -5.39375 1021.52 -5.45276C1021.77 -5.50509 1021.98 -5.55578 1022.13 -5.60819C1022.21 -5.6339 1022.29 -5.6666 1022.37 -5.71019C1022.39 -5.72476 1022.44 -5.75258 1022.49 -5.79704C1022.66 -5.89336 1022.83 -6.04768 1022.89 -6.2926C1022.97 -6.5883 1022.83 -6.82828 1022.73 -6.95571C1022.53 -7.20902 1022.21 -7.39798 1022.01 -7.4937L1021.93 -7.5303L1021.85 -7.53998C1021.79 -7.54741 1021.72 -7.54345 1021.69 -7.54132C1021.64 -7.53842 1021.59 -7.53345 1021.53 -7.52719C1021.41 -7.51461 1021.26 -7.49498 1021.08 -7.46986C1020.72 -7.41948 1020.23 -7.34498 1019.65 -7.25463C1018.5 -7.07384 1017.01 -6.82801 1015.53 -6.58086C1014.83 -6.46337 1014.13 -6.34569 1013.46 -6.23446C1012.73 -6.1114 1012.04 -5.99623 1011.45 -5.89795C1010.89 -5.80447 1010.41 -5.72664 1010.07 -5.67224C1009.9 -5.645 1009.76 -5.62391 1009.67 -5.60972C1009.62 -5.60259 1009.58 -5.59754 1009.56 -5.59438C1009.55 -5.59348 1009.54 -5.59285 1009.54 -5.59242C1008.53 -5.58546 1007.98 -5.02106 1007.83 -4.59052L1007.83 -4.57578L1007.82 -4.56075C1007.74 -4.26205 1007.91 -4.03944 1007.97 -3.96828C1008.06 -3.87396 1008.16 -3.79926 1008.24 -3.74597C1008.41 -3.63537 1008.61 -3.5417 1008.74 -3.4878L1008.87 -3.434L1009.01 -3.45652C1012.28 -3.98368 1014.83 -4.37634 1016.78 -4.67759C1017.73 -4.82336 1018.54 -4.94772 1019.22 -5.05556C1019.56 -5.1092 1019.87 -5.15886 1020.15 -5.20509C1020.1 -5.19609 1020.04 -5.18688 1019.99 -5.17744C1019.07 -5.02248 1017.83 -4.80807 1016.47 -4.57001C1013.74 -4.09384 1010.53 -3.5225 1008.4 -3.14162ZM1008.8 -7.5433H1008.68L1008.55 -7.45966C1008.31 -7.2987 1008.11 -7.11671 1008 -6.90018C1007.86 -6.65697 1007.85 -6.38826 1007.97 -6.14838C1008.07 -5.93993 1008.25 -5.80805 1008.38 -5.72934C1008.52 -5.64643 1008.68 -5.59109 1008.81 -5.55742L1008.91 -5.53125L1009.01 -5.54791L1021.43 -7.55144L1022 -7.64292L1021.83 -8.19213C1021.65 -8.78593 1021.32 -9.25018 1021.02 -9.56472C1020.88 -9.72258 1020.73 -9.84871 1020.61 -9.93918C1020.55 -9.98391 1020.48 -10.0245 1020.43 -10.0565C1020.42 -10.0608 1020.41 -10.0653 1020.4 -10.0698C1020.24 -10.2166 1020.03 -10.3077 1019.85 -10.3698C1019.61 -10.4545 1019.31 -10.5179 1018.99 -10.5669C1018.35 -10.6652 1017.54 -10.7148 1016.68 -10.7339C1014.97 -10.7721 1013.02 -10.6886 1011.75 -10.6001L1011.72 -10.5983L1011.7 -10.5939C1009.85 -10.2725 1009.16 -8.98417 1009.06 -8.26786L1008.98 -7.60182L1009.64 -7.70974L1014.66 -8.52649L1014.67 -8.45954C1013.65 -8.29862 1012.34 -8.09063 1011.2 -7.91292C1010.54 -7.80859 1009.94 -7.71476 1009.5 -7.64705C1009.28 -7.61317 1009.1 -7.58594 1008.97 -7.56723C1008.91 -7.55784 1008.86 -7.55078 1008.82 -7.54614L1008.8 -7.5433ZM1008.79 -7.54127C1008.78 -7.54072 1008.78 -7.54055 1008.78 -7.54059C1008.78 -7.54064 1008.78 -7.54091 1008.79 -7.54127Z" fill="#C0C0C0" stroke="#AFAFAF"/>
<path d="M1015.93 7.58038C1015.97 5.38153 1017.9 4.25448 1018.86 3.96582L1009.6 4.23732C1011.01 10.8536 1007.28 15.0291 1004.98 17.5304C995.459 27.8794 1005.57 40.1821 1013.12 40.1821C1003.84 35.5911 1004.51 28.2845 1006.84 26.1743C1014.66 18.4162 1016.16 10.6713 1015.93 7.76863C1015.92 8.62207 1015.9 9.77922 1015.93 7.58038Z" fill="white" fill-opacity="0.5"/>
<path d="M1024.58 20.5683C1020.22 14.0918 1020.74 9.19553 1021.12 6.04632C1021.43 7.64875 1020.56 10.2861 1024.03 14.9932C1029.1 20.6337 1032.22 27.9584 1026.59 34.5895L1023.58 35.1571C1028.91 26.3771 1025.79 23.1055 1024.58 20.5683Z" fill="white" fill-opacity="0.5"/>
<path d="M464.266 716.487L1011.79 5.56079H1019.41L1250.08 335.275V345.08L1308.73 403.933L1315.07 413.075H1301.82L1297.79 622.776H1328.32L1424.51 716.487H464.266Z" fill="url(#paint1_linear)" fill-opacity="0.2"/>
<path d="M-1.55176 145.125L1003.12 16.9289L1011.62 5.58207H1019.56L1027.08 16.9289L1251.44 41.2916V346.72L1310.17 404.901L1314.56 413.571L1309.34 610.547L1423.24 719.848H3.00568L-1.55176 145.125Z" fill="url(#paint2_linear)" fill-opacity="0.15"/>
<path d="M1515.06 199.677L1249.11 42.7598L1248.48 347.659L1309.03 408.805L1356.24 455.032V656.096L1422.54 719.627H1515.06V199.677Z" fill="url(#paint3_linear)" fill-opacity="0.2"/>
<path d="M1296.86 639.767C1296.86 640.337 1296.55 641.006 1295.71 641.737C1294.87 642.466 1293.6 643.168 1291.95 643.778C1288.65 644.994 1284.02 645.767 1278.86 645.767C1273.7 645.767 1269.07 644.994 1265.77 643.778C1264.11 643.168 1262.85 642.466 1262.01 641.737C1261.17 641.006 1260.86 640.337 1260.86 639.767C1260.86 639.196 1261.17 638.527 1262.01 637.796C1262.85 637.067 1264.11 636.365 1265.77 635.755C1269.07 634.539 1273.7 633.767 1278.86 633.767C1284.02 633.767 1288.65 634.539 1291.95 635.755C1293.6 636.365 1294.87 637.067 1295.71 637.796C1296.55 638.527 1296.86 639.196 1296.86 639.767Z" stroke="white" stroke-width="2"/>
<path d="M1260.86 638.019V613.767H1296.86V637.838C1295.36 642.767 1287.36 644.767 1278.86 644.767C1264.97 644.332 1261 639.889 1260.86 638.019Z" fill="#A7FFE9" stroke="#A7FFE9"/>
<path d="M1297.36 613.378C1297.36 614.157 1296.94 614.96 1296.04 615.75C1295.14 616.54 1293.81 617.275 1292.12 617.901C1288.75 619.153 1284.06 619.938 1278.86 619.938C1273.66 619.938 1268.97 619.153 1265.6 617.901C1263.91 617.275 1262.58 616.54 1261.68 615.75C1260.78 614.96 1260.36 614.157 1260.36 613.378C1260.36 612.6 1260.78 611.797 1261.68 611.006C1262.58 610.216 1263.91 609.482 1265.6 608.855C1268.97 607.603 1273.66 606.819 1278.86 606.819C1284.06 606.819 1288.75 607.603 1292.12 608.855C1293.81 609.482 1295.14 610.216 1296.04 611.006C1296.94 611.797 1297.36 612.6 1297.36 613.378Z" fill="#ADFAE6" stroke="white"/>
<line x1="1260.36" y1="595.635" x2="1260.36" y2="639.517" stroke="white"/>
<line x1="1297.36" y1="595.767" x2="1297.36" y2="639.648" stroke="white"/>
<path d="M1297.36 595.826C1297.36 596.604 1296.94 597.407 1296.04 598.198C1295.14 598.988 1293.81 599.722 1292.12 600.349C1288.75 601.601 1284.06 602.385 1278.86 602.385C1273.66 602.385 1268.97 601.601 1265.6 600.349C1263.91 599.722 1262.58 598.988 1261.68 598.198C1260.78 597.407 1260.36 596.604 1260.36 595.826C1260.36 595.047 1260.78 594.244 1261.68 593.454C1262.58 592.664 1263.91 591.93 1265.6 591.303C1268.97 590.051 1273.66 589.267 1278.86 589.267C1284.06 589.267 1288.75 590.051 1292.12 591.303C1293.81 591.93 1295.14 592.664 1296.04 593.454C1296.94 594.244 1297.36 595.047 1297.36 595.826Z" stroke="white"/>
<path d="M1260.36 612.267C1260.53 614.552 1264.36 619.352 1278.36 620.267C1284.19 620.267 1296.16 618.667 1297.36 612.267" stroke="white"/>
<path d="M1260.36 595.767C1260.53 598.052 1264.86 601.852 1278.86 602.767C1284.69 602.767 1296.66 601.167 1297.86 594.767" stroke="white"/>
<path d="M1277.86 643.267C1278.38 641.442 1283.75 603.953 1283.32 599.429C1277.36 598.721 1273.45 594.138 1272.24 591.935C1276.41 589.937 1281.36 593.347 1283.32 595.302C1282.8 594.346 1283.1 590.705 1283.32 589.003C1281.41 588.395 1281 585.492 1281.04 584.116C1281.21 585.593 1284.22 588.497 1285.71 589.763C1286.31 590.372 1286.47 594.94 1286.47 597.148C1289.51 591.067 1294.39 590.126 1296.46 590.415V593.13C1294.98 599.733 1289.18 601.311 1286.47 601.275C1286.64 606.922 1278.76 640.95 1277.86 643.267Z" fill="#A0DB8F"/>
<path d="M1274.85 589.432C1276.8 590.082 1279.9 585.009 1281.21 582.392C1283.81 590.624 1286.08 589.252 1286.9 587.537C1287.11 583.312 1283.2 579.909 1281.21 578.736C1279.15 578.844 1276.74 581.67 1275.79 583.069C1273.41 585.885 1274.17 588.484 1274.85 589.432Z" fill="#FCD37B"/>
<path d="M1290.42 576.705C1286.84 575.08 1284.78 576.028 1284.19 576.705C1285.06 580.929 1290.69 582.256 1293.4 582.392C1294.91 581.092 1292.04 578.059 1290.42 576.705Z" fill="#FCD37B"/>
<path d="M1269.7 578.736C1268.62 579.494 1268.35 580.677 1268.35 581.173C1270.41 582.148 1272.73 581.579 1273.63 581.173C1276.77 580.198 1277.28 577.788 1277.15 576.705C1275.2 575.947 1271.37 577.743 1269.7 578.736Z" fill="#FCD37B"/>
<path d="M1271.33 569.123C1267.75 569.123 1266.86 570.297 1266.86 570.883C1271.73 574.241 1274.85 573.636 1275.79 572.914C1277.53 571.939 1273.54 569.981 1271.33 569.123Z" fill="#FCD37B"/>
<path d="M1273.63 563.03C1274.28 568.013 1277.42 569.89 1278.91 570.206C1281.4 565.148 1277.87 561.148 1275.79 559.781C1274.06 559.564 1273.63 561.857 1273.63 563.03Z" fill="#FCD37B"/>
<path d="M1284.19 563.03C1282.02 564.872 1282.11 569.033 1282.43 570.883C1283.4 570.883 1284.01 571.29 1284.19 571.494C1284.19 571.967 1284.34 573.082 1284.94 573.753C1285.54 574.425 1290.1 574.033 1292.3 573.753C1295.55 572.481 1295.27 570.137 1294.73 569.123C1294.2 567.715 1288.59 568.536 1285.86 569.123C1290.35 563.478 1289.32 560.543 1288.25 559.781C1287.38 559.781 1285.18 561.947 1284.19 563.03Z" fill="#FCD37B"/>
<ellipse cx="1280.63" cy="574.43" rx="2.5222" ry="2.6894" fill="#FF8F7C"/>
<path d="M934.226 214.846C932.818 214.366 931.538 213.886 930.386 213.406C929.234 212.894 928.242 212.286 927.41 211.582C926.578 210.878 925.922 210.046 925.442 209.086C924.994 208.094 924.77 206.894 924.77 205.486C924.77 202.766 925.81 200.59 927.89 198.958C930.002 197.326 932.946 196.51 936.722 196.51C938.098 196.51 939.378 196.606 940.562 196.798C941.746 196.99 942.754 197.294 943.586 197.71C944.45 198.094 945.122 198.606 945.602 199.246C946.082 199.854 946.322 200.574 946.322 201.406C946.322 202.238 946.13 202.958 945.746 203.566C945.362 204.142 944.898 204.638 944.354 205.054C943.65 204.606 942.706 204.222 941.522 203.902C940.338 203.55 939.042 203.374 937.634 203.374C936.194 203.374 935.138 203.582 934.466 203.998C933.794 204.382 933.458 204.878 933.458 205.486C933.458 205.966 933.666 206.366 934.082 206.686C934.498 206.974 935.122 207.246 935.954 207.502L938.498 208.318C941.506 209.278 943.81 210.51 945.41 212.014C947.042 213.486 947.858 215.502 947.858 218.062C947.858 220.782 946.786 222.99 944.642 224.686C942.498 226.35 939.346 227.182 935.186 227.182C933.714 227.182 932.338 227.054 931.058 226.798C929.81 226.574 928.706 226.238 927.746 225.79C926.818 225.31 926.082 224.734 925.538 224.062C925.026 223.358 924.77 222.558 924.77 221.662C924.77 220.734 925.042 219.95 925.586 219.31C926.13 218.638 926.722 218.126 927.362 217.774C928.258 218.478 929.346 219.086 930.626 219.598C931.938 220.11 933.362 220.366 934.898 220.366C936.466 220.366 937.57 220.126 938.21 219.646C938.85 219.166 939.17 218.606 939.17 217.966C939.17 217.326 938.914 216.846 938.402 216.526C937.89 216.174 937.17 215.838 936.242 215.518L934.226 214.846Z" fill="#3FDAE4"/>
<path d="M922.85 231.214H949.298V233.614H922.85V231.214Z" fill="#3FDAE4"/>
<path d="M934.226 214.846L934.065 215.32L934.068 215.321L934.226 214.846ZM930.386 213.406L930.183 213.863L930.194 213.868L930.386 213.406ZM925.442 209.086L924.986 209.292L924.99 209.301L924.995 209.31L925.442 209.086ZM927.89 198.958L927.584 198.563L927.581 198.565L927.89 198.958ZM940.562 196.798L940.642 196.305L940.562 196.798ZM943.586 197.71L943.362 198.158L943.373 198.163L943.383 198.167L943.586 197.71ZM945.602 199.246L945.202 199.546L945.21 199.556L945.602 199.246ZM945.746 203.566L946.162 203.844L946.169 203.833L945.746 203.566ZM944.354 205.054L944.086 205.476L944.38 205.664L944.658 205.451L944.354 205.054ZM941.522 203.902L941.38 204.382L941.392 204.385L941.522 203.902ZM934.466 203.998L934.714 204.432L934.722 204.428L934.729 204.423L934.466 203.998ZM934.082 206.686L933.777 207.083L933.787 207.09L933.797 207.097L934.082 206.686ZM935.954 207.502L936.107 207.026L936.101 207.024L935.954 207.502ZM938.498 208.318L938.345 208.794L938.346 208.795L938.498 208.318ZM945.41 212.014L945.068 212.379L945.075 212.386L945.41 212.014ZM944.642 224.686L944.949 225.081L944.952 225.078L944.642 224.686ZM931.058 226.798L931.156 226.308L931.146 226.306L931.058 226.798ZM927.746 225.79L927.516 226.234L927.525 226.239L927.535 226.243L927.746 225.79ZM925.538 224.062L925.134 224.356L925.141 224.367L925.149 224.377L925.538 224.062ZM925.586 219.31L925.967 219.634L925.975 219.625L925.586 219.31ZM927.362 217.774L927.671 217.381L927.411 217.177L927.121 217.336L927.362 217.774ZM930.626 219.598L930.44 220.063L930.444 220.064L930.626 219.598ZM938.21 219.646L938.51 220.046H938.51L938.21 219.646ZM938.402 216.526L938.119 216.938L938.128 216.945L938.137 216.95L938.402 216.526ZM936.242 215.518L936.405 215.046L936.4 215.044L936.242 215.518ZM934.387 214.373C932.988 213.896 931.719 213.42 930.578 212.945L930.194 213.868C931.358 214.353 932.648 214.837 934.065 215.32L934.387 214.373ZM930.589 212.949C929.474 212.454 928.524 211.87 927.733 211.201L927.087 211.964C927.96 212.703 928.994 213.335 930.183 213.863L930.589 212.949ZM927.733 211.201C926.952 210.54 926.339 209.761 925.889 208.863L924.995 209.31C925.506 210.331 926.204 211.217 927.087 211.964L927.733 211.201ZM925.898 208.881C925.486 207.969 925.27 206.843 925.27 205.486H924.27C924.27 206.945 924.502 208.219 924.986 209.292L925.898 208.881ZM925.27 205.486C925.27 202.915 926.244 200.886 928.199 199.352L927.581 198.565C925.377 200.295 924.27 202.618 924.27 205.486H925.27ZM928.196 199.354C930.19 197.813 933.012 197.01 936.722 197.01V196.01C932.88 196.01 929.814 196.84 927.584 198.563L928.196 199.354ZM936.722 197.01C938.075 197.01 939.328 197.105 940.482 197.292L940.642 196.305C939.428 196.108 938.121 196.01 936.722 196.01V197.01ZM940.482 197.292C941.63 197.478 942.587 197.77 943.362 198.158L943.81 197.263C942.922 196.819 941.862 196.503 940.642 196.305L940.482 197.292ZM943.383 198.167C944.183 198.523 944.782 198.986 945.202 199.546L946.002 198.946C945.462 198.227 944.717 197.666 943.789 197.253L943.383 198.167ZM945.21 199.556C945.615 200.069 945.822 200.678 945.822 201.406H946.822C946.822 200.471 946.55 199.639 945.995 198.936L945.21 199.556ZM945.822 201.406C945.822 202.159 945.649 202.783 945.323 203.299L946.169 203.833C946.611 203.133 946.822 202.318 946.822 201.406H945.822ZM945.33 203.289C944.976 203.82 944.55 204.275 944.05 204.657L944.658 205.451C945.246 205.002 945.748 204.465 946.162 203.844L945.33 203.289ZM944.623 204.632C943.861 204.148 942.865 203.747 941.653 203.42L941.392 204.385C942.548 204.697 943.439 205.065 944.086 205.476L944.623 204.632ZM941.665 203.423C940.428 203.056 939.084 202.874 937.634 202.874V203.874C939 203.874 940.248 204.045 941.38 204.382L941.665 203.423ZM937.634 202.874C936.167 202.874 934.996 203.082 934.203 203.573L934.729 204.423C935.281 204.082 936.222 203.874 937.634 203.874V202.874ZM934.218 203.564C933.44 204.009 932.958 204.649 932.958 205.486H933.958C933.958 205.108 934.149 204.756 934.714 204.432L934.218 203.564ZM932.958 205.486C932.958 206.137 933.251 206.678 933.777 207.083L934.387 206.29C934.081 206.054 933.958 205.795 933.958 205.486H932.958ZM933.797 207.097C934.275 207.428 934.956 207.718 935.807 207.98L936.101 207.024C935.288 206.774 934.721 206.52 934.367 206.275L933.797 207.097ZM935.801 207.978L938.345 208.794L938.651 207.842L936.107 207.026L935.801 207.978ZM938.346 208.795C941.312 209.741 943.54 210.943 945.068 212.379L945.753 211.65C944.08 210.078 941.7 208.815 938.65 207.842L938.346 208.795ZM945.075 212.386C946.584 213.747 947.358 215.618 947.358 218.062H948.358C948.358 215.386 947.5 213.226 945.745 211.643L945.075 212.386ZM947.358 218.062C947.358 220.629 946.357 222.692 944.332 224.294L944.952 225.078C947.215 223.288 948.358 220.936 948.358 218.062H947.358ZM944.336 224.291C942.315 225.859 939.291 226.682 935.186 226.682V227.682C939.401 227.682 942.681 226.841 944.949 225.081L944.336 224.291ZM935.186 226.682C933.743 226.682 932.4 226.557 931.156 226.308L930.96 227.289C932.276 227.552 933.685 227.682 935.186 227.682V226.682ZM931.146 226.306C929.933 226.088 928.872 225.764 927.958 225.337L927.535 226.243C928.541 226.713 929.687 227.06 930.97 227.29L931.146 226.306ZM927.976 225.346C927.097 224.891 926.419 224.356 925.927 223.748L925.149 224.377C925.745 225.113 926.54 225.729 927.516 226.234L927.976 225.346ZM925.942 223.768C925.495 223.152 925.27 222.456 925.27 221.662H924.27C924.27 222.661 924.558 223.564 925.134 224.356L925.942 223.768ZM925.27 221.662C925.27 220.84 925.508 220.174 925.967 219.634L925.205 218.986C924.576 219.727 924.27 220.629 924.27 221.662H925.27ZM925.975 219.625C926.485 218.994 927.029 218.528 927.603 218.212L927.121 217.336C926.415 217.725 925.775 218.282 925.197 218.996L925.975 219.625ZM927.053 218.167C927.994 218.906 929.125 219.536 930.44 220.063L930.812 219.134C929.567 218.636 928.523 218.05 927.671 217.381L927.053 218.167ZM930.444 220.064C931.819 220.601 933.306 220.866 934.898 220.866V219.866C933.419 219.866 932.057 219.62 930.808 219.133L930.444 220.064ZM934.898 220.866C936.487 220.866 937.733 220.629 938.51 220.046L937.91 219.246C937.407 219.623 936.446 219.866 934.898 219.866V220.866ZM938.51 220.046C939.241 219.498 939.67 218.803 939.67 217.966H938.67C938.67 218.41 938.459 218.835 937.91 219.246L938.51 220.046ZM939.67 217.966C939.67 217.166 939.336 216.52 938.667 216.102L938.137 216.95C938.493 217.173 938.67 217.486 938.67 217.966H939.67ZM938.685 216.114C938.121 215.726 937.354 215.373 936.405 215.046L936.079 215.991C936.986 216.304 937.659 216.622 938.119 216.938L938.685 216.114ZM936.4 215.044L934.384 214.372L934.068 215.321L936.084 215.993L936.4 215.044Z" fill="#6C3E21" fill-opacity="0.3"/>
<path d="M922.85 231.214V230.714H922.35V231.214H922.85ZM949.298 231.214H949.798V230.714H949.298V231.214ZM949.298 233.614V234.114H949.798V233.614H949.298ZM922.85 233.614H922.35V234.114H922.85V233.614ZM922.85 231.714H949.298V230.714H922.85V231.714ZM948.798 231.214V233.614H949.798V231.214H948.798ZM949.298 233.114H922.85V234.114H949.298V233.114ZM923.35 233.614V231.214H922.35V233.614H923.35Z" fill="#6C3E21" fill-opacity="0.3"/>
<path d="M960.946 191.046C960.722 190.694 960.514 190.214 960.322 189.606C960.13 188.998 960.034 188.358 960.034 187.686C960.034 186.438 960.306 185.542 960.85 184.998C961.426 184.454 962.162 184.182 963.058 184.182H983.986C984.21 184.534 984.418 185.014 984.61 185.622C984.802 186.23 984.898 186.87 984.898 187.542C984.898 188.79 984.61 189.686 984.034 190.23C983.49 190.774 982.77 191.046 981.874 191.046H976.546V213.222C976.194 213.318 975.634 213.414 974.866 213.51C974.13 213.606 973.394 213.654 972.658 213.654C971.922 213.654 971.266 213.59 970.69 213.462C970.146 213.366 969.682 213.174 969.298 212.886C968.914 212.598 968.626 212.198 968.434 211.686C968.242 211.174 968.146 210.502 968.146 209.67V191.046H960.946Z" fill="#95E335"/>
<path d="M959.17 218.214H985.858V220.614H959.17V218.214Z" fill="#95E335"/>
<path d="M960.946 191.046L960.525 191.315L960.672 191.546H960.946V191.046ZM960.322 189.606L959.846 189.757V189.757L960.322 189.606ZM960.85 184.998L960.507 184.635L960.502 184.64L960.497 184.645L960.85 184.998ZM983.986 184.182L984.408 183.914L984.261 183.682H983.986V184.182ZM984.61 185.622L985.087 185.472L984.61 185.622ZM984.034 190.23L983.691 189.867L983.686 189.872L983.681 189.877L984.034 190.23ZM976.546 191.046V190.546H976.046V191.046H976.546ZM976.546 213.222L976.678 213.705L977.046 213.604V213.222H976.546ZM974.866 213.51L974.804 213.014L974.802 213.015L974.866 213.51ZM970.69 213.462L970.799 212.974L970.788 212.972L970.777 212.97L970.69 213.462ZM969.298 212.886L969.598 212.486L969.298 212.886ZM968.434 211.686L967.966 211.862L968.434 211.686ZM968.146 191.046H968.646V190.546H968.146V191.046ZM961.368 190.778C961.176 190.477 960.984 190.042 960.799 189.456L959.846 189.757C960.045 190.387 960.268 190.912 960.525 191.315L961.368 190.778ZM960.799 189.456C960.623 188.899 960.534 188.31 960.534 187.686H959.534C959.534 188.407 959.637 189.098 959.846 189.757L960.799 189.456ZM960.534 187.686C960.534 186.492 960.798 185.758 961.204 185.352L960.497 184.645C959.815 185.327 959.534 186.385 959.534 187.686H960.534ZM961.194 185.362C961.664 184.917 962.272 184.682 963.058 184.682V183.682C962.053 183.682 961.188 183.991 960.507 184.635L961.194 185.362ZM963.058 184.682H983.986V183.682H963.058V184.682ZM983.565 184.451C983.756 184.752 983.949 185.187 984.134 185.773L985.087 185.472C984.888 184.842 984.664 184.317 984.408 183.914L983.565 184.451ZM984.134 185.773C984.309 186.33 984.398 186.919 984.398 187.542H985.398C985.398 186.822 985.295 186.131 985.087 185.472L984.134 185.773ZM984.398 187.542C984.398 188.73 984.122 189.46 983.691 189.867L984.378 190.594C985.099 189.913 985.398 188.851 985.398 187.542H984.398ZM983.681 189.877C983.246 190.312 982.661 190.546 981.874 190.546V191.546C982.879 191.546 983.735 191.237 984.388 190.584L983.681 189.877ZM981.874 190.546H976.546V191.546H981.874V190.546ZM976.046 191.046V213.222H977.046V191.046H976.046ZM976.415 212.74C976.099 212.826 975.569 212.919 974.804 213.014L974.928 214.006C975.7 213.91 976.29 213.811 976.678 213.705L976.415 212.74ZM974.802 213.015C974.087 213.108 973.373 213.154 972.658 213.154V214.154C973.416 214.154 974.174 214.105 974.931 214.006L974.802 213.015ZM972.658 213.154C971.95 213.154 971.332 213.093 970.799 212.974L970.582 213.95C971.201 214.088 971.894 214.154 972.658 214.154V213.154ZM970.777 212.97C970.299 212.885 969.911 212.721 969.598 212.486L968.998 213.286C969.454 213.628 969.994 213.847 970.603 213.955L970.777 212.97ZM969.598 212.486C969.301 212.263 969.066 211.946 968.903 211.511L967.966 211.862C968.187 212.45 968.528 212.933 968.998 213.286L969.598 212.486ZM968.903 211.511C968.74 211.076 968.646 210.47 968.646 209.67H967.646C967.646 210.534 967.745 211.272 967.966 211.862L968.903 211.511ZM968.646 209.67V191.046H967.646V209.67H968.646ZM968.146 190.546H960.946V191.546H968.146V190.546Z" fill="#6C3E21" fill-opacity="0.3"/>
<path d="M959.17 218.214V217.714H958.67V218.214H959.17ZM985.858 218.214H986.358V217.714H985.858V218.214ZM985.858 220.614V221.114H986.358V220.614H985.858ZM959.17 220.614H958.67V221.114H959.17V220.614ZM959.17 218.714H985.858V217.714H959.17V218.714ZM985.358 218.214V220.614H986.358V218.214H985.358ZM985.858 220.114H959.17V221.114H985.858V220.114ZM959.67 220.614V218.214H958.67V220.614H959.67Z" fill="#6C3E21" fill-opacity="0.3"/>
<path d="M997.329 176.79C997.329 175.414 997.729 174.326 998.529 173.526C999.329 172.726 1000.42 172.326 1001.79 172.326H1017.63C1017.86 172.678 1018.05 173.142 1018.21 173.718C1018.4 174.294 1018.5 174.902 1018.5 175.542C1018.5 176.758 1018.22 177.622 1017.68 178.134C1017.17 178.646 1016.48 178.902 1015.62 178.902H1005.49V183.366H1016.29C1016.51 183.718 1016.7 184.182 1016.86 184.758C1017.06 185.302 1017.15 185.894 1017.15 186.534C1017.15 187.75 1016.9 188.614 1016.38 189.126C1015.87 189.638 1015.18 189.894 1014.32 189.894H1005.49V194.934H1017.82C1018.05 195.286 1018.24 195.75 1018.4 196.326C1018.59 196.902 1018.69 197.51 1018.69 198.15C1018.69 199.366 1018.42 200.246 1017.87 200.79C1017.36 201.302 1016.67 201.558 1015.81 201.558H1001.79C1000.42 201.558 999.329 201.158 998.529 200.358C997.729 199.558 997.329 198.47 997.329 197.094V176.79Z" fill="#F5863E"/>
<path d="M994.209 206.214H1020.51V208.614H994.209V206.214Z" fill="#F5863E"/>
<path d="M1017.63 172.326L1018.05 172.058L1017.91 171.826H1017.63V172.326ZM1018.21 173.718L1017.73 173.852L1017.73 173.864L1017.73 173.876L1018.21 173.718ZM1017.68 178.134L1017.34 177.77L1017.33 177.775L1017.33 177.781L1017.68 178.134ZM1005.49 178.902V178.402H1004.99V178.902H1005.49ZM1005.49 183.366H1004.99V183.866H1005.49V183.366ZM1016.29 183.366L1016.71 183.098L1016.56 182.866H1016.29V183.366ZM1016.86 184.758L1016.38 184.892L1016.39 184.909L1016.39 184.925L1016.86 184.758ZM1005.49 189.894V189.394H1004.99V189.894H1005.49ZM1005.49 194.934H1004.99V195.434H1005.49V194.934ZM1017.82 194.934L1018.25 194.666L1018.1 194.434H1017.82V194.934ZM1018.4 196.326L1017.92 196.46L1017.92 196.472L1017.93 196.484L1018.4 196.326ZM1017.87 200.79L1017.52 200.437L1017.87 200.79ZM998.529 200.358L998.883 200.005L998.529 200.358ZM997.829 176.79C997.829 175.516 998.196 174.566 998.883 173.88L998.175 173.173C997.262 174.086 996.829 175.312 996.829 176.79H997.829ZM998.883 173.88C999.569 173.193 1000.52 172.826 1001.79 172.826V171.826C1000.31 171.826 999.089 172.259 998.175 173.173L998.883 173.88ZM1001.79 172.826H1017.63V171.826H1001.79V172.826ZM1017.21 172.595C1017.4 172.891 1017.58 173.305 1017.73 173.852L1018.69 173.584C1018.52 172.98 1018.31 172.465 1018.05 172.058L1017.21 172.595ZM1017.73 173.876C1017.91 174.399 1018 174.953 1018 175.542H1019C1019 174.851 1018.89 174.19 1018.68 173.56L1017.73 173.876ZM1018 175.542C1018 176.704 1017.73 177.398 1017.34 177.77L1018.02 178.498C1018.72 177.847 1019 176.813 1019 175.542H1018ZM1017.33 177.781C1016.93 178.181 1016.38 178.402 1015.62 178.402V179.402C1016.59 179.402 1017.41 179.111 1018.03 178.488L1017.33 177.781ZM1015.62 178.402H1005.49V179.402H1015.62V178.402ZM1004.99 178.902V183.366H1005.99V178.902H1004.99ZM1005.49 183.866H1016.29V182.866H1005.49V183.866ZM1015.87 183.635C1016.06 183.931 1016.23 184.345 1016.38 184.892L1017.35 184.624C1017.18 184.02 1016.97 183.505 1016.71 183.098L1015.87 183.635ZM1016.39 184.925C1016.56 185.41 1016.65 185.945 1016.65 186.534H1017.65C1017.65 185.844 1017.55 185.195 1017.34 184.592L1016.39 184.925ZM1016.65 186.534C1016.65 187.703 1016.4 188.401 1016.03 188.773L1016.74 189.48C1017.39 188.828 1017.65 187.798 1017.65 186.534H1016.65ZM1016.03 188.773C1015.63 189.173 1015.08 189.394 1014.32 189.394V190.394C1015.29 190.394 1016.11 190.103 1016.74 189.48L1016.03 188.773ZM1014.32 189.394H1005.49V190.394H1014.32V189.394ZM1004.99 189.894V194.934H1005.99V189.894H1004.99ZM1005.49 195.434H1017.82V194.434H1005.49V195.434ZM1017.4 195.203C1017.59 195.499 1017.77 195.913 1017.92 196.46L1018.88 196.192C1018.71 195.588 1018.51 195.073 1018.25 194.666L1017.4 195.203ZM1017.93 196.484C1018.1 197.007 1018.19 197.561 1018.19 198.15H1019.19C1019.19 197.459 1019.09 196.798 1018.88 196.168L1017.93 196.484ZM1018.19 198.15C1018.19 199.308 1017.93 200.029 1017.52 200.437L1018.23 201.144C1018.91 200.464 1019.19 199.424 1019.19 198.15H1018.19ZM1017.52 200.437C1017.12 200.837 1016.57 201.058 1015.81 201.058V202.058C1016.78 202.058 1017.6 201.767 1018.23 201.144L1017.52 200.437ZM1015.81 201.058H1001.79V202.058H1015.81V201.058ZM1001.79 201.058C1000.52 201.058 999.569 200.691 998.883 200.005L998.175 200.712C999.089 201.625 1000.31 202.058 1001.79 202.058V201.058ZM998.883 200.005C998.196 199.318 997.829 198.368 997.829 197.094H996.829C996.829 198.572 997.262 199.798 998.175 200.712L998.883 200.005ZM997.829 197.094V176.79H996.829V197.094H997.829Z" fill="#6C3E21" fill-opacity="0.3"/>
<path d="M994.209 206.214V205.714H993.709V206.214H994.209ZM1020.51 206.214H1021.01V205.714H1020.51V206.214ZM1020.51 208.614V209.114H1021.01V208.614H1020.51ZM994.209 208.614H993.709V209.114H994.209V208.614ZM994.209 206.714H1020.51V205.714H994.209V206.714ZM1020.01 206.214V208.614H1021.01V206.214H1020.01ZM1020.51 208.114H994.209V209.114H1020.51V208.114ZM994.709 208.614V206.214H993.709V208.614H994.709Z" fill="#6C3E21" fill-opacity="0.3"/>
<path d="M1044.32 172.814C1045.67 172.814 1046.69 172.51 1047.39 171.902C1048.13 171.262 1048.5 170.302 1048.5 169.022C1048.5 167.806 1048.11 166.878 1047.35 166.238C1046.61 165.566 1045.52 165.23 1044.08 165.23C1043.57 165.23 1043.14 165.246 1042.79 165.278C1042.47 165.278 1042.13 165.31 1041.78 165.374V172.814H1044.32ZM1041.83 188.222C1041.47 188.318 1040.91 188.414 1040.15 188.51C1039.41 188.606 1038.67 188.654 1037.94 188.654C1037.2 188.654 1036.55 188.59 1035.97 188.462C1035.43 188.366 1034.96 188.174 1034.58 187.886C1034.19 187.598 1033.91 187.198 1033.71 186.686C1033.52 186.174 1033.43 185.502 1033.43 184.67V162.062C1033.43 161.39 1033.6 160.878 1033.95 160.526C1034.34 160.142 1034.85 159.838 1035.49 159.614C1036.58 159.23 1037.81 158.958 1039.19 158.798C1040.59 158.606 1042 158.51 1043.41 158.51C1047.83 158.51 1051.2 159.454 1053.54 161.342C1055.87 163.23 1057.04 165.79 1057.04 169.022C1057.04 170.59 1056.79 172.014 1056.27 173.294C1055.79 174.542 1055.06 175.63 1054.07 176.558C1053.11 177.454 1051.87 178.158 1050.37 178.67C1048.9 179.15 1047.19 179.39 1045.23 179.39H1041.83V188.222Z" fill="#FAFA3A"/>
<path d="M1030.31 193.214H1058.19V195.614H1030.31V193.214Z" fill="#FAFA3A"/>
<path d="M1047.39 171.902L1047.72 172.281L1047.72 172.28L1047.39 171.902ZM1047.35 166.238L1047.01 166.608L1047.02 166.615L1047.03 166.622L1047.35 166.238ZM1042.79 165.278V165.778H1042.81L1042.83 165.776L1042.79 165.278ZM1041.78 165.374L1041.69 164.882L1041.28 164.957V165.374H1041.78ZM1041.78 172.814H1041.28V173.314H1041.78V172.814ZM1041.83 188.222L1041.96 188.705L1042.33 188.604V188.222H1041.83ZM1040.15 188.51L1040.08 188.014L1040.08 188.015L1040.15 188.51ZM1035.97 188.462L1036.08 187.974L1036.07 187.972L1036.06 187.97L1035.97 188.462ZM1034.58 187.886L1034.28 188.286L1034.58 187.886ZM1033.71 186.686L1033.25 186.862L1033.71 186.686ZM1033.95 160.526L1034.31 160.88H1034.31L1033.95 160.526ZM1035.49 159.614L1035.65 160.086L1035.66 160.086L1035.49 159.614ZM1039.19 158.798L1039.24 159.295L1039.25 159.294L1039.19 158.798ZM1056.27 173.294L1055.81 173.109L1055.81 173.115L1056.27 173.294ZM1054.07 176.558L1054.41 176.924L1054.41 176.923L1054.07 176.558ZM1050.37 178.67L1050.52 179.146L1050.53 179.144L1050.37 178.67ZM1041.83 179.39V178.89H1041.33V179.39H1041.83ZM1044.32 173.314C1045.73 173.314 1046.89 172.996 1047.72 172.281L1047.07 171.524C1046.49 172.025 1045.6 172.314 1044.32 172.314V173.314ZM1047.72 172.28C1048.6 171.517 1049 170.399 1049 169.022H1048C1048 170.206 1047.66 171.008 1047.07 171.525L1047.72 172.28ZM1049 169.022C1049 167.693 1048.57 166.61 1047.67 165.854L1047.03 166.622C1047.65 167.147 1048 167.919 1048 169.022H1049ZM1047.68 165.869C1046.82 165.082 1045.59 164.73 1044.08 164.73V165.73C1045.45 165.73 1046.4 166.051 1047.01 166.608L1047.68 165.869ZM1044.08 164.73C1043.56 164.73 1043.11 164.747 1042.74 164.78L1042.83 165.776C1043.16 165.746 1043.58 165.73 1044.08 165.73V164.73ZM1042.79 164.778C1042.43 164.778 1042.07 164.814 1041.69 164.882L1041.87 165.866C1042.19 165.807 1042.5 165.778 1042.79 165.778V164.778ZM1041.28 165.374V172.814H1042.28V165.374H1041.28ZM1041.78 173.314H1044.32V172.314H1041.78V173.314ZM1041.69 187.74C1041.38 187.826 1040.85 187.919 1040.08 188.014L1040.21 189.006C1040.98 188.91 1041.57 188.811 1041.96 188.705L1041.69 187.74ZM1040.08 188.015C1039.37 188.108 1038.65 188.154 1037.94 188.154V189.154C1038.7 189.154 1039.45 189.105 1040.21 189.006L1040.08 188.015ZM1037.94 188.154C1037.23 188.154 1036.61 188.093 1036.08 187.974L1035.86 188.95C1036.48 189.088 1037.17 189.154 1037.94 189.154V188.154ZM1036.06 187.97C1035.58 187.885 1035.19 187.721 1034.88 187.486L1034.28 188.286C1034.73 188.628 1035.27 188.847 1035.88 188.955L1036.06 187.97ZM1034.88 187.486C1034.58 187.263 1034.34 186.946 1034.18 186.511L1033.25 186.862C1033.47 187.45 1033.81 187.933 1034.28 188.286L1034.88 187.486ZM1034.18 186.511C1034.02 186.076 1033.93 185.47 1033.93 184.67H1032.93C1032.93 185.534 1033.02 186.272 1033.25 186.862L1034.18 186.511ZM1033.93 184.67V162.062H1032.93V184.67H1033.93ZM1033.93 162.062C1033.93 161.475 1034.08 161.109 1034.31 160.88L1033.6 160.173C1033.13 160.648 1032.93 161.305 1032.93 162.062H1033.93ZM1034.31 160.88C1034.63 160.56 1035.07 160.291 1035.65 160.086L1035.32 159.142C1034.63 159.385 1034.05 159.724 1033.6 160.173L1034.31 160.88ZM1035.66 160.086C1036.7 159.716 1037.9 159.451 1039.24 159.295L1039.13 158.302C1037.72 158.465 1036.45 158.744 1035.32 159.143L1035.66 160.086ZM1039.25 159.294C1040.64 159.105 1042.02 159.01 1043.41 159.01V158.01C1041.98 158.01 1040.55 158.108 1039.12 158.303L1039.25 159.294ZM1043.41 159.01C1047.76 159.01 1051.01 159.942 1053.22 161.731L1053.85 160.953C1051.39 158.967 1047.89 158.01 1043.41 158.01V159.01ZM1053.22 161.731C1055.43 163.516 1056.54 165.928 1056.54 169.022H1057.54C1057.54 165.652 1056.32 162.944 1053.85 160.953L1053.22 161.731ZM1056.54 169.022C1056.54 170.535 1056.29 171.895 1055.81 173.109L1056.74 173.48C1057.28 172.133 1057.54 170.645 1057.54 169.022H1056.54ZM1055.81 173.115C1055.35 174.291 1054.66 175.316 1053.72 176.193L1054.41 176.923C1055.45 175.945 1056.23 174.793 1056.74 173.474L1055.81 173.115ZM1053.72 176.193C1052.83 177.031 1051.66 177.703 1050.21 178.197L1050.53 179.144C1052.09 178.614 1053.39 177.877 1054.41 176.924L1053.72 176.193ZM1050.21 178.195C1048.8 178.655 1047.15 178.89 1045.23 178.89V179.89C1047.22 179.89 1048.99 179.646 1050.52 179.146L1050.21 178.195ZM1045.23 178.89H1041.83V179.89H1045.23V178.89ZM1041.33 179.39V188.222H1042.33V179.39H1041.33Z" fill="#6C3E21" fill-opacity="0.3"/>
<path d="M1030.31 193.214V192.714H1029.81V193.214H1030.31ZM1058.19 193.214H1058.69V192.714H1058.19V193.214ZM1058.19 195.614V196.114H1058.69V195.614H1058.19ZM1030.31 195.614H1029.81V196.114H1030.31V195.614ZM1030.31 193.714H1058.19V192.714H1030.31V193.714ZM1057.69 193.214V195.614H1058.69V193.214H1057.69ZM1058.19 195.114H1030.31V196.114H1058.19V195.114ZM1030.81 195.614V193.214H1029.81V195.614H1030.81Z" fill="#6C3E21" fill-opacity="0.3"/>
<path d="M1079.3 167.938C1077.89 167.458 1076.61 166.978 1075.46 166.498C1074.31 165.986 1073.32 165.378 1072.49 164.674C1071.65 163.97 1071 163.138 1070.52 162.178C1070.07 161.186 1069.85 159.986 1069.85 158.578C1069.85 155.858 1070.89 153.682 1072.97 152.05C1075.08 150.418 1078.02 149.602 1081.8 149.602C1083.17 149.602 1084.45 149.698 1085.64 149.89C1086.82 150.082 1087.83 150.386 1088.66 150.802C1089.53 151.186 1090.2 151.698 1090.68 152.338C1091.16 152.946 1091.4 153.666 1091.4 154.498C1091.4 155.33 1091.21 156.05 1090.82 156.658C1090.44 157.234 1089.97 157.73 1089.43 158.146C1088.73 157.698 1087.78 157.314 1086.6 156.994C1085.41 156.642 1084.12 156.466 1082.71 156.466C1081.27 156.466 1080.21 156.674 1079.54 157.09C1078.87 157.474 1078.53 157.97 1078.53 158.578C1078.53 159.058 1078.74 159.458 1079.16 159.778C1079.57 160.066 1080.2 160.338 1081.03 160.594L1083.57 161.41C1086.58 162.37 1088.89 163.602 1090.49 165.106C1092.12 166.578 1092.93 168.594 1092.93 171.154C1092.93 173.874 1091.86 176.082 1089.72 177.778C1087.57 179.442 1084.42 180.274 1080.26 180.274C1078.79 180.274 1077.41 180.146 1076.13 179.89C1074.89 179.666 1073.78 179.33 1072.82 178.882C1071.89 178.402 1071.16 177.826 1070.61 177.154C1070.1 176.45 1069.85 175.65 1069.85 174.754C1069.85 173.826 1070.12 173.042 1070.66 172.402C1071.21 171.73 1071.8 171.218 1072.44 170.866C1073.33 171.57 1074.42 172.178 1075.7 172.69C1077.01 173.202 1078.44 173.458 1079.97 173.458C1081.54 173.458 1082.65 173.218 1083.29 172.738C1083.93 172.258 1084.25 171.698 1084.25 171.058C1084.25 170.418 1083.99 169.938 1083.48 169.618C1082.97 169.266 1082.25 168.93 1081.32 168.61L1079.3 167.938Z" fill="#FB5176"/>
<path d="M1067.93 184.306H1094.37V186.706H1067.93V184.306Z" fill="#FB5176"/>
<path d="M1079.3 167.938L1079.14 168.411L1079.14 168.412L1079.3 167.938ZM1075.46 166.498L1075.26 166.955L1075.27 166.959L1075.46 166.498ZM1070.52 162.178L1070.06 162.383L1070.07 162.392L1070.07 162.401L1070.52 162.178ZM1072.97 152.05L1072.66 151.654L1072.66 151.656L1072.97 152.05ZM1085.64 149.89L1085.72 149.396L1085.64 149.89ZM1088.66 150.802L1088.44 151.249L1088.45 151.254L1088.46 151.259L1088.66 150.802ZM1090.68 152.338L1090.28 152.638L1090.28 152.647L1090.68 152.338ZM1090.82 156.658L1091.24 156.935L1091.24 156.925L1090.82 156.658ZM1089.43 158.146L1089.16 158.567L1089.46 158.755L1089.73 158.543L1089.43 158.146ZM1086.6 156.994L1086.45 157.473L1086.47 157.476L1086.6 156.994ZM1079.54 157.09L1079.79 157.524L1079.8 157.519L1079.8 157.515L1079.54 157.09ZM1079.16 159.778L1078.85 160.174L1078.86 160.182L1078.87 160.189L1079.16 159.778ZM1081.03 160.594L1081.18 160.117L1081.18 160.116L1081.03 160.594ZM1083.57 161.41L1083.42 161.886L1083.42 161.886L1083.57 161.41ZM1090.49 165.106L1090.14 165.47L1090.15 165.477L1090.49 165.106ZM1089.72 177.778L1090.02 178.173L1090.03 178.17L1089.72 177.778ZM1076.13 179.89L1076.23 179.399L1076.22 179.397L1076.13 179.89ZM1072.82 178.882L1072.59 179.326L1072.6 179.33L1072.61 179.335L1072.82 178.882ZM1070.61 177.154L1070.21 177.448L1070.22 177.458L1070.22 177.468L1070.61 177.154ZM1070.66 172.402L1071.04 172.726L1071.05 172.716L1070.66 172.402ZM1072.44 170.866L1072.75 170.472L1072.49 170.268L1072.2 170.428L1072.44 170.866ZM1075.7 172.69L1075.52 173.154L1075.52 173.155L1075.7 172.69ZM1083.29 172.738L1083.59 173.138H1083.59L1083.29 172.738ZM1083.48 169.618L1083.19 170.03L1083.2 170.036L1083.21 170.042L1083.48 169.618ZM1081.32 168.61L1081.48 168.137L1081.48 168.135L1081.32 168.61ZM1079.46 167.464C1078.06 166.987 1076.79 166.511 1075.65 166.036L1075.27 166.959C1076.43 167.444 1077.72 167.928 1079.14 168.411L1079.46 167.464ZM1075.66 166.041C1074.55 165.545 1073.6 164.961 1072.81 164.292L1072.16 165.055C1073.04 165.794 1074.07 166.426 1075.26 166.955L1075.66 166.041ZM1072.81 164.292C1072.03 163.631 1071.41 162.852 1070.96 161.954L1070.07 162.401C1070.58 163.423 1071.28 164.308 1072.16 165.055L1072.81 164.292ZM1070.97 161.972C1070.56 161.061 1070.35 159.935 1070.35 158.578H1069.35C1069.35 160.037 1069.58 161.311 1070.06 162.383L1070.97 161.972ZM1070.35 158.578C1070.35 156.006 1071.32 153.977 1073.27 152.443L1072.66 151.656C1070.45 153.386 1069.35 155.709 1069.35 158.578H1070.35ZM1073.27 152.445C1075.27 150.904 1078.09 150.102 1081.8 150.102V149.102C1077.96 149.102 1074.89 149.931 1072.66 151.654L1073.27 152.445ZM1081.8 150.102C1083.15 150.102 1084.4 150.196 1085.56 150.383L1085.72 149.396C1084.5 149.199 1083.2 149.102 1081.8 149.102V150.102ZM1085.56 150.383C1086.7 150.569 1087.66 150.861 1088.44 151.249L1088.88 150.354C1088 149.91 1086.94 149.594 1085.72 149.396L1085.56 150.383ZM1088.46 151.259C1089.26 151.614 1089.86 152.077 1090.28 152.638L1091.08 152.038C1090.54 151.318 1089.79 150.757 1088.86 150.345L1088.46 151.259ZM1090.28 152.647C1090.69 153.16 1090.9 153.769 1090.9 154.498H1091.9C1091.9 153.562 1091.62 152.731 1091.07 152.028L1090.28 152.647ZM1090.9 154.498C1090.9 155.25 1090.72 155.874 1090.4 156.391L1091.24 156.925C1091.69 156.225 1091.9 155.409 1091.9 154.498H1090.9ZM1090.41 156.38C1090.05 156.911 1089.63 157.366 1089.13 157.748L1089.73 158.543C1090.32 158.093 1090.82 157.556 1091.24 156.935L1090.41 156.38ZM1089.7 157.724C1088.94 157.239 1087.94 156.839 1086.73 156.511L1086.47 157.476C1087.62 157.789 1088.51 158.156 1089.16 158.567L1089.7 157.724ZM1086.74 156.514C1085.5 156.147 1084.16 155.966 1082.71 155.966V156.966C1084.08 156.966 1085.32 157.136 1086.45 157.473L1086.74 156.514ZM1082.71 155.966C1081.24 155.966 1080.07 156.174 1079.28 156.664L1079.8 157.515C1080.36 157.173 1081.3 156.966 1082.71 156.966V155.966ZM1079.29 156.655C1078.51 157.1 1078.03 157.74 1078.03 158.578H1079.03C1079.03 158.199 1079.22 157.847 1079.79 157.524L1079.29 156.655ZM1078.03 158.578C1078.03 159.229 1078.33 159.769 1078.85 160.174L1079.46 159.381C1079.16 159.146 1079.03 158.886 1079.03 158.578H1078.03ZM1078.87 160.189C1079.35 160.52 1080.03 160.81 1080.88 161.072L1081.18 160.116C1080.36 159.866 1079.8 159.612 1079.44 159.367L1078.87 160.189ZM1080.88 161.07L1083.42 161.886L1083.73 160.934L1081.18 160.118L1080.88 161.07ZM1083.42 161.886C1086.39 162.832 1088.62 164.034 1090.14 165.47L1090.83 164.741C1089.15 163.169 1086.78 161.907 1083.73 160.933L1083.42 161.886ZM1090.15 165.477C1091.66 166.838 1092.43 168.71 1092.43 171.154H1093.43C1093.43 168.478 1092.57 166.317 1090.82 164.734L1090.15 165.477ZM1092.43 171.154C1092.43 173.72 1091.43 175.784 1089.41 177.385L1090.03 178.17C1092.29 176.379 1093.43 174.027 1093.43 171.154H1092.43ZM1089.41 177.383C1087.39 178.951 1084.37 179.774 1080.26 179.774V180.774C1084.48 180.774 1087.76 179.932 1090.02 178.173L1089.41 177.383ZM1080.26 179.774C1078.82 179.774 1077.48 179.648 1076.23 179.399L1076.03 180.38C1077.35 180.643 1078.76 180.774 1080.26 180.774V179.774ZM1076.22 179.397C1075.01 179.18 1073.95 178.855 1073.03 178.429L1072.61 179.335C1073.62 179.804 1074.76 180.152 1076.04 180.382L1076.22 179.397ZM1073.05 178.438C1072.17 177.983 1071.49 177.447 1071 176.839L1070.22 177.468C1070.82 178.204 1071.61 178.82 1072.59 179.326L1073.05 178.438ZM1071.02 176.86C1070.57 176.244 1070.35 175.547 1070.35 174.754H1069.35C1069.35 175.752 1069.63 176.656 1070.21 177.448L1071.02 176.86ZM1070.35 174.754C1070.35 173.931 1070.58 173.265 1071.04 172.725L1070.28 172.078C1069.65 172.818 1069.35 173.72 1069.35 174.754H1070.35ZM1071.05 172.716C1071.56 172.085 1072.1 171.619 1072.68 171.304L1072.2 170.428C1071.49 170.816 1070.85 171.374 1070.27 172.087L1071.05 172.716ZM1072.13 171.259C1073.07 171.998 1074.2 172.628 1075.52 173.154L1075.89 172.225C1074.64 171.728 1073.6 171.142 1072.75 170.472L1072.13 171.259ZM1075.52 173.155C1076.89 173.692 1078.38 173.958 1079.97 173.958V172.958C1078.49 172.958 1077.13 172.711 1075.88 172.224L1075.52 173.155ZM1079.97 173.958C1081.56 173.958 1082.81 173.721 1083.59 173.138L1082.99 172.338C1082.48 172.715 1081.52 172.958 1079.97 172.958V173.958ZM1083.59 173.138C1084.32 172.589 1084.75 171.894 1084.75 171.058H1083.75C1083.75 171.501 1083.53 171.926 1082.99 172.338L1083.59 173.138ZM1084.75 171.058C1084.75 170.258 1084.41 169.611 1083.74 169.194L1083.21 170.042C1083.57 170.264 1083.75 170.578 1083.75 171.058H1084.75ZM1083.76 169.206C1083.2 168.818 1082.43 168.464 1081.48 168.137L1081.15 169.082C1082.06 169.395 1082.73 169.714 1083.19 170.03L1083.76 169.206ZM1081.48 168.135L1079.46 167.463L1079.14 168.412L1081.16 169.084L1081.48 168.135Z" fill="#6C3E21" fill-opacity="0.3"/>
<path d="M1067.93 184.306V183.806H1067.43V184.306H1067.93ZM1094.37 184.306H1094.87V183.806H1094.37V184.306ZM1094.37 186.706V187.206H1094.87V186.706H1094.37ZM1067.93 186.706H1067.43V187.206H1067.93V186.706ZM1067.93 184.806H1094.37V183.806H1067.93V184.806ZM1093.87 184.306V186.706H1094.87V184.306H1093.87ZM1094.37 186.206H1067.93V187.206H1094.37V186.206ZM1068.43 186.706V184.306H1067.43V186.706H1068.43Z" fill="#6C3E21" fill-opacity="0.3"/>
</g>
<defs>
<linearGradient id="paint0_linear" x1="93.9632" y1="203.376" x2="93.9632" y2="545.647" gradientUnits="userSpaceOnUse">
<stop stop-opacity="0"/>
<stop offset="1" stop-opacity="0.71"/>
</linearGradient>
<linearGradient id="paint1_linear" x1="1016.18" y1="27.0186" x2="1016.18" y2="716.486" gradientUnits="userSpaceOnUse">
<stop stop-color="white"/>
<stop offset="1" stop-color="white" stop-opacity="0"/>
</linearGradient>
<linearGradient id="paint2_linear" x1="1068.01" y1="29.893" x2="701.817" y2="720.408" gradientUnits="userSpaceOnUse">
<stop stop-color="white"/>
<stop offset="1" stop-color="white" stop-opacity="0"/>
</linearGradient>
<linearGradient id="paint3_linear" x1="1253.3" y1="42.7598" x2="1515.06" y2="689.487" gradientUnits="userSpaceOnUse">
<stop stop-color="white"/>
<stop offset="1" stop-color="white" stop-opacity="0"/>
</linearGradient>
<clipPath id="clip0">
<rect width="1514" height="720" fill="white" transform="translate(0.772461)"/>
</clipPath>
</defs>
</svg>
