<svg width="308" height="154" viewBox="0 0 308 154" fill="none" xmlns="http://www.w3.org/2000/svg">
<path d="M21.7825 126.857L8.45508 18.3784L285.469 141.46C194.104 150.865 109.1 147.647 76.139 147.895C49.7703 148.093 39.7086 144.842 37.9738 143.192L21.7825 126.857Z" fill="black" fill-opacity="0.15"/>
<path d="M8.4788 14.1045L4.54262 14.4137L5.32175 18.2844L21.1632 96.984L21.2899 97.6134L21.6318 98.1569C25.1374 103.73 30.3929 112.295 34.7639 119.869C36.9526 123.662 38.8958 127.165 40.2832 129.905C40.9795 131.28 41.509 132.411 41.856 133.262C42.0301 133.689 42.1381 133.997 42.1977 134.2C42.2072 134.233 42.2147 134.26 42.2204 134.282C42.2824 135.733 42.971 136.859 43.6376 137.612C44.3281 138.391 45.1808 138.99 45.9763 139.453C47.574 140.384 49.6074 141.142 51.6239 141.758C55.2462 142.865 59.4422 143.696 62.5669 144.185C63.0027 144.526 63.4523 144.795 63.8609 145.01C64.7438 145.474 65.7633 145.851 66.8373 146.17C68.9879 146.809 71.747 147.327 74.9423 147.759C81.3566 148.624 89.9956 149.199 100.068 149.553C120.238 150.261 146.513 150.095 173.018 149.505C225.958 148.325 280.256 145.438 289.039 144.364C292.073 143.993 294.333 142.091 295.948 139.831C297.551 137.586 298.767 134.662 299.721 131.436C301.638 124.959 302.755 116.376 303.36 107.174C304.574 88.7079 303.772 66.9125 302.664 52.4786L302.641 52.1761L302.566 51.8821L292.005 10.4335L291.472 8.33984L289.361 7.87844C278.413 5.48532 260.045 4.3569 237.756 4.04996C215.37 3.7417 188.739 4.26182 161.099 5.25535C105.813 7.24256 46.3571 11.1286 8.4788 14.1045ZM42.2373 134.353C42.2372 134.353 42.2365 134.349 42.2354 134.343C42.2369 134.35 42.2374 134.353 42.2373 134.353Z" fill="#FCFEE6" stroke="#FFFF93" stroke-width="7"/>
<g filter="url(#filter0_d)">
<path d="M96.1739 69.1395C95.3739 69.1395 94.6059 69.2675 93.8699 69.5235C93.1659 69.7795 92.5419 70.1635 91.9979 70.6755C91.4859 71.1555 91.0699 71.7635 90.7499 72.4995C90.4299 73.2355 90.2699 74.0995 90.2699 75.0915C90.2699 77.0755 90.8299 78.5635 91.9499 79.5555C93.1019 80.5475 94.4939 81.0435 96.1259 81.0435C97.0859 81.0435 97.9179 80.9315 98.6219 80.7075C99.3259 80.4835 99.9499 80.2435 100.494 79.9875C101.134 80.4355 101.614 80.9315 101.934 81.4755C102.254 81.9875 102.414 82.6115 102.414 83.3475C102.414 84.6595 101.79 85.6835 100.542 86.4195C99.2939 87.1235 97.5659 87.4755 95.3579 87.4755C93.3419 87.4755 91.5179 87.1875 89.8859 86.6115C88.2539 86.0035 86.8459 85.1715 85.6619 84.1155C84.5099 83.0275 83.6139 81.7315 82.9739 80.2275C82.3339 78.7235 82.0139 77.0595 82.0139 75.2355C82.0139 73.1235 82.3499 71.2835 83.0219 69.7155C83.7259 68.1155 84.6699 66.8035 85.8539 65.7795C87.0379 64.7555 88.3979 63.9875 89.9339 63.4755C91.5019 62.9635 93.1499 62.7075 94.8779 62.7075C97.1819 62.7075 98.9579 63.1235 100.206 63.9555C101.454 64.7875 102.078 65.8595 102.078 67.1715C102.078 67.7795 101.934 68.3555 101.646 68.8995C101.358 69.4115 101.022 69.8595 100.638 70.2435C100.094 69.9875 99.4379 69.7475 98.6699 69.5235C97.9019 69.2675 97.0699 69.1395 96.1739 69.1395ZM131.946 86.7075C131.626 86.8035 131.114 86.8995 130.41 86.9955C129.738 87.0915 129.034 87.1395 128.298 87.1395C127.594 87.1395 126.954 87.0915 126.378 86.9955C125.834 86.8995 125.37 86.7075 124.986 86.4195C124.602 86.1315 124.298 85.7475 124.074 85.2675C123.882 84.7555 123.786 84.0995 123.786 83.2995V72.6435C123.786 71.3315 123.45 70.4195 122.778 69.9075C122.138 69.3635 121.338 69.0915 120.378 69.0915C119.738 69.0915 119.13 69.1715 118.554 69.3315C117.978 69.4915 117.514 69.6835 117.162 69.9075V86.7075C116.842 86.8035 116.33 86.8995 115.626 86.9955C114.954 87.0915 114.25 87.1395 113.514 87.1395C112.81 87.1395 112.17 87.0915 111.594 86.9955C111.05 86.8995 110.586 86.7075 110.202 86.4195C109.818 86.1315 109.514 85.7475 109.29 85.2675C109.098 84.7555 109.002 84.0995 109.002 83.2995V55.4595C109.354 55.3955 109.866 55.3155 110.538 55.2195C111.242 55.0915 111.946 55.0275 112.65 55.0275C113.354 55.0275 113.978 55.0755 114.522 55.1715C115.098 55.2675 115.578 55.4595 115.962 55.7475C116.346 56.0355 116.634 56.4355 116.826 56.9475C117.05 57.4275 117.162 58.0675 117.162 58.8675V63.5715C117.578 63.4115 118.202 63.2355 119.034 63.0435C119.898 62.8195 120.842 62.7075 121.866 62.7075C125.034 62.7075 127.498 63.5075 129.258 65.1075C131.05 66.6755 131.946 69.0275 131.946 72.1635V86.7075ZM139.192 56.9475C139.192 55.7315 139.592 54.7075 140.392 53.8755C141.224 53.0435 142.312 52.6275 143.656 52.6275C145 52.6275 146.072 53.0435 146.872 53.8755C147.704 54.7075 148.12 55.7315 148.12 56.9475C148.12 58.1635 147.704 59.1875 146.872 60.0195C146.072 60.8515 145 61.2675 143.656 61.2675C142.312 61.2675 141.224 60.8515 140.392 60.0195C139.592 59.1875 139.192 58.1635 139.192 56.9475ZM147.736 86.7075C147.384 86.7715 146.856 86.8515 146.152 86.9475C145.48 87.0755 144.792 87.1395 144.088 87.1395C143.384 87.1395 142.744 87.0915 142.168 86.9955C141.624 86.8995 141.16 86.7075 140.776 86.4195C140.392 86.1315 140.088 85.7475 139.864 85.2675C139.672 84.7555 139.576 84.0995 139.576 83.2995V63.7635C139.928 63.6995 140.44 63.6195 141.112 63.5235C141.816 63.3955 142.52 63.3315 143.224 63.3315C143.928 63.3315 144.552 63.3795 145.096 63.4755C145.672 63.5715 146.152 63.7635 146.536 64.0515C146.92 64.3395 147.208 64.7395 147.4 65.2515C147.624 65.7315 147.736 66.3715 147.736 67.1715V86.7075ZM170.115 71.9715C170.115 70.9795 169.827 70.2595 169.251 69.8115C168.707 69.3315 167.955 69.0915 166.995 69.0915C166.355 69.0915 165.715 69.1715 165.075 69.3315C164.467 69.4915 163.939 69.7315 163.491 70.0515V86.7075C163.171 86.8035 162.659 86.8995 161.955 86.9955C161.283 87.0915 160.579 87.1395 159.843 87.1395C159.139 87.1395 158.499 87.0915 157.923 86.9955C157.379 86.8995 156.915 86.7075 156.531 86.4195C156.147 86.1315 155.843 85.7475 155.619 85.2675C155.427 84.7555 155.331 84.0995 155.331 83.2995V68.8995C155.331 68.0355 155.507 67.3315 155.859 66.7875C156.243 66.2435 156.755 65.7475 157.395 65.2995C158.483 64.5315 159.843 63.9075 161.475 63.4275C163.139 62.9475 164.979 62.7075 166.995 62.7075C170.611 62.7075 173.395 63.5075 175.347 65.1075C177.299 66.6755 178.275 68.8675 178.275 71.6835V86.7075C177.955 86.8035 177.443 86.8995 176.739 86.9955C176.067 87.0915 175.363 87.1395 174.627 87.1395C173.923 87.1395 173.283 87.0915 172.707 86.9955C172.163 86.8995 171.699 86.7075 171.315 86.4195C170.931 86.1315 170.627 85.7475 170.403 85.2675C170.211 84.7555 170.115 84.0995 170.115 83.2995V71.9715ZM198.052 87.5235C196.164 87.5235 194.404 87.2675 192.772 86.7555C191.172 86.2115 189.764 85.4115 188.548 84.3555C187.364 83.2995 186.42 81.9715 185.716 80.3715C185.044 78.7715 184.708 76.8995 184.708 74.7555C184.708 72.6435 185.044 70.8355 185.716 69.3315C186.42 67.7955 187.332 66.5475 188.452 65.5875C189.572 64.5955 190.852 63.8755 192.292 63.4275C193.732 62.9475 195.204 62.7075 196.708 62.7075C198.404 62.7075 199.94 62.9635 201.316 63.4755C202.724 63.9875 203.924 64.6915 204.916 65.5875C205.94 66.4835 206.724 67.5555 207.268 68.8035C207.844 70.0515 208.132 71.4115 208.132 72.8835C208.132 73.9715 207.828 74.8035 207.22 75.3795C206.612 75.9555 205.764 76.3235 204.676 76.4835L192.82 78.2595C193.172 79.3155 193.892 80.1155 194.98 80.6595C196.068 81.1715 197.316 81.4275 198.724 81.4275C200.036 81.4275 201.268 81.2675 202.42 80.9475C203.604 80.5955 204.564 80.1955 205.3 79.7475C205.812 80.0675 206.244 80.5155 206.596 81.0915C206.948 81.6675 207.124 82.2755 207.124 82.9155C207.124 84.3555 206.452 85.4275 205.108 86.1315C204.084 86.6755 202.932 87.0435 201.652 87.2355C200.372 87.4275 199.172 87.5235 198.052 87.5235ZM196.708 68.6595C195.94 68.6595 195.268 68.7875 194.692 69.0435C194.148 69.2995 193.7 69.6355 193.348 70.0515C192.996 70.4355 192.724 70.8835 192.532 71.3955C192.372 71.8755 192.276 72.3715 192.244 72.8835L200.452 71.5395C200.356 70.8995 200.004 70.2595 199.396 69.6195C198.788 68.9795 197.892 68.6595 196.708 68.6595ZM222.763 86.7075C222.411 86.7715 221.883 86.8515 221.179 86.9475C220.507 87.0755 219.819 87.1395 219.115 87.1395C218.411 87.1395 217.771 87.0915 217.195 86.9955C216.651 86.8995 216.187 86.7075 215.803 86.4195C215.419 86.1315 215.115 85.7475 214.891 85.2675C214.699 84.7555 214.603 84.0995 214.603 83.2995V55.4595C214.955 55.3955 215.467 55.3155 216.139 55.2195C216.843 55.0915 217.547 55.0275 218.251 55.0275C218.955 55.0275 219.579 55.0755 220.123 55.1715C220.699 55.2675 221.179 55.4595 221.563 55.7475C221.947 56.0355 222.235 56.4355 222.427 56.9475C222.651 57.4275 222.763 58.0675 222.763 58.8675V86.7075ZM254.457 75.0915C254.457 77.0755 254.153 78.8515 253.545 80.4195C252.937 81.9555 252.073 83.2515 250.953 84.3075C249.865 85.3635 248.553 86.1635 247.017 86.7075C245.481 87.2515 243.769 87.5235 241.881 87.5235C239.993 87.5235 238.281 87.2355 236.745 86.6595C235.209 86.0835 233.881 85.2675 232.761 84.2115C231.673 83.1235 230.825 81.8115 230.217 80.2755C229.609 78.7395 229.305 77.0115 229.305 75.0915C229.305 73.2035 229.609 71.4915 230.217 69.9555C230.825 68.4195 231.673 67.1235 232.761 66.0675C233.881 64.9795 235.209 64.1475 236.745 63.5715C238.281 62.9955 239.993 62.7075 241.881 62.7075C243.769 62.7075 245.481 63.0115 247.017 63.6195C248.553 64.1955 249.865 65.0275 250.953 66.1155C252.073 67.1715 252.937 68.4675 253.545 70.0035C254.153 71.5395 254.457 73.2355 254.457 75.0915ZM237.657 75.0915C237.657 77.0435 238.025 78.5475 238.761 79.6035C239.529 80.6275 240.585 81.1395 241.929 81.1395C243.273 81.1395 244.297 80.6115 245.001 79.5555C245.737 78.4995 246.105 77.0115 246.105 75.0915C246.105 73.1715 245.737 71.6995 245.001 70.6755C244.265 69.6195 243.225 69.0915 241.881 69.0915C240.537 69.0915 239.497 69.6195 238.761 70.6755C238.025 71.6995 237.657 73.1715 237.657 75.0915Z" fill="#954F3D"/>
</g>
<defs>
<filter id="filter0_d" x="78.0137" y="52.6275" width="180.443" height="42.896" filterUnits="userSpaceOnUse" color-interpolation-filters="sRGB">
<feFlood flood-opacity="0" result="BackgroundImageFix"/>
<feColorMatrix in="SourceAlpha" type="matrix" values="0 0 0 0 0 0 0 0 0 0 0 0 0 0 0 0 0 0 127 0"/>
<feOffset dy="4"/>
<feGaussianBlur stdDeviation="2"/>
<feColorMatrix type="matrix" values="0 0 0 0 0 0 0 0 0 0 0 0 0 0 0 0 0 0 0.25 0"/>
<feBlend mode="normal" in2="BackgroundImageFix" result="effect1_dropShadow"/>
<feBlend mode="normal" in="SourceGraphic" in2="effect1_dropShadow" result="shape"/>
</filter>
</defs>
</svg>
