<svg width="115" height="54" viewBox="0 0 115 54" fill="none" xmlns="http://www.w3.org/2000/svg">
<path d="M53.9477 5.28534C55.8677 2.92806 61.8411 2.33875 65.4677 2.33875L103.228 25.9115C99.1319 26.8544 91.2812 27.0902 87.8678 27.0902C77.6278 27.0902 67.1744 23.7507 62.9078 21.7863C54.7157 18.0146 52.2411 13.5358 52.0277 11.7679C51.5157 8.46767 53.0944 6.0711 53.9477 5.28534Z" fill="black" fill-opacity="0.2"/>
<path d="M59.7079 14.1251C65.34 18.3682 75.2813 19.429 79.548 19.429L82.748 2.92803C72.5079 1.74946 66.7479 2.33873 62.2679 2.92805C57.6599 4.34241 56.7213 6.07108 56.5079 7.05328C55.4839 9.88201 58.2146 13.1429 59.7079 14.1251Z" fill="#A6FF4F"/>
<path d="M66.1077 19.4291C54.5878 14.7145 54.5877 12.3572 55.2277 7.64269C56.2516 3.87108 61.2011 2.92812 63.5478 2.9281C57.4038 3.39955 56.2944 7.83909 56.5078 9.99993C58.5558 17.0718 72.7211 19.2326 79.5478 19.4291C76.9878 7.17127 83.1745 1.74951 86.5878 0.570862C91.1959 0.0994064 95.3345 0.374422 96.8279 0.570862C103.996 1.51377 110.481 7.64269 112.828 10.5893C114.876 12.9466 114.961 16.286 114.748 17.6611C114.748 20.4899 110.908 23.1614 108.988 24.1436C105.916 26.5009 97.0412 26.3045 92.9879 25.9116C85.8198 25.9116 72.0811 21.5899 66.1077 19.4291Z" fill="#9FD946"/>
<path d="M105.788 11.1786C106.3 9.29274 103.015 8.82129 101.308 8.82129L100.028 11.1786L101.948 12.9465C102.972 13.418 104.081 13.143 104.508 12.9465C105.788 12.3572 105.628 11.7679 105.788 11.1786Z" fill="#D4FE81"/>
<path d="M95.5477 14.1251C95.0357 12.2393 95.761 10.5892 96.1877 9.99988L99.3877 11.1785C100.412 11.65 100.241 13.3394 100.028 14.1251C100.028 15.068 98.7477 15.3038 98.1077 15.3038C96.0597 15.3038 95.5477 14.518 95.5477 14.1251Z" fill="#D4FE81"/>
<path d="M103.228 4.69606C101.692 3.28169 99.6014 5.28538 98.748 6.46402L101.308 8.82128C104.508 7.05332 104.508 7.05334 104.508 6.46402C104.508 5.28538 103.655 5.08893 103.228 4.69606Z" fill="#D4FE81"/>
<path d="M93.6279 5.28538C93.6279 6.22829 94.9079 7.64266 95.5479 8.23198L98.7479 6.46406C98.7479 5.52115 97.8946 4.49964 97.4679 4.10674C96.4439 3.16383 94.9079 3.32098 94.2679 3.51742C93.6279 4.10674 93.6279 4.10674 93.6279 5.28538Z" fill="#D4FE81"/>
<path d="M90.9931 8.92091C91.7077 7.74232 94.1931 7.54583 95.4732 7.74227L96.7532 10.0996C96.2412 11.0426 94.8332 11.6711 94.1932 11.8676C92.6572 12.339 91.4198 11.6711 90.9931 11.2782C89.9691 10.3353 90.5665 9.31381 90.9931 8.92091Z" fill="#D4FE81"/>
<path d="M95.5479 8.23199C96.0599 6.34617 97.8945 6.26759 98.7479 6.46403C101.308 7.40696 101.308 8.43751 101.308 8.82128C101.308 10.5892 100.668 10.8839 100.028 11.1786C99.0039 11.65 97.4679 10.9821 96.8279 10.5892C95.8039 10.1178 95.5479 8.8213 95.5479 8.23199Z" fill="#F4FC57"/>
<path d="M3.38764 46.5377C5.94765 51.2522 15.5477 53.0202 20.0277 53.0202L14.2677 11.7678C11.7077 11.1785 9.78766 12.6097 7.22765 15.3038C2.74764 20.0183 1.2543 26.6973 0.827637 31.2154C0.827637 40.6445 1.46764 42.4124 3.38764 46.5377Z" fill="black" fill-opacity="0.2"/>
<path d="M4.66748 30.6261C7.22749 11.2964 16.8275 9.41062 21.9475 9.99989C33.7236 9.99989 35.3876 25.7151 34.7476 33.5727C24.5075 21.197 11.7075 26.5009 4.66748 30.6261Z" fill="#A2FF4F"/>
<path d="M4.66743 44.7698C3.13143 39.1123 4.02746 32.7869 4.66746 30.6261C20.0275 19.7826 30.9075 27.8759 34.7475 33.5727C35.3875 36.5191 36.0275 38.2872 35.3875 43.0017C35.3875 47.1269 31.1209 50.4666 29.6275 51.2523C25.0195 53.1381 19.6008 53.2167 17.4675 53.0203C10.2995 53.0203 5.94744 47.52 4.66743 44.7698Z" fill="#9ED546"/>
<path d="M21.9477 44.1805C20.4117 43.709 19.601 41.6268 19.3877 40.6446L22.5877 39.4659C25.1477 40.4089 25.7877 41.4303 25.7877 41.8232C26.2997 43.2376 25.5744 43.9841 25.1477 44.1805C24.1237 44.652 22.5877 44.3769 21.9477 44.1805Z" fill="#DAFF87"/>
<path d="M18.4186 31.4912C16.6966 31.9905 17.7011 35.4442 18.4186 37.1086L22.0062 36.4844C23.1543 32.4898 22.4367 31.9905 21.2887 31.4912C20.1407 30.9918 18.897 31.2831 18.4186 31.4912Z" fill="#DAFF87"/>
<path d="M14.9076 34.7514C15.9316 34.2799 17.4676 35.7336 18.1076 36.5193V39.4659C16.1877 40.0553 16.1876 40.0553 13.6275 38.8766C12.3476 37.698 12.7743 36.1265 12.9876 35.93C13.4996 34.9871 14.4809 34.7514 14.9076 34.7514Z" fill="#DAFF87"/>
<path d="M13.6274 41.2339C14.6514 39.8195 16.6141 39.4659 17.4674 39.4659L19.3875 40.6446C18.7475 42.4125 18.3208 42.4125 17.4674 43.5912C16.4434 45.0055 14.4808 44.7698 13.6274 44.1805C12.6034 42.7661 13.2007 41.6268 13.6274 41.2339Z" fill="#DAFF87"/>
<path d="M27.0676 35.6565C25.5316 33.7707 22.5876 35.2636 21.3076 36.2458L21.9476 39.1924C25.5316 40.1353 27.281 38.7995 27.7076 38.0137C28.2196 37.0708 27.4943 36.0494 27.0676 35.6565Z" fill="#DAFF87"/>
<path d="M17.4678 38.2872C17.4678 36.4014 19.1744 35.9299 20.0278 35.9299C22.0758 35.9299 22.5878 37.5014 22.5878 38.2872C22.5878 40.6445 20.4544 40.8409 19.3878 40.6445C17.8518 40.6445 17.4678 39.073 17.4678 38.2872Z" fill="#F2FA4D"/>
</svg>
