<svg width="120" height="62" viewBox="0 0 120 62" fill="none" xmlns="http://www.w3.org/2000/svg">
<path d="M54.9262 9.86249C56.8463 7.50521 62.8196 6.91589 66.4463 6.91589L104.206 30.4887C100.11 31.4316 92.2597 31.6673 88.8463 31.6673C78.6063 31.6673 68.153 28.3278 63.8863 26.3634C55.6943 22.5918 53.2196 18.113 53.0062 16.345C52.4942 13.0448 54.0729 10.6482 54.9262 9.86249Z" fill="black" fill-opacity="0.2"/>
<path d="M108.491 9.6911C124.843 23.0263 109.748 30.8581 101.413 30.522C83.753 30.522 53.5231 23.0528 55.8386 13.9245C55.9637 10.3959 61.7687 4.13749 83.9871 7.33229C86.3662 4.72983 94.5979 1.55815 108.491 9.6911Z" stroke="#FFFF93" stroke-width="7"/>
<path d="M4.36567 51.1148C6.92568 55.8294 16.5257 57.5973 21.0057 57.5973L15.2457 16.345C12.6857 15.7557 10.7657 17.1869 8.20568 19.8809C3.72567 24.5955 2.23233 31.2744 1.80566 35.7925C1.80566 45.2216 2.44567 46.9896 4.36567 51.1148Z" fill="black" fill-opacity="0.2"/>
<path d="M35.7498 38.1549C40.2896 10.2516 7.97433 3.26858 5.52813 35.1799C-4.02371 68.8605 45.7133 61.4288 35.7498 38.1549Z" stroke="#FFFF93" stroke-width="7"/>
<path d="M60.686 18.7022C66.318 22.9453 76.2593 24.0061 80.526 24.0061L83.726 7.50518C73.486 6.32661 67.726 6.91588 63.246 7.5052C58.638 8.91956 57.6993 10.6482 57.486 11.6304C56.4619 14.4592 59.1926 17.72 60.686 18.7022Z" fill="#A6FF4F"/>
<path d="M67.0853 24.0062C55.5653 19.2916 55.5652 16.9344 56.2052 12.2198C57.2292 8.44823 62.1786 7.50527 64.5253 7.50525C58.3813 7.9767 57.272 12.4162 57.4853 14.5771C59.5333 21.6489 73.6987 23.8098 80.5254 24.0062C77.9654 11.7484 84.152 6.32666 87.5654 5.14801C92.1734 4.67655 96.3121 4.95157 97.8054 5.14801C104.973 6.09092 111.459 12.2198 113.805 15.1664C115.853 17.5237 115.939 20.8632 115.725 22.2383C115.725 25.067 111.885 27.7386 109.965 28.7208C106.893 31.0781 98.0187 30.8816 93.9654 30.4887C86.7974 30.4887 73.0586 26.1671 67.0853 24.0062Z" fill="#9FD946"/>
<path d="M106.766 15.7557C107.278 13.8699 103.993 13.3984 102.286 13.3984L101.006 15.7557L102.926 17.5237C103.95 17.9951 105.059 17.7201 105.486 17.5237C106.766 16.9344 106.606 16.345 106.766 15.7557Z" fill="#D4FE81"/>
<path d="M96.5257 18.7023C96.0137 16.8164 96.739 15.1663 97.1657 14.577L100.366 15.7557C101.39 16.2271 101.219 17.9165 101.006 18.7023C101.006 19.6452 99.7257 19.8809 99.0857 19.8809C97.0377 19.8809 96.5257 19.0951 96.5257 18.7023Z" fill="#D4FE81"/>
<path d="M104.206 9.27321C102.67 7.85884 100.579 9.86253 99.7256 11.0412L102.286 13.3984C105.486 11.6305 105.486 11.6305 105.486 11.0412C105.486 9.86253 104.632 9.66608 104.206 9.27321Z" fill="#D4FE81"/>
<path d="M94.6055 9.86253C94.6055 10.8054 95.8855 12.2198 96.5255 12.8091L99.7255 11.0412C99.7255 10.0983 98.8721 9.07678 98.4455 8.68389C97.4215 7.74098 95.8855 7.89813 95.2455 8.09457C94.6055 8.68389 94.6055 8.68389 94.6055 9.86253Z" fill="#D4FE81"/>
<path d="M91.9717 13.4981C92.6863 12.3195 95.1717 12.123 96.4517 12.3194L97.7317 14.6767C97.2197 15.6197 95.8117 16.2483 95.1717 16.4447C93.6357 16.9162 92.3983 16.2483 91.9717 15.8554C90.9477 14.9125 91.545 13.891 91.9717 13.4981Z" fill="#D4FE81"/>
<path d="M96.5264 12.8091C97.0384 10.9233 98.873 10.8447 99.7264 11.0412C102.286 11.9841 102.286 13.0147 102.286 13.3984C102.286 15.1664 101.646 15.461 101.006 15.7557C99.9824 16.2272 98.4464 15.5593 97.8064 15.1664C96.7824 14.6949 96.5264 13.3984 96.5264 12.8091Z" fill="#F4FC57"/>
<path d="M5.64551 35.2032C8.20551 15.8735 17.8055 13.9878 22.9256 14.577C34.7016 14.577 36.3656 30.2922 35.7256 38.1498C25.4856 25.7741 12.6855 31.078 5.64551 35.2032Z" fill="#A2FF4F"/>
<path d="M5.64595 49.347C4.10994 43.6895 5.00598 37.3641 5.64598 35.2032C21.006 24.3597 31.886 32.4531 35.726 38.1498C36.366 41.0963 37.006 42.8643 36.366 47.5789C36.366 51.7041 32.0994 55.0437 30.606 55.8295C25.998 57.7153 20.5793 57.7939 18.446 57.5974C11.278 57.5974 6.92596 52.0971 5.64595 49.347Z" fill="#9ED546"/>
<path d="M22.9252 48.7576C21.3892 48.2862 20.5786 46.2039 20.3652 45.2217L23.5652 44.0431C26.1252 44.986 26.7653 46.0075 26.7653 46.4004C27.2773 47.8147 26.5519 48.5612 26.1252 48.7576C25.1012 49.2291 23.5652 48.9541 22.9252 48.7576Z" fill="#DAFF87"/>
<path d="M19.3961 36.0683C17.6741 36.5676 18.6786 40.0214 19.3961 41.6858L22.9838 41.0616C24.1318 37.0669 23.4143 36.5676 22.2663 36.0683C21.1182 35.569 19.8745 35.8603 19.3961 36.0683Z" fill="#DAFF87"/>
<path d="M15.8856 39.3285C16.9096 38.8571 18.4456 40.3107 19.0856 41.0965V44.0431C17.1657 44.6324 17.1656 44.6324 14.6056 43.4538C13.3256 42.2751 13.7523 40.7036 13.9656 40.5072C14.4776 39.5643 15.459 39.3285 15.8856 39.3285Z" fill="#DAFF87"/>
<path d="M14.6054 45.811C15.6294 44.3967 17.5921 44.0431 18.4455 44.0431L20.3655 45.2217C19.7255 46.9897 19.2988 46.9897 18.4455 48.1683C17.4215 49.5827 15.4588 49.347 14.6054 48.7576C13.5814 47.3433 14.1788 46.2039 14.6054 45.811Z" fill="#DAFF87"/>
<path d="M28.0461 40.2337C26.5101 38.3479 23.5661 39.8408 22.2861 40.823L22.9261 43.7695C26.5101 44.7124 28.2595 43.3767 28.6861 42.5909C29.1982 41.648 28.4728 40.6265 28.0461 40.2337Z" fill="#DAFF87"/>
<path d="M18.4453 42.8644C18.4453 40.9785 20.152 40.5071 21.0053 40.5071C23.0533 40.5071 23.5653 42.0786 23.5653 42.8644C23.5653 45.2216 21.432 45.4181 20.3653 45.2216C18.8293 45.2216 18.4453 43.6501 18.4453 42.8644Z" fill="#F2FA4D"/>
</svg>
