<svg width="57" height="49" viewBox="0 0 57 49" fill="none" xmlns="http://www.w3.org/2000/svg">
<g clip-path="url(#clip0)">
<path d="M44.0642 0.298313L15.9418 8.6031C15.3709 8.78242 14.8721 9.13913 14.5179 9.62138C14.1637 10.1036 13.9725 10.6863 13.9722 11.2846V34.2601C13.0512 34.0366 12.1074 33.921 11.1597 33.9156C6.50146 33.9156 2.72217 36.4345 2.72217 39.5406C2.72217 42.6467 6.50146 45.1656 11.1597 45.1656C15.8179 45.1656 19.5972 42.6467 19.5972 39.5406V19.0023L42.0972 12.4105V28.636C41.1763 28.4117 40.2324 28.2958 39.2847 28.2906C34.6265 28.2906 30.8472 30.8095 30.8472 33.9156C30.8472 37.0217 34.6265 39.5406 39.2847 39.5406C43.9429 39.5406 47.7222 37.0225 47.7222 33.9156V2.9781C47.7218 2.53657 47.6174 2.10134 47.4175 1.70764C47.2177 1.31393 46.9279 0.972814 46.5718 0.711885C46.2156 0.450956 45.803 0.27755 45.3673 0.205701C44.9317 0.133852 44.4853 0.165579 44.0642 0.298313V0.298313Z" fill="#BCB186"/>
</g>
<defs>
<clipPath id="clip0">
<rect width="45" height="45" fill="white" transform="translate(2.72217 0.165527)"/>
</clipPath>
</defs>
</svg>
