<svg width="58" height="49" viewBox="0 0 58 49" fill="none" xmlns="http://www.w3.org/2000/svg">
<g clip-path="url(#clip0)">
<path d="M44.3918 0.81467L16.2694 9.11946C15.6986 9.29878 15.1998 9.65549 14.8456 10.1377C14.4913 10.62 14.3002 11.2026 14.2998 11.801V34.7765C13.3788 34.5529 12.435 34.4373 11.4873 34.432C6.8291 34.432 3.0498 36.9509 3.0498 40.057C3.0498 43.163 6.8291 45.682 11.4873 45.682C16.1455 45.682 19.9248 43.163 19.9248 40.057V19.5187L42.4248 12.9269V29.1524C41.504 28.9281 40.5601 28.8121 39.6123 28.807C34.9541 28.807 31.1748 31.3259 31.1748 34.432C31.1748 37.538 34.9541 40.057 39.6123 40.057C44.2705 40.057 48.0498 37.5389 48.0498 34.432V3.49446C48.0494 3.05293 47.945 2.6177 47.7452 2.224C47.5453 1.83029 47.2556 1.48917 46.8994 1.22824C46.5432 0.967314 46.1306 0.793908 45.695 0.722059C45.2593 0.65021 44.8129 0.681936 44.3918 0.81467V0.81467Z" fill="#584737"/>
</g>
<defs>
<clipPath id="clip0">
<rect width="45" height="45" fill="white" transform="translate(3.0498 0.681885)"/>
</clipPath>
</defs>
</svg>
