<svg width="57" height="49" viewBox="0 0 57 49" fill="none" xmlns="http://www.w3.org/2000/svg">
<g clip-path="url(#clip0)">
<path d="M43.9357 0.220432L15.8134 8.52522C15.2425 8.70454 14.7437 9.06125 14.3895 9.5435C14.0353 10.0257 13.8441 10.6084 13.8438 11.2068V34.1823C12.9228 33.9587 11.9789 33.8431 11.0312 33.8377C6.37305 33.8377 2.59375 36.3567 2.59375 39.4627C2.59375 42.5688 6.37305 45.0877 11.0312 45.0877C15.6895 45.0877 19.4688 42.5688 19.4688 39.4627V18.9244L41.9688 12.3326V28.5581C41.0479 28.3338 40.104 28.2179 39.1562 28.2127C34.498 28.2127 30.7188 30.7317 30.7188 33.8377C30.7188 36.9438 34.498 39.4627 39.1562 39.4627C43.8145 39.4627 47.5938 36.9447 47.5938 33.8377V2.90022C47.5933 2.45869 47.489 2.02346 47.2891 1.62976C47.0893 1.23605 46.7995 0.894933 46.4434 0.634004C46.0872 0.373075 45.6746 0.199669 45.2389 0.12782C44.8033 0.0559714 44.3568 0.0876979 43.9357 0.220432Z" fill="#BCB186"/>
</g>
<path d="M0.0766602 43.0973L53.3215 5.81482L55.0423 8.27228L1.79739 45.5547L0.0766602 43.0973Z" fill="#BCB186"/>
<path d="M1.771 45.514L54.9988 8.24353L56.7666 10.7683L3.53884 48.0388L1.771 45.514Z" fill="#EED49B"/>
<defs>
<clipPath id="clip0">
<rect width="45" height="45" fill="white" transform="translate(2.59375 0.0876465)"/>
</clipPath>
</defs>
</svg>
