<svg width="57" height="49" viewBox="0 0 57 49" fill="none" xmlns="http://www.w3.org/2000/svg">
<g clip-path="url(#clip0)">
<path d="M43.9357 0.193088L15.8134 8.49787C15.2425 8.6772 14.7437 9.03391 14.3895 9.51616C14.0353 9.99841 13.8441 10.5811 13.8438 11.1794V34.1549C12.9228 33.9314 11.9789 33.8157 11.0312 33.8104C6.37305 33.8104 2.59375 36.3293 2.59375 39.4354C2.59375 42.5414 6.37305 45.0604 11.0312 45.0604C15.6895 45.0604 19.4688 42.5414 19.4688 39.4354V18.8971L41.9688 12.3053V28.5308C41.0479 28.3065 40.104 28.1905 39.1562 28.1854C34.498 28.1854 30.7188 30.7043 30.7188 33.8104C30.7188 36.9164 34.498 39.4354 39.1562 39.4354C43.8145 39.4354 47.5938 36.9173 47.5938 33.8104V2.87287C47.5933 2.43135 47.489 1.99612 47.2891 1.60241C47.0893 1.20871 46.7995 0.867589 46.4434 0.60666C46.0872 0.345732 45.6746 0.172326 45.2389 0.100477C44.8033 0.0286277 44.3568 0.0603541 43.9357 0.193088Z" fill="#584737"/>
</g>
<path d="M0.0766602 43.0699L53.3215 5.78748L55.0423 8.24493L1.79739 45.5274L0.0766602 43.0699Z" fill="#584737"/>
<path d="M1.771 45.4867L54.9988 8.21619L56.7666 10.7409L3.53884 48.0114L1.771 45.4867Z" fill="#EED49B"/>
<defs>
<clipPath id="clip0">
<rect width="45" height="45" fill="white" transform="translate(2.59375 0.0603027)"/>
</clipPath>
</defs>
</svg>
