<svg width="97" height="128" viewBox="0 0 97 128" fill="none" xmlns="http://www.w3.org/2000/svg">
<path d="M83.4114 39.7576L41.7315 44.192L41.1318 120.828L78.57 127.729L83.4114 39.7576Z" fill="#C55B05"/>
<path d="M80.2645 42.2407C75.3325 41.3372 53.8729 44.0981 43.6701 45.7797C41.7079 44.8483 41.8774 92.7592 42.2074 116.831C53.7554 122.353 69.2423 124.039 75.5423 124.192C78.7597 124.168 80.031 69.548 80.2645 42.2407Z" fill="#F69F58"/>
<path d="M70.966 55.4889C67.7973 43.1742 58.4713 46.679 55.0146 50.0877C49.3253 55.2729 51.1977 71.1524 61.532 70.3242C70.1921 69.6301 71.6113 60.42 70.966 55.4889Z" fill="#C9AC8E"/>
<path d="M68.9742 50.6749L67.4836 52.1877C69.7497 57.1571 68.4385 61.6732 67.4127 63.3732C61.511 72.0874 56.0392 66.8633 53.9533 63.4442L52.7744 64.2983C56.0807 71.8347 62.0812 70.7748 64.5309 69.6692C73.1092 66.0326 71.9267 54.0045 68.9742 50.6749Z" fill="#A57C5C"/>
<path d="M56.6953 50.3481C51.5929 54.2651 52.7868 60.8063 54.0216 63.5873C56.8885 68.5802 61.9459 70.2553 66.4556 64.7792C70.0634 60.3983 68.7105 54.6645 67.583 52.3452C66.0798 50.0474 61.7977 46.4311 56.6953 50.3481Z" fill="#5A6362"/>
<path d="M56.2439 59.056C55.944 58.9254 54.0573 60.0467 53.1514 60.6236C54.106 67.3416 60.7256 66.1252 63.9161 64.6773C68.65 62.0539 68.9241 57.2139 68.4694 55.1218C66.9382 54.555 65.6601 55.2804 65.2124 55.714C65.5085 56.6784 65.5199 58.4871 65.4886 59.2709C65.2948 60.657 64.1005 63.5114 60.8738 63.8407C56.8404 64.2522 56.6188 59.2191 56.2439 59.056Z" fill="#848685"/>
<path d="M64.0615 64.6154C68.0247 62.3567 68.7623 58.0669 68.6356 56.2043C69.6816 64.4086 63.4304 68.1368 60.9047 68.1368C57.0737 68.4129 54.6149 64.9175 53.8644 63.1354C53.8342 63.0642 53.8974 63.0483 53.9327 63.0492C55.8522 67.1096 61.485 65.7852 64.0615 64.6154Z" fill="#989C9D"/>
<path d="M78.5479 127.749L83.4007 39.7803L96.1984 48.7439L94.2435 113.426L78.5479 127.749Z" fill="#9A4600"/>
<path d="M61.0645 52.7317C56.6485 53.3559 56.1097 57.5152 56.3799 59.2942C57.4027 64.9594 61.2647 64.1227 63.0679 62.9962C65.1621 60.8885 65.7836 59.5914 65.3108 56.3758C64.9324 53.8033 62.3939 52.8126 61.0645 52.7317Z" fill="#5A6662"/>
<path d="M61.0497 53.4854C57.8318 53.8444 56.9583 57.2027 56.9238 58.8369C57.5315 62.7314 60.1923 63.2102 61.4467 62.9627C63.9326 62.1203 64.6692 59.5274 64.7267 58.3363C64.9063 54.5522 62.3502 53.5256 61.0497 53.4854Z" fill="#B1B3B2"/>
<path d="M56.9834 59.1449C57.0655 63.2023 63.237 65.3304 64.5925 59.1449C60.8725 63.9326 57.9698 61.1398 56.9834 59.1449Z" fill="#737979"/>
<path d="M63.7831 56.8081C60.1513 54.1599 58.6489 57.9115 58.3517 60.1183C56.5683 56.6595 58.6174 54.7679 59.8649 54.2545C62.7941 53.4763 63.6976 55.6326 63.7831 56.8081Z" fill="#E3E7EA"/>
<path d="M62.8172 56.2184C62.4466 60.1842 59.7124 61.0203 58.3916 60.9426C60.5456 62.9051 62.9961 61.0519 63.952 59.88C64.7931 59.1836 64.7409 57.6132 64.6096 56.9151C64.4425 55.0292 62.7575 54.1522 61.9359 53.9495C63.332 54.714 63.739 56.1733 63.7679 56.8073L62.8172 56.2184Z" fill="#A2A2A2"/>
<path d="M74.9058 90.4108C70.1529 71.938 56.1642 77.1953 50.9792 82.3087C42.4456 90.0867 45.2541 113.907 60.7551 112.665C73.745 111.624 75.8737 97.8079 74.9058 90.4108Z" fill="#C9AC8E"/>
<path d="M71.9172 83.1897L69.6813 85.4589C73.0804 92.9134 71.1136 99.6878 69.575 102.238C60.7227 115.31 52.5152 107.473 49.3865 102.344L47.6182 103.626C52.5775 114.931 61.578 113.341 65.2525 111.682C78.1195 106.227 76.3459 88.1843 71.9172 83.1897Z" fill="#A57C5C"/>
<path d="M53.4983 82.6994C45.8449 88.5752 47.6358 98.3875 49.488 102.559C53.7882 110.049 61.374 112.562 68.1384 104.347C73.55 97.7755 71.5206 89.1744 69.8295 85.6953C67.5747 82.2484 61.1517 76.8236 53.4983 82.6994Z" fill="#5A6362"/>
<path d="M52.8223 95.7618C52.3724 95.566 49.5424 97.2479 48.1836 98.1133C49.6156 108.191 59.5447 106.366 64.3303 104.194C71.4309 100.259 71.8421 92.9986 71.16 89.8603C68.8633 89.0101 66.9462 90.0982 66.2747 90.7486C66.7188 92.1953 66.7359 94.9085 66.689 96.0842C66.3983 98.1634 64.6069 102.445 59.7669 102.939C53.7169 103.557 53.3846 96.0065 52.8223 95.7618Z" fill="#848685"/>
<path d="M64.5494 104.101C70.494 100.713 71.6003 94.278 71.4104 91.484C72.9792 103.791 63.6027 109.383 59.8142 109.383C54.0679 109.798 50.3799 104.554 49.2541 101.881C49.2088 101.774 49.3036 101.75 49.3566 101.752C52.2357 107.843 60.6847 105.856 64.5494 104.101Z" fill="#989C9D"/>
<path d="M60.0516 86.2749C53.4279 87.2113 52.6197 93.4505 53.025 96.1191C54.559 104.617 60.352 103.362 63.0567 101.672C66.1979 98.5106 67.1302 96.5649 66.4209 91.7413C65.8534 87.8824 62.0457 86.3963 60.0516 86.2749Z" fill="#5A6662"/>
<path d="M60.0304 87.4053C55.2037 87.9439 53.8935 92.9815 53.8418 95.4329C54.7532 101.275 58.7444 101.993 60.626 101.622C64.3547 100.358 65.4595 96.4688 65.5458 94.682C65.8151 89.0056 61.9811 87.4657 60.0304 87.4053Z" fill="#B1B3B2"/>
<path d="M53.9307 95.895C54.0538 101.981 63.3108 105.174 65.344 95.895C59.7642 103.077 55.4102 98.8875 53.9307 95.895Z" fill="#737979"/>
<path d="M64.131 92.3898C58.6834 88.4174 56.4299 94.045 55.9841 97.3554C53.309 92.1669 56.3827 89.3294 58.2539 88.5593C62.6476 87.3919 64.0026 90.6266 64.131 92.3898Z" fill="#E3E7EA"/>
<path d="M62.6832 91.5051C62.1273 97.4541 58.0261 98.7083 56.0449 98.5917C59.2759 101.536 62.9514 98.7557 64.3853 96.9977C65.647 95.9531 65.5686 93.5974 65.3717 92.5502C65.1211 89.7213 62.5937 88.4057 61.3613 88.1016C63.4554 89.2484 64.0658 91.4374 64.1092 92.3885L62.6832 91.5051Z" fill="#A2A2A2"/>
<g clip-path="url(#clip0)">
<path d="M47.4277 13.7107L33.1753 17.8648C32.886 17.9545 32.6332 18.1329 32.4537 18.3741C32.2742 18.6153 32.1773 18.9068 32.1771 19.2061V30.6985C31.7103 30.5867 31.232 30.5288 30.7517 30.5261C28.3909 30.5261 26.4756 31.7861 26.4756 33.3398C26.4756 34.8934 28.3909 36.1534 30.7517 36.1534C33.1125 36.1534 35.0278 34.8934 35.0278 33.3398V23.0665L46.4308 19.7693V27.8853C45.9641 27.7731 45.4858 27.7151 45.0054 27.7125C42.6447 27.7125 40.7293 28.9725 40.7293 30.5261C40.7293 32.0798 42.6447 33.3398 45.0054 33.3398C47.3662 33.3398 49.2816 32.0802 49.2816 30.5261V15.0511C49.2814 14.8303 49.2285 14.6126 49.1272 14.4157C49.0259 14.2187 48.8791 14.0481 48.6986 13.9176C48.518 13.7871 48.3089 13.7003 48.0881 13.6644C47.8674 13.6284 47.6411 13.6443 47.4277 13.7107V13.7107Z" fill="#584737"/>
</g>
<g clip-path="url(#clip1)">
<path d="M22.5097 0.980237L8.25732 5.13431C7.96801 5.22401 7.71522 5.40243 7.53571 5.64366C7.35619 5.88488 7.2593 6.17632 7.25911 6.47562V17.968C6.79237 17.8562 6.31403 17.7984 5.83374 17.7957C3.47296 17.7957 1.55762 19.0557 1.55762 20.6093C1.55762 22.163 3.47296 23.423 5.83374 23.423C8.19452 23.423 10.1099 22.163 10.1099 20.6093V10.336L21.5129 7.03879V15.1548C21.0462 15.0426 20.5678 14.9846 20.0875 14.982C17.7267 14.982 15.8114 16.242 15.8114 17.7957C15.8114 19.3493 17.7267 20.6093 20.0875 20.6093C22.4483 20.6093 24.3636 19.3498 24.3636 17.7957V2.32067C24.3634 2.09982 24.3105 1.88212 24.2092 1.68519C24.1079 1.48825 23.9611 1.31762 23.7806 1.18711C23.6001 1.05659 23.391 0.969852 23.1702 0.933913C22.9494 0.897974 22.7231 0.913844 22.5097 0.980237V0.980237Z" fill="#584737"/>
</g>
<defs>
<clipPath id="clip0">
<rect width="22.806" height="22.5091" fill="white" transform="translate(26.4756 13.644)"/>
</clipPath>
<clipPath id="clip1">
<rect width="22.806" height="22.5091" fill="white" transform="translate(1.55762 0.913574)"/>
</clipPath>
</defs>
</svg>
