<svg width="101" height="132" viewBox="0 0 101 132" fill="none" xmlns="http://www.w3.org/2000/svg">
<path d="M78.7331 127.565L41.3535 120.568L41.8973 43.8551L83.676 39.4331L96.4526 48.5909L94.5476 113.14L78.7331 127.565Z" stroke="#FFFF93" stroke-width="7"/>
<path d="M83.6086 39.5123L41.9288 43.9467L41.3291 120.582L78.7673 127.483L83.6086 39.5123Z" fill="#C55B05"/>
<path d="M80.4617 41.9954C75.5297 41.0918 54.0701 43.8527 43.8674 45.5343C41.9052 44.603 42.0747 92.5138 42.4047 116.586C53.9527 122.107 69.4396 123.794 75.7395 123.947C78.957 123.923 80.2283 69.3026 80.4617 41.9954Z" fill="#F69F58"/>
<path d="M71.1633 55.2434C67.9946 42.9287 58.6686 46.4335 55.2118 49.8422C49.5226 55.0274 51.395 70.9069 61.7292 70.0787C70.3894 69.3847 71.8085 60.1746 71.1633 55.2434Z" fill="#C9AC8E"/>
<path d="M69.1714 50.4296L67.6808 51.9423C69.9469 56.9117 68.6357 61.4278 67.61 63.1279C61.7083 71.8421 56.2365 66.618 54.1506 63.1988L52.9717 64.053C56.278 71.5893 62.2784 70.5294 64.7282 69.4238C73.3064 65.7872 72.124 53.7592 69.1714 50.4296Z" fill="#A57C5C"/>
<path d="M56.8925 50.1027C51.7901 54.0197 52.9841 60.561 54.2189 63.342C57.0858 68.3349 62.1431 70.0099 66.6529 64.5338C70.2606 60.153 68.9077 54.4192 67.7803 52.0999C66.277 49.8021 61.9949 46.1857 56.8925 50.1027Z" fill="#5A6362"/>
<path d="M56.4412 58.8105C56.1413 58.68 54.2545 59.8012 53.3486 60.3781C54.3033 67.0961 60.9229 65.8798 64.1134 64.4318C68.8473 61.8085 69.1214 56.9684 68.6667 54.8763C67.1355 54.3095 65.8573 55.035 65.4097 55.4685C65.7058 56.4329 65.7172 58.2416 65.6859 59.0254C65.4921 60.4115 64.2978 63.2659 61.0711 63.5952C57.0376 64.0067 56.8161 58.9736 56.4412 58.8105Z" fill="#848685"/>
<path d="M64.2588 64.37C68.222 62.1113 68.9595 57.8215 68.8329 55.959C69.8788 64.1632 63.6276 67.8914 61.1019 67.8914C57.2709 68.1675 54.8122 64.6722 54.0617 62.89C54.0314 62.8188 54.0946 62.8029 54.13 62.8038C56.0495 66.8642 61.6823 65.5398 64.2588 64.37Z" fill="#989C9D"/>
<path d="M78.7451 127.503L83.598 39.5348L96.3957 48.4984L94.4407 113.181L78.7451 127.503Z" fill="#9A4600"/>
<path d="M61.2617 52.4863C56.8458 53.1106 56.307 57.2699 56.5772 59.0488C57.5999 64.714 61.462 63.8773 63.2652 62.7508C65.3594 60.6431 65.9809 59.3461 65.508 56.1304C65.1297 53.5579 62.5912 52.5672 61.2617 52.4863Z" fill="#5A6662"/>
<path d="M61.2469 53.24C58.0291 53.5991 57.1556 56.9573 57.1211 58.5915C57.7287 62.486 60.3896 62.9648 61.644 62.7174C64.1299 61.875 64.8664 59.282 64.924 58.0909C65.1035 54.3068 62.5474 53.2803 61.2469 53.24Z" fill="#B1B3B2"/>
<path d="M57.1807 58.8994C57.2628 62.9568 63.4342 65.0849 64.7898 58.8994C61.0698 63.6871 58.167 60.8943 57.1807 58.8994Z" fill="#737979"/>
<path d="M63.9804 56.5627C60.3486 53.9146 58.8462 57.6661 58.549 59.873C56.7655 56.4141 58.8147 54.5226 60.0622 54.0091C62.9914 53.2309 63.8948 55.3873 63.9804 56.5627Z" fill="#E3E7EA"/>
<path d="M63.0145 55.9729C62.6439 59.9388 59.9097 60.7748 58.5889 60.6971C60.7429 62.6596 63.1933 60.8064 64.1493 59.6345C64.9904 58.9381 64.9381 57.3677 64.8069 56.6696C64.6398 54.7837 62.9548 53.9067 62.1332 53.704C63.5293 54.4685 63.9362 55.9278 63.9652 56.5618L63.0145 55.9729Z" fill="#A2A2A2"/>
<path d="M75.1021 90.1653C70.3492 71.6925 56.3605 76.9498 51.1755 82.0632C42.6419 89.8413 45.4504 113.662 60.9514 112.419C73.9413 111.378 76.07 97.5624 75.1021 90.1653Z" fill="#C9AC8E"/>
<path d="M72.1144 82.9443L69.8786 85.2136C73.2777 92.668 71.3109 99.4424 69.7723 101.993C60.92 115.065 52.7125 107.228 49.5838 102.099L47.8154 103.38C52.7747 114.685 61.7752 113.095 65.4498 111.437C78.3168 105.982 76.5431 87.939 72.1144 82.9443Z" fill="#A57C5C"/>
<path d="M53.6965 82.4541C46.0431 88.3298 47.8341 98.1422 49.6862 102.314C53.9864 109.804 61.5723 112.316 68.3367 104.102C73.7482 97.5301 71.7189 88.929 70.0278 85.4499C67.7729 82.0031 61.3499 76.5783 53.6965 82.4541Z" fill="#5A6362"/>
<path d="M53.0196 95.5164C52.5697 95.3206 49.7397 97.0025 48.3809 97.868C49.8128 107.945 59.742 106.121 64.5275 103.949C71.6282 100.014 72.0393 92.7532 71.3573 89.6149C69.0606 88.7647 67.1434 89.8529 66.472 90.5032C66.9161 91.9499 66.9332 94.6631 66.8862 95.8389C66.5956 97.918 64.8042 102.2 59.9642 102.694C53.9142 103.311 53.5819 95.7612 53.0196 95.5164Z" fill="#848685"/>
<path d="M64.7476 103.856C70.6923 100.468 71.7986 94.0326 71.6086 91.2386C73.1775 103.546 63.8009 109.138 60.0125 109.138C54.2661 109.552 50.5781 104.309 49.4524 101.636C49.407 101.529 49.5018 101.505 49.5549 101.506C52.434 107.597 60.883 105.61 64.7476 103.856Z" fill="#989C9D"/>
<path d="M60.2498 86.0295C53.6261 86.966 52.8179 93.2051 53.2232 95.8737C54.7573 104.372 60.5502 103.117 63.2549 101.427C66.3962 98.2653 67.3284 96.3196 66.6191 91.4959C66.0516 87.637 62.244 86.1509 60.2498 86.0295Z" fill="#5A6662"/>
<path d="M60.2276 87.1599C55.401 87.6985 54.0908 92.7361 54.0391 95.1876C54.9505 101.03 58.9416 101.748 60.8233 101.377C64.552 100.113 65.6568 96.2234 65.7431 94.4366C66.0124 88.7603 62.1783 87.2203 60.2276 87.1599Z" fill="#B1B3B2"/>
<path d="M54.1279 95.6497C54.2511 101.736 63.5081 104.928 65.5413 95.6497C59.9615 102.832 55.6075 98.6421 54.1279 95.6497Z" fill="#737979"/>
<path d="M64.3292 92.1445C58.8817 88.172 56.6282 93.7996 56.1823 97.11C53.5072 91.9215 56.5809 89.0841 58.4521 88.3139C62.8458 87.1465 64.2009 90.3812 64.3292 92.1445Z" fill="#E3E7EA"/>
<path d="M62.8814 91.2598C62.3255 97.2088 58.2243 98.4629 56.2432 98.3464C59.4741 101.29 63.1497 98.5103 64.5836 96.7524C65.8452 95.7077 65.7668 93.3521 65.5699 92.3048C65.3193 89.4759 62.7919 88.1604 61.5595 87.8562C63.6536 89.0031 64.264 91.192 64.3075 92.1432L62.8814 91.2598Z" fill="#A2A2A2"/>
<g clip-path="url(#clip0)">
<path d="M47.624 13.4655L33.3716 17.6195C33.0823 17.7092 32.8295 17.8877 32.65 18.1289C32.4704 18.3701 32.3736 18.6616 32.3734 18.9609V30.4532C31.9066 30.3414 31.4283 30.2836 30.948 30.2809C28.5872 30.2809 26.6719 31.5409 26.6719 33.0945C26.6719 34.6482 28.5872 35.9082 30.948 35.9082C33.3088 35.9082 35.2241 34.6482 35.2241 33.0945V22.8213L46.6271 19.524V27.64C46.1604 27.5278 45.6821 27.4699 45.2017 27.4673C42.841 27.4673 40.9256 28.7273 40.9256 30.2809C40.9256 31.8346 42.841 33.0945 45.2017 33.0945C47.5625 33.0945 49.4779 31.835 49.4779 30.2809V14.8059C49.4777 14.585 49.4248 14.3673 49.3235 14.1704C49.2222 13.9735 49.0753 13.8029 48.8948 13.6723C48.7143 13.5418 48.5052 13.4551 48.2844 13.4191C48.0637 13.3832 47.8374 13.3991 47.624 13.4655V13.4655Z" fill="#584737"/>
</g>
<g clip-path="url(#clip1)">
<path d="M22.707 0.734754L8.45459 4.88883C8.16528 4.97852 7.91249 5.15695 7.73297 5.39817C7.55345 5.63939 7.45656 5.93084 7.45638 6.23014V17.7225C6.98964 17.6107 6.51129 17.5529 6.03101 17.5502C3.67023 17.5502 1.75488 18.8102 1.75488 20.3638C1.75488 21.9175 3.67023 23.1775 6.03101 23.1775C8.39178 23.1775 10.3071 21.9175 10.3071 20.3638V10.0905L21.7101 6.79331V14.9093C21.2434 14.7971 20.7651 14.7391 20.2847 14.7366C17.924 14.7366 16.0086 15.9965 16.0086 17.5502C16.0086 19.1039 17.924 20.3638 20.2847 20.3638C22.6455 20.3638 24.5609 19.1043 24.5609 17.5502V2.07519C24.5607 1.85434 24.5078 1.63663 24.4065 1.4397C24.3052 1.24277 24.1584 1.07214 23.9778 0.941624C23.7973 0.811107 23.5882 0.724369 23.3674 0.68843C23.1467 0.65249 22.9204 0.66836 22.707 0.734754V0.734754Z" fill="#584737"/>
</g>
<defs>
<clipPath id="clip0">
<rect width="22.806" height="22.5091" fill="white" transform="translate(26.6719 13.3988)"/>
</clipPath>
<clipPath id="clip1">
<rect width="22.806" height="22.5091" fill="white" transform="translate(1.75488 0.668091)"/>
</clipPath>
</defs>
</svg>
