<svg width="452" height="252" viewBox="0 0 452 252" fill="none" xmlns="http://www.w3.org/2000/svg">
<path d="M122.101 55.3783L115.597 70.7457L278.217 97.6385L274.964 92.5161L272.796 88.6743H270.628V86.113L266.291 82.2712V79.71L263.039 77.1487V73.3069L260.871 68.1845L257.618 65.6232L256.534 63.062L252.198 55.3783V52.8171L247.861 50.2559L243.525 43.8528V38.7304L241.356 36.1692L235.936 33.6079L233.767 28.4855V25.9243L227.263 19.5212L222.926 16.96L218.589 11.8375C217.867 10.5569 216.421 7.48344 216.421 5.43446C216.421 3.38548 209.916 2.87324 206.664 2.87324L200.159 0.312012L191.486 1.59262H177.392L173.056 5.43446H165.467L161.13 13.1181H156.794L150.289 22.0824L143.784 28.4855L137.279 40.011L122.101 55.3783Z" fill="url(#paint0_linear)"/>
<path d="M122.102 61.7814L121.018 68.1845L270.628 95.0773V91.2355L268.46 86.113H266.292L263.039 80.9906L259.787 77.1488L257.619 75.8681L255.45 73.3069L254.366 69.4651L253.282 64.3426V63.062C252.198 62.6352 249.813 61.7814 248.945 61.7814C248.078 61.7814 247.139 58.3664 246.777 56.659H243.525V51.5365L242.441 47.6947L240.272 43.8528L237.02 42.5722L235.936 38.7304L232.683 34.8886L229.431 33.6079L227.263 31.0467V27.2049L224.01 24.6437L220.758 20.8018V19.5212L216.421 14.3988H212.085V11.8375L207.748 9.27631H202.328L200.159 6.71509H195.823H193.655L191.486 9.27631L186.066 6.71509H179.561L176.308 9.27631H170.888L168.719 11.8375L166.551 14.3988H163.299L160.046 18.2406L154.626 23.363L150.289 27.2049L148.121 31.0467L144.869 33.6079L142.7 37.4498H140.532V43.8528H136.195L134.027 48.9753L128.607 51.5365V54.0977L125.354 57.9396L122.102 61.7814Z" fill="url(#paint1_radial)"/>
<path d="M132.943 61.7814L128.606 66.9039L241.356 82.2712V75.8682V72.0263L235.936 70.7457C235.936 69.892 235.719 67.9284 234.852 66.9039C233.768 65.6233 233.768 64.3426 232.683 61.7814C231.816 59.7324 229.431 60.9277 228.347 61.7814L226.179 59.2202L221.842 57.9396L220.758 54.0977L213.169 51.5365V47.6947H206.664H200.159L196.907 45.1335L191.486 41.2916H186.066H176.308H167.635L160.046 43.8529L157.878 45.1335H148.121L143.784 51.5365L139.448 54.0977L132.943 61.7814Z" fill="url(#paint2_linear)"/>
<line y1="-0.5" x2="33.3664" y2="-0.5" transform="matrix(-0.0649835 -0.997886 0.995897 -0.0904911 149.205 64.3427)" stroke="url(#paint3_linear)"/>
<line y1="-0.5" x2="27.0409" y2="-0.5" transform="matrix(-0.320739 -0.947167 0.904154 -0.427206 141.616 74.5875)" stroke="url(#paint4_linear)"/>
<line y1="-0.5" x2="43.5948" y2="-0.5" transform="matrix(-0.0497369 -0.998762 0.997595 -0.069317 161.13 61.7814)" stroke="url(#paint5_linear)"/>
<line x1="177.977" y1="61.7814" x2="177.977" y2="7.99566" stroke="url(#paint6_linear)"/>
<line y1="-0.5" x2="54.4805" y2="-0.5" transform="matrix(0.159196 -0.987247 0.975611 0.219509 189.318 59.2202)" stroke="url(#paint7_linear)"/>
<line y1="-0.5" x2="54.4805" y2="-0.5" transform="matrix(0.159196 -0.987247 0.975611 0.219509 204.496 61.7814)" stroke="url(#paint8_linear)"/>
<line y1="-0.5" x2="41.3079" y2="-0.5" transform="matrix(0.367433 -0.93005 0.875757 0.482753 215.337 66.9039)" stroke="url(#paint9_linear)"/>
<line y1="-0.5" x2="25.4732" y2="-0.5" transform="matrix(0.425598 -0.904912 0.836052 0.54865 237.02 77.1487)" stroke="url(#paint10_linear)"/>
<line y1="-0.5" x2="19.9162" y2="-0.5" transform="matrix(0.435478 -0.900199 0.828853 0.559466 250.029 89.9549)" stroke="url(#paint11_linear)"/>
<path d="M53.8009 89.9547C56.4028 84.8323 51.6326 76.7218 49.4644 74.5874H57.0533L61.3898 78.4292L59.2216 84.8323L53.8009 89.9547Z" fill="#694E1D"/>
<path d="M55.9688 87.3936C49.4639 92.516 33.8524 102.761 27.7812 102.761C35.0088 105.322 51.6322 105.834 55.9688 87.3936Z" fill="#994C46"/>
<path d="M154.625 137.338C149.204 139.899 138.363 146.302 138.363 151.424C137.64 155.693 137.279 165.255 141.615 169.353C141.977 170.633 142.049 172.939 139.447 171.914C136.984 168.589 132.535 161.543 133.902 159.282C131.713 162.369 127.988 169.449 129.69 174.475C130.051 176.183 129.69 178.317 125.354 173.195C125.354 171.914 121.017 169.353 134.027 148.863C136.195 145.875 140.532 138.362 140.532 132.215C145.591 132.215 155.492 133.24 154.625 137.338Z" fill="#475F21"/>
<path d="M35.3705 125.812C30.1667 129.91 25.9747 125.812 24.5292 123.251C41.8753 109.932 56.3305 87.8205 61.3898 78.4293C56.1859 72.2824 43.3209 74.1606 37.5388 75.8681C26.2638 82.015 8.26716 80.1368 0.678223 78.4293C1.54553 69.2089 8.26716 67.7575 11.5196 68.1844C15.8561 72.2824 46.5733 59.647 61.3898 52.8171C79.6032 41.5477 97.1662 60.0739 103.671 70.7457C110.609 73.8191 113.79 72.0263 114.512 70.7457C179.56 44.1089 230.515 67.3307 247.861 82.2712C254.799 89.4426 265.93 93.7967 270.628 95.0773C307.922 92.0038 351.215 93.7967 368.2 95.0773C396.821 95.0773 435.778 138.618 451.678 160.389C437.584 157.827 427.827 150.144 424.575 146.302C414.167 132.983 400.001 125.385 394.219 123.251C376.006 114.03 356.274 117.701 348.685 120.69C322.666 131.959 300.983 134.776 293.395 134.776C281.252 132.727 253.643 139.045 241.356 142.46L187.149 139.899C141.182 143.997 98.6117 111.725 83.0724 95.0773H67.8946L35.3705 125.812Z" fill="url(#paint12_linear)"/>
<path d="M24.5293 123.251L62.4744 79.71C66.8111 76.6366 69.3405 79.2832 70.0631 80.9907C85.6024 89.9549 122.318 109.676 144.868 116.848C173.056 125.812 254.366 127.093 281.469 125.812C303.152 124.788 309.657 127.093 312.909 123.251C330.255 113.006 358.443 111.725 370.368 113.006C380.848 114.287 404.844 120.434 416.986 134.776C429.129 149.119 444.451 157.827 450.594 160.389C434.983 157.315 423.13 147.156 419.155 142.46C401.808 119.921 375.066 117.702 363.864 119.409C343.265 123.251 338.928 124.531 334.592 125.812C325.185 128.59 320.498 132.215 303.152 133.496C287.974 137.338 287.974 134.776 276.049 134.776C259.57 139.899 225.094 147.582 211.001 142.46C149.205 147.582 108.008 119.409 83.0726 95.0774H67.8947L36.4547 125.812C29.95 129.654 27.7817 127.093 24.5293 123.251Z" fill="#9CB66D"/>
<path d="M91.7456 72.0262C91.7456 71.0017 93.1911 69.8918 93.9139 69.465H97.1663L98.2504 73.3068L97.1663 75.868H93.9139C93.1911 75.0143 91.7456 73.0507 91.7456 72.0262Z" fill="#597731"/>
<path d="M84.1562 56.6588L86.3245 55.3782H90.6611V57.9395L89.5769 60.5007L86.3245 64.3425C85.6018 63.9156 84.1562 62.5497 84.1562 60.5007V56.6588Z" fill="#55733F"/>
<path d="M53.8008 63.0619L54.8849 60.5007H58.1373L60.3056 63.0619L58.1373 65.6231L55.9691 66.9037L53.8008 65.6231V63.0619Z" fill="#3E5036"/>
<path d="M108.007 80.9905L111.26 75.868L118.849 78.4293V80.9905L116.68 86.1129L115.596 88.6742C114.151 88.2473 111.043 86.8813 110.176 84.8323C109.308 82.7833 108.369 83.1248 108.007 83.5517V80.9905Z" fill="#5F7D34"/>
<path d="M124.269 77.1486L122.101 72.0262H128.606L129.69 74.5874V77.1486H124.269Z" fill="#6B873C"/>
<path d="M149.204 87.3935C148.337 86.369 149.565 84.4054 150.288 83.5517H155.709V88.6741C154.986 89.9548 152.89 92.516 150.288 92.516C147.035 92.516 150.288 88.6741 149.204 87.3935Z" fill="#5B7836"/>
<path d="M161.13 79.7099V77.1486L167.635 74.5874H176.308L178.476 79.7099V80.9905L176.308 83.5517H169.803H167.635H163.298L161.13 79.7099Z" fill="#5B7A39"/>
<path d="M180.645 88.6741C180.645 86.6252 182.09 85.2592 182.813 84.8323L184.981 83.5517L188.233 84.8323L190.402 88.6741V93.7966L188.233 96.3578L186.065 98.919C184.258 97.6384 180.645 94.8211 180.645 93.7966V88.6741Z" fill="#55703B"/>
<path d="M196.907 87.3935C195.172 85.3445 197.629 83.9785 199.075 83.5517L204.496 79.7098H211L215.337 83.5517V91.2353L206.664 92.516C204.134 91.6622 198.641 89.4425 196.907 87.3935Z" fill="#5D7936"/>
<path d="M217.505 93.7966L221.841 89.9548H222.926L225.094 93.7966V96.3578L221.841 98.9191L217.505 96.3578V93.7966Z" fill="#5B7B35"/>
<path d="M231.599 87.3936L233.767 84.8323H240.272L242.44 89.9548L241.356 95.0772H235.935L231.599 92.516V87.3936Z" fill="#5B7B35"/>
<path d="M250.029 97.6384C249.162 96.614 251.836 94.6503 253.282 93.7966L256.534 92.516L260.871 93.7966L263.039 96.3578L260.871 100.2H257.618C256.534 100.2 254.366 100.2 250.029 97.6384Z" fill="#457132"/>
<path d="M221.842 79.7099C221.842 77.6609 223.287 77.1487 224.01 77.1487L228.347 75.868L230.515 78.4293L229.431 82.2711L228.347 83.5517C226.901 83.9786 223.576 83.8078 221.842 79.7099Z" fill="#5C7C39"/>
<path d="M188.234 68.1844L192.57 66.9037L197.991 69.465L199.075 72.0262L195.822 77.1486H193.654H186.065C185.342 76.7218 183.897 75.6119 183.897 74.5874V72.0262L188.234 68.1844Z" fill="#4F6C3C"/>
<path d="M151.372 66.9037V64.3425L154.625 63.0619L157.877 64.3425V66.9037L155.709 70.7456H154.625C153.902 70.3187 152.24 69.2088 151.372 68.1843C150.505 67.1598 151.011 66.9037 151.372 66.9037Z" fill="#5A7E33"/>
<path d="M137.279 74.5874H138.363H143.784L145.952 77.1486L140.531 84.8323H138.363L132.942 82.2711V77.1486L134.027 75.868L137.279 74.5874Z" fill="#54712F"/>
<path d="M166.551 68.1843C165.684 67.1598 167.635 65.1962 168.719 64.3425L173.538 63.204L178.476 64.3425L179.561 68.1843L176.308 70.7456H171.972C170.526 70.3187 167.418 69.2088 166.551 68.1843Z" fill="#5D7F32"/>
<path d="M153.541 56.6588V52.817L156.793 51.5364L158.962 54.0976L157.878 56.6588L154.625 57.9394L153.541 56.6588Z" fill="#8E6E3B"/>
<path d="M190.402 54.0976L194.738 50.2558H196.907V55.3782V57.9395C195.461 57.5126 192.353 56.4027 191.486 55.3782L190.402 54.0976Z" fill="#85642F"/>
<path d="M217.505 61.7813C216.638 60.7568 220.035 58.7932 221.841 57.9395L225.094 61.7813V66.9037H222.926L219.673 65.6231C219.312 64.7694 218.372 62.8058 217.505 61.7813Z" fill="#907838"/>
<path d="M151.373 34.8884C152.457 35.3153 154.625 35.9129 154.625 34.8884L156.794 40.0109L153.541 43.8527L151.373 42.5721L149.205 40.0109L151.373 34.8884Z" fill="#A85133"/>
<path d="M166.551 36.1691L168.719 31.0466L169.803 29.766L174.14 32.3272L173.056 36.1691L170.887 38.7303V42.5721L166.551 41.2915V36.1691Z" fill="#C14C2B"/>
<path d="M201.243 36.1691H196.906V24.6436H201.243V36.1691Z" fill="#BF532E"/>
<path d="M234.851 55.3782L238.103 52.817L240.272 59.2201L235.935 60.5007L234.851 59.2201V55.3782Z" fill="#CB531E"/>
<path d="M213.168 22.0823L214.253 18.2405L217.505 23.3629L214.253 25.9242L213.168 22.0823Z" fill="#BF5919"/>
<path d="M209.916 36.1691H213.169V37.4497H216.421L217.505 41.2915L215.337 45.1334L213.169 47.6946L211 45.1334L209.916 42.5721L207.748 41.2915L209.916 36.1691Z" fill="#CF5C2F"/>
<path d="M244.608 70.7456L245.693 69.465H247.861H251.113V74.5874H247.861H244.608V70.7456Z" fill="#CB6A35"/>
<path d="M258.702 84.8323C257.835 83.8079 259.786 82.698 260.87 82.2711L264.123 84.8323L261.954 86.113L260.87 88.6742C260.509 87.8204 259.569 85.8568 258.702 84.8323Z" fill="#E06338"/>
<path d="M88.4927 157.827C87.4086 136.057 128.606 136.057 127.521 136.057C126.654 136.057 127.16 107.03 127.521 104.042C128.389 100.968 141.254 101.053 144.868 104.042C144.868 117.36 135.833 147.155 134.027 146.302C118.415 141.179 113.067 145.021 112.344 147.582C107.14 158.852 102.948 163.377 101.502 164.23C98.0332 163.206 101.502 153.559 103.671 148.863C101.069 146.814 95.359 153.985 92.8294 157.827C89.3602 160.901 88.4928 159.108 88.4927 157.827Z" fill="#6F8A39"/>
<path d="M239.188 192.404C237.454 177.036 222.565 168.072 215.337 165.511L206.664 182.159C207.531 189.33 225.094 197.953 233.767 201.368C236.369 202.393 235.574 212.894 234.852 218.016C233.117 226.212 228.347 229.968 226.178 230.822C216.421 228.261 215.337 230.822 214.253 230.822C213.169 230.822 209.917 237.225 211.001 237.225C212.085 237.225 247.861 238.506 245.693 237.225C243.958 236.201 244.97 227.407 245.693 223.139C251.764 205.722 249.668 200.514 247.861 200.088C242.657 200.088 239.911 194.965 239.188 192.404Z" fill="#486523"/>
<path d="M192.57 188.562C183.029 167.048 189.317 113.006 196.906 104.042L234.851 115.567L235.935 123.251C238.103 128.373 218.228 174.048 212.084 186.001C207.748 194.197 211.723 204.783 214.252 209.052C217.722 213.15 215.698 216.735 214.252 218.016C209.049 219.04 204.857 238.933 203.411 248.751H191.486V251.312H180.644L182.813 248.751L175.224 247.47C196.906 239.274 201.604 221.004 201.243 212.894C202.977 211.869 196.183 196.246 192.57 188.562Z" fill="#6F8A39"/>
<path d="M233.767 116.848C237.236 107.627 239.549 116.848 240.272 120.689C240.272 132.983 226.178 161.242 218.589 170.633C216.421 173.195 213.168 170.633 209.916 168.072C207.314 166.023 211 162.95 213.168 161.669C218.372 159.62 224.732 148.863 227.262 143.74C232.466 136.569 233.767 121.543 233.767 116.848Z" fill="#526E33"/>
<path d="M197.991 101.48C202.327 97.3824 204.495 102.761 204.495 105.322C195.822 111.469 191.486 130.934 190.402 139.899C189.318 145.021 188.233 151.68 188.233 137.338C188.233 122.995 194.015 107.03 197.991 101.48Z" fill="#A3BE6D"/>
<path d="M292.31 111.725C291.443 115.823 285.444 125.385 282.553 129.654C286.167 129.654 293.828 129.398 295.563 128.373C297.731 127.093 293.395 106.603 292.31 111.725Z" fill="#A1BB74"/>
<path d="M311.825 107.884C310.958 111.982 303.513 123.251 299.899 128.373L315.077 125.812C317.679 122.739 313.993 112.579 311.825 107.884Z" fill="#9FB874"/>
<path d="M329.171 102.761C329.171 107.884 322.666 117.702 319.414 121.97C322.666 121.97 329.821 121.714 332.423 120.69C335.676 119.409 329.171 96.358 329.171 102.761Z" fill="#A0B978"/>
<path d="M346.517 102.761C344.782 110.957 341.458 115.567 340.012 116.848H349.769C352.371 115.823 348.685 107.03 346.517 102.761Z" fill="#A5BE7C"/>
<path d="M364.948 101.48C364.948 104.554 360.611 111.298 358.443 114.287C360.973 114.713 366.249 115.311 367.116 114.287C367.983 113.262 366.032 105.322 364.948 101.48Z" fill="#9FB972"/>
<path d="M374.705 114.287C376.767 111.444 380.595 105.435 380.217 103.092C380.186 102.979 380.156 102.868 380.125 102.761C380.168 102.861 380.198 102.972 380.217 103.092C381.303 107.041 382.896 114.571 381.209 115.567L374.705 114.287Z" fill="#9FB874"/>
<path d="M395.303 110.445C393.569 115.567 390.244 117.702 388.798 118.128L395.303 121.97C397.038 122.995 396.026 114.713 395.303 110.445Z" fill="#9EB96C"/>
<path d="M406.145 116.848C406.145 118.897 403.254 122.824 401.808 124.532C403.254 125.812 406.361 128.117 407.229 127.093C408.096 126.068 406.867 119.836 406.145 116.848Z" fill="#A3B87D"/>
<path d="M415.902 125.812C415.902 126.837 413.011 129.654 411.565 130.935C413.011 133.069 416.119 137.082 416.986 136.057C418.07 134.776 415.902 124.532 415.902 125.812Z" fill="#A4B87E"/>
<path d="M424.575 136.057L421.322 141.179L425.659 145.021L424.575 136.057Z" fill="#A3BB65"/>
<defs>
<linearGradient id="paint0_linear" x1="196.907" y1="0.312012" x2="196.907" y2="97.6385" gradientUnits="userSpaceOnUse">
<stop stop-color="#4A5C29"/>
<stop offset="1" stop-color="#75933D"/>
</linearGradient>
<radialGradient id="paint1_radial" cx="0" cy="0" r="1" gradientUnits="userSpaceOnUse" gradientTransform="translate(195.823 50.8962) rotate(90) scale(44.1811 74.8053)">
<stop stop-color="#E47741"/>
<stop offset="0.697917" stop-color="#AB6E38"/>
<stop offset="1" stop-color="#4C5F2A"/>
</radialGradient>
<linearGradient id="paint2_linear" x1="184.981" y1="41.2916" x2="184.981" y2="82.2712" gradientUnits="userSpaceOnUse">
<stop stop-color="#96833E"/>
<stop offset="1" stop-color="#6D5F2B"/>
</linearGradient>
<linearGradient id="paint3_linear" x1="16.6832" y1="-1.45007e-06" x2="30.7998" y2="-0.501734" gradientUnits="userSpaceOnUse">
<stop offset="0.0542461" stop-color="#DF613B"/>
<stop offset="1" stop-color="#425224"/>
</linearGradient>
<linearGradient id="paint4_linear" x1="13.5204" y1="-1.45007e-06" x2="24.9658" y2="-0.329673" gradientUnits="userSpaceOnUse">
<stop offset="0.0542461" stop-color="#DF613B"/>
<stop offset="1" stop-color="#425224"/>
</linearGradient>
<linearGradient id="paint5_linear" x1="21.7974" y1="-1.45007e-06" x2="40.2249" y2="-0.855725" gradientUnits="userSpaceOnUse">
<stop offset="0.0542461" stop-color="#DF613B"/>
<stop offset="1" stop-color="#425224"/>
</linearGradient>
<linearGradient id="paint6_linear" x1="178.477" y1="34.8885" x2="177.175" y2="12.1788" gradientUnits="userSpaceOnUse">
<stop offset="0.0542461" stop-color="#DF613B"/>
<stop offset="1" stop-color="#425224"/>
</linearGradient>
<linearGradient id="paint7_linear" x1="27.2403" y1="-1.45007e-06" x2="50.2413" y2="-1.33482" gradientUnits="userSpaceOnUse">
<stop offset="0.0542461" stop-color="#DF613B"/>
<stop offset="1" stop-color="#425224"/>
</linearGradient>
<linearGradient id="paint8_linear" x1="27.2403" y1="-1.45007e-06" x2="50.2413" y2="-1.33482" gradientUnits="userSpaceOnUse">
<stop offset="0.0542461" stop-color="#DF613B"/>
<stop offset="1" stop-color="#425224"/>
</linearGradient>
<linearGradient id="paint9_linear" x1="20.6539" y1="-1.45007e-06" x2="38.1186" y2="-0.768469" gradientUnits="userSpaceOnUse">
<stop offset="0.0542461" stop-color="#DF613B"/>
<stop offset="1" stop-color="#425224"/>
</linearGradient>
<linearGradient id="paint10_linear" x1="12.7366" y1="-1.45007e-06" x2="23.5194" y2="-0.292584" gradientUnits="userSpaceOnUse">
<stop offset="0.0542461" stop-color="#DF613B"/>
<stop offset="1" stop-color="#425224"/>
</linearGradient>
<linearGradient id="paint11_linear" x1="9.95811" y1="-1.45007e-06" x2="18.3911" y2="-0.178905" gradientUnits="userSpaceOnUse">
<stop offset="0.0542461" stop-color="#DF613B"/>
<stop offset="1" stop-color="#425224"/>
</linearGradient>
<linearGradient id="paint12_linear" x1="226.178" y1="49.3047" x2="226.178" y2="160.389" gradientUnits="userSpaceOnUse">
<stop stop-color="#5A702E"/>
<stop offset="0.494792" stop-color="#6F8A39"/>
</linearGradient>
</defs>
</svg>
