<svg width="474" height="267" viewBox="0 0 474 267" fill="none" xmlns="http://www.w3.org/2000/svg">
<mask id="path-1-outside-1" maskUnits="userSpaceOnUse" x="-0.345215" y="-0.473145" width="474" height="268" fill="black">
<rect fill="white" x="-0.345215" y="-0.473145" width="474" height="268"/>
<path d="M19.2354 75.5096C10.2065 75.0391 7.75295 82.6171 7.65479 86.465C31.8549 90.3906 39.818 86.3075 44.8222 83.9023C48.8256 81.9781 54.4321 82.1919 56.735 82.5393C61.8662 86.0322 61.9731 93.0812 61.3852 96.1691C49.7117 106.496 38.4016 110.093 34.2057 110.601C38.0541 113.038 45.5906 112.311 48.8778 111.643L31.3579 130.757L34.895 134.386C37.541 137.877 42.6156 135.179 44.8222 133.393L75.3646 103.06H90.3715C101.571 116.561 124.619 130.016 134.743 135.056V143.749C122.632 143.749 111.231 147.601 107.044 149.527C103.817 150.878 97.0756 155.367 95.9207 162.517C94.7658 169.667 98.3685 167.611 100.314 165.689C100.058 163.581 108.636 157.041 109.356 156.741C109.932 156.501 110.557 156.841 110.797 157.041C110.316 158.102 109.356 160.306 109.356 160.642C107.736 163.283 105.815 173.246 109.356 172.225C112.189 171.409 117.898 159.922 120.399 154.281C123.088 150.152 135.523 152.56 141.405 154.281C142.941 154.041 145.766 145.178 146.986 140.777H147.946C147.946 142.89 144.785 150.66 143.205 154.281C139.064 158.542 133.482 171.925 132.522 173.846C131.562 175.766 131.202 180.868 134.743 183.748C137.576 186.053 137.524 183.348 137.143 181.708C136.039 179.403 139.044 171.625 140.684 168.024C141.004 170.265 142.545 175.538 146.146 178.707C149.747 181.876 149.527 178.907 148.967 177.027C146.506 176.426 144.045 163.103 146.146 158.002C147.826 153.921 157.249 147.819 161.75 145.278C165.351 148.111 185.641 150.336 195.336 151.094C191.437 196.272 208.744 209.716 208.744 219.808C208.744 239.064 191.949 251.686 182.557 255.632L189.889 256.889L187.48 259.612H199.002V256.889H211.153C214.609 234.892 218.299 228.555 221.39 226.253C223.863 224.411 224.076 221.941 223.874 220.936C216.821 211.639 217.462 201.033 218.664 196.892C225.317 203.064 236.731 208.013 241.606 209.716C246.014 227.268 238.033 236.398 233.491 238.769C229.785 236.064 223.874 238.068 221.87 238.068C220.267 238.068 218.33 243.077 217.562 245.581H223.874C234.56 245.882 255.431 246.162 253.428 244.88C251.424 243.598 252.593 235.53 253.428 231.656C259.439 216.108 257.602 209.415 255.932 208.013C250.963 209.295 247.918 204.139 247.016 201.401C247.016 189.459 234.459 179.251 228.18 175.64C232.187 172.023 238.428 158.408 241.048 152.052C282.441 144.387 283.303 143.141 284.453 142.854C285.603 142.566 294.107 143.459 295.785 144.062C297.126 144.545 306.675 142.743 311.282 141.781C317.409 141.044 329.825 139.259 330.469 138.025C331.113 136.79 350.041 132.001 359.425 129.761C380.117 124.287 403.779 126.777 423.892 147.298C440.2 165.409 454.624 168.867 459.798 168.332C418.855 115.322 387.043 102.396 376.256 102.559C326.456 99.5406 293.209 101.068 283.932 102.166L280.482 96.2074H278.521V94.1687L273.895 90.0914C273.974 89.2551 274.084 87.504 273.895 87.1903C273.707 86.8767 271.987 85.5437 271.151 84.9165L270.759 80.996L268.799 76.1346L265.114 72.7631L260.017 63.1972V60.4528L254.764 57.0812L251.627 51.5926L251 46.104L249.118 43.6733L243.551 41.2426L241.591 36.4597V33.637C239.448 31.3892 234.158 26.3763 230.143 24.3063C225.125 21.7188 224.262 14.3483 224.027 12.7018C223.839 11.3845 217.258 10.637 213.991 10.4279L207.797 7.52686L199.25 9.17345H184.901L180.353 12.7018H172.983L168.357 20.5427C167.233 20.5949 164.86 20.6681 164.358 20.5427C163.856 20.4172 159.653 26.7108 157.615 29.8733L150.95 36.6164L144.442 47.7504L129.074 63.5106C127.323 68.2151 123.679 77.6086 123.115 77.5459C122.55 77.4831 121.625 78.6174 121.233 79.1924C118.28 80.2118 112.138 81.4349 111.197 78.1731C110.256 74.9113 101.918 67.039 97.8671 63.5106C86.7016 53.9113 74.1876 57.3676 69.3262 60.2957C57.6589 66.192 40.09 72.0369 32.764 74.2223C23.2644 77.6339 19.6887 76.4165 19.2354 75.5096Z"/>
</mask>
<path d="M19.2354 75.5096C10.2065 75.0391 7.75295 82.6171 7.65479 86.465C31.8549 90.3906 39.818 86.3075 44.8222 83.9023C48.8256 81.9781 54.4321 82.1919 56.735 82.5393C61.8662 86.0322 61.9731 93.0812 61.3852 96.1691C49.7117 106.496 38.4016 110.093 34.2057 110.601C38.0541 113.038 45.5906 112.311 48.8778 111.643L31.3579 130.757L34.895 134.386C37.541 137.877 42.6156 135.179 44.8222 133.393L75.3646 103.06H90.3715C101.571 116.561 124.619 130.016 134.743 135.056V143.749C122.632 143.749 111.231 147.601 107.044 149.527C103.817 150.878 97.0756 155.367 95.9207 162.517C94.7658 169.667 98.3685 167.611 100.314 165.689C100.058 163.581 108.636 157.041 109.356 156.741C109.932 156.501 110.557 156.841 110.797 157.041C110.316 158.102 109.356 160.306 109.356 160.642C107.736 163.283 105.815 173.246 109.356 172.225C112.189 171.409 117.898 159.922 120.399 154.281C123.088 150.152 135.523 152.56 141.405 154.281C142.941 154.041 145.766 145.178 146.986 140.777H147.946C147.946 142.89 144.785 150.66 143.205 154.281C139.064 158.542 133.482 171.925 132.522 173.846C131.562 175.766 131.202 180.868 134.743 183.748C137.576 186.053 137.524 183.348 137.143 181.708C136.039 179.403 139.044 171.625 140.684 168.024C141.004 170.265 142.545 175.538 146.146 178.707C149.747 181.876 149.527 178.907 148.967 177.027C146.506 176.426 144.045 163.103 146.146 158.002C147.826 153.921 157.249 147.819 161.75 145.278C165.351 148.111 185.641 150.336 195.336 151.094C191.437 196.272 208.744 209.716 208.744 219.808C208.744 239.064 191.949 251.686 182.557 255.632L189.889 256.889L187.48 259.612H199.002V256.889H211.153C214.609 234.892 218.299 228.555 221.39 226.253C223.863 224.411 224.076 221.941 223.874 220.936C216.821 211.639 217.462 201.033 218.664 196.892C225.317 203.064 236.731 208.013 241.606 209.716C246.014 227.268 238.033 236.398 233.491 238.769C229.785 236.064 223.874 238.068 221.87 238.068C220.267 238.068 218.33 243.077 217.562 245.581H223.874C234.56 245.882 255.431 246.162 253.428 244.88C251.424 243.598 252.593 235.53 253.428 231.656C259.439 216.108 257.602 209.415 255.932 208.013C250.963 209.295 247.918 204.139 247.016 201.401C247.016 189.459 234.459 179.251 228.18 175.64C232.187 172.023 238.428 158.408 241.048 152.052C282.441 144.387 283.303 143.141 284.453 142.854C285.603 142.566 294.107 143.459 295.785 144.062C297.126 144.545 306.675 142.743 311.282 141.781C317.409 141.044 329.825 139.259 330.469 138.025C331.113 136.79 350.041 132.001 359.425 129.761C380.117 124.287 403.779 126.777 423.892 147.298C440.2 165.409 454.624 168.867 459.798 168.332C418.855 115.322 387.043 102.396 376.256 102.559C326.456 99.5406 293.209 101.068 283.932 102.166L280.482 96.2074H278.521V94.1687L273.895 90.0914C273.974 89.2551 274.084 87.504 273.895 87.1903C273.707 86.8767 271.987 85.5437 271.151 84.9165L270.759 80.996L268.799 76.1346L265.114 72.7631L260.017 63.1972V60.4528L254.764 57.0812L251.627 51.5926L251 46.104L249.118 43.6733L243.551 41.2426L241.591 36.4597V33.637C239.448 31.3892 234.158 26.3763 230.143 24.3063C225.125 21.7188 224.262 14.3483 224.027 12.7018C223.839 11.3845 217.258 10.637 213.991 10.4279L207.797 7.52686L199.25 9.17345H184.901L180.353 12.7018H172.983L168.357 20.5427C167.233 20.5949 164.86 20.6681 164.358 20.5427C163.856 20.4172 159.653 26.7108 157.615 29.8733L150.95 36.6164L144.442 47.7504L129.074 63.5106C127.323 68.2151 123.679 77.6086 123.115 77.5459C122.55 77.4831 121.625 78.6174 121.233 79.1924C118.28 80.2118 112.138 81.4349 111.197 78.1731C110.256 74.9113 101.918 67.039 97.8671 63.5106C86.7016 53.9113 74.1876 57.3676 69.3262 60.2957C57.6589 66.192 40.09 72.0369 32.764 74.2223C23.2644 77.6339 19.6887 76.4165 19.2354 75.5096Z" stroke="#FFFF93" stroke-width="14" mask="url(#path-1-outside-1)"/>
<path d="M129.553 63.256L123.048 78.6234L285.668 105.516L282.416 100.394L280.247 96.5519H278.079V93.9907L273.743 90.1489V87.5877L270.49 85.0264V81.1846L268.322 76.0621L265.069 73.5009L263.985 70.9397L259.649 63.256V60.6948L255.312 58.1336L250.976 51.7305V46.6081L248.807 44.0468L243.387 41.4856L241.219 36.3632V33.8019L234.714 27.3989L230.377 24.8377L226.041 19.7152C225.318 18.4346 223.872 15.3611 223.872 13.3121C223.872 11.2632 217.368 10.7509 214.115 10.7509L207.61 8.1897L198.937 9.47031H184.844L180.507 13.3121H172.918L168.582 20.9958H164.245L157.74 29.9601L151.235 36.3632L144.731 47.8887L129.553 63.256Z" fill="url(#paint0_linear)"/>
<path d="M129.553 69.6591L128.469 76.0622L278.079 102.955V99.1132L275.911 93.9907H273.743L270.49 88.8683L267.238 85.0264L265.07 83.7458L262.901 81.1846L261.817 77.3428L260.733 72.2203V70.9397C259.649 70.5128 257.264 69.6591 256.397 69.6591C255.529 69.6591 254.59 66.2441 254.228 64.5367H250.976V59.4142L249.892 55.5724L247.724 51.7305L244.471 50.4499L243.387 46.6081L240.135 42.7662L236.882 41.4856L234.714 38.9244V35.0826L231.462 32.5213L228.209 28.6795V27.3989L223.873 22.2764H219.536V19.7152L215.2 17.154H209.779L207.611 14.5928H203.274H201.106L198.938 17.154L193.517 14.5928H187.012L183.76 17.154H178.339L176.171 19.7152L174.002 22.2764H170.75L167.498 26.1183L162.077 31.2407L157.74 35.0826L155.572 38.9244L152.32 41.4856L150.151 45.3275H147.983V51.7305H143.647L141.478 56.853L136.058 59.4142V61.9754L132.805 65.8173L129.553 69.6591Z" fill="url(#paint1_radial)"/>
<path d="M140.394 69.6591L136.058 74.7816L248.808 90.1489V83.7458V79.904L243.387 78.6234C243.387 77.7697 243.17 75.806 242.303 74.7816C241.219 73.5009 241.219 72.2203 240.135 69.6591C239.267 67.6101 236.882 68.8054 235.798 69.6591L233.63 67.0979L229.293 65.8173L228.209 61.9754L220.62 59.4142V55.5724H214.115H207.61L204.358 53.0111L198.937 49.1693H193.517H183.76H175.086L167.498 51.7305L165.329 53.0111H155.572L151.236 59.4142L146.899 61.9754L140.394 69.6591Z" fill="url(#paint2_linear)"/>
<line y1="-0.5" x2="33.3664" y2="-0.5" transform="matrix(-0.0649835 -0.997886 0.995897 -0.0904911 156.656 72.2203)" stroke="url(#paint3_linear)"/>
<line y1="-0.5" x2="27.0409" y2="-0.5" transform="matrix(-0.320739 -0.947167 0.904154 -0.427206 149.067 82.4652)" stroke="url(#paint4_linear)"/>
<line y1="-0.5" x2="43.5948" y2="-0.5" transform="matrix(-0.0497369 -0.998762 0.997595 -0.069317 168.582 69.6591)" stroke="url(#paint5_linear)"/>
<line x1="185.428" y1="69.6591" x2="185.428" y2="15.8733" stroke="url(#paint6_linear)"/>
<line y1="-0.5" x2="54.4805" y2="-0.5" transform="matrix(0.159196 -0.987247 0.975611 0.219509 196.769 67.0978)" stroke="url(#paint7_linear)"/>
<line y1="-0.5" x2="54.4805" y2="-0.5" transform="matrix(0.159196 -0.987247 0.975611 0.219509 211.947 69.6591)" stroke="url(#paint8_linear)"/>
<line y1="-0.5" x2="41.3079" y2="-0.5" transform="matrix(0.367433 -0.93005 0.875757 0.482753 222.788 74.7816)" stroke="url(#paint9_linear)"/>
<line y1="-0.5" x2="25.4732" y2="-0.5" transform="matrix(0.425598 -0.904912 0.836052 0.54865 244.471 85.0264)" stroke="url(#paint10_linear)"/>
<line y1="-0.5" x2="19.9162" y2="-0.5" transform="matrix(0.435478 -0.900199 0.828853 0.559466 257.48 97.8326)" stroke="url(#paint11_linear)"/>
<path d="M61.2521 97.8324C63.854 92.71 59.0838 84.5994 56.9155 82.4651H64.5045L68.841 86.3069L66.6727 92.71L61.2521 97.8324Z" fill="#694E1D"/>
<path d="M63.4199 95.2712C56.9151 100.394 41.3036 110.639 35.2324 110.639C42.46 113.2 59.0834 113.712 63.4199 95.2712Z" fill="#994C46"/>
<path d="M162.076 145.215C156.655 147.776 145.814 154.18 145.814 159.302C145.091 163.571 144.73 173.133 149.066 177.231C149.428 178.511 149.5 180.816 146.898 179.792C144.435 176.467 139.986 169.42 141.353 167.159C139.164 170.247 135.439 177.327 137.141 182.353C137.502 184.06 137.141 186.195 132.805 181.072C132.805 179.792 128.468 177.231 141.478 156.741C143.646 153.753 147.983 146.24 147.983 140.093C153.042 140.093 162.943 141.117 162.076 145.215Z" fill="#475F21"/>
<path d="M42.8217 133.69C37.6179 137.788 33.4259 133.69 31.9804 131.128C49.3265 117.81 63.7816 95.6982 68.8409 86.307C63.6371 80.1601 50.772 82.0383 44.99 83.7458C33.715 89.8927 15.7183 88.0145 8.12939 86.307C8.9967 77.0866 15.7183 75.6352 18.9707 76.0621C23.3073 80.1601 54.0244 67.5247 68.8409 60.6948C87.0544 49.4254 104.617 67.9516 111.122 78.6233C118.061 81.6968 121.241 79.9039 121.964 78.6233C187.012 51.9866 237.966 75.2084 255.312 90.1488C262.251 97.3203 273.381 101.674 278.079 102.955C315.373 99.8815 358.666 101.674 375.651 102.955C404.272 102.955 443.229 146.496 459.129 168.266C445.036 165.705 435.278 158.021 432.026 154.179C421.618 140.861 407.452 133.263 401.67 131.128C383.457 121.908 363.726 125.579 356.137 128.567C330.117 139.837 308.435 142.654 300.846 142.654C288.703 140.605 261.094 146.923 248.807 150.338L194.601 147.776C148.633 151.874 106.063 119.603 90.5236 102.955H75.3457L42.8217 133.69Z" fill="url(#paint12_linear)"/>
<path d="M31.9805 131.129L69.9256 87.5877C74.2623 84.5143 76.7917 87.1609 77.5143 88.8683C93.0535 97.8326 129.77 117.554 152.32 124.725C180.507 133.69 261.817 134.97 288.921 133.69C310.603 132.665 317.108 134.97 320.36 131.129C337.706 120.884 365.894 119.603 377.82 120.884C388.3 122.164 412.295 128.311 424.437 142.654C436.58 156.997 451.902 165.705 458.046 168.266C442.434 165.193 430.581 155.033 426.606 150.338C409.26 127.799 382.518 125.579 371.315 127.287C350.716 131.129 346.38 132.409 342.043 133.69C332.636 136.468 327.949 140.093 310.603 141.373C295.425 145.215 295.425 142.654 283.5 142.654C267.021 147.777 232.545 155.46 218.452 150.338C156.656 155.46 115.459 127.287 90.5237 102.955H75.3459L43.9059 133.69C37.4011 137.532 35.2329 134.97 31.9805 131.129Z" fill="#9CB66D"/>
<path d="M99.1968 79.9039C99.1968 78.8794 100.642 77.7695 101.365 77.3427H104.617L105.702 81.1845L104.617 83.7457H101.365C100.642 82.892 99.1968 80.9284 99.1968 79.9039Z" fill="#597731"/>
<path d="M91.6074 64.5365L93.7757 63.2559H98.1122V65.8171L97.0281 68.3784L93.7757 72.2202C93.0529 71.7933 91.6074 70.4273 91.6074 68.3784V64.5365Z" fill="#55733F"/>
<path d="M61.252 70.9396L62.3361 68.3784H65.5885L67.7568 70.9396L65.5885 73.5008L63.4202 74.7814L61.252 73.5008V70.9396Z" fill="#3E5036"/>
<path d="M115.458 88.8682L118.711 83.7457L126.3 86.307V88.8682L124.132 93.9906L123.047 96.5518C121.602 96.125 118.494 94.759 117.627 92.71C116.759 90.661 115.82 91.0025 115.458 91.4294V88.8682Z" fill="#5F7D34"/>
<path d="M131.721 85.0263L129.552 79.9039H136.057L137.141 82.4651V85.0263H131.721Z" fill="#6B873C"/>
<path d="M156.655 95.2712C155.788 94.2467 157.016 92.2831 157.739 91.4294H163.16V96.5518C162.438 97.8324 160.341 100.394 157.739 100.394C154.487 100.394 157.739 96.5518 156.655 95.2712Z" fill="#5B7836"/>
<path d="M168.581 87.5875V85.0263L175.086 82.4651H183.759L185.927 87.5875V88.8681L183.759 91.4294H177.254H175.086H170.749L168.581 87.5875Z" fill="#5B7A39"/>
<path d="M188.096 96.5518C188.096 94.5029 189.541 93.1369 190.264 92.71L192.432 91.4294L195.685 92.71L197.853 96.5518V101.674L195.685 104.236L193.516 106.797C191.709 105.516 188.096 102.699 188.096 101.674V96.5518Z" fill="#55703B"/>
<path d="M204.358 95.2712C202.623 93.2222 205.081 91.8562 206.526 91.4294L211.947 87.5875H218.452L222.788 91.4294V99.113L214.115 100.394C211.585 99.5399 206.092 97.3202 204.358 95.2712Z" fill="#5D7936"/>
<path d="M224.956 101.674L229.293 97.8325H230.377L232.545 101.674V104.236L229.293 106.797L224.956 104.236V101.674Z" fill="#5B7B35"/>
<path d="M239.05 95.2712L241.218 92.71H247.723L249.891 97.8325L248.807 102.955H243.386L239.05 100.394V95.2712Z" fill="#5B7B35"/>
<path d="M257.48 105.516C256.613 104.492 259.287 102.528 260.733 101.674L263.985 100.394L268.322 101.674L270.49 104.236L268.322 108.077H265.069C263.985 108.077 261.817 108.077 257.48 105.516Z" fill="#457132"/>
<path d="M229.293 87.5876C229.293 85.5386 230.738 85.0263 231.461 85.0263L235.798 83.7457L237.966 86.307L236.882 90.1488L235.798 91.4294C234.352 91.8563 231.028 91.6855 229.293 87.5876Z" fill="#5C7C39"/>
<path d="M195.685 76.062L200.021 74.7814L205.442 77.3427L206.526 79.9039L203.274 85.0263H201.105H193.516C192.794 84.5995 191.348 83.4896 191.348 82.4651V79.9039L195.685 76.062Z" fill="#4F6C3C"/>
<path d="M158.824 74.7814V72.2202L162.076 70.9396L165.329 72.2202V74.7814L163.16 78.6232H162.076C161.353 78.1964 159.691 77.0865 158.824 76.062C157.956 75.0375 158.462 74.7814 158.824 74.7814Z" fill="#5A7E33"/>
<path d="M144.73 82.4651H145.814H151.235L153.403 85.0263L147.982 92.71H145.814L140.394 90.1488V85.0263L141.478 83.7457L144.73 82.4651Z" fill="#54712F"/>
<path d="M174.002 76.062C173.135 75.0375 175.086 73.0739 176.171 72.2202L180.989 71.0817L185.928 72.2202L187.012 76.062L183.759 78.6232H179.423C177.977 78.1964 174.87 77.0865 174.002 76.062Z" fill="#5D7F32"/>
<path d="M160.992 64.5365V60.6947L164.245 59.4141L166.413 61.9753L165.329 64.5365L162.076 65.8171L160.992 64.5365Z" fill="#8E6E3B"/>
<path d="M197.853 61.9753L202.19 58.1335H204.358V63.2559V65.8172C202.912 65.3903 199.804 64.2804 198.937 63.2559L197.853 61.9753Z" fill="#85642F"/>
<path d="M224.956 69.659C224.089 68.6345 227.486 66.6709 229.293 65.8171L232.545 69.659V74.7814H230.377L227.124 73.5008C226.763 72.6471 225.823 70.6835 224.956 69.659Z" fill="#907838"/>
<path d="M158.824 42.7661C159.908 43.193 162.076 43.7906 162.076 42.7661L164.245 47.8886L160.992 51.7304L158.824 50.4498L156.656 47.8886L158.824 42.7661Z" fill="#A85133"/>
<path d="M174.002 44.0467L176.17 38.9243L177.254 37.6437L181.591 40.2049L180.507 44.0467L178.338 46.608V50.4498L174.002 49.1692V44.0467Z" fill="#C14C2B"/>
<path d="M208.694 44.0468H204.357V32.5212H208.694V44.0468Z" fill="#BF532E"/>
<path d="M242.302 63.2559L245.555 60.6947L247.723 67.0978L243.386 68.3784L242.302 67.0978V63.2559Z" fill="#CB531E"/>
<path d="M220.62 29.96L221.704 26.1182L224.956 31.2406L221.704 33.8018L220.62 29.96Z" fill="#BF5919"/>
<path d="M217.367 44.0468H220.62V45.3274H223.872L224.956 49.1692L222.788 53.011L220.62 55.5723L218.452 53.011L217.367 50.4498L215.199 49.1692L217.367 44.0468Z" fill="#CF5C2F"/>
<path d="M252.06 78.6233L253.144 77.3427H255.312H258.564V82.4651H255.312H252.06V78.6233Z" fill="#CB6A35"/>
<path d="M266.153 92.71C265.286 91.6855 267.237 90.5757 268.321 90.1488L271.574 92.71L269.406 93.9906L268.321 96.5519C267.96 95.6981 267.02 93.7345 266.153 92.71Z" fill="#E06338"/>
<path d="M95.9439 165.705C94.8597 143.935 136.057 143.935 134.973 143.935C134.105 143.935 134.611 114.907 134.973 111.919C135.84 108.846 148.705 108.931 152.319 111.919C152.319 125.238 143.285 155.033 141.478 154.179C125.866 149.057 120.518 152.899 119.795 155.46C114.591 166.729 110.399 171.254 108.954 172.108C105.484 171.083 108.954 161.436 111.122 156.741C108.52 154.692 102.81 161.863 100.281 165.705C96.8113 168.778 95.9439 166.986 95.9439 165.705Z" fill="#6F8A39"/>
<path d="M246.639 200.282C244.905 184.914 230.016 175.95 222.788 173.389L214.115 190.037C214.983 197.208 232.546 205.831 241.219 209.246C243.821 210.27 243.025 220.771 242.303 225.894C240.568 234.09 235.798 237.846 233.63 238.7C223.872 236.139 222.788 238.7 221.704 238.7C220.62 238.7 217.368 245.103 218.452 245.103C219.536 245.103 255.312 246.384 253.144 245.103C251.41 244.078 252.421 235.285 253.144 231.016C259.215 213.6 257.119 208.392 255.312 207.965C250.109 207.965 247.362 202.843 246.639 200.282Z" fill="#486523"/>
<path d="M200.021 196.44C190.48 174.925 196.769 120.883 204.357 111.919L242.302 123.445L243.386 131.128C245.555 136.251 225.679 181.926 219.535 193.878C215.199 202.074 219.174 212.661 221.704 216.929C225.173 221.027 223.149 224.613 221.704 225.894C216.5 226.918 212.308 246.81 210.862 256.628H198.937V259.19H188.095L190.264 256.628L182.675 255.348C204.357 247.152 209.055 228.882 208.694 220.771C210.429 219.747 203.635 204.123 200.021 196.44Z" fill="#6F8A39"/>
<path d="M241.218 124.725C244.688 115.505 247 124.725 247.723 128.567C247.723 140.861 233.629 169.12 226.04 178.511C223.872 181.072 220.619 178.511 217.367 175.95C214.765 173.901 218.451 170.827 220.619 169.547C225.823 167.498 232.184 156.741 234.713 151.618C239.917 144.447 241.218 129.421 241.218 124.725Z" fill="#526E33"/>
<path d="M205.442 109.358C209.778 105.26 211.947 110.639 211.947 113.2C203.274 119.347 198.937 138.812 197.853 147.776C196.769 152.899 195.685 159.558 195.685 145.215C195.685 130.872 201.467 114.907 205.442 109.358Z" fill="#A3BE6D"/>
<path d="M299.762 119.603C298.894 123.701 292.895 133.263 290.004 137.532C293.618 137.532 301.279 137.275 303.014 136.251C305.182 134.97 300.846 114.481 299.762 119.603Z" fill="#A1BB74"/>
<path d="M319.276 115.761C318.409 119.859 310.964 131.129 307.351 136.251L322.528 133.69C325.13 130.616 321.444 120.457 319.276 115.761Z" fill="#9FB874"/>
<path d="M336.622 110.639C336.622 115.761 330.117 125.579 326.865 129.848C330.117 129.848 337.272 129.592 339.874 128.567C343.127 127.287 336.622 104.236 336.622 110.639Z" fill="#A0B978"/>
<path d="M353.968 110.639C352.234 118.835 348.909 123.445 347.463 124.726H357.221C359.823 123.701 356.136 114.908 353.968 110.639Z" fill="#A5BE7C"/>
<path d="M372.399 109.358C372.399 112.432 368.062 119.176 365.894 122.164C368.424 122.591 373.7 123.189 374.567 122.164C375.434 121.14 373.483 113.2 372.399 109.358Z" fill="#9FB972"/>
<path d="M382.156 122.164C384.218 119.322 388.046 113.313 387.669 110.97C387.637 110.856 387.607 110.746 387.576 110.639C387.619 110.739 387.649 110.849 387.669 110.97C388.755 114.918 390.347 122.449 388.661 123.445L382.156 122.164Z" fill="#9FB874"/>
<path d="M402.754 118.322C401.02 123.445 397.695 125.579 396.25 126.006L402.754 129.848C404.489 130.872 403.477 122.591 402.754 118.322Z" fill="#9EB96C"/>
<path d="M413.596 124.726C413.596 126.775 410.705 130.702 409.259 132.409C410.705 133.69 413.813 135.995 414.68 134.97C415.547 133.946 414.319 127.714 413.596 124.726Z" fill="#A3B87D"/>
<path d="M423.353 133.69C423.353 134.714 420.462 137.532 419.017 138.812C420.462 140.947 423.57 144.959 424.437 143.935C425.521 142.654 423.353 132.409 423.353 133.69Z" fill="#A4B87E"/>
<path d="M432.026 143.935L428.773 149.057L433.11 152.899L432.026 143.935Z" fill="#A3BB65"/>
<defs>
<linearGradient id="paint0_linear" x1="204.358" y1="8.1897" x2="204.358" y2="105.516" gradientUnits="userSpaceOnUse">
<stop stop-color="#4A5C29"/>
<stop offset="1" stop-color="#75933D"/>
</linearGradient>
<radialGradient id="paint1_radial" cx="0" cy="0" r="1" gradientUnits="userSpaceOnUse" gradientTransform="translate(203.274 58.7739) rotate(90) scale(44.1811 74.8053)">
<stop stop-color="#E47741"/>
<stop offset="0.697917" stop-color="#AB6E38"/>
<stop offset="1" stop-color="#4C5F2A"/>
</radialGradient>
<linearGradient id="paint2_linear" x1="192.433" y1="49.1693" x2="192.433" y2="90.1489" gradientUnits="userSpaceOnUse">
<stop stop-color="#96833E"/>
<stop offset="1" stop-color="#6D5F2B"/>
</linearGradient>
<linearGradient id="paint3_linear" x1="16.6832" y1="-1.45007e-06" x2="30.7998" y2="-0.501734" gradientUnits="userSpaceOnUse">
<stop offset="0.0542461" stop-color="#DF613B"/>
<stop offset="1" stop-color="#425224"/>
</linearGradient>
<linearGradient id="paint4_linear" x1="13.5204" y1="-1.45007e-06" x2="24.9658" y2="-0.329673" gradientUnits="userSpaceOnUse">
<stop offset="0.0542461" stop-color="#DF613B"/>
<stop offset="1" stop-color="#425224"/>
</linearGradient>
<linearGradient id="paint5_linear" x1="21.7974" y1="-1.45007e-06" x2="40.2249" y2="-0.855725" gradientUnits="userSpaceOnUse">
<stop offset="0.0542461" stop-color="#DF613B"/>
<stop offset="1" stop-color="#425224"/>
</linearGradient>
<linearGradient id="paint6_linear" x1="185.928" y1="42.7662" x2="184.627" y2="20.0565" gradientUnits="userSpaceOnUse">
<stop offset="0.0542461" stop-color="#DF613B"/>
<stop offset="1" stop-color="#425224"/>
</linearGradient>
<linearGradient id="paint7_linear" x1="27.2403" y1="-1.45007e-06" x2="50.2413" y2="-1.33482" gradientUnits="userSpaceOnUse">
<stop offset="0.0542461" stop-color="#DF613B"/>
<stop offset="1" stop-color="#425224"/>
</linearGradient>
<linearGradient id="paint8_linear" x1="27.2403" y1="-1.45007e-06" x2="50.2413" y2="-1.33482" gradientUnits="userSpaceOnUse">
<stop offset="0.0542461" stop-color="#DF613B"/>
<stop offset="1" stop-color="#425224"/>
</linearGradient>
<linearGradient id="paint9_linear" x1="20.6539" y1="-1.45007e-06" x2="38.1186" y2="-0.768469" gradientUnits="userSpaceOnUse">
<stop offset="0.0542461" stop-color="#DF613B"/>
<stop offset="1" stop-color="#425224"/>
</linearGradient>
<linearGradient id="paint10_linear" x1="12.7366" y1="-1.45007e-06" x2="23.5194" y2="-0.292584" gradientUnits="userSpaceOnUse">
<stop offset="0.0542461" stop-color="#DF613B"/>
<stop offset="1" stop-color="#425224"/>
</linearGradient>
<linearGradient id="paint11_linear" x1="9.95811" y1="-1.45007e-06" x2="18.3911" y2="-0.178905" gradientUnits="userSpaceOnUse">
<stop offset="0.0542461" stop-color="#DF613B"/>
<stop offset="1" stop-color="#425224"/>
</linearGradient>
<linearGradient id="paint12_linear" x1="233.629" y1="57.1824" x2="233.629" y2="168.266" gradientUnits="userSpaceOnUse">
<stop stop-color="#5A702E"/>
<stop offset="0.494792" stop-color="#6F8A39"/>
</linearGradient>
</defs>
</svg>
