<svg width="451" height="252" viewBox="0 0 451 252" fill="none" xmlns="http://www.w3.org/2000/svg">
<path d="M197.374 80.3594C202.041 78.0013 201.969 79.1036 205.178 77.1864C205.131 76.3988 204.472 72.7717 204.795 71.8682C204.24 69.814 203.909 64.726 202.349 64.3044C203.712 64.2182 206.634 63.9319 207.407 63.4761C207.563 63.3841 207.599 63.2703 207.546 63.1437C209.401 58.6832 212.811 50.2048 212.632 49.4894C212.403 48.5723 216.3 16.1995 215.613 16.1995C215.062 16.1995 208.172 46.4617 204.795 61.5929L209.503 11.9682C207.311 13.4952 202.71 45.6876 200.683 61.5929C199.309 47.9562 196.893 12.5799 194.431 10.0595C193.603 11.397 194.282 22.3775 193.588 23.7799C192.381 26.2183 192.698 31.0827 191.854 33.6168C191.183 35.6293 192.602 43.7287 192.13 45.7291C193.052 55.2599 189.835 47.9956 194.078 61.8935C194.098 62.4446 194.124 62.9728 194.156 63.4761L190.189 63.4373C190.821 59.8538 186.932 54.6444 186.94 45.9463C186.948 37.974 185.797 28.7045 188.459 16.1995C188.468 15.0379 186.125 10.6416 185.474 14.3334C185.024 16.8857 183.734 25.4023 182.771 38.4343C182.526 40.2656 182.979 43.2161 182.883 45.2309C182.574 51.6755 184.974 57.0968 184.546 66.1224L181.998 64.0458C176.767 36.3529 180.612 24.3774 179.424 21.2824C178.24 18.1989 178.228 20.8454 177.596 21.8543C172.624 36.6452 176.391 55.5834 176.54 65.7641C176.374 66.2218 176.221 66.6688 176.081 67.1055C175.771 66.5766 174.608 65.2128 172.442 63.9882C169.734 62.4574 169.458 38.6074 170.571 33.0266C171.461 28.5619 169.778 30.5461 168.826 32.0962C162.997 44.2777 165.689 58.5853 167.763 64.2164C167.244 65.5874 166.835 66.8632 166.518 68.0493L163.918 66.8433C158.7 64.9662 158.466 45.6361 158.499 42.9915C158.525 40.8758 157.725 41.9716 157.322 42.7839C153.779 50.2871 156.422 62.3128 158.186 67.3877C157.973 67.0031 155.469 67.0533 154.244 67.1265C151.701 65.1624 150.674 53.1407 152.017 48.8781C153.092 45.468 150.988 47.481 149.802 48.9137C146.938 52.5009 148.822 62.6972 150.121 67.3469C149.746 67.1898 148.969 67.2705 148.565 68.6337L144.369 55.3581C143.232 55.9405 144.621 71.0575 140.968 70.0955C140.515 69.9762 147.036 77.2206 149.619 77.9613C149.673 78.1862 149.724 78.3956 149.772 78.5863C152.181 79.8587 153.011 82.4751 153.124 83.6243C153.337 85.771 155.96 87.1583 158.119 84.9353L159.478 84.4219C160.214 84.9574 160.966 85.3305 161.642 85.5565C163.641 87.5936 167.249 86.4304 167.303 86.1243C167.346 85.8795 168.663 84.4165 169.316 83.7156C169.883 84.236 170.502 84.7581 170.909 85.0883C173.544 87.2248 175.07 84.2716 175.557 84.3575C175.946 84.4262 177.551 83.494 178.304 83.0193C179.164 83.8323 179.884 84.2446 180.033 84.394C181.496 85.8633 186.169 84.4378 186.105 83.9334C186.054 83.5299 186.539 82.9616 186.787 82.7279C186.264 82.0747 186.078 81.2732 186.177 80.538C186.289 79.7157 187.547 82.5607 188.301 82.2046C190.922 80.9664 195.007 81.5556 197.374 80.3594Z" fill="#F7EFA5"/>
<path d="M197.374 80.3594C202.041 78.0013 201.969 79.1036 205.178 77.1864C205.131 76.3988 204.472 72.7717 204.795 71.8682C204.24 69.814 203.909 64.726 202.349 64.3044M197.374 80.3594C195.007 81.5556 190.922 80.9664 188.301 82.2046C187.547 82.5607 186.289 79.7157 186.177 80.538M197.374 80.3594C196.168 78.4508 191.957 68.2138 194.204 64.1454C194.187 63.9275 194.171 63.7044 194.156 63.4761M200.683 61.5929C201.425 61.5011 201.261 64.0107 202.349 64.3044M200.683 61.5929C199.309 47.9562 196.893 12.5799 194.431 10.0595C193.603 11.397 194.282 22.3775 193.588 23.7799C192.381 26.2183 192.698 31.0827 191.854 33.6168C191.183 35.6293 192.602 43.7287 192.13 45.7291C193.052 55.2599 189.835 47.9956 194.078 61.8935C194.098 62.4446 194.124 62.9728 194.156 63.4761M200.683 61.5929C202.71 45.6876 207.311 13.4952 209.503 11.9682L204.795 61.5929M194.156 63.4761L190.189 63.4373C190.821 59.8538 186.932 54.6444 186.94 45.9463C186.948 37.974 185.797 28.7045 188.459 16.1995C188.468 15.0379 186.125 10.6416 185.474 14.3334C185.024 16.8857 183.734 25.4023 182.771 38.4343C182.526 40.2656 182.979 43.2161 182.883 45.2309C182.574 51.6755 184.974 57.0968 184.546 66.1224M184.546 66.1224C183.686 69.1775 182.809 76.3376 186.177 80.538M184.546 66.1224L181.998 64.0458C176.767 36.3529 180.612 24.3773 179.424 21.2824C178.24 18.1989 178.228 20.8454 177.596 21.8543C172.624 36.6452 176.391 55.5834 176.54 65.7641C176.374 66.2218 176.221 66.6688 176.081 67.1055M186.177 80.538C186.078 81.2732 186.264 82.0747 186.787 82.7279C186.539 82.9616 186.054 83.5299 186.105 83.9334C186.169 84.4378 181.496 85.8633 180.033 84.394C179.884 84.2446 179.164 83.8323 178.304 83.0193M178.304 83.0193C177.551 83.494 175.946 84.4262 175.557 84.3575C175.07 84.2716 173.544 87.2248 170.909 85.0883C170.502 84.7581 169.883 84.236 169.316 83.7156M178.304 83.0193C176.145 80.9759 173.111 76.4012 176.081 67.1055M176.081 67.1055C175.771 66.5766 174.608 65.2128 172.442 63.9882C169.734 62.4574 169.458 38.6074 170.571 33.0266C171.461 28.5619 169.778 30.5461 168.826 32.0962C162.997 44.2777 165.689 58.5853 167.763 64.2164C167.244 65.5874 166.835 66.8632 166.518 68.0493M169.316 83.7156C168.696 83.1473 168.138 82.581 167.983 82.2692C167.652 81.6025 163.871 77.95 166.518 68.0493M169.316 83.7156C168.663 84.4165 167.346 85.8795 167.303 86.1243C167.249 86.4304 163.641 87.5936 161.642 85.5565C160.966 85.3305 160.214 84.9574 159.478 84.4219M158.186 67.3877C156.422 62.3128 153.779 50.2871 157.322 42.7839C157.725 41.9716 158.525 40.8758 158.499 42.9915C158.466 45.6361 158.7 64.9662 163.918 66.8433C164.784 67.2453 166.518 68.0493 166.518 68.0493M158.186 67.3877C153.47 76.848 156.324 82.1264 159.478 84.4219M158.186 67.3877C157.973 67.0031 155.469 67.0533 154.244 67.1265C151.701 65.1624 150.674 53.1407 152.017 48.8781C153.092 45.468 150.988 47.481 149.802 48.9137C146.938 52.5009 148.822 62.6972 150.121 67.3469C149.746 67.1898 148.969 67.2705 148.565 68.6337M159.478 84.4219L158.119 84.9353C155.96 87.1583 153.337 85.771 153.124 83.6243C153.011 82.4751 152.181 79.8587 149.772 78.5863C149.724 78.3956 149.673 78.1862 149.619 77.9613M148.565 68.6337C148.515 68.8025 148.471 68.991 148.434 69.2011C148.125 70.9523 149.017 75.4335 149.619 77.9613M148.565 68.6337L144.369 55.3581C143.232 55.9405 144.621 71.0575 140.968 70.0955C140.515 69.9762 147.036 77.2206 149.619 77.9613M202.349 64.3044C203.712 64.2182 206.634 63.9319 207.407 63.4761M204.795 61.5929C205.988 62.0307 208.181 63.0204 207.407 63.4761M204.795 61.5929C208.172 46.4617 215.062 16.1995 215.613 16.1995C216.3 16.1995 212.403 48.5723 212.632 49.4894C212.816 50.223 209.225 59.1196 207.407 63.4761" stroke="black"/>
<path d="M212.368 72.6245C208.51 70.0256 208.399 70.9366 205.793 68.9078C205.962 68.271 207.14 65.4025 206.992 64.6178C207.825 63.0195 208.939 58.9099 210.423 58.7903C211.456 58.707 211.709 56.633 212.368 56.8148C215.797 45.8711 223.651 17.3153 226.288 15.6106C226.825 16.8226 224.452 25.6963 224.858 26.9422C225.563 29.1085 224.497 33.0372 224.858 35.2292C225.145 36.9702 222.561 43.3834 222.668 45.0856C220.307 52.74 224.389 47.2681 218.314 58.012C218.208 58.4594 218.1 58.8872 217.99 59.2938L221.597 59.8337C221.597 56.8148 225.96 53.1187 227.344 46.0108C228.613 39.496 231.141 32.0882 230.726 21.4876C230.903 20.5373 233.734 17.2829 233.734 20.393C233.734 22.5432 233.542 29.6875 232.33 40.4739C232.259 42.0054 231.375 44.3508 231.141 46.0108C230.389 51.3208 227.344 55.4045 226.288 62.8405L228.932 61.5108C238.112 39.6383 236.538 29.2997 238.112 26.9422C239.68 24.5935 239.267 26.7574 239.68 27.6729C241.824 40.4739 235.376 55.4045 233.611 63.7011C233.689 64.099 233.756 64.4863 233.813 64.8631C234.179 64.4758 235.453 63.529 237.615 62.8405C240.317 61.9799 244.384 42.5331 244.267 37.8131C244.174 34.0371 245.383 35.9006 246 37.3044C249.34 48.0969 244.608 59.399 241.824 63.7011C242.076 64.896 242.243 65.9973 242.341 67.012L244.894 66.4013C249.93 65.6194 253.235 49.8595 253.628 47.694C253.943 45.9616 254.494 46.9722 254.73 47.694C256.744 54.3348 252.421 63.7796 250.008 67.6719C250.263 67.3884 252.528 67.7901 253.628 68.0264C256.25 66.7881 259.105 57.1137 258.569 53.4374C258.139 50.4964 259.726 52.4442 260.573 53.7857C262.598 57.1292 259.257 65.1886 257.334 68.8003C257.7 68.7261 258.392 68.904 258.54 70.076L264.472 59.8337C265.411 60.4733 261.732 72.6245 265.201 72.3648C265.631 72.3326 258.554 77.3121 256.091 77.5451C256.006 77.7211 255.926 77.8849 255.852 78.0337C253.462 78.7262 252.291 80.7444 252.004 81.667C251.468 83.3904 248.865 84.1459 247.261 82.0186L246.11 81.4034C245.357 81.7349 244.614 81.9314 243.964 82.0186C241.824 83.395 238.736 81.9249 238.736 81.667C238.736 81.4607 237.775 80.0757 237.295 79.409C236.697 79.7524 236.051 80.0899 235.629 80.301C232.896 81.667 231.984 79.0343 231.528 79.0343C231.164 79.0343 229.857 78.0415 229.249 77.5451C228.339 78.0857 227.619 78.3186 227.46 78.4193C225.897 79.409 221.884 77.5711 222.023 77.1682C222.134 76.8458 221.785 76.3117 221.597 76.0849C222.177 75.6267 222.474 74.9986 222.501 74.3836C222.531 73.6957 220.934 75.8389 220.307 75.4394C218.127 74.0501 214.324 73.9429 212.368 72.6245Z" fill="#F7EFA5"/>
<path d="M212.368 72.6245C208.51 70.0256 208.399 70.9366 205.793 68.9077C205.962 68.271 207.14 65.4025 206.992 64.6178C207.825 63.0195 208.939 58.9099 210.423 58.7903C211.456 58.707 211.709 56.633 212.368 56.8148C215.797 45.8711 223.651 17.3153 226.288 15.6106C226.825 16.8226 224.452 25.6963 224.858 26.9422C225.563 29.1085 224.497 33.0372 224.858 35.2292C225.145 36.9702 222.561 43.3834 222.668 45.0856C220.307 52.74 224.389 47.2681 218.314 58.012C218.208 58.4595 218.1 58.8872 217.99 59.2938M212.368 72.6245C214.324 73.9429 218.127 74.0501 220.307 75.4394C220.934 75.8389 222.531 73.6957 222.501 74.3836M212.368 72.6245C213.768 71.2389 219.227 63.4815 217.839 59.8337C217.89 59.6582 217.94 59.4782 217.99 59.2938M217.99 59.2938L221.597 59.8337C221.597 56.8148 225.96 53.1187 227.344 46.0108C228.613 39.496 231.141 32.0882 230.726 21.4876C230.903 20.5373 233.734 17.2829 233.734 20.393C233.734 22.5432 233.542 29.6875 232.33 40.4739C232.259 42.0054 231.375 44.3508 231.141 46.0108C230.389 51.3208 227.344 55.4045 226.288 62.8405M226.288 62.8405C226.58 65.4604 226.23 71.437 222.501 74.3836M226.288 62.8405L228.932 61.5108C238.112 39.6383 236.538 29.2997 238.112 26.9422C239.68 24.5935 239.267 26.7574 239.68 27.6729C241.824 40.4739 235.376 55.4045 233.611 63.7011C233.689 64.099 233.756 64.4863 233.813 64.8631M222.501 74.3836C222.474 74.9986 222.177 75.6267 221.597 76.0849C221.785 76.3117 222.134 76.8458 222.023 77.1682C221.884 77.5711 225.897 79.409 227.46 78.4193C227.619 78.3186 228.339 78.0857 229.249 77.5451M229.249 77.5451C229.857 78.0415 231.164 79.0343 231.528 79.0343C231.984 79.0343 232.896 81.667 235.629 80.301C236.051 80.0899 236.697 79.7524 237.295 79.409M229.249 77.5451C231.536 76.1867 235.021 72.8862 233.813 64.8631M233.813 64.8631C234.179 64.4758 235.453 63.529 237.615 62.8405C240.317 61.9799 244.384 42.5331 244.267 37.8131C244.174 34.0371 245.383 35.9006 246 37.3044C249.34 48.0969 244.608 59.399 241.824 63.7011C242.076 64.896 242.243 65.9973 242.341 67.012M237.295 79.409C237.948 79.0339 238.546 78.6518 238.736 78.4193C239.143 77.9222 243.159 75.4827 242.341 67.012M237.295 79.409C237.775 80.0757 238.736 81.4607 238.736 81.667C238.736 81.9249 241.824 83.395 243.964 82.0186C244.614 81.9314 245.357 81.7349 246.11 81.4034M250.008 67.6719C252.421 63.7796 256.744 54.3348 254.73 47.694C254.494 46.9722 253.943 45.9616 253.628 47.694C253.235 49.8595 249.93 65.6194 244.894 66.4013C244.043 66.6049 242.341 67.012 242.341 67.012M250.008 67.6719C252.774 76.0807 249.34 79.9823 246.11 81.4034M250.008 67.6719C250.263 67.3884 252.528 67.7901 253.628 68.0264C256.25 66.7881 259.105 57.1137 258.569 53.4374C258.139 50.4964 259.726 52.4442 260.573 53.7857C262.598 57.1292 259.257 65.1886 257.334 68.8003C257.7 68.7261 258.392 68.904 258.54 70.076M246.11 81.4034L247.261 82.0186C248.865 84.1459 251.468 83.3904 252.004 81.667C252.291 80.7444 253.462 78.7262 255.852 78.0337C255.926 77.8849 256.006 77.7211 256.091 77.5451M258.54 70.076C258.559 70.2211 258.569 70.3814 258.569 70.5584C258.569 72.0337 257.042 75.5665 256.091 77.5451M258.54 70.076L264.472 59.8337C265.411 60.4733 261.732 72.6245 265.201 72.3648C265.631 72.3326 258.554 77.3121 256.091 77.5451" stroke="black"/>
<path d="M246.602 95.8771C245.78 96.7644 244.256 98.7124 244.735 99.4058C245.185 100.056 250.362 103.23 246.326 106.544C247.519 107.966 250.873 110.06 254.742 107.069L257.097 108.695C257.403 110.845 257.708 115.769 258.829 115.622C259.726 115.504 261.58 110.955 262.395 108.695C263.944 108.518 265.185 108.121 266.177 107.575C266.415 108.319 267.281 109.806 268.844 109.806L267.924 124.026C268.144 125.004 269.738 123.708 274.36 110.7C274.787 110.721 275.314 110.657 275.9 110.472C276.27 110.98 277.468 112.091 279.304 112.469C278.494 115.8 277.196 122.776 278.487 124.026C279.778 125.277 283.002 117.394 284.453 113.296C284.811 113.084 285.197 112.829 285.597 112.536L288.76 114.52C288.097 115.936 286.902 119.431 287.426 122.084C288.081 125.401 289.093 124.026 290.173 123.353C291.253 122.679 291.178 118.406 291.928 116.657C292.529 115.258 294.7 114.649 295.711 114.52C300.65 111.721 301.627 106.67 301.481 103.683C301.461 103.269 301.419 102.895 301.363 102.571C303.566 96.7837 302.281 96.2445 301.363 96.6984C299.528 98.1845 295.827 101.052 295.711 100.633C295.595 100.213 292.145 99.6873 290.435 99.4767C290.354 99.2967 290.267 99.1159 290.173 98.9344C291.372 96.8658 293.54 92.6458 292.625 92.3148C291.481 91.9011 287.696 93.9911 285.597 96.6984H283.093C284.472 95.0278 287.138 91.573 286.77 91.1187C286.311 90.551 286.541 85.6122 281.599 89.5367L280.101 90.551C280.121 90.736 280.133 90.9253 280.137 91.1187C280.208 94.5649 275.531 96.1255 269.517 96.6984C266.435 96.992 263.002 97.0263 259.676 96.9221C254.467 96.7588 249.521 96.2557 246.602 95.8771Z" fill="#F7EFA5"/>
<path d="M243.919 95.4433C244.013 95.4998 245.004 95.6698 246.602 95.8771M246.602 95.8771C245.78 96.7644 244.256 98.7124 244.735 99.4058C245.185 100.056 250.362 103.23 246.326 106.544C247.519 107.966 250.873 110.06 254.742 107.069M246.602 95.8771C249.521 96.2557 254.467 96.7588 259.676 96.9221M254.742 107.069C259.577 103.331 260.442 97.5686 259.676 96.9221M254.742 107.069L257.097 108.695C257.403 110.845 257.708 115.769 258.829 115.622C259.726 115.504 261.58 110.955 262.395 108.695C263.944 108.518 265.185 108.121 266.177 107.575M259.676 96.9221C263.002 97.0263 266.435 96.992 269.517 96.6984M269.517 96.6984C275.531 96.1255 280.208 94.5649 280.137 91.1187C280.133 90.9253 280.121 90.736 280.101 90.551L281.599 89.5367C286.541 85.6122 286.311 90.551 286.77 91.1187C287.138 91.573 284.472 95.0278 283.093 96.6984M269.517 96.6984C269.697 97.6155 271.419 104.687 266.177 107.575M266.177 107.575C266.415 108.319 267.281 109.806 268.844 109.806L267.924 124.026C268.144 125.004 269.738 123.708 274.36 110.7C274.787 110.721 275.314 110.657 275.9 110.472M283.093 96.6984L283.668 98.6212C282.028 106.67 278.414 109.68 275.9 110.472M283.093 96.6984H285.597C287.696 93.9911 291.481 91.9011 292.625 92.3148C293.54 92.6458 291.372 96.8658 290.173 98.9344C290.267 99.1159 290.354 99.2967 290.435 99.4767M275.9 110.472C276.27 110.98 277.468 112.091 279.304 112.469C278.494 115.8 277.196 122.776 278.487 124.026C279.778 125.277 283.002 117.394 284.453 113.296C284.811 113.084 285.197 112.829 285.597 112.536M290.435 99.4767C292.145 99.6873 295.595 100.213 295.711 100.633C295.827 101.052 299.528 98.1845 301.363 96.6984C302.281 96.2445 303.566 96.7837 301.363 102.571C301.419 102.895 301.461 103.269 301.481 103.683C301.627 106.67 300.65 111.721 295.711 114.52C294.7 114.649 292.529 115.258 291.928 116.657C291.178 118.406 291.253 122.679 290.173 123.353C289.093 124.026 288.081 125.401 287.426 122.084C286.902 119.431 288.097 115.936 288.76 114.52L285.597 112.536M290.435 99.4767C293.007 105.235 288.842 110.157 285.597 112.536" stroke="black"/>
<path d="M214.896 124.217C215.969 115.485 220.207 96.7769 228.576 91.7956C231.185 90.2431 232.768 88.5837 233.668 86.9474C236.378 82.0212 232.902 77.3036 232.6 76.3366L230.35 76.1047C230.602 75.7768 230.834 75.4154 230.978 75.1704C225.697 61.8702 222.051 73.3909 220.888 80.8137C215.994 93.0267 205.974 117.207 205.053 116.223C204.131 115.239 201.193 118.635 199.839 120.456C199.327 121.212 198.522 124.006 199.4 129.137C200.278 134.267 204.744 133.981 206.867 133.197C210.4 140.9 217.327 129.294 214.896 124.217Z" fill="#F7EFA5"/>
<path d="M217.941 144.282C217.18 130.346 211.678 134.541 209.022 138.38C207.186 137.747 203.403 138.042 202.957 144.282C202.398 152.082 209.022 152.241 210.782 153.059C212.543 153.877 225.827 183.006 225.827 183.84C225.827 184.508 226.045 187.735 226.153 189.265C226.388 191.685 229.574 188.883 231.138 187.179H233.991C238.67 184.466 235.941 180.212 233.991 178.424C232.786 178.862 222.789 157.723 217.941 147.099V144.282Z" fill="#F7EFA5"/>
<path d="M221.599 189.265C226.036 188.225 227.681 191.781 227.948 193.688C228.318 194.872 228.308 197.191 225.309 196.995C221.561 196.75 209.32 207.344 205.992 213.406C202.665 219.469 201.517 212.916 201.632 212.365C201.724 211.924 201.441 211.406 201.288 211.202C196.912 208.85 199.235 205.691 200.943 204.405C208.594 204.356 217.901 194.291 221.599 189.265Z" fill="#F7EFA5"/>
<path d="M233.742 191.024C230.494 187.266 230.179 193.91 230.179 194.313C229.582 197.601 212.137 209.658 209.442 211.202C206.747 212.746 208.061 215.129 208.587 215.55C209.113 215.971 209.376 216.603 209.442 218.917C209.494 220.769 211.26 220.25 212.137 219.759C217.263 211.236 222.324 207.132 230.179 202.187C238.034 197.241 237.411 195.923 237.725 192.702C238.039 189.481 235.231 190.252 235.105 190.756C235.004 191.158 234.155 191.102 233.742 191.024Z" fill="#F7EFA5"/>
<path d="M193.798 215.55C194.798 214.372 195.968 216.041 196.428 217.023C196.691 218.202 195.354 222.074 194.653 223.863C194.368 224.915 193.798 227.462 193.798 229.229C193.798 231.439 191.892 231.334 190.315 230.387C189.053 229.629 191.147 224.67 192.352 222.285C192.418 220.531 192.799 216.729 193.798 215.55Z" fill="#F7EFA5"/>
<path d="M200.24 213.406C202.291 213.406 201.563 218.133 200.943 220.496C200.336 223.968 201.288 224.483 201.936 228.232C202.584 231.981 199.251 230.387 199.423 229.787C199.56 229.307 198.528 229.215 197.995 229.229C198.204 229.615 198.184 230.387 196.428 230.387C194.232 230.387 196.052 222.285 196.692 221.191C197.204 220.316 196.905 217.238 196.692 215.808C195.552 213.585 196.435 212.586 197.019 212.365C197.939 212.922 197.676 213.406 200.24 213.406Z" fill="#F7EFA5"/>
<path d="M206.71 218.261C209.638 217.06 208.263 222.862 208.299 224.034C208.586 225.055 209.311 227.522 209.911 229.229C210.661 231.364 207.812 229.787 207.549 229.787C207.137 230.344 205.337 232.197 205.112 231.957C204.932 231.765 205.312 228.155 205.525 226.375C205.051 224.17 204.153 219.517 204.353 218.546C204.553 217.576 206.007 217.952 206.71 218.261Z" fill="#F7EFA5"/>
<path d="M189.96 234.148C192.253 231.191 193.013 233.893 193.105 235.614C191.911 237.08 190.247 245.138 190.315 245.303C189.038 242.346 189.546 236.634 189.96 234.148Z" fill="#F7EFA5"/>
<path d="M195.972 237.017C197.711 231.56 200.011 235.296 200.943 237.845C200.461 238.916 199.339 245.728 198.839 249C198.138 248.847 196.636 240.947 195.972 237.017Z" fill="#F7EFA5"/>
<path d="M205.992 236.443C206.937 233.434 208.492 235.189 209.151 236.443C209.581 237.106 208.56 241.649 207.997 243.837L205.992 236.443Z" fill="#F7EFA5"/>
<path d="M239.98 239.639C241.209 235.51 238.742 232.797 237.355 231.957C234.656 231.957 232.606 237.959 231.919 240.96C232.856 239.979 235.143 238.343 236.793 239.639C238.442 240.936 239.605 240.18 239.98 239.639Z" fill="#F7EFA5"/>
<path d="M247.269 250.585C249.867 244.777 247.045 242.907 245.31 242.697C242.51 244.435 240.887 250.047 241.782 250.585C242.499 251.015 245.739 250.764 247.269 250.585Z" fill="#F7EFA5"/>
<path d="M245.31 230.619C239.98 227.736 239.98 232.443 241.635 234.737C240.9 238.443 243.583 239.09 243.914 237.914C244.178 236.973 244.955 236.149 245.31 235.855C247.014 236.749 250.356 235.482 251.814 234.737C255.673 231.207 250.051 226.972 249.536 228.031C249.124 228.878 246.547 230.109 245.31 230.619Z" fill="#F7EFA5"/>
<path d="M252.41 247.166C253.847 242.974 255.444 241.031 255.444 240.469H257.775C258.126 240.469 261.033 237.248 259.532 236.277C258.331 235.5 257.754 234.181 257.616 233.618C257.922 231.369 256.423 231.573 255.636 231.957C254.518 235.883 252.41 236.532 248.833 237.914C245.972 239.019 246.981 241.563 247.843 242.697C248.301 242.534 249.351 242.77 249.887 245.019C250.424 247.269 251.793 247.388 252.41 247.166Z" fill="#F7EFA5"/>
<path d="M263.021 239.112C267.752 239.112 265.597 233.767 263.928 231.095L259.206 232.927L263.021 239.112Z" fill="#F7EFA5"/>
<path d="M256.746 225.174C256.577 225.781 257.255 227.846 257.616 228.803C260.141 230.483 261.08 229.302 261.242 227.202C269.688 228.357 267.203 222.777 264.905 219.842C263.785 217.96 264.625 197.793 264.905 196.995C265.129 196.357 266.297 188.932 266.854 185.299C264.55 176.899 262.152 180.361 261.242 183.142C260.725 183.439 259.972 183.739 259.172 184.311C260.031 181.953 254.893 183.422 254.631 184.311C254.435 184.979 255.523 188.886 256.091 190.756C256.456 203.908 253.392 219.181 251.814 225.174C254.093 234.204 256.957 224.414 256.746 225.174Z" fill="#F7EFA5"/>
<path d="M233.991 157.207C235.408 156.025 247.499 171.283 253.257 178.424C256.966 185.948 260.197 182.161 259.947 175.889C260.609 176.915 262.179 177.195 263.16 170.099C264.142 163.003 259.243 162.673 256.671 163.395C249.044 163.973 242.627 155.247 240.372 150.813V144.282C237.409 136.41 233.991 144.282 233.415 145.14C232.954 145.827 230.86 146.732 229.871 147.099C224.331 158.238 232.384 158.548 233.991 157.207Z" fill="#F7EFA5"/>
<path d="M231.804 113.787L227.81 129.67C223.88 132.661 221.174 141.943 229.871 141.943L232.577 138.38C233.973 139.393 236.996 140.81 237.924 138.38C238.852 135.95 238.053 133.912 237.538 133.197L237.924 128.02C240.344 133.646 251.002 149.988 251.968 147.719C252.935 145.45 246.106 130.229 245.462 129.67C244.817 129.111 244.431 125.338 243.078 111.931C241.725 98.5232 236.7 94.3617 235.863 93.1245C235.193 92.1348 230.726 96.7925 228.576 99.2451C227.798 104.142 230.404 110.98 231.804 113.787Z" fill="#F7EFA5"/>
<path d="M205.91 130.229C206.186 131.435 206.509 132.415 206.867 133.197M206.867 133.197C210.4 140.9 217.327 129.294 214.896 124.217C215.969 115.485 220.207 96.7769 228.576 91.7956C231.185 90.2431 232.768 88.5837 233.668 86.9474C236.378 82.0212 232.902 77.3036 232.6 76.3366L230.35 76.1047M206.867 133.197C204.744 133.981 200.278 134.267 199.4 129.137C198.522 124.006 199.327 121.212 199.839 120.456C201.193 118.635 204.131 115.239 205.053 116.223C205.974 117.207 215.994 93.0267 220.888 80.8137C222.051 73.3909 225.697 61.8702 230.978 75.1704C230.834 75.4154 230.602 75.7768 230.35 76.1047M229.481 76.8813C229.723 76.8367 230.051 76.4942 230.35 76.1047M219.892 94.3617C216.52 101.469 209.775 115.782 209.775 116.18M228.576 84.589C227.377 83.9496 225.034 81.513 225.259 76.8813M261.242 183.142C260.725 183.439 259.972 183.739 259.172 184.311C260.031 181.953 254.893 183.422 254.631 184.311C254.435 184.979 255.523 188.886 256.091 190.756C256.456 203.908 253.392 219.181 251.814 225.174C254.093 234.204 256.957 224.414 256.746 225.174C256.577 225.781 257.255 227.846 257.616 228.803C260.141 230.483 261.08 229.302 261.242 227.202M261.242 183.142C261.657 182.904 261.92 182.669 261.933 182.297C262.179 182.297 265.063 181.659 263.16 188.78C261.258 195.902 260.614 198.211 260.737 199.586C260.835 200.686 260.507 214.008 260.331 220.532C260.872 222.51 261.392 225.252 261.242 227.202M261.242 183.142C262.152 180.361 264.55 176.899 266.854 185.299C266.297 188.932 265.129 196.357 264.905 196.995C264.625 197.793 263.785 217.96 264.905 219.842C267.203 222.777 269.688 228.357 261.242 227.202M259.532 172.65C259.772 173.77 259.906 174.863 259.947 175.889M259.947 175.889C260.197 182.161 256.966 185.948 253.257 178.424C247.499 171.283 235.408 156.025 233.991 157.207C232.384 158.548 224.331 158.238 229.871 147.099C230.86 146.732 232.954 145.827 233.415 145.14C233.991 144.282 237.409 136.41 240.372 144.282C240.372 146.041 240.372 149.369 240.372 150.813C242.627 155.247 249.044 163.973 256.671 163.395C259.243 162.673 264.142 163.003 263.16 170.099C262.179 177.195 260.609 176.915 259.947 175.889ZM231.804 113.787L227.81 129.67C223.88 132.661 221.174 141.943 229.871 141.943L232.577 138.38C233.973 139.393 236.996 140.81 237.924 138.38C238.852 135.95 238.053 133.912 237.538 133.197L237.924 128.02M231.804 113.787L237.924 128.02M231.804 113.787C230.404 110.98 227.798 104.142 228.576 99.2451C230.726 96.7925 235.193 92.1348 235.863 93.1245C236.7 94.3617 241.725 98.5232 243.078 111.931C244.431 125.338 244.817 129.111 245.462 129.67C246.106 130.229 252.935 145.45 251.968 147.719C251.002 149.988 240.344 133.646 237.924 128.02M209.022 138.38C211.678 134.541 217.18 130.346 217.941 144.282V147.099C222.789 157.723 232.786 178.862 233.991 178.424C235.941 180.212 238.67 184.466 233.991 187.179H231.138C229.574 188.883 226.388 191.685 226.153 189.265C226.045 187.735 225.827 184.508 225.827 183.84C225.827 183.006 212.543 153.877 210.782 153.059C209.022 152.241 202.398 152.082 202.957 144.282C203.403 138.042 207.186 137.747 209.022 138.38ZM227.948 193.688C227.681 191.781 226.036 188.225 221.599 189.265C217.901 194.291 208.594 204.356 200.943 204.405C199.235 205.691 196.912 208.85 201.288 211.202C201.441 211.406 201.724 211.924 201.632 212.365C201.517 212.916 202.665 219.469 205.992 213.406C209.32 207.344 221.561 196.75 225.309 196.995C228.308 197.191 228.318 194.872 227.948 193.688ZM230.179 194.313C230.179 193.91 230.494 187.266 233.742 191.024C234.155 191.102 235.004 191.158 235.105 190.756C235.231 190.252 238.039 189.481 237.725 192.702C237.411 195.923 238.034 197.241 230.179 202.187C222.324 207.132 217.263 211.236 212.137 219.759C211.26 220.25 209.494 220.769 209.442 218.917C209.376 216.603 209.113 215.971 208.587 215.55C208.061 215.129 206.747 212.746 209.442 211.202C212.137 209.658 229.582 197.601 230.179 194.313ZM196.428 217.023C195.968 216.041 194.798 214.372 193.798 215.55C192.799 216.729 192.418 220.531 192.352 222.285C191.147 224.67 189.053 229.629 190.315 230.387C191.892 231.334 193.798 231.439 193.798 229.229C193.798 227.462 194.368 224.915 194.653 223.863C195.354 222.074 196.691 218.202 196.428 217.023ZM200.943 220.496C201.563 218.133 202.291 213.406 200.24 213.406C197.676 213.406 197.939 212.922 197.019 212.365C196.435 212.586 195.552 213.585 196.692 215.808C196.905 217.238 197.204 220.316 196.692 221.191C196.052 222.285 194.232 230.387 196.428 230.387C198.184 230.387 198.204 229.615 197.995 229.229C198.528 229.215 199.56 229.307 199.423 229.787C199.251 230.387 202.584 231.981 201.936 228.232C201.288 224.483 200.336 223.968 200.943 220.496ZM208.299 224.034C208.263 222.862 209.638 217.06 206.71 218.261C206.007 217.952 204.553 217.576 204.353 218.546C204.153 219.517 205.051 224.17 205.525 226.375C205.312 228.155 204.932 231.765 205.112 231.957C205.337 232.197 207.137 230.344 207.549 229.787C207.812 229.787 210.661 231.364 209.911 229.229C209.311 227.522 208.586 225.055 208.299 224.034ZM193.105 235.614C193.013 233.893 192.253 231.191 189.96 234.148C189.546 236.634 189.038 242.346 190.315 245.303C190.247 245.138 191.911 237.081 193.105 235.614ZM200.943 237.845C200.011 235.296 197.711 231.56 195.972 237.017C196.636 240.947 198.138 248.847 198.839 249C199.339 245.728 200.461 238.916 200.943 237.845ZM209.151 236.443C208.492 235.189 206.937 233.434 205.992 236.443L207.997 243.837C208.56 241.649 209.581 237.106 209.151 236.443ZM237.355 231.957C238.742 232.797 241.209 235.51 239.98 239.639C239.605 240.18 238.442 240.936 236.793 239.639C235.143 238.343 232.856 239.979 231.919 240.96C232.606 237.959 234.656 231.957 237.355 231.957ZM245.31 242.697C247.045 242.906 249.867 244.777 247.269 250.585C245.739 250.764 242.499 251.015 241.782 250.585C240.887 250.047 242.51 244.435 245.31 242.697ZM241.635 234.737C239.98 232.443 239.98 227.736 245.31 230.619C246.547 230.109 249.124 228.878 249.536 228.031C250.051 226.972 255.673 231.207 251.814 234.737C250.356 235.482 247.014 236.749 245.31 235.855C244.955 236.149 244.178 236.973 243.914 237.914C243.583 239.09 240.9 238.443 241.635 234.737ZM255.444 240.469C255.444 241.031 253.847 242.974 252.41 247.166C251.793 247.388 250.424 247.269 249.887 245.019C249.351 242.77 248.301 242.534 247.843 242.697C246.981 241.563 245.972 239.019 248.833 237.914C252.41 236.532 254.518 235.883 255.636 231.957C256.423 231.573 257.922 231.369 257.616 233.618C257.754 234.181 258.331 235.5 259.532 236.277C261.033 237.248 258.126 240.469 257.775 240.469C257.494 240.469 256.104 240.469 255.444 240.469ZM263.928 231.095C265.597 233.767 267.752 239.112 263.021 239.112L259.206 232.927L263.928 231.095Z" stroke="black"/>
<path d="M350.573 109.998L351.176 109.123C350.638 104.922 348.167 102.951 346.335 102.224C346.659 102.022 347.662 101.632 349.084 101.69C348.761 99.9336 348.388 96.3093 349.474 95.8626C350.559 95.4159 352.31 99.7461 353.05 101.967C353.302 102.12 353.572 102.298 353.849 102.496L356.414 101.936C356.036 101.147 355.437 99.2586 356.065 98.0158C356.85 96.4623 357.496 97.2771 358.254 97.7546C359.012 98.2321 358.582 100.336 358.997 101.301C359.329 102.074 360.919 102.665 361.672 102.863C361.299 102.633 363.883 102.601 365.221 102.614C365.057 102.236 364.697 101.358 364.563 100.864C364.396 100.247 365.097 98.6174 365.901 98.7591C366.704 98.9009 368.006 101.7 368.079 102.072C368.12 102.282 368.772 102.535 369.378 102.722C370.037 102.779 371.362 102.687 371.391 101.856C371.427 100.817 372.13 99.0586 372.602 99.1651C372.98 99.2503 373.741 100.319 374.074 100.842C374.359 101.225 375.041 101.997 375.487 102.02C376.045 102.049 377.996 102.277 378.412 102.42C378.152 102.152 380.24 101.909 381.317 101.821C381.459 101.014 381.906 99.4269 382.554 99.5411C383.202 99.6553 384.341 101.293 384.83 102.097L387.117 102.5C387.205 102.516 387.291 102.567 387.375 102.648L390.15 102.382C390.194 102.607 390.459 102.717 391.168 101.354C392.054 99.6504 393.048 100.894 393.183 100.839C393.291 100.795 393.79 102.223 394.025 102.943C394.46 103.166 395.472 103.657 396.043 103.837C396.2 103.886 396.312 104.073 396.388 104.338L396.865 103.683L397.94 103.633L399.833 103.542C400.152 103.378 400.865 102.89 401.162 102.246C401.458 101.601 402.402 101.991 402.837 102.266L402.692 103.092L403.438 104.358L405.311 105.055L406.02 104.814C406.452 104.89 407.324 105.007 407.349 104.867C407.373 104.727 408.883 103.874 409.635 103.465L410.387 103.872L410.501 105.423C410.868 105.629 411.698 106.083 412.076 106.248L413.219 105.595L414.77 105.671L415.353 105.619L415.906 104.846L417.51 104.328C417.732 104.45 418.167 104.746 418.128 104.962C418.09 105.178 418.414 106.104 418.58 106.54C418.748 106.672 419.185 106.954 419.59 107.026C419.777 107.059 419.878 107.135 419.923 107.265L421.868 107.12C421.972 106.923 422.317 106.41 422.859 105.938C423.401 105.465 424.172 105.488 424.49 105.559L424.73 106.268C424.707 106.5 424.777 107.007 425.249 107.173C425.72 107.34 427.001 108.084 427.582 108.435C427.577 108.49 427.572 108.55 427.566 108.613L429.036 108.384L430.535 108.296L431.518 108.822L432.131 109.129C432.449 109.221 433.135 109.45 433.341 109.631C433.427 109.707 433.36 109.966 433.227 110.277C433.422 110.31 433.854 110.398 434.021 110.478C434.23 110.58 435.333 109.982 435.948 110.091C436.44 110.178 436.874 110.839 437.029 111.159C437.308 111.222 437.954 111.356 438.312 111.385C438.645 111.412 439.154 111.709 439.38 111.918L440.938 112.193C441.168 112.234 442.457 112.834 443.072 113.128C443.009 113.228 442.912 113.366 442.802 113.493C443.648 113.644 445.332 113.984 445.305 114.139C445.299 114.175 445.277 114.242 445.241 114.328L447.519 115.677C448.018 115.931 448.98 116.434 448.836 116.408L447.253 116.129C447.264 116.239 445.388 115.614 444.448 115.288C444.306 115.357 444.148 115.388 443.977 115.357C443.344 115.246 441.998 114.805 441.403 114.599C440.532 114.83 438.711 114.076 437.909 113.67C437.807 113.755 437.652 113.824 437.423 113.858C436.677 113.97 433.792 112.444 432.442 111.666C432.412 111.705 432.389 111.729 432.377 111.734C432.281 111.773 431.343 112.195 430.887 112.401L429.422 111.66L426.928 111.22C426.882 111.295 426.835 111.339 426.709 111.316L425.596 111.12L425.105 111.244C425.01 111.387 424.739 111.721 424.414 111.908C424.089 112.094 423.561 112.113 423.337 112.099L422.279 111.591L422.019 110.7L418.897 109.939L417.89 110.453L416.827 110.57L416.726 111.14L415.693 111.675C415.461 111.708 414.957 111.651 414.794 111.156C414.631 110.661 412.847 109.629 411.976 109.174C411.934 109.296 411.896 109.382 411.873 109.392C411.793 109.425 410.568 109.466 410.39 109.495C410.211 109.523 409.334 110.554 409.175 110.749C409.048 110.905 408.383 110.684 408.067 110.554C407.972 110.384 407.711 109.98 407.419 109.717C407.128 109.455 405.495 108.753 404.716 108.434C404.053 108.559 402.709 108.822 402.642 108.875C402.557 108.941 401.943 109.938 401.908 110.001C401.872 110.064 400.755 110.051 400.471 110.001C400.188 109.951 399.203 108.499 398.982 108.368C398.806 108.263 397.114 107.632 396.291 107.33C396.258 107.416 396.224 107.48 396.188 107.519C395.9 107.828 394.742 107.892 394.199 107.885L393.995 109.048C393.556 109.244 392.597 109.621 392.272 109.564C391.948 109.507 390.974 108.385 390.528 107.832L388.54 107.274C388.244 107.462 387.475 107.531 387.056 107.541C387.381 108.232 386.479 109.369 385.902 109.388C385.441 109.403 383.997 108.266 383.333 107.695L381.025 107.237L380.777 107.67C380.798 107.735 380.94 108.195 381.336 109.511C381.832 111.155 380.157 110.627 379.772 110.582C379.464 110.547 377.313 108.933 376.276 108.13C375.585 108.241 374.126 108.43 373.816 108.303C373.817 108.869 374.09 109.96 374.209 111.169C374.328 112.376 373.163 112.139 372.566 111.869C371.389 111.006 369.201 109.384 368.976 109.149C368.698 109.219 365.557 109.076 365.091 108.994C365.039 109.197 364.975 109.376 364.904 109.529C366.066 112.686 365.047 112.782 364.392 112.435C363.133 111.455 360.585 109.542 360.46 109.734C360.336 109.926 357.681 109.726 356.368 109.603C356.292 109.681 356.21 109.759 356.124 109.836C356.85 111.019 358.122 113.396 357.4 113.438C356.499 113.49 353.818 111.951 352.467 110.332L350.573 109.998Z" fill="#F7EFA5"/>
<path d="M356.368 109.603C356.292 109.681 356.21 109.759 356.124 109.836C356.85 111.019 358.122 113.396 357.4 113.438C356.499 113.49 353.818 111.951 352.467 110.332L350.573 109.998L351.176 109.123C350.638 104.922 348.167 102.951 346.335 102.224C346.659 102.022 347.662 101.632 349.084 101.69C348.761 99.9336 348.388 96.3093 349.474 95.8626C350.559 95.4159 352.31 99.7461 353.05 101.967C353.302 102.12 353.572 102.298 353.849 102.496M356.368 109.603C357.681 109.726 360.336 109.926 360.46 109.734C360.585 109.542 363.133 111.455 364.392 112.435C365.047 112.782 366.065 112.686 364.904 109.529C364.975 109.376 365.039 109.197 365.091 108.994M356.368 109.603C358.817 107.097 356.096 104.106 353.849 102.496M361.672 102.863C360.919 102.665 359.329 102.074 358.997 101.301C358.582 100.336 359.012 98.2321 358.254 97.7546C357.496 97.2771 356.85 96.4623 356.065 98.0158C355.437 99.2586 356.036 101.147 356.414 101.936L353.849 102.496M361.672 102.863C365.163 104.906 365.462 107.536 365.091 108.994M361.672 102.863C361.299 102.633 363.883 102.601 365.221 102.614C365.057 102.236 364.697 101.358 364.563 100.864C364.396 100.247 365.097 98.6174 365.901 98.7591C366.704 98.9009 368.006 101.7 368.079 102.072C368.12 102.282 368.772 102.535 369.378 102.722M365.091 108.994C365.6 109.084 369.3 109.246 368.976 109.124C368.717 109.026 371.262 110.913 372.566 111.869C373.163 112.139 374.328 112.376 374.209 111.169C374.09 109.96 373.817 108.869 373.816 108.303M373.816 108.303C373.816 108.163 373.833 108.055 373.872 107.986C374.072 107.637 372.359 104.036 370.071 102.914C369.881 102.867 369.634 102.8 369.378 102.722M373.816 108.303C374.126 108.43 375.585 108.241 376.276 108.13C377.313 108.933 379.464 110.547 379.772 110.582C380.157 110.627 381.832 111.155 381.336 109.511C380.94 108.195 380.798 107.735 380.777 107.67L381.025 107.237M378.412 102.42C378.746 102.535 380.459 105.391 381.273 106.804L381.025 107.237M378.412 102.42C377.996 102.277 376.045 102.049 375.487 102.02C375.041 101.997 374.359 101.225 374.074 100.842C373.741 100.319 372.98 99.2503 372.602 99.1651C372.13 99.0586 371.427 100.817 371.391 101.856C371.362 102.687 370.037 102.779 369.378 102.722M378.412 102.42C378.152 102.152 380.24 101.909 381.317 101.821C381.459 101.014 381.906 99.4269 382.554 99.5411C383.202 99.6553 384.341 101.293 384.83 102.097C385.283 102.177 386.375 102.369 387.117 102.5C387.205 102.516 387.291 102.567 387.375 102.648M381.025 107.237L383.333 107.695C383.997 108.266 385.441 109.403 385.902 109.388C386.479 109.369 387.381 108.232 387.056 107.541C387.475 107.531 388.244 107.462 388.54 107.274M388.54 107.274C388.606 107.232 388.649 107.185 388.658 107.13C388.718 106.793 388.167 103.412 387.375 102.648M388.54 107.274L390.528 107.832C390.974 108.385 391.948 109.507 392.272 109.564C392.597 109.621 393.556 109.244 393.995 109.048L394.199 107.885C394.742 107.892 395.9 107.828 396.188 107.519C396.224 107.48 396.258 107.416 396.291 107.33M387.375 102.648L390.15 102.382C390.194 102.607 390.459 102.717 391.168 101.354C392.054 99.6504 393.048 100.894 393.183 100.839C393.291 100.795 393.79 102.223 394.025 102.943C394.46 103.166 395.472 103.657 396.043 103.837C396.2 103.886 396.312 104.073 396.388 104.338M396.291 107.33C397.114 107.632 398.806 108.263 398.982 108.368C399.203 108.499 400.188 109.951 400.471 110.001C400.755 110.051 401.872 110.064 401.908 110.001C401.943 109.938 402.557 108.941 402.642 108.875C402.709 108.822 404.053 108.559 404.716 108.434M396.291 107.33C396.51 106.741 396.624 105.161 396.388 104.338M404.716 108.434L405.311 105.055M404.716 108.434C405.495 108.753 407.128 109.455 407.419 109.717C407.711 109.98 407.972 110.384 408.067 110.554C408.383 110.684 409.048 110.905 409.175 110.749C409.334 110.554 410.211 109.523 410.39 109.495C410.568 109.466 411.793 109.425 411.873 109.392C411.896 109.382 411.934 109.296 411.976 109.174M405.311 105.055L403.438 104.358L402.692 103.092L402.837 102.266C402.402 101.991 401.458 101.601 401.162 102.246C400.865 102.89 400.152 103.378 399.833 103.542L397.94 103.633L396.865 103.683L396.388 104.338M405.311 105.055L406.02 104.814C406.452 104.89 407.324 105.007 407.349 104.867C407.373 104.727 408.883 103.874 409.635 103.465L410.387 103.872L410.501 105.423C410.868 105.629 411.698 106.083 412.076 106.248M412.076 106.248C412.455 106.413 412.309 107.784 412.188 108.449C412.139 108.642 412.05 108.961 411.976 109.174M412.076 106.248L413.219 105.595L414.77 105.671L415.353 105.619L415.906 104.846L417.51 104.328C417.732 104.45 418.167 104.746 418.128 104.962C418.09 105.178 418.414 106.104 418.58 106.54C418.748 106.672 419.185 106.954 419.59 107.026C419.777 107.059 419.878 107.135 419.923 107.265M411.976 109.174C412.847 109.629 414.631 110.661 414.794 111.156C414.957 111.651 415.461 111.708 415.693 111.675L416.726 111.14L416.827 110.57L417.89 110.453L418.897 109.939M418.897 109.939L419.094 109.839C419.275 109.698 419.671 109.226 419.805 108.467C419.911 107.869 419.999 107.487 419.923 107.265M418.897 109.939L422.019 110.7L422.279 111.591L423.337 112.099C423.561 112.113 424.089 112.094 424.414 111.908C424.739 111.721 425.01 111.387 425.105 111.244L425.596 111.12C425.882 111.171 426.506 111.281 426.709 111.316C426.835 111.339 426.882 111.295 426.928 111.22M419.923 107.265L421.868 107.12C421.972 106.923 422.317 106.41 422.859 105.938C423.401 105.465 424.172 105.488 424.49 105.559L424.73 106.268C424.707 106.5 424.777 107.007 425.249 107.173C425.72 107.34 427.001 108.084 427.582 108.435C427.577 108.49 427.572 108.55 427.566 108.613M426.928 111.22C426.973 111.145 427.018 111.039 427.141 110.937C427.322 110.785 427.49 109.421 427.566 108.613M426.928 111.22L429.422 111.66L430.887 112.401C431.343 112.195 432.281 111.773 432.377 111.734C432.389 111.729 432.412 111.705 432.442 111.666M427.566 108.613L429.036 108.384L430.535 108.296L431.518 108.822L432.131 109.129C432.449 109.221 433.135 109.45 433.341 109.631C433.427 109.707 433.36 109.966 433.227 110.277M432.442 111.666C433.792 112.444 436.677 113.97 437.423 113.858C437.652 113.824 437.807 113.755 437.909 113.67M432.442 111.666C432.608 111.454 433.007 110.793 433.227 110.277M433.227 110.277C433.422 110.31 433.854 110.398 434.021 110.478C434.23 110.58 435.333 109.982 435.948 110.091C436.44 110.178 436.874 110.839 437.029 111.159C437.308 111.222 437.954 111.356 438.312 111.385C438.645 111.412 439.154 111.709 439.38 111.918M437.909 113.67C438.137 113.48 438.095 113.207 438.018 113.054C438.501 112.78 439.474 112.202 439.494 112.087C439.501 112.05 439.456 111.989 439.38 111.918M437.909 113.67C438.711 114.076 440.532 114.83 441.403 114.599M441.403 114.599C441.613 114.32 442.091 113.772 442.321 113.813C442.458 113.837 442.642 113.678 442.802 113.493M441.403 114.599C441.998 114.805 443.344 115.246 443.977 115.357C444.148 115.388 444.306 115.357 444.448 115.288M439.38 111.918C439.803 111.993 440.707 112.153 440.938 112.193C441.168 112.234 442.457 112.834 443.072 113.128C443.009 113.228 442.912 113.366 442.802 113.493M442.802 113.493C443.648 113.644 445.332 113.984 445.305 114.139C445.299 114.175 445.277 114.242 445.241 114.328M444.448 115.288C445.388 115.614 447.264 116.239 447.253 116.129M444.448 115.288C444.844 115.097 445.121 114.612 445.241 114.328M447.253 116.129C447.243 116.02 447.426 115.782 447.519 115.677M447.253 116.129C447.721 116.212 448.692 116.383 448.836 116.408C448.98 116.434 448.018 115.931 447.519 115.677M447.519 115.677L445.241 114.328" stroke="black"/>
<path d="M298.003 99.4488L299.201 101.059C300.413 109.183 298.046 113.248 295.955 114.852C296.476 115.203 297.982 115.837 299.837 115.564C300.215 118.972 301.381 125.97 303.022 126.704C304.662 127.438 304.996 118.928 304.958 114.581C305.221 114.259 305.497 113.887 305.773 113.475L309.424 114.257C309.285 115.815 309.357 119.508 310.757 121.822C312.507 124.714 312.988 123.077 313.773 122.074C314.557 121.071 313.025 117.082 313.132 115.182C313.217 113.662 315.05 112.347 315.956 111.88C315.569 112.364 319.001 112.132 320.766 111.955C320.723 112.698 320.647 114.424 320.697 115.388C320.758 116.592 322.432 119.639 323.431 119.276C324.429 118.912 324.87 113.392 324.796 112.669C324.754 112.263 325.501 111.702 326.217 111.275C327.063 111.089 328.858 111.116 329.277 112.708C329.801 114.698 331.536 117.992 332.112 117.734C332.573 117.528 333.091 115.391 333.292 114.348C333.494 113.58 334.042 112.021 334.622 111.926C335.347 111.807 337.823 111.148 338.309 110.826C338.088 111.37 340.962 111.599 342.427 111.645C342.985 113.179 344.303 116.173 345.108 115.88C345.913 115.587 346.67 112.316 346.948 110.716L349.79 109.682C349.9 109.642 349.99 109.533 350.064 109.369C350.762 107.813 349.942 101.26 349.709 100.62C349.672 100.517 349.593 100.43 349.487 100.357C349.01 100.031 347.96 99.986 347.401 100.013C347.514 98.6514 345.8 96.5707 345.028 96.6001C344.411 96.6236 343.021 98.9712 342.404 100.142L339.56 101.283L339.034 100.482C339.032 100.353 339.008 99.4538 338.931 96.8842C338.834 93.6723 336.859 94.8757 336.37 95.0052C335.979 95.1088 333.872 98.4509 332.867 100.109C331.903 99.9754 329.886 99.778 329.534 100.057C329.276 98.9719 329.137 96.8457 328.74 94.5114C328.345 92.1816 326.913 92.7702 326.247 93.3558C325.084 95.1459 322.931 98.5076 322.742 98.985C322.342 98.8815 318.251 99.5135 317.671 99.7235C317.511 99.3412 317.343 99.0037 317.18 98.719C317.271 92.5268 315.879 92.4597 315.172 93.2001C313.955 95.2244 311.459 99.1843 311.206 98.83C310.954 98.4757 307.532 99.1615 305.852 99.5486C305.715 99.407 305.572 99.2669 305.421 99.1284C305.84 96.7746 306.434 92.0675 305.461 92.0695C304.245 92.072 301.402 95.3306 300.356 98.5925L298.003 99.4488Z" fill="#F7EFA5"/>
<path d="M305.852 99.5486C305.715 99.407 305.572 99.2669 305.421 99.1284C305.84 96.7746 306.434 92.0675 305.461 92.0695C304.245 92.072 301.402 95.3306 300.356 98.5925L298.003 99.4488L299.201 101.059C300.413 109.183 298.046 113.248 295.955 114.852C296.476 115.203 297.982 115.837 299.837 115.564C300.215 118.972 301.381 125.97 303.022 126.704C304.662 127.438 304.996 118.928 304.958 114.581C305.221 114.259 305.497 113.887 305.773 113.475M305.852 99.5486C307.532 99.1615 310.954 98.4757 311.206 98.83C311.459 99.1843 313.955 95.2244 315.172 93.2001C315.879 92.4597 317.271 92.5268 317.18 98.719C317.343 99.0037 317.511 99.3412 317.671 99.7235M305.852 99.5486C310.239 104.08 308.009 110.129 305.773 113.475M315.956 111.88C315.05 112.347 313.217 113.662 313.132 115.182C313.025 117.082 314.557 121.071 313.773 122.074C312.988 123.077 312.507 124.714 310.757 121.822C309.357 119.508 309.285 115.815 309.424 114.257L305.773 113.475M315.956 111.88C319.639 107.561 318.83 102.481 317.671 99.7235M315.956 111.88C315.569 112.364 319.001 112.132 320.766 111.955C320.723 112.698 320.647 114.424 320.697 115.388C320.758 116.592 322.432 119.639 323.431 119.276C324.429 118.912 324.87 113.392 324.796 112.669C324.754 112.263 325.501 111.702 326.217 111.275M317.671 99.7235C318.304 99.4942 323.126 98.7615 322.754 99.0332C322.456 99.2507 324.958 95.3388 326.247 93.3558C326.913 92.7702 328.345 92.1816 328.74 94.5114C329.137 96.8457 329.276 98.9719 329.534 100.057M329.534 100.057C329.598 100.326 329.669 100.531 329.753 100.659C330.177 101.306 329.56 108.414 327.046 110.828C326.816 110.939 326.519 111.095 326.217 111.275M329.534 100.057C329.886 99.778 331.903 99.9754 332.867 100.109C333.872 98.4509 335.979 95.1088 336.37 95.0052C336.859 94.8757 338.834 93.6723 338.931 96.8842C339.008 99.4538 339.032 100.353 339.034 100.482L339.56 101.283M338.309 110.826C338.698 110.568 339.656 104.892 340.087 102.085L339.56 101.283M338.309 110.826C337.823 111.148 335.347 111.807 334.622 111.926C334.042 112.021 333.494 113.58 333.292 114.348C333.091 115.391 332.573 117.528 332.112 117.734C331.536 117.992 329.801 114.698 329.277 112.708C328.858 111.116 327.063 111.089 326.217 111.275M338.309 110.826C338.088 111.37 340.962 111.599 342.427 111.645C342.985 113.179 344.303 116.173 345.108 115.88C345.913 115.587 346.67 112.316 346.948 110.716C347.512 110.511 348.868 110.017 349.79 109.682C349.9 109.642 349.99 109.533 350.064 109.369C350.762 107.813 349.942 101.26 349.709 100.62C349.672 100.517 349.593 100.43 349.487 100.357C349.01 100.031 347.96 99.986 347.401 100.013C347.514 98.6514 345.8 96.5707 345.028 96.6001C344.411 96.6236 343.021 98.9712 342.404 100.142L339.56 101.283" stroke="black"/>
<path d="M138.987 95.6285C138.69 93.1061 139.278 87.4126 144.011 84.8177C148.207 82.5173 148.743 86.1032 148.426 88.878C148.385 89.2333 148.33 89.5752 148.267 89.8898C148.08 91.6856 152.525 95.8046 154.77 97.6397C159.353 98.9793 168.78 102.449 169.824 105.61C170.868 108.77 166.414 110.153 164.057 110.449C164.358 112.551 159.718 117.79 157.885 118.151C156.419 118.439 153.513 109.429 152.243 104.888L138.987 95.6285Z" fill="#F7EFA5"/>
<path d="M171.726 116.647C176.314 110.606 170.818 110.769 167.496 111.605C166.725 111.773 162.656 118.289 160.718 121.526C160.168 121.973 159.515 122.513 158.799 123.114C156.846 124.755 154.428 126.851 152.393 128.769C150.698 130.366 149.268 131.839 148.591 132.823C146.354 136.069 150.309 139.599 152.255 138.962C153.32 138.614 155.625 135.134 157.704 131.921C159.423 129.265 160.986 126.791 161.569 126.415C162.027 126.119 162.721 125.752 163.684 125.061C165.422 123.813 168.036 121.506 171.726 116.647Z" fill="#F7EFA5"/>
<path d="M150.869 153.83C154.093 151.831 149.131 140.45 148.412 139.718C147.613 139.76 142.608 153.303 143.391 154.609C144.174 155.915 147.646 155.828 150.869 153.83Z" fill="#F7EFA5"/>
<path d="M133.542 157.534C130.161 155.095 139.023 144.351 143.877 139.284C146.992 139.889 140.811 154.89 140.624 155.91C140.438 156.93 137.768 160.583 133.542 157.534Z" fill="#F7EFA5"/>
<path d="M143.246 169.099C144.005 166.027 139.063 159.889 138.486 159.823C131.973 162.399 135.241 166.891 137.69 168.814C139.288 169.933 142.638 171.555 143.246 169.099Z" fill="#F7EFA5"/>
<path d="M147.051 160.959C145.986 158.398 151.558 156.68 154.477 156.141C157.132 158.31 156.447 166.814 155.636 167.338C154.824 167.862 152.737 166.866 152.193 167.087C151.648 167.308 148.382 164.161 147.051 160.959Z" fill="#F7EFA5"/>
<path d="M140.806 80.9981L141.397 80.5022M148.267 89.8898C148.08 91.6856 152.525 95.8046 154.77 97.6397C159.353 98.9793 168.78 102.449 169.824 105.61C170.868 108.77 166.414 110.153 164.057 110.449C164.358 112.551 159.718 117.79 157.885 118.151C156.419 118.439 153.513 109.429 152.243 104.888L138.987 95.6285C138.69 93.1061 139.278 87.4126 144.011 84.8177C148.207 82.5173 148.743 86.1032 148.426 88.878C148.385 89.2333 148.33 89.5752 148.267 89.8898ZM167.496 111.605C170.818 110.769 176.314 110.606 171.726 116.647C168.036 121.506 165.422 123.813 163.684 125.061C162.721 125.752 162.027 126.119 161.569 126.415C160.986 126.791 159.423 129.265 157.704 131.921C155.625 135.134 153.32 138.614 152.255 138.962C150.309 139.599 146.354 136.069 148.591 132.823C149.268 131.839 150.698 130.366 152.393 128.769C154.428 126.851 156.846 124.755 158.799 123.114C159.515 122.513 160.168 121.973 160.718 121.526C162.656 118.289 166.725 111.773 167.496 111.605ZM148.412 139.718C149.131 140.45 154.093 151.831 150.869 153.83C147.646 155.828 144.174 155.915 143.391 154.609C142.608 153.303 147.613 139.76 148.412 139.718ZM143.877 139.284C139.023 144.351 130.161 155.095 133.542 157.534C137.768 160.583 140.438 156.93 140.624 155.91C140.811 154.89 146.992 139.889 143.877 139.284ZM138.486 159.823C139.063 159.889 144.005 166.027 143.246 169.099C142.638 171.555 139.288 169.933 137.69 168.814C135.241 166.891 131.973 162.399 138.486 159.823ZM154.477 156.141C151.558 156.68 145.986 158.398 147.051 160.959C148.382 164.161 151.648 167.308 152.193 167.087C152.737 166.866 154.824 167.862 155.636 167.338C156.447 166.814 157.132 158.31 154.477 156.141Z" stroke="black"/>
<path d="M97.3053 68.716L95.5771 71.1841L98.2467 78.7119C100.22 79.6218 104.375 81.3623 105.215 81.045C105.281 81.0201 105.325 80.9543 105.35 80.8525C106.99 81.7661 110.307 83.5069 110.461 83.1617C110.652 82.7302 111.955 87.9572 113.682 87.5392C115.063 87.2048 114.052 84.3326 113.374 82.9384C113.497 82.7491 113.616 82.5148 113.718 82.2398L117.22 84.6915C118.744 88.5002 121.912 94.1506 122.392 86.2821C122.824 85.8168 123.281 85.1382 123.628 84.2948L127.011 86.6635C128.164 89.0385 130.634 93.7026 131.294 93.3584C131.954 93.0142 131.488 89.7146 131.173 88.1078C131.538 87.6349 131.83 87.1615 132.059 86.6903C133.219 87.5468 135.647 89.2693 136.076 89.3068C136.505 89.3444 139.142 93.8139 140.407 96.0439C141.356 95.692 142.617 93.7988 140.075 89.0411L142.735 90.9031L144.379 95.317L145.986 91.8173L148.714 92.9026C148.891 91.9264 148.94 90.8434 148.727 90.0377C148.915 89.6249 149.071 89.1017 149.157 88.4922C149.559 85.6466 148.424 80.9184 141.766 76.7434C140.858 76.8019 134.799 72.3396 137.851 76.5456L136.846 77.9807C136.612 77.7856 136.366 77.5902 136.109 77.3948C134.961 75.6664 132.509 72.1293 131.883 71.8081C131.101 71.4065 129.837 71.3975 131.3 76.2172L130.139 77.9802C129.394 77.1389 128.597 76.4489 127.911 75.9621C126.509 71.689 124.532 70.2278 123.827 70.2155C123.263 70.2056 123.769 73.7493 124.093 75.5224L122.634 76.4826C122.183 75.7877 121.619 75.0783 120.924 74.3612C120.644 72.6089 119.772 68.8866 118.529 68.016C116.975 66.9279 114.892 69.4303 115.22 71.6401C113.87 71.5159 111.162 71.7372 111.13 73.6153C110.868 73.3162 110.586 73.0138 110.28 72.7086C109.808 70.2326 108.523 65.1691 107.159 64.7232C105.454 64.1658 105.251 68.5506 105.046 70.1042C104.182 70.1342 102.413 70.378 102.248 71.1132C102.133 70.8327 102.022 70.5667 101.918 70.3189C101.683 68.2918 100.597 64.0466 98.132 63.2827C95.6671 62.5187 96.5538 66.5866 97.3053 68.716Z" fill="#F7EFA5"/>
<path d="M105.35 80.8525C105.325 80.9543 105.281 81.0201 105.215 81.045C104.375 81.3623 100.22 79.6218 98.2467 78.7119L95.5771 71.1841L97.3053 68.716C96.5538 66.5866 95.6671 62.5187 98.132 63.2827C100.597 64.0466 101.683 68.2918 101.918 70.3189C102.022 70.5667 102.133 70.8327 102.248 71.1132M105.35 80.8525C106.99 81.7661 110.307 83.5069 110.461 83.1617C110.652 82.7302 111.955 87.9572 113.682 87.5392C115.063 87.2048 114.052 84.3326 113.374 82.9384C113.497 82.7491 113.616 82.5148 113.718 82.2398M105.35 80.8525C105.618 79.7498 103.61 74.4244 102.248 71.1132M102.248 71.1132C102.413 70.378 104.182 70.1342 105.046 70.1042C105.251 68.5506 105.454 64.1658 107.159 64.7232C108.523 65.1691 109.808 70.2326 110.28 72.7086C110.586 73.0138 110.868 73.3162 111.13 73.6153M113.718 82.2398L117.22 84.6915C118.744 88.5002 121.912 94.1506 122.392 86.2821C122.824 85.8168 123.281 85.1382 123.628 84.2948M113.718 82.2398C114.349 80.5535 114.382 77.3377 111.13 73.6153M111.13 73.6153C111.162 71.7372 113.87 71.5159 115.22 71.6401C114.892 69.4303 116.975 66.9279 118.529 68.016C119.772 68.8866 120.644 72.6089 120.924 74.3612C121.619 75.0783 122.183 75.7877 122.634 76.4826M122.634 76.4826L124.093 75.5224C123.769 73.7493 123.263 70.2056 123.827 70.2155C124.532 70.2278 126.509 71.689 127.911 75.9621C128.597 76.4489 129.394 77.1389 130.139 77.9802M122.634 76.4826C124.635 79.5641 124.422 82.3622 123.628 84.2948M123.628 84.2948L127.011 86.6635C128.164 89.0385 130.634 93.7026 131.294 93.3584C131.954 93.0142 131.488 89.7146 131.173 88.1078C131.538 87.6349 131.83 87.1615 132.059 86.6903M132.059 86.6903C133.219 87.5468 135.647 89.2693 136.076 89.3068C136.505 89.3444 139.142 93.8138 140.407 96.0439C141.356 95.692 142.617 93.7988 140.075 89.0411M132.059 86.6903C133.663 83.3749 132.075 80.1667 130.139 77.9802M140.075 89.0411C141.399 87.2809 142.499 82.6968 136.846 77.9807M140.075 89.0411L142.735 90.9031L144.379 95.317L145.986 91.8173L148.714 92.9026C148.891 91.9264 148.94 90.8434 148.727 90.0377C148.915 89.6249 149.071 89.1017 149.157 88.4922C149.559 85.6466 148.424 80.9184 141.766 76.7434M130.139 77.9802L131.3 76.2172C129.837 71.3975 131.101 71.4065 131.883 71.8081C132.509 72.1293 134.961 75.6664 136.109 77.3948C136.366 77.5902 136.612 77.7856 136.846 77.9807M141.378 76.5046C141.509 76.5839 141.638 76.6635 141.766 76.7434M141.766 76.7434C140.858 76.8019 134.799 72.3396 137.851 76.5456L136.846 77.9807M141.766 76.7434L142.392 75.0565" stroke="black"/>
<path d="M24.8674 68.9596C8.67586 75.0074 6.82217 83.0008 6.99501 87.5606C7.85237 88.3208 9.0182 88.9282 10.3718 89.4129C10.3028 97.0995 13.1693 99.1792 12.7738 98.6487C12.4573 98.2243 13.3337 92.9293 13.8115 90.3349C14.6276 90.4969 15.4691 90.6323 16.319 90.7451C15.3587 96.4506 19.4638 100.164 19.1264 99.7004C18.8565 99.3297 19.3728 93.8002 19.6647 91.0818C20.6788 91.1552 21.6732 91.204 22.6184 91.2355C22.2181 96.0005 24.6947 97.9327 25.261 98.4124C25.283 98.4913 25.3093 98.5349 25.3404 98.5377C25.4086 98.5436 25.3705 98.5052 25.261 98.4124C25.0448 97.638 25.2421 93.4685 25.3819 91.2859C27.0776 91.2931 28.4249 91.2581 29.1553 91.248C29.5347 95.3687 32.6157 97.7812 32.5123 97.2143C32.4296 96.7607 32.1801 92.6611 32.0657 90.668C33.0525 90.3813 34.2828 90.0105 35.6171 89.6013C35.2551 92.8274 38.3934 95.9312 38.9555 95.154C39.4053 94.5323 38.6584 90.6545 38.2287 88.7933C38.9286 88.5752 39.6324 88.3547 40.323 88.1375C39.9588 89.1877 43.5038 94.2087 44.1945 94.0212C44.7471 93.8712 43.6311 89.4713 43.0041 87.2901C43.7168 87.0637 44.3821 86.8515 44.9747 86.6618C44.9747 86.6618 45.2126 86.6295 45.6463 86.5722C45.9511 88.3647 48.1515 91.5779 48.5388 91.0539C48.8486 90.6347 48.8369 87.621 48.7923 86.1665C49.496 86.0778 50.2758 85.9808 51.1134 85.8787C50.8573 86.4503 51.9732 89.4948 53.2158 89.4795C54.2098 89.4673 54.1423 86.8453 53.9844 85.5358C54.9934 85.418 56.0463 85.298 57.1202 85.1798C57.0577 85.9878 58.1954 88.3189 58.8938 87.8795C59.4525 87.5281 59.5101 85.7653 59.4691 84.9278C61.9421 84.67 64.4389 84.435 66.6954 84.2673C62.7399 86.6882 58.9607 90.0529 55.8938 93.1227L53.638 91.6587L54.5097 94.5361C53.6885 95.3911 52.9342 96.205 52.26 96.9475L49.6575 94.9791L51.1014 98.2392C50.1159 99.3503 49.394 100.192 49.0036 100.608L46.7556 98.4604L47.8905 102.227C47.2871 103.047 46.4769 103.879 45.5395 104.7C45.4074 104.817 43.7014 103.037 42.8648 102.132L43.8331 106.087C43.0061 106.715 42.1286 107.329 41.2389 107.919L38.0837 105.02L39.5316 109.013C38.8507 109.437 38.1768 109.842 37.527 110.223C36.6561 109.364 34.9074 107.681 34.8799 107.822C34.8524 107.963 35.5508 110.106 35.9035 111.159C35.2795 111.513 34.6982 111.836 34.1793 112.124L31.1596 110.275L32.467 113.079C32.2809 113.186 32.126 113.278 32.0064 113.353C31.8164 113.473 31.4853 113.613 31.0502 113.768L30.9462 113.582L30.8604 113.835C30.4615 113.971 29.9895 114.119 29.468 114.273L28.131 111.473L28.0736 114.67C27.702 114.774 27.3184 114.878 26.9287 114.984L26.6798 114.502L26.2513 115.166C25.6113 115.338 24.9645 115.51 24.3362 115.679L23.2321 113.307L23.0398 116.031C20.6768 116.682 18.9015 117.237 19.3513 117.449C29.9318 127.05 32.379 123.721 47.7406 118.543C62.9404 112.159 76.6477 98.235 82.7389 96.4634C83.7467 95.8724 89.157 94.5793 88.2612 93.3366C87.3653 92.0939 87.6221 89.3768 87.9991 88.7306C94.7664 86.2954 95.8102 83.0869 94.594 80.4254C97.8384 79.4383 98.9513 79.5741 99.3812 78.201C100.656 74.1286 100.764 71.0668 101.135 70.4626C107.761 59.6826 100.507 52.3908 99.4948 52.3023C98.6853 52.2315 98.1323 51.4226 97.1524 51.17C96.4865 51.3603 92.662 50.8797 88.8262 48.8537C84.9905 46.8277 78.986 49.1698 78.6487 49.1403C78.3115 49.1108 72.9977 49.5574 72.7729 49.5377C72.593 49.522 61.6255 55.4363 58.7481 55.1845C51.0674 58.7732 45.473 61.2632 24.8674 68.9596Z" fill="#F7EFA5"/>
<path d="M94.594 80.4254C97.8384 79.4383 98.9513 79.5741 99.3812 78.201C100.656 74.1286 100.764 71.0668 101.135 70.4626C107.761 59.6826 100.507 52.3908 99.4948 52.3023C98.6853 52.2315 98.1323 51.4226 97.1524 51.17C96.4865 51.3603 92.662 50.8797 88.8262 48.8537C84.9905 46.8277 78.986 49.1698 78.6487 49.1403C78.3115 49.1108 72.9977 49.5574 72.7729 49.5377C72.593 49.522 61.6255 55.4363 58.7481 55.1845C51.0674 58.7732 45.473 61.2632 24.8674 68.9596C8.67586 75.0074 6.82218 83.0008 6.99501 87.5606C7.85237 88.3208 9.0182 88.9282 10.3718 89.4129M94.594 80.4254C95.8102 83.0869 94.7664 86.2954 87.9991 88.7306C87.6221 89.3768 87.3653 92.0939 88.2612 93.3366C89.157 94.5793 83.7467 95.8724 82.7389 96.4634C76.6477 98.235 62.9404 112.159 47.7406 118.543C32.379 123.721 29.9318 127.05 19.3513 117.449M94.594 80.4254C91.4217 81.3906 87.379 82.1713 83.3946 82.7676M19.3513 117.449C19.4136 117.448 22.0854 117.21 25.1052 116.942M19.3513 117.449C18.9015 117.237 20.6768 116.682 23.0398 116.031M62.0158 97.1715C61.6174 97.6308 61.2013 98.0995 60.7692 98.5749M62.0158 97.1715C61.7433 97.7041 59.7791 95.6616 58.8311 94.5737C58.546 96.0366 60.0044 97.8507 60.7692 98.5749M62.0158 97.1715C62.5608 96.5447 63.2332 95.8167 64.0103 95.0268M83.3946 82.7676C79.3684 83.3701 75.4016 83.7843 72.4527 84.0103C70.9436 84.0004 68.9382 84.1006 66.6954 84.2673M83.3946 82.7676C78.0793 83.6754 72.3218 87.586 67.9026 91.3895M66.6954 84.2673C64.4389 84.435 61.9421 84.67 59.4691 84.9278M66.6954 84.2673C62.7399 86.6882 58.9607 90.0529 55.8938 93.1227M35.7289 115.913C35.0418 115.289 33.6779 113.989 33.7196 113.775C33.7718 113.508 33.4515 116.195 33.6801 116.179M35.7289 115.913C35.0359 116.048 34.3521 116.138 33.6801 116.179M35.7289 115.913C36.7685 115.71 37.8287 115.406 38.9008 115.016M33.6801 116.179C33.6546 116.181 33.1957 116.221 32.4566 116.287M41.2211 114.05C40.1974 113.341 38.1874 111.89 38.3363 111.767C38.5225 111.614 38.6596 115.105 38.9008 115.016M41.2211 114.05C40.4437 114.413 39.6692 114.737 38.9008 115.016M41.2211 114.05C42.0725 113.653 42.9273 113.21 43.7813 112.727M45.7418 111.55C45.5077 111.698 42.4482 109.308 42.6793 109.124C42.9104 108.941 43.211 112.685 43.7813 112.727M45.7418 111.55C45.0901 111.964 44.4359 112.357 43.7813 112.727M45.7418 111.55C46.2631 111.22 46.7828 110.877 47.3 110.523M49.0522 109.275C48.0922 108.194 46.1916 105.973 46.2692 105.736C46.3661 105.438 46.7713 110.486 47.3 110.523M49.0522 109.275C48.4724 109.703 47.8879 110.12 47.3 110.523M49.0522 109.275C49.756 108.754 50.4528 108.217 51.1401 107.666M52.5505 106.507C51.3528 105.66 49.0011 103.943 49.1755 103.85C49.3936 103.733 50.3181 107.943 51.1401 107.666M52.5505 106.507C52.0855 106.898 51.6151 107.285 51.1401 107.666M52.5505 106.507C53.0749 106.065 53.5924 105.617 54.1018 105.165M55.8327 103.586L52.2134 100.889C52.7236 102.304 53.8154 105.141 54.1018 105.165M55.8327 103.586C55.2678 104.116 54.6902 104.643 54.1018 105.165M55.8327 103.586C56.3533 103.098 56.8631 102.608 57.3607 102.118M58.7891 100.681L55.647 98.3018C55.8927 99.6355 56.5793 102.266 57.3607 102.118M58.7891 100.681C58.3257 101.158 57.8491 101.638 57.3607 102.118M58.7891 100.681C59.4801 99.97 60.1416 99.2653 60.7692 98.5749M64.0103 95.0268C63.1523 93.9579 61.4725 91.7052 61.6164 91.2455C62.8529 92.1609 65.355 93.9115 65.4712 93.5906M64.0103 95.0268C64.4632 94.5665 64.9516 94.0852 65.4712 93.5906M65.4712 93.5906C65.9038 93.1788 66.3581 92.7578 66.8313 92.3322M66.8313 92.3322C66.0966 91.3488 64.6665 89.2853 64.8233 88.8987C64.9801 88.5121 66.9415 90.3981 67.9026 91.3895M66.8313 92.3322C67.1785 92.0198 67.5359 91.705 67.9026 91.3895M59.4691 84.9278C59.5101 85.7653 59.4525 87.5281 58.8938 87.8795C58.1954 88.3189 57.0577 85.9878 57.1202 85.1798M59.4691 84.9278C58.6809 85.0099 57.8951 85.0944 57.1202 85.1798M57.1202 85.1798C56.0463 85.298 54.9934 85.418 53.9844 85.5358M53.9844 85.5358C54.1423 86.8453 54.2098 89.4673 53.2158 89.4795C51.9732 89.4948 50.8573 86.4503 51.1134 85.8787M53.9844 85.5358C52.9761 85.6535 52.0115 85.7691 51.1134 85.8787M51.1134 85.8787C50.2758 85.9808 49.496 86.0778 48.7923 86.1665M48.7923 86.1665C48.8369 87.621 48.8486 90.6347 48.5388 91.0539C48.1515 91.5779 45.9511 88.3647 45.6463 86.5722M48.7923 86.1665C47.3958 86.3425 46.2992 86.4858 45.6463 86.5722M45.6463 86.5722C45.2126 86.6295 44.9747 86.6618 44.9747 86.6618C44.3821 86.8515 43.7168 87.0637 43.0041 87.2901M43.0041 87.2901C43.6311 89.4713 44.7471 93.8712 44.1945 94.0212C43.5038 94.2087 39.9588 89.1877 40.323 88.1375M43.0041 87.2901C42.1624 87.5575 41.2547 87.8445 40.323 88.1375M40.323 88.1375C39.6324 88.3547 38.9286 88.5752 38.2287 88.7933M38.2287 88.7933C38.6584 90.6545 39.4053 94.5323 38.9555 95.154C38.3934 95.9312 35.2551 92.8274 35.6171 89.6013M38.2287 88.7933C37.3402 89.0702 36.458 89.3434 35.6171 89.6013M35.6171 89.6013C34.2828 90.0105 33.0525 90.3813 32.0657 90.668M32.0657 90.668C30.741 91.0528 29.8553 91.286 29.7466 91.2566C29.6999 91.2439 29.4939 91.2433 29.1553 91.248M32.0657 90.668C32.1801 92.6611 32.4296 96.7607 32.5123 97.2143C32.6157 97.7812 29.5347 95.3687 29.1553 91.248M29.1553 91.248C28.4249 91.2581 27.0776 91.2931 25.3819 91.2859M25.3819 91.2859C25.2279 93.6909 25.004 98.5082 25.3404 98.5377C25.7609 98.5744 22.1406 96.9226 22.6184 91.2355M25.3819 91.2859C24.5363 91.2824 23.604 91.2683 22.6184 91.2355M22.6184 91.2355C21.6732 91.204 20.6788 91.1552 19.6647 91.0818M19.6647 91.0818C19.3728 93.8002 18.8565 99.3297 19.1264 99.7004C19.4638 100.164 15.3587 96.4506 16.319 90.7451M19.6647 91.0818C18.5602 91.0019 17.4324 90.8928 16.319 90.7451M16.319 90.7451C15.4691 90.6323 14.6276 90.4969 13.8115 90.3349M13.8115 90.3349C13.3337 92.9293 12.4573 98.2243 12.7738 98.6487C13.1693 99.1792 10.3028 97.0995 10.3718 89.4129M13.8115 90.3349C12.5893 90.0922 11.4238 89.7896 10.3718 89.4129M32.467 113.079C32.2809 113.186 32.126 113.278 32.0064 113.353C31.6262 113.593 30.6812 113.914 29.468 114.273M32.467 113.079L31.1596 110.275L34.1793 112.124M32.467 113.079C32.8916 112.835 33.4785 112.512 34.1793 112.124M34.1793 112.124C34.6982 111.836 35.2795 111.513 35.9035 111.159M35.9035 111.159C35.5508 110.106 34.8524 107.963 34.8799 107.822C34.9074 107.681 36.6561 109.364 37.527 110.223M35.9035 111.159C36.4192 110.867 36.964 110.554 37.527 110.223M37.527 110.223C38.1768 109.842 38.8507 109.437 39.5316 109.013M39.5316 109.013L38.0837 105.02L41.2389 107.919M39.5316 109.013C40.0991 108.661 40.6715 108.295 41.2389 107.919M41.2389 107.919C42.1286 107.329 43.0061 106.715 43.8331 106.087M43.8331 106.087L42.8648 102.132C43.7014 103.037 45.4074 104.817 45.5395 104.7M43.8331 106.087C44.4333 105.631 45.0069 105.167 45.5395 104.7M45.5395 104.7C46.4769 103.879 47.2871 103.047 47.8905 102.227M47.8905 102.227C48.2206 101.779 48.4889 101.334 48.6822 100.896C48.7157 100.899 48.825 100.798 49.0036 100.608M47.8905 102.227L46.7556 98.4604L49.0036 100.608M49.0036 100.608C49.394 100.192 50.1159 99.3503 51.1014 98.2392M51.1014 98.2392L49.6575 94.9791L52.26 96.9475M51.1014 98.2392C51.4548 97.8409 51.842 97.4079 52.26 96.9475M52.26 96.9475C52.9342 96.205 53.6885 95.3911 54.5097 94.5361M54.5097 94.5361L53.638 91.6587C54.3899 92.1467 55.8938 93.1227 55.8938 93.1227M54.5097 94.5361C54.9523 94.0753 55.4143 93.6026 55.8938 93.1227M59.7255 77.3748C54.4583 74.2564 56.8793 65.2207 58.7481 61.0926C61.5669 57.7994 64.2701 56.8591 66.5844 57.1066M59.7255 77.3748C61.8222 78.424 66.5723 79.7211 68.7989 76.516C68.5773 72.719 69.0836 64.3579 72.8811 61.2902C71.7298 59.5508 69.4567 57.4138 66.5844 57.1066M59.7255 77.3748C59.3043 76.7499 65.1721 67.9823 66.9002 66.7965C68.2828 65.8479 67.1549 64.2771 66.4181 63.6102C66.8459 62.4142 67.5919 59.9852 67.1534 59.8372C66.7149 59.6892 66.5914 57.9551 66.5844 57.1066M88.8587 58.6271C88.7176 60.0943 88.5167 63.1682 88.8425 63.7255C89.2497 64.4223 86.944 72.9092 87.7259 73.3554M32.2317 81.2521C31.3562 82.1167 29.0891 83.6477 27.025 82.8547M21.9382 83.8171C21.9529 85.1374 21.7489 87.7575 20.8152 87.6758M48.839 63.3206C47.9302 63.8301 47.0574 64.4375 46.3501 64.9986C45.8595 65.3742 47.8673 65.9501 42.683 65.9382M48.839 63.3206C51.6568 61.7409 54.8201 61.1032 54.4651 65.7086C53.2427 68.3139 51.129 74.0257 52.4535 76.0304C52.4644 77.2385 51.6845 79.6664 48.4779 79.7127C45.5923 79.7544 46.0582 79.0136 43.6579 78.8122M48.839 63.3206C48.4269 65.1526 47.396 68.8532 46.5687 69.0001C45.5344 69.1837 41.8618 76.9357 43.6579 78.8122M43.6579 78.8122C42.724 78.7338 41.3562 78.7372 39.1883 78.9C38.0366 78.9865 37.073 78.9196 36.2701 78.7402M42.683 65.9382C42.385 65.9375 42.0633 65.9349 41.7161 65.9301C36.6038 65.8606 33.5372 70.8496 32.6429 73.3528C32.3189 75.0157 32.7566 77.9551 36.2701 78.7402M42.683 65.9382C42.6726 67.6477 42.4328 71.1974 41.5563 71.7192C40.4607 72.3716 36.1121 77.8555 36.2701 78.7402M70.4929 53.6748C74.4286 54.5783 80.6366 58.5916 73.9825 67.4162M32.4566 116.287L30.9462 113.582L29.9506 116.51M32.4566 116.287C31.8044 116.345 30.934 116.422 29.9506 116.51M29.9506 116.51C29.2806 116.57 28.5581 116.634 27.8163 116.7M27.8163 116.7L26.6798 114.502L25.1052 116.942M27.8163 116.7C26.9211 116.78 25.998 116.862 25.1052 116.942M23.0398 116.031L23.2321 113.307L24.3362 115.679M23.0398 116.031C23.4566 115.917 23.8918 115.799 24.3362 115.679M24.3362 115.679C25.5747 115.346 26.8853 115 28.0736 114.67M28.0736 114.67L28.131 111.473L29.468 114.273M28.0736 114.67C28.5638 114.534 29.0331 114.401 29.468 114.273M27.6245 72.9137C29.5419 74.7995 32.4974 78.8298 28.9797 79.8641C25.4621 80.8984 24.6975 78.371 24.7549 76.978C25.4224 75.8371 26.9309 73.427 27.6245 72.9137ZM16.1572 84.1283C14.9371 84.0441 12.486 85.0802 12.3276 83.4565C12.1692 81.8327 14.3856 80.3388 16.1525 77.7444C17.0613 77.5228 18.9355 76.8854 18.7851 78.2659C18.5972 79.9916 18.8505 83.2526 16.1572 84.1283Z" stroke="black"/>
<path d="M167.703 66.8256L164.727 66.1981C162.847 73.3838 156.434 74.701 151.85 74.3392C150.868 74.2617 149.97 74.1072 149.219 73.9168C148.139 74.1624 146.464 74.1347 144.865 73.969C143.588 75.6343 140.786 79.7443 139.793 82.8617C138.51 83.8568 135.888 85.8639 135.661 85.9314C135.556 85.9627 135.487 86.5067 135.624 87.2299C135.697 87.6171 135.829 88.0557 136.046 88.4944C136.492 89.3966 137.296 90.2995 138.686 90.7578C137.552 94.5523 135.461 103.91 136.169 110.985C137.382 111.339 138.748 111.808 139.83 112.201C139.354 108.963 142.366 97.8196 143.932 92.653C144.519 94.054 146.85 94.9607 153.097 93.2882L153.425 93.4073L152.229 95.6731C154.057 96.8448 152.716 98.0312 151.521 98.6373C150.448 101.585 150.866 108.828 151.21 112.082C148.186 115.372 145.064 117.871 142.857 119.946C138.781 123.777 139.503 124.644 140.374 124.599C144.842 123.356 148.674 121.172 151.959 118.433C152.314 121.1 153.345 126.839 154.622 128.461C155.899 130.082 156.205 129.251 156.198 128.633L155.173 115.407C159.187 111.171 162.222 106.133 164.511 101.292C164.151 102.068 166.106 112.671 167.128 117.876C162.399 124.414 157.624 128.739 156.585 129.992C154.77 132.181 156.155 132.338 157.074 132.143C161.527 129.856 165.322 126.725 168.538 123.124C168.537 124.056 168.98 126.881 170.761 130.72C172.987 135.518 172.623 131.84 173.016 131.54C173.33 131.3 172.135 123.391 171.499 119.466C173.111 117.275 174.546 114.971 175.818 112.622C176.531 114.923 177.989 119.747 178.122 120.63C178.287 121.734 180.36 123.051 180.618 122.342C180.876 121.633 178.312 107.513 178.546 106.974C181.6 99.866 183.297 92.8368 184.021 87.6924C185.065 93.1196 187.379 104.107 188.281 104.637C186.889 112.487 183.674 122.324 177.253 133.526C177.043 134.668 177.191 136.34 179.469 133.889C181.233 131.991 187.258 124.804 191.083 112.759C191.444 113.04 193.751 117.143 194.68 117.481C195.609 117.819 196.221 117.905 195.719 116.233C195.317 114.896 193.471 109.631 192.599 107.166C194.022 100.872 194.757 93.5302 194.143 85.1831L196.291 87.6705C200.335 121.147 192.363 127.059 191.4 130.231C190.63 132.769 192.034 131.636 192.832 130.753C202.836 119.273 203.089 96.7517 201.964 86.9261C202.208 86.5043 202.436 86.0906 202.649 85.6849C202.863 86.2596 203.771 87.8046 205.692 89.3868C208.093 91.3645 204.223 114.9 202.158 120.203C200.507 124.445 202.508 122.783 203.715 121.422C211.57 110.438 211.405 95.8802 210.34 89.9745C211.089 88.7144 211.713 87.5291 212.231 86.4161L214.583 88.0552C219.396 90.81 216.269 109.887 215.777 112.486C215.384 114.565 216.362 113.624 216.9 112.894C221.692 106.12 221.178 93.8186 220.322 88.5144C220.465 88.9302 222.94 89.3156 224.159 89.4563C226.322 91.832 225.245 103.849 223.183 107.814C221.532 110.986 223.954 109.369 225.371 108.164C228.814 105.128 228.729 94.7598 228.257 89.955C228.6 90.175 229.379 90.2304 230.013 88.9579L234.068 90.434C235.289 90.0579 237.734 89.212 237.748 88.8376C237.766 88.3697 233.01 80.767 230.594 79.589C230.581 79.3583 230.567 79.1431 230.553 78.947C228.401 77.2756 228.038 74.5549 228.126 73.4034C226.228 63.9055 224.208 68.0071 223.435 71.2451L222.008 71.5147C221.376 70.8596 220.7 70.3615 220.073 70.0214C216.589 60.8154 214.703 68.1872 214.597 68.4793C214.512 68.7129 212.961 69.925 212.196 70.5019C211.728 69.8909 211.209 69.2692 210.866 68.8734C207.494 57.3698 206.626 68.9551 206.162 68.786C205.79 68.6507 204.048 69.2902 203.224 69.6268C202.519 68.6769 201.88 68.1457 201.76 67.9727C197.818 56.254 195.725 66.8641 195.7 67.3719C195.68 67.7782 195.104 68.2537 194.819 68.4407C194.298 67.4903 193.176 66.6864 191.262 66.4679C185.944 54.6493 185.184 66.8767 185.39 67.1913C184.086 67.5673 182.631 68.0925 181.01 68.7956C180.768 68.7074 180.363 65.672 180.463 65.3978C175.842 58.8603 175.435 65.8242 175.392 67.8277C175.358 69.4305 173.975 69.4864 173.287 69.314L173.061 68.7757C173.875 67.831 174.286 63.5819 172.42 62.4706C170.927 61.5816 168.654 65.0035 167.703 66.8256Z" fill="#F7EFA5"/>
<path d="M140.081 114.801C139.595 114.576 139.298 114.378 139.08 114.262C138.803 114.115 137.466 114.11 136.021 114.088C135.557 116.366 138.203 119.556 138.648 120.174C138.653 120.224 138.666 120.257 138.687 120.271C138.73 120.299 138.712 120.263 138.648 120.174C138.577 119.565 139.546 116.417 140.081 114.801Z" fill="#F7EFA5"/>
<path d="M164.83 65.7796C164.797 65.9213 164.763 66.0608 164.727 66.1981M164.727 66.1981L167.703 66.8256C168.654 65.0035 170.927 61.5816 172.42 62.4706C174.286 63.5819 173.875 67.831 173.061 68.7757L173.287 69.314M164.727 66.1981C162.847 73.3838 156.434 74.701 151.85 74.3392M174.32 71.7709L160.157 78.6159C157.923 78.4283 153.384 78.2489 153.099 79.0322M174.32 71.7709L173.287 69.314M174.32 71.7709C176.631 70.8086 181.204 68.8662 181.01 68.7956M153.099 79.0322C152.743 80.0113 151.681 74.4462 151.85 74.3392M153.099 79.0322C148.782 80.4234 145.327 87.1432 144.139 90.3292M151.85 74.3392C150.868 74.2617 149.97 74.1072 149.219 73.9168C148.139 74.1624 146.464 74.1347 144.865 73.969C143.588 75.6343 140.786 79.7443 139.793 82.8617C138.51 83.8568 135.888 85.8639 135.661 85.9314C135.556 85.9627 135.487 86.5067 135.624 87.2299M173.287 69.314C173.975 69.4864 175.358 69.4305 175.392 67.8277C175.435 65.8242 175.842 58.8603 180.463 65.3978C180.363 65.672 180.768 68.7074 181.01 68.7956M181.01 68.7956C182.631 68.0925 184.086 67.5673 185.39 67.1913M144.139 90.3292C143.589 90.8289 141.777 91.6287 138.924 90.8302C138.843 90.8075 138.763 90.7834 138.686 90.7578M144.139 90.3292C143.797 91.0374 143.622 91.914 143.932 92.653M132.744 86.1819C132.91 86.2422 134.733 86.9057 135.624 87.2299M135.624 87.2299C135.697 87.6171 135.829 88.0557 136.046 88.4944C136.492 89.3966 137.296 90.2995 138.686 90.7578M151.077 98.8403C151.218 98.7829 151.368 98.7149 151.521 98.6373M140.884 112.593C140.585 112.479 140.227 112.345 139.83 112.201M143.932 92.653C144.519 94.0541 146.85 94.9607 153.097 93.2882L153.425 93.4073M143.932 92.653C142.366 97.8196 139.354 108.962 139.83 112.201M139.83 112.201C138.748 111.808 137.382 111.339 136.169 110.985C135.461 103.91 137.552 94.5523 138.686 90.7578M172.45 78.993C169.006 80.3045 166.461 81.466 165.138 82.3556C164.602 85.1106 163.376 90.9631 162.769 92.3334C162.425 93.1111 161.38 93.7836 160.302 94.2838M172.45 78.993C175.944 77.6624 180.363 76.1773 185.367 74.6653M172.45 78.993C172.359 79.7769 172.084 81.2326 171.609 82.0663M160.302 94.2838C159.48 94.665 158.637 94.9462 158.069 95.0978L153.425 93.4073M160.302 94.2838C159.504 98.9084 157.858 102.774 155.831 106.051M185.367 74.6653C187.906 73.8983 190.596 73.1244 193.392 72.3601C194.196 72.1403 194.787 71.4936 195.039 70.7032M185.367 74.6653C186.224 76.7544 187.207 81.8365 184.288 85.4529C184.267 85.6705 184.244 85.893 184.219 86.1204M171.609 82.0663C171.468 82.3139 171.31 82.5066 171.133 82.6106C171.053 82.6573 170.944 82.9342 170.796 83.407M171.609 82.0663C171.8 84.1857 173.168 85.4332 174.632 86.1194M185.39 67.1913C187.869 66.4763 189.798 66.3007 191.262 66.4679M185.39 67.1913C185.184 66.8767 185.944 54.6493 191.262 66.4679M191.262 66.4679C193.176 66.6864 194.298 67.4903 194.819 68.4407M184.219 86.1204L188.119 86.8475C189.148 89.8734 189.8 96.0725 188.281 104.637M184.219 86.1204C184.163 86.6217 184.097 87.1465 184.021 87.6924M194.143 85.1831C195.52 82.3237 197.627 75.4247 195.039 70.7032M194.143 85.1831L196.291 87.6705C200.335 121.147 192.363 127.059 191.4 130.231C190.63 132.769 192.034 131.636 192.832 130.753C202.836 119.273 203.089 96.7517 201.964 86.9261C202.208 86.5043 202.436 86.0906 202.649 85.6849M194.143 85.1831C194.757 93.5302 194.022 100.872 192.599 107.166M195.039 70.7032C195.265 69.9965 195.221 69.1749 194.819 68.4407M194.819 68.4407C195.104 68.2537 195.68 67.7782 195.7 67.3719C195.725 66.8641 197.818 56.254 201.76 67.9727C201.88 68.1457 202.519 68.6769 203.224 69.6268M203.224 69.6268C204.048 69.2902 205.79 68.6507 206.162 68.786C206.626 68.9551 207.494 57.3698 210.866 68.8734C211.209 69.2692 211.728 69.8909 212.196 70.5019M203.224 69.6268C204.995 72.0141 207.189 77.0462 202.649 85.6849M202.649 85.6849C202.863 86.2596 203.771 87.8046 205.692 89.3868C208.093 91.3645 204.223 114.9 202.158 120.203C200.507 124.445 202.508 122.783 203.715 121.422C211.57 110.438 211.405 95.8802 210.34 89.9745C211.089 88.7144 211.713 87.5291 212.231 86.4161M212.196 70.5019C212.708 71.1692 213.16 71.8238 213.258 72.1578C213.468 72.8718 216.558 77.1254 212.231 86.4161M212.196 70.5019C212.961 69.925 214.512 68.7129 214.597 68.4793C214.703 68.1872 216.589 60.8154 220.073 70.0214C220.7 70.3615 221.376 70.8596 222.008 71.5147M220.322 88.5144C221.178 93.8186 221.692 106.12 216.9 112.894C216.362 113.624 215.384 114.565 215.777 112.486C216.269 109.887 219.396 90.81 214.583 88.0552C213.799 87.5088 212.231 86.4161 212.231 86.4161M220.322 88.5144C226.609 80.0167 224.715 74.323 222.008 71.5147M220.322 88.5144C220.465 88.9302 222.94 89.3156 224.159 89.4563C226.322 91.832 225.245 103.849 223.183 107.814C221.532 110.986 223.954 109.369 225.371 108.164C228.814 105.128 228.729 94.7598 228.257 89.955C228.6 90.175 229.379 90.2304 230.013 88.9579M222.008 71.5147L223.435 71.2451C224.208 68.0071 226.228 63.9055 228.126 73.4034C228.038 74.5549 228.401 77.2756 230.553 78.947C230.567 79.1431 230.581 79.3583 230.594 79.589M230.013 88.9579C230.091 88.8004 230.168 88.6225 230.241 88.422C230.849 86.751 230.748 82.1829 230.594 79.589M230.013 88.9579L234.068 90.434C235.289 90.0579 237.734 89.212 237.748 88.8376M237.748 88.8376C237.766 88.3697 233.01 80.767 230.594 79.589M237.748 88.8376C239.938 89.6344 240.369 93.4507 240.311 95.2592M174.632 86.1194C175.652 86.5975 176.718 86.8032 177.464 86.8416C177.819 92.534 176.864 97.8789 175.191 102.742M174.632 86.1194C174.505 90.8918 174.438 100.898 175.191 102.742M175.191 102.742C173.975 106.277 172.379 109.557 170.631 112.531M178.546 106.974C178.312 107.513 180.876 121.633 180.618 122.342C180.36 123.051 178.287 121.734 178.122 120.63C177.989 119.747 176.531 114.923 175.818 112.622M178.546 106.974C177.735 108.862 176.828 110.756 175.818 112.622M178.546 106.974C181.6 99.866 183.297 92.8368 184.021 87.6924M175.818 112.622C174.546 114.971 173.111 117.275 171.499 119.466M170.796 83.407C171.326 86.5999 172.071 93.4402 170.804 95.2579C169.537 97.0756 170.161 107.53 170.631 112.531M170.796 83.407C170.043 85.8114 168.298 93.2818 164.511 101.292M170.631 112.531C169.506 114.443 168.319 116.23 167.128 117.876M167.128 117.876C162.399 124.414 157.624 128.739 156.585 129.992C154.77 132.181 156.155 132.338 157.074 132.143C161.527 129.856 165.322 126.725 168.538 123.124M167.128 117.876C166.106 112.671 164.151 102.068 164.511 101.292M164.511 101.292C162.222 106.133 159.187 111.171 155.173 115.407M171.499 119.466C172.135 123.391 173.33 131.3 173.016 131.54C172.623 131.84 172.987 135.518 170.761 130.72C168.98 126.881 168.537 124.056 168.538 123.124M171.499 119.466C170.572 120.727 169.585 121.95 168.538 123.124M155.173 115.407L156.198 128.633C156.205 129.251 155.899 130.082 154.622 128.461C153.345 126.839 152.314 121.1 151.959 118.433M155.173 115.407C154.165 116.472 153.094 117.486 151.959 118.433M151.959 118.433C148.674 121.172 144.842 123.356 140.374 124.599C139.503 124.644 138.781 123.777 142.857 119.946C145.064 117.871 148.186 115.372 151.21 112.082M151.21 112.082C150.866 108.828 150.448 101.585 151.521 98.6373M151.21 112.082C152.83 110.318 154.423 108.326 155.831 106.051M151.521 98.6373C152.716 98.0312 154.057 96.8448 152.229 95.6731L153.425 93.4073M157.023 95.0187C156.309 98.1185 155.071 104.665 155.831 106.051M184.021 87.6924C185.065 93.1196 187.379 104.107 188.281 104.637M188.281 104.637C186.889 112.487 183.674 122.324 177.253 133.526C177.043 134.668 177.191 136.34 179.469 133.889C181.233 131.991 187.258 124.804 191.083 112.759M191.083 112.759C191.444 113.04 193.751 117.143 194.68 117.481C195.609 117.819 196.221 117.905 195.719 116.233C195.317 114.896 193.471 109.631 192.599 107.166M191.083 112.759C191.642 110.998 192.154 109.133 192.599 107.166M139.08 114.262C139.298 114.378 139.595 114.576 140.081 114.801C139.502 116.55 138.414 120.093 138.687 120.271C139.028 120.493 135.49 116.694 136.021 114.088C137.466 114.11 138.803 114.115 139.08 114.262Z" stroke="black"/>
<path d="M153.372 98.0787C151.753 97.9051 151.293 94.286 150.046 93.9556C148.285 94.2631 145.673 97.0856 143.033 96.7431C141.03 99.1781 131.469 115.731 130.016 120.37C127.963 121.795 123.766 124.667 123.398 124.755C123.227 124.796 123.145 125.612 123.412 126.709L118.615 124.963C118.339 124.863 112.057 129.319 108.95 131.559C106.454 132.05 100.446 133.207 96.3806 133.903C91.299 134.774 96.8982 138.705 98.5796 139.021C100.261 139.337 100.968 141.901 103.473 143.818C105.977 145.735 109.903 135.809 110.921 135.588C111.735 135.411 118.341 134.228 121.543 133.658L124.179 128.639C124.965 130.024 126.341 131.431 128.652 132.202C128.781 132.245 128.913 132.286 129.048 132.325C133.787 133.693 136.722 132.593 137.597 131.872C139.347 127.193 151.246 112.073 158.298 109.957C158.405 110.034 158.485 110.018 158.531 109.891C158.454 109.911 158.376 109.933 158.298 109.957C157.184 109.15 153.123 98.2169 153.372 98.0787Z" fill="#F7EFA5"/>
<path d="M96.5434 144.615C102.45 145.34 100.132 141.821 98.234 139.97C94.7504 137.837 83.3647 136.849 78.9471 138.211C74.5296 139.573 80.7804 142.102 81.4559 142.094C81.9963 142.087 82.6369 143.57 82.8896 144.312C85.4217 146.591 88.3068 142.975 89.6336 142.1C90.6951 141.401 94.6824 143.486 96.5434 144.615Z" fill="#F7EFA5"/>
<path d="M74.0988 139.416C76.8432 139.057 77.1814 142.016 77.0074 143.54L71.7172 145.959C67.4562 148.559 66.5904 146.909 66.6901 145.759C68.0162 143.794 71.3544 139.774 74.0988 139.416Z" fill="#F7EFA5"/>
<path d="M64.4863 147.881C65.6054 146.675 67.5215 148.313 68.3397 149.283C68.4825 151.258 65.3536 154.633 63.7712 156.074C63.5433 153.845 63.3672 149.087 64.4863 147.881Z" fill="#F7EFA5"/>
<path d="M78.2815 152.902L81.1412 145.045C76.1462 143.227 73.2767 149.665 73.1703 151.041C73.0852 152.143 76.5424 152.74 78.2815 152.902Z" fill="#F7EFA5"/>
<path d="M73.2415 153.887C74.3308 153.327 76.0042 154.494 76.7047 155.147C77.5323 157.277 74.5471 159.241 72.9511 159.957C72.594 158.167 72.1522 154.447 73.2415 153.887Z" fill="#F7EFA5"/>
<path d="M124.179 128.639L121.543 133.658C118.341 134.228 111.735 135.411 110.921 135.588C109.903 135.809 105.977 145.735 103.473 143.818C100.968 141.901 100.261 139.337 98.5796 139.021C96.8982 138.705 91.299 134.774 96.3806 133.903C100.446 133.207 106.454 132.05 108.95 131.559C112.057 129.319 118.339 124.863 118.615 124.963C118.891 125.064 121.928 126.169 123.412 126.709M124.179 128.639C123.797 127.965 123.554 127.297 123.412 126.709M124.179 128.639C124.965 130.024 126.341 131.431 128.652 132.202C128.781 132.245 128.913 132.286 129.048 132.325C133.787 133.693 136.722 132.593 137.597 131.872C139.366 127.141 151.512 111.737 158.531 109.891C158.002 111.345 153.099 98.2301 153.372 98.0787C151.753 97.9051 151.293 94.286 150.046 93.9556C148.285 94.2631 145.673 97.0856 143.033 96.7431C141.03 99.1781 131.469 115.731 130.016 120.37C127.963 121.795 123.766 124.667 123.398 124.755C123.227 124.796 123.145 125.612 123.412 126.709M98.234 139.97C100.132 141.821 102.45 145.34 96.5434 144.615C94.6824 143.486 90.6951 141.401 89.6336 142.1C88.3068 142.975 85.4217 146.591 82.8896 144.312C82.6369 143.57 81.9963 142.087 81.4559 142.094C80.7804 142.102 74.5296 139.573 78.9471 138.211C83.3647 136.849 94.7504 137.837 98.234 139.97ZM77.0074 143.54C77.1814 142.016 76.8432 139.057 74.0988 139.416C71.3544 139.774 68.0162 143.794 66.6901 145.759C66.5904 146.909 67.4562 148.559 71.7172 145.959L77.0074 143.54ZM68.3397 149.283C67.5215 148.313 65.6054 146.675 64.4863 147.881C63.3672 149.087 63.5433 153.845 63.7712 156.074C65.3536 154.633 68.4825 151.258 68.3397 149.283ZM81.1412 145.045L78.2815 152.902C76.5424 152.74 73.0852 152.143 73.1703 151.041C73.2767 149.665 76.1462 143.227 81.1412 145.045ZM76.7047 155.147C76.0042 154.494 74.3308 153.327 73.2415 153.887C72.1523 154.447 72.594 158.167 72.9511 159.957C74.5471 159.241 77.5323 157.277 76.7047 155.147Z" stroke="black"/>
<path d="M225.759 73.3262C223.243 71.5434 222.686 68.813 222.722 67.6707C226.217 66.0489 237.081 65.7829 252.579 77.6926C254.95 80.3376 262.528 86.4191 273.875 89.5859C277.753 91.525 285.082 95.4289 283.378 95.5318C289.347 97.2597 300.552 102.378 298.852 109.292C298.807 109.473 298.754 109.655 298.692 109.838C297.58 113.1 292.651 112.967 286.804 111.449C283.807 110.671 280.57 109.529 277.48 108.293C272.641 106.358 268.165 104.194 265.552 102.84C264.121 102.098 263.248 101.6 263.179 101.515C262.749 100.981 258.697 95.5136 246.163 95.321C242.885 95.8357 236.593 95.5141 237.643 90.1106C237.609 88.312 236.915 84.4864 234.405 83.573C234.4 83.1077 228.626 75.2736 225.841 73.968C225.813 73.7374 225.785 73.5223 225.759 73.3262Z" fill="#F7EFA5" stroke="black"/>
</svg>
