<svg width="459" height="222" viewBox="0 0 459 222" fill="none" xmlns="http://www.w3.org/2000/svg">
<path d="M21.7167 187.862L0.820312 17.7749L435.159 210.758C291.905 225.504 158.624 220.459 106.944 220.847C65.5997 221.158 49.8236 216.061 47.1036 213.474L21.7167 187.862Z" fill="black" fill-opacity="0.15"/>
<path d="M1.28809 16.5446L26.1264 139.94C37.1654 157.49 59.2434 193.905 59.2434 199.17C59.2434 204.435 78.5617 208.493 88.2208 209.864C100.64 227.962 413.182 213.155 440.09 209.864C461.616 207.232 460.098 116.632 456.648 71.6612L440.09 6.67286C373.856 -7.80554 119.958 7.22133 1.28809 16.5446Z" fill="#FCFEE6"/>
<g filter="url(#filter0_d)">
<path d="M118.759 129.958C118.055 130.15 116.935 130.342 115.399 130.534C113.927 130.726 112.455 130.822 110.983 130.822C109.511 130.822 108.199 130.694 107.047 130.438C105.959 130.246 105.031 129.862 104.263 129.286C103.495 128.71 102.919 127.91 102.535 126.886C102.151 125.862 101.959 124.518 101.959 122.854V72.1658C102.663 72.0378 103.783 71.8778 105.319 71.6858C106.855 71.4298 108.327 71.3018 109.735 71.3018C111.207 71.3018 112.487 71.4298 113.575 71.6858C114.727 71.8778 115.687 72.2618 116.455 72.8378C117.223 73.4138 117.799 74.2138 118.183 75.2378C118.567 76.2618 118.759 77.6058 118.759 79.2698V129.958ZM164.329 100.774C164.329 98.7898 163.753 97.3498 162.601 96.4538C161.513 95.4938 160.009 95.0138 158.089 95.0138C156.809 95.0138 155.529 95.1738 154.249 95.4938C153.033 95.8138 151.977 96.2938 151.081 96.9338V130.246C150.441 130.438 149.417 130.63 148.009 130.822C146.665 131.014 145.257 131.11 143.785 131.11C142.377 131.11 141.097 131.014 139.945 130.822C138.857 130.63 137.929 130.246 137.161 129.67C136.393 129.094 135.785 128.326 135.337 127.366C134.953 126.342 134.761 125.03 134.761 123.43V94.6298C134.761 92.9018 135.113 91.4938 135.817 90.4058C136.585 89.3178 137.609 88.3258 138.889 87.4298C141.065 85.8938 143.785 84.6458 147.049 83.6858C150.377 82.7258 154.057 82.2458 158.089 82.2458C165.321 82.2458 170.889 83.8458 174.793 87.0458C178.697 90.1818 180.649 94.5658 180.649 100.198V130.246C180.009 130.438 178.985 130.63 177.577 130.822C176.233 131.014 174.825 131.11 173.353 131.11C171.945 131.11 170.665 131.014 169.513 130.822C168.425 130.63 167.497 130.246 166.729 129.67C165.961 129.094 165.353 128.326 164.905 127.366C164.521 126.342 164.329 125.03 164.329 123.43V100.774ZM195.146 70.7258C195.146 68.2938 195.946 66.2458 197.546 64.5818C199.21 62.9178 201.386 62.0858 204.074 62.0858C206.762 62.0858 208.906 62.9178 210.506 64.5818C212.17 66.2458 213.002 68.2938 213.002 70.7258C213.002 73.1578 212.17 75.2058 210.506 76.8698C208.906 78.5338 206.762 79.3658 204.074 79.3658C201.386 79.3658 199.21 78.5338 197.546 76.8698C195.946 75.2058 195.146 73.1578 195.146 70.7258ZM212.234 130.246C211.53 130.374 210.474 130.534 209.066 130.726C207.722 130.982 206.346 131.11 204.938 131.11C203.53 131.11 202.25 131.014 201.098 130.822C200.01 130.63 199.082 130.246 198.314 129.67C197.546 129.094 196.938 128.326 196.49 127.366C196.106 126.342 195.914 125.03 195.914 123.43V84.3578C196.618 84.2298 197.642 84.0698 198.986 83.8778C200.394 83.6218 201.802 83.4938 203.21 83.4938C204.618 83.4938 205.866 83.5898 206.954 83.7818C208.106 83.9738 209.066 84.3578 209.834 84.9338C210.602 85.5098 211.178 86.3098 211.562 87.3338C212.01 88.2938 212.234 89.5738 212.234 91.1738V130.246ZM253.728 95.1098C252.128 95.1098 250.592 95.3658 249.12 95.8778C247.712 96.3898 246.464 97.1578 245.376 98.1818C244.352 99.1418 243.52 100.358 242.88 101.83C242.24 103.302 241.92 105.03 241.92 107.014C241.92 110.982 243.04 113.958 245.28 115.942C247.584 117.926 250.368 118.918 253.632 118.918C255.552 118.918 257.216 118.694 258.624 118.246C260.032 117.798 261.28 117.318 262.368 116.806C263.648 117.702 264.608 118.694 265.248 119.782C265.888 120.806 266.208 122.054 266.208 123.526C266.208 126.15 264.96 128.198 262.464 129.67C259.968 131.078 256.512 131.782 252.096 131.782C248.064 131.782 244.416 131.206 241.152 130.054C237.888 128.838 235.072 127.174 232.704 125.062C230.4 122.886 228.608 120.294 227.328 117.286C226.048 114.278 225.408 110.95 225.408 107.302C225.408 103.078 226.08 99.3978 227.424 96.2618C228.832 93.0618 230.72 90.4378 233.088 88.3898C235.456 86.3418 238.176 84.8058 241.248 83.7818C244.384 82.7578 247.68 82.2458 251.136 82.2458C255.744 82.2458 259.296 83.0778 261.792 84.7418C264.288 86.4058 265.536 88.5498 265.536 91.1738C265.536 92.3898 265.248 93.5418 264.672 94.6298C264.096 95.6538 263.424 96.5498 262.656 97.3178C261.568 96.8058 260.256 96.3258 258.72 95.8778C257.184 95.3658 255.52 95.1098 253.728 95.1098ZM278.808 70.7258C278.808 68.2938 279.608 66.2458 281.208 64.5818C282.872 62.9178 285.048 62.0858 287.736 62.0858C290.424 62.0858 292.568 62.9178 294.168 64.5818C295.832 66.2458 296.664 68.2938 296.664 70.7258C296.664 73.1578 295.832 75.2058 294.168 76.8698C292.568 78.5338 290.424 79.3658 287.736 79.3658C285.048 79.3658 282.872 78.5338 281.208 76.8698C279.608 75.2058 278.808 73.1578 278.808 70.7258ZM295.896 130.246C295.192 130.374 294.136 130.534 292.728 130.726C291.384 130.982 290.008 131.11 288.6 131.11C287.192 131.11 285.912 131.014 284.76 130.822C283.672 130.63 282.744 130.246 281.976 129.67C281.208 129.094 280.6 128.326 280.152 127.366C279.768 126.342 279.576 125.03 279.576 123.43V84.3578C280.28 84.2298 281.304 84.0698 282.648 83.8778C284.056 83.6218 285.464 83.4938 286.872 83.4938C288.28 83.4938 289.528 83.5898 290.616 83.7818C291.768 83.9738 292.728 84.3578 293.496 84.9338C294.264 85.5098 294.84 86.3098 295.224 87.3338C295.672 88.2938 295.896 89.5738 295.896 91.1738V130.246ZM331.054 119.974C332.142 119.974 333.326 119.878 334.606 119.686C335.95 119.43 336.942 119.11 337.582 118.726V111.046L330.67 111.622C328.878 111.75 327.406 112.134 326.254 112.774C325.102 113.414 324.526 114.374 324.526 115.654C324.526 116.934 325.006 117.99 325.966 118.822C326.99 119.59 328.686 119.974 331.054 119.974ZM330.286 82.2458C333.742 82.2458 336.878 82.5978 339.694 83.3018C342.574 84.0058 345.006 85.0938 346.99 86.5658C349.038 87.9738 350.606 89.7978 351.694 92.0378C352.782 94.2138 353.326 96.8058 353.326 99.8138V121.318C353.326 122.982 352.846 124.358 351.886 125.446C350.99 126.47 349.902 127.366 348.622 128.134C344.462 130.63 338.606 131.878 331.054 131.878C327.662 131.878 324.59 131.558 321.838 130.918C319.15 130.278 316.814 129.318 314.83 128.038C312.91 126.758 311.406 125.126 310.318 123.142C309.294 121.158 308.782 118.854 308.782 116.23C308.782 111.814 310.094 108.422 312.718 106.054C315.342 103.686 319.406 102.214 324.91 101.638L337.486 100.294V99.6218C337.486 97.7658 336.654 96.4538 334.99 95.6858C333.39 94.8538 331.054 94.4378 327.982 94.4378C325.55 94.4378 323.182 94.6938 320.878 95.2058C318.574 95.7178 316.494 96.3578 314.638 97.1258C313.806 96.5498 313.102 95.6858 312.526 94.5338C311.95 93.3178 311.662 92.0698 311.662 90.7898C311.662 89.1258 312.046 87.8138 312.814 86.8538C313.646 85.8298 314.894 84.9658 316.558 84.2618C318.414 83.5578 320.59 83.0458 323.086 82.7258C325.646 82.4058 328.046 82.2458 330.286 82.2458ZM384.425 130.246C383.785 130.438 382.761 130.63 381.353 130.822C380.009 131.014 378.601 131.11 377.129 131.11C375.721 131.11 374.441 131.014 373.289 130.822C372.201 130.63 371.273 130.246 370.505 129.67C369.737 129.094 369.129 128.326 368.681 127.366C368.297 126.342 368.105 125.03 368.105 123.43V94.6298C368.105 93.1578 368.361 91.9098 368.873 90.8858C369.449 89.7978 370.249 88.8378 371.273 88.0058C372.297 87.1738 373.545 86.4378 375.017 85.7978C376.553 85.0938 378.185 84.4858 379.913 83.9738C381.641 83.4618 383.433 83.0778 385.289 82.8218C387.145 82.5018 389.001 82.3418 390.857 82.3418C393.929 82.3418 396.361 82.9498 398.153 84.1658C399.945 85.3178 400.841 87.2378 400.841 89.9258C400.841 90.8218 400.713 91.7178 400.457 92.6138C400.201 93.4458 399.881 94.2138 399.497 94.9178C398.153 94.9178 396.777 94.9818 395.369 95.1098C393.961 95.2378 392.585 95.4298 391.241 95.6858C389.897 95.9418 388.617 96.2298 387.401 96.5498C386.249 96.8058 385.257 97.1258 384.425 97.5098V130.246Z" fill="#954F3D"/>
</g>
<defs>
<filter id="filter0_d" x="97.959" y="62.0857" width="306.882" height="77.792" filterUnits="userSpaceOnUse" color-interpolation-filters="sRGB">
<feFlood flood-opacity="0" result="BackgroundImageFix"/>
<feColorMatrix in="SourceAlpha" type="matrix" values="0 0 0 0 0 0 0 0 0 0 0 0 0 0 0 0 0 0 127 0"/>
<feOffset dy="4"/>
<feGaussianBlur stdDeviation="2"/>
<feColorMatrix type="matrix" values="0 0 0 0 0 0 0 0 0 0 0 0 0 0 0 0 0 0 0.25 0"/>
<feBlend mode="normal" in2="BackgroundImageFix" result="effect1_dropShadow"/>
<feBlend mode="normal" in="SourceGraphic" in2="effect1_dropShadow" result="shape"/>
</filter>
</defs>
</svg>
