<svg width="474" height="233" viewBox="0 0 474 233" fill="none" xmlns="http://www.w3.org/2000/svg">
<path d="M29.6191 194.862L8.72266 24.7749L443.061 217.758C299.807 232.504 166.526 227.459 114.846 227.847C73.502 228.158 57.7259 223.061 55.0059 220.474L29.6191 194.862Z" fill="black" fill-opacity="0.15"/>
<path d="M30.5975 147.631L30.7242 148.26L31.0661 148.803C36.571 157.555 44.8253 171.006 51.6954 182.911C55.1336 188.869 58.2014 194.399 60.401 198.743C61.5034 200.92 62.3609 202.747 62.9344 204.154C63.2217 204.859 63.4176 205.41 63.5367 205.816C63.617 206.089 63.6406 206.225 63.6463 206.254C63.6719 208.007 64.4921 209.409 65.3749 210.406C66.2635 211.409 67.4033 212.224 68.5541 212.894C70.8624 214.238 73.8798 215.375 76.9898 216.325C82.7621 218.088 89.5231 219.405 94.4101 220.15C95.0704 220.729 95.8084 221.19 96.5205 221.564C97.7498 222.21 99.2154 222.758 100.829 223.238C104.058 224.197 108.269 224.993 113.236 225.664C123.196 227.008 136.664 227.906 152.435 228.46C184.004 229.569 225.156 229.31 266.702 228.384C349.724 226.534 434.761 222.008 448.417 220.338C452.426 219.848 455.531 217.329 457.874 214.049C460.206 210.783 462.034 206.436 463.502 201.477C466.444 191.535 468.184 178.251 469.13 163.869C471.025 135.044 469.772 100.972 468.04 78.3935L468.017 78.0911L467.942 77.7971L451.384 12.8087L450.85 10.715L448.739 10.2536C431.794 6.54941 403.179 4.77787 368.223 4.29649C333.17 3.81379 291.451 4.62816 248.129 6.18536C161.48 9.2999 68.2866 15.3909 8.9163 20.0553L4.98012 20.3646L5.75925 24.2352L30.5975 147.631Z" fill="#FCFEE6" stroke="#FFFF93" stroke-width="7"/>
<g filter="url(#filter0_d)">
<path d="M126.661 136.958C125.957 137.15 124.837 137.342 123.301 137.534C121.829 137.726 120.357 137.822 118.885 137.822C117.413 137.822 116.101 137.694 114.949 137.438C113.861 137.246 112.933 136.862 112.165 136.286C111.397 135.71 110.821 134.91 110.437 133.886C110.053 132.862 109.861 131.518 109.861 129.854V79.1658C110.565 79.0378 111.685 78.8778 113.221 78.6858C114.757 78.4298 116.229 78.3018 117.637 78.3018C119.109 78.3018 120.389 78.4298 121.477 78.6858C122.629 78.8778 123.589 79.2618 124.357 79.8378C125.125 80.4138 125.701 81.2138 126.085 82.2378C126.469 83.2618 126.661 84.6058 126.661 86.2698V136.958ZM172.231 107.774C172.231 105.79 171.655 104.35 170.503 103.454C169.415 102.494 167.911 102.014 165.991 102.014C164.711 102.014 163.431 102.174 162.151 102.494C160.935 102.814 159.879 103.294 158.983 103.934V137.246C158.343 137.438 157.319 137.63 155.911 137.822C154.567 138.014 153.159 138.11 151.687 138.11C150.279 138.11 148.999 138.014 147.847 137.822C146.759 137.63 145.831 137.246 145.063 136.67C144.295 136.094 143.687 135.326 143.239 134.366C142.855 133.342 142.663 132.03 142.663 130.43V101.63C142.663 99.9018 143.015 98.4938 143.719 97.4058C144.487 96.3178 145.511 95.3258 146.791 94.4298C148.967 92.8938 151.687 91.6458 154.951 90.6858C158.279 89.7258 161.959 89.2458 165.991 89.2458C173.223 89.2458 178.791 90.8458 182.695 94.0458C186.599 97.1818 188.551 101.566 188.551 107.198V137.246C187.911 137.438 186.887 137.63 185.479 137.822C184.135 138.014 182.727 138.11 181.255 138.11C179.847 138.11 178.567 138.014 177.415 137.822C176.327 137.63 175.399 137.246 174.631 136.67C173.863 136.094 173.255 135.326 172.807 134.366C172.423 133.342 172.231 132.03 172.231 130.43V107.774ZM203.048 77.7258C203.048 75.2938 203.848 73.2458 205.448 71.5818C207.112 69.9178 209.288 69.0858 211.976 69.0858C214.664 69.0858 216.808 69.9178 218.408 71.5818C220.072 73.2458 220.904 75.2938 220.904 77.7258C220.904 80.1578 220.072 82.2058 218.408 83.8698C216.808 85.5338 214.664 86.3658 211.976 86.3658C209.288 86.3658 207.112 85.5338 205.448 83.8698C203.848 82.2058 203.048 80.1578 203.048 77.7258ZM220.136 137.246C219.432 137.374 218.376 137.534 216.968 137.726C215.624 137.982 214.248 138.11 212.84 138.11C211.432 138.11 210.152 138.014 209 137.822C207.912 137.63 206.984 137.246 206.216 136.67C205.448 136.094 204.84 135.326 204.392 134.366C204.008 133.342 203.816 132.03 203.816 130.43V91.3578C204.52 91.2298 205.544 91.0698 206.888 90.8778C208.296 90.6218 209.704 90.4938 211.112 90.4938C212.52 90.4938 213.768 90.5898 214.856 90.7818C216.008 90.9738 216.968 91.3578 217.736 91.9338C218.504 92.5098 219.08 93.3098 219.464 94.3338C219.912 95.2938 220.136 96.5738 220.136 98.1738V137.246ZM261.63 102.11C260.03 102.11 258.494 102.366 257.022 102.878C255.614 103.39 254.366 104.158 253.278 105.182C252.254 106.142 251.422 107.358 250.782 108.83C250.142 110.302 249.822 112.03 249.822 114.014C249.822 117.982 250.942 120.958 253.182 122.942C255.486 124.926 258.27 125.918 261.534 125.918C263.454 125.918 265.118 125.694 266.526 125.246C267.934 124.798 269.182 124.318 270.27 123.806C271.55 124.702 272.51 125.694 273.15 126.782C273.79 127.806 274.11 129.054 274.11 130.526C274.11 133.15 272.862 135.198 270.366 136.67C267.87 138.078 264.414 138.782 259.998 138.782C255.966 138.782 252.318 138.206 249.054 137.054C245.79 135.838 242.974 134.174 240.606 132.062C238.302 129.886 236.51 127.294 235.23 124.286C233.95 121.278 233.31 117.95 233.31 114.302C233.31 110.078 233.982 106.398 235.326 103.262C236.734 100.062 238.622 97.4378 240.99 95.3898C243.358 93.3418 246.078 91.8058 249.15 90.7818C252.286 89.7578 255.582 89.2458 259.038 89.2458C263.646 89.2458 267.198 90.0778 269.694 91.7418C272.19 93.4058 273.438 95.5498 273.438 98.1738C273.438 99.3898 273.15 100.542 272.574 101.63C271.998 102.654 271.326 103.55 270.558 104.318C269.47 103.806 268.158 103.326 266.622 102.878C265.086 102.366 263.422 102.11 261.63 102.11ZM286.711 77.7258C286.711 75.2938 287.511 73.2458 289.111 71.5818C290.775 69.9178 292.951 69.0858 295.639 69.0858C298.327 69.0858 300.471 69.9178 302.071 71.5818C303.735 73.2458 304.567 75.2938 304.567 77.7258C304.567 80.1578 303.735 82.2058 302.071 83.8698C300.471 85.5338 298.327 86.3658 295.639 86.3658C292.951 86.3658 290.775 85.5338 289.111 83.8698C287.511 82.2058 286.711 80.1578 286.711 77.7258ZM303.799 137.246C303.095 137.374 302.039 137.534 300.631 137.726C299.287 137.982 297.911 138.11 296.503 138.11C295.095 138.11 293.815 138.014 292.663 137.822C291.575 137.63 290.647 137.246 289.879 136.67C289.111 136.094 288.503 135.326 288.055 134.366C287.671 133.342 287.479 132.03 287.479 130.43V91.3578C288.183 91.2298 289.207 91.0698 290.551 90.8778C291.959 90.6218 293.367 90.4938 294.775 90.4938C296.183 90.4938 297.431 90.5898 298.519 90.7818C299.671 90.9738 300.631 91.3578 301.399 91.9338C302.167 92.5098 302.743 93.3098 303.127 94.3338C303.575 95.2938 303.799 96.5738 303.799 98.1738V137.246ZM338.956 126.974C340.044 126.974 341.228 126.878 342.508 126.686C343.852 126.43 344.844 126.11 345.484 125.726V118.046L338.572 118.622C336.78 118.75 335.308 119.134 334.156 119.774C333.004 120.414 332.428 121.374 332.428 122.654C332.428 123.934 332.908 124.99 333.868 125.822C334.892 126.59 336.588 126.974 338.956 126.974ZM338.188 89.2458C341.644 89.2458 344.78 89.5978 347.596 90.3018C350.476 91.0058 352.908 92.0938 354.892 93.5658C356.94 94.9738 358.508 96.7978 359.596 99.0378C360.684 101.214 361.228 103.806 361.228 106.814V128.318C361.228 129.982 360.748 131.358 359.788 132.446C358.892 133.47 357.804 134.366 356.524 135.134C352.364 137.63 346.508 138.878 338.956 138.878C335.564 138.878 332.492 138.558 329.74 137.918C327.052 137.278 324.716 136.318 322.732 135.038C320.812 133.758 319.308 132.126 318.22 130.142C317.196 128.158 316.684 125.854 316.684 123.23C316.684 118.814 317.996 115.422 320.62 113.054C323.244 110.686 327.308 109.214 332.812 108.638L345.388 107.294V106.622C345.388 104.766 344.556 103.454 342.892 102.686C341.292 101.854 338.956 101.438 335.884 101.438C333.452 101.438 331.084 101.694 328.78 102.206C326.476 102.718 324.396 103.358 322.54 104.126C321.708 103.55 321.004 102.686 320.428 101.534C319.852 100.318 319.564 99.0698 319.564 97.7898C319.564 96.1258 319.948 94.8138 320.716 93.8538C321.548 92.8298 322.796 91.9658 324.46 91.2618C326.316 90.5578 328.492 90.0458 330.988 89.7258C333.548 89.4058 335.948 89.2458 338.188 89.2458ZM392.327 137.246C391.687 137.438 390.663 137.63 389.255 137.822C387.911 138.014 386.503 138.11 385.031 138.11C383.623 138.11 382.343 138.014 381.191 137.822C380.103 137.63 379.175 137.246 378.407 136.67C377.639 136.094 377.031 135.326 376.583 134.366C376.199 133.342 376.007 132.03 376.007 130.43V101.63C376.007 100.158 376.263 98.9098 376.775 97.8858C377.351 96.7978 378.151 95.8378 379.175 95.0058C380.199 94.1738 381.447 93.4378 382.919 92.7978C384.455 92.0938 386.087 91.4858 387.815 90.9738C389.543 90.4618 391.335 90.0778 393.191 89.8218C395.047 89.5018 396.903 89.3418 398.759 89.3418C401.831 89.3418 404.263 89.9498 406.055 91.1658C407.847 92.3178 408.743 94.2378 408.743 96.9258C408.743 97.8218 408.615 98.7178 408.359 99.6138C408.103 100.446 407.783 101.214 407.399 101.918C406.055 101.918 404.679 101.982 403.271 102.11C401.863 102.238 400.487 102.43 399.143 102.686C397.799 102.942 396.519 103.23 395.303 103.55C394.151 103.806 393.159 104.126 392.327 104.51V137.246Z" fill="#954F3D"/>
</g>
<defs>
<filter id="filter0_d" x="105.861" y="69.0857" width="306.882" height="77.792" filterUnits="userSpaceOnUse" color-interpolation-filters="sRGB">
<feFlood flood-opacity="0" result="BackgroundImageFix"/>
<feColorMatrix in="SourceAlpha" type="matrix" values="0 0 0 0 0 0 0 0 0 0 0 0 0 0 0 0 0 0 127 0"/>
<feOffset dy="4"/>
<feGaussianBlur stdDeviation="2"/>
<feColorMatrix type="matrix" values="0 0 0 0 0 0 0 0 0 0 0 0 0 0 0 0 0 0 0.25 0"/>
<feBlend mode="normal" in2="BackgroundImageFix" result="effect1_dropShadow"/>
<feBlend mode="normal" in="SourceGraphic" in2="effect1_dropShadow" result="shape"/>
</filter>
</defs>
</svg>
