<svg width="421" height="260" viewBox="0 0 421 260" fill="none" xmlns="http://www.w3.org/2000/svg">
<path d="M51.3696 144.033L55.8696 142.533C56.4229 143.214 57.0718 144.089 57.6848 145.033C58.5798 144.2 60.5696 142.533 61.3696 142.533C62.203 138.867 64.0696 133.733 64.8696 142.533C65.7789 142.306 66.9981 142.389 67.8696 143.298C68.703 142.877 70.4696 142.033 70.8696 142.033C71.2696 142.033 71.3696 138.367 71.3696 136.533C72.5363 136.612 74.8696 137.422 74.8696 140.033C75.3696 140.367 76.5696 141.033 77.3696 141.033C77.5764 141.033 77.7832 141.418 77.9724 142.033C78.7715 141.533 80.5696 140.533 81.3696 140.533C82.1696 140.533 81.703 136.2 81.3696 134.033C82.5363 134.033 85.1696 134.833 86.3696 138.033C87.0735 138.161 88.0181 138.56 88.8696 139.341C90.0363 138.405 92.7696 136.433 94.3696 136.033C94.3696 134.533 94.4696 131.433 94.8696 131.033C95.3696 130.533 97.3696 132.533 98.3696 135.033C98.9739 135.235 99.6834 135.567 100.372 136.033C101.871 135.367 104.97 133.833 105.37 133.033C105.87 132.033 102.87 124.533 106.87 126.033C107.87 126.867 109.97 128.634 110.37 129.034C110.87 127.034 119.37 119.034 120.87 120.034C120.981 120.108 121.087 120.22 121.188 120.366C121.582 120.088 122.37 119.434 122.37 119.034C122.37 118.634 122.703 114.534 122.87 112.534C124.37 113.367 127.47 115.434 127.87 117.034C129.87 116.534 133.97 115.734 134.37 116.534C135.536 114.867 138.07 111.534 138.87 111.534C139.67 111.534 139.87 105.2 139.87 102.034C141.37 102.867 144.77 105.134 146.37 107.534C148.37 107.2 152.47 106.734 152.87 107.534C154.37 106.034 157.47 103.034 157.87 103.034C158.37 103.034 157.37 95.5335 158.37 95.5335C159.37 95.5335 163.87 99.5335 164.37 100.534C164.77 101.334 169.87 101.534 172.37 101.534C172.5 101.821 172.649 102.16 172.805 102.534C173.66 101.2 176.07 98.6335 178.87 99.0335C178.703 95.7002 178.67 89.0335 179.87 89.0335C181.37 89.0335 184.87 97.0335 184.87 97.5335C184.87 98.0335 190.37 97.5335 190.87 98.5335C190.979 98.7517 191.159 99.0176 191.37 99.305C192.703 98.3812 195.77 96.4335 197.37 96.0335C197.37 95.5335 197.37 87.5335 198.37 87.5335C199.37 87.5335 201.37 95.5335 201.37 96.0335C201.37 96.4549 204.565 95.9734 205.87 96.8714C207.703 95.9254 211.57 94.2335 212.37 95.0335C213.37 96.0335 214.87 86.0335 215.87 86.5335C216.87 87.0335 217.37 93.7621 217.37 96.5336C218.212 96.7021 219.379 97.4673 220.12 99.2169C222.37 99.0947 226.97 98.8869 227.37 99.0336C227.87 99.2169 230.37 89.5336 232.37 90.0336C233.97 90.4336 233.036 97.5336 232.37 101.034C233.17 101.58 234.091 102.741 234.476 104.534C236.44 104.367 240.47 104.034 240.87 104.034C241.27 104.034 245.37 97.7002 247.37 94.5336L245.37 106.034C246.63 107.065 248.074 109.054 248.066 111.534H251.87C254.036 108.7 258.57 103.034 259.37 103.034C260.17 103.034 261.37 103.7 261.87 104.034L257.37 113.329C258.364 114.251 259.489 116.385 259.13 119.534C260.71 119.367 264.17 119.334 265.37 120.534C267.87 117.935 273.07 112.797 273.87 113.034C274.87 113.329 276.37 113.788 275.87 114.661C275.47 115.359 272.036 121.534 270.37 124.534C271.35 126.032 272.229 128.464 271.815 131.034C272.833 130.7 274.87 130.134 274.87 130.534C274.87 131.034 282.37 125.034 283.37 125.034C284.37 125.034 286.37 126.534 284.87 128.034L278.87 134.034C279.644 135.71 280.777 138.924 280.508 141.034C281.629 141.367 283.97 142.134 284.37 142.534C284.87 143.034 293.37 137.534 294.37 137.534C295.37 137.534 297.37 139.034 295.87 140.534C294.67 141.734 291.036 144.367 289.37 145.534V150.034C290.87 150.534 293.87 151.734 293.87 152.534C293.87 153.534 299.87 147.534 300.87 148.034C301.87 148.534 303.37 148.034 302.87 150.534C302.47 152.534 300.37 154.7 299.37 155.534C299.323 155.95 299.257 156.482 299.176 157.034C301.574 158.367 306.27 161.134 305.87 161.534C305.37 162.034 312.37 158.034 312.87 158.034C313.37 158.034 314.87 159.034 314.37 160.034C313.97 160.834 310.87 163.7 309.37 165.034L308.87 168.534C309.87 168.7 311.97 169.234 312.37 170.034C314.37 168.534 318.07 166.134 318.87 166.534C319.87 167.034 317.87 171.534 314.87 173.034C315.085 173.434 318.293 176.367 319.87 176.534C322.27 172.534 325.071 173.333 324.37 174.034C323.615 174.789 322.093 176.967 321.517 180.047L326.885 180.534C327.051 180.534 328.505 180.534 330.105 178.534C332.105 176.034 332.828 176.325 333.282 176.534C334.37 177.034 335.87 176.768 334.37 179.534C334.506 180.079 335.203 180.422 335.045 181.251L341.37 181.534C342.703 179.7 345.47 176.234 345.87 177.034C346.27 177.834 345.036 181.034 344.37 182.534V185.534L347.87 186.034C349.203 184.7 351.97 182.134 352.37 182.534C352.77 182.934 351.203 186.034 350.37 187.534V189.034V190.034C350.37 190.149 350.365 190.262 350.356 190.374L353.183 191.633L356.91 189.034L355.49 193.171L357.471 194.102L359.453 195.034L361.937 193.171V196.365L362.529 198.534H364.244C364.56 198.077 365.475 197.238 366.61 197.534C367.746 197.829 367.438 199.165 367.143 199.796L367.912 201.216C368.005 201.3 368.107 201.402 368.212 201.519C371.05 202.147 376.725 203.57 376.725 204.232C376.725 204.341 376.708 204.492 376.676 204.67C378.782 204.682 383.255 205.013 384.296 206.244C386.544 206.484 391.11 207.028 391.394 207.284C391.477 207.358 391.531 207.661 391.547 208.077C393.034 207.703 396.091 207.178 396.422 208.077C396.485 208.248 396.559 208.449 396.636 208.669C398.793 208.434 403.142 208.281 403.284 209.542H406.537C406.612 209.542 406.685 209.642 406.747 209.803C407.781 209.228 409.908 208.278 410.145 209.083C410.382 209.887 410.48 211.153 410.5 211.685H406.833C406.772 211.899 406.676 212.07 406.537 212.159C406.016 212.49 404.165 211.981 403.305 211.685C403.216 212.347 403.006 212.759 402.633 212.573C402.065 212.289 398.839 211.485 397.297 211.118C397.325 211.462 397.268 211.685 397.073 211.685C396.422 211.685 390.969 211.4 391.083 211.118C390.874 211.562 390.588 211.816 390.211 211.685C389.123 211.307 385.369 210.099 383.629 209.542C383.45 209.755 383.271 209.942 383.113 210.088C382.758 210.128 381.516 209.899 379.387 208.669C377.257 207.438 376.098 207.233 375.785 207.284C375.513 207.794 375.217 208.139 374.95 208.077C374.335 207.935 370.002 206.015 367.912 205.073C366.977 205.683 365.741 206.122 365.072 206.303L363.712 208.787L362.529 205.593L359.867 203.034L357.56 202.399C356.87 203.168 355.348 204.717 354.78 204.765C354.07 204.824 355.49 201.216 355.135 201.216C354.969 201.216 354.397 200.781 353.813 200.295C353.4 199.952 352.982 199.582 352.694 199.321C351.632 201.033 349.626 203.79 348.87 203.034C347.87 202.034 350.37 197.034 349.87 197.534C349.47 197.934 347.703 195.889 346.87 194.817C346.69 194.905 346.521 194.977 346.37 195.034C345.37 196.534 343.07 199.334 341.87 198.534C340.67 197.734 342.37 194.867 343.37 193.534C342.97 193.534 341.316 191.534 340.54 190.534C340.432 190.738 340.37 190.909 340.37 191.034C340.37 192.034 335.37 194.534 334.37 194.534C333.57 194.534 335.036 190.867 335.87 189.034C335.07 189.034 333.102 188.534 332.6 187.034C332.419 187.218 331.871 189.101 331.724 189.248C330.891 189.248 328.894 188.848 328.894 189.248C328.894 189.748 326.655 193.172 325.655 192.172C324.655 191.172 324.87 186.534 324.37 187.034C323.97 187.434 316.536 187.661 315.37 185.975C315.192 186.001 315.025 186.021 314.87 186.034C314.87 186.434 312.822 187.534 310.322 187.534C309.822 184.975 311.77 183.434 311.37 183.034C310.97 182.634 309.87 181.134 309.37 180.434C309.207 180.472 309.041 180.505 308.87 180.534C308.37 180.534 306.87 179.034 306.37 179.534C305.87 180.034 301.87 183.534 301.37 182.534C300.87 181.534 300.37 180.034 300.87 180.034C301.27 180.034 302.703 177.7 303.37 176.534L302.37 173.034C300.87 173.034 298.37 172.534 297.37 173.034C296.37 173.534 291.87 176.534 291.37 176.034C290.87 175.534 291.37 173.034 292.87 171.034C294.37 169.034 295.37 167.534 294.87 167.534C294.47 167.534 294.036 165.867 293.87 165.034C293.47 165.034 290.703 164.7 289.37 164.534C287.536 166.367 283.77 169.934 283.37 169.534C282.87 169.034 280.87 167.534 285.87 161.534C284.723 160.387 282.664 158.18 282.365 157.33C282.002 157.866 279 156.423 277.37 155.534C275.703 157.2 272.17 160.434 271.37 160.034C270.37 159.534 268.924 160.034 270.37 156.034L272.87 153.534C272.221 151.444 271.013 147.26 271.37 147.238C269.82 147.298 268.077 146.97 266.133 146.034C266.336 150.847 262.641 152.404 260.247 152.534C260.545 154.236 260.413 155.729 259.988 157.034C261.822 161.034 266.37 168.534 268.37 170.534C270.87 173.034 281.37 188.034 278.87 191.034C278.002 192.075 275.689 191.546 272.37 189.827C274.476 194.12 269.87 199.034 268.87 199.034H264.87C263.67 200.234 261.288 202.2 260.247 203.034C253.125 202.034 257.37 194.034 257.37 192.034C257.37 190.434 251.37 178.13 248.37 172.179C247.541 171.469 246.708 170.748 245.87 170.016C242.541 176.697 237.355 188.529 234.37 195.534C233.97 210.334 225.203 206.7 220.87 203.034C206.37 200.534 217.87 188.034 226.37 190.034C234.37 180.034 240.87 161.534 238.37 159.034C235.87 156.534 229.87 159.534 221.87 160.034C213.87 160.534 215.87 155.534 215.87 154.534C215.87 153.734 227.203 148.867 232.87 146.534C238.47 140.934 236.536 137.534 234.87 136.534C226.87 133.367 209.57 126.234 204.37 123.034C199.17 119.834 201.137 116.7 202.77 115.534C202.444 115.16 201.363 113.003 200.179 110.534C198.242 111.367 194.27 112.934 193.87 112.534C192.87 112.867 190.77 113.434 190.37 113.034C193.37 125.867 199.37 154.234 199.37 165.034C199.203 167.034 198.57 169.634 197.37 164.034C196.063 157.936 193.998 131.353 184.565 113.034C181.521 116.846 177.833 116.289 176.37 115.534C174.37 116.534 173.87 116.534 173.37 116.534C177.703 124.7 185.97 148.734 184.37 179.534C183.703 181.367 182.17 182.634 181.37 173.034C180.493 162.52 176.163 132.048 167.37 117.599C165.036 118.967 159.87 121.568 157.87 121.034V120.366C156.27 123.7 154.536 123.867 153.87 123.534C159.536 137.534 169.37 170.434 163.37 190.034C162.703 191.034 161.27 192.234 160.87 189.034C160.394 185.229 162.18 155.336 148.588 125.034C146.848 126.367 142.67 128.834 139.87 128.034C139.37 130.034 136.87 132.034 136.37 132.034C146.37 149.068 148.37 184.034 146.37 189.034C144.77 193.034 144.37 190.7 144.37 189.034C141.57 161.034 132.87 141.367 128.87 135.033C126.892 137.011 122.662 136.544 122.378 137.017C122.375 137.023 122.372 137.028 122.37 137.034C121.666 138.44 121.272 138.885 121.067 138.912C126.639 149.667 137.84 176.122 135.37 183.534C131.909 172.288 123.585 151.313 116.87 143.268C116.849 143.244 116.861 147.768 116.87 150.033C118.036 150.7 120.17 153.234 119.37 158.034C118.37 164.034 113.87 163.534 111.87 162.034C110.27 160.834 106.87 160.534 105.37 160.534C102.57 163.734 99.5363 162.867 98.3696 162.034C92.3696 159.534 100.372 151.033 100.372 150.533C100.372 150.133 101.704 146.367 102.37 144.533C99.703 145.2 93.6696 146.533 90.8696 146.533C90.3696 146.533 86.4155 150.033 78.6426 150.033C78.577 150.299 78.4871 150.475 78.3696 150.533C77.3696 151.033 68.2496 151.533 68.3696 151.033C65.8176 151.367 60.5292 151.833 59.7916 151.033C59.6536 151.476 59.3605 151.823 58.8696 152.033C57.0363 151.7 53.1696 151.533 52.3696 153.533C51.8696 152.533 50.7696 150.433 50.3696 150.033C49.8696 149.533 51.3696 145.533 51.3696 144.033Z" fill="#F0EBA9"/>
<path d="M57.6848 145.033C57.0718 144.089 56.4229 143.214 55.8696 142.533L51.3696 144.033C51.3696 145.533 49.8696 149.533 50.3696 150.033C50.7696 150.433 51.8696 152.533 52.3696 153.533C53.1696 151.533 57.0363 151.7 58.8696 152.033C59.3605 151.823 59.6536 151.476 59.7916 151.033M57.6848 145.033C58.5798 144.2 60.5696 142.533 61.3696 142.533C62.203 138.867 64.0696 133.733 64.8696 142.533C65.7789 142.306 66.9981 142.389 67.8696 143.298M57.6848 145.033C59.0515 147.14 60.2398 149.595 59.7916 151.033M68.3696 151.033C65.8176 151.367 60.5292 151.833 59.7916 151.033M68.3696 151.033C69.4604 146.67 68.9152 144.389 67.8696 143.298M68.3696 151.033C68.2496 151.533 77.3696 151.033 78.3696 150.533C78.4871 150.475 78.577 150.299 78.6426 150.033M67.8696 143.298C68.703 142.877 70.4696 142.033 70.8696 142.033C71.2696 142.033 71.3696 138.367 71.3696 136.533C72.5363 136.612 74.8696 137.422 74.8696 140.033C75.3696 140.367 76.5696 141.033 77.3696 141.033C77.5764 141.033 77.7832 141.418 77.9724 142.033M77.9724 142.033C78.7715 141.533 80.5696 140.533 81.3696 140.533C82.1696 140.533 81.703 136.2 81.3696 134.033C82.5363 134.033 85.1696 134.833 86.3696 138.033C87.0735 138.161 88.0181 138.56 88.8696 139.341M77.9724 142.033C78.5902 144.043 79.0193 148.509 78.6426 150.033M90.8696 146.533C90.3696 146.533 86.4155 150.033 78.6426 150.033M90.8696 146.533C91.3625 142.837 90.236 140.596 88.8696 139.341M90.8696 146.533C93.6696 146.533 99.703 145.2 102.37 144.533M88.8696 139.341C90.0363 138.405 92.7696 136.433 94.3696 136.033C94.3696 134.533 94.4696 131.433 94.8696 131.033C95.3696 130.533 97.3696 132.533 98.3696 135.033C98.9739 135.235 99.6834 135.567 100.372 136.033M102.37 144.533C104.493 140.287 102.534 137.497 100.372 136.033M102.37 144.533C108.77 145.522 112.703 142.279 113.87 140.533C114.814 141.073 115.822 142.013 116.87 143.268M102.37 144.533C101.704 146.367 100.372 150.133 100.372 150.533C100.372 151.033 92.3696 159.534 98.3696 162.034C99.5363 162.867 102.57 163.734 105.37 160.534C106.87 160.534 110.27 160.834 111.87 162.034C113.87 163.534 118.37 164.034 119.37 158.034C120.17 153.234 118.036 150.7 116.87 150.033C116.861 147.768 116.849 143.244 116.87 143.268M100.372 136.033C101.871 135.367 104.97 133.833 105.37 133.033C105.87 132.033 102.87 124.533 106.87 126.033C107.87 126.867 109.97 128.634 110.37 129.034M110.37 129.034C110.87 129.534 118.37 127.034 119.37 127.534C119.751 127.724 120.496 128.715 121.188 130.034M110.37 129.034C110.87 127.034 119.37 119.034 120.87 120.034C120.981 120.108 121.087 120.22 121.188 120.366M122.37 137.034C121.17 139.434 120.87 139.034 120.87 138.534C126.37 149.034 137.87 176.034 135.37 183.534C131.909 172.288 123.585 151.313 116.87 143.268M122.37 137.034C123.298 135.178 122.312 132.173 121.188 130.034M122.37 137.034C122.567 136.533 126.87 137.033 128.87 135.033M121.188 130.034C122.872 129.108 122.451 122.181 121.188 120.366M121.188 120.366C121.582 120.088 122.37 119.434 122.37 119.034C122.37 118.634 122.703 114.534 122.87 112.534C124.37 113.367 127.47 115.434 127.87 117.034C129.87 116.534 133.97 115.734 134.37 116.534M134.37 116.534C134.87 117.534 140.37 126.034 139.87 128.034M134.37 116.534C135.536 114.867 138.07 111.534 138.87 111.534C139.67 111.534 139.87 105.2 139.87 102.034C141.37 102.867 144.77 105.134 146.37 107.534C148.37 107.2 152.47 106.734 152.87 107.534M139.87 128.034C139.37 130.034 136.87 132.034 136.37 132.034C146.37 149.068 148.37 184.034 146.37 189.034C144.77 193.034 144.37 190.7 144.37 189.034C141.57 161.034 132.87 141.367 128.87 135.033M139.87 128.034C142.67 128.834 146.848 126.367 148.588 125.034M128.87 135.033C128.37 134.034 129.37 133.534 126.37 129.534M152.87 107.534C153.27 108.334 153.703 112.534 153.87 114.534M152.87 107.534C154.37 106.034 157.47 103.034 157.87 103.034C158.37 103.034 157.37 95.5335 158.37 95.5335C159.37 95.5335 163.87 99.5335 164.37 100.534C164.77 101.334 169.87 101.534 172.37 101.534C172.5 101.821 172.649 102.16 172.805 102.534M152.87 107.534L153.87 114.534M153.87 114.534C155.87 115.088 159.47 117.031 157.87 120.366M157.87 120.366C156.27 123.7 154.536 123.867 153.87 123.534M157.87 120.366V121.034C159.87 121.568 165.036 118.967 167.37 117.599M153.87 123.534L150.87 116.534M153.87 123.534C159.536 137.534 169.37 170.434 163.37 190.034C162.703 191.034 161.27 192.234 160.87 189.034C160.394 185.229 162.18 155.336 148.588 125.034M146.37 120.366C147.151 121.92 147.89 123.477 148.588 125.034M176.37 115.534C178.37 114.534 173.87 110.034 174.37 108.534C174.707 107.522 173.646 104.542 172.805 102.534M176.37 115.534C174.37 116.534 173.87 116.534 173.37 116.534M176.37 115.534C177.833 116.289 181.521 116.846 184.565 113.034M173.37 116.534C172.97 116.534 170.536 111.534 169.37 109.034M173.37 116.534C177.703 124.7 185.97 148.734 184.37 179.534C183.703 181.367 182.17 182.634 181.37 173.034C180.493 162.52 176.163 132.048 167.37 117.599M163.37 112.534C164.794 113.834 166.126 115.557 167.37 117.599M172.805 102.534C173.66 101.2 176.07 98.6335 178.87 99.0335C178.703 95.7002 178.67 89.0335 179.87 89.0335C181.37 89.0335 184.87 97.0335 184.87 97.5335C184.87 98.0335 190.37 97.5335 190.87 98.5335C190.979 98.7517 191.159 99.0176 191.37 99.305M193.87 112.534C189.87 104.034 192.37 102.534 192.87 102.034C193.261 101.643 192.123 100.335 191.37 99.305M193.87 112.534C192.87 112.867 190.77 113.434 190.37 113.034M193.87 112.534C194.27 112.934 198.242 111.367 200.179 110.534M190.37 113.034C189.97 112.634 188.203 107.867 187.37 105.534M190.37 113.034C193.37 125.867 199.37 154.234 199.37 165.034C199.203 167.034 198.57 169.634 197.37 164.034C196.063 157.936 193.998 131.353 184.565 113.034M179.87 105.534C181.611 107.79 183.168 110.321 184.565 113.034M191.37 99.305C192.703 98.3812 195.77 96.4335 197.37 96.0335C197.37 95.5335 197.37 87.5335 198.37 87.5335C199.37 87.5335 201.37 95.5335 201.37 96.0335C201.37 96.4549 204.565 95.9734 205.87 96.8714M205.87 111.034C208.27 111.834 207.536 108.367 206.87 106.534C207.37 106.034 206.87 99.305 206.37 97.5335C206.291 97.2548 206.113 97.039 205.87 96.8714M205.87 111.034L201.87 103.534M205.87 111.034C206.036 112.034 206.27 114.034 205.87 114.034M205.87 114.034C205.37 114.034 202.87 114.534 202.87 115.534C202.87 115.612 202.835 115.608 202.77 115.534M205.87 114.034C209.193 113.635 212.336 113.407 215.306 113.329M197.37 104.534C198.124 106.178 199.187 108.466 200.179 110.534M200.179 110.534C201.363 113.003 202.444 115.16 202.77 115.534M202.77 115.534C201.137 116.7 199.17 119.834 204.37 123.034C209.57 126.234 226.87 133.367 234.87 136.534C236.536 137.534 238.47 140.934 232.87 146.534C227.203 148.867 215.87 153.734 215.87 154.534C215.87 155.534 213.87 160.534 221.87 160.034C229.87 159.534 235.87 156.534 238.37 159.034M238.37 159.034C240.87 161.534 234.37 180.034 226.37 190.034C217.87 188.034 206.37 200.534 220.87 203.034C225.203 206.7 233.97 210.334 234.37 195.534C237.355 188.529 242.541 176.697 245.87 170.016M238.37 159.034C233.17 143.834 238.536 140.034 241.87 140.034H248.87C250.37 139.534 253.37 145.034 253.37 146.034C253.37 147.034 257.37 147.534 258.37 147.534C259.391 149.372 259.986 151.034 260.247 152.534M260.247 152.534C261.557 160.035 254.535 163.478 250.87 164.599M260.247 152.534C262.641 152.404 266.336 150.847 266.133 146.034M259.988 157.034C261.822 161.034 266.37 168.534 268.37 170.534C270.87 173.034 281.37 188.034 278.87 191.034C278.002 192.075 275.689 191.546 272.37 189.827M245.87 170.016C247.372 167 248.496 165.034 248.87 165.034C249.144 165.034 249.886 164.9 250.87 164.599M245.87 170.016C246.708 170.748 247.541 171.469 248.37 172.179M250.87 164.599C256.203 171.077 267.97 184.634 272.37 187.034M248.37 172.179C251.37 178.13 257.37 190.434 257.37 192.034C257.37 194.034 253.125 202.034 260.247 203.034C261.288 202.2 263.67 200.234 264.87 199.034C265.87 199.034 268.07 199.034 268.87 199.034C269.87 199.034 274.476 194.12 272.37 189.827M248.37 172.179C251.295 174.684 254.151 177.039 256.87 179.184M272.37 189.827C268.395 187.768 262.977 184.003 256.87 179.184M256.87 179.184L261.87 189.827M205.87 96.8714C207.703 95.9254 211.57 94.2335 212.37 95.0335C213.37 96.0335 214.87 86.0335 215.87 86.5335C216.87 87.0335 217.37 93.7621 217.37 96.5336C218.212 96.7021 219.379 97.4673 220.12 99.2169M219.87 113.329C218.395 113.289 216.875 113.288 215.306 113.329M219.87 113.329L220.12 110.431M219.87 113.329C223.472 113.427 226.798 113.759 229.87 114.285M210.87 105.034C211.37 105.034 216.243 112.625 215.306 113.329M215.306 103.034C216.957 104.965 220.23 109.15 220.12 110.431M220.12 110.431L220.37 107.534C221.161 103.579 220.844 100.927 220.12 99.2169M207.87 111.534L213.37 112.034M220.12 99.2169C222.37 99.0947 226.97 98.8869 227.37 99.0336C227.87 99.2169 230.37 89.5336 232.37 90.0336C233.97 90.4336 233.036 97.5336 232.37 101.034C233.17 101.58 234.091 102.741 234.476 104.534M231.87 114.661C234.574 110.211 234.972 106.847 234.476 104.534M231.87 114.661C236.44 115.601 240.413 116.98 243.87 118.648M231.87 114.661C231.215 114.526 230.549 114.401 229.87 114.285M234.476 104.534C236.44 104.367 240.47 104.034 240.87 104.034C241.27 104.034 245.37 97.7002 247.37 94.5336L245.37 106.034C246.63 107.065 248.074 109.054 248.066 111.534M243.87 118.648C246.998 116.114 248.059 113.646 248.066 111.534M243.87 118.648C248.874 121.062 252.793 124.082 255.87 127.249M248.066 111.534H251.87C254.036 108.7 258.57 103.034 259.37 103.034C260.17 103.034 261.37 103.7 261.87 104.034L257.37 113.329C258.364 114.251 259.489 116.385 259.13 119.534M255.87 127.249C257.967 124.254 258.887 121.662 259.13 119.534M255.87 127.249C259.754 131.248 262.294 135.483 263.977 139.034M259.13 119.534C260.71 119.367 264.17 119.334 265.37 120.534C267.87 117.935 273.07 112.797 273.87 113.034C274.87 113.329 276.37 113.788 275.87 114.661C275.47 115.359 272.036 121.534 270.37 124.534C271.35 126.032 272.229 128.464 271.815 131.034M263.977 139.034C264.306 139.729 264.602 140.398 264.87 141.034C265.695 142.998 266.075 144.65 266.133 146.034M263.977 139.034C269.29 136.926 271.354 133.894 271.815 131.034M266.37 125.534C265.87 127.7 264.47 132.034 262.87 132.034M250.37 118.034L248.066 120.034M240.87 114.034V116.534M236.37 111.034V113.329M224.37 107.534C224.703 108.534 225.47 110.734 225.87 111.534M225.37 101.534C226.37 101.534 229.37 101.034 229.37 102.034M229.87 109.534V114.285M271.815 131.034C272.833 130.7 274.87 130.134 274.87 130.534C274.87 131.034 282.37 125.034 283.37 125.034C284.37 125.034 286.37 126.534 284.87 128.034C283.67 129.234 280.37 132.534 278.87 134.034C279.644 135.71 280.777 138.924 280.508 141.034M266.133 146.034C268.077 146.97 269.82 147.298 271.37 147.238M280.508 141.034C280.43 141.65 280.231 142.172 279.87 142.534C278.405 143.999 275.613 147.073 271.37 147.238M280.508 141.034C281.629 141.367 283.97 142.134 284.37 142.534C284.87 143.034 293.37 137.534 294.37 137.534C295.37 137.534 297.37 139.034 295.87 140.534C294.67 141.734 291.036 144.367 289.37 145.534V150.034M289.37 150.034C286.87 151.867 281.97 155.834 282.37 157.034M289.37 150.034C290.87 150.534 293.87 151.734 293.87 152.534C293.87 153.534 299.87 147.534 300.87 148.034C301.87 148.534 303.37 148.034 302.87 150.534C302.47 152.534 300.37 154.7 299.37 155.534C299.323 155.95 299.257 156.482 299.176 157.034M282.37 157.034C282.77 158.234 279.203 156.534 277.37 155.534C275.703 157.2 272.17 160.434 271.37 160.034C270.37 159.534 268.924 160.034 270.37 156.034L272.87 153.534C272.221 151.444 271.013 147.26 271.37 147.238M282.37 157.034C281.97 157.434 284.536 160.2 285.87 161.534C280.87 167.534 282.87 169.034 283.37 169.534C283.77 169.934 287.536 166.367 289.37 164.534C290.703 164.7 293.47 165.034 293.87 165.034M293.87 165.034C294.37 165.034 297.87 160.034 298.37 160.034C298.659 160.034 298.965 158.468 299.176 157.034M293.87 165.034C294.036 165.867 294.47 167.534 294.87 167.534C295.37 167.534 294.37 169.034 292.87 171.034C291.37 173.034 290.87 175.534 291.37 176.034C291.87 176.534 296.37 173.534 297.37 173.034C298.37 172.534 300.87 173.034 302.37 173.034M299.176 157.034C301.574 158.367 306.27 161.134 305.87 161.534C305.37 162.034 312.37 158.034 312.87 158.034C313.37 158.034 314.87 159.034 314.37 160.034C313.97 160.834 310.87 163.7 309.37 165.034L308.87 168.534M308.87 168.534C307.203 170.034 303.57 173.034 302.37 173.034M308.87 168.534C309.87 168.7 311.97 169.234 312.37 170.034C314.37 168.534 318.07 166.134 318.87 166.534C319.87 167.034 317.87 171.534 314.87 173.034M302.37 173.034L303.37 176.534C302.703 177.7 301.27 180.034 300.87 180.034C300.37 180.034 300.87 181.534 301.37 182.534C301.87 183.534 305.87 180.034 306.37 179.534C306.87 179.034 308.37 180.534 308.87 180.534C309.041 180.505 309.207 180.472 309.37 180.434M314.87 173.034C314.87 175.123 313.754 179.413 309.37 180.434M314.87 173.034C315.085 173.434 318.293 176.367 319.87 176.534C322.27 172.534 325.071 173.333 324.37 174.034C323.536 174.867 321.77 177.434 321.37 181.034C321.001 184.355 317.483 185.662 315.37 185.975M309.37 180.434C309.87 181.134 310.97 182.634 311.37 183.034C311.77 183.434 309.822 184.975 310.322 187.534C312.822 187.534 314.87 186.434 314.87 186.034C315.025 186.021 315.192 186.001 315.37 185.975M315.37 185.975C316.536 187.661 323.97 187.434 324.37 187.034C324.87 186.534 324.655 191.172 325.655 192.172C326.655 193.172 328.894 189.748 328.894 189.248C328.894 188.848 330.891 189.248 331.724 189.248C331.871 189.101 332.419 187.218 332.6 187.034M321.37 180.034L326.885 180.534C327.051 180.534 328.505 180.534 330.105 178.534C332.105 176.034 332.828 176.325 333.282 176.534C334.37 177.034 335.87 176.768 334.37 179.534C334.506 180.079 335.203 180.422 335.045 181.251M332.6 187.034C333.853 185.756 333.414 183.233 333.763 182.534C333.836 182.388 335.01 181.436 335.045 181.251M332.6 187.034C333.102 188.534 335.07 189.034 335.87 189.034C335.036 190.867 333.57 194.534 334.37 194.534C335.37 194.534 340.37 192.034 340.37 191.034C340.37 190.909 340.432 190.738 340.54 190.534M344.37 185.534C344.37 185.134 344.37 183.367 344.37 182.534C345.036 181.034 346.27 177.834 345.87 177.034C345.47 176.234 342.703 179.7 341.37 181.534L335.045 181.251M344.37 185.534C344.37 185.971 341.303 189.092 340.54 190.534M344.37 185.534L347.87 186.034C349.203 184.7 351.97 182.134 352.37 182.534C352.77 182.934 351.203 186.034 350.37 187.534C350.37 187.246 350.37 187.231 350.37 189.034C350.37 189.319 350.37 189.651 350.37 190.034C350.37 190.149 350.365 190.262 350.356 190.374M340.54 190.534C341.317 191.534 342.97 193.534 343.37 193.534C342.37 194.867 340.67 197.734 341.87 198.534C343.07 199.334 345.37 196.534 346.37 195.034C346.521 194.977 346.69 194.905 346.87 194.817M346.87 194.817C347.703 195.889 349.47 197.934 349.87 197.534C350.37 197.034 347.87 202.034 348.87 203.034C349.626 203.79 351.632 201.033 352.694 199.321M346.87 194.817C348.209 194.165 350.177 192.664 350.356 190.374M352.87 199.034C352.815 199.125 352.756 199.222 352.694 199.321M350.356 190.374L353.183 191.633L356.91 189.034L355.49 193.171L357.471 194.102M359.867 203.034L362.529 205.593L363.712 208.787L365.072 206.303C365.741 206.122 366.977 205.683 367.912 205.073M359.867 203.034C360.478 202.038 361.866 199.843 362.529 199.034M359.867 203.034L357.56 202.399C356.87 203.168 355.348 204.717 354.78 204.765C354.07 204.824 355.49 201.216 355.135 201.216C354.969 201.216 354.397 200.781 353.813 200.295M352.694 199.321C352.982 199.582 353.4 199.952 353.813 200.295M357.471 194.102L359.453 195.034L361.937 193.171V196.365L362.529 198.534H364.244C364.56 198.077 365.475 197.238 366.61 197.534C367.746 197.829 367.438 199.165 367.143 199.796L367.912 201.216C368.005 201.3 368.107 201.402 368.212 201.519M357.471 194.102C356.418 196.308 354.211 200.633 353.813 200.295M368.212 201.519C368.819 202.194 369.503 203.345 368.858 204.232C368.636 204.538 368.3 204.82 367.912 205.073M368.212 201.519C371.05 202.147 376.725 203.57 376.725 204.232C376.725 204.341 376.708 204.492 376.676 204.67M367.912 205.073C370.002 206.015 374.335 207.935 374.95 208.077C375.217 208.139 375.513 207.794 375.785 207.284M376.676 204.67C378.782 204.682 383.255 205.013 384.296 206.244M376.676 204.67C376.549 205.374 376.193 206.517 375.785 207.284M384.296 206.244C386.544 206.484 391.11 207.028 391.394 207.284C391.477 207.358 391.531 207.661 391.547 208.077M384.296 206.244C385.139 207.239 384.386 208.637 383.629 209.542M375.785 207.284C376.098 207.233 377.257 207.438 379.387 208.669C381.516 209.899 382.758 210.128 383.113 210.088C383.271 209.942 383.45 209.755 383.629 209.542M383.629 209.542C385.369 210.099 389.123 211.307 390.211 211.685C390.588 211.816 390.874 211.562 391.083 211.118M391.547 208.077C393.034 207.703 396.091 207.178 396.422 208.077C396.485 208.248 396.559 208.449 396.636 208.669M391.547 208.077C391.583 208.954 391.454 210.332 391.083 211.118M391.083 211.118C390.969 211.4 396.422 211.685 397.073 211.685C397.268 211.685 397.325 211.462 397.297 211.118M396.636 208.669C398.793 208.434 403.142 208.281 403.284 209.542M396.636 208.669C396.916 209.463 397.247 210.49 397.297 211.118M403.284 209.542C404.25 209.542 406.253 209.542 406.537 209.542C406.612 209.542 406.685 209.642 406.747 209.803M403.284 209.542C403.368 210.289 403.385 211.089 403.305 211.685M397.297 211.118C398.839 211.485 402.065 212.289 402.633 212.573C403.006 212.759 403.216 212.347 403.305 211.685M403.305 211.685C404.165 211.981 406.016 212.49 406.537 212.159C406.676 212.07 406.772 211.899 406.833 211.685M406.747 209.803C407.781 209.228 409.908 208.278 410.145 209.083C410.382 209.887 410.48 211.153 410.5 211.685H406.833M406.747 209.803C406.913 210.236 406.997 211.114 406.833 211.685" stroke="black"/>
<path d="M2.86937 159.034C0.202704 157.367 -2.13063 152.734 9.86937 147.534C11.7027 147.367 16.8694 145.534 22.8694 139.534C28.8694 133.534 39.0361 132.7 43.3694 133.034C47.0344 135.63 52.9663 142.284 49.9339 149.534C53.9984 153.534 52.3694 163.034 51.3694 163.534C50.3694 164.034 35.3694 164.534 33.8694 163.534C32.6694 162.734 29.0361 163.2 27.3694 163.534C26.0361 163.867 21.1694 164.534 12.3694 164.534C3.56938 164.534 2.36938 160.867 2.86937 159.034Z" fill="#F0EBA9"/>
<path d="M2.86937 159.034C0.202704 157.367 -2.13063 152.734 9.86937 147.534C11.7027 147.367 16.8694 145.534 22.8694 139.534C28.8694 133.534 39.0361 132.7 43.3694 133.034C47.0344 135.63 52.9663 142.284 49.9339 149.534M2.86937 159.034C5.26936 159.834 9.20271 158.7 10.8694 158.034M2.86937 159.034C2.36938 160.867 3.56938 164.534 12.3694 164.534C21.1694 164.534 26.0361 163.867 27.3694 163.534C29.0361 163.2 32.6694 162.734 33.8694 163.534C35.3694 164.534 50.3694 164.034 51.3694 163.534C52.3694 163.034 53.9984 153.534 49.9339 149.534M10.8694 158.034C13.1746 156.716 19.2532 155.987 23.4685 155.677M10.8694 158.034C13.7688 160.462 20.3478 163.391 23.4685 155.677M49.9339 149.534C49.6568 150.196 49.3048 150.864 48.8694 151.534C47.3694 152.2 43.9694 153.434 42.3694 153.034C40.3694 152.534 32.8694 155.034 32.8694 156.534C30.7027 157.034 26.2694 157.534 25.8694 155.534C25.1921 155.563 24.3732 155.61 23.4685 155.677M5.86938 155.534C6.53605 153.7 8.46938 150.334 10.8694 151.534C13.2694 152.734 10.5361 154.7 8.86938 155.534H5.86938ZM29.8694 151.534C27.7027 150.7 24.6694 147.834 29.8694 143.034C35.0694 138.234 38.7027 141.034 39.8694 143.034L40.3694 149.034C38.2027 149.367 33.8694 150.334 33.8694 151.534H29.8694Z" stroke="black"/>
<path d="M207.619 154.222C207.467 153.617 205.98 133.736 205.255 123.871L209.131 125.573C209.321 132.412 209.755 146.45 209.982 147.887C210.266 149.684 207.808 154.979 207.619 154.222Z" fill="#F0EBA9"/>
<path d="M221.091 141.477C221.124 139.761 220.594 133.92 220.289 130.868C220.982 130.868 222.445 131 222.747 131.53C223.064 132.085 221.451 139.496 221.091 141.477C221.087 141.71 221.072 141.867 221.045 141.93C220.999 142.037 221.022 141.857 221.091 141.477Z" fill="#F0EBA9"/>
<path d="M205.255 123.871C205.98 133.736 207.467 153.617 207.619 154.222C207.808 154.979 210.266 149.684 209.982 147.887C209.755 146.45 209.321 132.412 209.131 125.573L205.255 123.871ZM220.289 130.868C220.635 134.335 221.272 141.401 221.045 141.93C220.761 142.592 223.125 132.191 222.747 131.53C222.445 131 220.982 130.868 220.289 130.868Z" stroke="black"/>
<path d="M281.851 231.527C283.156 230.952 284.477 229.998 284.654 229.082C286.273 230.539 288.774 233.664 285.816 234.501C287.381 237.876 289.34 245.072 284.654 246.863C284.353 248.253 283.026 251.094 280.128 251.338C278.394 251.484 277.985 250.788 278.099 249.973C276.944 250.123 274.328 250.382 273.108 250.219C272.295 250.111 273.018 248.473 273.967 246.863L271.226 247.168C270.209 247.473 269.446 246.303 269.09 245.337C268.805 244.564 271.94 243.128 273.542 242.507C273.609 242.472 273.7 242.448 273.82 242.438C275.203 242.316 275.836 239.82 275.98 238.588C275.075 238.331 274.393 237.282 273.965 236.296L272.84 235.077C275.834 235.01 277.611 234.114 278.594 232.881C278.839 232.574 279.034 232.246 279.187 231.904H280.265C280.554 232.321 280.663 232.05 281.851 231.527Z" fill="#F0EBA9"/>
<path d="M215.763 213.288C214.945 209.76 214.852 203.966 221.02 209.013C221.768 209.036 223.277 209.181 223.333 209.573C223.346 209.665 223.355 210.368 223.359 211.467C224.496 209.925 227.301 207.766 229.432 211.467V225.976C230.687 229.39 232.703 236.359 231.332 238.415C232.138 240.878 233.283 242.939 230.675 244.456C230.99 246.726 231.562 251.321 231.332 251.55C231.168 251.712 230.761 252.84 230.073 253.707C230.045 257.261 226.786 258.913 225.16 259.295L225.495 253.088C225.341 252.888 225.229 252.705 225.16 252.562C225.038 253.551 224.916 254.223 224.806 254.272C223.567 257.915 219.728 258.888 217.964 258.919V252.861C215.566 254.646 210.621 257.849 210.02 256.384C209.419 254.92 212.411 252.225 213.982 251.061C213.835 250.915 213.771 250.791 213.822 250.705C214.085 250.254 216.153 245.948 217.154 243.852C216.507 243.664 217.424 240.018 217.964 238.219C217.745 237.948 217.601 237.57 217.586 237.051C217.53 235.144 218.637 229.808 219.198 227.378C219.151 225.649 218.959 222.078 218.567 221.63C218.174 221.181 216.534 215.882 215.763 213.288Z" fill="#F0EBA9"/>
<path d="M107.758 166.43C110.473 166.43 116.164 166.312 117.202 165.84C118.501 165.249 123.223 166.784 122.161 172.215C121.098 177.645 125.466 192.52 129.835 194.763C134.203 197.006 137.508 201.492 129.835 203.854L125.23 208.222C123.656 208.93 120.178 209.284 118.855 205.034C117.203 199.722 115.314 190.631 112.953 186.854C112.564 186.232 111.953 185.404 111.203 184.449C109.396 188.01 105.783 195.239 105.783 195.665C105.783 196.198 109.202 209.046 97.7508 206.45C97.4845 205.584 95.9665 203.854 92.0254 203.854C87.0989 203.854 83.2378 197.323 91.3598 194.763C97.8574 192.715 101.793 180.426 102.948 174.538C101.284 172.519 100.123 170.999 100.203 170.68C100.439 169.735 102.563 165.249 107.758 166.43Z" fill="#F0EBA9"/>
<path d="M119.276 212.959C119.474 211.997 120.737 210.59 124.202 212.662C124.279 212.733 124.593 212.773 125.23 212.365C125.745 212.036 126.97 211.796 127.615 212.203C128.948 210.563 132.086 208.22 133.973 211.962C135.86 215.705 130.948 224.37 128.255 228.235C128.23 232.081 127.821 239.917 126.392 240.5C126.392 242.824 124.612 245.788 123.202 246.195V250.967C122.912 251.397 122.55 251.905 122.137 252.448C120.314 254.843 117.518 257.903 115.701 257.808C115.376 257.58 114.861 256.645 115.408 254.73C115.139 254.676 114.759 254.626 114.368 254.619C113.696 254.608 112.992 254.724 112.77 255.169C112.33 256.049 108.295 258.98 108.91 255.609C109.088 254.635 109.217 254.057 109.31 253.739C109.186 253.732 109.051 253.727 108.91 253.723C107.995 253.701 106.84 253.767 106.809 254.143C106.76 254.73 102.9 256.586 102.314 255.169C101.728 253.752 104.757 250.283 105.783 249.892C105.946 249.83 106.167 249.669 106.426 249.44C107.473 248.513 109.131 246.471 109.978 245.366C109.452 244.447 109.442 242.176 109.525 240.934C109.043 240.616 108.797 240.021 109.049 238.994C109.935 235.383 113.429 230.804 113.799 230.349C119.777 223.005 118.754 217.761 119.276 212.959Z" fill="#F0EBA9"/>
<path d="M70.7016 212.662C76.1801 213.326 83.0873 208.797 85.8561 206.45C86.822 203.731 92.9254 204.452 92.6723 207.903C97.0582 208.241 103.991 210.348 96.6356 216.081C91.6474 217.032 80.5298 220.57 75.9643 227.114C75.4183 228.502 74.1282 231.226 73.3362 231.015C73.1373 230.962 72.8835 230.807 72.6033 230.589C72.0866 231.985 70.8723 234.751 70.1486 234.645C70.0817 234.635 70.0037 234.612 69.9164 234.578C68.5042 236.416 65.4687 239.979 64.6237 239.529C63.7788 239.08 64.2717 235.857 64.6237 234.302L62.5777 236.097C61.9974 236.273 60.7492 236.744 60.3996 237.219C60.0501 237.695 58.0098 237.417 57.0334 237.219V233.655C53.9312 233.919 50.3672 233.127 50.3672 232.071C50.3672 231.057 54.5473 229.079 57.0334 228.079C56.7166 227.419 59.8055 224.965 61.3896 223.821C60.3863 220.811 62.5295 220.112 63.7265 220.139C63.7688 217.37 65.2231 211.998 70.7016 212.662Z" fill="#F0EBA9"/>
<path d="M273.542 235.075C273.629 235.416 273.771 235.85 273.965 236.296M281.851 231.527C283.156 230.952 284.477 229.998 284.654 229.082C286.273 230.539 288.774 233.664 285.816 234.501M281.851 231.527C280.663 232.05 280.554 232.321 280.265 231.904H279.187C279.034 232.246 278.839 232.574 278.594 232.881M281.851 231.527C282.452 232.351 283.064 233.581 282.937 234.587M279.671 236.296C279.454 237.919 277.859 238.554 276.505 238.644C276.323 238.656 276.148 238.636 275.98 238.588M279.671 236.296C279.778 235.496 279.551 234.456 278.795 233.122L278.594 232.881M279.671 236.296C279.83 236.3 279.983 236.3 280.128 236.296M285.816 234.501L283.527 234.569M285.816 234.501C287.381 237.876 289.34 245.072 284.654 246.863M282.937 234.587C282.82 235.511 282.078 236.244 280.128 236.296M282.937 234.587L283.527 234.569M275.98 238.588C275.836 239.82 275.203 242.316 273.82 242.438C273.7 242.448 273.609 242.472 273.542 242.507M275.98 238.588C275.075 238.331 274.393 237.282 273.965 236.296M280.128 236.296C283.093 239.553 279.568 243.432 277.8 244.817M283.527 234.569C283.981 237.527 284.224 243.241 282.208 245.502M277.8 244.817C277.408 245.125 277.102 245.309 276.973 245.337C276.73 245.389 276.082 245.085 275.404 244.655M277.8 244.817C277.619 245.696 278.966 246.092 280.128 246.236M284.654 246.863C283.732 246.547 281.952 245.833 282.208 245.502M284.654 246.863C284.353 248.253 283.026 251.094 280.128 251.338C278.394 251.484 277.985 250.788 278.099 249.973M282.208 245.502C281.881 245.869 281.495 246.144 281.042 246.303C280.779 246.298 280.461 246.277 280.128 246.236M280.128 246.236L278.795 248.388C278.488 248.824 278.175 249.425 278.099 249.973M275.404 244.655C274.236 243.915 272.979 242.804 273.542 242.507M275.404 244.655C274.978 245.252 274.444 246.054 273.967 246.863M278.099 249.973C276.944 250.123 274.328 250.382 273.108 250.219C272.295 250.111 273.018 248.473 273.967 246.863M273.542 242.507C271.94 243.128 268.805 244.564 269.09 245.337C269.446 246.303 270.209 247.473 271.226 247.168L273.967 246.863M223.359 211.467C223.355 210.368 223.346 209.665 223.333 209.573C223.277 209.181 221.768 209.036 221.02 209.013C214.852 203.966 214.945 209.76 215.763 213.288C216.534 215.882 218.174 221.181 218.567 221.63C218.959 222.078 219.151 225.649 219.198 227.378C218.637 229.808 217.53 235.144 217.586 237.051C217.601 237.57 217.745 237.948 217.964 238.219M223.359 211.467C223.375 215.077 223.351 222.953 223.333 227.378C223.916 230.665 225.129 236.926 225.783 238.415M223.359 211.467C224.496 209.925 227.301 207.766 229.432 211.467V225.976C230.687 229.39 232.703 236.359 231.332 238.415M225.783 238.415C225.864 238.598 225.936 238.708 225.997 238.733C226.581 238.967 223.759 240.368 221.544 239.532M225.783 238.415C226.144 238.692 226.709 239.021 227.375 239.241M227.375 239.241C228.477 239.607 229.855 239.677 231.044 238.733C231.153 238.646 231.249 238.54 231.332 238.415M227.375 239.241C227.042 240.811 226.818 243.27 227.549 244.456M231.332 238.415C232.138 240.878 233.283 242.939 230.675 244.456M221.544 239.532C221.101 239.364 220.682 239.107 220.319 238.733C219.673 238.903 218.549 238.944 217.964 238.219M221.544 239.532C221.255 240.754 220.888 242.816 220.993 244.079M227.549 244.456C227.942 245.094 228.611 245.365 229.687 244.931C230.064 244.78 230.392 244.621 230.675 244.456M227.549 244.456C225.977 244.756 222.576 245.316 221.544 245.166C221.479 245.156 221.42 245.133 221.367 245.096M217.964 238.219C217.424 240.018 216.507 243.664 217.154 243.852M217.154 243.852C217.964 244.086 221.007 244.307 220.993 244.079M217.154 243.852C216.153 245.948 214.085 250.254 213.822 250.705C213.771 250.791 213.835 250.915 213.982 251.061M220.993 244.079C221.035 244.573 221.148 244.944 221.367 245.096M221.367 245.096C220.934 246.906 220.065 250.197 219.381 251.836M219.381 251.836C219.181 252.314 218.997 252.651 218.844 252.77C218.675 252.902 218.359 252.92 217.964 252.861M219.381 251.836C219.469 252.773 219.78 254.657 220.319 254.695C220.993 254.742 224.383 254.46 224.806 254.272M224.806 254.272C224.916 254.223 225.038 253.551 225.16 252.562M224.806 254.272C223.567 257.915 219.728 258.888 217.964 258.919V252.861M225.783 245.096C225.659 247.116 225.411 250.516 225.16 252.562M230.675 244.456C230.99 246.726 231.562 251.321 231.332 251.55C231.168 251.712 230.761 252.84 230.073 253.707M225.16 252.562C225.229 252.705 225.341 252.888 225.495 253.088M213.982 251.061C212.411 252.225 209.419 254.92 210.02 256.384C210.621 257.849 215.566 254.646 217.964 252.861M213.982 251.061C214.599 251.674 216.69 252.671 217.964 252.861M225.495 253.088C225.579 253.197 225.675 253.31 225.783 253.425C226.273 253.945 227.014 254.487 227.998 254.695C228.862 254.877 229.549 254.368 230.073 253.707M225.495 253.088L225.16 259.295C226.786 258.913 230.045 257.261 230.073 253.707M127.615 212.203C126.97 211.796 125.745 212.036 125.23 212.365C124.593 212.773 124.279 212.733 124.202 212.662C120.737 210.59 119.474 211.997 119.276 212.959C118.754 217.761 119.777 223.005 113.799 230.349C113.429 230.804 109.935 235.383 109.049 238.994C108.797 240.021 109.043 240.616 109.525 240.934M127.615 212.203C127.97 212.426 128.149 212.846 127.938 213.554C127.344 215.55 124.511 223.15 120.646 227.787C119.879 230.334 118.662 235.886 119.618 238.61M127.615 212.203C128.948 210.563 132.086 208.22 133.973 211.962C135.86 215.705 130.948 224.37 128.255 228.235C128.23 232.081 127.821 239.917 126.392 240.5M126.392 240.5C124.929 241.096 121.984 241.702 120.421 240.056M126.392 240.5C126.392 242.824 124.612 245.788 123.202 246.195M119.618 238.61C119.666 238.745 119.719 238.873 119.777 238.994C118.553 240.572 115.835 242.993 114.753 240.056C114.646 240.062 114.51 240.073 114.368 240.092M119.618 238.61C119.798 239.219 120.076 239.693 120.421 240.056M109.525 240.934C110.737 241.733 113.441 240.773 113.452 240.5C113.46 240.271 113.945 240.148 114.368 240.092M109.525 240.934C109.442 242.176 109.452 244.447 109.978 245.366M114.368 240.092C114.497 241.363 114.676 244.072 114.368 244.731C114.329 244.815 114.271 244.894 114.195 244.969M114.195 244.969C114.044 245.12 113.825 245.253 113.564 245.366M114.195 244.969C114.956 245.287 116.368 245.688 117.681 245.611M120.421 240.056C120.729 241.026 121.027 243.027 120.193 244.334M120.193 244.334C120.041 244.572 119.852 244.788 119.618 244.969C119.083 245.386 118.397 245.569 117.681 245.611M120.193 244.334C120.61 244.97 121.733 246.243 122.888 246.243C122.99 246.243 123.095 246.226 123.202 246.195M123.202 246.195V250.967C122.912 251.397 122.55 251.905 122.137 252.448M109.525 253.752C109.525 253.247 109.402 252.912 108.91 255.609C108.295 258.98 112.33 256.049 112.77 255.169C112.992 254.724 113.696 254.608 114.368 254.619M109.525 253.752C109.348 253.739 109.137 253.729 108.91 253.723M109.525 253.752C110.15 253.143 111.536 251.936 112.085 251.984M109.978 245.366C110.105 245.587 110.261 245.73 110.452 245.762C111.311 245.905 112.679 245.75 113.564 245.366M109.978 245.366C109.131 246.471 107.473 248.513 106.426 249.44M106.426 249.44C106.167 249.669 105.946 249.83 105.783 249.892C104.757 250.283 101.728 253.752 102.314 255.169C102.9 256.586 106.76 254.73 106.809 254.143C106.84 253.767 107.995 253.701 108.91 253.723M106.426 249.44C107.32 250.156 108.661 251.429 109.117 252.448M108.91 253.723C109.351 253.446 109.356 252.982 109.117 252.448M113.564 245.366C113.436 246.379 112.918 248.217 111.775 249.892M109.117 252.448C110.243 251.778 111.114 250.863 111.775 249.892M112.085 251.984C112.77 252.044 114.541 254.069 114.368 254.619M112.085 251.984L111.775 249.892M114.368 254.619C114.759 254.626 115.139 254.676 115.408 254.73C114.861 256.645 115.376 257.58 115.701 257.808C117.518 257.903 120.314 254.843 122.137 252.448M115.408 254.143C115.652 253.499 116.517 252.549 118.296 252.232M122.137 252.448C120.544 252.076 119.28 252.057 118.296 252.232M117.681 245.611L118.296 252.232M111.203 184.449C111.953 185.404 112.564 186.232 112.953 186.854C115.314 190.631 117.203 199.722 118.855 205.034C120.178 209.284 123.656 208.93 125.23 208.222L129.835 203.854C137.508 201.492 134.203 197.006 129.835 194.763C125.466 192.52 121.098 177.645 122.161 172.215C123.223 166.784 118.501 165.249 117.202 165.84C116.164 166.312 110.473 166.43 107.758 166.43C102.563 165.249 100.439 169.735 100.203 170.68C100.123 170.999 101.284 172.519 102.948 174.538M111.203 184.449C109.396 188.01 105.783 195.239 105.783 195.665C105.783 196.198 109.202 209.046 97.7508 206.45C97.4845 205.584 95.9665 203.854 92.0254 203.854C87.0989 203.854 83.2378 197.323 91.3598 194.763C97.8574 192.715 101.793 180.426 102.948 174.538M111.203 184.449C108.933 181.558 105.397 177.508 102.948 174.538M71.7794 224.577C78.171 219.251 84.5881 212.959 89.0266 212.959C91.5692 210.908 92.5765 209.21 92.6723 207.903M71.7794 224.577C72.1345 225.693 74.7173 226.733 75.9643 227.114M71.7794 224.577C71.179 223.805 69.409 222.782 67.5774 221.874M71.7794 224.577C71.4612 225.586 70.8551 227.104 70.1486 228.079M63.7265 220.139C63.7688 217.37 65.2231 211.998 70.7016 212.662C76.1801 213.326 83.0873 208.797 85.8561 206.45C86.822 203.731 92.9254 204.452 92.6723 207.903M63.7265 220.139C62.5295 220.112 60.3863 220.811 61.3896 223.821M63.7265 220.139C64.7042 220.535 66.1592 221.17 67.5774 221.874M92.6723 207.903C97.0582 208.241 103.991 210.348 96.6356 216.081C91.6474 217.032 80.5298 220.57 75.9643 227.114M75.9643 227.114C75.4183 228.502 74.1282 231.226 73.3362 231.015C73.1373 230.962 72.8835 230.807 72.6033 230.589M61.3896 223.821L64.0906 225.364M61.3896 223.821C59.8055 224.965 56.7166 227.419 57.0334 228.079M64.6237 225.669L67.5774 221.874M64.6237 225.669C65.2918 226.357 66.8538 227.846 68.1274 228.697M64.6237 225.669L64.0906 225.364M70.1486 228.079C69.6135 228.817 69.0208 229.244 68.4519 228.903C68.3464 228.84 68.238 228.771 68.1274 228.697M70.1486 228.079C70.6972 228.746 71.7676 229.942 72.6033 230.589M72.6033 230.589C72.0866 231.985 70.8723 234.751 70.1486 234.645C70.0817 234.635 70.0037 234.612 69.9164 234.578M66.4718 232.071L68.1274 228.697M66.4718 232.071C66.2958 232.665 65.7458 233.932 64.9538 234.249C64.8494 234.291 64.7391 234.307 64.6237 234.302M66.4718 232.071C67.3105 232.81 69.0593 234.241 69.9164 234.578M64.0906 225.364C62.7638 227.18 60.4666 230.741 60.8366 231.813M57.0334 228.079C57.4294 228.903 59.0136 232.071 59.4096 232.071M57.0334 228.079C54.5473 229.079 50.3672 231.057 50.3672 232.071C50.3672 233.127 53.9312 233.919 57.0334 233.655M59.4096 232.071C59.7264 232.071 60.493 231.899 60.8366 231.813M59.4096 232.071L57.0334 233.655M60.8366 231.813C60.8772 231.931 60.9499 232.019 61.0596 232.071C62.2995 232.661 63.645 234.255 64.6237 234.302M57.0334 233.655V237.219C58.0098 237.417 60.0501 237.695 60.3996 237.219C60.7492 236.744 61.9974 236.273 62.5777 236.097L64.6237 234.302M64.6237 234.302C64.2717 235.857 63.7788 239.08 64.6237 239.529C65.4687 239.979 68.5042 236.416 69.9164 234.578M273.965 236.296L272.84 235.077C275.834 235.01 277.611 234.114 278.594 232.881" stroke="black"/>
<path d="M273.745 199.115C275.294 201.405 275.159 205.311 274.755 210.294C278.265 215.099 284.987 225.125 283.797 226.791C282.607 228.457 279.677 228.979 278.361 229.031C278.221 232.757 275.746 233.932 272.193 233.932C268.503 233.932 268.214 227.512 268.53 224.303C268.712 217.498 263.767 211.109 261.272 208.765C260.969 207.722 260.413 205.48 260.619 204.859C261.311 202.502 263.385 198.318 266.143 200.439C266.518 200.728 266.844 201.035 267.127 201.357C267.49 201.004 267.898 200.624 268.332 200.254C270.187 198.673 272.509 197.288 273.745 199.115Z" fill="#F0EBA9"/>
<path d="M268.332 200.254C267.878 200.641 267.453 201.039 267.078 201.405C267.2 201.287 267.965 200.589 268.332 200.254ZM268.332 200.254C270.187 198.673 272.509 197.288 273.745 199.115C275.294 201.405 275.159 205.311 274.755 210.294C278.265 215.099 284.987 225.125 283.797 226.791C282.607 228.457 279.677 228.979 278.361 229.031M278.361 229.031C278.221 232.757 275.746 233.932 272.193 233.932C268.503 233.932 268.214 227.512 268.53 224.303C268.712 217.498 263.767 211.109 261.272 208.765C260.969 207.722 260.413 205.48 260.619 204.859C261.311 202.502 263.385 198.318 266.143 200.439C269.591 203.091 268.884 207.334 269.547 210.473C270.21 213.611 276.47 224.756 277.831 224.983C278.237 226.583 278.403 227.92 278.361 229.031Z" stroke="black"/>
<path d="M58.2643 119.295C56.5221 121.23 57.1083 133.813 57.6191 139.862C58.2643 139.088 67.0828 137.926 71.4114 137.442C75.2184 135.507 71.5996 130.936 69.3143 128.893C68.54 128.893 65.1739 124.107 63.5877 121.714C62.5391 120.101 60.0065 117.359 58.2643 119.295Z" fill="#F0EBA9"/>
<path d="M73.5426 112.113C73.1367 112.164 73.1198 125.154 73.1621 131.643C81.5267 138.023 91.297 126.253 91.297 125.683C91.297 125.112 86.795 121.308 81.0882 116.045C75.3814 110.782 74.0498 112.05 73.5426 112.113Z" fill="#F0EBA9"/>
<path d="M80.2742 107.345C83.8941 119.675 94.6973 120.449 99.6463 119.295C133.3 108.62 114.352 88.2555 111.948 87.5484C109.545 86.8414 98.3737 73.691 92.7176 68.0349C87.0615 62.3788 84.6577 66.7623 83.2437 68.0349C82.1125 69.053 80.7927 94.6657 80.2742 107.345Z" fill="#F0EBA9"/>
<path d="M134.82 25.687C108.248 57.2505 111.025 80.0794 115.735 87.5484C119.521 87.5484 126.562 97.2553 129.498 100.925C131.847 103.862 141.977 99.7021 146.748 97.2553C171.558 95.2 165.894 68.3833 159.96 55.2319C157.391 51.6229 151.152 41.7623 146.748 31.1923C141.243 17.9796 136.471 25.687 134.82 25.687Z" fill="#F0EBA9"/>
<path d="M183.041 23.8101C155.757 43.2986 167.451 73.5058 177.195 81.691C230.035 86.3844 221.384 60.6826 222.019 52.4582C222.139 50.896 219.16 25.7589 218.705 12.5067C218.835 7.63456 217.965 -1.48607 213.444 1.00846C208.922 3.503 191.292 17.2489 183.041 23.8101Z" fill="#F0EBA9"/>
<path d="M291.97 14.124C261.924 25.1962 221.38 45.0165 225 79.2094C238.273 90.3664 268.734 107.701 284.392 87.7818C299.837 61.0191 298.772 23.072 291.97 14.124Z" fill="#F0EBA9"/>
<path d="M282.817 93.9201C273.445 99.9077 277.068 111.601 280.051 116.699C280.051 118.001 300.877 135.682 311.291 144.36C326.781 150.608 336.944 139.587 340.09 133.296C344.646 120.713 355.092 92.9764 360.429 82.6932C365.766 72.41 361.568 68.646 358.802 68.0494C342.694 64.1444 294.532 86.4355 282.817 93.9201Z" fill="#F0EBA9"/>
<path d="M335.255 145.91C323.036 147.15 320.83 153.601 321.254 156.671C319.981 163.383 331.553 176.227 340.09 174.375C346.92 172.894 347.581 163.19 347.058 158.523C348.485 158.33 352.011 156.162 354.695 149.034C357.38 141.906 352.034 140.896 349.025 141.282L335.255 145.91Z" fill="#F0EBA9"/>
<path d="M58.2643 119.295C56.5221 121.23 57.1083 133.813 57.6191 139.862C58.2643 139.088 67.0828 137.926 71.4114 137.442C75.2184 135.507 71.5996 130.936 69.3143 128.893C68.54 128.893 65.1739 124.107 63.5877 121.714C62.5391 120.101 60.0065 117.359 58.2643 119.295Z" stroke="black" stroke-opacity="0.5" stroke-width="0.5"/>
<path d="M73.5426 112.113C73.1367 112.164 73.1198 125.154 73.1621 131.643C81.5267 138.023 91.297 126.253 91.297 125.683C91.297 125.112 86.795 121.308 81.0882 116.045C75.3814 110.782 74.0498 112.05 73.5426 112.113Z" stroke="black" stroke-opacity="0.5" stroke-width="0.5"/>
<path d="M80.2742 107.345C83.8941 119.675 94.6973 120.449 99.6463 119.295C133.3 108.62 114.352 88.2555 111.948 87.5484C109.545 86.8414 98.3737 73.691 92.7176 68.0349C87.0615 62.3788 84.6577 66.7623 83.2437 68.0349C82.1125 69.053 80.7927 94.6657 80.2742 107.345Z" stroke="black" stroke-opacity="0.5" stroke-width="0.5"/>
<path d="M134.82 25.687C108.248 57.2505 111.025 80.0794 115.735 87.5484C119.521 87.5484 126.562 97.2553 129.498 100.925C131.847 103.862 141.977 99.7021 146.748 97.2553C171.558 95.2 165.894 68.3833 159.96 55.2319C157.391 51.6229 151.152 41.7623 146.748 31.1923C141.243 17.9796 136.471 25.687 134.82 25.687Z" stroke="black" stroke-opacity="0.5" stroke-width="0.5"/>
<path d="M183.041 23.8101C155.757 43.2986 167.451 73.5058 177.195 81.691C230.035 86.3844 221.384 60.6826 222.019 52.4582C222.139 50.896 219.16 25.7589 218.705 12.5067C218.835 7.63456 217.965 -1.48607 213.444 1.00846C208.922 3.503 191.292 17.2489 183.041 23.8101Z" stroke="black" stroke-opacity="0.5" stroke-width="0.5"/>
<path d="M291.97 14.124C261.924 25.1962 221.38 45.0165 225 79.2094C238.273 90.3664 268.734 107.701 284.392 87.7818C299.837 61.0191 298.772 23.072 291.97 14.124Z" stroke="black" stroke-opacity="0.5" stroke-width="0.5"/>
<path d="M282.817 93.9201C273.445 99.9077 277.068 111.601 280.051 116.699C280.051 118.001 300.877 135.682 311.291 144.36C326.781 150.608 336.944 139.587 340.09 133.296C344.646 120.713 355.092 92.9764 360.429 82.6932C365.766 72.41 361.568 68.646 358.802 68.0494C342.694 64.1444 294.532 86.4355 282.817 93.9201Z" stroke="black" stroke-opacity="0.5" stroke-width="0.5"/>
<path d="M335.255 145.91C323.036 147.15 320.83 153.601 321.254 156.671C319.981 163.383 331.553 176.227 340.09 174.375C346.92 172.894 347.581 163.19 347.058 158.523C348.485 158.33 352.011 156.162 354.695 149.034C357.38 141.906 352.034 140.896 349.025 141.282L335.255 145.91Z" stroke="black" stroke-opacity="0.5" stroke-width="0.5"/>
<path d="M367.781 160.42C351.396 161.438 351.157 170.487 353.085 174.884C355.078 176.851 361.185 179.628 362.574 179.397C363.962 179.165 364.772 172.454 365.698 169.677C373.937 161.901 370.519 160.266 367.781 160.42Z" fill="#F0EBA9" stroke="black" stroke-opacity="0.5" stroke-width="0.5"/>
<path d="M59.1025 124.102C59.1025 126.943 59.3421 132.624 60.3008 132.624M63.7626 124.901V130.493M74.2813 123.037C74.9026 124.235 76.3051 126.659 76.9442 126.765M76.9442 114.649C77.3436 116.158 78.1425 119.335 78.1425 119.975M84.001 119.975C84.3117 121.528 84.9331 124.848 84.9331 125.7M82.0038 100.269C83.5128 102.399 86.3711 107.006 85.7319 108.391M83.2021 80.4297C84.7999 86.155 88.3683 97.9785 89.8595 99.4698M91.4573 69.1121C92.0786 73.9498 94.2268 84.1844 97.8484 86.4213C101.47 88.6582 101.665 96.0523 101.31 99.4698M105.038 82.6932C106.503 87.8859 109.246 98.8839 108.5 101.334M117.402 58.3736C117.578 59.2551 116.344 67.1884 118.812 71.0669M125.159 44.9752C124.923 47.3258 124.771 52.5206 126.04 54.4951C127.309 56.4696 125.981 62.9573 125.159 65.9544M137.675 26.4642C136.559 33.2222 134.996 47.9017 137.675 52.5559C140.355 57.2101 140.202 62.8398 139.791 65.0729M147.195 34.0449C147.548 40.274 148.571 53.0848 149.84 54.4951C151.427 56.2581 154.424 69.6566 152.132 71.0669M160.594 58.3736C160.946 61.3015 161.44 67.5483 160.594 69.1121C159.748 70.676 160.241 73.0649 160.594 74.0639M178.223 30.3427C178.223 32.1056 172.758 49.7352 171.172 52.5559M190.917 20.6464C187.626 24.6425 181.749 35.6315 184.57 47.6196M204.315 10.0687C201.377 17.1793 195.606 32.3172 196.029 35.9841C196.558 40.5678 194.09 53.6137 192.503 54.4951M215.245 2.66431C212.777 7.77688 207.982 18.5309 208.546 20.6464M218.595 14.1235C215.539 21.5867 209.463 37.0067 209.604 38.9812C209.78 41.4493 203.61 54.4951 202.2 54.4951M220.887 44.9752C220.182 44.9752 212.954 56.2581 213.482 57.3159M181.223 78.055C183.75 75.9982 189.827 72.061 193.917 72.7661M246.273 41.0967C246.45 42.8597 240.279 59.0788 238.164 59.6077M255.513 35.9841C253.549 42.316 249.47 55.0298 248.868 55.2304M272.313 24.3882C271.812 25.642 263.036 53.9767 262.033 55.2304M285.352 18.8717C284.725 23.1345 274.069 54.2274 273.191 55.2304M296.636 35.9841C296.26 35.9841 281.967 67.2664 275.448 69.147M295.758 51.3438C295.257 52.5975 293.502 68.7709 280.964 74.5381M278.833 87.4517C280.964 86.5741 288.361 81.183 288.863 79.6785M249.498 79.3114C251.379 81.0666 255.015 92.9772 258.65 94.1056" stroke="black" stroke-width="0.5"/>
<path d="M300.209 85.1257C297.874 87.9956 293.278 93.9981 293.569 95.0487M320.639 76.0783C315.312 81.1614 304.572 91.8237 304.222 93.8083M335.377 70.3142C334.939 70.679 306.557 102.71 307.14 103.512M346.394 67.0309C345.884 67.7605 322.609 97.8213 323.119 100.667M356.733 71.3599C355.797 73.3142 344.701 96.8225 336.394 102.252C328.088 107.682 325.377 111.613 326.377 112.362M353.623 96.567C352.312 99.6669 338.84 119.408 332.377 119.221M337.394 129.519C338.592 128.32 340.56 126.024 342.394 125.025M295.588 120.221C297.493 120.096 301.887 120.184 304.222 121.532M328.964 153.679C330.275 151.433 333.196 147.014 334.394 147.314M349.934 143.382C349.746 144.318 338.138 154.616 335.517 156.862M346.394 155.665C337.271 160.852 336.641 164.913 336.828 166.224" stroke="black" stroke-width="0.5"/>
<path d="M381.678 171.224C382.064 171.886 381.325 184.606 378.757 192.056C385.738 185.623 399.396 172.449 398.17 171.224C399.151 171.972 400.469 174.056 399.082 177.007L400.804 186.458C404.613 181.982 408.134 177.637 408.714 176.27C409.976 173.296 411.147 172.485 410.967 176.27C410.869 178.315 409.352 184.859 406.257 191.168L407.375 191.853C408.791 189.102 410.362 188.493 410.362 189.133V197.446C416.33 200.305 419.562 180.495 420.303 189.133C421.043 197.77 412.474 204.828 408.714 205.569C405.706 206.161 406.831 203.378 407.769 201.912C407.034 202.523 406.124 202.946 405.019 202.946C404.878 200.869 404.968 196.819 406.074 194.037L405.019 193.519C402.485 198 399.11 202.045 394.835 203.847C391.952 202.86 387.536 199.802 392.943 195.466L392.314 190.046C389.961 194.137 386.746 198.012 381.678 199.702C379.791 198.955 376.179 197.193 376.83 196.111C375.577 197.805 374.146 197.978 372.576 195.466C370.621 192.339 370.776 188.705 371.997 185.152C369.648 184.079 365.299 181.366 366.7 179.102C368.1 176.837 369.979 174.014 370.743 172.886C371.547 175.42 373.039 180.707 372.576 181.576C372.112 182.445 372.582 182.873 372.875 182.978C375.099 178.167 378.939 173.738 381.678 171.224Z" fill="#F0EBA9"/>
<path d="M378.757 192.056C381.325 184.606 382.064 171.886 381.678 171.224C378.939 173.738 375.099 178.167 372.875 182.978M378.757 192.056C385.738 185.623 399.396 172.449 398.17 171.224C399.151 171.972 400.469 174.056 399.082 177.007M378.757 192.056C378.174 193.746 377.53 195.165 376.83 196.111M376.83 196.111C375.577 197.805 374.146 197.978 372.576 195.466C370.621 192.339 370.776 188.705 371.997 185.152M376.83 196.111C376.179 197.193 379.791 198.955 381.678 199.702C386.746 198.012 389.961 194.137 392.314 190.046M392.314 190.046C394.856 185.627 396.391 180.957 398.17 178.523C398.555 177.996 398.855 177.49 399.082 177.007M392.314 190.046L392.943 195.466M392.943 195.466C387.536 199.802 391.952 202.86 394.835 203.847C399.11 202.045 402.485 198 405.019 193.519M392.943 195.466C395.002 193.164 397.982 189.776 400.804 186.458M399.082 177.007L400.804 186.458M400.804 186.458C404.613 181.982 408.134 177.637 408.714 176.27C409.976 173.296 411.147 172.485 410.967 176.27C410.869 178.315 409.352 184.859 406.257 191.168M410.362 197.446C410.362 197.144 410.362 189.788 410.362 189.133C410.362 188.493 408.791 189.102 407.375 191.853M410.362 197.446C410.362 197.662 409.613 200.38 407.769 201.912M410.362 197.446C416.33 200.305 419.562 180.495 420.303 189.133C421.043 197.77 412.474 204.828 408.714 205.569C405.706 206.161 406.831 203.378 407.769 201.912M407.769 201.912C407.034 202.523 406.124 202.946 405.019 202.946C404.878 200.869 404.968 196.819 406.074 194.037M405.019 193.519L406.074 194.037M405.019 193.519C405.456 192.745 405.869 191.958 406.257 191.168M406.074 194.037C406.387 193.251 406.78 192.567 407.272 192.056C407.306 191.987 407.34 191.919 407.375 191.853M406.257 191.168L407.375 191.853M371.997 185.152C369.648 184.079 365.299 181.366 366.7 179.102C368.1 176.837 369.979 174.014 370.743 172.886C371.547 175.42 373.039 180.707 372.576 181.576C372.112 182.445 372.582 182.873 372.875 182.978M371.997 185.152C372.247 184.422 372.543 183.696 372.875 182.978" stroke="black" stroke-width="0.5"/>
</svg>
