<svg width="474" height="274" viewBox="0 0 474 274" fill="none" xmlns="http://www.w3.org/2000/svg">
<mask id="path-1-outside-1" maskUnits="userSpaceOnUse" x="0.582031" y="0.861816" width="474" height="273" fill="black">
<rect fill="white" x="0.582031" y="0.861816" width="474" height="273"/>
<path d="M7.58203 135.171C8.92619 132.717 13.5221 127.887 21.1523 128.194C24.4811 128.194 30.6262 126.659 35.6831 120.578C37.4967 118.978 44.0045 116.315 55.5266 118.466C59.9937 120.646 68.9153 125.075 68.8651 125.351C68.8024 125.696 74.7645 122.464 75.0156 122.464C75.2666 122.464 75.8314 129.744 75.3294 130.278L76.2708 130.811C77.5783 128.562 81.3355 124.724 83.0174 125.602C84.6994 126.481 84.5027 133.186 84.555 136.648C85.7788 133.698 88.5905 127.874 90.0465 128.175C91.5025 128.477 93.7493 136.23 94.6907 140.068C95.9668 135.539 98.7826 126.5 99.837 126.575C100.891 126.65 105.297 131.711 107.368 134.232C105.036 129.054 101.174 118.36 102.881 117.381C104.588 116.402 115.077 120.247 120.297 122.245C116.018 114.507 108.322 97.8218 111.585 91.5472C113.034 91.0841 116.748 90.0772 120.19 91.1887C118.711 80.2382 116.596 57.7813 119.966 55.5583C122.386 55.5582 127.504 57.2884 131.305 59.9058C136.005 63.1426 144.852 75.8011 146.221 77.2251C144.25 66.78 143.279 42.6152 155.32 30.766C167.898 34.2173 174.685 41.7708 178.826 45.4138C182.748 37.1043 195.73 18.2649 213.424 8.86182C219.515 11.8893 232.562 21.4044 238.888 35.7654C245.651 29.9201 261.954 17.3599 273.059 13.8818C274.37 14.7183 276.911 18.5212 276.584 27.0404C276.256 35.5596 278.905 54.0724 280.27 62.264C292.512 57.258 318.087 47.41 322.456 48.0653C327.917 48.8845 326.279 80.8314 326.006 82.0601C325.733 83.2889 345.938 78.2374 346.758 79.1931C347.413 79.9576 346.212 93.9833 345.529 100.901C351.035 99.9905 362.076 98.3066 362.185 98.8527C362.319 99.5242 357.698 123.712 357.157 124.5C357.848 124.179 370.568 120.025 376.904 117.929C376.396 123.9 373.405 136.71 370.886 140.181C375.364 138.479 385.287 135.423 389.15 136.822C389.686 138.968 390.284 144.534 388.38 149.628C390.479 148.858 394.902 147.431 395.798 147.879C396.693 148.327 395.891 151.004 395.378 152.287C393.605 157.606 390.298 168.368 391.249 168.872C392.439 169.502 399.646 175.94 410.703 176.36L429.317 146.479C429.434 147.296 429.597 148.998 429.317 149.278C429.037 149.558 426.634 155.086 425.468 157.816C428.454 154.317 434.425 147.151 434.425 146.479C434.425 145.64 434.845 148.928 434.425 149.278C434.089 149.558 424.955 167.916 420.43 177.059H431.276C435.125 170.948 443.214 157.69 444.782 153.547C444.557 156.002 444.088 160.853 443.955 161.285C444.203 160.855 447.35 156.037 448.981 153.547C446.018 160.895 439.855 175.884 438.904 177.059C437.952 178.235 456.375 176.569 465.705 175.59C466.708 176.57 467.902 179.411 464.655 182.937C462.398 187.406 442.9 194.267 382.961 185.966C350.803 177.899 285.411 166.786 277.292 171.041C272.127 175.691 261.899 185.282 262.309 186.445C262.823 187.899 275.393 204.574 272.143 214.921C272.771 218.513 274.452 226.448 275.479 227.064C276.761 227.834 290.358 236.727 280.951 253.659C278.343 256.263 270.194 260.826 258.459 258.24C257.166 260.204 254.194 264.014 252.652 263.544C251.109 263.075 250.751 258.989 250.765 257.005L248.292 256.46C245.847 256.669 240.889 256.703 240.62 255.16C242.004 254.084 244.846 251.957 245.148 252.058C245.45 252.159 245.637 251.457 245.693 251.094C244.827 250.158 243.144 248.201 243.345 247.866C243.597 247.447 249.13 244.051 250.346 244.387C251.562 244.722 255.48 237.763 256.97 237.595C257.333 235.499 257.556 231.031 255.544 229.924C253.532 228.817 240.308 212.844 233.948 204.996C232.112 207.737 228.532 213.559 228.899 214.921V239.114C230.044 241.764 231.613 246.948 230.566 247.269C229.257 247.67 214.006 250.083 211.126 249.625C210.21 251.719 207.67 255.895 204.843 255.843C204.057 254.927 202.617 252.4 203.141 249.625H200.261C197.665 249.93 192.223 250.214 191.228 248.905C192.457 247.695 195.237 245.161 196.529 244.702C197.82 244.243 197.067 243.746 196.529 243.554C195.728 242.717 194.204 240.958 194.52 240.613C194.915 240.183 196.636 237.959 201.765 237.529C201.765 237.349 206.572 234.731 206.93 234.731C207.289 234.731 209.818 232.854 209.386 225.208C208.955 217.562 201.817 196.711 204.393 196.067C190.988 196.114 163.908 195.938 162.82 194.85C163.583 202.745 164.881 218.993 163.965 220.824C163.049 222.656 161.198 238.951 160.387 246.87C162.844 249.517 166.283 255.542 160.387 258.462C158.264 260.084 152.502 263.27 146.434 263.041L141.497 265.474C139.374 266.452 135.615 266.819 137.562 260.465L135.844 259.821C134.103 260.036 130.564 260.465 130.335 260.465C130.048 260.465 125.686 260.811 129.242 255.611C127.967 254.302 125.947 251.35 128.068 250.008L128.906 249.471C128.437 248.789 127.672 247.15 128.37 246.049C126.961 245.871 124.129 245.164 124.075 243.768C124.022 242.373 125.753 240.682 126.625 240.011L127.296 238.602C126.882 237.606 126.222 235.576 126.893 235.415C127.732 235.213 130.014 234.71 130.45 234.978L131.792 233.905C132.194 223.379 132.947 202.259 132.737 201.979C132.475 201.629 121.72 186.939 120.933 187.027C120.146 187.114 75.006 170.826 58.5524 147.729C41.5623 148.93 7.58203 148.098 7.58203 135.171Z"/>
</mask>
<path d="M7.58203 135.171C8.92619 132.717 13.5221 127.887 21.1523 128.194C24.4811 128.194 30.6262 126.659 35.6831 120.578C37.4967 118.978 44.0045 116.315 55.5266 118.466C59.9937 120.646 68.9153 125.075 68.8651 125.351C68.8024 125.696 74.7645 122.464 75.0156 122.464C75.2666 122.464 75.8314 129.744 75.3294 130.278L76.2708 130.811C77.5783 128.562 81.3355 124.724 83.0174 125.602C84.6994 126.481 84.5027 133.186 84.555 136.648C85.7788 133.698 88.5905 127.874 90.0465 128.175C91.5025 128.477 93.7493 136.23 94.6907 140.068C95.9668 135.539 98.7826 126.5 99.837 126.575C100.891 126.65 105.297 131.711 107.368 134.232C105.036 129.054 101.174 118.36 102.881 117.381C104.588 116.402 115.077 120.247 120.297 122.245C116.018 114.507 108.322 97.8218 111.585 91.5472C113.034 91.0841 116.748 90.0772 120.19 91.1887C118.711 80.2382 116.596 57.7813 119.966 55.5583C122.386 55.5582 127.504 57.2884 131.305 59.9058C136.005 63.1426 144.852 75.8011 146.221 77.2251C144.25 66.78 143.279 42.6152 155.32 30.766C167.898 34.2173 174.685 41.7708 178.826 45.4138C182.748 37.1043 195.73 18.2649 213.424 8.86182C219.515 11.8893 232.562 21.4044 238.888 35.7654C245.651 29.9201 261.954 17.3599 273.059 13.8818C274.37 14.7183 276.911 18.5212 276.584 27.0404C276.256 35.5596 278.905 54.0724 280.27 62.264C292.512 57.258 318.087 47.41 322.456 48.0653C327.917 48.8845 326.279 80.8314 326.006 82.0601C325.733 83.2889 345.938 78.2374 346.758 79.1931C347.413 79.9576 346.212 93.9833 345.529 100.901C351.035 99.9905 362.076 98.3066 362.185 98.8527C362.319 99.5242 357.698 123.712 357.157 124.5C357.848 124.179 370.568 120.025 376.904 117.929C376.396 123.9 373.405 136.71 370.886 140.181C375.364 138.479 385.287 135.423 389.15 136.822C389.686 138.968 390.284 144.534 388.38 149.628C390.479 148.858 394.902 147.431 395.798 147.879C396.693 148.327 395.891 151.004 395.378 152.287C393.605 157.606 390.298 168.368 391.249 168.872C392.439 169.502 399.646 175.94 410.703 176.36L429.317 146.479C429.434 147.296 429.597 148.998 429.317 149.278C429.037 149.558 426.634 155.086 425.468 157.816C428.454 154.317 434.425 147.151 434.425 146.479C434.425 145.64 434.845 148.928 434.425 149.278C434.089 149.558 424.955 167.916 420.43 177.059H431.276C435.125 170.948 443.214 157.69 444.782 153.547C444.557 156.002 444.088 160.853 443.955 161.285C444.203 160.855 447.35 156.037 448.981 153.547C446.018 160.895 439.855 175.884 438.904 177.059C437.952 178.235 456.375 176.569 465.705 175.59C466.708 176.57 467.902 179.411 464.655 182.937C462.398 187.406 442.9 194.267 382.961 185.966C350.803 177.899 285.411 166.786 277.292 171.041C272.127 175.691 261.899 185.282 262.309 186.445C262.823 187.899 275.393 204.574 272.143 214.921C272.771 218.513 274.452 226.448 275.479 227.064C276.761 227.834 290.358 236.727 280.951 253.659C278.343 256.263 270.194 260.826 258.459 258.24C257.166 260.204 254.194 264.014 252.652 263.544C251.109 263.075 250.751 258.989 250.765 257.005L248.292 256.46C245.847 256.669 240.889 256.703 240.62 255.16C242.004 254.084 244.846 251.957 245.148 252.058C245.45 252.159 245.637 251.457 245.693 251.094C244.827 250.158 243.144 248.201 243.345 247.866C243.597 247.447 249.13 244.051 250.346 244.387C251.562 244.722 255.48 237.763 256.97 237.595C257.333 235.499 257.556 231.031 255.544 229.924C253.532 228.817 240.308 212.844 233.948 204.996C232.112 207.737 228.532 213.559 228.899 214.921V239.114C230.044 241.764 231.613 246.948 230.566 247.269C229.257 247.67 214.006 250.083 211.126 249.625C210.21 251.719 207.67 255.895 204.843 255.843C204.057 254.927 202.617 252.4 203.141 249.625H200.261C197.665 249.93 192.223 250.214 191.228 248.905C192.457 247.695 195.237 245.161 196.529 244.702C197.82 244.243 197.067 243.746 196.529 243.554C195.728 242.717 194.204 240.958 194.52 240.613C194.915 240.183 196.636 237.959 201.765 237.529C201.765 237.349 206.572 234.731 206.93 234.731C207.289 234.731 209.818 232.854 209.386 225.208C208.955 217.562 201.817 196.711 204.393 196.067C190.988 196.114 163.908 195.938 162.82 194.85C163.583 202.745 164.881 218.993 163.965 220.824C163.049 222.656 161.198 238.951 160.387 246.87C162.844 249.517 166.283 255.542 160.387 258.462C158.264 260.084 152.502 263.27 146.434 263.041L141.497 265.474C139.374 266.452 135.615 266.819 137.562 260.465L135.844 259.821C134.103 260.036 130.564 260.465 130.335 260.465C130.048 260.465 125.686 260.811 129.242 255.611C127.967 254.302 125.947 251.35 128.068 250.008L128.906 249.471C128.437 248.789 127.672 247.15 128.37 246.049C126.961 245.871 124.129 245.164 124.075 243.768C124.022 242.373 125.753 240.682 126.625 240.011L127.296 238.602C126.882 237.606 126.222 235.576 126.893 235.415C127.732 235.213 130.014 234.71 130.45 234.978L131.792 233.905C132.194 223.379 132.947 202.259 132.737 201.979C132.475 201.629 121.72 186.939 120.933 187.027C120.146 187.114 75.006 170.826 58.5524 147.729C41.5623 148.93 7.58203 148.098 7.58203 135.171Z" stroke="#FFFF93" stroke-width="14" mask="url(#path-1-outside-1)"/>
<path d="M384.627 153.513C384.627 151.65 389.429 152.892 390.029 152.892C389.229 153.099 387.509 153.513 387.028 153.513C386.548 153.513 385.628 157.652 385.228 159.721C385.028 159.928 384.627 160.218 384.627 159.721V153.513Z" fill="#E78B57"/>
<path d="M252.617 263.216C253.817 263.216 257.819 259.698 258.619 257.008L250.816 255.766C251.416 258.456 251.176 263.216 252.617 263.216Z" fill="#BCB856"/>
<path d="M241.177 255.351C244.148 256.668 250.176 256.668 252.581 255.351L249.465 253.829L247.179 250.384C245.765 252.726 239.853 254.764 241.177 255.351Z" fill="#BCB856"/>
<path d="M243.86 248.111C245.061 251.215 248.062 253.077 249.863 251.215L251.063 248.732L252.864 245.628C249.863 243.144 243.325 246.727 243.86 248.111Z" fill="#BCB856"/>
<path d="M204.846 255.561C206.047 255.561 210.048 252.043 210.848 249.352L203.045 248.111C203.646 250.801 203.406 255.561 204.846 255.561Z" fill="#BCB856"/>
<path d="M191.641 248.732C194.612 250.048 200.64 250.048 203.045 248.732L199.929 247.209L197.643 243.765C196.228 246.106 190.317 248.145 191.641 248.732Z" fill="#BCB856"/>
<path d="M194.957 241.048C196.158 244.152 197.643 244.386 199.444 242.523L200.645 240.04L203.96 238.565C200.959 236.082 194.422 239.665 194.957 241.048Z" fill="#BCB856"/>
<path d="M129.135 249.384C131.727 249.489 131.754 248.398 134.211 247.473L130.7 246.572L128.751 244.663C128.239 246.838 127.683 249.325 129.135 249.384Z" fill="#BCB856"/>
<path d="M124.683 244.166C126.693 246.012 127.331 245.189 129.814 246.149L127.52 243.064L127.042 240.264C125.405 241.592 123.558 243.131 124.683 244.166Z" fill="#BCB856"/>
<path d="M126.858 236.595C127.208 239.253 128.251 239.092 129.559 241.434L129.807 237.701L131.286 235.384C129.126 235.24 126.662 235.106 126.858 236.595Z" fill="#BCB856"/>
<path d="M138.632 265.7C142.365 265.776 142.435 264.191 146.002 262.776L140.966 261.573L138.21 258.86C137.411 262.031 136.541 265.657 138.632 265.7Z" fill="#BCB856"/>
<path d="M129.079 259.89C132.562 261.282 133.151 259.818 136.971 259.75L132.637 256.838L130.944 253.313C129.145 256.011 127.128 259.111 129.079 259.89Z" fill="#BCB856"/>
<path d="M127.505 251.51C128.081 255.325 129.602 255.121 131.568 258.508L131.84 253.17L133.945 249.891C130.786 249.629 127.182 249.372 127.505 251.51Z" fill="#BCB856"/>
<path d="M448.852 154.134C448.371 155.624 437.447 170.068 432.045 177.104H438.048C445.25 167.171 449.452 152.271 448.852 154.134Z" fill="#9C340C"/>
<path d="M444.65 154.293C444.17 155.783 436.847 170.227 431.445 177.263H437.447C443.449 167.171 445.25 152.43 444.65 154.293Z" fill="#9C340C" fill-opacity="0.8"/>
<path d="M83.9155 137.372C85.7162 134.475 88.5756 128.68 89.9178 128.68C91.1182 128.68 94.7196 140.476 94.1193 141.097" stroke="#982F08" stroke-width="0.3"/>
<path d="M107.925 134.888C105.924 129.922 101.899 119.392 103.123 118.126C104.323 116.885 115.528 120.816 121.13 123.093" stroke="#982F08" stroke-width="0.3"/>
<path d="M370.222 141.097C375.624 139.027 386.908 135.385 388.829 137.372C389.629 137.786 390.51 140.972 387.629 150.409" stroke="#9C340C" stroke-width="0.3"/>
<path d="M65.9087 127.439C68.5097 125.99 73.9517 123.093 74.912 123.093C75.8724 123.093 75.3122 130.129 74.912 133.647C76.7127 130.75 80.7942 125.204 82.715 126.197C84.6357 127.19 84.5156 134.268 83.9154 137.992C85.7161 134.474 88.9573 128.184 89.9176 128.68C90.9527 129.216 94.2191 138.982 94.3297 141.663C96.0038 136.327 99.2013 126.963 100.121 127.439C101.322 128.059 105.523 131.784 109.725 139.855C107.324 133.854 102.642 121.23 103.123 118.747C103.603 116.264 115.327 120.61 121.129 123.093C116.728 113.781 108.885 94.4111 112.726 91.4312C115.127 92.0519 115.127 90.8103 120.529 92.0519C118.128 77.5662 115.607 52.5679 122.33 56.0445C129.845 59.9309 133.039 58.3556 146.939 79.7367C144.338 66.045 145.138 39.9032 154.742 31.8326C158.943 29.9702 166.146 34.3159 179.351 46.7322C182.152 36.5922 198.678 14.9464 213.564 9.48315C220.766 14.0358 235.892 25.8727 238.773 36.7991C246.776 28.1077 263.816 18.4486 269.712 15.2203C279.915 9.63293 273.259 31.062 280.189 63.4943C285.591 60.3902 316.922 48.098 322.204 48.5947C327.486 49.0913 326.406 71.5649 325.205 82.7397L346.813 79.7367C346.213 84.6695 345.013 95.901 345.013 101.364L361.819 99.5017C362.419 101.985 357.858 116.14 356.417 125.576C360.018 123.714 374.784 117.257 376.224 118.747C377.916 120.497 371.131 139.233 369.309 141.494C371.806 140.338 387.225 135.159 388.829 137.372C390.25 139.331 389.055 147.859 386.719 151.981C390.727 149.243 397.726 145.662 394.831 151.65C390.63 160.342 392.43 163.032 390.63 169.654C381.626 163.446 359.898 147.801 345.013 134.888C326.406 118.747 305.398 103.227 302.997 100.123C300.596 97.0185 258.581 73.4274 222.567 69.7025C199.158 67.0123 145.378 76.0348 117.528 131.163C112.726 141.51 95.6798 154.258 65.9087 127.439Z" fill="#E57E44"/>
<path d="M381.627 147.305C381.627 148.795 375.224 149.995 372.023 150.409C375.024 148.132 381.146 143.58 381.627 143.58C382.227 143.58 381.627 145.442 381.627 147.305Z" fill="#DD6D2E"/>
<path d="M332.408 97.6393C331.808 98.8809 325.806 101.985 325.206 101.985L333.609 92.0519C333.409 93.5005 332.888 96.646 332.408 97.6393Z" fill="#B6502A"/>
<path d="M342.012 110.056C341.532 111.049 333.409 113.781 329.407 115.022L330.007 113.781C332.208 113.16 337.21 111.173 339.611 108.193C342.612 104.468 342.012 101.985 342.012 101.364C342.012 100.868 342.412 100.743 342.612 100.743C342.612 103.434 342.492 109.062 342.012 110.056Z" fill="#F0A57B"/>
<path d="M342.012 103.847C341.532 108.317 333.409 112.746 329.407 114.401L333.609 108.814C336.49 108.317 338.811 105.296 339.611 103.847L341.412 95.156L342.012 94.5352C342.212 95.7769 342.492 99.3776 342.012 103.847Z" fill="#DD6D2E"/>
<path d="M356.417 110.676C355.937 115.146 351.015 113.781 348.614 114.401L347.414 113.781L348.014 113.16C350.415 111.918 353.816 112.125 354.616 110.676L355.817 106.331L358.818 103.227C359.018 104.468 356.897 106.207 356.417 110.676Z" fill="#DD6D2E"/>
<path d="M363.02 133.647C360.019 137.372 359.418 137.372 357.017 137.992L355.817 137.372L355.217 136.13C357.618 134.888 357.618 134.888 359.418 133.647L362.419 131.784L364.22 129.922L367.221 126.818C367.421 128.059 365.803 130.192 363.02 133.647Z" fill="#DD6D2E"/>
<path d="M290.283 71.4981C288.844 72.8065 284.99 79.6356 287.391 79.0147C293.355 70.3842 298.059 64.8644 297.595 64.7359C297.131 64.6073 291.909 70.0205 290.283 71.4981Z" fill="#DD6D2E"/>
<path d="M268.785 64.1151C267.865 65.8538 266.083 73.2673 268.134 71.8346C270.885 61.6147 272.864 57.8637 272.386 57.9069C271.908 57.9502 269.823 62.1515 268.785 64.1151Z" fill="#DD6D2E"/>
<path d="M236.372 65.9776C237.172 66.1845 238.893 66.3501 239.373 65.3568C239.832 64.4071 238.865 59.9771 238.254 57.6004L236.372 65.9776Z" fill="#F0A57B"/>
<path d="M249.578 69.0819C249.097 70.0752 245.976 71.5647 245.376 70.9441L248.945 58.5263C250.638 51.2906 252.517 44.6304 251.978 47.9739C254.98 44.8698 250.037 68.1322 249.578 69.0819Z" fill="#F0A57B"/>
<path d="M265.386 62.5204C265.987 63.141 267.104 62.0043 267.584 61.011C268.043 60.0614 269.985 49.2155 268.784 49.483L265.386 62.5204Z" fill="#F0A57B"/>
<path d="M265.386 62.5204C265.987 63.141 267.104 62.0043 267.584 61.011C268.043 60.0614 269.985 49.2155 268.784 49.483L265.386 62.5204Z" fill="#F0A57B"/>
<path d="M346.814 79.6356C345.613 94.5352 343.812 121.23 337.21 128.68" stroke="#9C340C" stroke-width="0.5"/>
<path d="M346.813 79.6356C339.211 80.6703 324.125 82.8638 324.605 83.3605C325.205 83.9813 299.996 94.5352 301.196 98.2601" stroke="#9C340C" stroke-width="0.5"/>
<path d="M215.965 65.9776C217.405 64.4876 217.165 39.9032 213.564 30.5909L211.763 39.2824V63.4943C211.763 64.529 214.524 67.4675 215.965 65.9776Z" fill="#DD6D2E"/>
<path d="M244.499 71.565C246.576 74.2759 250.595 57.901 251.978 47.9739L251.378 43.6282L250.177 47.974L242.061 65.7723C241.561 66.6683 243.234 69.9135 244.499 71.565Z" fill="#DD6D2E"/>
<path d="M233.971 66.5984C236.048 69.3093 237.39 62.8675 238.773 52.9404L235.172 57.2861L232.771 60.3902L230.97 64.7359C230.47 65.632 232.706 64.947 233.971 66.5984Z" fill="#DD6D2E"/>
<path d="M255.58 74.0482C257.657 76.7591 264.401 52.9344 265.783 43.0073L266.984 25.6244L260.381 46.7321L251.378 70.3232C250.878 71.2193 254.314 72.3968 255.58 74.0482Z" fill="#DD6D2E"/>
<path d="M203.96 40.524C202.76 45.4906 200.479 56.1687 200.959 59.1486C201.439 62.1285 203.16 47.9739 203.96 40.524Z" fill="#DD6D2E"/>
<path d="M197.358 44.8698C197.838 46.8564 196.758 56.0445 196.157 60.3902C194.237 58.9003 195.757 46.9392 196.758 41.1449C196.758 41.5587 196.878 42.8832 197.358 44.8698Z" fill="#DD6D2E"/>
<path d="M203.96 40.524C202.76 45.4906 200.479 56.1687 200.959 59.1486C201.439 62.1285 203.16 47.9739 203.96 40.524Z" stroke="black"/>
<path d="M197.358 44.8698C197.838 46.8564 196.758 56.0445 196.157 60.3902C194.237 58.9003 195.757 46.9392 196.758 41.1449C196.758 41.5587 196.878 42.8832 197.358 44.8698Z" stroke="black"/>
<path d="M20.8919 128.68C15.1298 127.687 9.68776 132.819 7.68701 135.509C10.0879 151.03 55.7049 147.305 58.706 147.305C77.9132 172.137 118.728 186.416 120.529 186.416C122.33 186.416 136.135 205.662 136.735 207.524C137.335 209.387 134.334 248.498 131.333 248.498C128.932 248.498 129.132 253.465 129.532 255.948C146.339 268.364 160.144 259.673 162.545 255.948C164.465 252.968 161.744 248.912 160.144 247.256C160.944 239.807 162.785 223.914 163.745 219.94C164.706 215.967 163.345 201.316 162.545 194.487C161.744 193.866 160.864 192.997 163.745 194.487C166.626 195.977 192.156 195.936 204.56 195.729C202.76 201.937 215.364 232.357 206.361 235.461C197.358 238.565 195.557 246.015 196.758 248.498C197.958 250.981 227.369 248.498 229.77 247.256C231.691 246.263 229.77 241.876 228.569 239.807V216.216C228.569 211.87 233.371 204.42 233.971 204.42C234.572 204.42 253.179 229.874 255.579 229.874C257.98 229.874 257.98 237.944 256.78 237.944C255.579 237.944 245.976 249.119 244.775 253.465C243.575 257.81 266.383 258.431 267.584 258.431C268.784 258.431 282.59 257.19 283.79 246.015C284.99 234.84 277.187 228.011 275.387 227.39C273.946 226.894 272.386 218.906 271.785 214.974C275.987 206.282 262.782 188.9 262.182 186.416C261.702 184.43 271.986 175.242 277.188 170.896C339.011 170.896 395.432 189.52 400.834 188.9C406.236 188.279 447.651 192.624 459.055 186.416C468.179 181.45 467.258 177.311 465.658 175.862C399.633 179.587 401.609 176 384.628 165.308C370.822 156.617 324.405 118.126 302.997 99.5018C173.949 19.4163 121.129 121.23 115.727 133.647C111.406 143.58 98.3208 143.58 92.3186 142.338C84.9158 140.062 72.7055 125.781 58.706 119.989C52.7038 117.506 52.7038 118.126 49.1025 118.126C40.695 118.126 36.8215 118.757 34.0969 122.472C29.2951 127.439 23.2928 128.68 20.8919 128.68Z" fill="#33B37A"/>
<path d="M67.1095 144.201C66.1491 142.711 62.7078 143.58 59.9068 143.58C57.5058 146.063 58.1061 145.442 58.7064 147.305C79.114 172.137 114.527 184.554 116.328 184.554C117.768 184.554 115.728 172.137 114.527 165.929C99.1214 159.307 68.0699 145.691 67.1095 144.201Z" fill="#7EC4A0"/>
<path d="M160.744 168.413C157.383 169.903 157.743 175.242 158.343 177.725C164.106 186.665 163.145 192.211 161.945 193.866C199.159 195.729 226.769 192.004 227.969 187.658C229.17 183.312 227.969 165.308 224.368 163.446C220.767 161.584 164.946 166.55 160.744 168.413Z" fill="#7DC9A5"/>
<path d="M279.729 169.509L279.588 169.654C279.619 169.602 279.665 169.554 279.729 169.509L292.793 155.996C297.595 151.03 394.231 177.104 397.232 181.45C414.639 183.726 450.532 187.782 454.854 185.795C454.654 186.623 453.893 188.279 452.453 188.279C450.652 188.279 447.651 190.762 406.836 188.9H399.633L340.211 176.483C321.014 173.242 282.678 167.421 279.729 169.509Z" fill="#7DC9A5"/>
<path d="M164.345 61.6319C162.905 58.6519 165.346 54.5959 166.746 52.9404C169.147 64.3635 169.347 70.5302 169.147 72.1858C168.147 69.9094 165.786 64.6118 164.345 61.6319Z" fill="#DD6D2E"/>
<path d="M172.748 66.5984C173.229 67.095 171.348 69.7025 170.348 70.9441C168.88 60.8041 165.626 40.524 164.345 40.524C163.065 40.524 164.612 38.8685 165.546 38.0408C168.547 57.2861 172.148 65.9776 172.748 66.5984Z" fill="#DD6D2E"/>
<path d="M164.345 61.6319C162.905 58.6519 165.346 54.5959 166.746 52.9404C169.147 64.3635 169.347 70.5302 169.147 72.1858C168.147 69.9094 165.786 64.6118 164.345 61.6319Z" stroke="black"/>
<path d="M172.748 66.5984C173.229 67.095 171.348 69.7025 170.348 70.9441C168.88 60.8041 165.626 40.524 164.345 40.524C163.065 40.524 164.612 38.8685 165.546 38.0408C168.547 57.2861 172.148 65.9776 172.748 66.5984Z" stroke="black"/>
<path d="M112.726 129.922C110.125 127.439 105.043 122.1 105.523 120.61M109.125 121.851C109.725 121.644 112.006 122.1 116.327 125.576" stroke="#B6502A" stroke-width="0.7"/>
<path d="M97.7207 139.855C97.7207 138.199 97.9608 134.143 98.9212 131.163M100.722 130.543C100.722 134.268 100.842 141.717 101.322 141.717M102.522 132.405C103.723 134.475 106.124 138.862 106.124 139.855" stroke="#B6502A" stroke-width="0.5"/>
<path d="M71.3994 126.197C72.5999 124.955 73.3201 124.955 73.8003 124.955C73.6808 125.203 73.5961 125.388 73.5375 125.525C73.5165 125.786 73.2856 126.111 73.5375 125.525C73.5606 125.236 73.3284 125.024 71.911 126.197C71.4489 126.579 71.3994 126.818 71.3994 126.197Z" fill="#B6502A"/>
<path d="M78.7196 131.145C78.6603 131.089 78.592 131.055 78.5135 131.055C78.2329 130.765 79.1685 129.825 80.3142 128.68C80.6613 128.333 80.7009 128.326 80.6834 128.364C80.6674 128.4 80.6039 128.474 80.6834 128.364C80.7009 128.326 80.6613 128.333 80.3142 128.68C80.3142 128.845 79.2492 130.295 78.7573 131.185C78.8589 131.304 78.9316 131.488 78.9835 131.668C79.0595 131.638 79.1138 131.655 79.1138 131.784C79.1138 132.53 79.1138 132.117 78.9835 131.668C78.807 131.735 78.5136 132.051 78.5136 131.784C78.5136 131.709 78.5541 131.591 78.623 131.445L78.7196 131.145Z" fill="#B6502A"/>
<path d="M80.9145 128.059C80.2492 128.919 81.1289 127.866 80.3142 128.68M82.7151 128.68C82.3149 130.957 83.1953 134.516 82.7151 135.509M88.1171 131.163C88.1171 131.784 85.116 135.509 85.116 137.992M88.7174 132.405C89.1975 132.405 89.3176 137.372 89.3176 139.855M91.7185 135.509C92.1186 136.751 92.7989 139.482 92.3187 140.476M80.3142 128.68C79.1685 129.825 78.2329 130.765 78.5135 131.055C79.1137 131.055 79.1138 133.026 79.1138 131.784C79.1138 131.355 78.5136 132.166 78.5136 131.784M80.3142 128.68C80.3142 128.895 78.5136 131.282 78.5136 131.784M79.1138 129.922L78.5136 131.784M71.3994 126.197C72.5999 124.955 73.3201 124.955 73.8003 124.955C72.5999 127.439 74.9122 123.714 71.911 126.197C71.4489 126.579 71.3994 126.818 71.3994 126.197Z" stroke="#B6502A" stroke-width="0.3"/>
<path d="M181.152 64.736C180.191 63.7426 181.952 61.011 182.952 59.7694C183.432 60.7627 183.152 66.3915 182.952 69.0817C182.752 68.047 182.112 65.7293 181.152 64.736Z" fill="#DD6D2E"/>
<path d="M187.154 68.4609C186.276 69.0817 186.846 69.7099 185.631 69.0817C184.494 68.4939 184.753 65.9776 185.353 63.4943C184.753 60.3902 184.551 58.2339 185.353 57.9069C186.231 56.6653 188.677 67.2192 187.154 68.4609Z" fill="#DD6D2E"/>
<path d="M151.937 65.9737C151.837 66.1655 151.489 66.6973 151.141 65.9776C150.573 64.8021 149.269 64.2165 149.869 61.7332C152.942 58.5278 153.34 53.8882 154.142 53.5613C155.02 52.3196 152.341 67.8401 151.669 66.6998C151.811 66.2851 151.896 66.0687 151.937 65.9737Z" fill="#DD6D2E"/>
<path d="M159.544 70.9441C158.343 72.8065 157.369 71.0149 156.769 69.7732C156.2 68.5977 156.543 68.4608 157.143 65.9775C157.743 60.3902 158.742 54.509 159.544 54.182C160.422 52.9404 160.216 72.0844 159.544 70.9441Z" fill="#DD6D2E"/>
<path d="M171.548 63.4943C171.068 62.501 170.948 53.9751 170.948 49.8363C172.148 49.8363 175.75 65.9776 175.149 65.9776C174.549 65.9776 172.148 64.7359 171.548 63.4943Z" fill="#DD6D2E"/>
<path d="M121.729 73.4274C122.923 75.6483 125.311 80.5343 125.311 82.3111C125.311 84.532 131.93 94.526 131.333 95.6365C131.031 96.1991 129.893 95.6073 129.402 95.3775C129.435 95.458 129.465 95.5443 129.489 95.6365C129.052 95.2327 129.119 95.2445 129.402 95.3775C129.171 94.8119 128.75 94.5352 128.332 94.5352C127.854 94.5352 124.913 87.123 123.52 83.9767L121.729 73.4274Z" fill="#DD6D2E"/>
<path d="M134.334 87.0854C132.414 84.6021 132.334 78.187 132.534 75.2899C136.375 84.7263 142.938 87.4993 145.739 87.7062V88.327C146.339 88.9479 142.137 91.4311 142.137 90.8103C142.137 90.1895 136.735 90.1895 134.334 87.0854Z" fill="#DD6D2E"/>
<path d="M121.729 115.643C120.769 115.643 120.129 113.16 119.929 111.918C121.729 113.781 122.93 113.16 123.53 113.781C124.01 114.277 124.13 114.815 124.13 115.022C123.73 115.229 122.69 115.643 121.729 115.643Z" fill="#DD6D2E"/>
<path d="M112.726 125.576C111.766 125.576 110.525 123.714 110.325 122.472C112.126 122.472 114.527 124.334 115.127 124.955C115.607 125.452 115.127 125.369 115.127 125.576C114.727 125.783 113.686 125.576 112.726 125.576Z" fill="#DD6D2E"/>
<path d="M108.524 128.68C107.564 128.68 106.324 124.955 106.124 123.714C105.523 122.472 110.325 128.059 110.925 128.68C111.406 129.177 110.925 130.336 110.925 130.543C110.525 130.75 109.485 128.68 108.524 128.68Z" fill="#DD6D2E"/>
<path d="M99.5211 137.372C100.123 136.749 99.5917 132.722 100.121 131.784C100.379 130.611 100.745 139.261 100.82 140.025C100.88 140.636 100.263 139.879 100.152 140.016C99.7699 139.917 98.9209 137.992 99.5211 137.372Z" fill="#DD6D2E"/>
<path d="M104.323 138.613C103.721 137.991 102.425 134.108 102.522 133.026C102.276 131.849 105.144 137.333 105.523 137.992C105.827 138.52 105.656 138.117 105.523 139.234C104.323 139.234 104.923 139.234 104.323 138.613Z" fill="#DD6D2E"/>
<path d="M124.296 104.468C123.815 103.475 124.496 99.0879 124.896 97.0185C126.816 105.462 127.732 106.331 128.332 106.331C128.132 106.952 127.612 106.827 127.131 106.331C126.531 105.71 124.896 105.71 124.296 104.468Z" fill="#DD6D2E"/>
<path d="M193.156 70.9442C191.236 63.991 183.153 51.9057 179.351 46.7323C172.949 40.3171 160.347 30.7972 155.342 31.8326C152.341 32.4534 139.136 52.3196 149.34 90.8103" stroke="#982F08" stroke-width="0.5"/>
<path d="M121.129 123.093C116.928 115.229 109.245 97.0185 112.126 92.0519C115.927 90.6033 126.171 90.5619 136.735 101.985" stroke="#982F08" stroke-width="0.5"/>
<path d="M94.1191 142.338C95.9198 137.165 99.6412 126.942 100.121 127.439C100.722 128.059 109.125 135.509 109.125 139.234" stroke="#982F08" stroke-width="0.5"/>
<path d="M83.9156 137.372C84.5158 133.647 84.6358 127.19 82.7151 126.197C80.7944 125.204 78.5136 128.266 76.7129 131.163" stroke="#982F08" stroke-width="0.5"/>
<path d="M342.012 132.405C340.571 131.412 363.02 121.851 376.225 118.747C376.225 126.818 368.302 150.16 363.02 149.167" stroke="#9C340C" stroke-width="0.5"/>
<path d="M345.013 101.364C349.814 101.364 360.619 98.881 361.819 99.5018C363.019 100.123 356.417 124.335 356.417 124.955" stroke="#9C340C" stroke-width="0.3"/>
<path d="M325.205 82.7397C326.606 72.3927 327.006 51.0779 322.804 48.5947C319.403 48.8016 305.998 52.0712 279.588 63.4943" stroke="#982F08" stroke-width="0.3"/>
<path d="M238.773 36.7991C237.973 32.0395 230.37 20.0371 213.564 9.48315C206.561 12.1734 189.915 23.2653 179.351 46.1114" stroke="#982F08" stroke-width="0.3"/>
<path d="M120.529 91.4311C119.128 80.6703 117.168 59.0244 120.529 56.0445C122.93 56.0445 129.722 59.5573 131.333 60.3902C132.533 61.011 142.337 72.8066 146.939 79.0148" stroke="#982F08" stroke-width="0.3"/>
<path d="M69.5103 125.576C72.3113 124.128 74.4321 123.093 74.9123 123.093C75.5125 123.093 75.5125 129.301 74.9123 130.543" stroke="#982F08" stroke-width="0.2"/>
<path d="M207.561 50.4571C208.042 46.4839 209.762 41.9726 210.563 41.7657C211.163 41.7657 209.962 57.2861 210.563 57.907C211.163 58.5278 209.362 64.1151 208.762 65.3568C208.162 66.5984 204.56 65.9776 205.16 65.9776C205.761 65.9776 206.961 55.4237 207.561 50.4571Z" fill="#F0A57B"/>
<path d="M197.358 47.9738C198.394 44.1158 199.159 47.353 199.759 48.5947C198.558 51.0779 199.364 57.676 199.159 58.5278C198.558 61.011 197.958 59.7694 197.358 61.011C196.758 62.2527 195.557 59.7694 196.157 59.7694C196.758 59.7694 194.357 59.1486 197.358 47.9738Z" fill="#F0A57B"/>
<path d="M134.934 98.2601C134.454 95.2802 128.332 75.4968 125.331 65.9776C126.931 74.4621 130.252 91.6795 130.733 92.6728C131.333 93.9144 131.333 98.2601 134.934 98.2601Z" fill="#B6502A"/>
<path d="M129.209 66.3518L128.932 65.9776C129.021 66.0695 129.113 66.1954 129.209 66.3518L144.538 87.0854C142.337 86.2577 137.335 83.6088 134.934 79.6356C132.155 75.0366 130.406 68.3084 129.209 66.3518Z" fill="#B6502A"/>
<path d="M126.652 93.0384C126.61 93.1038 126.569 93.1879 126.531 93.2936C124.741 91.751 125.26 93.8148 123.803 85.223C124.866 87.9991 125.346 91.0412 126.652 93.0384C127.266 92.0802 128.176 95.1534 126.827 93.2936C126.767 93.2106 126.709 93.1255 126.652 93.0384Z" fill="#B6502A"/>
<path d="M122.93 113.16C121.511 111.064 120.471 108.379 119.726 105.71C119.459 107.055 119.084 110.023 119.726 111.141C120.368 112.259 122.129 112.953 122.93 113.16Z" fill="#B6502A"/>
<path d="M194.957 65.9776C194.373 64.971 194.361 61.55 194.633 57.2862C195.341 59.7694 196.757 64.8601 196.757 65.3568C196.757 65.9776 195.28 67.085 194.957 65.9776Z" fill="#B6502A"/>
<path d="M211.186 20.7551C211.178 20.7223 211.17 20.6898 211.163 20.6579C211.171 20.6828 211.178 20.7153 211.186 20.7551C211.794 23.2779 212.963 28.4994 212.963 29.9702C212.963 31.4601 211.929 36.7992 211.412 39.2824C211.456 29.9407 211.417 21.9631 211.186 20.7551Z" fill="#B6502A"/>
<path d="M235.172 57.2862C236.351 57.2862 244.775 43.0073 242.374 43.0073C240.823 43.0073 236.035 52.7265 232.564 60.3902C233.04 59.3555 234.228 57.2862 235.172 57.2862Z" fill="#B6502A"/>
<path d="M159.543 71.565C160.024 72.5583 161.344 71.565 161.944 70.9441C162.279 67.4783 161.27 59.5782 160.221 52.9404C160.195 53.5612 160.144 55.0512 160.144 56.0445C160.144 57.2862 158.943 70.3233 159.543 71.565Z" fill="#B6502A"/>
<path d="M172.148 59.1486C171.668 59.6453 173.949 62.6666 175.149 64.1152L173.349 56.0445C173.148 56.8723 172.628 58.652 172.148 59.1486Z" fill="#B6502A"/>
<path d="M241.174 69.0817C240.574 68.8748 239.493 68.3367 239.973 67.8401L242.974 61.6319L243.898 61.5517C246.774 59.5209 250.237 42.4481 250.777 43.0073C251.125 45.1667 248.376 54.1821 244.512 61.4985C243.296 64.3573 242.11 67.0302 241.174 69.0817Z" fill="#B6502A"/>
<path d="M182.352 65.9776C181.872 66.4743 182.952 68.2539 183.552 69.0817C183.738 68.3126 183.72 66.3401 183.617 64.1152C183.395 64.529 182.832 65.4809 182.352 65.9776Z" fill="#B6502A"/>
<path d="M272.385 65.3568C272.866 66.8467 270.481 68.8748 269.229 69.7025L271.532 61.4985C271.617 62.1638 271.905 63.8668 272.385 65.3568Z" fill="#B6502A"/>
<path d="M118.128 96.3977C118.244 98.4311 118.707 102.055 119.726 105.71M121.729 70.9441C122.184 74.7068 122.914 79.9838 123.803 85.223M123.803 85.223C125.26 93.8148 124.741 91.751 126.531 93.2936C127.131 91.6381 128.268 95.2802 126.827 93.2936C125.387 91.307 124.912 88.1201 123.803 85.223ZM119.726 105.71C120.471 108.379 121.511 111.064 122.93 113.16C122.129 112.953 120.368 112.259 119.726 111.141C119.084 110.023 119.459 107.055 119.726 105.71ZM154.742 51.078L153.541 65.9776M158.943 45.4906C159.306 47.429 159.767 50.0664 160.221 52.9404M163.745 38.0408C166.146 48.3878 170.708 69.8267 169.747 72.8066M169.147 40.5241C169.747 42.3865 176.95 66.5984 175.749 67.8401M182.952 55.4237C183.075 56.4383 183.453 60.593 183.617 64.1152M196.757 38.0408C196.043 42.9629 195.032 51.0314 194.633 57.2862M205.761 26.8661C205.309 28.2689 203.154 47.2814 202.631 57.907M202.759 64.736C202.463 63.9699 202.459 61.3887 202.631 57.907M211.163 64.736C211.258 58.0344 211.371 48.0567 211.412 39.2824M218.966 26.8661C219.566 38.8686 220.406 63.4943 218.966 65.9776M228.569 33.6951C228.569 38.8686 228.329 49.588 227.369 51.078M194.633 57.2862C194.361 61.55 194.373 64.971 194.957 65.9776C195.28 67.085 196.757 65.9776 196.757 65.3568C196.757 64.8601 195.341 59.7694 194.633 57.2862ZM203.36 64.736L202.631 57.907M211.412 39.2824C211.457 29.6326 211.414 21.4383 211.163 20.6579C211.763 23.1412 212.963 28.4802 212.963 29.9702C212.963 31.4601 211.929 36.7992 211.412 39.2824ZM230.37 65.3568C230.985 63.9239 231.737 62.2153 232.564 60.3902M232.564 60.3902C236.035 52.7265 240.823 43.0073 242.374 43.0073C244.775 43.0073 236.351 57.2862 235.172 57.2862C234.228 57.2862 233.04 59.3555 232.564 60.3902ZM256.78 33.6951C255.179 34.9367 252.218 37.7925 253.178 39.2824M250.777 71.565C256.379 56.6653 267.344 26.4936 266.383 25.0036M260.381 71.565C263.982 60.8041 271.185 38.9099 271.185 37.42M273.586 54.1821L271.532 61.4985M268.184 73.4274L269.229 69.7025M278.988 69.7025C282.589 67.8401 282.589 69.7025 289.792 62.2527M286.191 81.4981C290.192 75.2899 299.035 62.6252 302.397 61.6319M296.394 85.223L315.001 57.907M304.197 91.4311C306.398 89.1548 312.36 81.2497 318.603 67.8401M315.602 87.7062C318.002 84.1883 316.442 79.3873 317.402 78.394M308.999 101.364C312.4 96.1907 329.167 84.1055 330.607 84.6021M318.603 110.676C318.603 108.814 339.01 85.8438 339.01 85.223M327.606 116.885C329.607 114.401 337.81 101.364 342.612 91.4311M342.612 118.126C345.413 115.022 356.897 104.965 358.818 101.985M367.221 151.65C372.023 151.65 384.267 141.345 385.227 139.855M382.226 152.892C383.827 150.823 387.148 146.311 387.628 144.821M352.215 138.613C354.416 136.751 371.542 125.204 372.023 123.714M160.221 52.9404C161.27 59.5782 162.279 67.4783 161.944 70.9441C161.344 71.565 160.024 72.5583 159.543 71.565C158.943 70.3233 160.144 57.2862 160.144 56.0445C160.144 55.0512 160.195 53.5612 160.221 52.9404ZM168.547 61.6319C167.946 61.218 167.946 60.3902 167.346 59.1486C166.497 57.3927 166.822 54.0219 166.822 52.1595M242.974 61.6319L239.973 67.8401C239.493 68.3367 240.574 68.8748 241.174 69.0817C242.11 67.0302 243.296 64.3573 244.512 61.4985M242.974 61.6319L244.512 61.4985M242.974 61.6319C245.976 63.4943 250.177 42.3865 250.777 43.0073C251.125 45.1667 248.376 54.1821 244.512 61.4985M183.617 64.1152C183.72 66.3401 183.738 68.3126 183.552 69.0817C182.952 68.2539 181.872 66.4743 182.352 65.9776C182.832 65.481 183.395 64.529 183.617 64.1152ZM269.229 69.7025C270.481 68.8748 272.866 66.8467 272.385 65.3568C271.905 63.8668 271.617 62.1638 271.532 61.4985M269.229 69.7025L271.532 61.4985M125.331 65.9776C128.332 75.4968 134.454 95.2802 134.934 98.2601C131.333 98.2601 131.333 93.9144 130.733 92.6728C130.252 91.6795 126.931 74.4621 125.331 65.9776ZM128.932 65.9776L144.538 87.0854C142.337 86.2577 137.335 83.6088 134.934 79.6356C131.933 74.6691 130.132 67.2192 128.932 65.9776ZM175.149 64.1152C173.949 62.6666 171.668 59.6453 172.148 59.1486C172.628 58.652 173.148 56.8723 173.349 56.0445L175.149 64.1152Z" stroke="#B6502A" stroke-width="0.7"/>
<path d="M151.14 64.1151C149.7 65.6051 152.141 65.5637 153.541 65.3567L153.541 61.6318L151.14 64.1151Z" fill="#B6502A" stroke="#B6502A"/>
<path d="M257.38 45.4906C256.18 45.4906 250.178 69.0816 251.378 69.7025C254.979 59.7694 262.062 39.9032 261.582 39.9032C261.102 39.9032 258.581 43.6281 257.38 45.4906Z" fill="#DD6D2E"/>
<path d="M268.184 49.2155C264.583 62.8735 261.582 65.9776 265.183 63.4943C267.584 53.5612 271.065 41.7657 270.585 41.7657C270.105 41.7657 268.784 46.7322 268.184 49.2155Z" fill="#DD6D2E"/>
<path d="M306.598 64.1151C305.439 63.7938 296.143 82.7079 297.147 83.629C303.112 74.9984 313.064 59.8979 312.601 59.7694C312.137 59.6408 308.224 62.6375 306.598 64.1151Z" fill="#DD6D2E"/>
<path d="M310.2 78.3939C309.04 78.0726 305.594 86.7852 306.599 87.7063C312.563 79.0757 318.467 68.5894 318.003 68.4609C317.539 68.3323 311.826 76.9163 310.2 78.3939Z" fill="#DD6D2E"/>
<path d="M284.39 69.7025L284.39 69.7025C285.591 66.5984 288.455 64.8645 287.991 64.7359C287.528 64.6074 283.19 69.0817 280.789 69.0817C280.789 70.3234 280.789 70.3234 284.39 69.7025Z" fill="#DD6D2E"/>
<path d="M224.368 69.0817C220.527 43.7523 255.18 22.1065 272.986 14.4497C274.187 14.8636 276.467 18.0505 275.987 27.4869C276.988 38.6616 279.108 61.2594 279.589 62.2527C280.189 63.4943 276.588 83.9813 275.987 84.6021" stroke="#982F08" stroke-width="0.5"/>
<path d="M127.132 105.71C128.132 106.124 130.253 106.579 130.733 105.089C131.197 103.65 126.642 98.8731 124.271 96.7772L127.132 105.71Z" fill="#B6502A"/>
<path d="M256.78 65.9776C256.78 68.9575 252.779 70.5303 250.778 70.9441L259.181 49.2155C259.381 50.6641 256.78 62.9977 256.78 65.9776Z" fill="#C0572B"/>
<path d="M376.225 159.1C381.026 151.65 391.03 148.96 395.432 148.546C395.632 148.753 395.912 149.416 395.432 150.409C394.832 151.65 391.23 161.584 390.63 169.033" stroke="#9C340C" stroke-width="0.5"/>
<path d="M268.184 65.9776C266.383 70.3233 268.184 71.565 266.984 70.9442C265.783 70.3234 266.984 65.9776 268.184 65.9776Z" fill="#F0A57B"/>
<path d="M321.004 93.9144C320.524 94.9077 314.402 97.6393 311.4 98.8809C315.602 95.363 324.125 88.327 324.605 88.327C325.206 88.327 321.604 92.6728 321.004 93.9144Z" fill="#B6502A"/>
<path d="M321.604 86.4646C319.803 85.8438 312 97.0185 312 97.6393C316.602 94.1214 325.806 86.9613 325.806 86.4646C325.806 85.9679 323.005 86.2577 321.604 86.4646Z" fill="#DD6D2E"/>
<path d="M330.607 91.4311C329.647 91.4311 325.806 98.8809 324.005 102.606L333.608 91.4311H330.607Z" fill="#B6502A"/>
<path d="M339.011 105.089C337.57 107.572 334.409 108.607 333.008 108.814L341.411 94.5352C341.211 97.0185 340.451 102.606 339.011 105.089Z" fill="#B6502A"/>
<path d="M293.393 75.2898C292.913 76.7798 288.592 79.6355 286.791 80.8772L288.592 78.3939L290.392 75.9106L293.994 70.9441C293.994 71.7718 293.874 73.7999 293.393 75.2898Z" fill="#B6502A"/>
<path d="M315.001 87.0854C314.572 86.8633 316.202 84.6021 316.802 83.3605L316.802 86.4646C316.802 87.0854 316.202 87.7062 315.001 87.0854Z" fill="#B6502A"/>
<path d="M355.217 109.435C354.617 112.539 354.617 110.056 346.213 114.401C348.014 111.504 351.855 105.586 352.816 105.089C353.776 104.592 355.217 104.882 355.817 105.089C355.817 105.503 355.697 106.952 355.217 109.435Z" fill="#B6502A"/>
<path d="M327.606 90.8103C327.606 89.3203 332.808 88.534 335.409 88.327L337.21 87.0854L333.609 91.4311L330.007 92.0519L323.405 103.227C325.205 99.2948 327.606 92.3003 327.606 90.8103Z" fill="#DD6D2E"/>
<path d="M288.592 70.9441C288.592 69.4542 292.993 67.4261 295.194 66.5984L287.391 75.9107C287.791 74.876 288.592 72.4341 288.592 70.9441Z" fill="#F0A57B"/>
<path d="M302.397 65.3567C302.397 64.3634 310.8 59.7694 310.2 61.6318C307.799 61.6318 300.596 74.462 296.995 82.1188V79.6355C296.995 78.3939 302.397 66.5984 302.397 65.3567Z" fill="#F0A57B"/>
<path d="M306.598 79.0147C306.598 78.0214 312 76.5313 311.4 78.3937C308.999 78.3937 308.399 80.8772 305.998 88.327C304.797 87.7062 303.597 88.327 304.197 87.0854C304.734 85.9748 306.598 80.2564 306.598 79.0147Z" fill="#F0A57B"/>
<path d="M315.189 90.6897C315.438 89.7302 317.188 88.0017 318.658 88.8796C315.956 92.842 315.448 91.6743 311.265 98.2276C309.948 100.292 309.96 98.8812 310.851 97.8426C311.647 96.9136 314.879 91.889 315.189 90.6897Z" fill="#F0A57B"/>
<path d="M324.824 94.1813C325.073 93.2219 326.136 90.5532 327.606 91.4311C327.606 92.0519 327.588 95.4318 323.405 101.985C322.087 104.049 320.714 103.644 321.604 102.606C322.401 101.677 324.513 95.3806 324.824 94.1813Z" fill="#F0A57B"/>
<path d="M349.526 105.49C350.143 104.729 352.291 104.989 352.816 105.089C350.415 106.952 351.075 108.161 346.873 113.749C344.836 115.044 343.812 115.022 344.473 113.749C345.04 112.654 348.754 106.441 349.526 105.49Z" fill="#F0A57B"/>
<path d="M364.82 131.163C364.82 130.543 365.745 132.204 364.82 132.405C363.944 134.001 365.263 134.695 359.173 137.923C356.797 138.205 357.099 138.237 358.217 137.372C359.179 136.628 364.82 132.405 364.82 131.163Z" fill="#F0A57B"/>
<path d="M381.626 147.305C381.626 146.684 382.226 148.546 381.626 148.546C380.426 149.167 382.315 147.182 376.224 150.409C373.848 150.692 372.498 150.866 373.823 150.409C375.624 149.788 381.626 148.546 381.626 147.305Z" fill="#F0A57B"/>
<path d="M363.019 128.059C361.098 128.059 358.818 132.198 357.617 134.268L365.42 128.68C365.42 128.473 364.94 128.059 363.019 128.059Z" fill="#B6502A"/>
<path d="M384.027 162.825C385.828 159.1 390.03 151.65 392.43 151.65" stroke="#BF582F" stroke-width="0.5"/>
<path d="M379.826 142.338C378.865 142.338 373.423 147.719 370.822 150.409L376.224 147.305L381.626 142.959C381.426 142.752 380.786 142.338 379.826 142.338Z" fill="#B6502A"/>
<path d="M381.026 146.063C381.026 147.056 375.824 148.96 373.223 149.788L381.626 143.58C381.426 143.994 381.026 145.07 381.026 146.063Z" fill="#B6502A"/>
<path d="M387.029 153.513C386.068 153.513 385.428 158.066 385.228 160.342L390.03 152.892C389.43 153.099 387.989 153.513 387.029 153.513Z" fill="#BF582F"/>
<path d="M434.446 146.684C433.966 147.181 419.24 166.55 412.838 176.483L420.041 177.104C423.594 168.584 431.502 153.672 434.166 148.502C434.802 147.267 434.538 146.588 434.446 146.684Z" fill="#9C340C"/>
<path d="M429.044 147.305C428.564 147.801 417.44 166.55 411.038 176.483H417.64C421.193 167.964 426.381 154.338 429.044 149.167C429.68 147.933 429.137 147.209 429.044 147.305Z" fill="#9C340C" fill-opacity="0.8"/>
<path d="M38.2978 129.301C37.3375 128.308 37.8977 126.818 38.2978 126.197C41.299 123.714 42.4994 126.197 43.0996 126.197C43.6998 126.197 42.4994 129.922 41.8992 130.543C41.2989 131.163 39.4983 130.543 38.2978 129.301Z" fill="#2F261D" stroke="black" stroke-width="0.1"/>
<path d="M13.0889 142.338C15.4898 142.545 20.7717 142.338 22.6924 139.855" stroke="#2F261D"/>
<path d="M13.0887 131.163C12.6886 131.163 12.2484 131.288 13.689 131.784C15.1295 132.281 13.889 131.577 13.0887 131.163Z" stroke="#2F261D"/>
<path d="M256.78 108.814C248.977 112.539 232.411 124.086 228.569 140.476C224.728 156.865 226.969 173.793 228.569 180.208" stroke="#62C6A4"/>
<path d="M153.542 160.342C154.542 166.136 156.903 178.097 158.343 179.587C160.144 181.45 163.145 184.554 161.945 193.245" stroke="#1C875B"/>
<path d="M294.594 137.992C294.794 142.131 294.354 151.402 290.993 155.375C286.791 160.342 274.787 167.792 277.788 169.654" stroke="#169079"/>
<path d="M160.744 93.2936C156.903 94.7835 151.941 92.6727 149.94 91.4311C159.063 79.5114 182.552 72.3927 193.156 70.3233C193.956 70.5302 195.557 71.3166 195.557 72.8066C195.557 74.669 187.154 78.3939 185.353 80.2564C183.552 82.1188 168.547 83.9813 166.746 83.3605C164.946 82.7396 165.546 91.4311 160.744 93.2936Z" fill="#E48956"/>
<path d="M239.373 81.498C229.77 77.0281 225.768 71.7718 224.968 69.7024C225.928 66.2259 258.18 76.5314 274.786 82.7396C274.986 84.1882 276.467 88.0787 275.987 87.0853C275.387 85.8437 268.184 84.6021 265.783 85.2229C263.382 85.8437 251.378 87.0853 239.373 81.498Z" fill="#E48956"/>
<path d="M131.933 234.219C132.413 234.219 132.934 211.87 133.134 201.316L136.735 206.282C137.335 210.007 136.375 222.424 134.934 234.84C133.494 247.256 131.733 248.498 131.333 247.877C120.529 242.29 131.333 234.219 131.933 234.219Z" fill="#1E8557"/>
<path d="M230.37 192.624C229.41 194.114 213.564 195.729 205.761 196.349C203.36 193.866 206.361 211.87 207.561 212.491C208.522 212.987 209.562 224.7 209.962 230.494C209.362 232.357 208.162 234.219 207.561 234.84C206.961 235.461 201.559 237.323 199.158 240.427C196.757 243.532 196.757 245.394 196.757 248.498C196.757 250.981 218.766 248.705 229.77 247.256C231.21 246.76 229.57 242.083 228.569 239.807V211.87C230.37 209.593 233.371 204.42 230.97 201.937C227.969 198.833 231.57 190.762 230.37 192.624Z" fill="#1E8557"/>
<path d="M301.797 111.297C300.356 108.814 300.996 100.95 301.197 97.6393L337.21 128.059C336.61 128.68 335.169 130.667 334.209 131.163C333.008 131.784 325.205 128.68 325.205 126.818C325.205 124.955 322.204 121.851 321.004 121.851C319.803 121.851 303.597 114.401 301.797 111.297Z" fill="#E48956"/>
<path d="M165.546 82.7397C155.942 83.9813 158.343 85.2229 150.54 95.7768C151.74 97.0185 160.744 93.2936 165.546 90.8103C168.23 89.4221 177.74 84.5366 179.351 83.9813C182.952 82.7397 196.757 79.6356 196.757 77.7731C196.757 75.9107 199.158 75.2899 196.757 72.1858C194.356 69.0817 175.149 81.498 165.546 82.7397Z" fill="#0E8D56"/>
<path d="M233.371 73.4274C225.243 67.9937 223.014 69.2539 221.367 77.1523C228.569 82.1188 231.151 81.4495 236.372 82.7397C239.291 83.4609 248.141 86.4533 249.72 87.0988C253.251 88.5419 266.426 90.9954 267.584 89.5687C268.741 88.142 276.497 90.4387 276.587 86.4646C276.677 82.4905 241.499 78.8611 233.371 73.4274Z" fill="#0E8D56"/>
<path d="M305.398 107.572C301.196 98.2601 298.154 95.7666 293.994 102.606C299.12 109.821 299.718 112.584 304.198 115.643C306.702 117.353 312.759 127.605 314.029 128.77C316.87 131.375 329.648 133.957 331.208 133.026C332.767 132.095 334.611 134.866 336.01 131.164C337.408 127.461 309.491 116.644 305.398 107.572Z" fill="#0E8D56"/>
<path d="M164.346 189.52C181.552 190.141 217.645 190.514 224.368 187.037C226.545 185.911 227.899 185.189 228.688 184.748C228.648 184.68 228.609 184.615 228.57 184.554C229.517 184.134 230.336 183.828 228.688 184.748C229.869 186.792 231.299 192.284 230.37 193.245C229.41 194.239 208.762 196.97 203.36 195.729C189.555 195.935 161.945 195.853 161.945 193.866C161.945 191.383 160.744 188.9 161.945 188.9C162.905 188.9 163.945 189.313 164.346 189.52Z" fill="#1E8557"/>
<path d="M39.1636 128.059C38.9635 128.059 38.6834 127.811 39.1636 126.818C39.3636 126.818 39.7638 126.942 39.7638 127.439C39.7638 127.935 39.3636 128.059 39.1636 128.059Z" fill="white" stroke="black" stroke-width="0.1"/>
<path d="M273.586 167.792C271.185 167.295 265.383 177.932 262.782 183.312C262.982 183.726 263.382 184.43 263.382 183.933C263.382 183.312 276.587 171.517 277.788 170.275C278.988 169.033 276.587 168.413 273.586 167.792Z" fill="#1E8557"/>
<path d="M325.806 173.379C340.211 174 370.703 176.732 377.425 182.691C378.8 183.403 381.446 184.725 382.468 185.083C382.733 185.143 382.858 185.175 382.827 185.175C382.76 185.175 382.636 185.142 382.468 185.083C377.614 183.986 325.806 173.411 325.806 174C325.406 174.207 324.605 174.497 324.605 174C324.605 173.503 325.406 173.379 325.806 173.379Z" fill="#1E8557"/>
<path d="M184.998 96.4514C182.597 95.9547 182.797 91.2779 183.197 89.0015H188.599C190.4 89.0015 190.4 84.035 193.401 84.6558C196.402 85.2766 193.401 91.4848 193.401 92.7264C193.401 93.9681 187.999 97.0722 184.998 96.4514Z" fill="#0E8D56" fill-opacity="0.65"/>
<path d="M165.79 127.492C163.39 126.996 163.945 125.369 164.345 123.093C165.546 123.093 165.906 118.747 167.347 118.747C169.147 118.747 170.348 113.16 173.349 113.781C176.35 114.401 169.503 120.556 170.948 123.093C171.557 124.163 168.792 128.113 165.79 127.492Z" fill="#7DC9A5" fill-opacity="0.54"/>
<path d="M187.154 106.331C185.234 107.902 185.309 106.172 185.71 103.896C186.91 103.896 187.27 99.5499 188.711 99.5499C190.511 99.5499 189.555 96.3977 192.556 97.0185C195.557 97.6393 188.71 101.359 190.155 103.896C190.764 104.965 189.554 104.366 187.154 106.331Z" fill="#7DC9A5" fill-opacity="0.54"/>
<path d="M209.362 85.223C208.138 86.2577 207.829 86.9463 206.961 85.8438C207.461 85.2285 207.033 84.0989 207.632 83.3606C208.38 82.4376 205.431 80.9291 206.961 79.6356C208.491 78.3421 209.399 81.0085 209.963 81.498C210.527 81.9875 210.892 83.9295 209.362 85.223Z" fill="#0E8D56" fill-opacity="0.65"/>
<path d="M217.776 85.2229C216.552 86.2577 216.832 86.9462 215.965 85.8437C216.464 85.2284 214.846 84.9366 215.445 84.1983C216.194 83.2754 213.915 82.7915 215.445 81.498C216.975 80.2045 217.212 82.8709 217.776 83.3604C218.34 83.8499 219.306 83.9294 217.776 85.2229Z" fill="#0E8D56" fill-opacity="0.65"/>
<path d="M266.984 136.751C265.76 137.786 265.531 138.07 264.663 136.968C265.162 136.353 264.064 135.844 264.663 135.106C265.412 134.183 263.358 134.965 263.982 133.026C264.583 131.163 265.819 133.157 266.383 133.647C266.947 134.136 268.513 135.457 266.984 136.751Z" fill="#0E8D56" fill-opacity="0.65"/>
<path d="M274.808 136.968C273.584 138.003 273.864 138.691 272.997 137.589C273.496 136.973 270.586 136.868 271.185 136.13C271.934 135.207 270.501 133.243 272.477 133.243C274.808 133.243 274.186 134.748 274.186 135.509C274.186 136.13 276.338 135.674 274.808 136.968Z" fill="#0E8D56" fill-opacity="0.65"/>
<path d="M211.163 91.8929C213.255 93.2089 214.092 95.0943 212.964 97.0918C211.836 96.6671 210.317 97.6014 208.963 97.0918C207.271 96.4548 204.774 101.147 202.16 99.5018C199.545 97.8567 204.75 96.3228 205.161 95.156C205.571 93.9893 208.548 90.2478 211.163 91.8929Z" fill="#0E8D56" fill-opacity="0.65"/>
<path d="M230.97 88.9478C233.062 90.2639 235.504 89.0904 234.375 91.0879C233.247 90.6632 232.324 91.9407 230.97 91.4311C229.278 90.7941 226.769 94.5351 225.568 92.0518C224.199 89.2205 223.357 89.4937 223.767 88.3269C224.178 87.1602 228.355 87.3028 230.97 88.9478Z" fill="#0E8D56" fill-opacity="0.65"/>
<path d="M238.322 37.1718C229.759 22.5782 218.521 9.14956 210.621 11.9169C195.154 17.3348 186.065 36.5609 179.773 46.96L192.305 67.4982C201.228 67.0046 213.347 65.8813 223.969 65.1063L224.752 59.0053L226.826 52.8553L231.188 45.3467L238.322 37.1718Z" fill="url(#paint0_radial)" fill-opacity="0.4"/>
<path d="M324.765 83.8068C327.482 66.049 325.736 49.1668 323.56 49.0188C315.714 48.485 290.564 57.6166 279.916 63.4765L276.104 84.7295C284.078 88.7633 291.204 93.3338 300.79 97.9736L305.213 93.524L310.362 90.5004L316.873 87.2673L324.765 83.8068Z" fill="url(#paint1_radial)" fill-opacity="0.4"/>
<path d="M356.294 125.245C358.686 115.537 363.047 99.6075 361.722 99.5278C357.642 99.2824 351.556 100.77 344.977 101.414L342.446 115.998L340.56 123.036L337.37 128.426C340.4 131.362 337.06 128.797 342.067 132.24L345.989 129.615L349.209 128.097L352.154 126.717L356.294 125.245Z" fill="url(#paint2_radial)" fill-opacity="0.4"/>
<path d="M387.528 150.142C389.974 143.968 389.641 137.347 388.656 137.171C383.143 136.189 374.086 139.901 370.26 141.084L367.289 146.191L363.408 149.644L366.271 151.662L368.766 153.475L368.851 153.55C370.436 154.953 373.339 157.522 375.93 159.064L378.449 155.942L380.207 154.294L382.123 153.029L387.528 150.142Z" fill="url(#paint3_radial)" fill-opacity="0.4"/>
<path d="M149.659 90.2652C149.664 90.2807 149.669 90.2963 149.675 90.3118C149.662 90.2994 149.657 90.2839 149.659 90.2652C142.013 67.265 145.539 35.8985 154.2 32.6077C162.016 29.6384 183.586 45.7377 192.569 69.9603C178.622 75.3751 149.786 89.0785 149.659 90.2652Z" fill="url(#paint4_radial)" fill-opacity="0.4"/>
<path d="M273.655 15.4407C267.035 14.0014 217.62 42.8435 224.346 68.8245C224.247 67.6972 261.168 80.0961 275.556 84.9891C276.279 78.191 279.171 71.0406 279.497 63.6622C277.188 40.4335 277.226 16.2169 273.655 15.4407Z" fill="url(#paint5_radial)" fill-opacity="0.4"/>
<path d="M346.458 79.9933C340.976 78.55 307.076 86.051 301.088 99.8733C301.303 99.034 327.202 120.333 335.638 129.474C339.821 125.001 338.344 127.323 340.975 120.817C342.35 117.417 349.308 80.7439 346.458 79.9933Z" fill="url(#paint6_radial)" fill-opacity="0.4"/>
<path d="M342.149 132.338C342.14 132.343 342.13 132.349 342.121 132.354C342.127 132.345 342.136 132.34 342.149 132.338C354.941 124.785 371.371 120.012 375.558 119.327C378.009 118.927 369.931 141.988 368.068 144.343C364.505 148.848 365.989 147.981 363.254 148.914C357.228 144.795 342.943 132.215 342.149 132.338Z" fill="url(#paint7_radial)" fill-opacity="0.4"/>
<path d="M395.408 148.891C392.25 148.889 379.264 152.588 376.375 159.139C376.559 158.81 386.414 166.017 389.966 168.667C391.491 168.166 390.179 169.116 390.754 165.912C391.237 163.215 396.353 148.892 395.408 148.891Z" fill="url(#paint8_radial)" fill-opacity="0.4"/>
<path d="M120.673 56.4808C116.173 55.9808 120.673 90.2335 120.673 91.7335C121.472 92.3937 125.502 93.4707 129.081 95.347C133.042 98.3698 137.316 102.052 137.316 101.879C137.316 100.012 146.67 93.6791 149.025 91.212C149.722 90.4824 147.58 83.1829 146.381 78.7451C142.585 73.4615 136.96 65.299 131.338 60.7854C126.678 57.6535 122.037 56.6323 120.673 56.4808Z" fill="url(#paint9_radial)" fill-opacity="0.4"/>
<path d="M114.596 92.4987C110.096 91.9987 115.596 108.499 115.596 109.999C118.596 114.499 120.496 117.399 122.096 116.999C124.096 116.499 134.096 105.499 135.096 102.499C136.096 99.4986 119.096 92.9987 114.596 92.4987Z" fill="url(#paint10_radial)" fill-opacity="0.4"/>
<path d="M104.596 118.498C100.096 117.998 107.597 130.499 107.597 131.999C110.597 136.499 110.497 137.899 112.097 137.499C114.097 136.999 117.36 127.235 119.596 124.999C122.096 122.498 109.096 118.998 104.596 118.498Z" fill="url(#paint11_radial)" fill-opacity="0.4"/>
<path d="M101.097 128.999C99.0962 125.999 97.6568 135.438 96.5961 136.499C95.5353 141.802 94.182 141.15 95.5962 141.999C97.364 143.059 108.597 142.661 108.597 139.499C108.597 136.398 103.609 132.765 101.097 128.999Z" fill="url(#paint12_radial)" fill-opacity="0.4"/>
<path d="M90.5316 130.263C89.3754 126.848 85.5419 135.593 84.2428 136.343C84.5962 137.999 84.4498 136.813 85.5962 137.999C87.0292 139.481 93.3769 143.095 93.5962 141.999C94.0962 139.499 91.9832 134.552 90.5316 130.263Z" fill="url(#paint13_radial)" fill-opacity="0.4"/>
<path d="M83.0962 127.498C81.94 124.083 78.0962 129.999 77.0966 130.999C77.45 132.654 77.9495 131.813 79.0959 132.998C80.5289 134.48 83.5962 136.206 83.5962 135.499C83.5962 133.499 84.5479 131.787 83.0962 127.498Z" fill="url(#paint14_radial)" fill-opacity="0.4"/>
<path d="M74.5968 123.498C74.0963 123.499 71.0961 124.998 70.0965 125.998C70.5965 126.998 71.4011 126.779 72.0965 127.498C73.5295 128.98 75.0964 130.205 75.0964 129.498C75.0964 127.498 75.1554 123.498 74.5968 123.498Z" fill="url(#paint15_radial)" fill-opacity="0.4"/>
<defs>
<radialGradient id="paint0_radial" cx="0" cy="0" r="1" gradientUnits="userSpaceOnUse" gradientTransform="translate(212.814 41.142) rotate(115) scale(25.5201 21.6694)">
<stop stop-color="#FF0000"/>
<stop offset="1" stop-color="#E05709"/>
</radialGradient>
<radialGradient id="paint1_radial" cx="0" cy="0" r="1" gradientUnits="userSpaceOnUse" gradientTransform="translate(304.872 82.2553) rotate(145) scale(25.5202 21.6694)">
<stop stop-color="#FF0000"/>
<stop offset="1" stop-color="#E05709"/>
</radialGradient>
<radialGradient id="paint2_radial" cx="0" cy="0" r="1" gradientUnits="userSpaceOnUse" gradientTransform="translate(345.427 122.053) rotate(150) scale(12.8507 12.7834)">
<stop stop-color="#FF0000"/>
<stop offset="1" stop-color="#E05709"/>
</radialGradient>
<radialGradient id="paint3_radial" cx="0" cy="0" r="1" gradientUnits="userSpaceOnUse" gradientTransform="translate(374.611 153.613) rotate(150) scale(7.3706 6.24327)">
<stop stop-color="#FF0000"/>
<stop offset="1" stop-color="#E05709"/>
</radialGradient>
<radialGradient id="paint4_radial" cx="0" cy="0" r="1" gradientUnits="userSpaceOnUse" gradientTransform="translate(169.427 60.4784) rotate(90) scale(25.5202 21.6694)">
<stop stop-color="#FF0000"/>
<stop offset="1" stop-color="#E05709"/>
</radialGradient>
<radialGradient id="paint5_radial" cx="0" cy="0" r="1" gradientUnits="userSpaceOnUse" gradientTransform="translate(258.228 57.4264) rotate(130) scale(25.5202 21.6695)">
<stop stop-color="#FF0000"/>
<stop offset="1" stop-color="#E05709"/>
</radialGradient>
<radialGradient id="paint6_radial" cx="0" cy="0" r="1" gradientUnits="userSpaceOnUse" gradientTransform="translate(325.89 106.557) rotate(155) scale(17.5519 18.1258)">
<stop stop-color="#FF0000"/>
<stop offset="1" stop-color="#E05709"/>
</radialGradient>
<radialGradient id="paint7_radial" cx="0" cy="0" r="1" gradientUnits="userSpaceOnUse" gradientTransform="translate(356.433 137.641) rotate(155) scale(17.5519 9.76332)">
<stop stop-color="#FF0000"/>
<stop offset="1" stop-color="#E05709"/>
</radialGradient>
<radialGradient id="paint8_radial" cx="0" cy="0" r="1" gradientUnits="userSpaceOnUse" gradientTransform="translate(383.865 161.494) rotate(155) scale(9.74058 5.96969)">
<stop stop-color="#FF0000"/>
<stop offset="1" stop-color="#E05709"/>
</radialGradient>
<radialGradient id="paint9_radial" cx="0" cy="0" r="1" gradientUnits="userSpaceOnUse" gradientTransform="translate(131.642 81.1692) rotate(84.7515) scale(16.5912 11.068)">
<stop stop-color="#FF0000"/>
<stop offset="1" stop-color="#E14E16"/>
</radialGradient>
<radialGradient id="paint10_radial" cx="0" cy="0" r="1" gradientUnits="userSpaceOnUse" gradientTransform="translate(118.596 106.505) rotate(84.7515) scale(16.5912 11.068)">
<stop stop-color="#FF0000"/>
<stop offset="1" stop-color="#E14E16"/>
</radialGradient>
<radialGradient id="paint11_radial" cx="0" cy="0" r="1" gradientUnits="userSpaceOnUse" gradientTransform="translate(107.866 130.016) rotate(84.7515) scale(16.5912 11.068)">
<stop stop-color="#FF0000"/>
<stop offset="1" stop-color="#E14E16"/>
</radialGradient>
<radialGradient id="paint12_radial" cx="0" cy="0" r="1" gradientUnits="userSpaceOnUse" gradientTransform="translate(96.4708 135.352) rotate(129.752) scale(16.5912 11.068)">
<stop stop-color="#FF0000"/>
<stop offset="1" stop-color="#E14E16"/>
</radialGradient>
<radialGradient id="paint13_radial" cx="0" cy="0" r="1" gradientUnits="userSpaceOnUse" gradientTransform="translate(84.4185 135.203) rotate(144.752) scale(16.5912 11.068)">
<stop stop-color="#FF0000"/>
<stop offset="1" stop-color="#E14E16"/>
</radialGradient>
<radialGradient id="paint14_radial" cx="0" cy="0" r="1" gradientUnits="userSpaceOnUse" gradientTransform="translate(76.1148 130.968) rotate(144.752) scale(16.5912 11.068)">
<stop stop-color="#FF0000"/>
<stop offset="1" stop-color="#E14E16"/>
</radialGradient>
<radialGradient id="paint15_radial" cx="0" cy="0" r="1" gradientUnits="userSpaceOnUse" gradientTransform="translate(68.0957 126.923) rotate(144.752) scale(16.5912 11.068)">
<stop stop-color="#FF0000"/>
<stop offset="1" stop-color="#E14E16"/>
</radialGradient>
</defs>
</svg>
