<svg width="460" height="265" viewBox="0 0 460 265" fill="none" xmlns="http://www.w3.org/2000/svg">
<path d="M245.91 259.383C247.11 259.383 251.112 255.865 251.912 253.175L244.109 251.933C244.71 254.624 244.47 259.383 245.91 259.383Z" fill="#BCB856"/>
<path d="M234.471 251.518C237.441 252.835 243.47 252.835 245.875 251.518L242.759 249.996L240.473 246.552C239.058 248.893 233.146 250.931 234.471 251.518Z" fill="#BCB856"/>
<path d="M237.154 244.278C238.354 247.382 241.355 249.245 243.156 247.382L244.357 244.899L246.157 241.795C243.156 239.312 236.619 242.895 237.154 244.278Z" fill="#BCB856"/>
<path d="M198.14 251.728C199.34 251.728 203.341 248.21 204.142 245.52L196.339 244.278C196.939 246.968 196.699 251.728 198.14 251.728Z" fill="#BCB856"/>
<path d="M184.934 244.899C187.905 246.216 193.934 246.216 196.339 244.899L193.222 243.377L190.937 239.932C189.522 242.273 183.61 244.312 184.934 244.899Z" fill="#BCB856"/>
<path d="M188.251 237.215C189.451 240.319 190.937 240.553 192.738 238.691L193.938 236.207L197.254 234.732C194.253 232.249 187.716 235.832 188.251 237.215Z" fill="#BCB856"/>
<path d="M122.428 245.551C125.02 245.656 125.048 244.565 127.504 243.64L123.994 242.74L122.045 240.831C121.532 243.005 120.976 245.492 122.428 245.551Z" fill="#BCB856"/>
<path d="M117.977 240.333C119.986 242.179 120.624 241.356 123.108 242.316L120.814 239.231L120.335 236.432C118.699 237.76 116.851 239.299 117.977 240.333Z" fill="#BCB856"/>
<path d="M120.151 232.762C120.501 235.42 121.545 235.259 122.852 237.601L123.1 233.868L124.579 231.551C122.42 231.407 119.955 231.273 120.151 232.762Z" fill="#BCB856"/>
<path d="M131.926 261.867C135.659 261.943 135.728 260.359 139.295 258.944L134.26 257.74L131.503 255.027C130.705 258.199 129.835 261.825 131.926 261.867Z" fill="#BCB856"/>
<path d="M122.372 256.058C125.855 257.45 126.444 255.985 130.264 255.917L125.931 253.005L124.237 249.48C122.438 252.178 120.421 255.278 122.372 256.058Z" fill="#BCB856"/>
<path d="M120.798 247.677C121.374 251.492 122.895 251.288 124.862 254.676L125.134 249.338L127.238 246.058C124.079 245.796 120.476 245.539 120.798 247.677Z" fill="#BCB856"/>
<path d="M442.145 150.301C441.665 151.791 430.741 166.235 425.339 173.271H431.341C438.544 163.338 442.745 148.439 442.145 150.301Z" fill="#9C340C"/>
<path d="M437.943 150.46C437.463 151.95 430.14 166.394 424.738 173.43H430.741C436.743 163.338 438.543 148.598 437.943 150.46Z" fill="#9C340C" fill-opacity="0.8"/>
<path d="M77.209 133.539C79.0097 130.642 81.869 124.848 83.2112 124.847C84.4117 124.847 88.013 136.643 87.4128 137.264" stroke="#982F08" stroke-width="0.3"/>
<path d="M101.218 131.056C99.2174 126.089 95.192 115.56 96.4163 114.294C97.6167 113.052 108.821 116.984 114.423 119.26" stroke="#982F08" stroke-width="0.3"/>
<path d="M363.516 137.264C368.918 135.194 380.202 131.552 382.123 133.539C382.923 133.953 383.803 137.14 380.922 146.576" stroke="#9C340C" stroke-width="0.3"/>
<path d="M59.2021 123.606C61.8031 122.157 67.2451 119.26 68.2055 119.26C69.1659 119.26 68.6057 126.296 68.2055 129.814C70.0062 126.917 74.0877 121.371 76.0084 122.364C77.9291 123.358 77.8091 130.435 77.2089 134.16C79.0095 130.642 82.2507 124.351 83.2111 124.847C84.2462 125.383 87.5125 135.149 87.6232 137.83C89.2972 132.494 92.4948 123.13 93.4149 123.606C94.6154 124.227 98.8169 127.952 103.018 136.022C100.618 130.021 95.9358 117.398 96.416 114.914C96.8962 112.431 108.621 116.777 114.423 119.26C110.021 109.948 102.178 90.5783 106.02 87.5984C108.42 88.2192 108.42 86.9776 113.823 88.2192C111.422 73.7334 108.901 48.7352 115.623 52.2118C123.138 56.0981 126.333 54.5228 140.232 75.904C137.631 62.2122 138.432 36.0705 148.035 27.9998C152.237 26.1374 159.44 30.4831 172.644 42.8995C175.445 32.7594 191.972 11.1136 206.857 5.65039C214.06 10.2031 229.186 22.04 232.067 32.9664C240.07 24.2749 257.11 14.6158 263.005 11.3875C273.209 5.80017 266.552 27.2292 273.482 59.6615C278.884 56.5575 310.216 44.2653 315.498 44.7619C320.78 45.2586 319.699 67.7322 318.499 78.9069L340.107 75.904C339.507 80.8368 338.306 92.0682 338.306 97.5314L355.112 95.669C355.713 98.1523 351.151 112.307 349.71 121.743C353.312 119.881 368.077 113.424 369.518 114.914C371.21 116.664 364.425 135.4 362.602 137.662C365.099 136.505 380.518 131.327 382.123 133.539C383.543 135.498 382.349 144.026 380.013 148.148C384.021 145.41 391.02 141.83 388.125 147.818C383.923 156.509 385.724 159.199 383.923 165.821C374.92 159.613 353.192 143.969 338.306 131.056C319.699 114.914 298.691 99.3939 296.291 96.2898C293.89 93.1857 251.874 69.5946 215.861 65.8697C192.452 63.1795 138.672 72.2021 110.821 127.331C106.02 137.678 88.9732 150.425 59.2021 123.606Z" fill="#E57E44"/>
<path d="M374.92 143.472C374.92 144.962 368.518 146.162 365.316 146.576C368.318 144.3 374.44 139.747 374.92 139.747C375.52 139.747 374.92 141.61 374.92 143.472Z" fill="#DD6D2E"/>
<path d="M325.702 93.8065C325.101 95.0482 319.099 98.1523 318.499 98.1523L326.902 88.2192C326.702 89.6678 326.182 92.8132 325.702 93.8065Z" fill="#B6502A"/>
<path d="M335.305 106.223C334.825 107.216 326.702 109.948 322.701 111.189L323.301 109.948C325.502 109.327 330.504 107.34 332.904 104.36C335.906 100.636 335.305 98.1522 335.305 97.5314C335.305 97.0348 335.706 96.9106 335.906 96.9106C335.906 99.6008 335.786 105.23 335.305 106.223Z" fill="#F0A57B"/>
<path d="M335.305 100.015C334.825 104.485 326.702 108.913 322.701 110.569L326.902 104.981C329.783 104.485 332.104 101.463 332.904 100.015L334.705 91.3233L335.305 90.7025C335.505 91.9441 335.786 95.5448 335.305 100.015Z" fill="#DD6D2E"/>
<path d="M349.71 106.844C349.23 111.314 344.308 109.948 341.907 110.569L340.707 109.948L341.307 109.327C343.708 108.085 347.109 108.292 347.91 106.844L349.11 102.498L352.111 99.3939C352.311 100.636 350.191 102.374 349.71 106.844Z" fill="#DD6D2E"/>
<path d="M356.313 129.814C353.312 133.539 352.712 133.539 350.311 134.16L349.11 133.539L348.51 132.297C350.911 131.056 350.911 131.056 352.712 129.814L355.713 127.952L357.514 126.089L360.515 122.985C360.715 124.227 359.097 126.359 356.313 129.814Z" fill="#DD6D2E"/>
<path d="M283.577 67.6654C282.137 68.9738 278.284 75.8028 280.685 75.1819C286.649 66.5514 291.352 61.0316 290.888 60.9031C290.425 60.7746 285.202 66.1877 283.577 67.6654Z" fill="#DD6D2E"/>
<path d="M262.078 60.2823C261.158 62.021 259.377 69.4346 261.428 68.0018C264.178 57.7819 266.158 54.0309 265.679 54.0742C265.201 54.1175 263.117 58.3188 262.078 60.2823Z" fill="#DD6D2E"/>
<path d="M229.666 62.1448C230.466 62.3518 232.187 62.5173 232.667 61.524C233.126 60.5743 232.159 56.1443 231.548 53.7676L229.666 62.1448Z" fill="#F0A57B"/>
<path d="M242.871 65.2491C242.39 66.2424 239.269 67.732 238.669 67.1114L242.238 54.6935C243.931 47.4579 245.81 40.7976 245.271 44.1411C248.273 41.037 243.33 64.2995 242.871 65.2491Z" fill="#F0A57B"/>
<path d="M258.68 58.6876C259.28 59.3082 260.397 58.1716 260.877 57.1783C261.337 56.2286 263.278 45.3827 262.078 45.6502L258.68 58.6876Z" fill="#F0A57B"/>
<path d="M258.68 58.6876C259.28 59.3082 260.397 58.1716 260.877 57.1783C261.337 56.2286 263.278 45.3827 262.078 45.6502L258.68 58.6876Z" fill="#F0A57B"/>
<path d="M340.107 75.8028C338.907 90.7024 337.106 117.398 330.503 124.847" stroke="#9C340C" stroke-width="0.5"/>
<path d="M340.107 75.8028C332.504 76.8375 317.418 79.031 317.899 79.5277C318.499 80.1485 293.289 90.7024 294.49 94.4273" stroke="#9C340C" stroke-width="0.5"/>
<path d="M209.258 62.1448C210.699 60.6548 210.459 36.0704 206.857 26.7582L205.057 35.4496V59.6615C205.057 60.6962 207.818 63.6348 209.258 62.1448Z" fill="#DD6D2E"/>
<path d="M237.792 67.7322C239.869 70.4431 243.889 54.0682 245.272 44.1411L244.671 39.7955L243.471 44.1412L235.354 61.9395C234.854 62.8356 236.527 66.0808 237.792 67.7322Z" fill="#DD6D2E"/>
<path d="M227.265 62.7656C229.342 65.4765 230.684 59.0348 232.066 49.1076L228.465 53.4534L226.064 56.5575L224.264 60.9032C223.763 61.7993 225.999 61.1142 227.265 62.7656Z" fill="#DD6D2E"/>
<path d="M248.873 70.2154C250.95 72.9263 257.694 49.1016 259.077 39.1745L260.277 21.7916L253.675 42.8994L244.672 66.4905C244.171 67.3865 247.608 68.564 248.873 70.2154Z" fill="#DD6D2E"/>
<path d="M197.254 36.6913C196.053 41.6578 193.772 52.3359 194.253 55.3158C194.733 58.2957 196.453 44.1411 197.254 36.6913Z" fill="#DD6D2E"/>
<path d="M190.651 41.037C191.131 43.0236 190.051 52.2117 189.451 56.5575C187.53 55.0675 189.051 43.1064 190.051 37.3121C190.051 37.726 190.171 39.0504 190.651 41.037Z" fill="#DD6D2E"/>
<path d="M197.254 36.6913C196.053 41.6578 193.772 52.3359 194.253 55.3158C194.733 58.2957 196.453 44.1411 197.254 36.6913Z" stroke="black"/>
<path d="M190.651 41.037C191.131 43.0236 190.051 52.2117 189.451 56.5575C187.53 55.0675 189.051 43.1064 190.051 37.3121C190.051 37.726 190.171 39.0504 190.651 41.037Z" stroke="black"/>
<path d="M14.1854 124.847C8.42324 123.854 2.98121 128.986 0.980469 131.676C3.38136 147.197 48.9984 143.472 51.9995 143.472C71.2066 168.305 112.022 182.584 113.823 182.584C115.623 182.584 129.428 201.829 130.029 203.691C130.629 205.554 127.628 244.665 124.627 244.665C122.226 244.665 122.426 249.632 122.826 252.115C139.632 264.531 153.437 255.84 155.838 252.115C157.759 249.135 155.038 245.079 153.437 243.424C154.238 235.974 156.078 220.081 157.039 216.108C157.999 212.134 156.639 197.483 155.838 190.654C155.038 190.033 154.158 189.164 157.039 190.654C159.92 192.144 185.449 192.103 197.854 191.896C196.053 198.104 208.658 228.524 199.655 231.628C190.651 234.732 188.851 242.182 190.051 244.665C191.251 247.149 220.662 244.665 223.063 243.424C224.984 242.43 223.063 238.043 221.863 235.974V212.383C221.863 208.037 226.665 200.587 227.265 200.587C227.865 200.587 246.472 226.041 248.873 226.041C251.274 226.041 251.274 234.111 250.073 234.111C248.873 234.111 239.269 245.286 238.069 249.632C236.868 253.978 259.677 254.598 260.877 254.598C262.078 254.598 275.883 253.357 277.083 242.182C278.284 231.007 270.481 224.178 268.68 223.558C267.24 223.061 265.679 215.073 265.079 211.141C269.28 202.45 256.076 185.067 255.475 182.584C254.995 180.597 265.279 171.409 270.481 167.063C332.304 167.063 388.725 185.688 394.127 185.067C399.529 184.446 440.944 188.792 452.349 182.584C461.472 177.617 460.552 173.478 458.951 172.03C392.927 175.755 394.902 172.167 377.921 161.476C364.116 152.784 317.699 114.294 296.291 95.669C167.242 15.5835 114.423 117.398 109.021 129.814C104.699 139.747 91.6143 139.747 85.612 138.505C78.2093 136.229 65.999 121.948 51.9995 116.156C45.9973 113.673 45.9973 114.294 42.3959 114.294C33.9884 114.294 30.1149 114.925 27.3903 118.639C22.5885 123.606 16.5863 124.847 14.1854 124.847Z" fill="#33B37A"/>
<path d="M60.403 140.368C59.4426 138.878 56.0013 139.747 53.2002 139.747C50.7993 142.23 51.3995 141.61 51.9998 143.472C72.4074 168.305 107.821 180.721 109.621 180.721C111.062 180.721 109.021 168.305 107.821 162.096C92.4149 155.474 61.3633 141.858 60.403 140.368Z" fill="#7EC4A0"/>
<path d="M154.038 164.58C150.677 166.07 151.037 171.409 151.637 173.892C157.399 182.832 156.439 188.378 155.238 190.033C192.452 191.896 220.062 188.171 221.263 183.825C222.463 179.479 221.263 161.476 217.662 159.613C214.06 157.751 158.239 162.717 154.038 164.58Z" fill="#7DC9A5"/>
<path d="M273.022 165.676L272.882 165.821C272.912 165.769 272.959 165.721 273.022 165.676L286.087 152.163C290.889 147.197 387.525 173.271 390.526 177.617C407.932 179.893 443.826 183.949 448.147 181.963C447.947 182.79 447.187 184.446 445.746 184.446C443.946 184.446 440.944 186.929 400.129 185.067H392.927L333.504 172.65C314.308 169.409 275.971 163.588 273.022 165.676Z" fill="#7DC9A5"/>
<path d="M157.639 57.7991C156.198 54.8192 158.639 50.7632 160.04 49.1076C162.441 60.5307 162.641 66.6975 162.441 68.353C161.44 66.0767 159.079 60.779 157.639 57.7991Z" fill="#DD6D2E"/>
<path d="M166.042 62.7656C166.522 63.2623 164.641 65.8697 163.641 67.1114C162.174 56.9713 158.919 36.6913 157.639 36.6913C156.358 36.6913 157.906 35.0358 158.839 34.208C161.84 53.4534 165.442 62.1448 166.042 62.7656Z" fill="#DD6D2E"/>
<path d="M157.639 57.7991C156.198 54.8192 158.639 50.7632 160.04 49.1076C162.441 60.5307 162.641 66.6975 162.441 68.353C161.44 66.0767 159.079 60.779 157.639 57.7991Z" stroke="black"/>
<path d="M166.042 62.7656C166.522 63.2623 164.641 65.8697 163.641 67.1114C162.174 56.9713 158.919 36.6913 157.639 36.6913C156.358 36.6913 157.906 35.0358 158.839 34.208C161.84 53.4534 165.442 62.1448 166.042 62.7656Z" stroke="black"/>
<path d="M106.02 126.089C103.419 123.606 98.3367 118.267 98.8169 116.777M102.418 118.018C103.018 117.811 105.299 118.267 109.621 121.743" stroke="#B6502A" stroke-width="0.7"/>
<path d="M91.0142 136.022C91.0142 134.367 91.2542 130.311 92.2146 127.331M94.0153 126.71C94.0153 130.435 94.1353 137.885 94.6155 137.885M95.8159 128.572C97.0164 130.642 99.4173 135.029 99.4173 136.022" stroke="#B6502A" stroke-width="0.5"/>
<path d="M64.6929 122.364C65.8933 121.123 66.6136 121.123 67.0938 121.123C66.9742 121.37 66.8895 121.556 66.8309 121.692C66.8099 121.954 66.579 122.279 66.8309 121.692C66.8541 121.403 66.6218 121.191 65.2045 122.364C64.7424 122.747 64.6929 122.985 64.6929 122.364Z" fill="#B6502A"/>
<path d="M72.013 127.312C71.9537 127.256 71.8855 127.223 71.807 127.223C71.5264 126.932 72.462 125.992 73.6076 124.847C73.9548 124.501 73.9943 124.493 73.9768 124.531C73.9608 124.567 73.8973 124.641 73.9768 124.531C73.9943 124.493 73.9548 124.501 73.6076 124.847C73.6076 125.013 72.5426 126.463 72.0508 127.352C72.1524 127.471 72.225 127.656 72.277 127.835C72.3529 127.806 72.4072 127.822 72.4072 127.952C72.4072 128.698 72.4072 128.284 72.277 127.835C72.1004 127.902 71.807 128.218 71.807 127.952C71.807 127.876 71.8476 127.758 71.9165 127.612L72.013 127.312Z" fill="#B6502A"/>
<path d="M74.2079 124.227C73.5427 125.087 74.4224 124.033 73.6076 124.847M76.0085 124.847C75.6084 127.124 76.4887 130.683 76.0085 131.676M81.4106 127.331C81.4106 127.952 78.4095 131.676 78.4095 134.16M82.0108 128.572C82.491 128.572 82.611 133.539 82.611 136.022M85.0119 131.676C85.4121 132.918 86.0923 135.65 85.6122 136.643M73.6076 124.847C72.462 125.992 71.5264 126.932 71.807 127.223C72.4072 127.223 72.4072 129.193 72.4072 127.952C72.4072 127.523 71.807 128.333 71.807 127.952M73.6076 124.847C73.6076 125.062 71.807 127.449 71.807 127.952M72.4072 126.089L71.807 127.952M64.6929 122.364C65.8933 121.123 66.6136 121.123 67.0938 121.123C65.8933 123.606 68.2056 119.881 65.2045 122.364C64.7424 122.747 64.6929 122.985 64.6929 122.364Z" stroke="#B6502A" stroke-width="0.3"/>
<path d="M174.445 60.9032C173.485 59.9099 175.245 57.1783 176.246 55.9366C176.726 56.93 176.446 62.5587 176.246 65.2489C176.046 64.2142 175.405 61.8965 174.445 60.9032Z" fill="#DD6D2E"/>
<path d="M180.447 64.6281C179.57 65.2489 180.139 65.8771 178.924 65.2489C177.788 64.6611 178.047 62.1448 178.647 59.6615C178.047 56.5574 177.845 54.4011 178.647 54.0742C179.525 52.8326 181.97 63.3865 180.447 64.6281Z" fill="#DD6D2E"/>
<path d="M145.23 62.1409C145.13 62.3327 144.782 62.8646 144.434 62.1448C143.866 60.9693 142.562 60.3837 143.162 57.9004C146.235 54.695 146.633 50.0554 147.435 49.7285C148.313 48.4869 145.635 64.0073 144.963 62.867C145.105 62.4524 145.19 62.236 145.23 62.1409Z" fill="#DD6D2E"/>
<path d="M152.837 67.1113C151.637 68.9738 150.662 67.1821 150.062 65.9405C149.494 64.7649 149.836 64.628 150.436 62.1448C151.037 56.5574 152.035 50.6762 152.837 50.3493C153.715 49.1076 153.509 68.2516 152.837 67.1113Z" fill="#DD6D2E"/>
<path d="M164.841 59.6615C164.361 58.6682 164.241 50.1423 164.241 46.0035C165.442 46.0035 169.043 62.1448 168.443 62.1448C167.843 62.1448 165.442 60.9032 164.841 59.6615Z" fill="#DD6D2E"/>
<path d="M115.023 69.5947C116.217 71.8156 118.604 76.7016 118.604 78.4783C118.604 80.6992 125.223 90.6933 124.627 91.8037C124.324 92.3664 123.186 91.7746 122.696 91.5447C122.729 91.6252 122.758 91.7115 122.783 91.8037C122.345 91.3999 122.412 91.4117 122.696 91.5447C122.464 90.9791 122.043 90.7025 121.625 90.7025C121.148 90.7025 118.207 83.2902 116.814 80.144L115.023 69.5947Z" fill="#DD6D2E"/>
<path d="M127.628 83.2526C125.707 80.7694 125.627 74.3542 125.827 71.4571C129.669 80.8935 136.231 83.6665 139.032 83.8735V84.4943C139.632 85.1151 135.431 87.5984 135.431 86.9775C135.431 86.3567 130.029 86.3567 127.628 83.2526Z" fill="#DD6D2E"/>
<path d="M115.023 111.81C114.062 111.81 113.422 109.327 113.222 108.085C115.023 109.948 116.223 109.327 116.824 109.948C117.304 110.444 117.424 110.983 117.424 111.189C117.024 111.396 115.983 111.81 115.023 111.81Z" fill="#DD6D2E"/>
<path d="M106.02 121.743C105.059 121.743 103.819 119.881 103.619 118.639C105.419 118.639 107.82 120.502 108.42 121.123C108.901 121.619 108.42 121.536 108.42 121.743C108.02 121.95 106.98 121.743 106.02 121.743Z" fill="#DD6D2E"/>
<path d="M101.818 124.847C100.858 124.847 99.6171 121.122 99.417 119.881C98.8168 118.639 103.619 124.227 104.219 124.847C104.699 125.344 104.219 126.503 104.219 126.71C103.819 126.917 102.778 124.847 101.818 124.847Z" fill="#DD6D2E"/>
<path d="M92.8146 133.539C93.4162 132.917 92.8851 128.89 93.4148 127.952C93.6728 126.778 94.0388 135.428 94.1134 136.192C94.1731 136.803 93.5567 136.047 93.4458 136.183C93.0633 136.084 92.2144 134.16 92.8146 133.539Z" fill="#DD6D2E"/>
<path d="M97.6163 134.781C97.0147 134.158 95.7189 130.275 95.8156 129.193C95.5699 128.017 98.4371 133.5 98.8168 134.16C99.1205 134.687 98.9495 134.284 98.8168 135.401C97.6163 135.401 98.2165 135.401 97.6163 134.781Z" fill="#DD6D2E"/>
<path d="M117.589 100.636C117.109 99.6422 117.789 95.2551 118.189 93.1857C120.11 101.629 121.025 102.498 121.625 102.498C121.425 103.119 120.905 102.995 120.425 102.498C119.825 101.877 118.189 101.877 117.589 100.636Z" fill="#DD6D2E"/>
<path d="M186.45 67.1114C184.529 60.1582 176.446 48.073 172.645 42.8995C166.242 36.4844 153.641 26.9645 148.636 27.9999C145.634 28.6207 132.43 48.4869 142.633 86.9776" stroke="#982F08" stroke-width="0.5"/>
<path d="M114.423 119.26C110.221 111.396 102.538 93.1857 105.419 88.2192C109.221 86.7706 119.465 86.7292 130.029 98.1523" stroke="#982F08" stroke-width="0.5"/>
<path d="M87.4126 138.505C89.2133 133.332 92.9347 123.109 93.4148 123.606C94.0151 124.227 102.418 131.676 102.418 135.401" stroke="#982F08" stroke-width="0.5"/>
<path d="M77.209 133.539C77.8093 129.814 77.9293 123.358 76.0086 122.364C74.0879 121.371 71.807 124.434 70.0063 127.331" stroke="#982F08" stroke-width="0.5"/>
<path d="M335.305 128.572C333.865 127.579 356.313 118.018 369.518 114.914C369.518 122.985 361.595 146.328 356.313 145.334" stroke="#9C340C" stroke-width="0.5"/>
<path d="M338.306 97.5315C343.108 97.5315 353.912 95.0482 355.112 95.669C356.313 96.2899 349.71 120.502 349.71 121.123" stroke="#9C340C" stroke-width="0.3"/>
<path d="M318.499 78.9069C319.899 68.5599 320.3 47.2452 316.098 44.7619C312.697 44.9688 299.292 48.2385 272.882 59.6615" stroke="#982F08" stroke-width="0.3"/>
<path d="M232.067 32.9664C231.266 28.2068 223.664 16.2043 206.857 5.65039C199.855 8.3406 183.208 19.4325 172.645 42.2786" stroke="#982F08" stroke-width="0.3"/>
<path d="M113.822 87.5984C112.422 76.8375 110.461 55.1917 113.822 52.2117C116.223 52.2117 123.016 55.7245 124.626 56.5575C125.827 57.1783 135.63 68.9738 140.232 75.182" stroke="#982F08" stroke-width="0.3"/>
<path d="M62.8037 121.743C65.6048 120.295 67.7255 119.26 68.2057 119.26C68.8059 119.26 68.8059 125.468 68.2057 126.71" stroke="#982F08" stroke-width="0.2"/>
<path d="M200.855 46.6244C201.335 42.6511 203.056 38.1399 203.856 37.9329C204.456 37.9329 203.256 53.4534 203.856 54.0742C204.456 54.695 202.655 60.2824 202.055 61.524C201.455 62.7656 197.854 62.1448 198.454 62.1448C199.054 62.1448 200.255 51.5909 200.855 46.6244Z" fill="#F0A57B"/>
<path d="M190.651 44.1411C191.687 40.283 192.452 43.5203 193.052 44.7619C191.852 47.2452 192.658 53.8432 192.452 54.695C191.852 57.1783 191.252 55.9366 190.651 57.1783C190.051 58.4199 188.851 55.9366 189.451 55.9366C190.051 55.9366 187.65 55.3158 190.651 44.1411Z" fill="#F0A57B"/>
<path d="M128.228 94.4274C127.748 91.4474 121.626 71.664 118.625 62.1448C120.225 70.6294 123.546 87.8467 124.027 88.84C124.627 90.0816 124.627 94.4274 128.228 94.4274Z" fill="#B6502A"/>
<path d="M122.503 62.519L122.226 62.1448C122.315 62.2367 122.407 62.3626 122.503 62.519L137.832 83.2526C135.631 82.4249 130.629 79.7761 128.228 75.8028C125.449 71.2039 123.699 64.4756 122.503 62.519Z" fill="#B6502A"/>
<path d="M119.946 89.2057C119.904 89.271 119.863 89.3551 119.825 89.4608C118.035 87.9182 118.554 89.982 117.097 81.3902C118.16 84.1663 118.64 87.2084 119.946 89.2057C120.56 88.2475 121.47 91.3206 120.121 89.4608C120.061 89.3778 120.003 89.2927 119.946 89.2057Z" fill="#B6502A"/>
<path d="M116.224 109.327C114.805 107.231 113.765 104.546 113.02 101.877C112.753 103.222 112.378 106.19 113.02 107.309C113.662 108.427 115.423 109.12 116.224 109.327Z" fill="#B6502A"/>
<path d="M188.251 62.1448C187.667 61.1382 187.655 57.7173 187.927 53.4534C188.635 55.9367 190.051 61.0274 190.051 61.524C190.051 62.1448 188.574 63.2523 188.251 62.1448Z" fill="#B6502A"/>
<path d="M204.48 16.9224C204.472 16.8895 204.464 16.8571 204.457 16.8251C204.465 16.8501 204.472 16.8825 204.48 16.9224C205.087 19.4451 206.257 24.6666 206.257 26.1374C206.257 27.6274 205.223 32.9664 204.706 35.4497C204.75 26.108 204.711 18.1303 204.48 16.9224Z" fill="#B6502A"/>
<path d="M228.465 53.4534C229.645 53.4534 238.069 39.1746 235.668 39.1746C234.117 39.1746 229.329 48.8938 225.858 56.5575C226.334 55.5228 227.522 53.4534 228.465 53.4534Z" fill="#B6502A"/>
<path d="M152.837 67.7322C153.317 68.7255 154.638 67.7322 155.238 67.1114C155.573 63.6455 154.564 55.7454 153.515 49.1077C153.489 49.7285 153.438 51.2184 153.438 52.2118C153.438 53.4534 152.237 66.4906 152.837 67.7322Z" fill="#B6502A"/>
<path d="M165.442 55.3158C164.962 55.8125 167.243 58.8338 168.443 60.2824L166.642 52.2118C166.442 53.0395 165.922 54.8192 165.442 55.3158Z" fill="#B6502A"/>
<path d="M234.468 65.2489C233.868 65.042 232.787 64.5039 233.267 64.0073L236.268 57.7991L237.192 57.719C240.068 55.6881 243.531 38.6153 244.071 39.1746C244.419 41.3339 241.67 50.3493 237.806 57.6657C236.59 60.5245 235.404 63.1974 234.468 65.2489Z" fill="#B6502A"/>
<path d="M175.646 62.1448C175.166 62.6415 176.246 64.4212 176.846 65.2489C177.032 64.4798 177.014 62.5073 176.911 60.2824C176.689 60.6963 176.126 61.6482 175.646 62.1448Z" fill="#B6502A"/>
<path d="M265.679 61.524C266.16 63.014 263.775 65.042 262.523 65.8697L264.826 57.6657C264.91 58.331 265.199 60.0341 265.679 61.524Z" fill="#B6502A"/>
<path d="M111.422 92.5649C111.538 94.5983 112.001 98.222 113.02 101.877M115.023 67.1114C115.478 70.874 116.208 76.151 117.097 81.3902M117.097 81.3902C118.554 89.982 118.035 87.9182 119.825 89.4608C120.425 87.8053 121.562 91.4474 120.121 89.4608C118.681 87.4742 118.206 84.2873 117.097 81.3902ZM113.02 101.877C113.765 104.546 114.805 107.231 116.224 109.327C115.423 109.12 113.662 108.427 113.02 107.309C112.378 106.19 112.753 103.222 113.02 101.877ZM148.036 47.2452L146.835 62.1448M152.237 41.6579C152.6 43.5962 153.061 46.2336 153.515 49.1077M157.039 34.208C159.44 44.555 164.001 65.9939 163.041 68.9738M162.441 36.6913C163.041 38.5538 170.244 62.7657 169.043 64.0073M176.246 51.5909C176.369 52.6055 176.747 56.7602 176.911 60.2824M190.051 34.208C189.337 39.1302 188.326 47.1987 187.927 53.4534M199.055 23.0333C198.602 24.4361 196.448 43.4486 195.925 54.0742M196.053 60.9032C195.757 60.1371 195.753 57.5559 195.925 54.0742M204.457 60.9032C204.552 54.2016 204.665 44.224 204.706 35.4497M212.259 23.0333C212.86 35.0358 213.7 59.6616 212.259 62.1448M221.863 29.8623C221.863 35.0358 221.623 45.7552 220.663 47.2452M187.927 53.4534C187.655 57.7173 187.667 61.1382 188.251 62.1448C188.574 63.2523 190.051 62.1448 190.051 61.524C190.051 61.0274 188.635 55.9367 187.927 53.4534ZM196.654 60.9032L195.925 54.0742M204.706 35.4497C204.751 25.7999 204.708 17.6055 204.457 16.8251C205.057 19.3084 206.257 24.6474 206.257 26.1374C206.257 27.6274 205.223 32.9664 204.706 35.4497ZM223.664 61.524C224.279 60.0911 225.031 58.3826 225.858 56.5575M225.858 56.5575C229.329 48.8938 234.117 39.1746 235.668 39.1746C238.069 39.1746 229.645 53.4534 228.466 53.4534C227.522 53.4534 226.334 55.5228 225.858 56.5575ZM250.074 29.8623C248.473 31.1039 245.512 33.9597 246.472 35.4497M244.071 67.7322C249.673 52.8326 260.637 22.6608 259.677 21.1709M253.675 67.7322C257.276 56.9714 264.479 35.0772 264.479 33.5872M266.88 50.3493L264.826 57.6657M261.478 69.5947L262.523 65.8697M272.282 65.8697C275.883 64.0073 275.883 65.8697 283.086 58.4199M279.485 77.6653C283.486 71.4571 292.329 58.7924 295.691 57.7991M289.688 81.3902L308.295 54.0742M297.491 87.5984C299.692 85.322 305.654 77.417 311.897 64.0073M308.895 83.8735C311.296 80.3555 309.736 75.5545 310.696 74.5612M302.293 97.5315C305.694 92.358 322.461 80.2727 323.901 80.7694M311.897 106.844C311.897 104.981 332.304 82.011 332.304 81.3902M320.9 113.052C322.901 110.569 331.104 97.5315 335.906 87.5984M335.906 114.294C338.707 111.189 350.191 101.132 352.112 98.1523M360.515 147.818C365.317 147.818 377.561 137.512 378.521 136.022M375.52 149.059C377.121 146.99 380.442 142.479 380.922 140.989M345.509 134.781C347.71 132.918 364.836 121.371 365.317 119.881M153.515 49.1077C154.564 55.7454 155.573 63.6455 155.238 67.1114C154.638 67.7322 153.317 68.7255 152.837 67.7322C152.237 66.4906 153.438 53.4534 153.438 52.2118C153.438 51.2184 153.489 49.7285 153.515 49.1077ZM161.841 57.7991C161.24 57.3852 161.24 56.5575 160.64 55.3158C159.791 53.5599 160.116 50.1892 160.116 48.3267M236.268 57.7991L233.267 64.0073C232.787 64.5039 233.868 65.042 234.468 65.2489C235.404 63.1974 236.59 60.5245 237.806 57.6657M236.268 57.7991L237.806 57.6657M236.268 57.7991C239.27 59.6616 243.471 38.5538 244.071 39.1746C244.419 41.3339 241.67 50.3493 237.806 57.6657M176.911 60.2824C177.014 62.5073 177.032 64.4798 176.846 65.2489C176.246 64.4212 175.166 62.6415 175.646 62.1448C176.126 61.6482 176.689 60.6963 176.911 60.2824ZM262.523 65.8697C263.775 65.042 266.16 63.014 265.679 61.524C265.199 60.0341 264.91 58.331 264.826 57.6657M262.523 65.8697L264.826 57.6657M118.625 62.1448C121.626 71.664 127.748 91.4474 128.228 94.4274C124.627 94.4274 124.627 90.0816 124.027 88.84C123.546 87.8467 120.225 70.6294 118.625 62.1448ZM122.226 62.1448L137.832 83.2526C135.631 82.4249 130.629 79.7761 128.228 75.8028C125.227 70.8363 123.426 63.3865 122.226 62.1448ZM168.443 60.2824C167.243 58.8338 164.962 55.8125 165.442 55.3158C165.922 54.8192 166.442 53.0395 166.642 52.2118L168.443 60.2824Z" stroke="#B6502A" stroke-width="0.7"/>
<path d="M144.434 60.2823C142.993 61.7723 145.434 61.7309 146.835 61.524L146.835 57.7991L144.434 60.2823Z" fill="#B6502A" stroke="#B6502A"/>
<path d="M250.674 41.6578C249.473 41.6578 243.471 65.2489 244.672 65.8697C248.273 55.9366 255.355 36.0704 254.875 36.0704C254.395 36.0704 251.874 39.7953 250.674 41.6578Z" fill="#DD6D2E"/>
<path d="M261.477 45.3827C257.876 59.0407 254.875 62.1448 258.476 59.6616C260.877 49.7285 264.358 37.9329 263.878 37.9329C263.398 37.9329 262.077 42.8995 261.477 45.3827Z" fill="#DD6D2E"/>
<path d="M299.892 60.2824C298.732 59.961 289.437 78.8752 290.441 79.7962C296.405 71.1656 306.358 56.0652 305.894 55.9366C305.43 55.8081 301.517 58.8047 299.892 60.2824Z" fill="#DD6D2E"/>
<path d="M303.493 74.5612C302.334 74.2398 298.888 82.9525 299.892 83.8735C305.856 75.2429 311.76 64.7566 311.296 64.6281C310.833 64.4996 305.119 73.0835 303.493 74.5612Z" fill="#DD6D2E"/>
<path d="M277.683 65.8698L277.684 65.8697C278.884 62.7657 281.749 61.0317 281.285 60.9032C280.821 60.7746 276.483 65.2489 274.082 65.2489C274.082 66.4906 274.082 66.4906 277.683 65.8698Z" fill="#DD6D2E"/>
<path d="M217.661 65.2489C213.82 39.9196 248.473 18.2737 266.28 10.6169C267.48 11.0308 269.761 14.2177 269.281 23.6541C270.281 34.8288 272.402 57.4266 272.882 58.4199C273.482 59.6616 269.881 80.1486 269.281 80.7694" stroke="#982F08" stroke-width="0.5"/>
<path d="M120.425 101.877C121.426 102.291 123.546 102.746 124.027 101.256C124.49 99.817 119.935 95.0403 117.565 92.9445L120.425 101.877Z" fill="#B6502A"/>
<path d="M250.074 62.1448C250.074 65.1248 246.072 66.6975 244.071 67.1114L252.474 45.3828C252.674 46.8313 250.074 59.1649 250.074 62.1448Z" fill="#C0572B"/>
<path d="M369.518 155.268C374.32 147.818 384.324 145.128 388.725 144.714C388.925 144.921 389.205 145.583 388.725 146.576C388.125 147.818 384.524 157.751 383.923 165.201" stroke="#9C340C" stroke-width="0.5"/>
<path d="M261.478 62.1448C259.677 66.4906 261.477 67.7322 260.277 67.1114C259.077 66.4906 260.277 62.1448 261.478 62.1448Z" fill="#F0A57B"/>
<path d="M314.297 90.0816C313.817 91.0749 307.695 93.8065 304.694 95.0482C308.895 91.5302 317.419 84.4943 317.899 84.4943C318.499 84.4943 314.898 88.84 314.297 90.0816Z" fill="#B6502A"/>
<path d="M314.898 82.6318C313.097 82.011 305.294 93.1857 305.294 93.8066C309.896 90.2886 319.099 83.1285 319.099 82.6318C319.099 82.1352 316.298 82.4249 314.898 82.6318Z" fill="#DD6D2E"/>
<path d="M323.901 87.5984C322.94 87.5984 319.099 95.0482 317.298 98.7731L326.902 87.5984H323.901Z" fill="#B6502A"/>
<path d="M332.304 101.256C330.863 103.74 327.702 104.774 326.302 104.981L334.705 90.7025C334.505 93.1857 333.745 98.7731 332.304 101.256Z" fill="#B6502A"/>
<path d="M286.687 71.4571C286.207 72.947 281.885 75.8028 280.084 77.0444L281.885 74.5611L283.686 72.0779L287.287 67.1113C287.287 67.9391 287.167 69.9671 286.687 71.4571Z" fill="#B6502A"/>
<path d="M308.295 83.2526C307.865 83.0305 309.495 80.7693 310.095 79.5277L310.095 82.6318C310.096 83.2526 309.495 83.8734 308.295 83.2526Z" fill="#B6502A"/>
<path d="M348.51 105.602C347.91 108.706 347.91 106.223 339.507 110.569C341.308 107.671 345.149 101.753 346.109 101.256C347.07 100.76 348.51 101.049 349.11 101.256C349.11 101.67 348.99 103.119 348.51 105.602Z" fill="#B6502A"/>
<path d="M320.9 86.9775C320.9 85.4876 326.102 84.7012 328.703 84.4943L330.503 83.2526L326.902 87.5983L323.301 88.2192L316.698 99.3939C318.499 95.462 320.9 88.4675 320.9 86.9775Z" fill="#DD6D2E"/>
<path d="M281.885 67.1114C281.885 65.6214 286.287 63.5934 288.487 62.7656L280.685 72.0779C281.085 71.0432 281.885 68.6013 281.885 67.1114Z" fill="#F0A57B"/>
<path d="M295.69 61.524C295.69 60.5306 304.093 55.9366 303.493 57.7991C301.092 57.7991 293.889 70.6293 290.288 78.286V75.8028C290.288 74.5611 295.69 62.7656 295.69 61.524Z" fill="#F0A57B"/>
<path d="M299.892 75.182C299.892 74.1887 305.294 72.6985 304.693 74.561C302.292 74.561 301.692 77.0444 299.291 84.4942C298.091 83.8734 296.89 84.4942 297.491 83.2526C298.028 82.142 299.892 76.4236 299.892 75.182Z" fill="#F0A57B"/>
<path d="M308.483 86.8569C308.731 85.8974 310.481 84.1689 311.951 85.0469C309.25 89.0093 308.742 87.8416 304.559 94.3948C303.241 96.459 303.254 95.0485 304.144 94.0098C304.941 93.0808 308.172 88.0562 308.483 86.8569Z" fill="#F0A57B"/>
<path d="M318.118 90.3486C318.366 89.3891 319.429 86.7204 320.9 87.5984C320.9 88.2192 320.881 91.599 316.698 98.1523C315.381 100.216 314.007 99.8117 314.898 98.7731C315.694 97.8441 317.807 91.5479 318.118 90.3486Z" fill="#F0A57B"/>
<path d="M342.819 101.657C343.436 100.896 345.584 101.156 346.109 101.256C343.708 103.119 344.368 104.329 340.167 109.916C338.129 111.211 337.106 111.189 337.766 109.916C338.333 108.822 342.047 102.608 342.819 101.657Z" fill="#F0A57B"/>
<path d="M358.113 127.331C358.113 126.71 359.038 128.371 358.113 128.572C357.238 130.168 358.557 130.863 352.466 134.09C350.09 134.373 350.392 134.405 351.511 133.539C352.472 132.795 358.113 128.572 358.113 127.331Z" fill="#F0A57B"/>
<path d="M374.92 143.472C374.92 142.851 375.52 144.714 374.92 144.714C373.719 145.334 375.609 143.349 369.518 146.576C367.142 146.859 365.791 147.033 367.117 146.576C368.917 145.955 374.92 144.714 374.92 143.472Z" fill="#F0A57B"/>
<path d="M356.313 124.227C354.392 124.227 352.111 128.365 350.911 130.435L358.714 124.847C358.714 124.641 358.233 124.227 356.313 124.227Z" fill="#B6502A"/>
<path d="M377.321 158.992C379.121 155.268 383.323 147.818 385.724 147.818" stroke="#BF582F" stroke-width="0.5"/>
<path d="M373.119 138.505C372.159 138.505 366.717 143.886 364.116 146.576L369.518 143.472L374.92 139.126C374.72 138.919 374.079 138.505 373.119 138.505Z" fill="#B6502A"/>
<path d="M374.32 142.23C374.32 143.224 369.118 145.127 366.517 145.955L374.92 139.747C374.72 140.161 374.32 141.237 374.32 142.23Z" fill="#B6502A"/>
<path d="M380.322 149.68C379.362 149.68 378.722 154.233 378.521 156.509L383.323 149.059C382.723 149.266 381.283 149.68 380.322 149.68Z" fill="#BF582F"/>
<path d="M377.921 149.68C377.921 147.818 382.723 149.059 383.323 149.059C382.523 149.266 380.802 149.68 380.322 149.68C379.842 149.68 378.921 153.819 378.521 155.888C378.321 156.095 377.921 156.385 377.921 155.888V149.68Z" fill="#E78B57"/>
<path d="M427.739 142.851C427.259 143.348 412.534 162.717 406.131 172.65L413.334 173.271C416.887 164.752 424.795 149.84 427.459 144.669C428.095 143.435 427.832 142.755 427.739 142.851Z" fill="#9C340C"/>
<path d="M422.338 143.472C421.858 143.969 410.733 162.717 404.331 172.65H410.934C414.487 164.131 419.674 150.505 422.338 145.334C422.974 144.1 422.43 143.376 422.338 143.472Z" fill="#9C340C" fill-opacity="0.8"/>
<path d="M31.5913 125.468C30.6309 124.475 31.1911 122.985 31.5913 122.364C34.5924 119.881 35.7929 122.364 36.3931 122.364C36.9933 122.364 35.7929 126.089 35.1926 126.71C34.5924 127.331 32.7917 126.71 31.5913 125.468Z" fill="#2F261D" stroke="black" stroke-width="0.1"/>
<path d="M6.38232 138.505C8.78322 138.712 14.0652 138.505 15.9859 136.022" stroke="#2F261D"/>
<path d="M6.38219 127.331C5.98204 127.331 5.54188 127.455 6.98242 127.952C8.42295 128.448 7.18249 127.745 6.38219 127.331Z" stroke="#2F261D"/>
<path d="M250.073 104.981C242.27 108.706 225.704 120.253 221.863 136.643C218.021 153.033 220.262 169.96 221.863 176.375" stroke="#62C6A4"/>
<path d="M146.835 156.509C147.835 162.303 150.196 174.265 151.637 175.755C153.437 177.617 156.439 180.721 155.238 189.413" stroke="#1C875B"/>
<path d="M287.888 134.16C288.088 138.298 287.648 147.569 284.286 151.543C280.085 156.509 268.08 163.959 271.082 165.821" stroke="#169079"/>
<path d="M154.037 89.4608C150.196 90.9508 145.234 88.84 143.233 87.5983C152.357 75.6786 175.846 68.5599 186.45 66.4905C187.25 66.6975 188.85 67.4838 188.85 68.9738C188.85 70.8363 180.447 74.5612 178.647 76.4236C176.846 78.2861 161.84 80.1485 160.04 79.5277C158.239 78.9069 158.839 87.5983 154.037 89.4608Z" fill="#E48956"/>
<path d="M232.667 77.6652C223.063 73.1953 219.062 67.9391 218.261 65.8697C219.222 62.3931 251.474 72.6987 268.08 78.9069C268.28 80.3554 269.76 84.2459 269.28 83.2526C268.68 82.0109 261.477 80.7693 259.076 81.3901C256.676 82.0109 244.671 83.2526 232.667 77.6652Z" fill="#E48956"/>
<path d="M125.227 230.387C125.707 230.387 126.227 208.037 126.427 197.483L130.029 202.45C130.629 206.175 129.668 218.591 128.228 231.007C126.787 243.424 125.027 244.665 124.627 244.045C113.823 238.457 124.627 230.387 125.227 230.387Z" fill="#1E8557"/>
<path d="M223.663 188.792C222.703 190.282 206.857 191.896 199.054 192.517C196.653 190.033 199.654 208.037 200.855 208.658C201.815 209.155 202.856 220.867 203.256 226.662C202.655 228.524 201.455 230.386 200.855 231.007C200.255 231.628 194.853 233.491 192.452 236.595C190.051 239.699 190.051 241.561 190.051 244.665C190.051 247.149 212.059 244.872 223.063 243.424C224.504 242.927 222.863 238.25 221.863 235.974V208.037C223.663 205.761 226.664 200.587 224.264 198.104C221.262 195 224.864 186.929 223.663 188.792Z" fill="#1E8557"/>
<path d="M295.09 107.465C293.65 104.981 294.29 97.1175 294.49 93.8065L330.503 124.227C329.903 124.847 328.463 126.834 327.502 127.331C326.302 127.952 318.499 124.847 318.499 122.985C318.499 121.123 315.498 118.018 314.297 118.018C313.097 118.018 296.891 110.569 295.09 107.465Z" fill="#E48956"/>
<path d="M158.84 78.9069C149.236 80.1485 151.637 81.3902 143.834 91.9441C145.034 93.1857 154.038 89.4608 158.84 86.9775C161.524 85.5893 171.034 80.7038 172.645 80.1485C176.246 78.9069 190.051 75.8028 190.051 73.9404C190.051 72.0779 192.452 71.4571 190.051 68.353C187.65 65.2489 168.443 77.6653 158.84 78.9069Z" fill="#0E8D56"/>
<path d="M226.665 69.5947C218.536 64.1609 216.307 65.4212 214.66 73.3195C221.863 78.2861 224.444 77.6168 229.666 78.9069C232.585 79.6281 241.435 82.6206 243.014 83.266C246.544 84.7092 259.72 87.1627 260.877 85.736C262.035 84.3092 269.791 86.6059 269.881 82.6319C269.971 78.6578 234.793 75.0284 226.665 69.5947Z" fill="#0E8D56"/>
<path d="M298.692 103.74C294.49 94.4273 291.447 91.9338 287.287 98.7731C292.413 105.988 293.011 108.751 297.491 111.81C299.996 113.521 306.053 123.773 307.323 124.938C310.163 127.543 322.942 130.124 324.501 129.193C326.061 128.262 327.904 131.033 329.303 127.331C330.702 123.628 302.784 112.811 298.692 103.74Z" fill="#0E8D56"/>
<path d="M157.639 185.688C174.845 186.308 210.939 186.681 217.661 183.204C219.838 182.079 221.193 181.356 221.981 180.916C221.942 180.847 221.902 180.782 221.863 180.721C222.81 180.301 223.629 179.995 221.981 180.916C223.163 182.959 224.593 188.452 223.664 189.413C222.703 190.406 202.056 193.137 196.654 191.896C182.848 192.103 155.238 192.02 155.238 190.033C155.238 187.55 154.038 185.067 155.238 185.067C156.198 185.067 157.239 185.481 157.639 185.688Z" fill="#1E8557"/>
<path d="M32.457 124.227C32.257 124.227 31.9768 123.978 32.457 122.985C32.6571 122.985 33.0572 123.109 33.0572 123.606C33.0572 124.102 32.6571 124.227 32.457 124.227Z" fill="white" stroke="black" stroke-width="0.1"/>
<path d="M266.88 163.959C264.479 163.462 258.677 174.099 256.076 179.479C256.276 179.893 256.676 180.597 256.676 180.1C256.676 179.479 269.881 167.684 271.081 166.442C272.282 165.201 269.881 164.58 266.88 163.959Z" fill="#1E8557"/>
<path d="M319.099 169.546C333.504 170.167 363.996 172.899 370.718 178.859C372.093 179.57 374.739 180.892 375.761 181.25C376.026 181.31 376.151 181.342 376.12 181.342C376.053 181.342 375.929 181.309 375.761 181.25C370.907 180.153 319.099 169.578 319.099 170.167C318.699 170.374 317.898 170.664 317.898 170.167C317.898 169.67 318.699 169.546 319.099 169.546Z" fill="#1E8557"/>
<path d="M178.291 92.6186C175.89 92.122 176.09 87.4451 176.491 85.1688H181.893C183.693 85.1688 183.693 80.2023 186.694 80.8231C189.696 81.4439 186.694 87.6521 186.694 88.8937C186.694 90.1354 181.292 93.2394 178.291 92.6186Z" fill="#0E8D56" fill-opacity="0.65"/>
<path d="M159.084 123.66C156.683 123.163 157.239 121.536 157.639 119.26C158.839 119.26 159.199 114.914 160.64 114.914C162.441 114.914 163.641 109.327 166.642 109.948C169.643 110.569 162.796 116.723 164.241 119.26C164.851 120.33 162.085 124.28 159.084 123.66Z" fill="#7DC9A5" fill-opacity="0.54"/>
<path d="M180.447 102.498C178.527 104.069 178.603 102.339 179.003 100.063C180.203 100.063 180.564 95.7172 182.004 95.7172C183.805 95.7172 182.848 92.5649 185.85 93.1857C188.851 93.8065 182.004 97.5259 183.449 100.063C184.058 101.133 182.848 100.534 180.447 102.498Z" fill="#7DC9A5" fill-opacity="0.54"/>
<path d="M202.656 81.3902C201.432 82.425 201.122 83.1135 200.255 82.011C200.754 81.3957 200.326 80.2661 200.925 79.5278C201.674 78.6049 198.725 77.0963 200.255 75.8028C201.785 74.5093 202.692 77.1758 203.256 77.6653C203.82 78.1548 204.186 80.0967 202.656 81.3902Z" fill="#0E8D56" fill-opacity="0.65"/>
<path d="M211.07 81.3901C209.846 82.4249 210.126 83.1135 209.258 82.011C209.757 81.3957 208.14 81.1039 208.739 80.3656C209.487 79.4426 207.209 78.9588 208.739 77.6653C210.269 76.3718 210.505 79.0382 211.07 79.5277C211.634 80.0172 212.599 80.0967 211.07 81.3901Z" fill="#0E8D56" fill-opacity="0.65"/>
<path d="M260.277 132.918C259.053 133.953 258.824 134.238 257.957 133.135C258.456 132.52 257.358 132.011 257.957 131.273C258.705 130.35 256.651 131.132 257.276 129.193C257.876 127.331 259.113 129.324 259.677 129.814C260.241 130.303 261.807 131.625 260.277 132.918Z" fill="#0E8D56" fill-opacity="0.65"/>
<path d="M268.101 133.135C266.877 134.17 267.158 134.858 266.29 133.756C266.789 133.141 263.88 133.036 264.479 132.297C265.227 131.374 263.794 129.41 265.77 129.41C268.101 129.41 267.48 130.915 267.48 131.676C267.48 132.297 269.631 131.842 268.101 133.135Z" fill="#0E8D56" fill-opacity="0.65"/>
<path d="M204.456 88.0601C206.548 89.3761 207.386 91.2615 206.257 93.259C205.129 92.8343 203.61 93.7686 202.257 93.259C200.565 92.622 198.068 97.314 195.453 95.669C192.838 94.024 198.044 92.49 198.454 91.3233C198.865 90.1565 201.842 86.4151 204.456 88.0601Z" fill="#0E8D56" fill-opacity="0.65"/>
<path d="M224.264 85.1151C226.356 86.4311 228.797 85.2576 227.668 87.2551C226.54 86.8305 225.617 88.1079 224.264 87.5983C222.572 86.9613 220.062 90.7024 218.862 88.2191C217.493 85.3877 216.65 85.6609 217.061 84.4942C217.472 83.3274 221.649 83.47 224.264 85.1151Z" fill="#0E8D56" fill-opacity="0.65"/>
<path d="M231.615 33.3391C223.052 18.7455 211.814 5.3168 203.914 8.0841C188.447 13.502 179.358 32.7281 173.066 43.1272L185.599 63.6654C194.521 63.1718 206.64 62.0485 217.262 61.2735L218.046 55.1725L220.119 49.0226L224.482 41.5139L231.615 33.3391Z" fill="url(#paint0_radial)" fill-opacity="0.4"/>
<path d="M318.058 79.9741C320.776 62.2162 319.029 45.334 316.853 45.186C309.007 44.6522 283.858 53.7838 273.209 59.6437L269.398 80.8968C277.372 84.9305 284.497 89.501 294.083 94.1409L298.507 89.6912L303.656 86.6676L310.167 83.4345L318.058 79.9741Z" fill="url(#paint1_radial)" fill-opacity="0.4"/>
<path d="M349.587 121.412C351.979 111.705 356.341 95.7747 355.016 95.6951C350.935 95.4497 344.849 96.9373 338.27 97.5815L335.74 112.165L333.853 119.204L330.664 124.593C333.693 127.529 330.354 124.964 335.361 128.408L339.282 125.782L342.503 124.264L345.447 122.884L349.587 121.412Z" fill="url(#paint2_radial)" fill-opacity="0.4"/>
<path d="M380.822 146.309C383.267 140.135 382.934 133.514 381.95 133.338C376.436 132.356 367.379 136.068 363.553 137.251L360.583 142.358L356.701 145.811L359.565 147.83L362.059 149.642L362.144 149.717C363.73 151.12 366.632 153.689 369.223 155.232L371.742 152.109L373.5 150.461L375.416 149.196L380.822 146.309Z" fill="url(#paint3_radial)" fill-opacity="0.4"/>
<path d="M142.953 86.4324C142.958 86.448 142.963 86.4635 142.968 86.4791C142.956 86.4667 142.951 86.4511 142.953 86.4324C135.307 63.4322 138.832 32.0658 147.494 28.775C155.309 25.8056 176.88 41.905 185.863 66.1276C171.915 71.5424 143.079 85.2457 142.953 86.4324Z" fill="url(#paint4_radial)" fill-opacity="0.4"/>
<path d="M266.949 11.6079C260.328 10.1687 210.914 39.0107 217.639 64.9917C217.54 63.8644 254.462 76.2633 268.85 81.1564C269.572 74.3583 272.465 67.2078 272.791 59.8295C270.481 36.6007 270.52 12.3842 266.949 11.6079Z" fill="url(#paint5_radial)" fill-opacity="0.4"/>
<path d="M339.751 76.1606C334.27 74.7172 300.37 82.2183 294.381 96.0405C294.597 95.2013 320.495 116.5 328.932 125.641C333.114 121.168 331.638 123.49 334.268 116.985C335.643 113.584 342.601 76.9111 339.751 76.1606Z" fill="url(#paint6_radial)" fill-opacity="0.4"/>
<path d="M335.443 128.505C335.433 128.511 335.424 128.516 335.415 128.522C335.42 128.513 335.43 128.507 335.443 128.505C348.234 120.952 364.665 116.179 368.852 115.495C371.303 115.094 363.224 138.155 361.362 140.51C357.799 145.015 359.282 144.149 356.548 145.081C350.522 140.963 336.237 128.382 335.443 128.505Z" fill="url(#paint7_radial)" fill-opacity="0.4"/>
<path d="M388.701 145.058C385.543 145.056 372.558 148.755 369.669 155.306C369.852 154.977 379.708 162.185 383.26 164.835C384.785 164.333 383.473 165.284 384.047 162.079C384.531 159.382 389.647 145.059 388.701 145.058Z" fill="url(#paint8_radial)" fill-opacity="0.4"/>
<path d="M113.966 52.648C109.466 52.148 113.966 86.4007 113.966 87.9007C114.766 88.5609 118.796 89.6379 122.375 91.5142C126.336 94.537 130.61 98.2194 130.61 98.0461C130.61 96.1789 139.964 89.8463 142.319 87.3793C143.015 86.6496 140.874 79.3502 139.674 74.9123C135.878 69.6287 130.254 61.4662 124.631 56.9526C119.972 53.8208 115.33 52.7996 113.966 52.648Z" fill="url(#paint9_radial)" fill-opacity="0.4"/>
<path d="M107.89 88.6659C103.39 88.1659 108.89 104.666 108.89 106.166C111.89 110.666 113.79 113.566 115.39 113.166C117.39 112.666 127.39 101.666 128.39 98.6658C129.39 95.6658 112.39 89.1659 107.89 88.6659Z" fill="url(#paint10_radial)" fill-opacity="0.4"/>
<path d="M97.8894 114.666C93.3894 114.166 100.89 126.666 100.89 128.166C103.89 132.666 103.79 134.066 105.39 133.666C107.39 133.166 110.654 123.402 112.89 121.166C115.389 118.666 102.389 115.166 97.8894 114.666Z" fill="url(#paint11_radial)" fill-opacity="0.4"/>
<path d="M94.3905 125.166C92.3896 122.166 90.9502 131.605 89.8896 132.666C88.8287 137.969 87.4754 137.317 88.8896 138.166C90.6574 139.226 101.89 138.828 101.89 135.666C101.89 132.566 96.9027 128.933 94.3905 125.166Z" fill="url(#paint12_radial)" fill-opacity="0.4"/>
<path d="M83.825 126.431C82.6688 123.015 78.8353 131.76 77.5363 132.51C77.8896 134.166 77.7432 132.98 78.8896 134.166C80.3227 135.648 86.6704 139.262 86.8896 138.166C87.3896 135.666 85.2767 130.719 83.825 126.431Z" fill="url(#paint13_radial)" fill-opacity="0.4"/>
<path d="M76.3897 123.666C75.2335 120.25 71.3897 126.166 70.3901 127.166C70.7434 128.821 71.243 127.98 72.3894 129.166C73.8224 130.648 76.8896 132.373 76.8896 131.666C76.8896 129.666 77.8414 127.954 76.3897 123.666Z" fill="url(#paint14_radial)" fill-opacity="0.4"/>
<path d="M67.8902 119.666C67.3898 119.666 64.3896 121.165 63.39 122.165C63.89 123.165 64.6945 122.946 65.39 123.665C66.823 125.147 68.3898 126.373 68.3898 125.665C68.3898 123.665 68.4488 119.665 67.8902 119.666Z" fill="url(#paint15_radial)" fill-opacity="0.4"/>
<defs>
<radialGradient id="paint0_radial" cx="0" cy="0" r="1" gradientUnits="userSpaceOnUse" gradientTransform="translate(206.108 37.3092) rotate(115) scale(25.5201 21.6694)">
<stop stop-color="#FF0000"/>
<stop offset="1" stop-color="#E05709"/>
</radialGradient>
<radialGradient id="paint1_radial" cx="0" cy="0" r="1" gradientUnits="userSpaceOnUse" gradientTransform="translate(298.165 78.4226) rotate(145) scale(25.5202 21.6694)">
<stop stop-color="#FF0000"/>
<stop offset="1" stop-color="#E05709"/>
</radialGradient>
<radialGradient id="paint2_radial" cx="0" cy="0" r="1" gradientUnits="userSpaceOnUse" gradientTransform="translate(338.721 118.22) rotate(150) scale(12.8507 12.7834)">
<stop stop-color="#FF0000"/>
<stop offset="1" stop-color="#E05709"/>
</radialGradient>
<radialGradient id="paint3_radial" cx="0" cy="0" r="1" gradientUnits="userSpaceOnUse" gradientTransform="translate(367.905 149.78) rotate(150) scale(7.3706 6.24327)">
<stop stop-color="#FF0000"/>
<stop offset="1" stop-color="#E05709"/>
</radialGradient>
<radialGradient id="paint4_radial" cx="0" cy="0" r="1" gradientUnits="userSpaceOnUse" gradientTransform="translate(162.72 56.6456) rotate(90) scale(25.5202 21.6694)">
<stop stop-color="#FF0000"/>
<stop offset="1" stop-color="#E05709"/>
</radialGradient>
<radialGradient id="paint5_radial" cx="0" cy="0" r="1" gradientUnits="userSpaceOnUse" gradientTransform="translate(251.521 53.5936) rotate(130) scale(25.5202 21.6695)">
<stop stop-color="#FF0000"/>
<stop offset="1" stop-color="#E05709"/>
</radialGradient>
<radialGradient id="paint6_radial" cx="0" cy="0" r="1" gradientUnits="userSpaceOnUse" gradientTransform="translate(319.183 102.724) rotate(155) scale(17.5519 18.1258)">
<stop stop-color="#FF0000"/>
<stop offset="1" stop-color="#E05709"/>
</radialGradient>
<radialGradient id="paint7_radial" cx="0" cy="0" r="1" gradientUnits="userSpaceOnUse" gradientTransform="translate(349.727 133.808) rotate(155) scale(17.5519 9.76332)">
<stop stop-color="#FF0000"/>
<stop offset="1" stop-color="#E05709"/>
</radialGradient>
<radialGradient id="paint8_radial" cx="0" cy="0" r="1" gradientUnits="userSpaceOnUse" gradientTransform="translate(377.158 157.662) rotate(155) scale(9.74058 5.96969)">
<stop stop-color="#FF0000"/>
<stop offset="1" stop-color="#E05709"/>
</radialGradient>
<radialGradient id="paint9_radial" cx="0" cy="0" r="1" gradientUnits="userSpaceOnUse" gradientTransform="translate(124.936 77.3364) rotate(84.7515) scale(16.5912 11.068)">
<stop stop-color="#FF0000"/>
<stop offset="1" stop-color="#E14E16"/>
</radialGradient>
<radialGradient id="paint10_radial" cx="0" cy="0" r="1" gradientUnits="userSpaceOnUse" gradientTransform="translate(111.89 102.672) rotate(84.7515) scale(16.5912 11.068)">
<stop stop-color="#FF0000"/>
<stop offset="1" stop-color="#E14E16"/>
</radialGradient>
<radialGradient id="paint11_radial" cx="0" cy="0" r="1" gradientUnits="userSpaceOnUse" gradientTransform="translate(101.16 126.183) rotate(84.7515) scale(16.5912 11.068)">
<stop stop-color="#FF0000"/>
<stop offset="1" stop-color="#E14E16"/>
</radialGradient>
<radialGradient id="paint12_radial" cx="0" cy="0" r="1" gradientUnits="userSpaceOnUse" gradientTransform="translate(89.7642 131.52) rotate(129.752) scale(16.5912 11.068)">
<stop stop-color="#FF0000"/>
<stop offset="1" stop-color="#E14E16"/>
</radialGradient>
<radialGradient id="paint13_radial" cx="0" cy="0" r="1" gradientUnits="userSpaceOnUse" gradientTransform="translate(77.7119 131.37) rotate(144.752) scale(16.5912 11.068)">
<stop stop-color="#FF0000"/>
<stop offset="1" stop-color="#E14E16"/>
</radialGradient>
<radialGradient id="paint14_radial" cx="0" cy="0" r="1" gradientUnits="userSpaceOnUse" gradientTransform="translate(69.4082 127.136) rotate(144.752) scale(16.5912 11.068)">
<stop stop-color="#FF0000"/>
<stop offset="1" stop-color="#E14E16"/>
</radialGradient>
<radialGradient id="paint15_radial" cx="0" cy="0" r="1" gradientUnits="userSpaceOnUse" gradientTransform="translate(61.3892 123.09) rotate(144.752) scale(16.5912 11.068)">
<stop stop-color="#FF0000"/>
<stop offset="1" stop-color="#E14E16"/>
</radialGradient>
</defs>
</svg>
