<svg width="354" height="261" viewBox="0 0 354 261" fill="none" xmlns="http://www.w3.org/2000/svg">
<path d="M5.69236 36.986C28.9935 35.3332 43.8708 49.1189 47.6849 55.3169L69.0698 41.9209L43.0641 29.525L5.69236 36.986Z" fill="url(#paint0_linear)"/>
<path d="M46.1841 48.1187C46.1841 44.8131 47.5711 42.6094 48.2645 41.9208C52.4257 38.8217 45.1438 34.6897 44.1036 37.7888C42.4393 39.4416 44.7971 45.3641 46.1841 48.1187Z" fill="#E4CDBF"/>
<path d="M10.8161 42.9537C10.8161 39.6481 13.5901 36.7557 14.9771 35.7227C13.3127 34.07 10.1226 35.0341 8.73568 35.7227C7.90349 36.5491 9.77591 40.8877 10.8161 42.9537Z" fill="#E4CDBF"/>
<path d="M25.3793 45.0197C24.5471 41.7141 27.113 37.4444 28.5 35.7228C25.1713 33.2436 22.9521 34.6898 22.2586 35.7228C20.5943 37.3756 23.6456 42.6094 25.3793 45.0197Z" fill="#E4CDBF"/>
<path d="M42.2604 49.0282C41.5316 52.3616 44.3212 56.5359 45.807 58.2063C42.489 60.8041 40.1607 59.439 39.4113 58.4317C37.6438 56.8401 40.5742 51.4995 42.2604 49.0282Z" fill="#E4CDBF"/>
<path d="M34.003 49.0282C33.2743 52.3616 36.0638 56.5359 37.5497 58.2063C34.2317 60.8041 31.9034 59.439 31.154 58.4317C29.3864 56.8401 32.3169 51.4995 34.003 49.0282Z" fill="#E4CDBF"/>
<path d="M38.9027 45.0198C38.0705 40.0614 41.3299 37.4445 43.0636 36.7559C46.1843 32.6239 38.9028 35.0342 36.8223 35.7229L36.8222 35.7229C34.7418 38.8218 37.8625 43.9868 38.9027 45.0198Z" fill="#E4CDBF"/>
<path d="M21.261 53.0108C20.7806 57.9834 23.2736 60.5364 24.5802 61.1912C27.0123 65.2614 21.5381 62.9928 19.974 62.3446L19.974 62.3446C18.343 59.287 20.5172 54.0635 21.261 53.0108Z" fill="#E4CDBF"/>
<path d="M27.4539 51.0108C26.9735 55.9834 29.4665 58.5364 30.7731 59.1912C33.2052 63.2614 27.731 60.9928 26.1668 60.3446L26.1668 60.3446C24.5359 57.287 26.7101 52.0635 27.4539 51.0108Z" fill="#E4CDBF"/>
<path d="M32.6612 43.9867C30.9969 39.8547 33.3547 36.7558 34.7417 35.7228C33.9095 33.2436 30.234 34.6898 28.5003 35.7228C25.1716 36.5492 29.8873 41.5764 32.6612 43.9867Z" fill="#E4CDBF"/>
<path d="M19.1381 43.9867C17.4737 39.8547 20.5251 36.7558 22.2588 35.7228C17.2657 33.2436 16.0174 35.3784 16.0174 36.7558C14.353 38.4085 17.4044 42.2651 19.1381 43.9867Z" fill="#E4CDBF"/>
<path d="M15.9798 52.9396C14.437 57.0843 17.3584 60.1596 19.012 61.1791C14.2971 63.6969 13.0944 61.5718 13.0825 60.1945C11.4893 58.5547 14.3502 54.6746 15.9798 52.9396Z" fill="#E4CDBF"/>
<path d="M352.012 188.606C356.173 198.523 350.279 195.493 346.811 192.738C326.839 167.946 289.252 159.682 272.955 158.649C239.667 157.616 197.018 161.748 171.012 165.88C145.006 170.012 135.644 154.517 135.644 149.352C135.644 145.22 130.79 143.499 128.363 143.154C113.8 136.956 100.277 115.263 98.1962 115.263C96.5318 115.263 80.859 86.3395 73.2307 71.8776H44.1043C37.4468 74.3568 20.5258 68.7786 12.8974 65.6797C6.23996 57.4157 12.8974 57.4157 17.0583 58.4487H28.5009C40.1514 60.1014 57.6273 49.4961 64.9089 43.9868C54.9227 48.9452 46.8782 40.5435 44.1043 35.7228H9.77673C3.95148 39.8548 1.80164 34.0012 1.4549 30.5579C-3.53821 18.1619 11.1637 10.931 19.1388 8.86501L56.587 6.79903C74.8951 -4.77051 88.4874 3.35571 92.995 8.86501C102.149 12.1706 105.131 19.8836 105.478 23.3269L113.8 43.9868C117.961 57.2091 130.097 59.1374 135.644 58.4487C162.274 55.9695 180.028 73.2549 185.575 82.2075C187.24 87.1659 196.671 93.2261 201.179 95.6365C210.333 99.7684 219.556 110.443 223.024 115.263C239.667 129.312 263.246 136.268 272.955 137.989C313.732 143.774 342.65 174.144 352.012 188.606Z" fill="#E3793F"/>
<path d="M76.3519 106.999C82.1772 110.305 91.2618 107.688 95.076 105.966C101.733 103.487 93.689 99.424 88.8346 97.7024C83.8415 103.487 75.6584 99.4241 72.191 96.6694C71.3588 95.843 66.9898 96.325 64.9094 96.6694C56.3514 93.5791 55.0062 99.8783 55.434 104.088C55.4352 104.35 55.4713 104.631 55.5473 104.933C55.5022 104.664 55.4638 104.381 55.434 104.088C55.4219 101.484 58.8581 100.801 60.7485 100.801C56.5876 100.801 57.6278 104.933 58.668 106.999C61.1646 102.041 65.9496 101.49 68.0301 101.834C72.191 101.834 75.3117 105.278 76.3519 106.999Z" fill="#C4673F"/>
<path d="M162.69 176.21C160.193 173.731 161.65 168.979 162.69 166.913L128.362 140.055C124.202 150.385 130.443 166.913 128.362 176.21C126.698 183.648 144.313 195.148 153.328 199.969C158.321 201.622 155.408 209.61 153.328 213.398C156.657 217.53 129.749 226.827 115.88 230.959C110.054 234.264 113.452 241.289 115.88 244.388H121.081H134.604C142.926 240.256 153.328 238.534 157.489 238.19C163.314 238.19 169.625 235.435 172.052 234.058V216.497C178.293 209.266 175.173 197.903 172.052 197.903C169.555 197.903 168.931 191.705 168.931 188.606C169.763 181.168 165.117 177.243 162.69 176.21Z" fill="#BA6535"/>
<path d="M126.283 238.19C132.94 235.711 132.524 241.289 131.484 244.388C131.247 245.214 129.305 244.732 128.363 244.388C127.531 242.735 123.855 245.765 122.122 247.487C120.457 243.355 124.202 239.567 126.283 238.19Z" fill="#3C1F0D"/>
<path d="M117.96 241.289C121.289 237.157 117.96 234.746 115.88 234.058C109.222 233.231 107.558 240.6 107.558 244.388C110.887 239.429 113.8 240.256 114.84 241.289C115.672 242.115 117.267 241.633 117.96 241.289Z" fill="#3C1F0D"/>
<path d="M85.7129 68.7787C77.3911 64.6467 73.9236 69.123 73.2301 71.8776L98.1956 115.263C110.678 132.618 123.508 141.088 128.362 143.154C133.355 143.154 135.297 146.597 135.644 148.319C137.308 162.368 155.061 166.569 163.73 166.913C190.36 160.302 247.642 158.649 272.954 158.649C241.898 144.136 164.915 153.396 136.684 126.626C130.101 120.384 100.623 84.9622 85.7129 68.7787Z" fill="#F1A359"/>
<path d="M219.903 158.649C231.554 119.808 207.42 105.278 193.897 102.867L172.052 110.098C158.738 126.626 175.52 151.418 185.575 161.748L186.616 166.913C189.944 183.441 210.888 192.394 220.943 194.804C222.608 193.977 223.717 196.525 224.064 197.903V213.398C224.064 218.356 212.968 229.926 207.42 235.091C202.427 239.223 192.164 241.633 187.656 242.322C182.663 246.454 188.349 251.619 191.817 253.684C191.817 256.99 200.832 256.439 205.34 255.75C208.668 259.882 215.049 258.849 217.823 257.816C219.487 254.511 229.612 250.93 234.466 249.553C249.446 243.768 249.029 229.237 246.949 222.695C241.124 209.472 243.135 202.723 244.869 201.002C249.862 196.043 246.949 192.049 244.869 190.672C237.379 186.54 236.893 182.752 237.587 181.375C237.587 174.144 234.466 174.144 234.466 173.111C234.466 172.285 225.451 166.569 220.943 163.814C219.279 163.814 219.556 160.371 219.903 158.649Z" fill="#E57B41"/>
<path d="M191.818 91.5045C193.482 90.6781 191.124 89.0941 189.737 88.4055C189.737 87.3725 187.657 88.4054 185.576 89.4384L185.576 89.4385C183.496 90.4715 185.576 90.4715 187.657 93.5704C189.737 96.6694 189.737 92.5375 191.818 91.5045Z" fill="#D36041"/>
<path d="M279.97 143.56C281.634 142.734 279.276 141.15 277.889 140.461C277.889 139.428 275.809 140.461 273.728 141.494L273.728 141.494C271.648 142.527 273.728 142.527 275.809 145.626C277.889 148.725 277.889 144.593 279.97 143.56Z" fill="#D36041"/>
<path d="M211.4 124.27C213.065 123.443 210.707 121.859 209.32 121.171C209.32 120.138 207.239 121.171 205.159 122.204L205.159 122.204C203.078 123.237 205.159 123.237 207.239 126.336C209.32 129.435 209.32 125.303 211.4 124.27Z" fill="#D36041"/>
<path d="M158.998 77.4704C160.662 76.644 157.837 75.6652 156.45 74.9765C156.45 73.9435 154.837 74.3714 152.757 75.4044C150.676 76.4374 152.757 76.4374 154.837 79.5364C156.918 82.6354 156.918 78.5034 158.998 77.4704Z" fill="#CB6630"/>
<path d="M171.543 87.3605C173.208 86.5341 170.382 85.5553 168.995 84.8666C168.995 83.8336 167.383 84.2615 165.302 85.2945C163.222 86.3275 165.812 85.3065 167.892 88.4054C169.973 91.5044 169.463 88.3935 171.543 87.3605Z" fill="#D56B31"/>
<path d="M306.891 154.645C308.555 153.818 305.729 152.84 304.342 152.151C304.342 151.118 302.73 151.546 300.649 152.579C298.569 153.612 301.159 152.591 303.239 155.69C305.32 158.789 304.81 155.678 306.891 154.645Z" fill="#D56B31"/>
<path d="M272.358 147.236C274.023 146.41 271.197 145.431 269.81 144.742C269.81 143.709 268.197 144.137 266.117 145.17C264.037 146.203 266.627 145.182 268.707 148.281C270.788 151.38 270.278 148.269 272.358 147.236Z" fill="#D56B31"/>
<path d="M265.644 141.474C267.308 140.647 264.482 139.669 263.095 138.98C263.095 137.947 261.483 138.375 259.402 139.408C257.322 140.441 259.912 139.42 261.992 142.519C264.073 145.618 263.563 142.507 265.644 141.474Z" fill="#D56B31"/>
<path d="M209.383 136.226C211.047 135.399 208.221 134.42 206.834 133.732C206.834 132.699 205.222 133.127 203.141 134.16C201.061 135.193 203.651 134.172 205.732 137.271C207.812 140.37 207.302 137.259 209.383 136.226Z" fill="#D56B31"/>
<path d="M251.255 137.358C252.92 136.531 250.094 135.553 248.707 134.864C248.707 133.831 247.094 134.259 245.014 135.292C242.934 136.325 245.524 135.304 247.604 138.403C249.685 141.502 249.175 138.391 251.255 137.358Z" fill="#D56B31"/>
<path d="M142.417 64.6347C144.081 63.8083 141.256 62.8295 139.869 62.1408C139.869 61.1078 138.256 61.5357 136.176 62.5687C134.095 63.6017 136.176 63.6017 138.256 66.7007C140.337 69.7997 140.337 65.6677 142.417 64.6347Z" fill="#CB6630"/>
<path d="M100.808 35.7109C102.472 34.8845 99.6466 33.9057 98.2597 33.217C98.2596 32.184 96.6472 32.6119 94.5667 33.6449C92.4863 34.6779 94.5667 34.6779 96.6472 37.7769C98.7277 40.8759 98.7276 36.7439 100.808 35.7109Z" fill="#CB6630"/>
<path d="M295.38 148.059C297.045 147.233 294.219 146.254 292.832 145.565C292.832 144.532 291.219 144.96 289.139 145.993C287.059 147.026 289.139 147.026 291.219 150.125C293.3 153.224 293.3 149.092 295.38 148.059Z" fill="#CB6630"/>
<path d="M237.826 130.772C239.49 129.946 236.664 128.967 235.277 128.279C235.277 127.246 233.665 127.673 231.584 128.706C229.504 129.739 231.584 129.739 233.665 132.838C235.745 135.937 235.745 131.805 237.826 130.772Z" fill="#CB6630"/>
<path d="M100.808 25.3809C102.472 24.5545 99.6466 23.5757 98.2597 22.887C98.2596 21.854 96.6472 22.2819 94.5667 23.3149C92.4863 24.3479 95.0765 23.3269 97.157 26.4259C99.2374 29.5248 98.7276 26.4139 100.808 25.3809Z" fill="#CB6630"/>
<path d="M88.3316 10.3234C89.9959 9.497 87.1078 9.99094 85.7209 9.30227C85.7208 8.26928 84.1707 7.22441 82.0902 8.2574C80.0098 9.2904 82.6002 8.26928 84.6806 11.3683C86.7611 14.4672 86.2511 11.3564 88.3316 10.3234Z" fill="#D36738"/>
<path d="M165.302 66.7006C166.967 65.8743 164.141 64.8954 162.754 64.2068C162.754 63.1738 159.571 62.5806 157.49 63.6136C155.41 64.6465 158.53 66.7126 161.141 68.7666C164.081 71.0794 163.222 67.7336 165.302 66.7006Z" fill="#C1511F"/>
<path d="M248.377 144.482C250.041 143.656 247.215 142.677 245.829 141.988C245.828 140.955 242.645 140.362 240.565 141.395C238.484 142.428 241.605 144.494 244.216 146.548C247.156 148.861 246.296 145.515 248.377 144.482Z" fill="#C1511F"/>
<path d="M181.661 84.2735C183.325 83.4471 182.07 81.9622 180.683 81.2736C180.683 80.2406 177.5 79.6474 175.419 80.6804C173.339 81.7134 177.5 82.2075 179.071 85.8334C180.553 89.2548 179.58 85.3064 181.661 84.2735Z" fill="#C9683B"/>
<path d="M211.178 145.535C212.842 144.708 211.587 143.223 210.2 142.535C210.2 141.502 207.017 140.909 204.937 141.941C202.856 142.974 207.017 143.469 208.588 147.095C210.07 150.516 209.097 146.568 211.178 145.535Z" fill="#C9683B"/>
<path d="M198.695 122.809C200.36 121.982 199.105 120.498 197.718 119.809C197.718 118.776 194.535 118.183 192.454 119.216C190.374 120.249 194.534 120.743 196.105 124.369C197.588 127.79 196.615 123.842 198.695 122.809Z" fill="#C9683B"/>
<path d="M172.797 110.951C174.004 103.833 167.263 106.502 163.742 108.726C149.253 127.409 169.778 150.615 181.852 159.882C191.511 165.22 188.895 160.623 186.379 157.658C169.476 143.423 165.251 133.934 165.251 130.968C161.629 125.63 168.772 115.399 172.797 110.951Z" fill="#C55D2A"/>
<path d="M193.898 102.867C189.737 104.52 194.244 105.622 195.978 106.999C211.79 113.611 216.436 128.348 216.783 134.89C216.783 150.385 215.742 152.451 216.783 160.715C219.279 167.326 219.903 162.092 219.903 159.682L221.984 143.154L221.984 142.121C223.024 126.626 218.17 119.051 214.702 115.263C208.045 106.999 196.671 102.523 193.898 102.867Z" fill="#F9AA67"/>
<path d="M188.696 250.586C192.024 245.627 188.696 243.699 186.615 243.355C178.293 240.875 177.6 249.208 178.294 253.685C180.79 248.726 183.495 250.241 184.535 251.619C186.199 252.445 188.002 251.274 188.696 250.586Z" fill="#3C1F0D"/>
<path d="M195.978 246.454C203.468 244.801 201.873 251.963 200.139 255.751C197.642 259.056 195.631 257.128 194.938 255.751C194.105 252.445 190.43 257.128 188.696 259.883C184.535 250.792 191.817 247.142 195.978 246.454Z" fill="#3C1F0D"/>
<path d="M208.461 249.553C215.951 245.421 217.823 251.963 217.823 255.751C216.991 259.883 213.316 257.472 211.582 255.751C209.085 254.098 207.074 258.505 206.381 260.916C203.052 255.957 206.381 251.274 208.461 249.553Z" fill="#3C1F0D"/>
<path d="M123.706 104.082C131.195 94.992 120.585 94.0967 114.344 94.7854C104.358 108.834 97.6999 111.658 95.6194 111.313C93.955 110.487 79.6692 109.592 72.7343 109.247C62.7481 109.247 64.4125 116.823 66.493 120.61C65.6608 118.957 68.9202 117.167 70.6539 116.478C67.3251 118.957 69.2669 122.332 70.6539 123.709C71.4861 118.751 75.855 117.511 77.9355 117.511C81.2642 113.379 85.5638 115.101 87.2975 116.478C88.1297 118.131 96.6596 117.856 100.821 117.511C105.814 117.511 118.158 108.559 123.706 104.082Z" fill="#E3793F"/>
<path d="M11.858 24.36C12.6902 21.8808 10.1243 21.261 8.73732 21.261C7.07297 20.4346 6.65685 23.6713 6.65683 25.3929C6.65683 26.4259 7.69706 26.4259 9.77751 26.4259C11.4419 26.4259 11.858 25.0486 11.858 24.36Z" fill="#483B32"/>
<path d="M24.3402 24.3599C25.1724 23.5335 23.9935 21.9495 23.3 21.2609C21.6358 20.4345 20.526 22.2939 20.1791 23.3269C20.1791 24.0155 20.3871 25.5994 21.2193 26.4258C22.2595 27.4588 23.3 25.3928 24.3402 24.3599Z" fill="#483B32"/>
<path d="M76.3518 17.1289C77.184 12.9969 73.9246 11.2753 72.1909 10.931C68.8621 10.1046 69.4169 16.0959 70.1104 19.1949C71.1506 22.2939 72.1909 22.2939 74.2713 22.2939C75.9357 22.2939 76.3518 18.8506 76.3518 17.1289Z" fill="#12312C"/>
<path d="M80.5122 7.83213C77.7383 6.45481 71.3582 4.52655 68.0295 7.83213C70.4567 4.38883 76.3513 -0.431787 80.5122 7.83213Z" fill="#654C38"/>
<path d="M72.1906 17.1288C73.0228 17.9552 74.6178 16.7845 75.3113 16.0959C76.7136 15.0629 75.3113 14.0299 75.3113 12.9969C75.3113 12.1706 73.2309 11.9639 72.1906 11.9639C71.1504 10.9309 70.1102 12.9969 70.1102 14.0299C69.278 15.6827 71.1504 16.7845 72.1906 17.1288Z" fill="#CEB597"/>
<defs>
<linearGradient id="paint0_linear" x1="66.9894" y1="29.525" x2="6.6561" y2="29.525" gradientUnits="userSpaceOnUse">
<stop stop-color="#281307"/>
<stop offset="0.515625" stop-color="#8A421A"/>
</linearGradient>
</defs>
</svg>
