<svg width="369" height="284" viewBox="0 0 369 284" fill="none" xmlns="http://www.w3.org/2000/svg">
<mask id="path-1-outside-1" maskUnits="userSpaceOnUse" x="0.219238" y="0.85376" width="368" height="284" fill="black">
<rect fill="white" x="0.219238" y="0.85376" width="368" height="284"/>
<path d="M25.7267 15.7577C17.8174 16.4034 10.7531 24.3445 8.20959 28.2344C7.07758 36.7718 9.42947 39.6874 9.82489 42.1477C10.1412 44.116 13.3397 44.1395 15.3168 43.7294C14.9653 44.3884 18.4362 52.0771 18.1725 50.4075C17.9616 49.0719 19.9885 45.809 21.0283 44.3445C21.9045 44.1248 23.3949 43.8173 22.3464 44.3445C21.2979 44.8717 24.7913 49.2213 26.669 51.3302C26.0851 48.0614 26.7658 45.8383 27.1792 45.1353C27.8968 44.9156 29.2261 44.6081 28.8025 45.1353C28.348 45.7009 32.1701 51.1203 32.8188 52.0348C32.8277 52.0495 32.8371 52.0636 32.8469 52.0771C32.9465 52.2141 32.926 52.186 32.8188 52.0348C32.3121 51.2029 33.0893 48.3629 33.5498 47.0245L36.5813 47.9032L40.3158 51.3302L39.8765 49.6167C41.0584 49.5467 45.2274 52.9546 49.0845 56.3974C46.7793 58.4762 46.1843 62.2468 46.1843 63.9715C46.2261 64.2225 46.0086 64.6492 44.8038 64.348C43.599 64.0468 41.8755 58.6587 41.1643 56.0023C39.5579 56.8557 38.1523 62.4655 37.6503 65.1638C35.9435 65.1638 35.0566 59.7254 34.8265 57.0063C34.1237 56.7553 33.0277 62.34 32.5675 65.1638H29.6183C28.9657 65.1638 28.8025 60.6458 28.8025 58.3868C28.0495 58.1358 27.0664 62.8002 26.669 65.1638C26.5226 65.2474 25.8282 65.3646 24.2217 65.1638C22.2137 64.9128 24.0963 58.5123 23.657 58.3868C23.3056 58.2864 20.8751 62.5701 19.7037 64.7245C14.0813 64.6743 17.8212 70.3511 20.394 73.1958L41.1643 79.2198H80.5713L94.8783 105.449C90.7368 110.218 79.9438 104.132 79.5673 103.19C79.2661 102.437 74.4636 102.877 72.1 103.19C63.3652 100.128 62.3947 106.683 63.0013 110.344C64.4027 108.838 66.8792 106.315 65.574 108.273C64.2688 110.231 65.4067 112.896 66.1388 113.983C71.2216 106.955 79.1908 108.587 82.5074 113.168C85.1607 116.832 95.0814 115.238 99.7101 113.983L101.781 117.937C98.7479 117.121 90.1344 115.602 79.9438 116.054C67.2055 116.619 73.3203 127.813 73.2909 127.43C73.2614 127.048 80.3813 119.751 77.4686 123.811C75.1385 127.059 77.0469 130.029 78.2924 131.108C78.3254 130.91 78.4052 130.323 78.4601 129.554C78.5287 128.594 81.9586 124.846 82.5074 125.233C83.0562 125.62 86.0746 124.478 86.4861 123.518C86.8977 122.557 91.4938 121.322 93.7576 123.518C95.5686 125.274 103.353 125.135 107.019 124.846C111.243 132.998 127.272 144.96 134.759 149.922C132.7 155.971 134.562 168.984 135.75 174.734C135.932 176.762 136.148 180.855 135.561 181.001C134.975 181.148 135.317 184.3 135.561 185.858C136.954 193.19 153.249 203.215 161.222 207.312C161.852 207.539 163.112 208.814 163.112 212.09C163.112 215.366 161.222 218.671 160.277 219.913L160.749 221.279C159.699 225.742 128.906 235.853 124.454 237.447C120.892 238.723 120.082 240.285 120.122 240.907C115.79 241.894 114.787 248.467 114.827 251.631C119.279 246.17 120.874 247.766 120.844 248.007C120.82 248.199 122.117 250.503 122.769 251.631H128.786C128.714 252.365 129.3 253.737 129.603 254.331C131.198 252.981 134.554 250.386 135.224 251.376C135.916 252.399 138.256 251.447 138.747 251.631C139.139 251.778 141.651 251.283 142.858 251.017C145.62 248.808 163.785 245.249 164.644 245.556C165.503 245.862 179.777 242.05 179.777 241.265V223.414C185.904 210.759 181.434 205.184 179.174 204.28C177.366 203.557 176.948 198.623 176.965 196.246C176.011 185.75 173.5 184.645 170.386 182.737C167.895 181.21 169.348 176.409 170.386 174.2L192.773 171.344C205.245 200.389 228.142 201.926 228.897 201.994C229.652 202.063 230.132 203.641 230.749 203.847C231.367 204.052 230.818 218.184 230.749 221.957C230.694 224.975 219.116 237.239 213.334 242.994C212.857 244.611 200.181 248.292 193.903 249.93C185.083 247.468 184.838 256.254 185.818 260.955C187.013 258.199 189.585 256.729 191.055 258.199C192.525 259.669 194.393 258.812 195.143 258.199C193.811 260.863 195.22 265.273 196.43 266.927C197.563 264.339 200.528 260.264 202.31 263.068C204.294 266.192 206.444 264.37 207.271 263.068H212.048C211.57 264.428 213.105 267.187 213.932 268.397L215.126 265.181C215.111 264.998 215.301 264.823 216.183 265.595C217.285 266.56 224.497 265.87 226.656 263.62C228.383 261.819 240.504 256.813 246.348 254.535C256.15 248.306 256.1 235.412 254.85 229.743C249.548 220.085 250.716 211.679 251.963 208.682C257.004 204.903 255.588 201.262 254.249 199.914C247.928 195.334 245.89 191.822 245.661 190.639C246.944 181.203 234.439 173.119 228.026 170.256C227.492 169.798 226.744 168.676 228.026 167.851C229.309 167.027 263.864 166.425 280.981 166.228C315.285 167.321 340.866 186.082 349.368 195.327C357.52 205.516 360.661 203.093 361.213 200.608C361.913 183.536 303.674 145.13 291.408 146.766C281.595 148.074 256.209 136.962 244.743 131.243L230.889 122.38C231.065 120.62 222.504 112.406 218.201 108.519C216.734 108.753 201.623 97.6175 194.251 92.0204C175.856 64.6047 152.122 62.9205 142.658 65.5889C129.864 67.3603 126.584 57.9126 125.796 57.847C125.009 57.7814 118.787 48.2213 114.347 33.7122C110.795 22.105 103.626 16.4394 100.485 15.0575C80.8113 -0.199695 64.0914 13.5732 63.923 13.2364C63.7883 12.967 38.4027 14.805 25.7267 15.7577Z"/>
</mask>
<path d="M25.7267 15.7577C17.8174 16.4034 10.7531 24.3445 8.20959 28.2344C7.07758 36.7718 9.42947 39.6874 9.82489 42.1477C10.1412 44.116 13.3397 44.1395 15.3168 43.7294C14.9653 44.3884 18.4362 52.0771 18.1725 50.4075C17.9616 49.0719 19.9885 45.809 21.0283 44.3445C21.9045 44.1248 23.3949 43.8173 22.3464 44.3445C21.2979 44.8717 24.7913 49.2213 26.669 51.3302C26.0851 48.0614 26.7658 45.8383 27.1792 45.1353C27.8968 44.9156 29.2261 44.6081 28.8025 45.1353C28.348 45.7009 32.1701 51.1203 32.8188 52.0348C32.8277 52.0495 32.8371 52.0636 32.8469 52.0771C32.9465 52.2141 32.926 52.186 32.8188 52.0348C32.3121 51.2029 33.0893 48.3629 33.5498 47.0245L36.5813 47.9032L40.3158 51.3302L39.8765 49.6167C41.0584 49.5467 45.2274 52.9546 49.0845 56.3974C46.7793 58.4762 46.1843 62.2468 46.1843 63.9715C46.2261 64.2225 46.0086 64.6492 44.8038 64.348C43.599 64.0468 41.8755 58.6587 41.1643 56.0023C39.5579 56.8557 38.1523 62.4655 37.6503 65.1638C35.9435 65.1638 35.0566 59.7254 34.8265 57.0063C34.1237 56.7553 33.0277 62.34 32.5675 65.1638H29.6183C28.9657 65.1638 28.8025 60.6458 28.8025 58.3868C28.0495 58.1358 27.0664 62.8002 26.669 65.1638C26.5226 65.2474 25.8282 65.3646 24.2217 65.1638C22.2137 64.9128 24.0963 58.5123 23.657 58.3868C23.3056 58.2864 20.8751 62.5701 19.7037 64.7245C14.0813 64.6743 17.8212 70.3511 20.394 73.1958L41.1643 79.2198H80.5713L94.8783 105.449C90.7368 110.218 79.9438 104.132 79.5673 103.19C79.2661 102.437 74.4636 102.877 72.1 103.19C63.3652 100.128 62.3947 106.683 63.0013 110.344C64.4027 108.838 66.8792 106.315 65.574 108.273C64.2688 110.231 65.4067 112.896 66.1388 113.983C71.2216 106.955 79.1908 108.587 82.5074 113.168C85.1607 116.832 95.0814 115.238 99.7101 113.983L101.781 117.937C98.7479 117.121 90.1344 115.602 79.9438 116.054C67.2055 116.619 73.3203 127.813 73.2909 127.43C73.2614 127.048 80.3813 119.751 77.4686 123.811C75.1385 127.059 77.0469 130.029 78.2924 131.108C78.3254 130.91 78.4052 130.323 78.4601 129.554C78.5287 128.594 81.9586 124.846 82.5074 125.233C83.0562 125.62 86.0746 124.478 86.4861 123.518C86.8977 122.557 91.4938 121.322 93.7576 123.518C95.5686 125.274 103.353 125.135 107.019 124.846C111.243 132.998 127.272 144.96 134.759 149.922C132.7 155.971 134.562 168.984 135.75 174.734C135.932 176.762 136.148 180.855 135.561 181.001C134.975 181.148 135.317 184.3 135.561 185.858C136.954 193.19 153.249 203.215 161.222 207.312C161.852 207.539 163.112 208.814 163.112 212.09C163.112 215.366 161.222 218.671 160.277 219.913L160.749 221.279C159.699 225.742 128.906 235.853 124.454 237.447C120.892 238.723 120.082 240.285 120.122 240.907C115.79 241.894 114.787 248.467 114.827 251.631C119.279 246.17 120.874 247.766 120.844 248.007C120.82 248.199 122.117 250.503 122.769 251.631H128.786C128.714 252.365 129.3 253.737 129.603 254.331C131.198 252.981 134.554 250.386 135.224 251.376C135.916 252.399 138.256 251.447 138.747 251.631C139.139 251.778 141.651 251.283 142.858 251.017C145.62 248.808 163.785 245.249 164.644 245.556C165.503 245.862 179.777 242.05 179.777 241.265V223.414C185.904 210.759 181.434 205.184 179.174 204.28C177.366 203.557 176.948 198.623 176.965 196.246C176.011 185.75 173.5 184.645 170.386 182.737C167.895 181.21 169.348 176.409 170.386 174.2L192.773 171.344C205.245 200.389 228.142 201.926 228.897 201.994C229.652 202.063 230.132 203.641 230.749 203.847C231.367 204.052 230.818 218.184 230.749 221.957C230.694 224.975 219.116 237.239 213.334 242.994C212.857 244.611 200.181 248.292 193.903 249.93C185.083 247.468 184.838 256.254 185.818 260.955C187.013 258.199 189.585 256.729 191.055 258.199C192.525 259.669 194.393 258.812 195.143 258.199C193.811 260.863 195.22 265.273 196.43 266.927C197.563 264.339 200.528 260.264 202.31 263.068C204.294 266.192 206.444 264.37 207.271 263.068H212.048C211.57 264.428 213.105 267.187 213.932 268.397L215.126 265.181C215.111 264.998 215.301 264.823 216.183 265.595C217.285 266.56 224.497 265.87 226.656 263.62C228.383 261.819 240.504 256.813 246.348 254.535C256.15 248.306 256.1 235.412 254.85 229.743C249.548 220.085 250.716 211.679 251.963 208.682C257.004 204.903 255.588 201.262 254.249 199.914C247.928 195.334 245.89 191.822 245.661 190.639C246.944 181.203 234.439 173.119 228.026 170.256C227.492 169.798 226.744 168.676 228.026 167.851C229.309 167.027 263.864 166.425 280.981 166.228C315.285 167.321 340.866 186.082 349.368 195.327C357.52 205.516 360.661 203.093 361.213 200.608C361.913 183.536 303.674 145.13 291.408 146.766C281.595 148.074 256.209 136.962 244.743 131.243L230.889 122.38C231.065 120.62 222.504 112.406 218.201 108.519C216.734 108.753 201.623 97.6175 194.251 92.0204C175.856 64.6047 152.122 62.9205 142.658 65.5889C129.864 67.3603 126.584 57.9126 125.796 57.847C125.009 57.7814 118.787 48.2213 114.347 33.7122C110.795 22.105 103.626 16.4394 100.485 15.0575C80.8113 -0.199695 64.0914 13.5732 63.923 13.2364C63.7883 12.967 38.4027 14.805 25.7267 15.7577Z" stroke="#FFFF93" stroke-width="14" mask="url(#path-1-outside-1)"/>
<path d="M13.0376 43.9079C36.3387 42.2551 51.216 56.0408 55.0301 62.2388L76.415 48.8428L50.4093 36.4468L13.0376 43.9079Z" fill="url(#paint0_linear)"/>
<path d="M53.5293 55.0406C53.5293 51.735 54.9163 49.5313 55.6098 48.8426C59.7709 45.7436 52.489 41.6116 51.4488 44.7107C49.7845 46.3634 52.1423 52.2859 53.5293 55.0406Z" fill="#E4CDBF"/>
<path d="M18.1613 49.8756C18.1613 46.57 20.9353 43.6776 22.3223 42.6446C20.6579 40.9918 17.4679 41.956 16.0809 42.6446C15.2487 43.471 17.1211 47.8096 18.1613 49.8756Z" fill="#E4CDBF"/>
<path d="M32.7245 51.9416C31.8923 48.636 34.4582 44.3663 35.8452 42.6446C32.5165 40.1655 30.2973 41.6116 29.6038 42.6446C27.9395 44.2974 30.9908 49.5313 32.7245 51.9416Z" fill="#E4CDBF"/>
<path d="M49.6056 55.9501C48.8768 59.2835 51.6664 63.4577 53.1523 65.1282C49.8342 67.7259 47.5059 66.3608 46.7565 65.3536C44.989 63.762 47.9194 58.4214 49.6056 55.9501Z" fill="#E4CDBF"/>
<path d="M41.3483 55.9501C40.6195 59.2835 43.4091 63.4577 44.8949 65.1282C41.5769 67.7259 39.2486 66.3608 38.4992 65.3536C36.7317 63.762 39.6621 58.4214 41.3483 55.9501Z" fill="#E4CDBF"/>
<path d="M46.2479 51.9417C45.4157 46.9833 48.6751 44.3664 50.4088 43.6777C53.5295 39.5458 46.248 41.9561 44.1675 42.6447L44.1675 42.6447C42.087 45.7437 45.2077 50.9087 46.2479 51.9417Z" fill="#E4CDBF"/>
<path d="M28.6063 59.9326C28.1258 64.9053 30.6189 67.4582 31.9254 68.1131C34.3575 72.1832 28.8833 69.9147 27.3192 69.2665L27.3192 69.2665C25.6882 66.2088 27.8624 60.9854 28.6063 59.9326Z" fill="#E4CDBF"/>
<path d="M34.7991 57.9326C34.3187 62.9053 36.8117 65.4582 38.1183 66.1131C40.5504 70.1832 35.0762 67.9147 33.5121 67.2665L33.512 67.2665C31.8811 64.2088 34.0553 58.9854 34.7991 57.9326Z" fill="#E4CDBF"/>
<path d="M40.0065 50.9086C38.3421 46.7766 40.6999 43.6776 42.0869 42.6446C41.2547 40.1655 37.5793 41.6116 35.8455 42.6446C32.5168 43.471 37.2325 48.4983 40.0065 50.9086Z" fill="#E4CDBF"/>
<path d="M26.4833 50.9086C24.819 46.7766 27.8703 43.6776 29.604 42.6446C24.6109 40.1655 23.3626 42.3003 23.3626 43.6776C21.6983 45.3304 24.7496 49.1869 26.4833 50.9086Z" fill="#E4CDBF"/>
<path d="M23.325 59.8615C21.7822 64.0062 24.7037 67.0814 26.3573 68.1009C21.6424 70.6187 20.4397 68.4936 20.4277 67.1164C18.8345 65.4765 21.6954 61.5965 23.325 59.8615Z" fill="#E4CDBF"/>
<path d="M359.357 195.528C363.518 205.445 357.624 202.414 354.156 199.66C334.184 174.868 296.597 166.604 280.3 165.571C247.013 164.538 204.363 168.67 178.357 172.802C152.352 176.934 142.99 161.439 142.99 156.274C142.99 152.142 138.135 150.42 135.708 150.076C121.145 143.878 107.622 122.185 105.541 122.185C103.877 122.185 88.2043 93.2614 80.5759 78.7995H51.4495C44.792 81.2787 27.871 75.7005 20.2426 72.6015C13.5852 64.3376 20.2426 64.3376 24.4036 65.3705H35.8461C47.4966 67.0233 64.9725 56.418 72.2541 50.9087C62.2679 55.8671 54.2234 47.4654 51.4495 42.6447H17.1219C11.2967 46.7767 9.14685 40.923 8.80011 37.4797C3.80701 25.0838 18.5089 17.8529 26.484 15.7869L63.9322 13.7209C82.2403 2.15137 95.8326 10.2776 100.34 15.7869C109.494 19.0925 112.476 26.8055 112.823 30.2488L121.145 50.9087C125.306 64.131 137.442 66.0592 142.99 65.3705C169.62 62.8914 187.373 80.1768 192.921 89.1294C194.585 94.0878 204.016 100.148 208.524 102.558C217.678 106.69 226.901 117.365 230.369 122.185C247.013 136.234 270.591 143.189 280.3 144.911C321.077 150.696 349.995 181.066 359.357 195.528Z" fill="#E3793F"/>
<path d="M83.6966 113.921C89.5219 117.227 98.6066 114.61 102.421 112.888C109.078 110.409 101.034 106.346 96.1794 104.624C91.1863 110.409 83.0031 106.346 79.5357 103.591C78.7035 102.765 74.3346 103.247 72.2541 103.591C63.6962 100.501 62.351 106.8 62.7787 111.01C62.7799 111.272 62.816 111.553 62.892 111.855C62.8469 111.586 62.8085 111.303 62.7787 111.01C62.7667 108.406 66.2028 107.723 68.0932 107.723C63.9323 107.723 64.9725 111.855 66.0127 113.921C68.5093 108.963 73.2943 108.412 75.3748 108.756C79.5357 108.756 82.6564 112.2 83.6966 113.921Z" fill="#C4673F"/>
<path d="M170.035 183.132C167.538 180.653 168.995 175.901 170.035 173.835L135.708 146.977C131.547 157.307 137.788 173.835 135.708 183.132C134.043 190.569 151.658 202.07 160.673 206.891C165.666 208.544 162.754 216.532 160.673 220.32C164.002 224.452 137.095 233.749 123.225 237.881C117.4 241.186 120.798 248.211 123.225 251.31H128.426H141.949C150.271 247.178 160.673 245.456 164.834 245.112C170.659 245.112 176.97 242.357 179.397 240.98V223.419C185.638 216.188 182.518 204.825 179.397 204.825C176.9 204.825 176.276 198.627 176.276 195.528C177.109 188.09 172.462 184.165 170.035 183.132Z" fill="#BA6535"/>
<path d="M133.628 245.112C140.285 242.632 139.869 248.211 138.829 251.31C138.592 252.136 136.65 251.654 135.708 251.31C134.876 249.657 131.201 252.687 129.467 254.408C127.803 250.277 131.547 246.489 133.628 245.112Z" fill="#3C1F0D"/>
<path d="M125.306 248.211C128.634 244.079 125.306 241.668 123.225 240.98C116.568 240.153 114.903 247.522 114.903 251.31C118.232 246.351 121.145 247.178 122.185 248.211C123.017 249.037 124.612 248.555 125.306 248.211Z" fill="#3C1F0D"/>
<path d="M93.0581 75.7005C84.7363 71.5686 81.2688 76.0449 80.5753 78.7995L105.541 122.185C118.024 139.539 130.853 148.01 135.707 150.076C140.701 150.076 142.642 153.519 142.989 155.241C144.653 169.29 162.407 173.491 171.075 173.835C197.705 167.224 254.987 165.571 280.299 165.571C249.243 151.058 172.26 160.318 144.029 133.548C137.446 127.306 107.968 91.8841 93.0581 75.7005Z" fill="#F1A359"/>
<path d="M227.248 165.571C238.899 126.73 214.765 112.2 201.242 109.789L179.398 117.02C166.083 133.548 182.865 158.34 192.921 168.67L193.961 173.835C197.29 190.363 218.233 199.315 228.289 201.726C229.953 200.899 231.062 203.447 231.409 204.825V220.32C231.409 225.278 220.313 236.848 214.765 242.012C209.772 246.144 199.509 248.555 195.001 249.243C190.008 253.375 195.695 258.54 199.162 260.606C199.162 263.912 208.177 263.361 212.685 262.672C216.014 266.804 222.394 265.771 225.168 264.738C226.832 261.433 236.957 257.852 241.811 256.474C256.791 250.69 256.375 236.159 254.294 229.617C248.469 216.394 250.48 209.645 252.214 207.924C257.207 202.965 254.294 198.971 252.214 197.594C244.724 193.462 244.239 189.674 244.932 188.297C244.932 181.066 241.811 181.066 241.811 180.033C241.811 179.206 232.796 173.491 228.289 170.736C226.624 170.736 226.901 167.293 227.248 165.571Z" fill="#E57B41"/>
<path d="M199.163 98.4263C200.827 97.5999 198.469 96.016 197.082 95.3274C197.082 94.2944 195.002 95.3273 192.922 96.3603L192.922 96.3603C190.841 97.3933 192.922 97.3933 195.002 100.492C197.082 103.591 197.082 99.4593 199.163 98.4263Z" fill="#D36041"/>
<path d="M287.315 150.482C288.979 149.655 286.621 148.072 285.234 147.383C285.234 146.35 283.154 147.383 281.074 148.416L281.073 148.416C278.993 149.449 281.073 149.449 283.154 152.548C285.234 155.647 285.234 151.515 287.315 150.482Z" fill="#D36041"/>
<path d="M218.745 131.192C220.41 130.365 218.052 128.781 216.665 128.093C216.665 127.06 214.585 128.093 212.504 129.125L212.504 129.126C210.424 130.159 212.504 130.159 214.585 133.258C216.665 136.357 216.665 132.225 218.745 131.192Z" fill="#D36041"/>
<path d="M166.343 84.3923C168.008 83.5659 165.182 82.5871 163.795 81.8984C163.795 80.8654 162.182 81.2933 160.102 82.3263C158.021 83.3593 160.102 83.3593 162.182 86.4583C164.263 89.5573 164.263 85.4253 166.343 84.3923Z" fill="#CB6630"/>
<path d="M178.889 94.2824C180.553 93.456 177.727 92.4771 176.34 91.7885C176.34 90.7555 174.728 91.1834 172.647 92.2164C170.567 93.2494 173.157 92.2283 175.238 95.3273C177.318 98.4263 176.808 95.3154 178.889 94.2824Z" fill="#D56B31"/>
<path d="M314.236 161.567C315.9 160.74 313.074 159.761 311.687 159.073C311.687 158.04 310.075 158.468 307.994 159.501C305.914 160.534 308.504 159.513 310.585 162.612C312.665 165.711 312.155 162.6 314.236 161.567Z" fill="#D56B31"/>
<path d="M279.704 154.158C281.368 153.331 278.542 152.353 277.155 151.664C277.155 150.631 275.543 151.059 273.462 152.092C271.382 153.125 273.972 152.104 276.052 155.203C278.133 158.302 277.623 155.191 279.704 154.158Z" fill="#D56B31"/>
<path d="M272.989 148.396C274.653 147.569 271.827 146.59 270.44 145.902C270.44 144.869 268.828 145.297 266.747 146.33C264.667 147.363 267.257 146.342 269.338 149.441C271.418 152.54 270.908 149.429 272.989 148.396Z" fill="#D56B31"/>
<path d="M216.728 143.148C218.392 142.321 215.567 141.342 214.18 140.654C214.18 139.621 212.567 140.049 210.487 141.082C208.406 142.115 210.996 141.094 213.077 144.192C215.157 147.291 214.648 144.181 216.728 143.148Z" fill="#D56B31"/>
<path d="M258.601 144.28C260.265 143.453 257.439 142.474 256.052 141.786C256.052 140.753 254.44 141.181 252.359 142.214C250.279 143.247 252.869 142.226 254.949 145.325C257.03 148.424 256.52 145.313 258.601 144.28Z" fill="#D56B31"/>
<path d="M149.762 71.5566C151.427 70.7302 148.601 69.7514 147.214 69.0627C147.214 68.0297 145.601 68.4576 143.521 69.4906C141.44 70.5236 143.521 70.5236 145.601 73.6226C147.682 76.7216 147.682 72.5896 149.762 71.5566Z" fill="#CB6630"/>
<path d="M108.153 42.6328C109.818 41.8064 106.992 40.8275 105.605 40.1389C105.605 39.1059 103.992 39.5338 101.912 40.5668C99.8315 41.5998 101.912 41.5998 103.992 44.6988C106.073 47.7977 106.073 43.6658 108.153 42.6328Z" fill="#CB6630"/>
<path d="M302.726 154.981C304.39 154.155 301.564 153.176 300.177 152.487C300.177 151.454 298.565 151.882 296.484 152.915C294.404 153.948 296.484 153.948 298.565 157.047C300.645 160.146 300.645 156.014 302.726 154.981Z" fill="#CB6630"/>
<path d="M245.171 137.694C246.835 136.868 244.009 135.889 242.622 135.2C242.622 134.167 241.01 134.595 238.93 135.628C236.849 136.661 238.93 136.661 241.01 139.76C243.09 142.859 243.09 138.727 245.171 137.694Z" fill="#CB6630"/>
<path d="M108.153 32.3028C109.818 31.4764 106.992 30.4976 105.605 29.8089C105.605 28.7759 103.992 29.2038 101.912 30.2368C99.8315 31.2698 102.422 30.2488 104.502 33.3477C106.583 36.4467 106.073 33.3358 108.153 32.3028Z" fill="#CB6630"/>
<path d="M95.6768 17.2453C97.3412 16.4189 94.4531 16.9128 93.0661 16.2241C93.0661 15.1912 91.5159 14.1463 89.4354 15.1793C87.355 16.2123 89.9454 15.1912 92.0258 18.2901C94.1063 21.3891 93.5963 18.2783 95.6768 17.2453Z" fill="#D36738"/>
<path d="M172.647 73.6225C174.312 72.7961 171.486 71.8173 170.099 71.1286C170.099 70.0956 166.916 69.5024 164.835 70.5354C162.755 71.5684 165.876 73.6345 168.487 75.6885C171.426 78.0013 170.567 74.6555 172.647 73.6225Z" fill="#C1511F"/>
<path d="M255.722 151.404C257.387 150.578 254.561 149.599 253.174 148.91C253.174 147.877 249.991 147.284 247.91 148.317C245.83 149.35 248.95 151.416 251.561 153.47C254.501 155.783 253.642 152.437 255.722 151.404Z" fill="#C1511F"/>
<path d="M189.006 91.1953C190.67 90.3689 189.415 88.8841 188.028 88.1954C188.028 87.1624 184.845 86.5692 182.765 87.6022C180.684 88.6352 184.845 89.1293 186.416 92.7553C187.898 96.1766 186.926 92.2283 189.006 91.1953Z" fill="#C9683B"/>
<path d="M218.523 152.456C220.188 151.63 218.932 150.145 217.545 149.457C217.545 148.424 214.362 147.83 212.282 148.863C210.201 149.896 214.362 150.39 215.933 154.016C217.415 157.438 216.443 153.489 218.523 152.456Z" fill="#C9683B"/>
<path d="M206.041 129.731C207.705 128.904 206.45 127.419 205.063 126.731C205.063 125.698 201.88 125.105 199.799 126.138C197.719 127.171 201.88 127.665 203.451 131.291C204.933 134.712 203.96 130.764 206.041 129.731Z" fill="#C9683B"/>
<path d="M180.142 117.872C181.349 110.755 174.608 113.424 171.087 115.648C156.599 134.331 177.124 157.537 189.197 166.804C198.856 172.142 196.24 167.545 193.725 164.58C176.822 150.345 172.596 140.855 172.596 137.89C168.974 132.552 176.117 122.321 180.142 117.872Z" fill="#C55D2A"/>
<path d="M201.243 109.789C197.082 111.442 201.59 112.544 203.323 113.921C219.135 120.532 223.781 135.27 224.128 141.812C224.128 157.307 223.088 159.373 224.128 167.637C226.624 174.248 227.249 169.014 227.249 166.604L229.329 150.076L229.329 149.043C230.369 133.548 225.515 125.973 222.047 122.185C215.39 113.921 204.017 109.445 201.243 109.789Z" fill="#F9AA67"/>
<path d="M196.041 257.507C199.37 252.549 196.041 250.621 193.961 250.276C185.639 247.797 184.945 256.13 185.639 260.606C188.135 255.648 190.84 257.163 191.88 258.54C193.545 259.367 195.348 258.196 196.041 257.507Z" fill="#3C1F0D"/>
<path d="M203.323 253.375C210.813 251.723 209.218 258.885 207.484 262.672C204.987 265.978 202.976 264.05 202.283 262.672C201.451 259.367 197.775 264.05 196.041 266.804C191.881 257.714 199.162 254.064 203.323 253.375Z" fill="#3C1F0D"/>
<path d="M215.806 256.474C223.296 252.343 225.168 258.885 225.168 262.672C224.336 266.804 220.661 264.394 218.927 262.672C216.431 261.02 214.419 265.427 213.726 267.837C210.397 262.879 213.726 258.196 215.806 256.474Z" fill="#3C1F0D"/>
<path d="M131.051 111.004C138.541 101.914 127.93 101.019 121.689 101.707C111.703 115.756 105.045 118.579 102.965 118.235C101.3 117.409 87.0144 116.513 80.0795 116.169C70.0933 116.169 71.7577 123.744 73.8382 127.532C73.006 125.879 76.2654 124.089 77.9991 123.4C74.6704 125.879 76.6121 129.254 77.9991 130.631C78.8313 125.673 83.2002 124.433 85.2807 124.433C88.6094 120.301 92.909 122.023 94.6428 123.4C95.4749 125.053 104.005 124.777 108.166 124.433C113.159 124.433 125.503 115.481 131.051 111.004Z" fill="#E3793F"/>
<path d="M19.2032 31.2818C20.0354 28.8026 17.4695 28.1828 16.0825 28.1828C14.4182 27.3565 14.0021 30.5932 14.002 32.3148C14.002 33.3478 15.0423 33.3478 17.1227 33.3478C18.7871 33.3478 19.2032 31.9705 19.2032 31.2818Z" fill="#483B32"/>
<path d="M31.6855 31.2817C32.5176 30.4553 31.3387 28.8714 30.6452 28.1827C28.9811 27.3563 27.8712 29.2157 27.5243 30.2487C27.5243 30.9374 27.7323 32.5213 28.5645 33.3477C29.6048 34.3807 30.6452 32.3147 31.6855 31.2817Z" fill="#483B32"/>
<path d="M83.697 24.0508C84.5292 19.9188 81.2698 18.1972 79.5361 17.8528C76.2073 17.0264 76.7621 23.0178 77.4556 26.1168C78.4958 29.2158 79.5361 29.2158 81.6165 29.2158C83.2809 29.2158 83.697 25.7725 83.697 24.0508Z" fill="#12312C"/>
<path d="M87.8574 14.754C85.0835 13.3767 78.7034 11.4484 75.3747 14.754C77.8019 11.3107 83.6965 6.49009 87.8574 14.754Z" fill="#654C38"/>
<path d="M79.5359 24.0507C80.368 24.8771 81.9631 23.7064 82.6565 23.0177C84.0588 21.9847 82.6565 20.9517 82.6565 19.9188C82.6565 19.0924 80.5761 18.8858 79.5359 18.8858C78.4956 17.8528 77.4554 19.9187 77.4554 20.9517C76.6232 22.6045 78.4956 23.7064 79.5359 24.0507Z" fill="#CEB597"/>
<defs>
<linearGradient id="paint0_linear" x1="74.3346" y1="36.4468" x2="14.0013" y2="36.4468" gradientUnits="userSpaceOnUse">
<stop stop-color="#281307"/>
<stop offset="0.515625" stop-color="#8A421A"/>
</linearGradient>
</defs>
</svg>
