<svg width="423" height="271" viewBox="0 0 423 271" fill="none" xmlns="http://www.w3.org/2000/svg">
<path d="M38.8792 35.6299C20.8285 38.7339 14.7953 51.4823 13.9587 57.0678C14.674 58.2162 15.7416 59.2597 17.0303 60.2035C15.2482 69.5248 17.7428 72.803 17.4528 72.0548C17.2207 71.4562 19.3034 65.2524 20.3737 62.2253C21.1797 62.6361 22.0177 63.0211 22.8694 63.3809C20.6088 70.0616 24.0176 75.6492 23.7727 74.9977C23.5767 74.4765 25.3401 67.8935 26.2462 64.6671C27.2761 65.0221 28.2911 65.342 29.2594 65.628C27.7858 71.3127 29.9109 74.3095 30.3883 75.0407C30.3935 75.1424 30.4109 75.2023 30.4424 75.2138C30.5114 75.2389 30.4807 75.1822 30.3883 75.0407C30.3377 74.0432 31.4692 69.029 32.0992 66.4137C33.8471 66.8669 35.2448 67.1775 36.0006 67.3567C35.4749 72.4628 38.1166 76.2016 38.1361 75.4857C38.1518 74.913 38.8068 69.8665 39.1323 67.4148C40.2142 67.3251 41.5661 67.1971 43.0337 67.0496C41.9423 70.8745 44.4891 75.4682 45.2421 74.6713C45.8445 74.0338 45.937 69.1265 45.9079 66.7525C46.6785 66.6709 47.4537 66.5875 48.2145 66.5046C47.6051 67.6851 50.1449 74.715 50.8992 74.6682C51.5027 74.6307 51.3307 68.9923 51.1692 66.1778C51.9548 66.0895 52.6885 66.0061 53.3421 65.9308C53.3421 65.9308 53.5947 65.954 54.0549 65.998C53.9704 68.2558 55.5255 72.7368 56.0416 72.2016C56.4545 71.7735 57.1132 68.1087 57.391 66.3298C58.1367 66.4065 58.9628 66.493 59.8496 66.5884C59.4582 67.2158 59.9319 71.2074 61.2172 71.5146C62.2455 71.7603 62.7595 68.5568 62.8879 66.9244C63.9552 67.0457 65.0682 67.176 66.2024 67.3137C65.9581 68.2792 66.6131 71.4096 67.4313 71.0589C68.0859 70.7783 68.5377 68.6516 68.6818 67.6233C71.2906 67.9583 73.9188 68.3272 76.2842 68.7149C71.6644 70.6196 67.0166 73.7171 63.1692 76.6431L61.1679 74.273L61.4268 77.9976C60.3892 78.8211 59.4299 79.6123 58.569 80.3378L56.3221 77.2639L57.0862 81.6036C55.8222 82.6953 54.8901 83.5287 54.3947 83.9317L52.5535 80.7332L52.886 85.6074C52.081 86.4452 51.06 87.2436 49.9099 87.9962C49.7478 88.1034 48.3838 85.4934 47.7221 84.175L47.841 89.2332C46.8479 89.7799 45.8059 90.2963 44.7568 90.7793L42.1469 86.4296L42.7518 91.6618C41.955 91.9979 41.1696 92.3132 40.4143 92.6064C39.7071 91.334 38.2776 88.8303 38.2178 88.9948C38.1579 89.1592 38.4017 91.9454 38.5311 93.3179C37.8085 93.5841 37.1368 93.8247 36.5375 94.0381L33.8337 90.9998L34.5583 94.7501C34.3425 94.8312 34.1623 94.9021 34.0221 94.9623C32.103 95.787 33.6538 97.8276 34.6691 98.7448C43.4482 113.182 54.9087 107.4 59.5416 102.705C71.8891 94.9002 88.3331 91.8374 95.0117 91.2816C96.183 90.8276 98.3636 89.4835 97.7159 87.7387C97.0683 85.994 97.9719 84.1851 98.5046 83.4987C106.028 82.3137 106.584 74.9122 105.922 71.3596C109.489 71.0107 112.159 70.1886 112.908 68.6329C115.13 64.0191 116.72 61.5918 117.238 60.9549C126.473 49.5938 119.985 38.9212 118.961 38.5485C118.142 38.2502 116.028 37.0482 115.073 36.4844C114.343 36.5411 111.013 32.236 107.507 28.769C104 25.3019 99.9392 26.0146 99.5978 25.8904C99.2564 25.7661 90.5115 28.1937 90.2839 28.1109L81.3186 24.8477C72.5957 27.1947 61.8508 31.6797 38.8792 35.6299Z" fill="#F7EFA5"/>
<path d="M105.922 71.3596C109.489 71.0107 112.159 70.1886 112.908 68.6329C115.13 64.0191 116.72 61.5918 117.238 60.9549C126.473 49.5938 119.985 38.9212 118.961 38.5485C118.142 38.2502 116.028 37.0482 115.073 36.4844C114.343 36.5411 111.013 32.236 107.507 28.769C104 25.3019 99.9392 26.0146 99.5978 25.8904C99.2564 25.7661 90.5115 28.1937 90.2839 28.1109C90.1019 28.0446 84.2312 25.9078 81.3186 24.8477C72.5957 27.1947 61.8508 31.6797 38.8792 35.6299C20.8285 38.7339 14.7953 51.4823 13.9587 57.0678C14.674 58.2162 15.7416 59.2597 17.0303 60.2035M105.922 71.3596C106.584 74.9122 106.028 82.3137 98.5046 83.4987C97.9719 84.1851 97.0683 85.994 97.7159 87.7387C98.3636 89.4835 96.183 90.8276 95.0117 91.2816C88.3331 91.8374 71.8891 94.9002 59.5416 102.705C54.9087 107.4 43.4482 113.182 34.6691 98.7448M105.922 71.3596C102.434 71.7008 98.0898 71.5898 93.8464 71.2699M34.6691 98.7448C33.6538 97.8276 32.103 95.787 34.0221 94.9623C34.1623 94.9021 34.3425 94.8312 34.5583 94.7501M34.6691 98.7448C34.8183 98.7774 34.9686 98.8072 35.12 98.8344M68.5841 83.1671C68.0709 83.6208 67.5374 84.0812 66.9857 84.5455M68.5841 83.1671C68.1845 83.7428 66.6127 80.7463 65.8767 79.176C65.257 80.8787 66.3578 83.4651 66.9857 84.5455M68.5841 83.1671C69.286 82.5484 70.1417 81.8401 71.1192 81.0841M93.8464 71.2699C89.5584 70.9466 85.3738 70.4101 82.2811 69.9117C80.7264 69.5041 78.6351 69.1002 76.2842 68.7149M93.8464 71.2699C88.1605 70.9796 81.3502 74.222 75.9444 77.6849M76.2842 68.7149C73.9188 68.3272 71.2906 67.9583 68.6818 67.6233M76.2842 68.7149C71.6644 70.6196 67.0166 73.7171 63.1692 76.6431M37.293 99.0476C36.7228 98.1102 35.6051 96.173 35.6958 95.924C35.809 95.6127 34.8805 98.7937 35.12 98.8344M37.293 99.0476C36.548 99.0302 35.8224 98.9607 35.12 98.8344M37.293 99.0476C38.4106 99.0737 39.5721 98.9824 40.765 98.7897M43.3737 98.2245C42.4756 97.0938 40.7247 94.8048 40.9057 94.6946C41.1319 94.5568 40.4963 98.8347 40.765 98.7897M43.3737 98.2245C42.491 98.4612 41.6199 98.6515 40.765 98.7897M43.3737 98.2245C44.3405 97.9653 45.3211 97.6505 46.3096 97.2877M48.5941 96.3721C48.3198 96.4899 45.6953 92.7839 45.9746 92.6214C46.2538 92.4589 45.7307 97.0869 46.3096 97.2877M48.5941 96.3721C47.8298 96.7032 47.0674 97.0095 46.3096 97.2877M48.5941 96.3721C49.2054 96.1073 49.818 95.8266 50.4305 95.5318M52.5159 94.4748C51.766 92.9102 50.2994 89.7139 50.4324 89.4453C50.5986 89.1096 49.8932 95.3482 50.4305 95.5318M52.5159 94.4748C51.8223 94.8436 51.1265 95.1968 50.4305 95.5318M52.5159 94.4748C53.3578 94.0271 54.1964 93.5564 55.0281 93.0673M56.7412 92.0284C55.694 90.6858 53.6498 87.9837 53.8505 87.9159C54.1015 87.8312 54.1183 93.1886 55.0281 93.0673M56.7412 92.0284C56.1743 92.3825 55.6028 92.7293 55.0281 93.0673M56.7412 92.0284C57.3805 91.6292 58.0141 91.2207 58.6402 90.8051M60.7775 89.3402L57.6438 85.1143C57.8551 86.9677 58.3502 90.7006 58.6402 90.8051M60.7775 89.3402C60.0768 89.8357 59.3635 90.3251 58.6402 90.8051M60.7775 89.3402C61.4232 88.8836 62.0582 88.4218 62.6805 87.9576M64.4741 86.5856L61.762 82.8711C61.7186 84.556 61.8415 87.9321 62.6805 87.9576M64.4741 86.5856C63.8899 87.0437 63.2913 87.5018 62.6805 87.9576M64.4741 86.5856C65.3452 85.9027 66.1846 85.2199 66.9857 84.5455M71.1192 81.0841C70.472 79.5605 69.2403 76.3831 69.4911 75.8622C70.563 77.2986 72.7548 80.0814 72.9461 79.722M71.1192 81.0841C71.6889 80.6435 72.2999 80.1867 72.9461 79.722M72.9461 79.722C73.4841 79.335 74.0464 78.9426 74.6293 78.5495M74.6293 78.5495C74.0903 77.1621 73.0741 74.2801 73.3219 73.8514C73.5697 73.4228 75.1735 76.2285 75.9444 77.6849M74.6293 78.5495C75.0571 78.261 75.4959 77.9722 75.9444 77.6849M68.6818 67.6233C68.5377 68.6515 68.0859 70.7783 67.4313 71.0589C66.6131 71.4096 65.9581 68.2792 66.2024 67.3137M68.6818 67.6233C67.8503 67.5165 67.0208 67.4131 66.2024 67.3137M66.2024 67.3137C65.0682 67.176 63.9552 67.0457 62.8879 66.9244M62.8879 66.9244C62.7595 68.5568 62.2455 71.7603 61.2172 71.5146C59.9319 71.2074 59.4582 67.2158 59.8496 66.5884M62.8879 66.9244C61.8215 66.8031 60.8007 66.6907 59.8496 66.5884M59.8496 66.5884C58.9628 66.493 58.1367 66.4065 57.391 66.3298M57.391 66.3298C57.1132 68.1087 56.4545 71.7735 56.0416 72.2016C55.5255 72.7368 53.9704 68.2558 54.0549 65.998M57.391 66.3298C55.911 66.1776 54.7477 66.0642 54.0549 65.998M54.0549 65.998C53.5947 65.954 53.3421 65.9308 53.3421 65.9308C52.6885 66.0061 51.9549 66.0895 51.1692 66.1778M51.1692 66.1778C51.3307 68.9923 51.5027 74.6307 50.8992 74.6682C50.1449 74.715 47.6051 67.6851 48.2145 66.5046M51.1692 66.1778C50.2413 66.282 49.241 66.3928 48.2145 66.5046M48.2145 66.5046C47.4537 66.5875 46.6785 66.6709 45.9079 66.7525M45.9079 66.7525C45.937 69.1265 45.8445 74.0338 45.2421 74.6713C44.4891 75.4682 41.9423 70.8745 43.0337 67.0496M45.9079 66.7525C44.9296 66.856 43.9587 66.9567 43.0337 67.0496M43.0337 67.0496C41.5661 67.1971 40.2142 67.3251 39.1323 67.4148M39.1323 67.4148C37.68 67.5352 36.7143 67.5863 36.6088 67.5221C36.5634 67.4945 36.351 67.4397 36.0006 67.3567M39.1323 67.4148C38.8068 69.8665 38.1518 74.913 38.1361 75.4857C38.1166 76.2016 35.4749 72.4628 36.0006 67.3567M36.0006 67.3567C35.2448 67.1775 33.8471 66.8669 32.0992 66.4137M32.0992 66.4137C31.405 69.2954 30.1019 75.0898 30.4424 75.2138C30.868 75.3687 27.5006 72.4127 29.2594 65.628M32.0992 66.4137C31.2276 66.1877 30.2689 65.9263 29.2594 65.628M29.2594 65.628C28.2911 65.342 27.2761 65.0221 26.2462 64.6671M26.2462 64.6671C25.3401 67.8935 23.5767 74.4765 23.7727 74.9977C24.0176 75.6492 20.6088 70.0616 22.8694 63.3809M26.2462 64.6671C25.1245 64.2805 23.9852 63.8523 22.8694 63.3809M22.8694 63.3809C22.0177 63.0211 21.1797 62.6362 20.3737 62.2253M20.3737 62.2253C19.3034 65.2524 17.2207 71.4562 17.4528 72.0548C17.7428 72.803 15.2482 69.5248 17.0303 60.2035M20.3737 62.2253C19.1668 61.6101 18.0318 60.937 17.0303 60.2035M34.5583 94.7501L33.8337 90.9998L36.5375 94.0381M34.5583 94.7501C35.0506 94.565 35.728 94.3263 36.5375 94.0381M36.5375 94.0381C37.1368 93.8247 37.8085 93.5841 38.5311 93.3179M38.5311 93.3179C38.4017 91.9453 38.158 89.1592 38.2178 88.9948C38.2776 88.8303 39.7071 91.334 40.4143 92.6064M38.5311 93.3179C39.1282 93.0979 39.7599 92.8605 40.4143 92.6064M40.4143 92.6064C41.1696 92.3132 41.955 91.9979 42.7518 91.6618M42.7518 91.6618L42.1469 86.4296L44.7568 90.7793M42.7518 91.6618C43.4158 91.3818 44.0877 91.0874 44.7568 90.7793M44.7568 90.7793C45.8059 90.2963 46.8479 89.7799 47.841 89.2332M47.841 89.2332L47.7221 84.175C48.3838 85.4934 49.7478 88.1034 49.9099 87.9962M47.841 89.2332C48.5617 88.8364 49.2566 88.4237 49.9099 87.9962M49.9099 87.9962C51.06 87.2436 52.081 86.4452 52.886 85.6074M52.886 85.6074C53.3264 85.1491 53.7021 84.6789 53.999 84.198C54.0328 84.2103 54.1681 84.1161 54.3947 83.9317M52.886 85.6074L52.5535 80.7332L54.3947 83.9317M54.3947 83.9317C54.8901 83.5287 55.8222 82.6953 57.0862 81.6036M57.0862 81.6036L56.3221 77.2639L58.569 80.3378M57.0862 81.6036C57.5394 81.2122 58.0353 80.7877 58.569 80.3378M58.569 80.3378C59.4299 79.6123 60.3892 78.8212 61.4268 77.9976M61.4268 77.9976L61.1679 74.273C61.835 75.0631 63.1692 76.6431 63.1692 76.6431M61.4268 77.9976C61.9859 77.5538 62.5678 77.1005 63.1692 76.6431M70.6274 58.5135C65.8874 53.3439 70.3961 43 73.243 38.4741C76.884 35.2116 79.8822 34.7777 82.2148 35.6851M70.6274 58.5135C72.5571 60.3379 77.169 63.159 80.1795 59.8483C80.796 55.1768 83.1792 45.1506 87.7798 42.4187C86.9793 40.0035 85.1097 36.8112 82.2148 35.6851M70.6274 58.5135C70.3319 57.6437 78.3371 48.529 80.3839 47.5413C82.0214 46.7511 81.2074 44.5469 80.5957 43.5435C81.3033 42.2025 82.6135 39.4467 82.1941 39.152C81.7746 38.8572 82.0331 36.7179 82.2148 35.6851M102.975 65.0176C104.527 64.4624 107.503 62.3515 106.998 58.3488C107.218 57.1642 108.747 54.1629 113.101 51.635C113.897 48.7831 113.363 43.1377 104.857 43.371C104.384 45.1167 103.493 48.7988 103.705 49.5614C103.97 50.5147 99.7025 60.2222 100.41 60.9692M41.3993 56.0179C40.3036 56.8389 37.6239 58.1048 35.6709 56.6003M30.2086 56.4362C29.93 58.0442 29.1364 61.1743 28.1912 60.8303M62.5239 38.5838C61.473 38.9646 60.4373 39.4739 59.5826 39.9702C58.9929 40.298 60.9362 41.5241 55.5902 40.1506M62.5239 38.5838C65.7827 37.4031 69.188 37.4574 67.7968 42.96C65.9558 45.805 62.5039 52.191 63.4241 54.9739C63.1665 56.4446 61.8216 59.1901 58.503 58.4059C55.5166 57.7002 56.1622 56.9222 53.7307 56.0483M62.5239 38.5838C61.6911 40.7017 59.8038 44.9278 58.9175 44.8894C57.8097 44.8414 52.2953 53.2975 53.7307 56.0483M53.7307 56.0483C52.7846 55.7083 51.3728 55.3538 49.0999 54.9835C47.8924 54.7867 46.9132 54.4528 46.1248 54.0244M55.5902 40.1506C55.283 40.0717 54.9517 39.9842 54.5944 39.8874C49.3356 38.4629 45.0614 43.7208 43.5817 46.5278C42.8772 48.4633 42.6747 52.1495 46.1248 54.0244M55.5902 40.1506C55.199 42.225 54.1615 46.475 53.1411 46.8794C51.8656 47.3848 46.1587 52.908 46.1248 54.0244M87.011 32.5398C90.8703 34.6693 96.3818 41.1726 87.5528 50.1505M38.5019 44.6789C40.0604 47.4728 42.2126 53.1443 38.3532 53.479C34.4938 53.8137 34.2675 50.5424 34.6368 48.865C35.5794 47.6537 37.6721 45.1208 38.5019 44.6789ZM23.3915 59.0833C22.1514 58.6612 19.7206 57.3134 19.9186 55.299C20.1166 53.2846 24.9668 47.4029 27.3672 44.7138C28.3541 44.6828 30.2123 45.0302 29.7499 46.6682C29.172 48.7157 26.365 58.7254 23.3915 59.0833Z" stroke="black"/>
<path d="M123.342 63.3073H117.84L109.377 70.9248C110.082 73.4287 111.831 78.5846 113.185 79.1771C113.292 79.2236 113.436 79.2217 113.615 79.1771C113.965 81.3636 114.836 85.7155 115.513 85.6308C116.359 85.525 109.906 90.286 112.339 91.6614C114.286 92.7617 117.523 89.8628 118.898 88.2758C119.31 88.2665 119.785 88.223 120.304 88.1368V93.1425C116.203 97.1629 111.069 103.998 123.342 99.1731C124.491 99.275 125.984 99.2577 127.609 99.0235V103.86C125.264 106.561 120.875 112.064 122.081 112.466C123.287 112.868 127.734 110.204 129.807 108.822C130.897 108.855 131.912 108.818 132.855 108.72C132.79 110.409 132.757 113.895 133.15 114.332C133.543 114.769 129.62 120.301 127.609 123.012C129.128 123.686 133.281 123.624 137.736 117.99V121.792L132.855 126.334L139.774 125.525L141.007 128.871C140.342 131.359 139.047 137.351 139.187 141.414C138.274 143.122 136.397 146.581 136.197 146.756C136.104 146.837 136.233 147.502 136.629 148.288H133.395C133.209 148.288 130.434 153.59 129.07 156.24C127.691 157.341 124.364 159.97 122.095 161.681C119.258 163.82 123.444 165.308 124.513 165.076C125.583 164.843 126.559 166.657 128.466 167.447C130.372 168.238 130.558 159.309 131.116 158.844C131.563 158.472 135.239 155.651 137.022 154.287L137.504 149.586C138.272 150.45 139.396 151.163 140.939 151.107C141.185 156.021 142.489 167.84 145.745 175.802C144.637 175.887 143.664 176.019 143.116 176.22C141.306 176.884 141.668 180.203 142.573 180.686C143.069 180.95 144.975 180.202 146.718 179.49C147.08 182.348 150.856 184.949 151.52 185.482C151.544 185.538 151.569 185.571 151.594 185.578C151.647 185.593 151.616 185.559 151.52 185.482C151.23 184.8 151.055 180.712 151.001 178.597C152.018 178.698 153.678 178.644 156.513 177.789C160.038 176.727 157.982 174.571 156.513 173.625C156.181 173.393 152.7 174.896 151.001 175.677C150.664 175.671 150.26 175.666 149.815 175.667C148.174 172.087 147.139 157.791 146.826 151.091C147.915 152.478 150.554 152.545 156.146 147.936H156.513L156.146 151.091C153.624 150.424 151.665 152.944 151.001 154.287L153.004 164.166C152.076 166.884 150.378 172.433 151.001 172.889C151.781 173.46 155.079 172.808 155.612 171.666C156.563 172.481 158.612 173.623 159.199 171.666C159.786 169.71 157.408 164.194 156.146 161.681C155.888 159.878 155.528 156.074 156.146 155.28C156.265 155.153 156.39 155.01 156.513 154.854C156.513 158.753 159.543 167.036 161.058 170.69C159.247 175.818 157.053 180.064 155.612 183.426C152.953 189.633 153.982 190.339 154.829 189.916C158.812 186.565 161.824 182.386 164.093 177.789C165.408 180.753 168.502 187.019 170.354 188.37C172.207 189.721 172.209 188.62 171.979 187.901L166.189 172.889C168.64 166.235 169.832 159.06 170.354 152.432C170.277 153.492 176.044 165.046 178.937 170.69C176.606 180.337 173.432 187.418 172.854 189.324C171.844 192.652 173.275 192.247 174.116 191.629C177.707 187.064 180.34 181.794 182.229 176.22C182.565 177.31 184.024 180.421 187.176 184.147C191.116 188.805 189.427 184.665 189.709 184.147C189.934 183.733 185.894 175.003 183.846 170.69C184.654 167.444 185.245 164.143 185.658 160.859C187.196 163.244 190.384 168.258 190.834 169.233C191.397 170.453 193.928 171.11 193.928 170.172C193.928 169.234 186.288 153.831 186.325 153.103C186.788 143.502 185.934 134.571 184.795 128.254C187.789 134.149 194.05 145.998 195.137 146.234C196.59 155.995 196.952 168.851 194.628 184.665C194.831 186.089 195.582 187.979 196.956 184.147C198.021 181.18 201.403 170.225 200.847 154.53C201.307 154.704 205.076 158.516 206.119 158.516C207.163 158.516 207.801 158.356 206.699 156.617C205.818 155.226 202.087 149.861 200.332 147.352C199.471 139.397 197.55 130.509 193.928 121.02L196.956 123.012C213.051 160.394 207.279 170.688 207.469 174.803C207.622 178.094 208.605 176.174 209.078 174.803C214.855 157.142 206.976 130.729 202.314 119.731C202.404 119.135 202.481 118.554 202.546 117.99C202.965 118.57 204.424 119.989 206.9 121.02C209.995 122.31 214.652 151.445 214.519 158.516C214.412 164.173 215.797 161.381 216.503 159.278C220.329 143.109 214.909 126.176 211.721 119.731C212.009 117.941 212.201 116.291 212.313 114.77L215.237 115.685C221.004 116.857 224.789 140.468 225.24 143.713C225.6 146.308 226.231 144.794 226.501 143.713C228.809 133.763 223.858 119.613 221.094 113.782C221.386 114.207 223.98 113.605 225.24 113.251C228.243 115.106 231.513 129.6 230.898 135.108C230.406 139.514 232.224 136.596 233.194 134.586C235.513 129.577 231.687 117.502 229.484 112.091C229.903 112.202 230.696 111.936 230.866 110.18H235.421C236.496 109.222 238.615 107.194 238.494 106.751C240.953 106.751 242.758 111.025 243.354 113.162C244.147 120.083 249.692 117.728 252.366 115.685C263.27 110.458 268.497 115.235 269.038 115.685C269.124 115.757 270.036 115.974 271.508 116.238C270.751 117.367 269.348 119.847 269.789 120.73L266.704 120.531C267.05 120.25 267.368 119.941 267.565 119.731C260.325 108.34 255.326 118.207 253.731 124.564C247.02 135.024 233.283 155.733 232.019 154.891C230.755 154.048 226.727 156.956 224.871 158.516C224.169 159.163 223.065 161.557 224.269 165.951C225.473 170.345 231.596 170.1 234.507 169.428C239.35 176.026 248.849 166.086 245.516 161.737C246.987 154.259 252.798 138.236 264.272 133.97C267.849 132.64 270.019 131.219 271.253 129.817C272.352 131.627 275.44 134.293 279.002 130.486L281.17 132.555C281.452 135.293 281.733 141.56 282.765 141.373C283.59 141.223 285.298 135.432 286.048 132.555C287.474 132.33 288.617 131.825 289.53 131.129C289.749 132.076 290.546 133.97 291.985 133.97L291.139 152.073C291.341 153.317 292.808 151.668 297.063 135.108C297.457 135.134 297.942 135.053 298.482 134.817C298.822 135.464 299.925 136.878 301.616 137.36C300.87 141.6 299.675 150.48 300.863 152.073C302.052 153.665 305.02 143.63 306.356 138.413C306.685 138.142 307.041 137.818 307.409 137.444L310.321 139.97C309.711 141.773 308.61 146.222 309.093 149.6C309.697 153.822 310.628 152.073 311.623 151.215C312.617 150.357 312.548 144.917 313.238 142.691C313.791 140.91 315.791 140.135 316.721 139.97C316.234 140.381 319.277 141.598 320.86 142.155C320.588 143.024 319.979 145.057 319.718 146.231C319.392 147.698 319.881 152.073 320.86 152.073C321.838 152.073 323.957 145.66 324.12 144.764C324.212 144.259 325.035 143.913 325.789 143.714C326.579 143.86 328.125 144.674 327.986 146.761C327.812 149.37 328.276 154.066 328.855 154.008C329.319 153.962 330.44 151.631 330.942 150.472C331.359 149.641 332.324 148.013 332.856 148.152C333.52 148.326 335.87 148.616 336.392 148.442C336.029 148.997 338.444 150.522 339.697 151.215C339.697 153.293 339.894 157.449 340.682 157.449C341.471 157.449 343.157 153.865 343.901 152.073H346.685C346.793 152.073 346.905 151.982 347.021 151.818L350.242 153.702C350.34 153.159 350.676 153.001 351.229 156.714C351.921 161.356 353.353 158.69 353.501 158.887C353.62 159.045 354.505 155.7 354.933 154.008C355.493 153.643 356.79 152.862 357.501 152.665C357.696 152.611 357.868 152.194 358.013 151.566L358.439 153.411L359.698 154.008L361.914 155.068C362.257 155.617 362.997 157.149 363.213 158.887C363.429 160.626 364.625 160.069 365.195 159.574V157.449L366.34 154.617L368.697 153.702L369.483 154.617C370.009 154.617 371.063 154.707 371.063 155.068C371.063 155.428 372.668 158.222 373.47 159.574L374.443 158.887L374.9 155.068C375.377 154.714 376.45 153.947 376.931 153.702L378.144 155.835L379.991 156.327L380.669 156.714L381.161 158.887L382.947 160.883C383.234 160.678 383.809 160.129 383.809 159.574C383.809 159.018 384.383 156.85 384.671 155.835C384.896 155.579 385.471 155.068 385.964 155.068C386.191 155.068 386.326 154.923 386.406 154.617L388.673 155.835C388.755 156.373 389.054 157.803 389.596 159.221C390.138 160.639 391.054 160.92 391.443 160.883L391.874 159.221C391.895 158.63 392.084 157.397 392.675 157.189C393.266 156.982 394.932 155.688 395.692 155.068C395.698 154.927 395.704 154.777 395.71 154.617L397.398 155.835L399.149 156.714L400.419 155.835L401.207 155.338C401.601 155.248 402.459 154.978 402.74 154.617C402.858 154.465 402.831 153.79 402.74 152.955C402.977 152.958 403.506 152.93 403.72 152.802C403.987 152.641 405.164 154.617 405.913 154.617C406.513 154.617 407.162 153.157 407.412 152.427C407.754 152.391 408.545 152.341 408.973 152.427C409.373 152.507 410.035 151.988 410.345 151.566H412.241C412.522 151.566 414.168 150.636 414.956 150.171C414.903 149.895 414.816 149.507 414.713 149.143C415.743 149.138 417.802 149.03 417.802 148.631C417.802 148.54 417.791 148.362 417.766 148.132L420.736 145.768C421.378 145.353 422.619 144.523 422.444 144.523H420.517C420.552 144.254 418.207 144.988 417.03 145.388C416.877 145.154 416.697 145.008 416.489 145.008C415.718 145.008 414.037 145.514 413.292 145.768C412.311 144.807 410.004 145.888 408.973 146.548C408.871 146.291 408.702 146.052 408.438 145.865C407.582 145.256 403.858 147.797 402.102 149.143C402.074 149.033 402.053 148.963 402.039 148.945C401.934 148.805 400.915 147.34 400.419 146.625L398.536 147.83H395.499C395.461 147.623 395.415 147.493 395.261 147.493H393.906L393.352 146.968C393.27 146.568 393.02 145.616 392.675 145.008C392.33 144.399 391.71 144.12 391.443 144.057L390.089 144.859L389.596 146.968L385.752 147.493L384.671 145.768L383.439 145.008V143.541L382.331 141.751C382.064 141.566 381.457 141.488 381.161 142.651C380.866 143.814 378.546 145.606 377.422 146.356C377.398 146.035 377.372 145.802 377.346 145.768C377.258 145.65 375.821 145.008 375.616 144.859C375.411 144.71 374.59 141.751 374.443 141.194C374.326 140.748 373.495 141.008 373.094 141.194C372.948 141.575 372.555 142.469 372.156 142.996C371.757 143.523 369.684 144.556 368.697 145.008C367.94 144.404 366.409 143.157 366.34 142.996C366.254 142.795 365.737 140.036 365.708 139.863C365.679 139.691 364.357 139.231 364.012 139.231C363.667 139.231 362.202 142.421 361.914 142.651C361.684 142.835 359.556 143.665 358.521 144.057C358.501 143.829 358.474 143.652 358.439 143.541C358.163 142.642 356.81 141.973 356.168 141.751V138.76C355.69 138.078 354.637 136.714 354.242 136.714C353.847 136.714 352.464 139.084 351.822 140.269L349.359 140.785C349.049 140.187 348.155 139.677 347.663 139.466C348.19 137.886 347.362 134.651 346.685 134.35C346.143 134.109 344.202 136.313 343.299 137.444L340.48 137.572L340.277 136.383C340.315 136.229 340.578 135.143 341.32 132.035C342.248 128.151 340.161 128.73 339.697 128.672C339.326 128.626 336.45 131.707 335.059 133.253C334.266 132.673 332.584 131.558 332.191 131.739C332.31 130.329 332.859 127.725 333.251 124.76C333.642 121.8 332.218 121.881 331.457 122.291C329.888 123.926 326.967 127.011 326.653 127.5C326.339 127.201 322.601 126.176 322.034 126.175C322.015 125.648 321.976 125.171 321.925 124.76C323.953 117.392 322.77 116.705 321.925 117.283C320.235 119.175 316.828 122.825 316.721 122.291C316.615 121.758 313.438 121.088 311.863 120.82C311.789 120.591 311.709 120.361 311.623 120.13C312.726 117.496 314.723 112.124 313.88 111.703C312.827 111.176 309.342 113.837 307.409 117.283H305.104C306.374 115.156 308.828 110.758 308.49 110.18C308.067 109.457 308.278 103.17 303.729 108.166L302.349 109.457C301.643 100.446 290.337 99.202 284.629 99.7342C286.07 98.869 278.501 97.39 274.535 96.7587C263.721 97.911 255.25 93.9354 252.366 91.8036C235.207 84.3046 225.892 89.3529 223.379 92.8144C218.069 82.5275 217.546 88.177 217.948 92.2876L216.63 93.2094C215.767 92.7127 214.916 92.4183 214.172 92.2876C207.394 83.0158 208.184 92.4281 208.184 92.8144C208.184 93.1235 207.084 95.1985 206.534 96.1973C205.848 95.6828 205.11 95.1772 204.626 94.861C197.13 82.8578 200.451 96.7587 199.929 96.7587C199.511 96.7587 198.015 98.2461 197.319 98.9898C196.276 98.18 195.452 97.8309 195.27 97.6801C187.13 85.6683 188.884 98.9509 189.043 99.5546C189.17 100.037 188.77 100.838 188.555 101.177C187.695 100.289 186.293 99.8267 184.315 100.385C174.775 88.8416 178.434 103.447 178.753 103.726C177.595 104.72 176.341 105.952 174.988 107.462C174.715 107.462 173.218 104.089 173.218 103.726C166.276 98.0548 168.386 106.362 169.066 108.72C169.611 110.607 168.259 111.26 167.516 111.351L167.097 110.818C167.563 109.369 166.437 104.231 164.185 103.726C162.384 103.323 161.364 108.286 161.079 110.818L157.901 111.351C156.862 110.519 157.191 101.709 154.096 107.462H150.897C150.944 107.107 150.979 106.74 151.001 106.362C152.384 104.1 155.107 99.3711 154.932 98.5552C154.714 97.5352 153.404 96.3169 147.726 100.957L143.873 101.028C144.351 99.7478 144.549 98.5202 144.558 97.5352C149.482 93.32 149.596 90.4413 148.877 89.757C148.301 89.2095 143.53 92.0756 141.217 93.577L138.253 92.8225C138.82 91.9229 139.291 90.9055 139.635 89.757C141.963 88.3111 146.618 84.9749 146.618 83.1974C146.618 80.9757 140.693 80.6583 137.731 82.4569C136.503 81.0784 133.336 78.6293 130.493 79.8602C130.666 79.4085 130.823 78.9343 130.96 78.4365C134.169 76.3205 140.397 71.6865 139.635 70.0784C138.683 68.0682 131.912 70.819 129.373 71.6654C128.423 70.8569 126.206 69.3239 124.933 69.6592C125.232 69.3602 125.514 69.0753 125.775 68.8088C128.561 67.2218 133.774 63.3284 132.335 60.4507C130.896 57.573 125.74 61.156 123.342 63.3073Z" fill="#F7EFA5"/>
<path d="M124.513 170.057C128.187 168.936 126.044 166.833 124.513 165.921C121.977 165.241 114.984 167.722 112.65 170.057C110.315 172.392 114.584 172.592 114.984 172.392C115.305 172.232 116.007 173.215 116.319 173.726C118.32 174.794 119.254 171.125 119.854 170.057C120.335 169.203 123.16 169.701 124.513 170.057Z" fill="#F7EFA5"/>
<path d="M110.024 172.392C111.58 171.325 112.423 173.554 112.65 174.803L110.024 178.219C108.051 181.483 107.178 180.433 106.988 179.5C107.352 177.575 108.468 173.459 110.024 172.392Z" fill="#F7EFA5"/>
<path d="M106.136 181.799C106.541 180.53 108.036 181.27 108.734 181.799C109.246 183.31 108.115 186.86 107.485 188.446C106.867 186.759 105.731 183.068 106.136 181.799Z" fill="#F7EFA5"/>
<path d="M115.437 181.799V174.803C112.069 174.803 111.756 180.686 111.991 181.799C112.178 182.689 114.366 182.17 115.437 181.799Z" fill="#F7EFA5"/>
<path d="M112.65 184.016C113.177 183.264 114.426 183.703 114.984 184.016C115.939 185.453 114.587 187.852 113.792 188.872C113.191 187.566 112.122 184.768 112.65 184.016Z" fill="#F7EFA5"/>
<path d="M137.514 187.329C139.303 187.671 140.977 180.137 140.939 179.49C140.635 179.185 134.66 183.714 134.546 184.665C134.432 185.616 135.726 186.986 137.514 187.329Z" fill="#F7EFA5"/>
<path d="M130.056 182.077C129.569 179.52 136.094 177.917 139.417 177.435C140.368 178.995 133.519 183.752 133.138 184.17C132.758 184.589 130.665 185.274 130.056 182.077Z" fill="#F7EFA5"/>
<path d="M130.056 191.629C131.274 190.449 131.35 185.464 131.16 185.198C127.994 183.797 127.811 187.303 128.115 189.231C128.356 190.424 129.082 192.572 130.056 191.629Z" fill="#F7EFA5"/>
<path d="M133.937 189.231C134.333 187.557 136.893 188.99 138.123 189.916C138.428 192.047 135.574 195.891 135.117 195.815C134.66 195.738 134.204 194.407 133.937 194.292C133.671 194.178 133.443 191.324 133.937 189.231Z" fill="#F7EFA5"/>
<path d="M249.69 178.922C248.646 166.987 241.103 170.579 237.461 173.867C234.945 173.325 229.758 173.578 229.145 178.922C228.38 185.602 237.461 185.739 239.875 186.439C242.289 187.14 260.503 212.087 260.503 212.802C260.503 213.374 260.801 216.138 260.95 217.448C261.272 219.521 265.641 217.121 267.785 215.661H271.696C278.112 213.338 274.369 209.695 271.696 208.163C270.045 208.539 256.337 190.434 249.69 181.335V178.922Z" fill="#F7EFA5"/>
<path d="M254.706 217.448C260.789 216.557 263.044 219.603 263.412 221.236C263.919 222.25 263.905 224.236 259.793 224.069C254.653 223.859 237.87 232.932 233.308 238.124C228.745 243.316 227.171 237.704 227.329 237.232C227.455 236.855 227.066 236.411 226.857 236.236C220.857 234.222 224.042 231.516 226.385 230.415C236.874 230.373 249.636 221.753 254.706 217.448Z" fill="#F7EFA5"/>
<path d="M271.356 218.955C266.901 215.736 266.47 221.426 266.47 221.771C265.651 224.588 241.732 234.914 238.037 236.236C234.342 237.558 236.144 239.6 236.865 239.96C237.586 240.321 237.947 240.862 238.037 242.844C238.109 244.43 240.53 243.986 241.732 243.565C248.761 236.265 255.7 232.751 266.47 228.515C277.24 224.28 276.385 223.151 276.816 220.392C277.247 217.633 273.396 218.294 273.224 218.725C273.086 219.07 271.921 219.022 271.356 218.955Z" fill="#F7EFA5"/>
<path d="M216.588 239.96C217.958 238.951 219.562 240.381 220.193 241.222C220.554 242.231 218.721 245.548 217.76 247.08C217.369 247.981 216.588 250.162 216.588 251.676C216.588 253.568 213.975 253.478 211.812 252.667C210.082 252.018 212.953 247.771 214.606 245.728C214.696 244.226 215.218 240.97 216.588 239.96Z" fill="#F7EFA5"/>
<path d="M225.42 238.124C228.232 238.124 227.235 242.172 226.385 244.196C225.552 247.17 226.857 247.611 227.746 250.822C228.635 254.033 224.065 252.667 224.3 252.153C224.488 251.742 223.073 251.664 222.342 251.676C222.629 252.006 222.601 252.667 220.193 252.667C217.183 252.667 219.679 245.728 220.556 244.791C221.258 244.042 220.848 241.406 220.556 240.181C218.993 238.277 220.204 237.422 221.004 237.232C222.265 237.709 221.905 238.124 225.42 238.124Z" fill="#F7EFA5"/>
<path d="M234.291 242.282C238.305 241.253 236.42 246.223 236.469 247.227C236.864 248.1 237.858 250.214 238.681 251.676C239.709 253.504 235.802 252.153 235.442 252.153C234.877 252.631 232.409 254.217 232.101 254.012C231.854 253.847 232.375 250.756 232.666 249.231C232.016 247.342 230.785 243.357 231.059 242.526C231.333 241.695 233.328 242.017 234.291 242.282Z" fill="#F7EFA5"/>
<path d="M211.325 255.889C214.47 253.356 215.511 255.67 215.638 257.144C214 258.4 211.718 265.301 211.812 265.442C210.061 262.909 210.758 258.018 211.325 255.889Z" fill="#F7EFA5"/>
<path d="M219.569 258.345C221.953 253.672 225.106 256.871 226.385 259.055C225.723 259.972 224.185 265.806 223.499 268.609C222.539 268.478 220.479 261.712 219.569 258.345Z" fill="#F7EFA5"/>
<path d="M233.308 257.854C234.603 255.277 236.735 256.78 237.639 257.854C238.227 258.422 236.828 262.312 236.055 264.187L233.308 257.854Z" fill="#F7EFA5"/>
<path d="M279.907 260.592C281.594 257.055 278.211 254.731 276.309 254.012C272.608 254.012 269.798 259.152 268.855 261.723C270.141 260.883 273.276 259.481 275.538 260.592C277.8 261.702 279.393 261.054 279.907 260.592Z" fill="#F7EFA5"/>
<path d="M289.902 269.966C293.464 264.992 289.595 263.39 287.215 263.211C283.377 264.699 281.151 269.505 282.379 269.966C283.362 270.334 287.804 270.119 289.902 269.966Z" fill="#F7EFA5"/>
<path d="M287.215 252.866C279.907 250.397 279.907 254.428 282.178 256.393C281.17 259.567 284.848 260.121 285.302 259.114C285.664 258.308 286.729 257.602 287.215 257.35C289.553 258.116 294.135 257.031 296.134 256.393C301.425 253.37 293.716 249.742 293.01 250.649C292.446 251.375 288.912 252.429 287.215 252.866Z" fill="#F7EFA5"/>
<path d="M296.951 267.038C298.921 263.448 301.111 261.784 301.111 261.302H304.307C304.789 261.302 308.773 258.544 306.715 257.712C305.069 257.046 304.278 255.916 304.088 255.435C304.508 253.508 302.453 253.683 301.373 254.012C299.841 257.374 296.951 257.931 292.047 259.114C288.123 260.06 289.507 262.239 290.689 263.211C291.317 263.071 292.756 263.273 293.492 265.199C294.227 267.126 296.104 267.228 296.951 267.038Z" fill="#F7EFA5"/>
<path d="M311.5 260.14C317.987 260.14 315.031 255.562 312.743 253.274L306.269 254.843L311.5 260.14Z" fill="#F7EFA5"/>
<path d="M302.896 248.202C302.664 248.723 303.594 250.491 304.088 251.31C307.551 252.75 308.838 251.738 309.06 249.939C320.64 250.929 317.234 246.149 314.083 243.636C312.547 242.024 313.699 224.752 314.083 224.069C314.39 223.522 315.992 217.163 316.754 214.051C313.596 206.857 310.309 209.822 309.06 212.204C308.351 212.458 307.319 212.715 306.222 213.205C307.4 211.186 300.355 212.443 299.997 213.205C299.727 213.777 301.219 217.123 301.998 218.725C302.498 229.989 298.297 243.07 296.134 248.202C299.258 255.937 303.185 247.552 302.896 248.202Z" fill="#F7EFA5"/>
<path d="M271.696 189.992C273.639 188.979 290.218 202.047 298.112 208.163C303.198 214.607 307.628 211.363 307.285 205.992C308.193 206.871 310.345 207.11 311.691 201.033C313.037 194.956 306.32 194.673 302.793 195.292C292.335 195.786 283.537 188.313 280.446 184.515V178.922C276.383 172.18 271.696 178.922 270.906 179.657C270.274 180.245 267.404 181.02 266.048 181.335C258.451 190.875 269.493 191.14 271.696 189.992Z" fill="#F7EFA5"/>
<path d="M268.698 152.805L263.221 166.407C257.833 168.969 254.123 176.919 266.048 176.919L269.758 173.867C271.672 174.735 275.817 175.949 277.089 173.867C278.361 171.786 277.266 170.041 276.559 169.428L277.089 164.994C280.406 169.813 295.02 183.809 296.345 181.865C297.67 179.922 288.307 166.886 287.424 166.407C286.541 165.929 286.011 162.698 284.156 151.215C282.301 139.732 275.411 136.167 274.263 135.108C273.344 134.26 267.22 138.249 264.272 140.35C263.205 144.544 266.778 150.4 268.698 152.805Z" fill="#F7EFA5"/>
<path d="M113.615 79.1771C113.436 79.2217 113.292 79.2236 113.185 79.1771C111.831 78.5846 110.082 73.4287 109.377 70.9248L117.84 63.3073H123.342C125.74 61.156 130.896 57.573 132.335 60.4507C133.774 63.3284 128.561 67.2218 125.775 68.8088C125.514 69.0753 125.232 69.3602 124.933 69.6592M113.615 79.1771C113.965 81.3636 114.836 85.7155 115.513 85.6308C116.359 85.525 109.906 90.286 112.339 91.6614C114.286 92.7617 117.523 89.8628 118.898 88.2758C119.31 88.2665 119.785 88.223 120.304 88.1368M113.615 79.1771C115.545 78.6936 121.407 73.1897 124.933 69.6592M124.933 69.6592C126.206 69.3239 128.423 70.8569 129.373 71.6654C131.912 70.819 138.683 68.0682 139.635 70.0784C140.397 71.6865 134.169 76.3205 130.96 78.4365C130.823 78.9343 130.666 79.4085 130.493 79.8602M120.304 88.1368V93.1425C116.203 97.1629 111.069 103.998 123.342 99.1731C124.491 99.275 125.984 99.2577 127.609 99.0235M120.304 88.1368C123.486 87.6086 128.332 85.4808 130.493 79.8602M130.493 79.8602C133.336 78.6293 136.503 81.0784 137.731 82.4569C140.693 80.6583 146.618 80.9757 146.618 83.1974C146.618 84.9749 141.963 88.3111 139.635 89.757C139.291 90.9055 138.82 91.9229 138.253 92.8225M138.253 92.8225L141.217 93.577C143.53 92.0756 148.301 89.2095 148.877 89.757C149.596 90.4413 149.482 93.32 144.558 97.5352C144.549 98.5202 144.351 99.7478 143.873 101.028M138.253 92.8225C135.739 96.8117 131.331 98.4869 127.609 99.0235M127.609 99.0235V103.86C125.264 106.561 120.875 112.064 122.081 112.466C123.287 112.868 127.734 110.204 129.807 108.822C130.897 108.855 131.912 108.818 132.855 108.72M132.855 108.72C132.79 110.409 132.757 113.895 133.15 114.332C133.543 114.769 129.62 120.301 127.609 123.012C129.128 123.686 133.281 123.624 137.736 117.99M132.855 108.72C139.495 108.033 142.63 104.354 143.873 101.028M137.736 117.99C141.755 118.077 149.764 116.054 150.897 107.462M137.736 117.99V121.792L132.855 126.334L139.774 125.525L141.007 128.871M143.873 101.028L147.726 100.957C153.404 96.3169 154.714 97.5352 154.932 98.5552C155.107 99.3711 152.384 104.1 151.001 106.362C150.979 106.74 150.944 107.107 150.897 107.462M157.851 110.818C157.87 110.998 157.887 111.175 157.901 111.351M157.901 111.351C156.862 110.519 157.191 101.709 154.096 107.462H150.897M157.901 111.351L161.079 110.818C161.364 108.286 162.384 103.323 164.185 103.726C166.437 104.231 167.563 109.369 167.097 110.818L167.516 111.351M157.901 111.351C158.63 120.543 152.746 124.808 148.069 126.334M169.426 113.782L157.851 127.797C155.568 128.528 151.001 130.248 151.001 131.284M169.426 113.782L167.516 111.351M169.426 113.782C171.371 111.675 175.206 107.462 174.988 107.462M151.001 131.284C151.001 132.579 147.939 126.531 148.069 126.334M151.001 131.284C147.222 134.744 146.221 144.062 146.193 148.288M148.069 126.334C147.067 126.661 146.121 126.862 145.306 126.959C144.325 127.705 142.653 128.385 141.007 128.871M167.516 111.351C168.259 111.26 169.611 110.607 169.066 108.72C168.386 106.362 166.276 98.0548 173.218 103.726C173.218 104.089 174.715 107.462 174.988 107.462M174.988 107.462C176.341 105.952 177.595 104.72 178.753 103.726M141.007 128.871C140.342 131.359 139.047 137.351 139.187 141.414C138.274 143.122 136.398 146.581 136.197 146.756C136.104 146.837 136.233 147.502 136.629 148.288M146.193 148.288C145.828 149.106 144.319 150.811 141.201 151.091C141.113 151.099 141.025 151.104 140.939 151.107M146.193 148.288C146.11 149.261 146.252 150.359 146.826 151.091M137.504 149.586L137.022 154.287C135.239 155.651 131.563 158.472 131.116 158.844C130.558 159.309 130.372 168.238 128.466 167.447C126.559 166.657 125.583 164.843 124.513 165.076C123.444 165.308 119.258 163.82 122.095 161.681C124.364 159.97 127.691 157.341 129.07 156.24C130.434 153.59 133.209 148.288 133.395 148.288C133.581 148.288 135.628 148.288 136.629 148.288M137.504 149.586C137.13 149.166 136.841 148.71 136.629 148.288M137.504 149.586C138.272 150.45 139.396 151.163 140.939 151.107M156.146 151.091C153.624 150.424 151.665 152.944 151.001 154.287L153.004 164.166C152.076 166.884 150.378 172.433 151.001 172.889C151.781 173.46 155.079 172.808 155.612 171.666C156.563 172.481 158.612 173.623 159.199 171.666C159.786 169.71 157.408 164.194 156.146 161.681C155.888 159.878 155.528 156.074 156.146 155.28C156.265 155.153 156.39 155.01 156.513 154.854M156.146 151.091C158.382 151.682 157.479 153.638 156.513 154.854M156.146 151.091L156.513 147.936M146.826 151.091C147.915 152.478 150.554 152.545 156.146 147.936H156.513M146.826 151.091C147.139 157.791 148.174 172.087 149.815 175.667M149.815 175.667C150.26 175.666 150.664 175.671 151.001 175.677C152.7 174.896 156.181 173.393 156.513 173.625C157.982 174.571 160.038 176.727 156.513 177.789C153.678 178.644 152.018 178.698 151.001 178.597M149.815 175.667C148.6 175.667 147.075 175.7 145.745 175.802M140.939 151.107C141.185 156.021 142.489 167.84 145.745 175.802M145.745 175.802C144.637 175.887 143.664 176.019 143.116 176.22C141.306 176.884 141.668 180.203 142.573 180.686C143.069 180.95 144.975 180.202 146.718 179.49M151.001 178.597C150.438 178.54 150.073 178.436 149.815 178.393C149.487 178.338 148.159 178.901 146.718 179.49M151.001 178.597C151.059 180.886 151.259 185.487 151.594 185.578C152.013 185.692 147.132 182.759 146.718 179.49M170.179 123.012C167.237 126.008 165.132 128.447 164.141 130.048C164.603 133.494 165.501 140.851 165.393 142.709C165.332 143.764 164.54 144.993 163.65 146.036M170.179 123.012C173.164 119.973 177.01 116.36 181.428 112.466M170.179 123.012C170.372 123.966 170.625 125.783 170.455 126.959M163.65 146.036C162.972 146.831 162.239 147.518 161.73 147.936H156.513M163.65 146.036C164.528 151.777 164.292 156.992 163.464 161.681M181.428 112.466C183.669 110.491 186.057 108.443 188.555 106.362C189.273 105.763 189.625 104.757 189.59 103.726M181.428 112.466C183.032 114.542 185.841 120.06 184.251 125.525C184.309 125.788 184.367 126.058 184.424 126.334M170.455 126.959C170.404 127.308 170.316 127.601 170.179 127.797C170.117 127.886 170.108 128.256 170.132 128.871M170.455 126.959C171.408 129.354 173.216 130.229 174.916 130.408M178.753 103.726C180.953 101.837 182.802 100.812 184.315 100.385M178.753 103.726C178.434 103.447 174.775 88.8416 184.315 100.385M184.315 100.385C186.293 99.8267 187.695 100.289 188.555 101.177M184.424 126.334L188.555 125.525C190.667 128.622 193.552 135.585 195.137 146.234M184.424 126.334C184.55 126.943 184.674 127.584 184.795 128.254M193.928 121.02C194.261 117.095 193.861 108.141 189.59 103.726M193.928 121.02L196.956 123.012C213.051 160.394 207.279 170.688 207.469 174.803C207.622 178.094 208.605 176.174 209.078 174.803C214.855 157.142 206.976 130.729 202.314 119.731C202.404 119.135 202.481 118.554 202.546 117.99M193.928 121.02C197.55 130.509 199.471 139.397 200.332 147.352M189.59 103.726C189.559 102.805 189.219 101.864 188.555 101.177M188.555 101.177C188.77 100.838 189.17 100.037 189.043 99.5546C188.884 98.9509 187.13 85.6683 195.27 97.6801C195.452 97.8309 196.276 98.18 197.319 98.9898M197.319 98.9898C198.015 98.2461 199.511 96.7587 199.929 96.7587C200.451 96.7587 197.13 82.8578 204.626 94.861C205.11 95.1772 205.848 95.6828 206.534 96.1973M197.319 98.9898C199.938 101.025 203.93 105.97 202.546 117.99M202.546 117.99C202.965 118.57 204.424 119.989 206.9 121.02C209.995 122.31 214.652 151.445 214.519 158.516C214.412 164.173 215.797 161.381 216.503 159.278C220.329 143.109 214.909 126.176 211.721 119.731C212.009 117.941 212.201 116.291 212.313 114.77M206.534 96.1973C207.282 96.7593 207.966 97.3318 208.184 97.6801C208.65 98.4249 213.25 102.08 212.313 114.77M206.534 96.1973C207.084 95.1985 208.184 93.1235 208.184 92.8144C208.184 92.4281 207.394 83.0158 214.172 92.2876C214.916 92.4183 215.767 92.7127 216.63 93.2094M221.094 113.782C223.858 119.613 228.809 133.763 226.501 143.713C226.231 144.794 225.6 146.308 225.24 143.713C224.789 140.468 221.004 116.857 215.237 115.685C214.262 115.38 212.313 114.77 212.313 114.77M221.094 113.782C224.262 101.184 220.329 95.3384 216.63 93.2094M221.094 113.782C221.386 114.207 223.98 113.605 225.24 113.251C228.243 115.106 231.513 129.6 230.898 135.108C230.406 139.514 232.224 136.596 233.194 134.586C235.513 129.577 231.687 117.502 229.484 112.091C229.903 112.202 230.696 111.936 230.866 110.18M216.63 93.2094L217.948 92.2876C217.546 88.177 218.069 82.5275 223.379 92.8144M223.379 92.8144C223.708 94.1966 225.05 97.2203 227.787 98.2578C227.872 98.4808 227.964 98.7261 228.061 98.9898M223.379 92.8144C225.892 89.3529 235.207 84.3046 252.366 91.8036C255.25 93.9354 263.721 97.911 274.535 96.7587C278.5 97.39 286.07 98.869 284.629 99.7342C290.337 99.202 301.643 100.446 302.349 109.457M230.866 110.18C230.887 109.963 230.898 109.722 230.898 109.457C230.898 107.247 229.149 101.954 228.061 98.9898M230.866 110.18H235.421C236.496 109.222 238.615 107.194 238.494 106.751M238.494 106.751C238.343 106.197 230.881 99.3389 228.061 98.9898M238.494 106.751C240.953 106.751 242.758 111.025 243.354 113.162C244.147 120.083 249.692 117.728 252.366 115.685C263.27 110.458 268.497 115.235 269.038 115.685C269.124 115.757 270.036 115.974 271.508 116.238M174.916 130.408C176.099 130.533 177.231 130.32 177.985 130.048C180.392 136.546 181.374 143.194 181.47 149.586M174.916 130.408C176.512 136.036 180.058 147.752 181.47 149.586M181.47 149.586C181.54 154.231 181.142 158.741 180.481 162.958M186.325 153.103C186.288 153.831 193.928 169.234 193.928 170.172C193.928 171.11 191.397 170.453 190.834 169.233C190.384 168.258 187.196 163.244 185.658 160.859M186.325 153.103C186.202 155.653 185.987 158.251 185.658 160.859M186.325 153.103C186.788 143.502 185.934 134.571 184.795 128.254M185.658 160.859C185.245 164.143 184.654 167.444 183.846 170.69M170.132 128.871C171.811 132.375 175.018 140.048 174.418 142.709C173.818 145.371 178.21 157.317 180.481 162.958M170.132 128.871C170.253 131.999 171.219 141.467 170.354 152.432M180.481 162.958C180.056 165.67 179.523 168.261 178.937 170.69M178.937 170.69C176.606 180.337 173.432 187.418 172.854 189.324C171.844 192.652 173.275 192.247 174.116 191.629C177.707 187.064 180.34 181.794 182.229 176.22M178.937 170.69C176.044 165.046 170.277 153.492 170.354 152.432M170.354 152.432C169.832 159.06 168.64 166.235 166.189 172.889M183.846 170.69C185.894 175.003 189.934 183.733 189.709 184.147C189.427 184.665 191.116 188.805 187.176 184.147C184.024 180.421 182.565 177.31 182.229 176.22M183.846 170.69C183.381 172.556 182.845 174.404 182.229 176.22M166.189 172.889L171.979 187.901C172.209 188.62 172.207 189.721 170.354 188.37C168.502 187.019 165.408 180.753 164.093 177.789M166.189 172.889C165.573 174.561 164.878 176.2 164.093 177.789M164.093 177.789C161.824 182.386 158.812 186.565 154.829 189.916C153.982 190.339 152.953 189.633 155.612 183.426C157.053 180.064 159.247 175.818 161.058 170.69M161.058 170.69C159.543 167.036 156.513 158.753 156.513 154.854M161.058 170.69C162.028 167.941 162.889 164.938 163.464 161.681M160.664 148.288C161.075 152.213 162.21 160.385 163.464 161.681M184.795 128.254C187.789 134.149 194.05 145.998 195.137 146.234M195.137 146.234C196.59 155.995 196.952 168.851 194.628 184.665C194.831 186.089 195.582 187.979 196.956 184.147C198.021 181.18 201.403 170.225 200.847 154.53M200.847 154.53C201.307 154.704 205.076 158.516 206.119 158.516C207.163 158.516 207.801 158.356 206.699 156.617C205.818 155.226 202.087 149.861 200.332 147.352M200.847 154.53C200.766 152.235 200.601 149.839 200.332 147.352M271.508 116.238C270.751 117.367 269.348 119.847 269.789 120.73M271.508 116.238C274.195 116.72 278.749 117.36 283.545 117.568M269.789 120.73L266.704 120.531M269.789 120.73C270.203 121.558 274.969 125.598 271.253 129.817M233.195 166.886C233.572 167.919 234.016 168.759 234.507 169.428M234.507 169.428C239.35 176.026 248.849 166.086 245.516 161.737C246.987 154.259 252.798 138.236 264.272 133.97C267.849 132.64 270.019 131.219 271.253 129.817M234.507 169.428C231.596 170.1 225.473 170.345 224.269 165.951C223.065 161.557 224.169 159.163 224.871 158.516C226.727 156.956 230.755 154.048 232.019 154.891C233.283 155.733 247.02 135.024 253.731 124.564C255.326 118.207 260.325 108.34 267.565 119.731C267.368 119.941 267.05 120.25 266.704 120.531M265.513 121.196C265.844 121.158 266.294 120.865 266.704 120.531M252.366 136.167C247.742 142.254 238.494 154.513 238.494 154.854M264.272 127.797C262.628 127.25 259.416 125.163 259.725 121.196M309.06 212.204C308.351 212.458 307.319 212.715 306.222 213.205C307.4 211.186 300.355 212.443 299.997 213.205C299.727 213.777 301.219 217.123 301.998 218.725C302.498 229.989 298.297 243.07 296.134 248.202C299.258 255.937 303.185 247.552 302.896 248.202C302.664 248.723 303.594 250.491 304.088 251.31C307.551 252.75 308.838 251.738 309.06 249.939M309.06 212.204C309.629 212 309.989 211.799 310.008 211.48C310.345 211.48 314.299 210.934 311.691 217.033C309.083 223.133 308.199 225.11 308.368 226.288C308.502 227.23 308.053 238.64 307.811 244.227C308.553 245.921 309.266 248.269 309.06 249.939M309.06 212.204C310.309 209.822 313.596 206.857 316.754 214.051C315.992 217.163 314.39 223.522 314.083 224.069C313.699 224.752 312.547 242.024 314.083 243.636C317.234 246.149 320.64 250.929 309.06 249.939M306.715 203.218C307.045 204.177 307.229 205.113 307.285 205.992M307.285 205.992C307.628 211.363 303.198 214.607 298.112 208.163C290.218 202.047 273.639 188.979 271.696 189.992C269.493 191.14 258.451 190.875 266.048 181.335C267.404 181.02 270.274 180.245 270.906 179.657C271.696 178.922 276.383 172.18 280.446 178.922C280.446 180.429 280.446 183.279 280.446 184.515C283.537 188.313 292.335 195.786 302.793 195.292C306.32 194.673 313.037 194.956 311.691 201.033C310.345 207.11 308.193 206.871 307.285 205.992ZM268.698 152.805L263.221 166.407C257.833 168.969 254.123 176.919 266.048 176.919L269.758 173.867C271.672 174.735 275.817 175.949 277.089 173.867C278.361 171.786 277.266 170.041 276.559 169.428L277.089 164.994M268.698 152.805L277.089 164.994M268.698 152.805C266.778 150.4 263.205 144.544 264.272 140.35C267.22 138.249 273.344 134.26 274.263 135.108C275.411 136.167 282.301 139.732 284.156 151.215C286.011 162.698 286.541 165.929 287.424 166.407C288.307 166.886 297.67 179.922 296.345 181.865C295.02 183.809 280.406 169.813 277.089 164.994M271.253 129.817C272.352 131.627 275.44 134.293 279.002 130.486M279.002 130.486C283.454 125.726 284.25 118.391 283.545 117.568M279.002 130.486L281.17 132.555C281.452 135.293 281.733 141.56 282.765 141.373C283.59 141.223 285.298 135.432 286.048 132.555C287.474 132.33 288.617 131.825 289.53 131.129M283.545 117.568C286.607 117.7 289.767 117.657 292.605 117.283M292.605 117.283C298.142 116.554 302.448 114.567 302.382 110.18C302.379 109.934 302.367 109.693 302.349 109.457M292.605 117.283C292.771 118.451 294.356 127.452 289.53 131.129M289.53 131.129C289.749 132.076 290.546 133.97 291.985 133.97L291.139 152.073C291.341 153.317 292.808 151.668 297.063 135.108C297.457 135.134 297.942 135.053 298.482 134.817M305.104 117.283L305.633 119.731C304.123 129.977 300.796 133.809 298.482 134.817M305.104 117.283C306.374 115.156 308.828 110.758 308.49 110.18C308.067 109.457 308.278 103.17 303.729 108.166L302.349 109.457M305.104 117.283H307.409C309.342 113.837 312.827 111.176 313.88 111.703C314.723 112.124 312.726 117.496 311.623 120.13C311.709 120.361 311.789 120.591 311.863 120.82M298.482 134.817C298.822 135.464 299.925 136.878 301.616 137.36C300.87 141.6 299.675 150.48 300.863 152.073C302.052 153.665 305.02 143.63 306.356 138.413C306.685 138.142 307.041 137.818 307.409 137.444M311.863 120.82C313.438 121.088 316.615 121.758 316.721 122.291C316.828 122.825 320.235 119.175 321.925 117.283C322.77 116.705 323.953 117.392 321.925 124.76C321.976 125.171 322.015 125.648 322.034 126.175M311.863 120.82C314.232 128.15 310.397 134.416 307.409 137.444M316.721 139.97C315.791 140.135 313.791 140.91 313.238 142.691C312.548 144.917 312.617 150.357 311.623 151.215C310.628 152.073 309.697 153.822 309.093 149.6C308.61 146.222 309.711 141.773 310.321 139.97L307.409 137.444M316.721 139.97C321.268 136.408 322.168 129.978 322.034 126.175M316.721 139.97C316.234 140.381 319.277 141.598 320.86 142.155C320.588 143.024 319.979 145.057 319.718 146.231C319.392 147.698 319.881 152.073 320.86 152.073C321.838 152.073 323.957 145.66 324.12 144.764C324.212 144.259 325.035 143.913 325.789 143.714M322.034 126.175C322.653 126.176 327.055 127.399 326.648 127.562C326.322 127.693 329.718 124.103 331.457 122.291C332.218 121.881 333.642 121.8 333.251 124.76C332.859 127.725 332.31 130.329 332.191 131.739M332.191 131.739C332.162 132.089 332.159 132.365 332.191 132.555C332.354 133.513 329.583 141.747 326.648 143.541C326.414 143.573 326.108 143.631 325.789 143.714M332.191 131.739C332.584 131.558 334.266 132.673 335.059 133.253C336.45 131.707 339.326 128.626 339.697 128.672C340.161 128.73 342.248 128.151 341.32 132.035C340.578 135.143 340.315 136.229 340.277 136.383L340.48 137.572M336.392 148.442C336.81 148.303 339.426 141.93 340.682 138.76L340.48 137.572M336.392 148.442C335.87 148.616 333.52 148.326 332.856 148.152C332.324 148.013 331.359 149.641 330.942 150.472C330.44 151.631 329.319 153.962 328.855 154.008C328.276 154.066 327.812 149.37 327.986 146.761C328.125 144.674 326.579 143.86 325.789 143.714M336.392 148.442C336.029 148.997 338.444 150.522 339.697 151.215C339.697 153.293 339.894 157.449 340.682 157.449C341.471 157.449 343.157 153.865 343.901 152.073C344.453 152.073 345.782 152.073 346.685 152.073C346.793 152.073 346.905 151.982 347.021 151.818M340.48 137.572L343.299 137.444C344.202 136.313 346.143 134.109 346.685 134.35C347.362 134.651 348.19 137.886 347.663 139.466C348.155 139.677 349.049 140.187 349.359 140.785M349.359 140.785C349.429 140.919 349.469 141.057 349.469 141.197C349.469 142.063 348.114 150.26 347.021 151.818M349.359 140.785L351.822 140.269C352.464 139.084 353.847 136.714 354.242 136.714C354.637 136.714 355.69 138.078 356.168 138.76V141.751C356.81 141.973 358.163 142.642 358.439 143.541C358.474 143.652 358.501 143.829 358.521 144.057M347.021 151.818L350.242 153.702C350.34 153.159 350.676 153.001 351.229 156.714C351.921 161.356 353.353 158.69 353.501 158.887C353.62 159.045 354.505 155.7 354.933 154.008C355.493 153.643 356.79 152.862 357.501 152.665C357.696 152.611 357.868 152.194 358.013 151.566M358.521 144.057C359.556 143.665 361.684 142.835 361.914 142.651C362.202 142.421 363.667 139.231 364.012 139.231C364.357 139.231 365.679 139.691 365.708 139.863C365.737 140.036 366.254 142.795 366.34 142.996C366.409 143.157 367.94 144.404 368.697 145.008M358.521 144.057C358.658 145.623 358.462 149.616 358.013 151.566M368.697 145.008V153.702M368.697 145.008C369.684 144.556 371.757 143.523 372.156 142.996C372.555 142.469 372.948 141.575 373.094 141.194C373.495 141.008 374.326 140.748 374.443 141.194C374.59 141.751 375.411 144.71 375.616 144.859C375.821 145.008 377.258 145.65 377.346 145.768C377.372 145.802 377.398 146.035 377.422 146.356M368.697 153.702L366.34 154.617L365.195 157.449V159.574C364.625 160.069 363.429 160.626 363.213 158.887C362.997 157.149 362.257 155.617 361.914 155.068L359.698 154.008L358.439 153.411L358.013 151.566M368.697 153.702L369.483 154.617C370.009 154.617 371.063 154.707 371.063 155.068C371.063 155.428 372.668 158.222 373.47 159.574L374.443 158.887L374.9 155.068C375.377 154.714 376.45 153.947 376.931 153.702M376.931 153.702C377.413 153.457 377.526 149.972 377.522 148.26C377.503 147.756 377.466 146.92 377.422 146.356M376.931 153.702L378.144 155.835L379.991 156.327L380.669 156.714L381.161 158.887L382.947 160.883C383.234 160.678 383.809 160.129 383.809 159.574C383.809 159.018 384.383 156.85 384.671 155.835C384.896 155.579 385.471 155.068 385.964 155.068C386.191 155.068 386.326 154.923 386.406 154.617M377.422 146.356C378.546 145.606 380.866 143.814 381.161 142.651C381.457 141.488 382.064 141.566 382.331 141.751L383.439 143.541V145.008L384.671 145.768L385.752 147.493M385.752 147.493L385.964 147.83C386.148 148.262 386.518 149.612 386.518 151.566C386.518 153.105 386.542 154.095 386.406 154.617M385.752 147.493L389.596 146.968L390.089 144.859L391.443 144.057C391.71 144.12 392.33 144.399 392.675 145.008C393.02 145.616 393.27 146.568 393.352 146.968L393.906 147.493C394.255 147.493 395.014 147.493 395.261 147.493C395.415 147.493 395.461 147.623 395.499 147.83M386.406 154.617L388.673 155.835C388.755 156.373 389.054 157.803 389.596 159.221C390.138 160.639 391.054 160.92 391.443 160.883L391.874 159.221C391.895 158.63 392.084 157.397 392.675 157.189C393.266 156.982 394.932 155.688 395.692 155.068C395.698 154.927 395.704 154.777 395.71 154.617M395.499 147.83C395.538 148.038 395.568 148.323 395.692 148.631C395.875 149.088 395.789 152.567 395.71 154.617M395.499 147.83H398.536L400.419 146.625C400.915 147.34 401.934 148.805 402.039 148.945C402.053 148.963 402.074 149.033 402.102 149.143M395.71 154.617L397.398 155.835L399.149 156.714L400.419 155.835L401.207 155.338C401.601 155.248 402.459 154.978 402.74 154.617C402.858 154.465 402.831 153.79 402.74 152.955M402.102 149.143C403.858 147.797 407.582 145.256 408.438 145.865C408.702 146.052 408.871 146.291 408.973 146.548M402.102 149.143C402.254 149.745 402.587 151.57 402.74 152.955M402.74 152.955C402.977 152.958 403.506 152.93 403.72 152.802C403.987 152.641 405.164 154.617 405.913 154.617C406.513 154.617 407.162 153.157 407.412 152.427C407.754 152.391 408.545 152.341 408.973 152.427C409.373 152.507 410.035 151.988 410.345 151.566M408.973 146.548C409.203 147.124 409.097 147.785 408.973 148.132C409.487 149.031 410.515 150.901 410.515 151.196C410.515 151.29 410.45 151.422 410.345 151.566M408.973 146.548C410.004 145.888 412.311 144.807 413.292 145.768M413.292 145.768C413.482 146.556 413.932 148.132 414.212 148.132C414.378 148.132 414.563 148.611 414.713 149.143M413.292 145.768C414.037 145.514 415.718 145.008 416.489 145.008C416.697 145.008 416.877 145.154 417.03 145.388M410.345 151.566C410.86 151.566 411.961 151.566 412.241 151.566C412.522 151.566 414.168 150.636 414.956 150.171C414.903 149.895 414.816 149.507 414.713 149.143M414.713 149.143C415.743 149.138 417.802 149.03 417.802 148.631C417.802 148.54 417.791 148.362 417.766 148.132M417.03 145.388C418.207 144.988 420.552 144.254 420.517 144.523M417.03 145.388C417.458 146.039 417.684 147.372 417.766 148.132M420.517 144.523C420.482 144.792 420.649 145.465 420.736 145.768M420.517 144.523C421.086 144.523 422.269 144.523 422.444 144.523C422.619 144.523 421.378 145.353 420.736 145.768M420.736 145.768L417.766 148.132M124.513 165.921C126.044 166.833 128.187 168.936 124.513 170.057C123.16 169.701 120.335 169.203 119.854 170.057C119.254 171.125 118.32 174.794 116.319 173.726C116.007 173.215 115.305 172.232 114.984 172.392C114.584 172.592 110.315 172.392 112.65 170.057C114.984 167.722 121.977 165.241 124.513 165.921ZM112.65 174.803C112.423 173.554 111.58 171.325 110.024 172.392C108.468 173.459 107.352 177.575 106.988 179.5C107.178 180.433 108.051 181.483 110.024 178.219L112.65 174.803ZM108.734 181.799C108.036 181.27 106.541 180.53 106.136 181.799C105.731 183.068 106.867 186.759 107.485 188.446C108.115 186.86 109.246 183.31 108.734 181.799ZM115.437 174.803V181.799C114.366 182.17 112.178 182.689 111.991 181.799C111.756 180.686 112.069 174.803 115.437 174.803ZM114.984 184.016C114.426 183.703 113.177 183.264 112.65 184.016C112.122 184.768 113.191 187.566 113.792 188.872C114.587 187.852 115.939 185.453 114.984 184.016ZM140.939 179.49C140.977 180.137 139.303 187.671 137.514 187.329C135.726 186.986 134.432 185.616 134.546 184.665C134.66 183.714 140.635 179.185 140.939 179.49ZM139.417 177.435C136.094 177.917 129.569 179.52 130.056 182.077C130.665 185.274 132.758 184.589 133.138 184.17C133.519 183.752 140.368 178.995 139.417 177.435ZM131.16 185.198C131.35 185.464 131.274 190.449 130.056 191.629C129.082 192.572 128.356 190.424 128.115 189.231C127.811 187.303 127.994 183.797 131.16 185.198ZM138.123 189.916C136.893 188.99 134.333 187.557 133.937 189.231C133.443 191.324 133.671 194.178 133.937 194.292C134.204 194.407 134.66 195.738 135.117 195.815C135.574 195.891 138.428 192.047 138.123 189.916ZM237.461 173.867C241.103 170.579 248.646 166.987 249.69 178.922V181.335C256.337 190.434 270.045 208.539 271.696 208.163C274.369 209.695 278.112 213.338 271.696 215.661H267.785C265.641 217.121 261.272 219.521 260.95 217.448C260.801 216.138 260.503 213.374 260.503 212.802C260.503 212.087 242.289 187.14 239.875 186.439C237.461 185.739 228.38 185.602 229.145 178.922C229.758 173.578 234.945 173.325 237.461 173.867ZM263.412 221.236C263.044 219.603 260.789 216.557 254.706 217.448C249.636 221.753 236.874 230.373 226.385 230.415C224.042 231.516 220.857 234.222 226.857 236.236C227.066 236.411 227.455 236.855 227.329 237.232C227.171 237.704 228.745 243.316 233.308 238.124C237.87 232.932 254.653 223.859 259.793 224.069C263.905 224.236 263.919 222.25 263.412 221.236ZM266.47 221.771C266.47 221.426 266.901 215.736 271.356 218.955C271.921 219.022 273.086 219.07 273.224 218.725C273.396 218.294 277.247 217.633 276.816 220.392C276.385 223.151 277.24 224.28 266.47 228.515C255.7 232.751 248.761 236.265 241.732 243.565C240.53 243.986 238.109 244.43 238.037 242.844C237.947 240.862 237.586 240.321 236.865 239.96C236.144 239.6 234.342 237.558 238.037 236.236C241.732 234.914 265.651 224.588 266.47 221.771ZM220.193 241.222C219.562 240.381 217.958 238.951 216.588 239.96C215.218 240.97 214.696 244.226 214.606 245.728C212.953 247.771 210.082 252.018 211.812 252.667C213.975 253.478 216.588 253.568 216.588 251.676C216.588 250.162 217.369 247.981 217.76 247.08C218.721 245.548 220.554 242.231 220.193 241.222ZM226.385 244.196C227.235 242.172 228.232 238.124 225.42 238.124C221.905 238.124 222.265 237.709 221.004 237.232C220.204 237.422 218.993 238.277 220.556 240.181C220.848 241.406 221.258 244.042 220.556 244.791C219.679 245.728 217.183 252.667 220.193 252.667C222.601 252.667 222.629 252.006 222.342 251.676C223.073 251.664 224.488 251.742 224.3 252.153C224.065 252.667 228.635 254.033 227.746 250.822C226.857 247.611 225.552 247.17 226.385 244.196ZM236.469 247.227C236.42 246.223 238.305 241.253 234.291 242.282C233.328 242.017 231.333 241.695 231.059 242.526C230.785 243.357 232.016 247.342 232.666 249.231C232.375 250.756 231.854 253.847 232.101 254.012C232.409 254.217 234.877 252.631 235.442 252.153C235.802 252.153 239.709 253.504 238.681 251.676C237.858 250.214 236.864 248.1 236.469 247.227ZM215.638 257.144C215.511 255.67 214.47 253.356 211.325 255.889C210.758 258.018 210.061 262.909 211.812 265.442C211.718 265.301 214 258.4 215.638 257.144ZM226.385 259.055C225.106 256.871 221.953 253.672 219.569 258.345C220.479 261.712 222.539 268.478 223.499 268.609C224.185 265.806 225.723 259.972 226.385 259.055ZM237.639 257.854C236.735 256.78 234.603 255.277 233.308 257.854L236.055 264.187C236.828 262.312 238.227 258.422 237.639 257.854ZM276.309 254.012C278.211 254.731 281.594 257.055 279.907 260.592C279.393 261.054 277.8 261.702 275.538 260.592C273.276 259.481 270.141 260.883 268.855 261.723C269.798 259.152 272.608 254.012 276.309 254.012ZM287.215 263.211C289.595 263.39 293.464 264.992 289.902 269.966C287.804 270.119 283.362 270.334 282.379 269.966C281.151 269.505 283.377 264.699 287.215 263.211ZM282.178 256.393C279.907 254.428 279.907 250.397 287.215 252.866C288.912 252.429 292.446 251.375 293.01 250.649C293.716 249.742 301.425 253.37 296.134 256.393C294.135 257.031 289.553 258.116 287.215 257.35C286.729 257.602 285.664 258.308 285.302 259.114C284.848 260.121 281.17 259.567 282.178 256.393ZM301.111 261.302C301.111 261.784 298.921 263.448 296.951 267.038C296.104 267.228 294.227 267.126 293.492 265.199C292.756 263.273 291.317 263.071 290.689 263.211C289.507 262.239 288.123 260.06 292.047 259.114C296.951 257.931 299.841 257.374 301.373 254.012C302.453 253.683 304.508 253.508 304.088 255.435C304.278 255.916 305.069 257.046 306.715 257.712C308.773 258.544 304.789 261.302 304.307 261.302C303.922 261.302 302.016 261.302 301.111 261.302ZM312.743 253.274C315.031 255.562 317.987 260.14 311.5 260.14L306.269 254.843L312.743 253.274Z" stroke="black"/>
</svg>
