<svg width="501" height="223" viewBox="0 0 501 223" fill="none" xmlns="http://www.w3.org/2000/svg">
<path d="M500.847 119.219C475.013 127.885 418.547 136.619 399.347 102.219C381.847 68.8854 329.247 3.31876 258.847 7.71876C234.18 8.38542 178.847 15.4188 154.847 38.2188L147.847 43.2188C141.68 24.3854 121.447 -8.58125 89.8467 10.2188C84.68 12.7188 75.1467 24.2188 78.3467 50.2188V58.2188C65.68 56.2188 34.8467 49.8187 12.8467 40.2188C-9.15332 30.6187 16.3467 49.2188 31.8467 59.7188L59.8467 75.2188C57.8467 75.2188 61.3467 78.2188 57.8467 82.7188C57.8467 86.7188 54.9467 96.9187 49.3467 99.7188C47.5133 101.385 43.6467 104.819 42.8467 105.219C41.8467 105.719 10.8467 101.719 9.34668 99.7188C7.84668 97.7188 18.8467 118.719 23.3467 120.219C24.3467 126.385 26.2467 139.119 25.8467 140.719C26.8467 145.052 29.4467 154.019 31.8467 155.219C34.2467 156.419 37.5133 154.385 38.8467 153.219C39.0133 152.719 39.8467 151.519 41.8467 150.719C43.3467 150.719 64.8467 145.719 68.8467 142.219C75.8467 139.552 90.9467 133.519 95.3467 130.719C107.847 129.885 132.747 129.619 132.347 135.219C136.18 142.719 143.847 159.519 143.847 166.719C143.847 175.719 148.847 185.219 137.347 194.719C133.513 197.219 126.247 203.319 127.847 207.719C132.347 209.385 145.147 212.019 160.347 209.219C164.18 207.385 171.647 203.219 170.847 201.219C169.847 198.719 169.347 188.219 169.347 187.719C169.347 187.219 176.347 180.219 175.847 176.219C175.347 172.219 171.847 159.719 172.347 158.719C172.847 157.719 176.347 157.219 177.347 158.719C178.347 160.219 177.347 168.219 178.847 170.219C180.347 172.219 185.847 180.219 184.847 181.219C183.847 182.219 187.347 193.719 183.847 196.719C180.347 199.719 163.347 212.219 166.347 214.719C169.347 217.219 183.347 220.219 200.347 216.719C204.847 215.052 213.147 209.619 210.347 201.219C206.847 190.719 217.847 188.219 216.847 183.219C215.847 178.219 212.347 160.219 210.347 158.719C208.347 157.219 245.847 165.719 275.847 153.219C278.18 160.552 283.447 175.819 285.847 178.219C286.013 181.052 286.047 187.519 284.847 190.719C283.647 193.919 284.013 192.385 284.347 191.219C277.347 195.385 263.047 204.919 261.847 209.719C260.647 214.519 266.68 217.719 269.847 218.719L296.347 219.719C300.68 218.552 308.947 213.819 307.347 204.219C305.347 192.219 312.847 190.719 312.847 187.719C312.847 184.719 310.679 175.467 309.847 174.219C308.847 172.719 310.347 166.552 311.347 162.719C314.013 167.385 320.647 177.619 325.847 181.219C332.347 185.719 328.347 187.219 327.847 189.219C327.347 191.219 304.847 205.219 309.847 209.219C314.847 213.219 318.347 214.719 329.347 214.719C340.347 214.719 350.347 212.719 350.847 209.219C351.347 205.719 355.847 178.719 351.847 174.219C347.847 169.719 340.347 157.219 340.847 155.219C341.347 153.219 343.847 141.719 335.847 135.719C329.447 130.919 337.513 127.719 342.347 126.719C357.013 133.052 387.647 145.419 392.847 144.219C406.847 146.385 440.147 149.419 461.347 144.219C469.347 142.052 488.447 134.019 500.847 119.219Z" fill="#A55C49"/>
<path d="M335.347 68.7188C337.513 85.2188 332.847 114.719 310.847 130.719" stroke="#D38C70"/>
<path d="M171.347 113.219C182.513 119.385 205.247 135.919 206.847 152.719" stroke="#D58970"/>
<path d="M65.8467 132.719C57.18 137.719 39.6467 148.019 38.8467 149.219C37.8467 150.719 34.8467 154.719 34.8467 155.219" stroke="#421404"/>
<path d="M146.847 98.2188C137.513 98.7188 117.647 100.519 112.847 103.719" stroke="#421404" stroke-opacity="0.5"/>
<path d="M140.466 61.2188C131.866 64.8808 113.813 73.367 110.397 78.0157" stroke="#421404" stroke-opacity="0.5"/>
<path d="M62.8467 103.219C58.9451 105.413 56.3595 107.506 52.8467 109.219C49.1566 111.018 44.5578 112.426 41.2278 114.219" stroke="#421404" stroke-opacity="0.5" stroke-width="0.4"/>
<path d="M119.812 28.2188C112.983 34.6011 98.9214 48.7501 97.3013 54.2868" stroke="#421404" stroke-opacity="0.5"/>
<path d="M90.9165 16.5227C88.1942 25.4642 83.0908 44.7484 84.4561 50.3534" stroke="#421404" stroke-opacity="0.5"/>
<path d="M36.3467 134.719L37.3467 131.719V128.719L33.8467 129.719V134.719H36.3467Z" fill="#6F4030"/>
<path d="M73.2777 93.6694C74.5191 93.1937 75.3467 88.4366 75.3467 87.4852C74.9329 86.5337 67.8985 88.4366 67.4847 88.4366C67.0709 88.4366 67.658 92.9173 68.3123 93.6694C69.1399 94.6209 72.0364 94.1452 73.2777 93.6694Z" fill="#221F1F"/>
<path d="M74.9256 86.2188C75.2625 86.2188 75.3467 87.5521 75.3467 88.2188C75.0098 87.4188 69.873 88.5521 67.3467 89.2188V87.7188C67.3467 87.2188 74.5046 86.2188 74.9256 86.2188Z" fill="#F4F081"/>
<path d="M74.3468 85.2188C75.1281 85.1782 75.0188 86.1778 75.1751 86.3516C71.3194 86.9881 68.3364 87.9796 67.3269 88.3958L67.2704 87.3073C67.1972 85.8951 73.4654 85.2645 74.3468 85.2188Z" fill="white"/>
<path d="M276.347 73.7188C273.013 94.3854 269.847 143.219 275.847 153.219" stroke="#5C3325"/>
<path d="M174.347 222.219C175.484 222.219 182.899 220.219 183.847 218.219C181.347 219.219 173.618 216.947 172.847 217.719C172.347 218.219 172.926 222.219 174.347 222.219Z" fill="#948F1D"/>
<path d="M262.347 218.719C262.347 219.856 269.526 219.977 271.347 218.719C268.682 218.335 263.347 213.128 263.347 214.219C263.347 214.719 262.347 217.219 262.347 218.719Z" fill="#948F1D"/>
<path d="M311.847 216.219C312.935 217.963 319.526 215.477 321.347 214.219C318.682 213.835 313.347 210.628 313.347 211.719C313.347 212.219 311.053 214.946 311.847 216.219Z" fill="#948F1D"/>
<path d="M258.656 208.75C258.11 209.747 261.041 213.058 262.666 214.422C259.847 208.719 264.542 206.14 263.455 206.235C262.459 206.322 259.522 207.168 258.656 208.75Z" fill="#948F1D"/>
<path d="M134.847 213.882C135.984 213.882 143.399 211.882 144.347 209.882C141.847 210.882 134.118 208.61 133.347 209.382C132.847 209.882 133.426 213.882 134.847 213.882Z" fill="#948F1D"/>
<path d="M151.847 216.719C152.984 216.719 160.899 210.219 161.847 208.219C159.347 210.219 150.118 209.447 149.347 210.219C148.847 210.719 150.426 216.719 151.847 216.719Z" fill="#948F1D"/>
<path d="M163.151 216.586C163.404 217.825 168.365 216.287 170.847 216.586C166.154 210.058 167.581 210.757 167.847 210.219C166.731 210.286 162.834 215.037 163.151 216.586Z" fill="#948F1D"/>
<path d="M124.143 209.65C124.397 210.889 129.357 209.351 131.84 209.65C127.147 203.121 128.573 203.821 128.84 203.282C127.724 203.349 123.826 208.101 124.143 209.65Z" fill="#948F1D"/>
<path d="M169.347 206.719C169.6 207.958 168.864 207.42 171.347 207.719C172.847 204.719 176.58 203.257 176.847 202.719C175.731 202.786 169.03 205.17 169.347 206.719Z" fill="#948F1D"/>
<path d="M127.057 201.076C127.31 202.316 126.575 201.777 129.057 202.077C131.347 199.719 133.847 197.219 134.347 196.719L134.347 196.719C133.231 196.786 126.74 199.527 127.057 201.076Z" fill="#948F1D"/>
<path d="M307.846 205.219C308.246 204.819 309.68 204.719 310.346 204.719C307.346 208.219 309.846 209.219 310.346 209.719C310.921 210.293 308.18 209.552 307.346 209.719C307.346 208.385 307.446 205.619 307.846 205.219Z" fill="#948F1D"/>
<path d="M135.847 118.219C138.847 118.219 139.847 122.719 140.847 121.719C142.847 119.719 140.18 114.385 140.847 111.219C142.347 113.552 145.747 118.219 147.347 118.219C148.947 118.219 148.013 111.552 147.347 108.219L151.347 110.719L157.347 112.719C157.68 108.552 155.347 102.219 154.347 100.719C157.347 101.219 165.847 96.5187 165.847 95.7187C165.847 94.7346 155.194 86.9717 154.379 87.2012L164.347 81.7187C162.013 80.3854 155.947 74.9187 154.347 75.7187C158.013 73.8854 166.247 73.0187 165.847 72.2187C165.347 71.2187 155.347 65.2187 154.347 65.2187C157.18 63.2187 164.347 64.1187 164.347 63.7187C164.347 63.2187 152.347 53.2188 151.847 53.7188L153.847 51.7187C156.18 49.2187 160.347 42.0187 160.347 41.2187C160.347 40.2445 145.635 31.2027 143.49 32.1243C144.43 31.0716 149.635 23.0066 148.347 21.7187C147.347 20.7187 132.513 14.7187 131.347 15.7187C131.18 12.0521 132.562 4.36097 131.847 4.71874C129.847 5.71872 121.847 6.21875 121.847 7.71873L121.815 7.71199C121.653 6.7802 120.856 -0.285762 118.847 0.718723L118.847 0.718817C116.847 1.71886 113.18 3.55212 112.347 5.71872C111.18 2.55206 112.447 0.318709 110.847 0.718709C108.847 1.21871 99.8468 2.71873 98.3468 5.71873L98.2066 5.81511C96.7769 6.25829 85.7754 2.8614 84.3468 5.71873C83.3468 7.71873 81.8468 13.7187 82.3468 16.7187L82.1552 17.3785C81.0396 18.7218 75.6578 18.9077 74.3468 20.2187C72.8468 21.7187 76.4911 27.2187 77.8468 32.2187L82.1552 17.3785C82.316 17.1849 82.3882 16.9673 82.3468 16.7187L98.2066 5.81511C98.278 5.79298 98.3255 5.76127 98.3468 5.71873L112.347 5.71872L121.815 7.71199C121.837 7.83788 121.847 7.8518 121.847 7.71873L131.347 15.7187L143.347 32.2187C143.347 32.2281 143.349 32.2339 143.353 32.2363L148.847 46.7188L149.847 49.7188L151.847 53.7188L153.847 63.7187V66.7187L154.347 65.2187V75.7187L154.347 87.2187L154.347 100.719L150.847 106.219L147.347 108.219L140.847 111.219L135.847 118.219Z" fill="#DAA420"/>
<path d="M72.7024 44.6219C72.7024 41.7188 76.0134 39.0521 77.8468 38.2188L78.3468 50.2188C75.3468 48.5521 72.7024 46.0641 72.7024 44.6219Z" fill="#DAA420"/>
<path d="M109.847 39.2188C106.513 44.0521 99.5467 53.7188 98.3467 53.7188C98.3467 52.2188 100.647 47.2188 109.847 39.2188Z" fill="#8A4E3D"/>
<path d="M114.347 76.2188C120.747 75.8188 133.013 67.0521 138.347 62.7188C131.947 64.3188 118.68 72.3854 112.847 76.2188H114.347Z" fill="#6F4030" fill-opacity="0.5"/>
<path d="M128.847 123.719C129.247 123.719 130.68 122.719 130.847 122.219C128.347 122.719 121.847 122.219 117.347 121.219C116.37 121.002 120.347 122.719 120.847 123.219C122.347 123.719 128.347 123.719 128.847 123.719Z" fill="#7E3F2E" fill-opacity="0.5"/>
<path d="M135.847 118.219C131.18 120.552 120.247 123.819 113.847 118.219" stroke="#6F4030" stroke-width="0.5"/>
<path d="M45.3464 50.6212L78.3465 58.1212C80.3465 67.6212 78.3465 69.2188 78.3465 70.7188C78.3465 72.2188 61.3465 75.2188 60.8465 75.2188C60.4465 75.2188 59.6798 75.3854 59.3464 75.2188C56.9464 74.0188 49.6798 69.5521 46.3465 67.7188C43.5465 66.5187 33.1798 60.6212 28.3464 57.6212L22.8464 53.6212L20.8464 52.1212L15.8464 48.6212C7.34644 43.1212 5.84644 40.1212 4.84644 39.1212C4.04643 38.3212 3.84644 37.6212 4.84644 37.6212C6.57953 37.6212 11.3464 39.1212 15.3464 41.1212C19.3464 43.1212 37.0131 48.1212 45.3464 50.6212Z" fill="#A58027" stroke="#864838" stroke-width="0.5"/>
<path d="M4.34644 46.7188C11.8431 50.4671 19.8464 52.2187 22.8464 53.7188C29.3464 58.7188 37.3464 62.2188 36.3464 62.2188C35.5464 62.2188 25.6797 59.2188 20.8464 57.7188C20.0464 58.1188 10.1797 52.8854 5.34641 50.2188C2.17974 47.7188 -2.65356 43.2188 4.34644 46.7188Z" fill="#A58027" stroke="#864838" stroke-width="0.5"/>
<path d="M73.8467 91.7187C74.0134 90.8854 74.1467 89.1187 73.3467 88.7187C72.5467 88.3187 73.3467 90.5521 73.8467 91.7187Z" fill="white"/>
<path d="M349.847 209.219C352.647 197.619 352.347 179.219 351.347 176.719C344.195 164.34 339.347 161.219 340.347 148.219C341.892 138.082 330.344 134.418 330.119 133.219C329.572 138.419 311.347 140.526 311.347 153.219C311.347 162.719 319.347 174.885 322.847 178.719C324.347 179.719 329.847 184.119 329.847 185.719C329.847 187.319 329.347 188.385 328.347 189.219L317.847 198.219C310.847 203.219 307.847 206.719 309.847 209.219C315.447 215.219 326.68 213.552 331.847 213.219C343.847 213.619 348.68 211.052 349.847 209.219Z" fill="#713B2D" fill-opacity="0.6"/>
<path d="M172.347 158.219C162.429 157.894 142.741 156.966 141.411 155.806C141.295 155.516 141.258 155.454 141.347 155.719C141.356 155.748 141.378 155.777 141.411 155.806C141.957 157.161 144.258 163.483 143.847 164.719C143.447 165.919 144.347 172.885 144.847 176.219C145.18 179.385 145.247 186.219 142.847 188.219C142.18 189.552 140.247 192.719 137.847 194.719C134.68 197.052 128.447 201.919 128.847 202.719L127.847 204.719C128.68 206.219 130.947 209.219 133.347 209.219C136.68 209.552 143.547 210.219 144.347 210.219C145.347 210.219 161.847 209.719 163.847 207.219C166.513 205.719 171.647 202.419 170.847 201.219C169.847 199.719 169.347 188.219 169.347 187.719C169.347 187.219 176.347 179.219 175.847 177.219C175.347 175.219 172.347 161.719 172.347 158.219Z" fill="#713B2D" fill-opacity="0.6"/>
<path d="M273.347 154.219C265.18 157.552 241.247 163.019 210.847 158.219C222.68 159.052 251.747 159.419 273.347 154.219Z" fill="#522419" fill-opacity="0.8"/>
<path d="M130.847 122.219C132.447 121.819 134.013 120.885 135.347 119.719L135.847 118.219C129.847 121.719 121.347 121.719 117.847 120.719C117.156 120.521 115.013 119.219 113.847 118.219L114.347 120.219L115.347 121.219C115.347 121.719 128.847 122.719 130.847 122.219Z" fill="#743827" fill-opacity="0.8"/>
<path d="M46.8467 149.719C46.8467 149.219 54.3467 145.719 55.8467 143.219C57.0295 141.247 79.6855 135.227 91.3467 132.342C91.3467 133.966 68.8467 141.219 68.3467 142.719C67.8467 144.219 46.8467 150.219 46.8467 149.719Z" fill="#713B2D" fill-opacity="0.7"/>
<path d="M146.347 98.7188C136.18 101.552 115.347 106.619 113.347 104.219C115.347 102.719 124.747 99.5188 146.347 98.7188Z" fill="#7E3F2E" fill-opacity="0.7"/>
<path d="M167.847 123.719C169.047 121.719 172.013 124.552 173.347 126.219C172.147 127.419 170.847 127.719 170.347 127.719C169.847 128.219 166.347 126.219 167.847 123.719Z" fill="#954F3D"/>
<path d="M235.847 19.2188C235.347 19.7188 232.347 15.7187 233.847 13.2187C234.534 12.0728 236.138 13.8197 237.346 14.7187C238.247 15.3887 242.733 15.832 241.346 17.2187C240.146 18.4187 236.347 19.2188 235.847 19.2188Z" fill="#954F3D"/>
<path d="M251.347 14.7187C250.847 12.7187 250.847 12.7187 252.347 10.2187C253.098 8.9656 254.544 9.15275 255.846 10.2187C256.623 10.854 256.547 13.5187 255.347 14.7187C254.147 15.9187 251.847 14.7187 251.347 14.7187Z" fill="#954F3D"/>
<path d="M223.847 19.9066C225.047 17.9066 228.013 20.74 229.347 22.4066C228.147 23.6066 226.847 23.9066 226.347 23.9066C225.847 24.4066 222.347 22.4066 223.847 19.9066Z" fill="#954F3D"/>
<path d="M274.347 19.2188C273.847 21.7188 276.347 23.7188 276.847 23.2188C277.347 23.2188 279.647 20.4188 280.847 19.2188L280.847 18.0994C281.243 16.7047 282.386 14.6543 280.847 14.2188C279.877 13.9445 275.444 12.0102 273.347 12.7188C271.607 13.3065 274.442 18.7406 274.347 19.2188Z" fill="#954F3D"/>
<path d="M260.347 23.9067C259.847 24.4067 260.347 22.7187 261.847 20.2187C262.483 19.1586 262.224 15.9565 263.347 16.7187C264.342 17.3946 266.847 22.7187 263.347 24.7187C261.847 27.2187 260.847 23.9067 260.347 23.9067Z" fill="#954F3D"/>
<path d="M287.347 28.9066C286.847 29.4066 282.739 26.5225 285.347 25.2187C288.347 23.7187 288.093 22.7423 289.347 23.7187C290.191 24.3762 289.81 26.7359 290.347 27.4066C289.147 28.6066 287.847 28.9066 287.347 28.9066Z" fill="#954F3D"/>
<path d="M174.347 137.719C174.347 136.217 176.09 138.719 177.347 140.17C178.255 141.22 175.187 140.17 174.847 140.17C174.506 140.485 174.347 139.219 174.347 137.719Z" fill="#954F3D"/>
<path d="M184.179 130.682C182.347 125.219 186.347 129.719 187.179 133.134C188.088 134.183 185.687 135.719 185.347 135.719C185.006 136.034 184.656 132.104 184.179 130.682Z" fill="#954F3D"/>
<path d="M299.68 80.5334C309.411 90.9783 289.665 82.5603 285.818 75.3767C281.621 73.1694 289.409 68.8392 296.318 72.8767C300.818 76.3767 294.876 75.3767 299.68 80.5334Z" fill="#954F3D"/>
<path d="M327.346 80.7188C321.846 80.7187 318.346 80.2188 316.346 76.7187C313.346 76.7187 318.846 73.7186 324.346 73.7186C328.846 77.2186 334.394 80.7188 327.346 80.7188Z" fill="#954F3D"/>
<path d="M376.847 134.719C386.047 139.919 408.347 144.552 418.347 146.219C418.347 148.719 394.347 142.719 391.847 144.219C389.847 145.419 358.68 133.052 343.347 126.719C340.947 125.519 342.013 125.219 342.847 125.219C350.347 126.219 367.647 129.519 376.847 134.719Z" fill="#954F3D"/>
<path d="M242.347 21.2187C246.347 19.2187 253.013 24.7187 255.847 27.7187C254.347 36.7187 232.847 31.7187 233.847 27.7187C234.847 23.7187 237.347 23.7187 242.347 21.2187Z" fill="#954F3D"/>
<path d="M177.347 158.219C176.013 156.219 172.647 151.819 171.847 150.219" stroke="#954F3D" stroke-width="0.8"/>
<path d="M23.3467 120.621C24.1467 121.421 37.18 110.455 43.3467 105.121C26.8467 103.621 10.5133 100.455 8.84668 99.1212C18.3467 117.621 22.3467 119.621 23.3467 120.621Z" fill="#A58027" stroke="#864838" stroke-width="0.5"/>
<path d="M321.847 125.621C324.247 124.421 327.847 114.955 327.847 112.621C320.847 124.621 312.347 129.621 312.847 129.621C313.247 129.621 319.013 126.955 321.847 125.621Z" fill="#954F3D"/>
</svg>
