<svg width="526" height="230" viewBox="0 0 526 230" fill="none" xmlns="http://www.w3.org/2000/svg">
<path d="M502.796 118.495L514.563 114.547L506.592 124.061C493.573 139.599 473.729 147.915 465.324 150.191L465.284 150.202L465.243 150.212C454.18 152.926 440.179 153.456 427.355 153.074C414.789 152.699 403.087 151.439 395.899 150.352C394.694 150.473 393.378 150.309 392.252 150.114C390.716 149.849 388.904 149.403 386.93 148.842C382.973 147.717 378.103 146.051 373 144.172C363.257 140.586 352.453 136.146 345.08 132.981C344.304 133.181 343.488 133.433 342.715 133.731C341.655 134.14 340.85 134.57 340.343 134.952C340.496 135.102 340.711 135.289 341.009 135.513C346.108 139.337 347.728 144.847 348.085 149.281C348.395 153.12 347.797 156.489 347.444 158.07C347.551 158.403 347.743 158.892 348.039 159.539C348.665 160.913 349.616 162.69 350.74 164.603C353.013 168.474 355.752 172.493 357.525 174.487C358.628 175.729 359.155 177.357 359.453 178.713C359.773 180.165 359.937 181.827 360.008 183.543C360.15 186.985 359.932 191.065 359.583 194.997C358.99 201.685 357.982 208.303 357.546 211.162C357.469 211.669 357.41 212.058 357.374 212.308C357.016 214.811 355.104 216.334 353.633 217.181C352.038 218.1 350.03 218.775 347.907 219.28C343.621 220.301 338.08 220.813 332.409 220.813C326.803 220.813 322.765 220.438 319.39 219.411C316.727 218.6 314.621 217.428 312.583 215.964C311.814 217.554 310.804 218.947 309.669 220.139C306.729 223.226 302.969 224.979 300.319 225.692L299.807 225.83L299.277 225.81L272.777 224.81L272.305 224.792L271.855 224.65C269.968 224.054 267.196 222.81 264.975 220.879C262.762 218.955 260.453 215.707 261.514 211.464C261.814 210.261 262.444 209.176 263.084 208.278C263.748 207.347 264.57 206.418 265.46 205.52C267.241 203.723 269.502 201.84 271.863 200.041C276.282 196.675 281.318 193.402 284.879 191.249C285.145 190.14 285.334 188.56 285.426 186.747C285.513 185.047 285.506 183.365 285.463 182.084C285.235 181.747 285.03 181.406 284.848 181.088C284.4 180.305 283.941 179.382 283.483 178.39C282.567 176.401 281.578 173.954 280.611 171.404C279.218 167.728 277.833 163.741 276.726 160.412C262.008 165.714 246.155 166.539 234.057 166.186C227.824 166.005 222.518 165.508 218.802 165.121C219.357 167.01 219.916 169.216 220.441 171.449C221.587 176.32 222.628 181.547 223.183 184.333C223.241 184.626 223.294 184.891 223.341 185.126C223.885 187.844 222.671 189.977 221.611 191.374C221.077 192.078 220.466 192.745 219.934 193.319C219.841 193.419 219.75 193.516 219.66 193.613C219.204 194.102 218.79 194.547 218.384 195.023C217.428 196.142 216.771 197.152 216.448 198.257C216.145 199.294 216.057 200.687 216.73 202.706C218.62 208.376 216.661 213.098 213.782 216.391C211.009 219.563 207.257 221.62 204.625 222.595L204.375 222.687L204.115 222.741C195.246 224.567 187.135 224.704 180.797 224.044C177.629 223.714 174.858 223.18 172.625 222.534C170.519 221.926 168.498 221.109 167.169 220.002C165.249 218.402 165.418 216.164 165.817 214.895C165.864 214.746 165.917 214.598 165.974 214.453C165.601 214.64 165.247 214.814 164.919 214.97L164.5 215.171L164.043 215.255C148.201 218.173 134.763 215.472 129.694 213.595L128.174 213.032L127.62 211.509C126.817 209.301 127.232 207.139 127.952 205.422C128.67 203.712 129.811 202.136 130.991 200.791C133.293 198.169 136.238 195.875 138.323 194.496C143.153 190.452 144.326 186.686 144.474 182.985C144.555 180.964 144.328 178.899 144.038 176.584C144.014 176.396 143.99 176.206 143.966 176.014C143.702 173.934 143.409 171.618 143.409 169.313C143.409 168.017 143.043 165.999 142.288 163.376C141.552 160.819 140.517 157.924 139.343 154.966C136.996 149.052 134.17 143.079 132.293 139.406L131.849 138.537L131.853 138.474C131.569 138.335 131.144 138.163 130.54 137.98C128.454 137.348 125.307 136.902 121.508 136.642C114.322 136.151 105.622 136.372 99.4832 136.751C96.7823 138.306 92.1212 140.388 87.4935 142.338C82.4911 144.446 77.1994 146.536 73.6591 147.891C72.9058 148.446 72.0314 148.924 71.188 149.333C70.0768 149.871 68.7891 150.397 67.4266 150.901C64.6991 151.908 61.488 152.89 58.4102 153.747C55.3234 154.606 52.3173 155.354 49.9785 155.889C48.8104 156.156 47.7921 156.374 47.0031 156.527C46.6107 156.603 46.2542 156.667 45.9538 156.714C45.9181 156.72 45.8769 156.726 45.8313 156.733C45.4752 156.914 45.2624 157.087 45.1524 157.194C45.1449 157.201 45.1379 157.208 45.1313 157.214L44.9291 157.821L44.2139 158.447C43.3087 159.239 41.8197 160.278 40.089 160.958C38.4388 161.606 35.8535 162.198 33.3439 160.943C32.4262 160.484 31.7552 159.8 31.299 159.245C30.8173 158.658 30.3993 157.998 30.0385 157.347C29.3172 156.045 28.6644 154.488 28.0979 152.942C26.959 149.834 26.0209 146.362 25.4988 144.1L25.3096 143.28L25.4627 142.668C25.4638 142.605 25.4642 142.496 25.4592 142.332C25.4467 141.919 25.4081 141.344 25.3423 140.618C25.2112 139.174 24.9871 137.294 24.7144 135.235C24.2583 131.79 23.679 127.937 23.2111 124.977C22.7547 124.628 22.3495 124.257 22.0045 123.919C21.1102 123.043 20.2037 121.963 19.3306 120.82C17.5786 118.525 15.7535 115.7 14.1611 113.056C12.5617 110.401 11.1512 107.854 10.2265 106.077C9.77536 105.211 9.40063 104.453 9.1806 103.941C9.12454 103.811 9.05676 103.647 8.99673 103.475C8.96732 103.391 8.92377 103.259 8.88409 103.102L8.88297 103.098C8.85803 102.999 8.76227 102.621 8.77026 102.139C8.77399 101.914 8.80017 101.318 9.1268 100.649C9.53171 99.8192 10.3874 98.95 11.6922 98.7282C12.7372 98.5506 13.531 98.8933 13.817 99.0321C14.1626 99.1997 14.4054 99.3878 14.5226 99.4838C14.5677 99.5208 14.6111 99.5583 14.6526 99.5959C14.7911 99.6473 14.9868 99.7138 15.2497 99.7931C16.0959 100.049 17.3163 100.342 18.8452 100.659C21.8828 101.288 25.8544 101.948 29.8567 102.538C33.8509 103.126 37.8231 103.636 40.8445 103.966C42.3602 104.132 43.6066 104.25 44.4856 104.31C44.5858 104.317 44.6789 104.323 44.7649 104.328C44.7809 104.316 44.7972 104.303 44.8139 104.289C45.2714 103.922 45.8519 103.434 46.4869 102.886C47.7524 101.796 49.1533 100.543 50.0548 99.7229L50.4121 99.3982L50.8439 99.1823C52.4834 98.3625 54.1911 96.1074 55.5312 92.9099C56.831 89.8087 57.4092 86.7257 57.4092 85.3127V84.1119L58.1465 83.164C59.1696 81.8484 59.0973 81.0031 59.0069 80.3702C58.982 80.1962 58.9566 80.0589 58.9222 79.8736C58.9084 79.7986 58.893 79.7158 58.8757 79.6196L58.8715 79.5962C58.8703 79.5897 58.8691 79.583 58.8679 79.5761L33.2141 65.3749L33.0764 65.2987L32.9462 65.2105C25.1972 59.9611 14.7988 52.5884 9.07037 47.6839C7.64682 46.4651 6.38364 45.2913 5.51157 44.2766C5.09805 43.7954 4.60281 43.1582 4.2688 42.436C4.04449 41.9511 3.20984 39.9299 4.71896 38.1036C5.40042 37.2789 6.2529 36.9334 6.83337 36.7871C7.41071 36.6416 7.94382 36.6328 8.3345 36.6518C9.11337 36.6896 9.94113 36.8739 10.7258 37.0958C12.3366 37.5513 14.5182 38.3871 17.309 39.6049C36.85 48.1319 63.6755 54.1379 77.9092 56.6727V53.0253C74.7101 26.5449 84.2282 13.244 91.2401 9.73339C99.6471 4.76032 107.557 3.0742 114.836 3.91228C122.117 4.75058 128.425 8.0743 133.703 12.5245C142.653 20.0714 148.981 31.135 152.624 40.287L155.679 38.1044C168.398 26.1338 188.904 18.556 208.857 13.856C229.003 9.11019 249.21 7.1593 261.753 6.81571C298.119 4.56302 329.697 20.3819 354.23 40.7182C378.751 61.0442 396.545 86.1269 405.487 103.145C414.222 118.756 431.595 124.96 450.855 125.968C470.048 126.972 490.174 122.729 502.796 118.495ZM316.102 174.525C316.09 174.692 316.083 174.846 316.08 174.987C316.078 175.129 316.08 175.238 316.085 175.317C316.301 175.727 316.459 176.14 316.562 176.422C316.738 176.899 316.915 177.454 317.087 178.04C317.433 179.218 317.8 180.658 318.134 182.131C318.771 184.935 319.409 188.364 319.409 190.313C319.409 192.534 318.01 194.096 317.379 194.801L317.375 194.804C317.103 195.108 316.86 195.368 316.633 195.61C316.129 196.148 315.709 196.597 315.247 197.237C314.543 198.21 313.78 199.615 313.606 201.969C314.856 200.738 316.239 199.521 317.596 198.382C319.563 196.731 321.648 195.103 323.432 193.71C323.994 193.271 324.527 192.856 325.016 192.47C326.068 191.641 326.893 190.973 327.459 190.469C327.591 190.351 327.695 190.255 327.774 190.179C327.924 189.819 328.09 189.516 328.231 189.28C328.428 188.952 328.655 188.628 328.798 188.426C328.818 188.397 328.836 188.371 328.852 188.348C328.861 188.335 328.869 188.323 328.878 188.311C328.572 187.971 327.987 187.432 326.917 186.69C323.799 184.532 320.55 180.653 317.89 177.036C317.274 176.2 316.676 175.357 316.102 174.525ZM316.099 175.475C316.102 175.496 316.103 175.492 316.098 175.469C316.098 175.472 316.099 175.474 316.099 175.475ZM339.925 135.338C339.926 135.338 339.932 135.33 339.942 135.314C339.929 135.33 339.925 135.338 339.925 135.338ZM177.159 202.513C177.176 202.556 177.193 202.6 177.209 202.643C178.208 201.82 179.183 201.032 180.089 200.307C180.76 199.77 181.381 199.276 181.942 198.829C183.117 197.894 184.029 197.169 184.59 196.691C184.595 196.672 184.806 196.363 184.926 195.354C185.061 194.211 185.012 192.754 184.862 191.135C184.767 190.116 184.664 189.284 184.561 188.463C184.486 187.86 184.412 187.262 184.342 186.6C184.274 185.949 184.213 185.227 184.223 184.585C184.228 184.268 184.252 183.837 184.35 183.381C184.356 183.354 184.363 183.325 184.37 183.292C184.064 182.595 183.531 181.621 182.852 180.5C182.709 180.263 182.563 180.025 182.414 179.788C182.305 181.276 181.777 182.659 181.263 183.735C180.543 185.241 179.574 186.704 178.674 187.938C177.764 189.186 176.845 190.304 176.199 191.09C176.112 191.196 176.032 191.293 175.959 191.382C175.97 191.593 175.983 191.828 175.997 192.082C176.058 193.153 176.15 194.56 176.272 196.022C176.395 197.492 176.545 198.982 176.719 200.235C176.807 200.862 176.896 201.398 176.985 201.825C177.029 202.037 177.069 202.204 177.104 202.332C177.14 202.465 177.161 202.518 177.159 202.513ZM177.241 162.727C177.24 162.728 177.244 162.742 177.252 162.766C177.245 162.739 177.241 162.726 177.241 162.727ZM14.3689 99.4727C14.366 99.473 14.3913 99.4879 14.4528 99.5156C14.4024 99.4861 14.3719 99.4723 14.3689 99.4727Z" fill="#A55C49" stroke="#FFFF93" stroke-width="7"/>
<path d="M338.409 71.3127C340.576 87.8127 335.909 117.313 313.909 133.313" stroke="#D38C70"/>
<path d="M174.409 115.813C185.576 121.979 208.309 138.513 209.909 155.313" stroke="#D58970"/>
<path d="M68.9092 135.313C60.2425 140.313 42.7092 150.613 41.9092 151.813C40.9092 153.313 37.9092 157.313 37.9092 157.813" stroke="#421404"/>
<path d="M149.909 100.813C140.576 101.313 120.709 103.113 115.909 106.313" stroke="#421404" stroke-opacity="0.5"/>
<path d="M143.528 63.8127C134.929 67.4748 116.876 75.961 113.46 80.6097" stroke="#421404" stroke-opacity="0.5"/>
<path d="M65.9092 105.813C62.0076 108.007 59.422 110.1 55.9092 111.813C52.2191 113.612 47.6203 115.02 44.2903 116.813" stroke="#421404" stroke-opacity="0.5" stroke-width="0.4"/>
<path d="M122.874 30.8127C116.046 37.1951 101.984 51.344 100.364 56.8808" stroke="#421404" stroke-opacity="0.5"/>
<path d="M93.979 19.1167C91.2567 28.0582 86.1533 47.3424 87.5186 52.9474" stroke="#421404" stroke-opacity="0.5"/>
<path d="M39.4092 137.313L40.4092 134.313V131.313L36.9092 132.313V137.313H39.4092Z" fill="#6F4030"/>
<path d="M76.3402 96.2634C77.5816 95.7877 78.4092 91.0306 78.4092 90.0791C77.9954 89.1277 70.961 91.0306 70.5472 91.0306C70.1334 91.0306 70.7205 95.5113 71.3748 96.2634C72.2024 97.2149 75.0989 96.7392 76.3402 96.2634Z" fill="#221F1F"/>
<path d="M77.9881 88.8127C78.325 88.8127 78.4092 90.1461 78.4092 90.8127C78.0723 90.0127 72.9355 91.1461 70.4092 91.8127V90.3127C70.4092 89.8127 77.5671 88.8127 77.9881 88.8127Z" fill="#F4F081"/>
<path d="M77.4093 87.8127C78.1906 87.7722 78.0813 88.7718 78.2376 88.9456C74.3819 89.5821 71.3989 90.5736 70.3894 90.9897L70.3329 89.9012C70.2597 88.4891 76.5279 87.8585 77.4093 87.8127Z" fill="white"/>
<path d="M279.409 76.3127C276.076 96.9794 272.909 145.813 278.909 155.813" stroke="#5C3325"/>
<path d="M177.409 224.813C178.546 224.813 185.962 222.813 186.909 220.813C184.409 221.813 176.68 219.541 175.909 220.313C175.409 220.813 175.988 224.813 177.409 224.813Z" fill="#948F1D"/>
<path d="M265.409 221.313C265.409 222.45 272.589 222.571 274.409 221.313C271.744 220.929 266.409 215.722 266.409 216.813C266.409 217.313 265.409 219.813 265.409 221.313Z" fill="#948F1D"/>
<path d="M314.909 218.813C315.997 220.557 322.589 218.071 324.409 216.813C321.744 216.429 316.409 213.222 316.409 214.313C316.409 214.813 314.115 217.54 314.909 218.813Z" fill="#948F1D"/>
<path d="M261.719 211.344C261.173 212.341 264.103 215.652 265.728 217.016C262.909 211.313 267.605 208.734 266.518 208.829C265.522 208.916 262.584 209.762 261.719 211.344Z" fill="#948F1D"/>
<path d="M137.909 216.476C139.046 216.476 146.462 214.476 147.409 212.476C144.909 213.476 137.18 211.204 136.409 211.976C135.909 212.476 136.488 216.476 137.909 216.476Z" fill="#948F1D"/>
<path d="M154.909 219.313C156.046 219.313 163.962 212.813 164.909 210.813C162.409 212.813 153.18 212.041 152.409 212.813C151.909 213.313 153.488 219.313 154.909 219.313Z" fill="#948F1D"/>
<path d="M166.213 219.18C166.467 220.419 171.427 218.881 173.909 219.18C169.217 212.652 170.643 213.351 170.909 212.813C169.793 212.88 165.896 217.631 166.213 219.18Z" fill="#948F1D"/>
<path d="M127.206 212.244C127.46 213.483 132.42 211.945 134.902 212.244C130.209 205.715 131.636 206.415 131.902 205.876C130.786 205.943 126.889 210.695 127.206 212.244Z" fill="#948F1D"/>
<path d="M172.409 209.313C172.663 210.552 171.927 210.014 174.409 210.313C175.909 207.313 179.643 205.851 179.909 205.313C178.793 205.38 172.092 207.764 172.409 209.313Z" fill="#948F1D"/>
<path d="M130.119 203.67C130.373 204.91 129.637 204.371 132.119 204.67C134.409 202.313 136.909 199.813 137.409 199.313L137.409 199.313C136.293 199.38 129.802 202.121 130.119 203.67Z" fill="#948F1D"/>
<path d="M310.909 207.813C311.309 207.413 312.742 207.313 313.409 207.313C310.409 210.813 312.909 211.813 313.409 212.313C313.983 212.887 311.242 212.146 310.409 212.313C310.409 210.979 310.509 208.213 310.909 207.813Z" fill="#948F1D"/>
<path d="M138.909 120.813C141.909 120.813 142.909 125.313 143.909 124.313C145.909 122.313 143.243 116.979 143.909 113.813C145.409 116.146 148.809 120.813 150.409 120.813C152.009 120.813 151.076 114.146 150.409 110.813L154.409 113.313L160.409 115.313C160.743 111.146 158.409 104.813 157.409 103.313C160.409 103.813 168.909 99.1127 168.909 98.3127C168.909 97.3286 158.257 89.5657 157.441 89.7952L167.409 84.3127C165.076 82.9794 159.009 77.5127 157.409 78.3127C161.076 76.4794 169.309 75.6127 168.909 74.8127C168.409 73.8127 158.409 67.8127 157.409 67.8127C160.243 65.8127 167.409 66.7127 167.409 66.3127C167.409 65.8127 155.409 55.8127 154.909 56.3127L156.909 54.3127C159.243 51.8127 163.409 44.6127 163.409 43.8127C163.409 42.8385 148.698 33.7967 146.553 34.7183C147.493 33.6656 152.697 25.6006 151.409 24.3127C150.409 23.3127 135.576 17.3127 134.409 18.3127C134.243 14.6461 135.625 6.95496 134.909 7.31273C132.909 8.31272 124.909 8.81274 124.909 10.3127L124.877 10.306C124.716 9.3742 123.918 2.30823 121.909 3.31272L121.909 3.31281C119.909 4.31285 116.243 6.14612 115.409 8.31272C114.243 5.14605 115.509 2.9127 113.909 3.3127C111.909 3.8127 102.909 5.31273 101.409 8.31272L101.269 8.4091C99.8394 8.85228 88.8379 5.45539 87.4093 8.31272C86.4093 10.3127 84.9093 16.3127 85.4093 19.3127L85.2177 19.9725C84.1021 21.3157 78.7203 21.5017 77.4093 22.8127C75.9093 24.3127 79.5536 29.8127 80.9093 34.8127L85.2177 19.9725C85.3785 19.7789 85.4507 19.5613 85.4093 19.3127L101.269 8.4091C101.34 8.38697 101.388 8.35526 101.409 8.31272L115.409 8.31272L124.877 10.306C124.899 10.4319 124.909 10.4458 124.909 10.3127L134.409 18.3127L146.409 34.8127C146.409 34.8221 146.412 34.8279 146.416 34.8303L151.909 49.3127L152.909 52.3127L154.909 56.3127L156.909 66.3127V69.3127L157.409 67.8127V78.3127L157.409 89.8127L157.409 103.313L153.909 108.813L150.409 110.813L143.909 113.813L138.909 120.813Z" fill="#DAA420"/>
<path d="M75.7649 47.2159C75.7649 44.3127 79.0759 41.6461 80.9093 40.8127L81.4093 52.8127C78.4093 51.1461 75.7649 48.6581 75.7649 47.2159Z" fill="#DAA420"/>
<path d="M112.909 41.8127C109.576 46.6461 102.609 56.3127 101.409 56.3127C101.409 54.8127 103.709 49.8127 112.909 41.8127Z" fill="#8A4E3D"/>
<path d="M117.409 78.8127C123.809 78.4127 136.076 69.6461 141.409 65.3127C135.009 66.9127 121.743 74.9794 115.909 78.8127H117.409Z" fill="#6F4030" fill-opacity="0.5"/>
<path d="M131.909 126.313C132.309 126.313 133.743 125.313 133.909 124.813C131.409 125.313 124.909 124.813 120.409 123.813C119.433 123.596 123.409 125.313 123.909 125.813C125.409 126.313 131.409 126.313 131.909 126.313Z" fill="#7E3F2E" fill-opacity="0.5"/>
<path d="M138.909 120.813C134.243 123.146 123.309 126.413 116.909 120.813" stroke="#6F4030" stroke-width="0.5"/>
<path d="M48.4089 53.2152L81.409 60.7152C83.409 70.2152 81.409 71.8128 81.409 73.3128C81.409 74.8128 64.409 77.8128 63.909 77.8128C63.509 77.8128 62.7423 77.9794 62.4089 77.8128C60.0089 76.6128 52.7423 72.1461 49.409 70.3127C46.609 69.1127 36.2423 63.2152 31.4089 60.2152L25.9089 56.2152L23.9089 54.7152L18.9089 51.2152C10.4089 45.7152 8.90894 42.7152 7.90894 41.7152C7.10893 40.9152 6.90894 40.2152 7.90894 40.2152C9.64203 40.2152 14.4089 41.7152 18.4089 43.7152C22.4089 45.7152 40.0756 50.7152 48.4089 53.2152Z" fill="#A58027" stroke="#864838" stroke-width="0.5"/>
<path d="M7.40894 49.3128C14.9056 53.0611 22.9089 54.8127 25.9089 56.3128C32.4089 61.3128 40.4089 64.8127 39.4089 64.8127C38.6089 64.8127 28.7422 61.8127 23.9089 60.3127C23.1089 60.7127 13.2422 55.4794 8.40891 52.8128C5.24224 50.3128 0.408936 45.8127 7.40894 49.3128Z" fill="#A58027" stroke="#864838" stroke-width="0.5"/>
<path d="M76.9092 94.3127C77.0759 93.4794 77.2092 91.7127 76.4092 91.3127C75.6092 90.9127 76.4092 93.146 76.9092 94.3127Z" fill="white"/>
<path d="M352.909 211.813C355.709 200.213 355.409 181.813 354.409 179.313C347.257 166.934 342.409 163.813 343.409 150.813C344.955 140.676 333.407 137.012 333.182 135.813C332.634 141.013 314.409 143.12 314.409 155.813C314.409 165.313 322.409 177.479 325.909 181.313C327.409 182.313 332.909 186.713 332.909 188.313C332.909 189.913 332.409 190.979 331.409 191.813L320.909 200.813C313.909 205.813 310.909 209.313 312.909 211.813C318.509 217.813 329.743 216.146 334.909 215.813C346.909 216.213 351.743 213.646 352.909 211.813Z" fill="#713B2D" fill-opacity="0.6"/>
<path d="M175.409 160.813C165.491 160.488 145.803 159.56 144.474 158.4C144.357 158.11 144.321 158.048 144.409 158.313C144.419 158.342 144.441 158.371 144.474 158.4C145.019 159.755 147.321 166.077 146.909 167.313C146.509 168.513 147.409 175.479 147.909 178.813C148.242 181.979 148.309 188.813 145.909 190.813C145.242 192.146 143.309 195.313 140.909 197.313C137.742 199.646 131.509 204.513 131.909 205.313L130.909 207.313C131.742 208.813 134.009 211.813 136.409 211.813C139.742 212.146 146.609 212.813 147.409 212.813C148.409 212.813 164.909 212.313 166.909 209.813C169.576 208.313 174.709 205.013 173.909 203.813C172.909 202.313 172.409 190.813 172.409 190.313C172.409 189.813 179.409 181.813 178.909 179.813C178.409 177.813 175.409 164.313 175.409 160.813Z" fill="#713B2D" fill-opacity="0.6"/>
<path d="M276.409 156.813C268.243 160.146 244.309 165.613 213.909 160.813C225.743 161.646 254.809 162.013 276.409 156.813Z" fill="#522419" fill-opacity="0.8"/>
<path d="M133.909 124.813C135.509 124.413 137.076 123.479 138.409 122.313L138.909 120.813C132.909 124.313 124.409 124.313 120.909 123.313C120.218 123.115 118.076 121.813 116.909 120.813L117.409 122.813L118.409 123.813C118.409 124.313 131.909 125.313 133.909 124.813Z" fill="#743827" fill-opacity="0.8"/>
<path d="M49.9092 152.313C49.9092 151.813 57.4092 148.313 58.9092 145.813C60.092 143.841 82.748 137.821 94.4092 134.936C94.4092 136.56 71.9092 143.813 71.4092 145.313C70.9092 146.813 49.9092 152.813 49.9092 152.313Z" fill="#713B2D" fill-opacity="0.7"/>
<path d="M149.409 101.313C139.243 104.146 118.409 109.213 116.409 106.813C118.409 105.313 127.809 102.113 149.409 101.313Z" fill="#7E3F2E" fill-opacity="0.7"/>
<path d="M170.909 126.313C172.109 124.313 175.076 127.146 176.409 128.813C175.209 130.013 173.909 130.313 173.409 130.313C172.909 130.813 169.409 128.813 170.909 126.313Z" fill="#954F3D"/>
<path d="M238.909 21.8128C238.409 22.3128 235.409 18.3127 236.909 15.8127C237.597 14.6668 239.201 16.4137 240.409 17.3127C241.309 17.9827 245.796 18.426 244.409 19.8127C243.209 21.0127 239.409 21.8128 238.909 21.8128Z" fill="#954F3D"/>
<path d="M254.409 17.3127C253.909 15.3127 253.909 15.3127 255.409 12.8127C256.161 11.5596 257.606 11.7467 258.909 12.8127C259.685 13.448 259.609 16.1127 258.409 17.3127C257.209 18.5127 254.909 17.3127 254.409 17.3127Z" fill="#954F3D"/>
<path d="M226.909 22.5006C228.109 20.5006 231.076 23.334 232.409 25.0006C231.209 26.2006 229.909 26.5006 229.409 26.5006C228.909 27.0006 225.409 25.0006 226.909 22.5006Z" fill="#954F3D"/>
<path d="M277.409 21.8128C276.909 24.3127 279.409 26.3128 279.909 25.8128C280.409 25.8128 282.709 23.0128 283.909 21.8128L283.909 20.6934C284.305 19.2987 285.448 17.2482 283.909 16.8128C282.94 16.5385 278.507 14.6042 276.409 15.3127C274.669 15.9005 277.505 21.3346 277.409 21.8128Z" fill="#954F3D"/>
<path d="M263.409 26.5007C262.909 27.0007 263.409 25.3127 264.909 22.8127C265.545 21.7526 265.287 18.5505 266.409 19.3127C267.404 19.9885 269.909 25.3127 266.409 27.3127C264.909 29.8127 263.909 26.5007 263.409 26.5007Z" fill="#954F3D"/>
<path d="M290.409 31.5006C289.909 32.0006 285.801 29.1165 288.409 27.8127C291.409 26.3127 291.156 25.3362 292.409 26.3127C293.253 26.9702 292.873 29.3299 293.409 30.0006C292.209 31.2006 290.909 31.5006 290.409 31.5006Z" fill="#954F3D"/>
<path d="M177.409 140.313C177.409 138.811 179.153 141.313 180.409 142.764C181.318 143.814 178.25 142.764 177.909 142.764C177.569 143.079 177.409 141.813 177.409 140.313Z" fill="#954F3D"/>
<path d="M187.242 133.276C185.409 127.813 189.409 132.313 190.242 135.728C191.15 136.777 188.75 138.313 188.409 138.313C188.069 138.628 187.719 134.698 187.242 133.276Z" fill="#954F3D"/>
<path d="M302.743 83.1274C312.473 93.5723 292.728 85.1543 288.881 77.9707C284.684 75.7634 292.471 71.4332 299.381 75.4707C303.881 78.9707 297.938 77.9707 302.743 83.1274Z" fill="#954F3D"/>
<path d="M330.409 83.3127C324.909 83.3127 321.409 82.8128 319.409 79.3127C316.409 79.3127 321.909 76.3126 327.409 76.3126C331.909 79.8126 337.457 83.3128 330.409 83.3127Z" fill="#954F3D"/>
<path d="M379.909 137.313C389.109 142.513 411.409 147.146 421.409 148.813C421.409 151.313 397.409 145.313 394.909 146.813C392.909 148.013 361.743 135.646 346.409 129.313C344.009 128.113 345.076 127.813 345.909 127.813C353.409 128.813 370.709 132.113 379.909 137.313Z" fill="#954F3D"/>
<path d="M245.409 23.8127C249.409 21.8127 256.076 27.3127 258.909 30.3127C257.409 39.3127 235.909 34.3127 236.909 30.3127C237.909 26.3127 240.409 26.3127 245.409 23.8127Z" fill="#954F3D"/>
<path d="M180.409 160.813C179.076 158.813 175.709 154.413 174.909 152.813" stroke="#954F3D" stroke-width="0.8"/>
<path d="M26.4092 123.215C27.2092 124.015 40.2425 113.049 46.4092 107.715C29.9092 106.215 13.5758 103.049 11.9092 101.715C21.4092 120.215 25.4092 122.215 26.4092 123.215Z" fill="#A58027" stroke="#864838" stroke-width="0.5"/>
<path d="M324.909 128.215C327.309 127.015 330.909 117.549 330.909 115.215C323.909 127.215 315.409 132.215 315.909 132.215C316.309 132.215 322.076 129.549 324.909 128.215Z" fill="#954F3D"/>
</svg>
