<svg width="501" height="251" viewBox="0 0 501 251" fill="none" xmlns="http://www.w3.org/2000/svg">
<path d="M37.9684 20.5731L37.703 19.2451L37.1311 19.0882C36.8859 20.0251 37.5871 20.4685 37.9684 20.5731Z" fill="#CCB879"/>
<path d="M34.8436 18.4607L36.5592 18.9313L37.2433 21.0017C36.6632 21.3446 35.4018 19.4506 34.8436 18.4607Z" fill="#CCB879"/>
<path d="M32.4028 18.4186L33.6998 18.1469L35.0679 22.2876C33.6954 21.911 32.7193 19.5514 32.4028 18.4186Z" fill="#CCB879"/>
<path d="M31.1058 18.6904L29.8088 18.9621C30.4181 19.7568 31.751 21.3776 32.2085 21.5031C32.666 21.6286 32.8826 21.2697 32.9336 21.0745L31.1058 18.6904Z" fill="#CCB879"/>
<path d="M30.1864 22.2035C29.8515 21.6096 28.5492 19.8717 27.9399 19.077L26.0711 19.1918C26.1608 20.7226 28.7499 22.2278 30.0332 22.789C30.2238 22.8413 30.5213 22.7974 30.1864 22.2035Z" fill="#CCB879"/>
<path d="M23.7425 18.9313L24.7741 19.4636C24.9136 19.711 25.1621 20.3231 25.0395 20.7915C24.9169 21.2599 24.0216 19.4263 23.7425 18.9313Z" fill="#CCB879"/>
<path d="M37.9684 20.5731L37.703 19.2451L37.1311 19.0882C36.8859 20.0251 37.5871 20.4685 37.9684 20.5731Z" stroke="#CCB879" stroke-width="0.1"/>
<path d="M34.8436 18.4607L36.5592 18.9313L37.2433 21.0017C36.6632 21.3446 35.4018 19.4506 34.8436 18.4607Z" stroke="#CCB879" stroke-width="0.1"/>
<path d="M32.4028 18.4186L33.6998 18.1469L35.0679 22.2876C33.6954 21.911 32.7193 19.5514 32.4028 18.4186Z" stroke="#CCB879" stroke-width="0.1"/>
<path d="M31.1058 18.6904L29.8088 18.9621C30.4181 19.7568 31.751 21.3776 32.2085 21.5031C32.666 21.6286 32.8826 21.2697 32.9336 21.0745L31.1058 18.6904Z" stroke="#CCB879" stroke-width="0.1"/>
<path d="M30.1864 22.2035C29.8515 21.6096 28.5492 19.8717 27.9399 19.077L26.0711 19.1918C26.1608 20.7226 28.7499 22.2278 30.0332 22.789C30.2238 22.8413 30.5213 22.7974 30.1864 22.2035Z" stroke="#CCB879" stroke-width="0.1"/>
<path d="M23.7425 18.9313L24.7741 19.4636C24.9136 19.711 25.1621 20.3231 25.0395 20.7915C24.9169 21.2599 24.0216 19.4263 23.7425 18.9313Z" stroke="#CCB879" stroke-width="0.1"/>
<path d="M22.5589 18.7171H20.7827C21.73 19.5151 22.7563 19.7146 23.151 19.7146L22.5589 18.7171Z" fill="#CCB879"/>
<path d="M20.1907 20.2134L19.5986 19.2158H20.7827C21.2564 19.2158 20.5854 19.8809 20.1907 20.2134Z" fill="#CCB879"/>
<path d="M19.0066 20.2134C18.5329 20.6125 18.0198 19.7146 17.8225 19.2158H18.4145L19.0066 20.2134Z" fill="#CCB879"/>
<path d="M17.2304 20.2134L15.8257 19.2158H16.6384L17.2304 20.2134Z" fill="#CCB879"/>
<path d="M14.8622 20.2134C14.3886 20.2134 14.1087 19.3821 14.1087 19.2158H14.8622V20.2134Z" fill="#CCB879"/>
<path d="M12.494 20.2134L11.9019 19.7146L12.494 19.2158V20.2134Z" fill="#CCB879"/>
<path d="M10.7178 20.2134L10.1258 19.7146H10.7178V20.2134Z" fill="#CCB879"/>
<path d="M8.94166 20.2134C8.94166 19.8144 8.54696 19.7146 8.34961 19.7146H8.94166V20.2134Z" fill="#CCB879"/>
<path d="M23.151 18.7171L23.743 18.2183M20.7827 18.7171H22.5589L23.151 19.7146C22.7563 19.7146 21.73 19.5151 20.7827 18.7171ZM19.5986 19.2158L20.1907 20.2134C20.5854 19.8809 21.2564 19.2158 20.7827 19.2158C20.3091 19.2158 19.796 19.2158 19.5986 19.2158ZM17.8225 19.2158C18.0198 19.7146 18.5329 20.6125 19.0066 20.2134L18.4145 19.2158H17.8225ZM15.8257 19.2158L17.2304 20.2134L16.6384 19.2158H15.8257ZM14.1087 19.2158C14.1087 19.3821 14.3886 20.2134 14.8622 20.2134V19.2158H14.1087ZM11.9019 19.7146L12.494 20.2134V19.2158L11.9019 19.7146ZM10.1258 19.7146L10.7178 20.2134V19.7146H10.1258ZM8.34961 19.7146C8.54696 19.7146 8.94166 19.8144 8.94166 20.2134C8.94166 20.6125 8.94166 20.0472 8.94166 19.7146H8.34961Z" stroke="#CCB879" stroke-width="0.1"/>
<path d="M111.367 157.638C111.367 148.546 119.064 139.857 124.392 132.785C127.234 134.725 136.628 137.231 140.969 138.241C139.075 142.605 137.417 155.82 136.825 161.882C135.049 178.248 149.85 180.067 161.099 183.704C162.875 192.797 152.218 209.163 152.218 208.557C152.218 208.072 145.509 202.697 142.154 200.071C146.89 190.372 144.917 183.098 143.338 180.673C116.34 163.215 110.775 158.043 111.367 157.638Z" fill="#9C4316" fill-opacity="0.9" stroke="#9C4316" stroke-opacity="0.9" stroke-width="0.3"/>
<path d="M147.483 120.056C121.432 110.357 105.447 104.901 100.118 105.507C96.8029 106.477 97.1582 111.973 97.7502 114.6C102.487 117.025 101.895 121.874 102.487 122.48C120.84 132.785 141.562 138.847 140.97 138.241C140.378 137.635 148.039 120.263 147.483 120.056Z" fill="#FBAD7F" stroke="black" stroke-width="0.3"/>
<path d="M4.79725 3.6701C11.9019 1.85158 29.0714 6.70097 32.0317 3.6701C34.992 0.639231 56.3059 -2.39166 71.1073 7.91331C82.9484 16.1573 88.8689 30.948 87.6848 39.4344C87.4875 47.1126 87.8032 62.7115 90.6451 63.6814C94.1974 64.8937 115.781 59.7807 131.497 63.6814C151.035 68.5308 160.507 71.5616 204.912 85.5036C261.157 84.2913 375.186 82.594 381.344 85.5036C389.04 89.1407 484.953 93.3839 487.914 92.1716C490.282 91.2017 497.189 88.9386 500.347 87.9283C498.176 91.5654 492.65 98.8395 487.914 98.8395C481.993 98.8395 360.622 102.477 357.662 105.507C354.701 108.538 222.081 124.905 218.529 130.361C215.687 134.725 204.122 134.806 200.767 137.635C194.255 138.443 184.782 146.242 182.413 144.303C180.045 142.363 179.848 157.638 180.045 165.519C181.624 170.772 185.019 183.219 185.966 190.978C188.531 195.423 193.426 206.981 192.478 217.65C192.281 216.639 191.768 214.619 191.294 214.619C190.702 214.619 184.19 211.588 177.677 209.163C174.125 201.485 165.836 185.765 161.1 184.31C161.1 180.673 136.825 183.098 136.825 163.7C136.825 148.182 143.93 128.138 147.482 120.056C133.076 114.6 103.433 104.053 100.118 105.507C96.8024 106.962 97.1577 112.175 97.7497 114.6C100.315 116.216 104.381 120.904 100.118 126.724C94.7895 133.998 81.1722 147.333 79.9881 150.97C78.2119 152.183 75.0148 155.335 76.4358 158.245C77.8567 161.154 78.2119 169.156 78.2119 172.793C77.4225 176.228 78.2119 181.279 79.396 184.31C79.5606 184.731 79.396 186.129 78.2119 184.31C77.1734 182.715 76.638 175.025 75.8437 173.399C75.2517 172.187 74.6596 172.591 73.4755 172.793C73.4755 176.228 73.7123 183.34 74.6596 184.31C75.8437 185.522 75.2517 186.735 75.8437 187.341C76.3174 187.826 76.4358 189.361 76.4358 190.372C73.8702 187.947 72.2914 183.704 71.6993 181.885C71.502 178.45 70.6336 171.58 71.1073 171.58C71.6993 171.58 69.3311 170.368 69.3311 170.974C69.3311 171.58 68.147 181.885 68.7391 182.492C69.2127 182.976 69.7258 184.31 70.5152 185.522C70.6851 186.218 71.0011 187.961 71.4634 188.82C71.671 189.098 71.768 189.23 71.6993 189.159C71.6169 189.075 71.5382 188.959 71.4634 188.82C70.4044 187.404 66.4679 182.193 66.9629 180.673C67.1603 176.43 67.6734 167.943 68.147 167.943C68.7391 167.943 69.3311 154.608 70.5152 154.608C74.0676 146.727 82.1195 129.876 85.9086 125.511C89.6978 121.147 87.0928 116.014 85.3166 113.994C81.9616 112.579 75.4885 108.902 76.4358 105.507C77.6199 101.264 55.1218 73.3802 55.1218 58.832C49.9907 53.5785 38.1891 43.3139 32.0317 44.2838C24.335 45.4962 9.53359 44.2838 7.16542 44.2838C5.27089 44.2838 5.58663 38.6262 5.98131 35.7974C16.4409 35.1912 38.8995 32.8877 45.0569 28.5233C51.2143 24.1588 44.8595 21.0471 40.9125 20.0368C34.7855 20.0368 25.0182 19.2548 17.2303 19.4307C9.21496 19.6116 3.26127 20.7573 3.02104 21.2492C2.5474 22.2191 1.54739 19.6725 1.10659 18.2779C-0.00348446 13.6627 -0.662744 5.06766 4.79725 3.6701Z" fill="#E67A3A"/>
<path d="M305.561 104.295C278.785 107.871 229.58 116.216 207.279 115.812C196.943 115.812 197.052 118.641 198.399 120.055C201.359 122.48 209.174 127.208 216.752 126.723C226.225 126.117 356.477 104.295 367.134 101.264C375.66 98.8394 398.316 98.6373 408.578 98.8394C406.999 98.0311 403.131 96.4147 400.289 96.4147H383.12C367.726 94.7982 346.412 98.8394 305.561 104.295Z" fill="#B14D1B"/>
<path d="M77.0278 107.932C77.4225 110.155 77.6197 116.176 75.2515 117.631C72.2912 119.449 49.2011 135.816 50.9772 137.028C49.2009 137.028 46.2408 144.909 45.6488 145.515C45.3214 145.85 45.598 151.654 46.0773 157.032M87.0927 123.086C76.2384 127.532 55.1218 137.271 57.49 140.666C59.8582 144.06 58.8714 149.152 58.082 151.577C58.082 153.062 58.348 155.72 58.6741 158.245C59.1907 162.244 59.2661 161.275 59.2661 161.275C58.6741 160.063 59.1293 163.137 57.3161 158.625C56.0225 155.407 55.1213 152.288 56.0741 151.67C55.1646 152.043 53.3456 152.668 53.3456 152.183C53.3456 151.577 52.1614 155.82 52.7535 157.032C52.9694 157.474 52.2375 158.319 52.7535 160.063M52.7535 160.063C51.7668 159.053 53.9377 166.731 53.3456 165.519C53.0588 164.931 52.4163 163.548 51.5694 161.275C50.0705 157.254 48.4938 152.132 50.3853 150.971C50.8189 150.704 48.1354 150.486 48.6091 150.971C48.9365 151.306 48.237 153.344 48.017 157.032C47.8392 160.015 49.2012 161.882 49.2012 163.094C49.2012 165.011 49.7932 165.519 48.6091 163.7M52.7535 160.063C51.5694 157.436 52.2799 160.063 52.7535 160.063ZM48.6091 163.7C48.1687 163.024 46.4647 161.38 46.0773 157.032M48.6091 163.7L46.0773 157.032" stroke="black" stroke-width="0.3"/>
<path d="M42.6892 10.338C41.7419 8.88321 44.4654 9.12568 46.8336 7.91333C49.2018 8.5195 48.3729 11.5504 47.4256 11.5504C46.2415 11.5504 43.8733 12.1566 42.6892 10.338Z" fill="black" stroke="black"/>
<path d="M101.895 122.48C113.538 127.936 137.655 138.726 140.97 138.241" stroke="black" stroke-width="0.3"/>
<path d="M178.356 236.574C178.28 236.442 178.2 236.33 178.122 236.241C172.657 234.957 171.109 229.859 171.018 227.471C170.791 224.937 174.617 225.279 176.484 225.975C176.959 226.623 178.442 228.4 178.087 229.399C177.733 230.397 179.423 232.251 180.313 233.054L180.92 232.338C184.695 224.891 180.861 214.655 178.472 210.468L177.449 209.38C181.752 210.827 190.516 213.873 191.144 214.484C191.93 215.247 192.51 217.583 192.674 218.115C192.837 218.647 189.822 228.12 189.468 230.107C189.114 232.095 193.265 235.29 193.888 235.522C194.386 235.708 193.74 235.938 193.355 236.03C192.125 236.514 189.456 234.106 189.145 233.99C188.896 233.897 188.538 234.706 188.39 235.122C188.888 235.307 189.666 237.481 189.993 238.545C189.048 242.196 185.787 241.452 184.854 241.104C184.107 240.825 183.476 242.004 183.254 242.627C179.049 245.534 173.862 245.25 173.551 245.134C173.302 245.041 167.686 242.791 164.909 241.678C163.992 240.589 164.565 240.015 165.4 239.742M178.356 236.574C178.774 237.296 179.056 238.604 177.874 239.916C176.709 241.209 172.85 242.942 166.73 239.531C166.328 239.541 165.83 239.602 165.4 239.742M178.356 236.574C178.151 238.142 176.95 241.126 173.784 240.511C169.827 239.743 166.24 237.935 165.617 237.703C164.116 237.301 160.718 237.008 159.143 239.058C158.936 238.981 158.63 238.914 159.069 239.266C159.618 239.706 160.684 238.691 161.929 239.155C163.077 239.19 165.379 239.357 165.4 239.742" stroke="#C5520E" stroke-width="0.3"/>
<path d="M181.465 246.67C183.955 247.598 185.898 243.455 186.558 241.268C186.301 241.329 185.6 241.382 184.853 241.104C184.106 240.825 183.476 242.003 183.254 242.627C181.726 243.753 178.519 244.709 177.107 245.046L181.465 246.67Z" fill="#C5520E"/>
<path d="M166.593 217.109C177.609 221.025 177.362 224.497 175.861 225.743C177.107 226.207 177.854 227.742 178.071 228.451C177.919 230.466 178.82 231.634 179.289 231.966C184.335 226.499 178.411 220.885 174.819 218.761C170.445 216.189 166.504 216.369 166.193 216.253C165.881 216.137 165.2 217.061 165.586 216.969C165.894 216.895 166.386 217.032 166.593 217.109Z" fill="#C5520E"/>
<path d="M181.465 246.67C183.955 247.598 185.898 243.455 186.558 241.268C186.301 241.329 185.6 241.382 184.853 241.104C184.106 240.825 183.476 242.003 183.254 242.627C181.726 243.753 178.519 244.709 177.107 245.046L181.465 246.67Z" stroke="#C5520E" stroke-width="0.3"/>
<path d="M166.593 217.109C177.609 221.025 177.362 224.497 175.861 225.743C177.107 226.207 177.854 227.742 178.071 228.451C177.919 230.466 178.82 231.634 179.289 231.966C184.335 226.499 178.411 220.885 174.819 218.761C170.445 216.189 166.504 216.369 166.193 216.253C165.881 216.137 165.2 217.061 165.586 216.969C165.894 216.895 166.386 217.032 166.593 217.109Z" stroke="#C5520E" stroke-width="0.3"/>
<path d="M191.294 214.619L177.677 209.163C185.966 221.893 181.23 232.198 180.638 232.804C180.164 233.289 180.045 233.006 180.045 232.804C178.151 231.349 178.072 229.773 178.269 229.167C178.269 227.712 177.085 226.54 176.493 226.136C174.125 224.681 171.954 225.53 171.165 226.136C170.691 232.925 175.704 235.835 178.269 236.441C180.638 243.715 168.204 241.29 166.428 239.472C163.586 239.957 164.455 241.29 165.244 241.897C167.415 242.705 171.993 244.443 172.941 244.927C173.888 245.412 176.493 245.13 177.677 244.927C180.993 244.443 183.006 242.705 183.598 241.897C184.071 240.442 184.979 240.886 185.374 241.29C188.216 241.775 189.716 239.876 190.11 238.866C190.11 237.896 188.926 236.037 188.334 235.229L188.926 234.016L191.886 235.835C192.36 236.32 193.663 236.037 194.255 235.835C189.992 233.41 189.321 230.783 189.518 229.773L192.478 218.862C192.952 218.377 191.886 215.831 191.294 214.619Z" fill="#C5520E" stroke="#C5520E" stroke-width="0.1"/>
<path d="M138.506 221.418C138.465 221.304 138.418 221.206 138.371 221.125C134.31 219.373 133.807 215.185 134.063 213.31C134.233 211.303 137.151 212.096 138.504 212.895C138.783 213.466 139.69 215.056 139.278 215.785C138.867 216.515 139.924 218.193 140.504 218.941L141.072 218.467C145.016 213.178 143.443 204.669 142.164 201.076L141.519 200.087C144.657 201.807 150.038 206.782 150.442 207.345C150.947 208.048 152.071 208.554 152.125 208.991C152.179 209.428 148.548 216.401 148.002 217.902C147.456 219.403 150.237 222.466 150.688 222.732C151.048 222.945 150.516 223.036 150.205 223.055C149.186 223.263 147.446 221.019 147.221 220.886C147.041 220.779 146.653 221.36 146.481 221.664C146.842 221.877 147.148 223.68 147.256 224.554C146.025 227.271 143.599 226.243 142.923 225.843C142.382 225.523 141.733 226.355 141.475 226.811C137.818 228.5 133.838 227.565 133.612 227.432C133.432 227.325 129.387 224.799 127.387 223.549C126.825 222.574 127.347 222.205 128.032 222.107M138.506 221.418C138.731 222.038 138.771 223.096 137.676 223.957C136.596 224.805 133.369 225.626 129.092 222.125C128.779 222.078 128.384 222.057 128.032 222.107M138.506 221.418C138.133 222.612 136.794 224.773 134.425 223.859C131.463 222.716 128.93 220.814 128.479 220.547C127.37 220.027 124.777 219.331 123.276 220.714C123.126 220.625 123.954 220.68 124.392 220.68C124.984 220.68 124.748 220.333 125.65 220.866C126.535 221.051 128.068 221.804 128.032 222.107" stroke="#C5520E" stroke-width="0.3"/>
<path d="M139.536 229.718C141.339 230.784 143.411 227.82 144.221 226.205C144.014 226.218 143.464 226.163 142.923 225.843C142.382 225.523 141.732 226.355 141.475 226.811C140.137 227.479 137.521 227.784 136.38 227.852L139.536 229.718Z" stroke="black" stroke-width="0.3"/>
<path d="M132.049 204.622C140.052 209.19 139.386 211.863 138.053 212.629C138.954 213.162 139.324 214.461 139.395 215.044C139.002 216.595 139.541 217.629 139.859 217.952C144.517 214.383 140.693 209.191 138.198 207.041C135.16 204.435 132.081 204.033 131.856 203.9C131.63 203.766 130.976 204.393 131.288 204.374C131.536 204.359 131.899 204.533 132.049 204.622Z" stroke="black" stroke-width="0.3"/>
<path d="M148.074 218.256L152.219 208.557L142.154 200.071C145.469 212.679 142.351 217.852 140.378 218.862L139.194 216.437C139.667 214.982 138.996 213.406 138.602 212.8C137.181 211.83 135.247 211.992 134.457 212.194C133.036 217.528 136.628 220.478 138.602 221.287C138.602 227.348 131.497 223.711 129.129 222.499L129.129 222.499C127.234 221.529 127.155 222.903 127.353 223.711L133.273 227.348C135.641 228.318 139.786 227.348 141.562 226.742C142.509 225.287 143.141 225.732 143.338 226.136C146.18 226.621 146.89 225.53 146.89 224.924C147.364 223.469 146.693 222.297 146.298 221.893C147.246 220.438 147.482 220.883 147.482 221.287L149.851 223.105H151.035C148.193 220.68 147.877 218.862 148.074 218.256Z" fill="#C5520E" stroke="#C5520E" stroke-width="0.1"/>
<path d="M169.98 157.638C169.033 140.665 183.4 124.703 190.702 118.843C194.965 118.358 199.188 122.682 200.767 124.905C200.293 130.724 187.939 139.857 181.821 143.696C179.453 145.636 179.65 159.053 180.045 165.519L183.597 181.279C182.176 183.219 183.005 193.403 183.597 198.252C179.453 191.786 170.927 174.611 169.98 157.638Z" fill="#F7AE8B"/>
<path d="M133.865 91.5654C117.287 84.8975 94.1973 87.3222 88.2768 89.7469C81.7641 90.9592 82.3564 97.6272 82.9485 100.658C83.4272 103.109 83.5405 106.72 85.9088 108.538C88.277 110.357 88.8689 126.724 88.2769 127.936C87.7474 129.02 79.3961 143.09 80.5802 143.09C81.7643 143.09 98.3419 124.905 97.7499 121.268C97.337 118.731 91.8294 106.72 95.3817 103.689C98.2235 101.264 136.825 110.357 140.97 110.357C145.706 110.357 144.522 110.357 159.323 109.751C171.302 109.26 173.533 107.326 176.493 114.6C176.857 115.495 168.994 130.765 164.652 138.847C162.876 138.847 164.652 153.395 164.652 152.183C164.652 150.971 173.533 135.816 174.125 134.604C174.125 132.785 184.782 112.782 186.558 114.6C188.334 116.419 255.236 110.963 259.381 112.782C262.696 114.236 269.446 109.347 272.406 106.72L259.381 105.507C254.644 109.144 177.085 95.2025 175.309 96.4148C173.888 97.3847 144.522 96.4148 133.865 91.5654Z" fill="#DF8853"/>
<path d="M42.0971 4.88237C39.7289 5.36731 35.1898 4.27619 33.2163 3.67002C55.0039 -4.08901 71.5025 6.90295 77.0283 13.3688C73.476 11.5503 66.0161 8.15571 64.5952 9.12559C62.819 10.3379 45.0574 4.27619 42.0971 4.88237Z" fill="#CD6A40"/>
<path d="M42.0971 4.88237C39.7289 5.36731 35.1898 4.27619 33.2163 3.67002C55.0039 -4.08901 71.5025 6.90295 77.0283 13.3688C73.476 11.5503 66.0161 8.15571 64.5952 9.12559C62.819 10.3379 45.0574 4.27619 42.0971 4.88237Z" fill="url(#paint0_linear)"/>
<path d="M75.8434 20.643C77.7379 20.643 79.3957 17.8142 79.9877 16.3998C80.7771 17.4101 82.356 19.5519 82.356 20.0368C82.356 20.5218 79.1983 21.4512 77.6195 21.8553C76.2381 21.4512 73.9488 20.643 75.8434 20.643Z" fill="#B14D1B"/>
<path d="M78.8036 29.7356C79.2773 30.2206 83.3427 27.513 85.3162 26.0986C85.7109 27.1089 86.5003 29.2507 86.5003 29.7356C86.5003 30.2206 81.3692 30.3418 78.8036 30.3418C78.6063 29.9377 78.33 29.2507 78.8036 29.7356Z" fill="#B14D1B"/>
<path d="M78.2116 39.4344C79.1589 39.9193 84.9215 38.02 87.6845 37.0097V41.2529C87.6845 41.7379 81.7639 41.0509 78.8036 40.6468C78.2116 40.0406 77.2643 38.9495 78.2116 39.4344Z" fill="#B14D1B"/>
<path d="M80.5798 55.1949C82.0007 55.1949 85.9083 53.5785 87.6845 52.7702C87.8818 53.7805 88.2765 55.9223 88.2765 56.4073C88.2765 56.8922 83.5401 56.6093 81.1719 56.4073C80.3824 56.0032 79.1589 55.1949 80.5798 55.1949Z" fill="#B14D1B"/>
<path d="M98.3414 67.3184C98.8151 66.8335 98.1441 64.6917 97.7494 63.6814L100.118 63.0752C101.065 65.4999 99.3282 67.3184 98.3414 67.9246C98.1441 67.9246 97.8678 67.8034 98.3414 67.3184Z" fill="#B14D1B"/>
<path d="M107.222 69.7431C107.696 68.7732 107.025 64.8937 106.63 63.0752V62.469H107.814C108.012 63.8834 108.406 66.9547 108.406 67.9246C108.406 68.8945 107.617 69.9452 107.222 70.3493C107.025 70.5514 106.749 70.713 107.222 69.7431Z" fill="#B14D1B"/>
<path d="M119.655 75.1987C120.247 72.774 120.247 66.5102 119.655 62.469H120.839C121.432 77.0172 119.063 77.0172 119.063 76.411C119.063 75.9261 119.458 75.4007 119.655 75.1987Z" fill="#B14D1B"/>
<path d="M151.626 88.5345C152.1 88.0496 152.613 75.4007 152.81 69.1369L154.587 69.7431L153.402 80.6543C152.218 91.5654 151.034 89.1407 151.626 88.5345Z" fill="#B14D1B"/>
<path d="M198.991 92.1716C199.464 91.6866 199.977 86.3119 200.175 83.6851L201.359 84.2913C199.583 94.5963 198.399 92.7777 198.991 92.1716Z" fill="#B14D1B"/>
<path d="M241.623 92.1715C242.564 92.1574 242.013 87.3186 241.619 84.8975H243.395C243.592 84.4934 243.868 84.5338 243.395 87.9284C242.923 91.3111 242.02 92.1656 241.623 92.1715Z" fill="#B14D1B"/>
<path d="M276.55 96.4148C278.444 95.9299 277.339 88.1304 276.55 84.2913H280.102C279.155 95.9299 277.339 97.223 276.55 96.4148Z" fill="#B14D1B"/>
<path d="M335.163 93.9901C336.11 93.9901 336.347 87.5242 336.347 84.2913L337.531 83.6851C337.531 84.6954 337.413 87.4434 336.939 90.3531C336.466 93.2627 335.558 93.9901 335.163 93.9901Z" fill="#B14D1B"/>
<path d="M394.961 91.5654C395.434 91.5654 394.763 89.1407 394.369 87.9284H395.553V90.3531C395.553 91.8079 395.158 91.7675 394.961 91.5654Z" fill="#B14D1B"/>
<path d="M75.8434 20.643C77.7379 20.643 79.3957 17.8142 79.9877 16.3998C80.7771 17.4101 82.356 19.5519 82.356 20.0368C82.356 20.5218 79.1983 21.4512 77.6195 21.8553C76.2381 21.4512 73.9488 20.643 75.8434 20.643Z" stroke="black"/>
<path d="M78.8036 29.7356C79.2773 30.2206 83.3427 27.513 85.3162 26.0986C85.7109 27.1089 86.5003 29.2507 86.5003 29.7356C86.5003 30.2206 81.3692 30.3418 78.8036 30.3418C78.6063 29.9377 78.33 29.2507 78.8036 29.7356Z" stroke="black"/>
<path d="M78.2116 39.4344C79.1589 39.9193 84.9215 38.02 87.6845 37.0097V41.2529C87.6845 41.7379 81.7639 41.0509 78.8036 40.6468C78.2116 40.0406 77.2643 38.9495 78.2116 39.4344Z" stroke="black"/>
<path d="M80.5798 55.1949C82.0007 55.1949 85.9083 53.5785 87.6845 52.7702C87.8818 53.7805 88.2765 55.9223 88.2765 56.4073C88.2765 56.8922 83.5401 56.6093 81.1719 56.4073C80.3824 56.0032 79.1589 55.1949 80.5798 55.1949Z" stroke="black"/>
<path d="M98.3414 67.3184C98.8151 66.8335 98.1441 64.6917 97.7494 63.6814L100.118 63.0752C101.065 65.4999 99.3282 67.3184 98.3414 67.9246C98.1441 67.9246 97.8678 67.8034 98.3414 67.3184Z" stroke="black"/>
<path d="M107.222 69.7431C107.696 68.7732 107.025 64.8937 106.63 63.0752V62.469H107.814C108.012 63.8834 108.406 66.9547 108.406 67.9246C108.406 68.8945 107.617 69.9452 107.222 70.3493C107.025 70.5514 106.749 70.713 107.222 69.7431Z" stroke="black"/>
<path d="M119.655 75.1987C120.247 72.774 120.247 66.5102 119.655 62.469H120.839C121.432 77.0172 119.063 77.0172 119.063 76.411C119.063 75.9261 119.458 75.4007 119.655 75.1987Z" stroke="black"/>
<path d="M151.626 88.5345C152.1 88.0496 152.613 75.4007 152.81 69.1369L154.587 69.7431L153.402 80.6543C152.218 91.5654 151.034 89.1407 151.626 88.5345Z" stroke="black"/>
<path d="M198.991 92.1716C199.464 91.6866 199.977 86.3119 200.175 83.6851L201.359 84.2913C199.583 94.5963 198.399 92.7777 198.991 92.1716Z" stroke="black"/>
<path d="M241.623 92.1715C242.564 92.1574 242.013 87.3186 241.619 84.8975H243.395C243.592 84.4934 243.868 84.5338 243.395 87.9284C242.923 91.3111 242.02 92.1656 241.623 92.1715Z" stroke="black"/>
<path d="M276.55 96.4148C278.444 95.9299 277.339 88.1304 276.55 84.2913H280.102C279.155 95.9299 277.339 97.223 276.55 96.4148Z" stroke="black"/>
<path d="M335.163 93.9901C336.11 93.9901 336.347 87.5242 336.347 84.2913L337.531 83.6851C337.531 84.6954 337.413 87.4434 336.939 90.3531C336.466 93.2627 335.558 93.9901 335.163 93.9901Z" stroke="black"/>
<path d="M394.961 91.5654C395.434 91.5654 394.763 89.1407 394.369 87.9284H395.553V90.3531C395.553 91.8079 395.158 91.7675 394.961 91.5654Z" stroke="black"/>
<path d="M458.58 94.3538C455.583 96.0326 424.779 95.7884 409.751 95.4564C411.238 96.6037 414.448 98.9195 415.391 99.0041C416.571 99.1097 437.524 97.3356 445.832 97.4714C452.48 97.58 457.1 95.4383 458.58 94.3538Z" fill="#F7AE8B"/>
<path d="M3.0208 9.12572C2.54716 9.12572 2.82345 7.10514 3.0208 6.09485L4.20501 6.09487C4.67866 6.09487 3.81031 8.11545 3.61296 9.12574C2.82352 9.12574 3.49444 9.12572 3.0208 9.12572Z" fill="black" stroke="black" stroke-width="0.1"/>
<path d="M13.6782 35.1912C22.4504 34.6299 39.3458 31.4695 41.3272 30.5236L41.5048 30.3418C41.5486 30.3866 41.4855 30.4481 41.3272 30.5236L41.2087 30.6449L40.9127 30.948C36.571 32.7665 25.0457 36.1611 13.6782 35.1912Z" fill="#ED0D0D" stroke="#ED0D0D" stroke-width="0.1"/>
<path d="M75.2521 117.631C77.6203 115.691 77.4229 110.761 77.0282 108.538C80.3437 111.933 83.9355 113.59 85.3171 113.994C88.6326 118.843 87.8826 122.076 87.0932 123.087C74.6601 127.936 56.8984 137.029 57.4905 140.059C57.7532 141.404 58.6746 143.292 58.6746 144.303C59.2667 146.727 58.5562 151.577 58.0826 151.577C57.6089 151.577 58.6746 155.012 58.6746 157.638C58.0826 157.638 57.4905 157.638 56.8984 158.245C56.8984 157.032 55.4901 152.936 55.1223 152.183C54.9821 151.896 53.9382 152.183 53.3461 152.183C52.8725 152.183 52.7541 157.841 52.7541 160.669C52.2804 160.184 51.7673 160.871 51.57 161.275L50.3858 157.638C49.9122 157.154 49.2017 152.183 50.3858 150.971C49.4386 150.486 48.807 150.768 48.6097 150.971C48.6097 152.789 48.0176 157.032 48.0176 157.638C48.0176 158.123 48.4123 159.861 48.6097 160.669H46.8335L46.2415 157.032C45.7678 156.547 45.6494 149.152 45.6494 145.515C48.4913 139.696 50.3858 137.029 50.9778 137.029C50.3858 134.604 72.2918 120.056 75.2521 117.631Z" fill="#A7562E" stroke="black" stroke-width="0.1"/>
<path d="M175.901 225.53C178.269 226.985 178.466 228.965 178.269 229.773C178.743 231.713 179.256 231.794 179.453 231.592C185.966 224.318 172.348 215.225 165.836 216.437C165.37 216.524 165.639 216.841 165.836 217.044C177.203 220.923 177.282 224.318 175.901 225.53Z" fill="black" stroke="black" stroke-width="0.1"/>
<path d="M180.045 227.348C180.045 225.409 178.141 222.034 176.493 220.681C179.453 222.499 181.23 226.136 181.23 226.742C181.23 227.227 180.243 227.551 180.045 227.348Z" fill="white" stroke="black" stroke-width="0.1"/>
<path d="M168.204 240.078L168.796 238.866C162.283 235.835 159.915 238.259 159.323 238.866L159.323 238.866C158.849 239.351 159.126 239.472 159.323 239.472C159.915 238.26 164.652 239.472 165.244 239.472H165.836C167.257 239.472 168.007 239.876 168.204 240.078Z" fill="black" stroke="black" stroke-width="0.1"/>
<path d="M167.613 240.078C167.139 239.593 168.205 239.068 168.797 238.866C175.901 242.745 178.072 239.27 178.27 237.047C179.454 241.29 174.323 241.695 171.757 241.29C170.573 241.088 168.086 240.563 167.613 240.078Z" fill="#C5520E" stroke="black" stroke-width="0.1"/>
<path d="M156.363 240.078C157.784 238.138 163.27 238.866 165.836 239.472C163.652 240.366 164.321 241.329 165.057 241.791C165.119 241.825 165.182 241.86 165.244 241.897C165.182 241.865 165.119 241.83 165.057 241.791C161.78 239.984 157.912 240.696 156.363 241.29C155.771 241.695 154.942 242.018 156.363 240.078Z" fill="black" stroke="black" stroke-width="0.1"/>
<path d="M165.553 238.095C164.535 237.478 161.736 237.323 161.1 238.866C161.736 238.095 164.917 238.866 165.553 238.866C166.19 238.866 165.553 238.095 165.553 238.095Z" fill="white"/>
<path d="M138.601 212.8C140.377 209.163 135.246 206.132 131.497 204.314C130.549 204.799 131.102 204.112 131.497 203.708C135.286 204.193 138.996 207.547 140.377 209.163C143.219 214.498 141.167 217.043 139.785 217.65L139.193 216.437C140.141 214.498 139.193 213.204 138.601 212.8Z" fill="black" stroke="black" stroke-width="0.1"/>
<path d="M123.209 220.68C125.103 219.226 127.55 220.074 128.537 220.68L127.945 221.893L126.465 221.287L124.985 220.68C123.424 220.68 122.326 221.312 122.301 221.327C122.314 221.319 122.592 221.154 123.209 220.68Z" fill="black" stroke="black" stroke-width="0.1"/>
<path d="M124.116 222.696C126.011 221.241 128.458 222.09 129.445 222.696L128.853 223.908L127.373 223.302L125.892 222.696C124.332 222.696 123.234 223.328 123.209 223.342C123.221 223.335 123.499 223.17 124.116 222.696Z" fill="black" stroke="black" stroke-width="0.1"/>
<path d="M137.418 223.105C135.997 224.56 130.905 222.095 128.537 220.681L127.945 221.893C129.129 222.499 132.168 224.924 135.049 224.924C138.602 224.924 138.602 222.903 138.602 221.893L137.418 223.105Z" fill="#C5520E" stroke="#C5520E" stroke-width="0.1"/>
<path d="M151.627 223.105C149.851 223.711 148.469 222.499 148.075 221.893L149.259 220.681C149.732 221.65 151.035 223.105 151.627 223.105Z" fill="black" stroke="black" stroke-width="0.1"/>
<path d="M195.439 235.835C193.876 236.891 191.294 236.441 190.702 235.229L191.294 233.41C191.886 234.016 194.255 235.835 195.439 235.835Z" fill="black" stroke="black" stroke-width="0.1"/>
<path d="M140.97 229.773C140.496 230.258 137.615 228.763 136.233 227.955C141.562 227.348 141.562 226.742 142.154 226.136C142.628 225.651 143.535 225.934 143.93 226.136C144.522 227.955 141.562 229.167 140.97 229.773Z" fill="#C5520E" stroke="#C5520E" stroke-width="0.1"/>
<path d="M69.3315 186.129L70.5157 184.916C70.6822 186.11 71.0736 188.311 71.4764 188.969C71.5525 189.036 71.6272 189.1 71.6998 189.159C71.6258 189.159 71.5509 189.091 71.4764 188.969C70.5173 188.119 69.3315 186.69 69.3315 186.129Z" fill="black" stroke="black" stroke-width="0.1"/>
<path d="M72.8838 184.916H75.252C75.4268 186.169 76.3142 189.96 76.8437 190.808C76.9113 190.876 76.9731 190.933 77.0282 190.978C76.9741 190.978 76.9119 190.918 76.8437 190.808C75.699 189.664 72.8838 185.489 72.8838 184.916Z" fill="black" stroke="black" stroke-width="0.1"/>
<path d="M77.6201 182.492L78.8042 181.279C78.9791 182.533 79.8669 186.325 80.3964 187.172C80.4607 187.237 80.5223 187.293 80.5804 187.341C80.5265 187.341 80.4644 187.281 80.3964 187.172C79.368 186.138 77.6201 183.062 77.6201 182.492Z" fill="black" stroke="black" stroke-width="0.1"/>
<path d="M46.8335 160.669H48.6097C49.0937 162.652 49.4987 165.85 50.0186 166.951C50.1439 167.096 50.2668 167.226 50.3858 167.337C50.2563 167.337 50.1346 167.196 50.0186 166.951C48.5858 165.29 46.8335 161.625 46.8335 160.669Z" fill="black" stroke="black" stroke-width="0.1"/>
<path d="M50.9775 160.063H52.1616C52.2914 160.993 54.7391 167.758 55.108 167.94C55.1127 167.941 55.1173 167.942 55.1219 167.943C55.1177 167.943 55.113 167.942 55.108 167.94C53.5281 167.498 50.9775 160.466 50.9775 160.063Z" fill="black" stroke="black" stroke-width="0.1"/>
<path d="M58.6746 157.638C58.8521 158.91 59.7638 163.288 60.2901 164.156C60.3473 164.215 60.401 164.266 60.4508 164.306C60.4031 164.306 60.349 164.253 60.2901 164.156C59.212 163.04 56.8984 158.82 56.8984 158.245L58.0825 157.638H58.6746Z" fill="black" stroke="black" stroke-width="0.1"/>
<path d="M127.803 222.113C127.295 221.805 125.895 221.728 125.577 222.499C125.895 222.113 127.485 222.499 127.803 222.499C128.122 222.499 127.803 222.113 127.803 222.113Z" fill="white"/>
<path d="M140.129 209.401C139.737 208.259 136.505 205.369 135.049 206.132C136.021 205.96 139.194 209.163 139.645 209.992C140.097 210.821 140.129 209.401 140.129 209.401Z" fill="white"/>
<path d="M8.52453 36.7459C8.98391 35.5818 10.0619 33.3194 10.6987 33.5828L11.4946 33.9121L10.461 36.5313C11.0352 35.0762 12.571 32.1229 14.1202 31.9513L14.9162 32.2805L13.1935 36.646C14.0204 34.5506 15.9775 32.7196 16.8527 32.066C16.6586 33.3399 16.2016 36.0623 15.9259 36.7607C16.7528 34.6653 17.6486 32.3952 18.7891 31.8514L18.4446 32.7245C18.9396 32.2522 19.8607 31.4822 19.5851 32.1807C19.3154 32.8641 19.092 34.9278 19.0083 35.9372C19.0029 36.0023 20.3811 32.5099 21.1771 32.8392L20.8325 33.7123L21.973 33.1685L20.968 35.7153C21.4179 34.5753 22.5457 32.1866 23.4581 31.7515C24.5986 31.2077 23.2204 34.7001 24.0164 35.0293C23.2561 35.3919 21.5762 36.0512 20.9394 35.7878C20.6638 36.4862 19.5161 36.2317 18.9767 36.0172C18.4765 36.2968 17.2103 36.8146 15.9259 36.7607L13.1935 36.646L10.461 36.5313L8.52453 36.7459Z" fill="#C1A76B"/>
<path d="M26.5351 30.9931C25.6227 31.4282 25.0064 34.0847 24.8124 35.3586L27.2954 34.585C27.8466 33.188 27.7112 31.1411 27.6756 30.4493L26.5351 30.9931Z" fill="#C1A76B"/>
<path d="M30.0635 31.4371C29.7879 32.1356 29.3012 33.5658 29.0716 34.1478L27.8894 34.6002C27.438 33.3979 30.4081 30.564 30.0635 31.4371Z" fill="#C1A76B"/>
<path d="M30.6815 32.5815L30.0635 34.1478L32.3659 33.7123L31.8338 31.6437L30.6815 32.5815Z" fill="#C1A76B"/>
<path d="M47.4249 24.8862C46.004 33.6151 19.2036 35.7974 5.98109 35.7974C5.0338 42.5865 6.37579 44.2838 7.1652 44.2838C12.3753 45.2537 27.0977 44.6879 33.8076 44.2838C40.9123 45.2537 50.9772 54.3867 55.1216 58.832C55.5952 68.5308 67.16 88.3325 72.8832 97.021C74.0673 99.2436 76.7908 102.84 78.2117 99.4457C79.6326 96.0511 78.8038 87.5242 78.2117 83.6851C68.5415 60.4485 48.8458 16.1573 47.4249 24.8862Z" fill="#FBAD7F"/>
<defs>
<linearGradient id="paint0_linear" x1="55.1223" y1="1.00134" x2="55.1223" y2="13.3688" gradientUnits="userSpaceOnUse">
<stop stop-color="#B6502A"/>
<stop offset="1" stop-color="#DD6D2E" stop-opacity="0.56"/>
</linearGradient>
</defs>
</svg>
