<svg width="499" height="266" viewBox="0 0 499 266" fill="none" xmlns="http://www.w3.org/2000/svg">
<path d="M200.264 109.432C199.442 110.319 197.918 112.267 198.397 112.961C198.847 113.611 204.024 116.785 199.988 120.099C201.181 121.52 204.535 123.615 208.404 120.624L210.759 122.25C211.065 124.4 211.37 129.324 212.491 129.176C213.388 129.059 215.242 124.51 216.057 122.25C217.606 122.073 218.847 121.676 219.839 121.13C220.077 121.873 220.943 123.361 222.506 123.361L221.587 137.581C221.806 138.559 223.4 137.263 228.022 124.255C228.449 124.276 228.976 124.212 229.563 124.027C229.932 124.535 231.13 125.646 232.966 126.024C232.156 129.355 230.858 136.331 232.149 137.581C233.44 138.832 236.664 130.949 238.115 126.851C238.473 126.639 238.859 126.384 239.259 126.091L242.422 128.075C241.759 129.49 240.564 132.986 241.088 135.639C241.743 138.955 242.755 137.581 243.836 136.907C244.916 136.233 244.84 131.961 245.59 130.212C246.191 128.813 248.363 128.204 249.374 128.075C254.312 125.276 255.289 120.225 255.143 117.238C255.123 116.824 255.081 116.45 255.025 116.126C257.228 110.339 255.943 109.799 255.025 110.253C253.19 111.739 249.489 114.607 249.374 114.187C249.258 113.768 245.807 113.242 244.097 113.032C244.016 112.852 243.929 112.671 243.836 112.489C245.034 110.421 247.203 106.201 246.287 105.87C245.143 105.456 241.358 107.546 239.259 110.253H236.755C238.134 108.583 240.8 105.128 240.433 104.674C239.973 104.106 240.203 99.1671 235.261 103.092L233.763 104.106C233.783 104.291 233.795 104.48 233.799 104.674C233.87 108.12 229.193 109.68 223.179 110.253C220.097 110.547 216.664 110.581 213.338 110.477C208.129 110.314 203.183 109.811 200.264 109.432Z" fill="#F7EFA5"/>
<path d="M197.582 108.998C197.675 109.055 198.666 109.225 200.264 109.432M200.264 109.432C199.442 110.319 197.918 112.267 198.397 112.961C198.847 113.611 204.024 116.785 199.988 120.099C201.181 121.52 204.535 123.615 208.404 120.624M200.264 109.432C203.183 109.811 208.129 110.314 213.338 110.477M208.404 120.624C213.24 116.886 214.104 111.124 213.338 110.477M208.404 120.624L210.759 122.25C211.065 124.4 211.37 129.324 212.491 129.176C213.388 129.059 215.242 124.51 216.057 122.25C217.606 122.073 218.847 121.676 219.839 121.13M213.338 110.477C216.664 110.581 220.097 110.547 223.179 110.253M223.179 110.253C229.193 109.68 233.87 108.12 233.799 104.674C233.795 104.48 233.783 104.291 233.763 104.106L235.261 103.092C240.203 99.1671 239.973 104.106 240.433 104.674C240.8 105.128 238.134 108.583 236.755 110.253M223.179 110.253C223.359 111.17 225.081 118.242 219.839 121.13M219.839 121.13C220.077 121.873 220.943 123.361 222.506 123.361L221.587 137.581C221.806 138.559 223.4 137.263 228.022 124.255C228.449 124.276 228.976 124.212 229.563 124.027M236.755 110.253L237.33 112.176C235.69 120.225 232.076 123.235 229.563 124.027M236.755 110.253H239.259C241.358 107.546 245.143 105.456 246.287 105.87C247.203 106.201 245.034 110.421 243.836 112.489C243.929 112.671 244.016 112.852 244.097 113.032M229.563 124.027C229.932 124.535 231.13 125.646 232.966 126.024C232.156 129.355 230.858 136.331 232.149 137.581C233.44 138.832 236.664 130.949 238.115 126.851C238.473 126.639 238.859 126.384 239.259 126.091M244.097 113.032C245.807 113.242 249.258 113.768 249.374 114.187C249.489 114.607 253.19 111.739 255.025 110.253C255.943 109.799 257.228 110.339 255.025 116.126C255.081 116.45 255.123 116.824 255.143 117.238C255.289 120.225 254.312 125.276 249.374 128.075C248.363 128.204 246.191 128.813 245.59 130.212C244.84 131.961 244.916 136.233 243.836 136.907C242.755 137.581 241.743 138.955 241.088 135.639C240.564 132.986 241.759 129.49 242.422 128.075L239.259 126.091M244.097 113.032C246.669 118.79 242.504 123.711 239.259 126.091" stroke="black"/>
<path d="M183.468 127.08L189.588 141.312C192.007 146.939 202.666 163.28 203.632 161.011C204.598 158.742 197.77 143.521 197.125 142.963C196.481 142.404 196.095 138.631 194.742 125.223C193.389 111.816 188.364 107.654 187.526 106.417C186.856 105.427 182.39 110.085 180.24 112.538C179.462 117.434 182.068 124.273 183.468 127.08Z" fill="#F7EFA5" stroke="black"/>
<path d="M151.234 167.165C155.177 155.732 165.112 131.634 173.299 126.703C175.851 125.166 177.656 123.276 178.93 121.277C182.766 115.258 181.793 108.249 181.907 106.897L180.268 106.126C180.578 105.74 180.885 105.306 181.082 105.008C181.796 86.1748 174.886 100.802 171.341 110.47C163.227 125.765 146.911 155.98 146.557 154.477C146.203 152.975 144.467 158.321 142.779 160.473C142.117 161.377 136.002 158.998 134.84 166.025C133.677 173.052 141.962 171.328 143.867 170.717C152.171 178.858 154.674 172.46 151.234 167.165Z" fill="#F7EFA5"/>
<path d="M179.325 106.984C179.526 106.974 179.899 106.584 180.268 106.126M180.268 106.126C180.578 105.74 180.885 105.306 181.082 105.008C181.796 86.1748 174.886 100.802 171.341 110.47C163.227 125.765 146.911 155.98 146.557 154.477C146.203 152.975 144.467 158.321 142.779 160.473C142.117 161.377 136.002 158.998 134.84 166.025C133.677 173.052 141.962 171.328 143.867 170.717C152.171 178.858 154.674 172.46 151.234 167.165C155.177 155.732 165.112 131.634 173.299 126.703C175.851 125.166 177.656 123.276 178.93 121.277C182.766 115.258 181.793 108.249 181.907 106.897L180.268 106.126ZM165.734 128.346C160.611 137.139 150.33 154.858 150.187 155.389M175.876 117.085C175.187 115.986 174.265 112.253 176.093 106.118" stroke="black"/>
<path d="M150.373 244.286C151.499 241.169 149.24 239.121 147.969 238.487C145.496 238.487 143.619 243.017 142.99 245.283C143.848 244.543 145.943 243.307 147.454 244.286C148.965 245.265 150.029 244.694 150.373 244.286Z" fill="#F7EFA5"/>
<path d="M157.05 252.549C159.429 248.164 156.845 246.752 155.255 246.595C152.691 247.906 151.204 252.143 152.024 252.549C152.681 252.874 155.648 252.684 157.05 252.549Z" fill="#F7EFA5"/>
<path d="M155.255 237.477C150.373 235.301 150.373 238.853 151.889 240.585C151.216 243.383 153.673 243.872 153.976 242.983C154.219 242.273 154.93 241.651 155.255 241.429C156.816 242.104 159.878 241.148 161.213 240.585C164.747 237.921 159.597 234.723 159.126 235.523C158.749 236.162 156.388 237.092 155.255 237.477Z" fill="#F7EFA5"/>
<path d="M161.759 249.968C163.075 246.804 164.537 245.337 164.537 244.912H166.673C166.995 244.912 169.656 242.481 168.282 241.748C167.182 241.161 166.653 240.165 166.527 239.741C166.807 238.043 165.435 238.197 164.713 238.487C163.689 241.45 161.759 241.941 158.482 242.983C155.861 243.818 156.786 245.738 157.576 246.595C157.995 246.471 158.956 246.649 159.448 248.347C159.939 250.046 161.193 250.136 161.759 249.968Z" fill="#F7EFA5"/>
<path d="M171.478 243.888C175.812 243.888 173.837 239.853 172.308 237.836L167.984 239.219L171.478 243.888Z" fill="#F7EFA5"/>
<path d="M165.73 233.366C165.575 233.825 166.197 235.384 166.527 236.106C168.84 237.374 169.7 236.482 169.848 234.897C177.584 235.769 175.308 231.557 173.203 229.341C172.178 227.92 172.947 212.696 173.203 212.094C173.409 211.612 174.479 206.007 174.988 203.265C172.878 196.923 170.682 199.537 169.848 201.637C169.375 201.86 168.685 202.087 167.952 202.519C168.739 200.739 164.033 201.847 163.793 202.519C163.613 203.023 164.61 205.972 165.13 207.384C165.464 217.313 162.658 228.842 161.213 233.366C163.3 240.183 165.923 232.793 165.73 233.366Z" fill="#F7EFA5"/>
<path d="M169.848 201.637C169.375 201.86 168.685 202.087 167.952 202.519C168.739 200.739 164.033 201.847 163.793 202.519C163.613 203.023 164.61 205.972 165.13 207.384C165.464 217.313 162.658 228.842 161.213 233.366C163.3 240.183 165.923 232.793 165.73 233.366C165.575 233.825 166.197 235.384 166.527 236.106C168.84 237.374 169.7 236.482 169.848 234.897M169.848 201.637C170.228 201.457 170.469 201.279 170.481 200.999C170.706 200.999 173.348 200.517 171.606 205.893C169.863 211.269 169.273 213.012 169.385 214.05C169.475 214.88 169.175 224.937 169.014 229.862C169.51 231.355 169.986 233.425 169.848 234.897M169.848 201.637C170.682 199.537 172.878 196.923 174.988 203.265C174.479 206.007 173.409 211.612 173.203 212.094C172.947 212.696 172.178 227.92 173.203 229.341C175.308 231.557 177.584 235.769 169.848 234.897M147.969 238.487C149.24 239.121 151.499 241.169 150.373 244.286C150.029 244.694 148.965 245.265 147.454 244.286C145.943 243.307 143.848 244.543 142.99 245.283C143.619 243.017 145.496 238.487 147.969 238.487ZM155.255 246.595C156.845 246.752 159.429 248.164 157.05 252.549C155.648 252.684 152.681 252.874 152.024 252.549C151.204 252.143 152.691 247.906 155.255 246.595ZM151.889 240.585C150.373 238.853 150.373 235.301 155.255 237.477C156.388 237.092 158.749 236.162 159.126 235.523C159.597 234.723 164.747 237.921 161.213 240.585C159.878 241.148 156.816 242.104 155.255 241.429C154.93 241.651 154.219 242.273 153.976 242.983C153.673 243.872 151.216 243.383 151.889 240.585ZM164.537 244.912C164.537 245.337 163.075 246.804 161.759 249.968C161.193 250.136 159.939 250.046 159.448 248.347C158.956 246.649 157.995 246.471 157.576 246.595C156.786 245.738 155.861 243.818 158.482 242.983C161.759 241.941 163.689 241.45 164.713 238.487C165.435 238.197 166.807 238.043 166.527 239.741C166.653 240.165 167.182 241.161 168.282 241.748C169.656 242.481 166.995 244.912 166.673 244.912C166.415 244.912 165.142 244.912 164.537 244.912ZM172.308 237.836C173.837 239.853 175.812 243.888 171.478 243.888L167.984 239.219L172.308 237.836Z" stroke="black"/>
<path d="M151.81 228.976C153.698 229.053 154.412 227.817 154.469 226.934C153.93 225.453 144.919 218.977 142.306 221.561C144.523 222.044 150.083 224.232 151.173 227.228C151.566 228.306 151.52 228.848 151.81 228.976Z" fill="#F7EFA5"/>
<path d="M156.462 230.595C156.544 227.253 154.672 227.934 154.09 229.175C152.469 229.308 152.748 230.874 153.282 230.885C153.709 230.894 154.191 231.2 154.379 231.352C154.364 232.417 155.535 234.068 156.123 234.76C158.297 236.366 158.859 232.668 158.335 232.539C157.916 232.436 156.912 231.2 156.462 230.595Z" fill="#F7EFA5"/>
<path d="M151.81 228.976C153.698 229.053 154.412 227.817 154.469 226.934C153.93 225.453 144.919 218.977 142.306 221.561C144.523 222.044 150.083 224.232 151.173 227.228C151.566 228.306 151.52 228.848 151.81 228.976Z" stroke="black"/>
<path d="M156.462 230.595C156.544 227.253 154.672 227.934 154.09 229.175C152.469 229.308 152.748 230.874 153.282 230.885C153.709 230.894 154.191 231.2 154.379 231.352C154.364 232.417 155.535 234.068 156.123 234.76C158.297 236.366 158.859 232.668 158.335 232.539C157.916 232.436 156.912 231.2 156.462 230.595Z" stroke="black"/>
<path d="M146.846 175.246C141.906 165.927 139.722 170.444 139.247 173.868C137.869 173.982 135.539 175.314 137.246 179.722C139.38 185.232 143.675 183.363 145.064 183.398C146.453 183.432 164.268 199.418 164.535 199.99C164.748 200.447 165.918 202.593 166.476 203.609C167.4 205.196 168.546 202.325 169.003 200.69L170.831 199.838C172.962 196.582 169.854 194.483 168.034 193.841C167.403 194.501 154.245 183.006 147.745 177.176L146.846 175.246Z" fill="#F7EFA5" stroke="black"/>
<path d="M177.001 179.384C177.088 168.683 178.711 145.628 184.502 139.021C186.306 136.962 187.343 134.839 187.877 132.788C189.484 126.614 186.53 121.095 186.229 119.937L184.545 119.8C184.705 119.385 184.848 118.93 184.934 118.622C179.951 102.769 178.184 117.033 177.924 126.147C175.29 141.335 169.832 171.426 169.07 170.288C168.308 169.149 168.362 174.12 167.508 176.425C167.19 177.379 161.058 177.28 162.123 183.471C163.188 189.661 170.02 185.687 171.528 184.594C181.319 188.803 181.631 182.724 177.001 179.384Z" fill="#F7EFA5"/>
<path d="M183.965 120.802C184.14 120.732 184.355 120.294 184.545 119.8M184.545 119.8C184.705 119.385 184.848 118.93 184.934 118.622C179.951 102.769 178.184 117.033 177.924 126.147C175.29 141.335 169.832 171.426 169.07 170.288C168.308 169.149 168.362 174.12 167.508 176.425C167.19 177.379 161.058 177.28 162.123 183.471C163.188 189.661 170.02 185.687 171.528 184.594C181.319 188.803 181.631 182.724 177.001 179.384C177.088 168.683 178.711 145.628 184.502 139.021C186.306 136.962 187.343 134.839 187.877 132.788C189.484 126.614 186.53 121.095 186.229 119.937L184.545 119.8ZM178.283 142.708C176.362 151.58 172.529 169.445 172.561 169.93M183.919 130.246C182.979 129.545 181.049 126.73 180.841 121.075" stroke="black"/>
<path d="M189.773 257.868C190.179 255.254 188.206 253.932 187.169 253.597C185.324 253.923 184.554 257.753 184.4 259.628C184.938 258.93 186.329 257.677 187.594 258.252C188.858 258.827 189.573 258.236 189.773 257.868Z" fill="#F7EFA5"/>
<path d="M195.91 263.524C197.075 259.743 194.948 258.967 193.739 259.051C192.008 260.426 191.489 263.973 192.158 264.186C192.693 264.356 194.882 263.816 195.91 263.524Z" fill="#F7EFA5"/>
<path d="M192.468 251.839C188.52 250.761 189.015 253.571 190.389 254.741C190.277 257.043 192.179 257.106 192.281 256.363C192.363 255.769 192.807 255.184 193.019 254.966C194.279 255.294 196.431 254.135 197.349 253.514C199.616 250.941 195.325 249.09 195.085 249.784C194.893 250.34 193.26 251.386 192.468 251.839Z" fill="#F7EFA5"/>
<path d="M199.065 260.864C199.606 258.187 200.494 256.835 200.434 256.499L202.029 256.218C202.269 256.175 203.917 253.902 202.788 253.503C201.885 253.184 201.352 252.465 201.198 252.146C201.171 250.766 200.168 251.069 199.669 251.393C199.318 253.872 197.945 254.514 195.645 255.77C193.805 256.775 194.763 258.173 195.472 258.746C195.768 258.593 196.51 258.607 197.114 259.886C197.718 261.164 198.666 261.07 199.065 260.864Z" fill="#F7EFA5"/>
<path d="M205.473 254.775C208.708 254.204 206.671 251.273 205.249 249.879L202.213 251.542L205.473 254.775Z" fill="#F7EFA5"/>
<path d="M199.714 247.209C199.663 247.592 200.344 248.743 200.691 249.271C202.595 249.97 203.113 249.151 203.002 247.878C208.899 247.55 206.612 244.517 204.732 243.042C203.768 242.053 202.219 229.91 202.327 229.4C202.413 228.992 202.43 224.418 202.428 222.181C199.968 217.443 198.693 219.8 198.363 221.57C198.041 221.809 197.558 222.079 197.071 222.518C197.41 221.006 194.051 222.502 193.966 223.065C193.902 223.488 195.058 225.689 195.643 226.737C197.277 234.546 196.79 244.035 196.342 247.804C198.851 252.921 199.779 246.73 199.714 247.209Z" fill="#F7EFA5"/>
<path d="M198.363 221.57C198.041 221.809 197.558 222.079 197.071 222.518C197.41 221.006 194.051 222.502 193.966 223.065C193.902 223.488 195.058 225.689 195.643 226.737C197.277 234.546 196.79 244.035 196.342 247.804C198.851 252.921 199.779 246.73 199.714 247.209C199.663 247.592 200.344 248.743 200.691 249.271C202.595 249.97 203.113 249.151 203.002 247.878M198.363 221.57C198.622 221.378 198.777 221.206 198.747 220.982C198.915 220.953 200.82 220.224 200.269 224.705C199.718 229.187 199.521 230.643 199.749 231.45C199.932 232.095 201.111 240.089 201.677 244.005C202.255 245.121 202.9 246.695 203.002 247.878M198.363 221.57C198.693 219.8 199.968 217.443 202.428 222.181C202.43 224.418 202.413 228.992 202.327 229.4C202.219 229.91 203.768 242.053 204.732 243.042C206.612 244.517 208.899 247.55 203.002 247.878M187.169 253.597C188.206 253.932 190.179 255.254 189.773 257.868C189.573 258.236 188.858 258.827 187.594 258.252C186.329 257.677 184.938 258.93 184.4 259.628C184.554 257.753 185.324 253.923 187.169 253.597ZM193.739 259.051C194.948 258.967 197.075 259.743 195.91 263.524C194.882 263.816 192.693 264.356 192.158 264.186C191.489 263.973 192.008 260.426 193.739 259.051ZM190.389 254.741C189.015 253.571 188.52 250.761 192.468 251.839C193.26 251.386 194.893 250.34 195.085 249.784C195.325 249.09 199.616 250.941 197.349 253.514C196.431 254.135 194.279 255.294 193.019 254.966C192.807 255.184 192.363 255.769 192.281 256.363C192.179 257.106 190.277 257.043 190.389 254.741ZM200.434 256.499C200.494 256.835 199.606 258.187 199.065 260.864C198.666 261.07 197.718 261.164 197.114 259.886C196.51 258.607 195.768 258.593 195.472 258.746C194.763 258.173 193.805 256.775 195.645 255.77C197.945 254.514 199.318 253.872 199.669 251.393C200.168 251.069 201.171 250.766 201.198 252.146C201.352 252.465 201.885 253.184 202.788 253.503C203.917 253.902 202.269 256.175 202.029 256.218C201.836 256.252 200.886 256.419 200.434 256.499ZM205.249 249.879C206.671 251.273 208.708 254.204 205.473 254.775L202.213 251.542L205.249 249.879Z" stroke="black"/>
<path d="M188.163 242.492C190.43 242.351 191.434 241.169 191.605 240.375C191.126 239.113 181.01 234.33 177.561 236.926C180.178 237.111 186.629 238.449 187.597 241.002C187.946 241.921 187.828 242.41 188.163 242.492Z" fill="#F7EFA5"/>
<path d="M193.585 243.421C194.069 240.43 191.734 241.245 190.889 242.417C188.92 242.715 189.075 244.081 189.717 244.032C190.231 243.993 190.778 244.213 190.987 244.328C190.845 245.28 192.067 246.623 192.696 247.176C195.132 248.369 196.236 245.006 195.619 244.949C195.126 244.903 194.057 243.911 193.585 243.421Z" fill="#F7EFA5"/>
<path d="M188.163 242.492C190.43 242.351 191.434 241.169 191.605 240.375C191.126 239.113 181.01 234.33 177.561 236.926C180.178 237.111 186.629 238.449 187.597 241.002C187.946 241.921 187.828 242.41 188.163 242.492Z" stroke="black"/>
<path d="M193.585 243.421C194.069 240.43 191.734 241.245 190.889 242.417C188.92 242.715 189.075 244.081 189.717 244.032C190.231 243.993 190.778 244.213 190.987 244.328C190.845 245.28 192.067 246.623 192.696 247.176C195.132 248.369 196.236 245.006 195.619 244.949C195.126 244.903 194.057 243.911 193.585 243.421Z" stroke="black"/>
<path d="M182.067 191.912C179.939 182.916 176.599 186.195 175.194 188.959C173.847 188.73 171.253 189.298 171.659 193.405C172.166 198.539 176.786 197.983 178.102 198.34C179.419 198.697 191.991 216.338 192.087 216.881C192.164 217.316 192.685 219.395 192.936 220.38C193.377 221.933 195.269 219.791 196.16 218.525L198.141 218.241C201.08 216.009 198.696 213.511 197.136 212.542C196.35 212.947 186.978 200.18 182.391 193.746L182.067 191.912Z" fill="#F7EFA5" stroke="black"/>
<path d="M398.282 112.346L398.884 111.471C398.346 107.27 395.875 105.299 394.043 104.572C394.367 104.37 395.37 103.98 396.792 104.038C396.47 102.282 397.197 99.8559 398.282 99.4091C399.367 98.9624 400.019 102.094 400.758 104.315C401.01 104.468 401.28 104.646 401.557 104.844L404.123 104.284C403.745 103.495 403.146 101.607 403.774 100.364C404.559 98.8103 405.204 99.6251 405.962 100.103C406.72 100.58 406.29 102.684 406.705 103.649C407.037 104.422 408.627 105.013 409.38 105.211C409.008 104.981 411.591 104.949 412.93 104.962C412.766 104.584 412.405 103.706 412.271 103.212C412.104 102.595 412.806 100.965 413.609 101.107C414.413 101.249 415.715 104.048 415.787 104.42C415.828 104.63 416.48 104.883 417.086 105.07C417.746 105.127 419.071 105.035 419.099 104.204C419.135 103.165 419.838 101.407 420.311 101.513C420.688 101.598 421.449 102.667 421.783 103.19C422.068 103.573 422.749 104.345 423.196 104.368C423.753 104.397 425.704 104.625 426.121 104.768C425.861 104.5 427.949 104.257 429.025 104.169C429.168 103.362 429.615 101.775 430.263 101.889C430.91 102.003 432.05 103.641 432.538 104.445L434.825 104.848C434.914 104.864 435 104.915 435.084 104.996L437.859 104.73C437.903 104.955 438.168 105.065 438.877 103.702C439.763 101.998 440.756 103.242 440.892 103.187C441 103.143 441.498 104.571 441.734 105.291C442.169 105.514 443.181 106.005 443.751 106.185C443.908 106.234 444.02 106.421 444.096 106.686L444.573 106.031L445.648 105.981L447.542 105.89C447.861 105.726 448.573 105.238 448.87 104.594C449.167 103.949 450.111 104.339 450.546 104.614L450.4 105.44L451.147 106.706L453.02 107.403L453.728 107.162C454.161 107.238 455.032 107.355 455.057 107.215C455.082 107.075 456.592 106.222 457.344 105.813L458.096 106.22L458.21 107.771C458.577 107.977 459.406 108.431 459.785 108.596L460.927 107.943L462.478 108.019L463.061 107.967L463.615 107.194L465.219 106.676C465.441 106.798 465.875 107.094 465.837 107.31C465.799 107.526 466.122 108.452 466.289 108.888C466.457 109.02 466.894 109.302 467.298 109.374C467.485 109.407 467.586 109.483 467.631 109.613L469.577 109.468C469.681 109.271 470.025 108.758 470.567 108.286C471.11 107.813 471.881 107.836 472.199 107.907L472.439 108.616C472.415 108.848 472.486 109.355 472.957 109.521C473.429 109.688 474.709 110.432 475.29 110.783C475.286 110.838 475.28 110.898 475.274 110.961L476.744 110.732L478.243 110.644L479.226 111.17L479.84 111.477C480.157 111.569 480.844 111.798 481.049 111.979C481.136 112.055 481.068 112.314 480.935 112.625C481.131 112.658 481.563 112.746 481.73 112.826C481.939 112.928 483.041 112.33 483.657 112.439C484.149 112.526 484.582 113.187 484.737 113.507C485.016 113.57 485.663 113.704 486.02 113.733C486.354 113.76 486.862 114.057 487.088 114.266L488.646 114.541C488.876 114.582 490.165 115.182 490.781 115.476C490.718 115.576 490.62 115.714 490.511 115.841C491.356 115.992 493.041 116.332 493.013 116.487C493.007 116.523 492.985 116.59 492.949 116.676L495.227 118.025C495.726 118.279 496.689 118.782 496.545 118.756L494.962 118.477C494.972 118.587 493.096 117.962 492.157 117.636C492.015 117.705 491.857 117.736 491.686 117.705C491.053 117.594 489.706 117.153 489.112 116.947C488.24 117.178 486.419 116.424 485.618 116.018C485.516 116.103 485.361 116.172 485.131 116.206C484.386 116.318 481.5 114.792 480.151 114.014C480.12 114.053 480.097 114.077 480.085 114.082C479.989 114.121 479.052 114.543 478.595 114.749L477.131 114.008L474.636 113.568C474.59 113.643 474.543 113.687 474.417 113.664L473.304 113.468L472.813 113.592C472.718 113.735 472.447 114.069 472.122 114.256C471.797 114.442 471.269 114.461 471.046 114.447L469.988 113.939L469.728 113.048L466.606 112.287L465.599 112.801L464.535 112.918L464.435 113.488L463.402 114.023C463.17 114.056 462.665 113.999 462.502 113.504C462.339 113.009 460.556 111.977 459.685 111.522C459.643 111.644 459.605 111.73 459.582 111.74C459.501 111.773 458.277 111.814 458.098 111.843C457.919 111.871 457.042 112.902 456.883 113.097C456.757 113.253 456.092 113.032 455.775 112.902C455.681 112.732 455.419 112.328 455.128 112.065C454.836 111.803 453.204 111.101 452.424 110.782C451.761 110.907 450.418 111.17 450.35 111.223C450.266 111.289 449.652 112.286 449.616 112.349C449.581 112.412 448.463 112.399 448.18 112.349C447.896 112.299 446.911 110.847 446.691 110.716C446.514 110.611 444.823 109.98 443.999 109.678C443.967 109.764 443.933 109.828 443.897 109.867C443.608 110.176 442.451 110.24 441.908 110.233L441.703 111.396C441.264 111.592 440.305 111.969 439.981 111.912C439.656 111.855 438.683 110.733 438.236 110.18L436.249 109.622C435.953 109.81 435.183 109.879 434.765 109.889C435.089 110.58 434.187 111.717 433.611 111.736C433.149 111.751 431.705 110.614 431.041 110.043L428.734 109.585L428.485 110.018C428.507 110.083 428.648 110.543 429.045 111.859C429.541 113.503 427.866 112.975 427.481 112.93C427.173 112.895 425.021 111.281 423.984 110.478C423.294 110.589 421.835 110.778 421.525 110.651C421.526 111.217 421.799 112.308 421.917 113.517C422.036 114.724 420.872 114.487 420.275 114.217C419.097 113.354 416.909 111.732 416.685 111.497C416.407 111.567 413.265 111.424 412.799 111.342C412.748 111.545 412.683 111.724 412.613 111.877C413.774 115.034 412.755 115.13 412.1 114.783C410.842 113.803 408.293 111.89 408.169 112.082C408.045 112.274 405.389 112.074 404.077 111.951C404 112.029 403.919 112.107 403.832 112.184C404.558 113.367 405.83 115.744 405.109 115.786C404.207 115.838 401.527 114.299 400.176 112.68L398.282 112.346Z" fill="#F7EFA5"/>
<path d="M404.077 111.951C404 112.029 403.919 112.107 403.832 112.184C404.558 113.367 405.83 115.744 405.109 115.786C404.207 115.838 401.527 114.299 400.176 112.68L398.282 112.346L398.884 111.471C398.346 107.27 395.875 105.299 394.043 104.572C394.367 104.37 395.37 103.98 396.792 104.038C396.47 102.282 397.197 99.8559 398.282 99.4091C399.367 98.9624 400.019 102.094 400.758 104.315C401.01 104.468 401.28 104.646 401.557 104.844M404.077 111.951C405.389 112.074 408.045 112.274 408.169 112.082C408.293 111.89 410.842 113.803 412.1 114.783C412.755 115.13 413.774 115.034 412.613 111.877C412.683 111.724 412.748 111.545 412.799 111.342M404.077 111.951C406.525 109.445 403.804 106.454 401.557 104.844M409.38 105.211C408.627 105.013 407.037 104.422 406.705 103.649C406.29 102.684 406.72 100.58 405.962 100.103C405.204 99.6251 404.559 98.8103 403.774 100.364C403.146 101.607 403.745 103.495 404.123 104.284L401.557 104.844M409.38 105.211C412.871 107.254 413.17 109.884 412.799 111.342M409.38 105.211C409.008 104.981 411.591 104.949 412.93 104.962C412.766 104.584 412.405 103.706 412.271 103.212C412.104 102.595 412.806 100.965 413.609 101.107C414.413 101.249 415.715 104.048 415.787 104.42C415.828 104.63 416.48 104.883 417.086 105.07M412.799 111.342C413.308 111.432 417.008 111.594 416.685 111.472C416.426 111.374 418.97 113.261 420.275 114.217C420.872 114.487 422.036 114.724 421.917 113.517C421.799 112.308 421.526 111.217 421.525 110.651M421.525 110.651C421.525 110.511 421.541 110.403 421.581 110.334C421.781 109.985 420.068 106.384 417.78 105.262C417.59 105.215 417.342 105.148 417.086 105.07M421.525 110.651C421.835 110.778 423.294 110.589 423.984 110.478C425.021 111.281 427.173 112.895 427.481 112.93C427.866 112.975 429.541 113.503 429.045 111.859C428.648 110.543 428.507 110.083 428.485 110.018L428.734 109.585M426.121 104.768C426.454 104.883 428.167 107.739 428.982 109.152L428.734 109.585M426.121 104.768C425.704 104.625 423.753 104.397 423.196 104.368C422.749 104.345 422.068 103.573 421.783 103.19C421.449 102.667 420.688 101.598 420.311 101.513C419.838 101.407 419.135 103.165 419.099 104.204C419.071 105.035 417.746 105.127 417.086 105.07M426.121 104.768C425.861 104.5 427.949 104.257 429.025 104.169C429.168 103.362 429.615 101.775 430.263 101.889C430.91 102.003 432.05 103.641 432.538 104.445C432.991 104.525 434.083 104.717 434.825 104.848C434.914 104.864 435 104.915 435.084 104.996M428.734 109.585L431.041 110.043C431.705 110.614 433.149 111.751 433.611 111.736C434.187 111.717 435.089 110.58 434.765 109.889C435.183 109.879 435.953 109.81 436.249 109.622M436.249 109.622C436.315 109.58 436.357 109.533 436.367 109.478C436.426 109.141 435.875 105.76 435.084 104.996M436.249 109.622L438.236 110.18C438.683 110.733 439.656 111.855 439.981 111.912C440.305 111.969 441.264 111.592 441.703 111.396L441.908 110.233C442.451 110.24 443.608 110.176 443.897 109.867C443.933 109.828 443.967 109.764 443.999 109.678M435.084 104.996L437.859 104.73C437.903 104.955 438.168 105.065 438.877 103.702C439.763 101.998 440.756 103.242 440.892 103.187C441 103.143 441.498 104.571 441.734 105.291C442.169 105.514 443.181 106.005 443.751 106.185C443.908 106.234 444.02 106.421 444.096 106.686M443.999 109.678C444.823 109.98 446.514 110.611 446.691 110.716C446.911 110.847 447.896 112.299 448.18 112.349C448.463 112.399 449.581 112.412 449.616 112.349C449.652 112.286 450.266 111.289 450.35 111.223C450.418 111.17 451.761 110.907 452.424 110.782M443.999 109.678C444.219 109.089 444.332 107.509 444.096 106.686M452.424 110.782L453.02 107.403M452.424 110.782C453.204 111.101 454.836 111.803 455.128 112.065C455.419 112.328 455.681 112.732 455.775 112.902C456.092 113.032 456.757 113.253 456.883 113.097C457.042 112.902 457.919 111.871 458.098 111.843C458.277 111.814 459.501 111.773 459.582 111.74C459.605 111.73 459.643 111.644 459.685 111.522M453.02 107.403L451.147 106.706L450.4 105.44L450.546 104.614C450.111 104.339 449.167 103.949 448.87 104.594C448.573 105.238 447.861 105.726 447.542 105.89L445.648 105.981L444.573 106.031L444.096 106.686M453.02 107.403L453.728 107.162C454.161 107.238 455.032 107.355 455.057 107.215C455.082 107.075 456.592 106.222 457.344 105.813L458.096 106.22L458.21 107.771C458.577 107.977 459.406 108.431 459.785 108.596M459.785 108.596C460.164 108.761 460.017 110.132 459.897 110.797C459.847 110.99 459.759 111.309 459.685 111.522M459.785 108.596L460.927 107.943L462.478 108.019L463.061 107.967L463.615 107.194L465.219 106.676C465.441 106.798 465.875 107.094 465.837 107.31C465.799 107.526 466.122 108.452 466.289 108.888C466.457 109.02 466.894 109.302 467.298 109.374C467.485 109.407 467.586 109.483 467.631 109.613M459.685 111.522C460.556 111.977 462.339 113.009 462.502 113.504C462.665 113.999 463.17 114.056 463.402 114.023L464.435 113.488L464.535 112.918L465.599 112.801L466.606 112.287M466.606 112.287L466.802 112.187C466.984 112.046 467.38 111.574 467.514 110.815C467.619 110.217 467.707 109.835 467.631 109.613M466.606 112.287L469.728 113.048L469.988 113.939L471.046 114.447C471.269 114.461 471.797 114.442 472.122 114.256C472.447 114.069 472.718 113.735 472.813 113.592L473.304 113.468C473.591 113.519 474.215 113.629 474.417 113.664C474.543 113.687 474.59 113.643 474.636 113.568M467.631 109.613L469.577 109.468C469.681 109.271 470.025 108.758 470.567 108.286C471.11 107.813 471.881 107.836 472.199 107.907L472.439 108.616C472.415 108.848 472.486 109.355 472.957 109.521C473.429 109.688 474.709 110.432 475.29 110.783C475.286 110.838 475.28 110.898 475.274 110.961M474.636 113.568C474.682 113.493 474.727 113.387 474.849 113.285C475.031 113.133 475.199 111.769 475.274 110.961M474.636 113.568L477.131 114.008L478.595 114.749C479.052 114.543 479.989 114.121 480.085 114.082C480.097 114.077 480.12 114.053 480.151 114.014M475.274 110.961L476.744 110.732L478.243 110.644L479.226 111.17L479.84 111.477C480.157 111.569 480.844 111.798 481.049 111.979C481.136 112.055 481.068 112.314 480.935 112.625M480.151 114.014C481.5 114.792 484.386 116.318 485.131 116.206C485.361 116.172 485.516 116.103 485.618 116.018M480.151 114.014C480.317 113.802 480.715 113.141 480.935 112.625M480.935 112.625C481.131 112.658 481.563 112.746 481.73 112.826C481.939 112.928 483.041 112.33 483.657 112.439C484.149 112.526 484.582 113.187 484.737 113.507C485.016 113.57 485.663 113.704 486.02 113.733C486.354 113.76 486.862 114.057 487.088 114.266M485.618 116.018C485.846 115.828 485.804 115.555 485.726 115.402C486.21 115.128 487.182 114.55 487.203 114.435C487.209 114.398 487.165 114.337 487.088 114.266M485.618 116.018C486.419 116.424 488.24 117.178 489.112 116.947M489.112 116.947C489.322 116.668 489.799 116.12 490.029 116.161C490.166 116.185 490.351 116.026 490.511 115.841M489.112 116.947C489.706 117.153 491.053 117.594 491.686 117.705C491.857 117.736 492.015 117.705 492.157 117.636M487.088 114.266C487.511 114.341 488.416 114.501 488.646 114.541C488.876 114.582 490.165 115.182 490.781 115.476C490.718 115.576 490.62 115.714 490.511 115.841M490.511 115.841C491.356 115.992 493.041 116.332 493.013 116.487C493.007 116.523 492.985 116.59 492.949 116.676M492.157 117.636C493.096 117.962 494.972 118.587 494.962 118.477M492.157 117.636C492.553 117.445 492.83 116.96 492.949 116.676M494.962 118.477C494.952 118.368 495.134 118.13 495.227 118.025M494.962 118.477C495.43 118.56 496.401 118.731 496.545 118.756C496.689 118.782 495.726 118.279 495.227 118.025M495.227 118.025L492.949 116.676" stroke="black"/>
<path d="M350.187 112.519L351.113 113.384C351.189 118.386 348.397 121.283 346.195 122.58C346.644 122.734 347.993 122.937 349.794 122.518C349.702 124.633 349.884 128.926 351.348 129.175C352.812 129.424 354.258 123.971 354.799 121.214C355.092 120.974 355.404 120.701 355.721 120.402L359.092 120.415C358.753 121.424 358.332 123.761 359.357 125.046C360.639 126.652 361.314 125.548 362.194 124.806C363.074 124.065 362.144 121.733 362.498 120.511C362.781 119.534 364.7 118.455 365.624 118.038C365.191 118.397 368.489 117.794 370.192 117.448C370.052 117.926 369.751 119.033 369.67 119.639C369.569 120.396 370.758 122.11 371.757 121.747C372.755 121.383 373.907 117.816 373.932 117.367C373.946 117.114 374.731 116.659 375.47 116.292C376.299 116.062 378.005 115.841 378.192 116.797C378.426 117.993 379.641 119.856 380.223 119.616C380.689 119.423 381.466 117.996 381.795 117.307C382.089 116.792 382.818 115.728 383.382 115.591C384.088 115.42 386.533 114.672 387.038 114.403C386.755 114.778 389.46 114.542 390.848 114.377C391.176 115.278 392.033 117.006 392.838 116.713C393.642 116.42 394.797 114.241 395.274 113.187L398.116 112.153C398.226 112.113 398.326 112.032 398.418 111.918C399.289 110.836 399.378 106.78 399.241 106.404C399.219 106.344 399.156 106.299 399.065 106.267C398.654 106.123 397.66 106.234 397.125 106.325C397.413 105.445 396.058 104.349 395.319 104.471C394.729 104.567 393.095 106.244 392.352 107.07L389.494 108.172L389.1 107.733C389.115 107.651 389.212 107.083 389.479 105.46C389.813 103.432 387.774 104.458 387.291 104.605C386.905 104.723 384.456 107.127 383.28 108.314C382.38 108.357 380.486 108.499 380.115 108.723C380.013 108.068 380.163 106.735 380.095 105.304C380.028 103.876 378.587 104.44 377.875 104.9C376.531 106.192 374.036 108.614 373.793 108.943C373.426 108.93 369.448 109.874 368.869 110.085C368.767 109.863 368.653 109.671 368.535 109.511C369.443 105.564 368.127 105.706 367.356 106.27C365.929 107.718 363.028 110.566 362.835 110.374C362.641 110.183 359.294 111.072 357.644 111.541C357.532 111.469 357.414 111.399 357.29 111.331C358 109.78 359.19 106.71 358.264 106.84C357.106 107.003 353.968 109.451 352.54 111.663L350.187 112.519Z" fill="#F7EFA5"/>
<path d="M357.644 111.541C357.532 111.469 357.414 111.399 357.29 111.331C358 109.78 359.19 106.71 358.264 106.84C357.106 107.003 353.968 109.451 352.54 111.663L350.187 112.519L351.113 113.384C351.189 118.386 348.397 121.283 346.195 122.58C346.644 122.734 347.993 122.937 349.794 122.518C349.702 124.633 349.884 128.926 351.348 129.175C352.812 129.424 354.258 123.971 354.799 121.214C355.092 120.974 355.404 120.701 355.721 120.402M357.644 111.541C359.294 111.072 362.641 110.183 362.835 110.374C363.028 110.566 365.929 107.718 367.356 106.27C368.127 105.706 369.443 105.564 368.535 109.511C368.653 109.671 368.767 109.863 368.869 110.085M357.644 111.541C361.218 113.839 358.293 117.98 355.721 120.402M365.624 118.038C364.7 118.455 362.781 119.534 362.498 120.511C362.144 121.733 363.074 124.065 362.194 124.806C361.314 125.548 360.639 126.652 359.357 125.046C358.332 123.761 358.753 121.424 359.092 120.415L355.721 120.402M365.624 118.038C369.702 114.805 369.606 111.683 368.869 110.085M365.624 118.038C365.191 118.397 368.489 117.794 370.192 117.448C370.052 117.926 369.751 119.033 369.67 119.639C369.569 120.396 370.758 122.11 371.757 121.747C372.755 121.383 373.907 117.816 373.932 117.367C373.946 117.114 374.731 116.659 375.47 116.292M368.869 110.085C369.502 109.855 374.188 108.75 373.798 108.972C373.485 109.149 376.386 106.331 377.875 104.9C378.587 104.44 380.028 103.876 380.095 105.304C380.163 106.735 380.013 108.068 380.115 108.723M380.115 108.723C380.14 108.885 380.18 109.006 380.243 109.077C380.561 109.432 379.031 114.03 376.319 115.898C376.085 115.999 375.782 116.138 375.47 116.292M380.115 108.723C380.486 108.499 382.38 108.357 383.28 108.314C384.456 107.127 386.905 104.723 387.291 104.605C387.774 104.458 389.813 103.432 389.479 105.46C389.212 107.083 389.115 107.651 389.1 107.733L389.494 108.172M387.038 114.403C387.442 114.188 389.107 110.453 389.889 108.612L389.494 108.172M387.038 114.403C386.533 114.672 384.088 115.42 383.382 115.591C382.818 115.728 382.089 116.792 381.795 117.307C381.466 117.996 380.689 119.423 380.223 119.616C379.641 119.856 378.426 117.993 378.192 116.797C378.005 115.841 376.299 116.062 375.47 116.292M387.038 114.403C386.755 114.778 389.46 114.542 390.848 114.377C391.176 115.278 392.033 117.006 392.838 116.713C393.642 116.42 394.797 114.241 395.274 113.187C395.838 112.982 397.194 112.488 398.116 112.153C398.226 112.113 398.326 112.032 398.418 111.918C399.289 110.836 399.378 106.78 399.241 106.404C399.219 106.344 399.156 106.299 399.065 106.267C398.654 106.123 397.66 106.234 397.125 106.325C397.413 105.445 396.058 104.349 395.319 104.471C394.729 104.567 393.095 106.244 392.352 107.07L389.494 108.172" stroke="black"/>
<path d="M251.666 113.004L252.864 114.614C254.075 122.738 251.709 126.803 249.618 128.407C250.139 128.758 251.645 129.392 253.499 129.119C253.877 132.527 255.044 139.525 256.684 140.259C258.325 140.993 258.659 132.483 258.62 128.136C258.884 127.814 259.16 127.442 259.435 127.03L263.086 127.812C262.947 129.37 263.02 133.063 264.42 135.377C266.17 138.269 266.651 136.632 267.435 135.629C268.22 134.626 266.687 130.637 266.794 128.737C266.88 127.217 268.713 125.902 269.618 125.435C269.231 125.919 272.664 125.687 274.429 125.51C274.385 126.253 274.31 127.98 274.359 128.943C274.421 130.147 276.095 133.194 277.093 132.831C278.092 132.467 278.533 126.947 278.458 126.224C278.416 125.818 279.163 125.257 279.88 124.83C280.725 124.644 282.521 124.671 282.94 126.263C283.463 128.253 285.198 131.547 285.774 131.289C286.235 131.083 286.753 128.946 286.955 127.903C287.156 127.135 287.704 125.576 288.284 125.481C289.009 125.362 291.486 124.703 291.972 124.381C291.75 124.925 294.625 125.154 296.089 125.2C296.648 126.734 297.965 129.728 298.77 129.435C299.575 129.142 300.333 125.871 300.611 124.271L303.452 123.237C303.562 123.197 303.653 123.088 303.727 122.924C304.424 121.368 303.605 114.815 303.372 114.175C303.334 114.072 303.256 113.985 303.149 113.912C302.672 113.586 301.622 113.541 301.064 113.568C301.177 112.206 299.463 110.126 298.691 110.155C298.073 110.179 296.684 112.526 296.067 113.697L293.223 114.839L292.696 114.037C292.694 113.908 292.671 113.009 292.593 110.439C292.497 107.227 290.522 108.431 290.033 108.56C289.642 108.664 287.534 112.006 286.53 113.664C285.565 113.53 283.548 113.333 283.196 113.612C282.939 112.527 282.8 110.401 282.403 108.066C282.007 105.737 280.576 106.325 279.909 106.911C278.746 108.701 276.594 112.063 276.405 112.54C276.004 112.437 271.913 113.069 271.334 113.279C271.173 112.896 271.006 112.559 270.843 112.274C270.933 106.082 269.542 106.015 268.834 106.755C267.618 108.779 265.121 112.739 264.869 112.385C264.616 112.031 261.194 112.716 259.515 113.104C259.378 112.962 259.234 112.822 259.084 112.683C259.503 110.33 260.097 105.622 259.124 105.625C257.907 105.627 255.065 108.886 254.019 112.148L251.666 113.004Z" fill="#F7EFA5"/>
<path d="M259.515 113.104C259.378 112.962 259.234 112.822 259.084 112.683C259.503 110.33 260.097 105.622 259.124 105.625C257.907 105.627 255.065 108.886 254.019 112.148L251.666 113.004L252.864 114.614C254.075 122.738 251.709 126.803 249.618 128.407C250.139 128.758 251.645 129.392 253.499 129.119C253.877 132.527 255.044 139.525 256.684 140.259C258.325 140.993 258.659 132.483 258.62 128.136C258.884 127.814 259.16 127.442 259.435 127.03M259.515 113.104C261.194 112.716 264.616 112.031 264.869 112.385C265.121 112.739 267.618 108.779 268.834 106.755C269.542 106.015 270.933 106.082 270.843 112.274C271.006 112.559 271.173 112.896 271.334 113.279M259.515 113.104C263.902 117.635 261.671 123.684 259.435 127.03M269.618 125.435C268.713 125.902 266.88 127.217 266.794 128.737C266.687 130.637 268.22 134.626 267.435 135.629C266.651 136.632 266.17 138.269 264.42 135.377C263.02 133.063 262.947 129.37 263.086 127.812L259.435 127.03M269.618 125.435C273.302 121.116 272.493 116.036 271.334 113.279M269.618 125.435C269.231 125.919 272.664 125.687 274.429 125.51C274.385 126.253 274.31 127.98 274.359 128.943C274.421 130.147 276.095 133.194 277.093 132.831C278.092 132.467 278.533 126.947 278.458 126.224C278.416 125.818 279.163 125.257 279.88 124.83M271.334 113.279C271.967 113.049 276.788 112.316 276.416 112.588C276.118 112.806 278.621 108.894 279.909 106.911C280.576 106.325 282.007 105.737 282.403 108.066C282.8 110.401 282.939 112.527 283.196 113.612M283.196 113.612C283.26 113.881 283.331 114.086 283.416 114.214C283.839 114.861 283.223 121.969 280.709 124.383C280.479 124.494 280.182 124.65 279.88 124.83M283.196 113.612C283.548 113.333 285.565 113.53 286.53 113.664C287.534 112.006 289.642 108.664 290.033 108.56C290.522 108.431 292.497 107.227 292.593 110.439C292.671 113.009 292.694 113.908 292.696 114.037L293.223 114.839M291.972 124.381C292.36 124.123 293.319 118.447 293.749 115.64L293.223 114.839M291.972 124.381C291.486 124.703 289.009 125.362 288.284 125.481C287.704 125.576 287.156 127.135 286.955 127.903C286.753 128.946 286.235 131.083 285.774 131.289C285.198 131.547 283.463 128.253 282.94 126.263C282.521 124.671 280.725 124.644 279.88 124.83M291.972 124.381C291.75 124.925 294.625 125.154 296.089 125.2C296.648 126.734 297.965 129.728 298.77 129.435C299.575 129.142 300.333 125.871 300.611 124.271C301.174 124.066 302.531 123.572 303.452 123.237C303.562 123.197 303.653 123.088 303.727 122.924C304.424 121.368 303.605 114.815 303.372 114.175C303.334 114.072 303.256 113.985 303.149 113.912C302.672 113.586 301.622 113.541 301.064 113.568C301.177 112.206 299.463 110.126 298.691 110.155C298.073 110.179 296.684 112.526 296.067 113.697L293.223 114.839" stroke="black"/>
<path d="M300.65 115.967L301.692 117.15C302.252 123.483 299.641 126.878 297.486 128.305C297.966 128.543 299.382 128.93 301.206 128.573C301.314 131.24 301.916 136.686 303.455 137.141C304.994 137.597 305.967 130.841 306.26 127.406C306.541 127.131 306.837 126.816 307.137 126.469L310.627 126.81C310.373 128.052 310.162 130.968 311.348 132.691C312.829 134.846 313.422 133.514 314.261 132.661C315.1 131.808 313.913 128.77 314.162 127.259C314.361 126.051 316.243 124.871 317.159 124.432C316.746 124.845 320.101 124.4 321.831 124.126C321.731 124.717 321.527 126.088 321.501 126.846C321.469 127.794 322.866 130.077 323.864 129.713C324.863 129.35 325.711 124.95 325.694 124.384C325.684 124.066 326.453 123.565 327.182 123.173C328.018 122.962 329.762 122.846 330.048 124.074C330.406 125.608 331.842 128.081 332.422 127.833C332.886 127.635 333.552 125.905 333.827 125.066C334.081 124.443 334.733 123.167 335.304 123.048C336.018 122.899 338.476 122.19 338.973 121.898C338.717 122.345 341.494 122.307 342.914 122.232C343.341 123.403 344.394 125.671 345.199 125.378C346.004 125.085 346.989 122.44 347.382 121.153L350.223 120.119C350.333 120.079 350.429 119.987 350.513 119.851C351.31 118.567 351.012 113.446 350.834 112.958C350.806 112.879 350.736 112.817 350.638 112.767C350.199 112.545 349.182 112.59 348.636 112.654C348.85 111.568 347.342 110.053 346.589 110.135C345.987 110.201 344.457 112.163 343.768 113.136L340.916 114.255L340.465 113.661C340.473 113.56 340.519 112.85 340.639 110.824C340.789 108.291 338.778 109.393 338.292 109.533C337.904 109.645 335.601 112.448 334.498 113.836C333.57 113.804 331.624 113.801 331.261 114.049C331.093 113.21 331.119 111.539 330.911 109.723C330.704 107.91 329.267 108.485 328.575 108.999C327.307 110.503 324.959 113.326 324.739 113.718C324.357 113.666 320.331 114.477 319.752 114.688C319.625 114.398 319.488 114.143 319.351 113.931C319.91 109.026 318.562 109.079 317.818 109.719C316.481 111.412 313.752 114.734 313.534 114.473C313.316 114.212 309.936 115.015 308.274 115.449C308.151 115.347 308.022 115.247 307.887 115.149C308.473 113.256 309.409 109.488 308.463 109.563C307.28 109.658 304.268 112.452 303.003 115.111L300.65 115.967Z" fill="#F7EFA5"/>
<path d="M308.274 115.449C308.151 115.347 308.022 115.247 307.887 115.149C308.473 113.256 309.409 109.488 308.463 109.563C307.28 109.658 304.268 112.452 303.003 115.111L300.65 115.967L301.692 117.15C302.252 123.483 299.641 126.878 297.486 128.305C297.966 128.543 299.382 128.93 301.206 128.573C301.314 131.24 301.916 136.686 303.455 137.141C304.994 137.597 305.967 130.841 306.26 127.406C306.541 127.131 306.837 126.816 307.137 126.469M308.274 115.449C309.936 115.015 313.316 114.212 313.534 114.473C313.752 114.734 316.481 111.412 317.818 109.719C318.562 109.079 319.91 109.026 319.351 113.931C319.488 114.143 319.625 114.398 319.752 114.688M308.274 115.449C312.194 118.699 309.565 123.653 307.137 126.469M317.159 124.432C316.243 124.871 314.361 126.051 314.162 127.259C313.913 128.77 315.1 131.808 314.261 132.661C313.422 133.514 312.829 134.846 311.348 132.691C310.162 130.968 310.373 128.052 310.627 126.81L307.137 126.469M317.159 124.432C321.069 120.737 320.669 116.78 319.752 114.688M317.159 124.432C316.746 124.845 320.101 124.4 321.831 124.126C321.731 124.717 321.527 126.088 321.501 126.846C321.469 127.794 322.866 130.077 323.864 129.713C324.863 129.35 325.711 124.95 325.694 124.384C325.684 124.066 326.453 123.565 327.182 123.173M319.752 114.688C320.385 114.458 325.129 113.512 324.746 113.755C324.44 113.95 327.171 110.665 328.575 108.999C329.267 108.485 330.704 107.91 330.911 109.723C331.119 111.539 331.093 113.21 331.261 114.049M331.261 114.049C331.302 114.256 331.356 114.413 331.428 114.508C331.791 114.988 330.65 120.656 328.022 122.756C327.79 122.862 327.49 123.008 327.182 123.173M331.261 114.049C331.624 113.801 333.57 113.804 334.498 113.836C335.601 112.448 337.904 109.645 338.292 109.533C338.778 109.393 340.789 108.291 340.639 110.824C340.519 112.85 340.473 113.56 340.465 113.661L340.916 114.255M338.973 121.898C339.371 121.664 340.735 117.102 341.367 114.85L340.916 114.255M338.973 121.898C338.476 122.19 336.018 122.899 335.304 123.048C334.733 123.167 334.081 124.443 333.827 125.066C333.552 125.905 332.886 127.635 332.422 127.833C331.842 128.081 330.406 125.608 330.048 124.074C329.762 122.846 328.018 122.962 327.182 123.173M338.973 121.898C338.717 122.345 341.494 122.307 342.914 122.232C343.341 123.403 344.394 125.671 345.199 125.378C346.004 125.085 346.989 122.44 347.382 121.153C347.945 120.948 349.301 120.455 350.223 120.119C350.333 120.079 350.429 119.987 350.513 119.851C351.31 118.567 351.012 113.446 350.834 112.958C350.806 112.879 350.736 112.817 350.638 112.767C350.199 112.545 349.182 112.59 348.636 112.654C348.85 111.568 347.342 110.053 346.589 110.135C345.987 110.201 344.457 112.163 343.768 113.136L340.916 114.255" stroke="black"/>
<path d="M93.9697 107.623C94.9213 105.467 98.0931 101.179 103.168 101.272C107.666 101.353 106.406 104.47 104.835 106.546C104.634 106.811 104.428 107.06 104.228 107.283C103.226 108.635 104.89 113.97 105.847 116.468C108.939 119.641 114.96 126.74 114.313 129.749C113.667 132.758 109.392 131.823 107.336 130.979C106.587 132.8 100.337 134.867 98.6763 134.316C97.3481 133.874 99.2478 125.329 100.364 121.112L93.9697 107.623Z" fill="#F7EFA5"/>
<path d="M110.638 139.457C117.225 136.724 112.68 134.335 109.585 133.482C108.878 133.262 102.488 136.614 99.3818 138.316C98.7236 138.423 97.937 138.555 97.0708 138.708C94.7073 139.126 91.7506 139.696 89.1885 140.299C87.0557 140.8 85.1964 141.324 84.1807 141.8C80.827 143.374 82.3712 148.013 84.2542 148.395C85.2852 148.604 88.8047 146.876 92.0148 145.256C94.6678 143.918 97.1094 142.654 97.7606 142.62C98.2736 142.594 99.011 142.618 100.12 142.506C102.124 142.303 105.34 141.655 110.638 139.457Z" fill="#F7EFA5"/>
<path d="M102.37 96.7447L103.085 96.6186M104.228 107.283C103.226 108.635 104.89 113.97 105.847 116.468C108.939 119.641 114.96 126.74 114.313 129.749C113.667 132.758 109.392 131.823 107.336 130.979C106.587 132.8 100.337 134.867 98.6763 134.316C97.3481 133.874 99.2478 125.329 100.364 121.112L93.9697 107.623C94.9213 105.467 98.0931 101.179 103.168 101.272C107.666 101.353 106.406 104.47 104.835 106.546C104.634 106.811 104.428 107.06 104.228 107.283ZM109.585 133.482C112.68 134.335 117.225 136.724 110.638 139.457C105.34 141.655 102.124 142.303 100.12 142.506C99.011 142.618 98.2736 142.594 97.7606 142.62C97.1094 142.654 94.6678 143.918 92.0148 145.256C88.8047 146.876 85.2852 148.604 84.2542 148.395C82.3712 148.013 80.827 143.374 84.1807 141.8C85.1964 141.324 87.0557 140.8 89.1885 140.299C91.7506 139.696 94.7073 139.126 97.0708 138.708C97.937 138.555 98.7236 138.423 99.3818 138.316C102.488 136.614 108.878 133.262 109.585 133.482Z" stroke="black"/>
<path d="M87.9315 51.4745L84.9185 51.4745L80.2833 57.9791C80.6696 60.1171 81.6275 64.5198 82.3692 65.0257C82.4273 65.0654 82.5066 65.0638 82.6042 65.0257C82.7962 66.8927 83.273 70.6087 83.6438 70.5365C84.1074 70.4461 80.573 74.5115 81.9056 75.6859C82.9717 76.6255 84.7447 74.1501 85.4979 72.795C85.7234 72.7871 85.9834 72.7499 86.2677 72.6763V76.9507C84.0218 80.3836 81.2104 86.2197 87.9315 82.1001C88.5604 82.1871 89.3785 82.1723 90.2681 81.9724V86.1021C88.9838 88.4086 86.5802 93.1075 87.2408 93.4508C87.9013 93.7941 90.3369 91.5197 91.4722 90.3397C92.0691 90.3676 92.6246 90.3358 93.1415 90.2524C93.1055 91.6943 93.0874 94.6715 93.3027 95.0444C93.518 95.4173 91.3693 100.141 90.2681 102.456C91.1003 103.031 93.3745 102.978 95.8141 98.1677V101.414L93.1415 105.293L96.9302 104.602L97.6058 107.459C98.5069 107.044 99.4225 106.463 99.9602 105.826C100.406 105.744 100.924 105.572 101.473 105.293C104.034 103.989 107.257 100.348 106.857 92.4987C106.288 91.7884 106.468 84.2657 104.774 89.1783H103.022C103.047 88.8747 103.067 88.5616 103.079 88.2385C103.836 86.3068 105.327 82.2692 105.232 81.5725C105.112 80.7016 104.395 79.6613 101.285 83.6236L99.1751 83.6837C99.4369 82.5909 99.5453 81.5426 99.5506 80.7016C102.247 77.1022 102.309 74.6441 101.915 74.0598C101.6 73.5923 98.9876 76.0396 97.7208 77.3217L96.0974 76.6774C96.4079 75.9092 96.6656 75.0405 96.8543 74.0598C98.129 72.8251 100.678 69.9764 100.678 68.4586C100.678 66.5615 97.4338 66.2904 95.8114 67.8262C95.1388 66.6492 93.4044 64.5579 91.8475 65.609C91.9427 65.2233 92.0283 64.8183 92.1032 64.3933C93.8607 62.5865 97.2715 58.6295 96.8543 57.2563C96.3328 55.5399 92.6247 57.8887 91.2341 58.6114C90.7141 57.9211 89.5 56.6121 88.8029 56.8984C88.9665 56.6431 89.1209 56.3998 89.2641 56.1722C90.7898 54.8171 93.6444 51.4926 92.8564 49.0353C92.0684 46.578 89.2448 49.6376 87.9315 51.4745Z" fill="#F7EFA5"/>
<path d="M82.6042 65.0257C82.5066 65.0638 82.4273 65.0654 82.3692 65.0257C81.6275 64.5198 80.6696 60.1171 80.2833 57.9791L84.9185 51.4745L87.9315 51.4745C89.2448 49.6376 92.0684 46.578 92.8564 49.0353C93.6444 51.4926 90.7898 54.8171 89.2641 56.1722C89.1209 56.3998 88.9665 56.6431 88.8029 56.8984M82.6042 65.0257C82.7962 66.8927 83.273 70.6087 83.6438 70.5365C84.1074 70.4461 80.573 74.5115 81.9056 75.6859C82.9717 76.6255 84.7447 74.1501 85.4979 72.795C85.7234 72.7871 85.9834 72.7499 86.2677 72.6763M82.6042 65.0257C83.6612 64.6128 86.8715 59.9131 88.8029 56.8984M88.8029 56.8984C89.5 56.6121 90.7141 57.9211 91.2341 58.6114C92.6247 57.8887 96.3328 55.5399 96.8543 57.2563C97.2715 58.6295 93.8607 62.5865 92.1032 64.3933C92.0283 64.8183 91.9427 65.2233 91.8475 65.609M86.2677 72.6763V76.9507C84.0218 80.3836 81.2104 86.2197 87.9315 82.1001C88.5604 82.1871 89.3785 82.1723 90.2681 81.9724M86.2677 72.6763C88.0104 72.2253 90.664 70.4083 91.8475 65.609M91.8475 65.609C93.4044 64.5579 95.1388 66.6492 95.8114 67.8262C97.4338 66.2904 100.678 66.5615 100.678 68.4586C100.678 69.9764 98.129 72.8251 96.8543 74.0598C96.6656 75.0405 96.4079 75.9092 96.0974 76.6774M96.0974 76.6774L97.7208 77.3217C98.9876 76.0396 101.6 73.5923 101.915 74.0598C102.309 74.6441 102.247 77.1022 99.5506 80.7016C99.5453 81.5426 99.4369 82.5909 99.1751 83.6837M96.0974 76.6774C94.7208 80.0838 92.3065 81.5142 90.2681 81.9724M90.2681 81.9724V86.1021C88.9838 88.4086 86.5802 93.1075 87.2408 93.4508C87.9013 93.7941 90.3369 91.5197 91.4722 90.3397C92.0691 90.3676 92.6246 90.3358 93.1415 90.2524M93.1415 90.2524C93.1055 91.6943 93.0874 94.6715 93.3027 95.0444C93.518 95.4173 91.3693 100.141 90.2681 102.456C91.1003 103.031 93.3745 102.978 95.8141 98.1677M93.1415 90.2524C96.7778 89.6654 98.4947 86.524 99.1751 83.6837M95.8141 98.1677C98.0151 98.2423 102.401 96.5144 103.022 89.1783M95.8141 98.1677V101.414L93.1415 105.293L96.9302 104.602L97.6058 107.459C98.5069 107.044 99.4225 106.463 99.9602 105.826C100.406 105.744 100.924 105.572 101.473 105.293C104.034 103.989 107.257 100.348 106.857 92.4987M99.1751 83.6837L101.285 83.6236C104.395 79.6613 105.112 80.7016 105.232 81.5725C105.327 82.2692 103.836 86.3068 103.079 88.2385C103.067 88.5616 103.047 88.8747 103.022 89.1783M106.83 92.0439C106.841 92.1971 106.85 92.3486 106.857 92.4987M106.857 92.4987C106.288 91.7884 106.468 84.2657 104.774 89.1783H103.022M106.857 92.4987L108.598 92.0439" stroke="black"/>
<path d="M35.5112 24.1231C20.2096 23.1507 16.5421 28.4874 15.4921 31.9484C16.0189 32.8061 16.847 33.6543 17.8664 34.4746C15.7911 40.187 17.6735 42.7099 17.4776 42.1801C17.321 41.7562 19.4526 38.102 20.538 36.3278C21.1868 36.7253 21.864 37.1113 22.5543 37.4834C20.2439 41.4155 22.7468 45.577 22.5826 45.1169C22.4513 44.7489 24.3394 40.7977 25.2999 38.8681C26.1396 39.2664 26.9691 39.6397 27.7615 39.9834C26.1721 43.4035 27.763 45.6843 28.1168 46.234C28.1147 46.3004 28.1255 46.3419 28.1512 46.3544C28.2074 46.382 28.1852 46.3404 28.1168 46.234C28.1368 45.583 29.398 42.5386 30.089 40.9573C31.5235 41.5371 32.6739 41.9674 33.2952 42.2073C32.5354 45.4107 34.5121 48.2546 34.5733 47.7966C34.6222 47.4301 35.4865 44.2865 35.9126 42.7604C36.8236 42.8808 37.9631 43.0209 39.2006 43.1676C38.0476 45.4523 39.8914 48.8315 40.5715 48.442C41.1156 48.1304 41.5004 44.9838 41.6247 43.4494C42.2748 43.5238 42.9288 43.5977 43.5708 43.6696C42.9867 44.3298 44.6721 49.2775 45.3063 49.3715C45.8137 49.4468 46.0229 45.7855 46.0641 43.9455C46.7271 44.018 47.3464 44.0851 47.8981 44.1442C47.8981 44.1442 48.1081 44.2008 48.4905 44.3049C48.2783 45.7457 49.2991 48.8889 49.7646 48.6291C50.137 48.4212 50.9179 46.1684 51.2618 45.068C51.8811 45.2402 52.567 45.432 53.3033 45.6395C52.9364 45.9793 53.0828 48.6292 54.1393 49.0387C54.9845 49.3664 55.6153 47.387 55.8251 46.3563C56.7107 46.6103 57.634 46.8774 58.5747 47.153C58.3097 47.7348 58.6618 49.8596 59.3686 49.7684C59.934 49.6954 60.4454 48.3995 60.6304 47.7607C62.7928 48.4061 64.9693 49.0766 66.9247 49.7159C62.939 50.1824 58.855 51.4128 55.4518 52.6645L53.9252 50.8079L53.9086 53.2503C52.9886 53.6101 52.1362 53.9619 51.3703 54.2876L49.6823 51.937L50.05 54.8589C48.9237 55.3541 48.0914 55.7377 47.6516 55.9157L46.3109 53.5517L46.2839 56.747C45.5577 57.1542 44.6532 57.5005 43.6435 57.796C43.5011 57.8384 42.523 55.9322 42.0518 54.9737L41.8345 58.2523C40.9691 58.4411 40.0646 58.6022 39.1564 58.7407L37.2445 55.5083L37.423 58.9791C36.7351 59.0644 36.0581 59.1383 35.4076 59.2028C34.8954 58.2665 33.8558 56.418 33.7955 56.5141C33.7351 56.6102 33.7646 58.4455 33.7869 59.3511C33.1655 59.4036 32.5882 59.4481 32.0733 59.4869L30.0006 57.084L30.3722 59.6197C30.1866 59.6364 30.0313 59.6524 29.9102 59.6682C29.7178 59.6931 29.4006 59.6855 28.9914 59.6538L28.9522 59.4797L28.8132 59.639C28.4395 59.6059 28.0011 59.5559 27.5188 59.4942L27.1209 56.9521L26.2334 59.3187C25.8915 59.2697 25.5391 59.2179 25.1814 59.1646L25.0969 58.7211L24.5597 59.0713C23.9725 58.9826 23.3795 58.892 22.803 58.8053L22.4902 56.6612L21.6124 58.6289C19.4402 58.3141 17.791 58.1263 18.1161 58.4374C24.5593 69.1854 27.5057 67.5304 41.8759 68.8713C56.4259 69.2564 71.6897 63.5102 77.3141 64.2518C78.3228 64.1522 83.2448 65.0202 82.812 63.7894C82.3793 62.5585 83.3097 60.6181 83.7986 60.2636C90.1697 60.739 91.8957 58.6985 91.5638 56.3004C94.5709 56.6629 95.478 57.1413 96.2024 56.2623C98.3506 53.6554 99.2456 51.4074 99.7185 51.0822C108.159 45.2828 103.928 37.3841 103.094 36.9752C102.427 36.6482 102.171 35.8573 101.407 35.3368C100.793 35.2532 97.6795 33.599 94.9621 30.7877C92.2446 27.9764 86.5441 27.6899 86.2662 27.5537C85.9882 27.4174 81.3701 25.9505 81.1848 25.8596C81.0366 25.7869 71.5136 25.085 69.1424 23.9224C61.6949 23.9982 54.9843 25.3607 35.5112 24.1231Z" fill="#F7EFA5"/>
<path d="M91.5638 56.3004C94.5709 56.6629 95.478 57.1413 96.2024 56.2623C98.3506 53.6554 99.2456 51.4074 99.7185 51.0822C108.159 45.2828 103.928 37.3841 103.094 36.9752C102.427 36.6482 102.171 35.8573 101.407 35.3368C100.793 35.2532 97.6795 33.599 94.9621 30.7877C92.2446 27.9764 86.5441 27.6899 86.2662 27.5537C85.9882 27.4174 81.3701 25.9505 81.1848 25.8596C81.0366 25.7869 71.5136 25.085 69.1424 23.9224C61.6949 23.9982 54.9843 25.3607 35.5112 24.1231C20.2096 23.1507 16.5421 28.4874 15.4921 31.9484C16.0189 32.8061 16.847 33.6543 17.8664 34.4746M91.5638 56.3004C91.8957 58.6985 90.1697 60.739 83.7986 60.2636C83.3097 60.6181 82.3793 62.5585 82.812 63.7894C83.2448 65.0202 78.3228 64.1522 77.3141 64.2518C71.6897 63.5102 56.4259 69.2564 41.8759 68.8713C27.5057 67.5304 24.5593 69.1854 18.1161 58.4374M91.5638 56.3004C88.6235 55.946 84.9944 55.159 81.463 54.2541M18.1161 58.4374C18.1694 58.4572 20.4947 59.1854 23.1231 60.0078M18.1161 58.4374C17.791 58.1263 19.4402 58.3141 21.6124 58.6289M59.575 57.7597C59.117 57.9675 58.6417 58.1762 58.1509 58.3846M59.575 57.7597C59.2045 58.0648 58.0767 55.8752 57.5591 54.7423C56.9337 55.7373 57.6931 57.5851 58.1509 58.3846M59.575 57.7597C60.2012 57.4766 60.9617 57.1612 61.8271 56.835M81.463 54.2541C77.8945 53.3397 74.4258 52.305 71.8687 51.4746C70.5931 50.9559 68.8681 50.3513 66.9247 49.7159M81.463 54.2541C76.7225 53.1308 70.8196 54.0984 66.0784 55.4394M66.9247 49.7159C64.9693 49.0766 62.7928 48.4061 60.6304 47.7607M66.9247 49.7159C62.9389 50.1824 58.855 51.4128 55.4518 52.6645M32.3918 62.839C31.9733 62.1411 31.1592 60.7089 31.2507 60.5634C31.365 60.3815 30.3886 62.2781 30.5865 62.3438M32.3918 62.839C31.7693 62.7051 31.1664 62.5408 30.5865 62.3438M32.3918 62.839C33.3255 63.0398 34.3033 63.1723 35.3137 63.2445M30.5865 62.3438C30.5644 62.3363 30.1651 62.211 29.5218 62.0096M37.5325 63.31C36.8516 62.4335 35.5296 60.6703 35.688 60.6291C35.886 60.5776 35.0861 63.2293 35.3137 63.2445M37.5325 63.31C36.7789 63.3171 36.0379 63.2963 35.3137 63.2445M37.5325 63.31C38.3578 63.3021 39.1983 63.2608 40.0483 63.1898M42.0176 62.9761C41.7807 63.0068 39.8163 60.1868 40.0602 60.1281C40.3041 60.0693 39.5764 62.9651 40.0483 63.1898M42.0176 62.9761C41.3572 63.0635 40.6999 63.1354 40.0483 63.1898M42.0176 62.9761C42.5459 62.9061 43.0761 62.8261 43.6072 62.7371M45.4188 62.3994C44.8891 61.2678 43.8619 58.9669 43.99 58.8157C44.1501 58.6268 43.169 62.5303 43.6072 62.7371M45.4188 62.3994C44.8152 62.5228 44.2107 62.6358 43.6072 62.7371M45.4188 62.3994C46.1514 62.2496 46.8827 62.0844 47.6094 61.9062M49.1082 61.519C48.3159 60.4815 46.7743 58.4038 46.9466 58.3932C47.1619 58.3799 46.8404 61.8346 47.6094 61.9062M49.1082 61.519C48.6116 61.6537 48.1116 61.7831 47.6094 61.9062M49.1082 61.519C49.6683 61.367 50.2242 61.2081 50.7742 61.0435M52.6547 60.4515L50.2967 57.2127C50.3575 58.4417 50.538 60.9283 50.7742 61.0435M52.6547 60.4515C52.0372 60.6554 51.4096 60.8533 50.7742 61.0435M52.6547 60.4515C53.2237 60.2637 53.7841 60.0707 54.334 59.8741M55.9211 59.2855L53.8839 56.4456C53.742 57.524 53.6335 59.7195 54.334 59.8741M55.9211 59.2855C55.4034 59.4844 54.8738 59.681 54.334 59.8741M55.9211 59.2855C56.6929 58.9889 57.4382 58.6872 58.1509 58.3846M61.8271 56.835C61.3809 55.7468 60.5491 53.4967 60.7916 53.2024C61.5988 54.3044 63.2589 56.4583 63.4414 56.2582M61.8271 56.835C62.3315 56.645 62.8716 56.4512 63.4414 56.2582M63.4414 56.2582C63.916 56.0975 64.4112 55.9372 64.9237 55.7799M64.9237 55.7799C64.5594 54.7973 63.8894 52.773 64.1237 52.5377C64.358 52.3023 65.5245 54.3741 66.0784 55.4394M64.9237 55.7799C65.2997 55.6645 65.6851 55.5507 66.0784 55.4394M60.6304 47.7607C60.4454 48.3995 59.934 49.6954 59.3686 49.7684C58.6618 49.8596 58.3097 47.7348 58.5747 47.153M60.6304 47.7607C59.9412 47.555 59.2534 47.3518 58.5747 47.153M58.5747 47.153C57.634 46.8774 56.7107 46.6103 55.8251 46.3563M55.8251 46.3563C55.6153 47.387 54.9845 49.3664 54.1393 49.0387C53.0828 48.6292 52.9364 45.9793 53.3033 45.6395M55.8251 46.3563C54.9402 46.1026 54.0928 45.862 53.3033 45.6395M53.3033 45.6395C52.567 45.432 51.8811 45.2402 51.2618 45.068M51.2618 45.068C50.9179 46.1684 50.137 48.4212 49.7646 48.6291C49.2991 48.8889 48.2783 45.7457 48.4905 44.3049M51.2618 45.068C50.0327 44.7262 49.0662 44.4617 48.4905 44.3049M48.4905 44.3049C48.1081 44.2008 47.8981 44.1442 47.8981 44.1442C47.3464 44.0851 46.7271 44.018 46.0641 43.9455M46.0641 43.9455C46.0229 45.7855 45.8137 49.4468 45.3063 49.3715C44.6721 49.2775 42.9867 44.3298 43.5708 43.6696M46.0641 43.9455C45.281 43.8599 44.4368 43.7666 43.5708 43.6696M43.5708 43.6696C42.9288 43.5977 42.2748 43.5238 41.6247 43.4494M41.6247 43.4494C41.5004 44.9838 41.1156 48.1304 40.5715 48.442C39.8914 48.8315 38.0476 45.4523 39.2006 43.1676M41.6247 43.4494C40.7995 43.3551 39.9806 43.26 39.2006 43.1676M39.2006 43.1676C37.9631 43.0209 36.8236 42.8808 35.9126 42.7604M35.9126 42.7604C34.6895 42.5988 33.8781 42.4728 33.7938 42.414C33.7575 42.3888 33.5832 42.3185 33.2952 42.2073M35.9126 42.7604C35.4865 44.2865 34.6223 47.4301 34.5733 47.7966C34.5121 48.2546 32.5354 45.4107 33.2952 42.2073M33.2952 42.2073C32.6739 41.9674 31.5235 41.5371 30.089 40.9573M30.089 40.9573C29.3275 42.6997 27.874 46.2185 28.1512 46.3544C28.4977 46.5243 25.8646 44.0652 27.7615 39.9834M30.089 40.9573C29.3737 40.6681 28.5877 40.3418 27.7615 39.9834M27.7615 39.9834C26.9691 39.6397 26.1396 39.2664 25.2999 38.8681M25.2999 38.8681C24.3394 40.7977 22.4513 44.7489 22.5826 45.1169C22.7468 45.577 20.2439 41.4155 22.5543 37.4834M25.2999 38.8681C24.3853 38.4343 23.4586 37.9708 22.5543 37.4834M22.5543 37.4834C21.864 37.1113 21.1868 36.7252 20.538 36.3278M20.538 36.3278C19.4526 38.102 17.321 41.7562 17.4776 42.1801C17.6735 42.7099 15.7911 40.187 17.8664 34.4746M20.538 36.3278C19.5664 35.7327 18.6586 35.1121 17.8664 34.4746M30.3722 59.6197C30.1866 59.6364 30.0313 59.6524 29.9102 59.6682C29.5253 59.7182 28.6406 59.6377 27.5188 59.4942M30.3722 59.6197L30.0006 57.084L32.0733 59.4869M30.3722 59.6197C30.7959 59.5815 31.3778 59.5393 32.0733 59.4869M32.0733 59.4869C32.5882 59.4481 33.1655 59.4036 33.7869 59.3511M33.7869 59.3511C33.7646 58.4455 33.7351 56.6102 33.7955 56.5141C33.8558 56.418 34.8954 58.2665 35.4076 59.2028M33.7869 59.3511C34.3004 59.3077 34.844 59.2587 35.4076 59.2028M35.4076 59.2028C36.0581 59.1383 36.7351 59.0644 37.423 58.9791M37.423 58.9791L37.2445 55.5083L39.1564 58.7407M37.423 58.9791C37.9963 58.908 38.5771 58.829 39.1564 58.7407M39.1564 58.7407C40.0646 58.6022 40.9691 58.4411 41.8345 58.2523M41.8345 58.2523L42.0518 54.9737C42.523 55.9322 43.5011 57.8384 43.6435 57.796M41.8345 58.2523C42.4625 58.1154 43.07 57.9639 43.6435 57.796M43.6435 57.796C44.6532 57.5005 45.5577 57.1542 46.2839 56.747M46.2839 56.747C46.6812 56.5242 47.0251 56.2831 47.3037 56.0222C47.3312 56.0357 47.4503 55.9972 47.6516 55.9157M46.2839 56.747L46.3109 53.5517L47.6516 55.9157M47.6516 55.9157C48.0914 55.7377 48.9237 55.3541 50.05 54.8589M50.05 54.8589L49.6823 51.937L51.3703 54.2876M50.05 54.8589C50.4538 54.6814 50.8954 54.4895 51.3703 54.2876M51.3703 54.2876C52.1362 53.9619 52.9886 53.6101 53.9086 53.2503M53.9086 53.2503L53.9252 50.8079C54.4341 51.4268 55.4518 52.6645 55.4518 52.6645M53.9086 53.2503C54.4044 53.0564 54.9197 52.8602 55.4518 52.6645M62.8293 42.2115C59.186 38.1002 63.6075 32.1779 66.2736 29.7307C69.5252 28.2282 72.0617 28.4423 73.9571 29.411M62.8293 42.2115C64.3301 43.7048 68.0132 46.2819 70.7401 44.6445C71.5487 41.7361 74.1713 35.6686 78.1928 34.666C77.6741 32.978 76.3094 30.6133 73.9571 29.411M62.8293 42.2115C62.6365 41.6025 69.9072 37.048 71.6821 36.7486C73.1021 36.5092 72.5589 34.9549 72.1098 34.2077C72.7859 33.4602 74.0552 31.9004 73.7226 31.6414C73.39 31.3824 73.7403 30.0466 73.9571 29.411M92.4253 38.0916C91.9207 39.1386 90.9441 41.3643 91.0738 41.8905C91.2359 42.5484 87.0561 48.1003 87.6013 48.698M38.5238 35.7906C37.5553 36.1391 35.2333 36.5135 33.693 35.2226M29.1317 34.2174C28.7978 35.2075 27.9376 37.0936 27.1681 36.7163M57.2956 28.0362C56.3922 28.1085 55.4935 28.2661 54.7471 28.4452C54.233 28.5593 55.7826 29.6692 51.3944 27.9039M57.2956 28.0362C60.0969 27.8121 62.9436 28.4079 61.4345 31.7241C59.7156 33.2541 56.4266 36.8002 57.0224 38.7448C56.7146 39.65 55.4171 41.1974 52.6887 40.1457C50.2336 39.1992 50.8227 38.8042 48.8424 37.8408M57.2956 28.0362C56.4659 29.2637 54.6217 31.6758 53.8823 31.5051C52.9581 31.2918 47.8133 35.8321 48.8424 37.8408M48.8424 37.8408C48.0719 37.466 46.9124 37.0051 45.0334 36.3922C44.0351 36.0665 43.2365 35.6902 42.6035 35.2843M51.3944 27.9039C51.1422 27.8025 50.8704 27.6916 50.5775 27.5704C46.2655 25.7866 42.359 28.4705 40.9447 30.0354C40.2339 31.1665 39.8334 33.5081 42.6035 35.2843M51.3944 27.9039C50.9371 29.1761 49.8026 31.7436 48.9232 31.8361C47.824 31.9517 42.7018 34.5706 42.6035 35.2843M78.1681 28.1743C81.2648 30.1819 85.4701 35.2796 77.5185 39.6103M29.5218 62.0096L28.9522 59.4797L27.3406 61.3271M29.5218 62.0096C28.9542 61.8319 28.1966 61.5949 27.3406 61.3271M27.3406 61.3271C26.7574 61.1447 26.1285 60.9479 25.4829 60.746M25.4829 60.746L25.0969 58.7211L23.1231 60.0078M25.4829 60.746C24.7037 60.5023 23.9002 60.2509 23.1231 60.0078M21.6124 58.6289L22.4902 56.6612L22.803 58.8053M21.6124 58.6289C21.9957 58.6844 22.3952 58.7439 22.803 58.8053M22.803 58.8053C23.9394 58.9763 25.1403 59.1622 26.2334 59.3187M26.2334 59.3187L27.1209 56.9521L27.5188 59.4942M26.2334 59.3187C26.6843 59.3832 27.1168 59.4428 27.5188 59.4942M36.8091 28.0077C37.9384 30.0644 39.3844 34.073 36.1334 33.6531C32.8824 33.2333 32.8979 31.0883 33.3121 30.0683C34.1768 29.4431 36.0869 28.1557 36.8091 28.0077ZM24.1534 32.4911C23.142 32.015 20.7939 31.9578 21.0858 30.6925C21.3777 29.4272 23.6471 29.0633 25.8244 27.7259C26.6523 27.8684 28.4071 28.0277 27.9175 29.0069C27.3055 30.231 26.6645 32.7502 24.1534 32.4911Z" stroke="black"/>
<path d="M121.366 80.3806L118.389 79.7532C116.509 86.9388 110.097 88.256 105.513 87.8942C104.531 87.8168 103.633 87.6622 102.881 87.4718C101.802 87.7175 100.126 87.6898 98.5277 87.524C97.2509 89.1893 94.449 93.2994 93.4556 96.4167C92.1727 97.4118 89.5502 99.4189 89.3237 99.4864C89.2188 99.5177 89.1499 100.062 89.2864 100.785C89.3595 101.172 89.4915 101.611 89.7083 102.049C90.1542 102.952 90.9589 103.855 92.3484 104.313C91.2146 108.107 89.1241 117.465 89.832 124.54C91.0445 124.894 92.4108 125.363 93.4928 125.756C93.0167 122.518 96.0288 111.375 97.5943 106.208C98.1817 107.609 100.513 108.516 106.76 106.843L107.087 106.962L105.892 109.228C107.72 110.4 106.378 111.586 105.184 112.192C104.111 115.14 104.529 122.383 104.872 125.637C101.849 128.927 98.7271 131.426 96.5195 133.501C92.4438 137.332 93.1658 138.199 94.0364 138.154C98.5048 136.911 102.337 134.727 105.621 131.988C105.977 134.655 107.007 140.394 108.285 142.016C109.562 143.637 109.867 142.806 109.86 142.188L108.836 128.962C112.849 124.726 115.884 119.688 118.173 114.847C117.813 115.623 119.768 126.226 120.791 131.431C116.062 137.969 111.287 142.294 110.247 143.547C108.433 145.736 109.818 145.893 110.737 145.698C115.19 143.411 118.985 140.28 122.2 136.679C122.199 137.611 122.642 140.436 124.423 144.275C126.65 149.073 126.285 145.396 126.678 145.095C126.993 144.855 125.798 136.946 125.161 133.021C126.774 130.83 128.209 128.526 129.48 126.177C130.193 128.478 131.652 133.302 131.784 134.185C131.95 135.29 134.022 136.606 134.28 135.897C134.539 135.188 131.975 121.068 132.209 120.529C135.263 113.421 136.959 106.392 137.683 101.247C138.727 106.675 141.041 117.662 141.944 118.192C140.552 126.042 137.336 135.879 130.916 147.081C130.705 148.223 130.853 149.895 133.131 147.444C134.896 145.546 140.921 138.359 144.745 126.314C145.107 126.595 147.413 130.698 148.342 131.036C149.272 131.374 149.883 131.46 149.381 129.788C148.979 128.451 147.134 123.186 146.261 120.721C147.684 114.427 148.419 107.085 147.805 98.7381L149.953 101.226C153.997 134.702 146.025 140.614 145.063 143.786C144.293 146.324 145.697 145.191 146.495 144.308C156.499 132.828 156.751 110.307 155.627 100.481C155.871 100.059 156.099 99.6456 156.312 99.2399C156.526 99.8146 157.434 101.36 159.355 102.942C161.756 104.92 157.886 128.455 155.821 133.758C154.169 138 156.171 136.338 157.378 134.977C165.233 123.993 165.067 109.435 164.002 103.53C164.751 102.269 165.376 101.084 165.894 99.9711L168.245 101.61C173.058 104.365 169.931 123.442 169.44 126.041C169.046 128.12 170.025 127.179 170.563 126.449C175.355 119.675 174.841 107.374 173.985 102.069C174.128 102.485 176.602 102.871 177.822 103.011C179.985 105.387 178.908 117.404 176.845 121.369C175.195 124.541 177.616 122.924 179.033 121.719C182.476 118.683 182.392 108.315 181.919 103.51C182.262 103.73 183.041 103.785 183.676 102.513L187.731 103.989C188.952 103.613 191.397 102.767 191.411 102.393C191.429 101.925 186.672 94.322 184.257 93.144C184.243 92.9133 184.229 92.6982 184.215 92.5021C182.063 90.8306 181.701 88.1099 181.789 86.9585C179.891 77.4605 177.871 81.5621 177.098 84.8001L175.67 85.0697C175.039 84.4146 174.363 83.9165 173.736 83.5764C170.252 74.3704 168.366 81.7422 168.259 82.0343C168.174 82.2679 166.624 83.4801 165.859 84.0569C165.391 83.4459 164.872 82.8243 164.528 82.4284C161.157 70.9248 160.289 82.5101 159.824 82.341C159.453 82.2057 157.711 82.8452 156.886 83.1819C156.181 82.2319 155.543 81.7007 155.422 81.5278C151.48 69.809 149.387 80.4191 149.362 80.927C149.343 81.3332 148.767 81.8087 148.481 81.9957C147.96 81.0453 146.839 80.2414 144.925 80.0229C139.607 68.2043 138.846 80.4318 139.053 80.7463C137.749 81.1223 136.293 81.6476 134.673 82.3506C134.43 82.2624 134.025 79.227 134.125 78.9528C129.505 72.4153 129.098 79.3792 129.055 81.3827C129.02 82.9856 127.637 83.0414 126.95 82.869L126.724 82.3307C127.537 81.386 127.949 77.1369 126.083 76.0256C124.59 75.1366 122.316 78.5585 121.366 80.3806Z" fill="#F7EFA5"/>
<path d="M93.7431 128.356C93.2573 128.131 92.9606 127.933 92.7426 127.817C92.4659 127.67 91.1282 127.665 89.6839 127.643C89.2193 129.921 91.8654 133.111 92.3102 133.729C92.316 133.779 92.3289 133.812 92.3497 133.826C92.3926 133.854 92.3742 133.818 92.3102 133.729C92.2392 133.12 93.2089 129.972 93.7431 128.356Z" fill="#F7EFA5"/>
<path d="M118.492 79.3346C118.46 79.4763 118.425 79.6158 118.389 79.7532M118.389 79.7532L121.366 80.3806C122.316 78.5585 124.59 75.1366 126.083 76.0256C127.949 77.1369 127.537 81.386 126.724 82.3307L126.95 82.869M118.389 79.7532C116.509 86.9388 110.097 88.256 105.513 87.8942M127.982 85.3259L113.82 92.171C111.586 91.9833 107.047 91.8039 106.762 92.5872M127.982 85.3259L126.95 82.869M127.982 85.3259C130.293 84.3636 134.867 82.4212 134.673 82.3506M106.762 92.5872C106.405 93.5663 105.343 88.0013 105.513 87.8942M106.762 92.5872C102.445 93.9785 98.9897 100.698 97.8017 103.884M105.513 87.8942C104.531 87.8168 103.633 87.6622 102.881 87.4718C101.802 87.7175 100.126 87.6898 98.5277 87.524C97.2509 89.1893 94.449 93.2994 93.4556 96.4167C92.1727 97.4118 89.5502 99.4189 89.3237 99.4864C89.2188 99.5177 89.1499 100.062 89.2864 100.785M126.95 82.869C127.637 83.0414 129.02 82.9856 129.055 81.3827C129.098 79.3792 129.505 72.4153 134.125 78.9528C134.025 79.227 134.43 82.2624 134.673 82.3506M134.673 82.3506C136.293 81.6476 137.749 81.1223 139.053 80.7463M97.8017 103.884C97.2519 104.384 95.4391 105.184 92.5863 104.385C92.5051 104.363 92.4258 104.338 92.3484 104.313M97.8017 103.884C97.4599 104.592 97.2845 105.469 97.5943 106.208M86.407 99.7369C86.5726 99.7972 88.3956 100.461 89.2864 100.785M89.2864 100.785C89.3595 101.172 89.4915 101.611 89.7083 102.049C90.1542 102.952 90.9589 103.855 92.3484 104.313M104.739 112.395C104.88 112.338 105.031 112.27 105.184 112.192M94.5464 126.149C94.2478 126.034 93.8894 125.9 93.4928 125.756M97.5943 106.208C98.1817 107.609 100.513 108.516 106.76 106.843L107.087 106.962M97.5943 106.208C96.0288 111.375 93.0167 122.518 93.4928 125.756M93.4928 125.756C92.4108 125.363 91.0445 124.894 89.832 124.54C89.1241 117.465 91.2146 108.107 92.3484 104.313M126.112 92.5481C122.669 93.8595 120.123 95.021 118.801 95.9106C118.264 98.6656 117.039 104.518 116.432 105.888C116.087 106.666 115.043 107.339 113.964 107.839M126.112 92.5481C129.606 91.2174 134.025 89.7324 139.03 88.2204M126.112 92.5481C126.022 93.3319 125.747 94.7876 125.272 95.6214M113.964 107.839C113.142 108.22 112.3 108.501 111.732 108.653L107.087 106.962M113.964 107.839C113.166 112.463 111.521 116.329 109.493 119.606M139.03 88.2204C141.569 87.4533 144.259 86.6794 147.055 85.9151C147.859 85.6953 148.449 85.0487 148.702 84.2583M139.03 88.2204C139.886 90.3094 140.87 95.3915 137.95 99.008C137.929 99.2255 137.906 99.448 137.881 99.6754M125.272 95.6214C125.131 95.8689 124.972 96.0617 124.795 96.1657C124.716 96.2123 124.606 96.4892 124.458 96.962M125.272 95.6214C125.462 97.7407 126.831 98.9882 128.295 99.6745M139.053 80.7463C141.532 80.0313 143.46 79.8557 144.925 80.0229M139.053 80.7463C138.846 80.4318 139.607 68.2043 144.925 80.0229M144.925 80.0229C146.839 80.2414 147.96 81.0453 148.481 81.9957M137.881 99.6754L141.782 100.403C142.811 103.428 143.463 109.628 141.944 118.192M137.881 99.6754C137.826 100.177 137.76 100.701 137.683 101.247M147.805 98.7381C149.182 95.8788 151.29 88.9798 148.702 84.2583M147.805 98.7381L149.953 101.226C153.997 134.702 146.025 140.614 145.063 143.786C144.293 146.324 145.697 145.191 146.495 144.308C156.499 132.828 156.751 110.307 155.627 100.481C155.871 100.059 156.099 99.6456 156.312 99.2399M147.805 98.7381C148.419 107.085 147.684 114.427 146.261 120.721M148.702 84.2583C148.928 83.5515 148.884 82.7299 148.481 81.9957M148.481 81.9957C148.767 81.8087 149.343 81.3332 149.362 80.927C149.387 80.4191 151.48 69.809 155.422 81.5278C155.543 81.7007 156.181 82.2319 156.886 83.1819M156.886 83.1819C157.711 82.8452 159.453 82.2057 159.824 82.341C160.289 82.5101 161.157 70.9248 164.528 82.4284C164.872 82.8243 165.391 83.4459 165.859 84.0569M156.886 83.1819C158.658 85.5691 160.852 90.6012 156.312 99.2399M156.312 99.2399C156.526 99.8146 157.434 101.36 159.355 102.942C161.756 104.92 157.886 128.455 155.821 133.758C154.169 138 156.171 136.338 157.378 134.977C165.233 123.993 165.067 109.435 164.002 103.53C164.751 102.269 165.376 101.084 165.894 99.9711M165.859 84.0569C166.371 84.7242 166.822 85.3789 166.921 85.7128C167.131 86.4268 170.22 90.6804 165.894 99.9711M165.859 84.0569C166.624 83.4801 168.174 82.2679 168.259 82.0343C168.366 81.7422 170.252 74.3704 173.736 83.5764C174.363 83.9165 175.039 84.4146 175.67 85.0697M173.985 102.069C174.841 107.374 175.355 119.675 170.563 126.449C170.025 127.179 169.046 128.12 169.44 126.041C169.931 123.442 173.058 104.365 168.245 101.61C167.462 101.064 165.894 99.9711 165.894 99.9711M173.985 102.069C180.271 93.5717 178.378 87.878 175.67 85.0697M173.985 102.069C174.128 102.485 176.602 102.871 177.822 103.011C179.985 105.387 178.908 117.404 176.845 121.369C175.195 124.541 177.616 122.924 179.033 121.719C182.476 118.683 182.392 108.315 181.919 103.51C182.262 103.73 183.041 103.785 183.676 102.513M175.67 85.0697L177.098 84.8001C177.871 81.5621 179.891 77.4605 181.789 86.9585C181.701 88.1099 182.063 90.8306 184.215 92.5021C184.229 92.6982 184.243 92.9133 184.257 93.144M183.676 102.513C183.754 102.355 183.83 102.178 183.903 101.977C184.512 100.306 184.411 95.7379 184.257 93.144M183.676 102.513L187.731 103.989C188.952 103.613 191.397 102.767 191.411 102.393M191.411 102.393C191.429 101.925 186.672 94.322 184.257 93.144M191.411 102.393C193.6 103.189 194.032 107.006 193.974 108.814M128.295 99.6745C129.314 100.153 130.38 100.358 131.126 100.397C131.481 106.089 130.527 111.434 128.854 116.297M128.295 99.6745C128.167 104.447 128.101 114.453 128.854 116.297M128.854 116.297C127.638 119.832 126.042 123.112 124.294 126.086M132.209 120.529C131.975 121.068 134.539 135.188 134.28 135.897C134.022 136.606 131.95 135.29 131.784 134.185C131.652 133.302 130.193 128.478 129.48 126.177M132.209 120.529C131.397 122.417 130.49 124.311 129.48 126.177M132.209 120.529C135.263 113.421 136.959 106.392 137.683 101.247M129.48 126.177C128.209 128.526 126.774 130.83 125.161 133.021M124.458 96.962C124.989 100.155 125.734 106.995 124.467 108.813C123.2 110.631 123.823 121.086 124.294 126.086M124.458 96.962C123.705 99.3664 121.961 106.837 118.173 114.847M124.294 126.086C123.169 127.998 121.981 129.785 120.791 131.431M120.791 131.431C116.062 137.969 111.287 142.294 110.247 143.547C108.433 145.736 109.818 145.893 110.737 145.698C115.19 143.411 118.985 140.28 122.2 136.679M120.791 131.431C119.768 126.226 117.813 115.623 118.173 114.847M118.173 114.847C115.884 119.688 112.849 124.726 108.836 128.962M125.161 133.021C125.798 136.946 126.993 144.855 126.678 145.095C126.285 145.396 126.65 149.073 124.423 144.275C122.642 140.436 122.199 137.611 122.2 136.679M125.161 133.021C124.234 134.282 123.248 135.505 122.2 136.679M108.836 128.962L109.86 142.188C109.867 142.806 109.562 143.637 108.285 142.016C107.007 140.394 105.977 134.655 105.621 131.988M108.836 128.962C107.827 130.027 106.757 131.041 105.621 131.988M105.621 131.988C102.337 134.727 98.5048 136.911 94.0364 138.154C93.1658 138.199 92.4438 137.332 96.5195 133.501C98.7271 131.426 101.849 128.927 104.872 125.637M104.872 125.637C104.529 122.383 104.111 115.14 105.184 112.192M104.872 125.637C106.493 123.873 108.085 121.881 109.493 119.606M105.184 112.192C106.378 111.586 107.72 110.4 105.892 109.228L107.087 106.962M110.686 108.574C109.972 111.673 108.733 118.22 109.493 119.606M137.683 101.247C138.727 106.675 141.041 117.662 141.944 118.192M141.944 118.192C140.552 126.042 137.336 135.879 130.916 147.081C130.705 148.223 130.853 149.895 133.131 147.444C134.896 145.546 140.921 138.359 144.745 126.314M144.745 126.314C145.107 126.595 147.413 130.698 148.342 131.036C149.272 131.374 149.883 131.46 149.381 129.788C148.979 128.451 147.134 123.186 146.261 120.721M144.745 126.314C145.305 124.553 145.817 122.688 146.261 120.721M92.7426 127.817C92.9606 127.933 93.2573 128.131 93.7431 128.356C93.1649 130.105 92.0767 133.648 92.3497 133.826C92.6909 134.048 89.1524 130.249 89.6839 127.643C91.1282 127.665 92.4659 127.67 92.7426 127.817Z" stroke="black"/>
<path d="M123.564 104.194C122.354 104.764 120.504 102.125 119.489 102.41C118.383 103.42 117.74 106.775 115.743 107.658C115.364 110.444 115.636 127.607 116.573 131.882C115.733 133.896 113.998 137.981 113.777 138.212C113.674 138.318 113.961 138.994 114.611 139.739L110.507 140.463C110.271 140.504 107.741 146.743 106.506 149.857C104.961 151.332 101.231 154.862 98.6711 157.183C95.4714 160.085 101.06 160.725 102.374 160.239C103.687 159.754 105.265 161.457 107.832 161.868C110.399 162.279 108.967 152.776 109.588 152.159C110.085 151.665 114.224 147.852 116.231 146.008L115.964 140.918C117.1 141.662 118.659 142.166 120.607 141.762C120.716 141.739 120.826 141.714 120.937 141.686C124.84 140.691 126.437 138.547 126.747 137.599C126.002 133.163 127.976 116.104 132.033 111.365C132.141 111.379 132.19 111.332 132.169 111.212C132.123 111.261 132.078 111.312 132.033 111.365C130.91 111.218 123.447 104.411 123.564 104.194Z" fill="#F7EFA5"/>
<path d="M115.964 140.918L116.231 146.008C114.224 147.852 110.085 151.665 109.588 152.159C108.967 152.776 110.399 162.279 107.832 161.868C105.265 161.457 103.687 159.754 102.374 160.239C101.06 160.725 95.4714 160.085 98.6711 157.183C101.231 154.862 104.961 151.332 106.506 149.857C107.741 146.743 110.271 140.504 110.507 140.463C110.743 140.421 113.342 139.963 114.611 139.739M115.964 140.918C115.411 140.557 114.959 140.138 114.611 139.739M115.964 140.918C117.1 141.662 118.659 142.166 120.607 141.762C120.716 141.739 120.826 141.714 120.937 141.686C124.84 140.691 126.437 138.547 126.747 137.599C125.993 133.114 128.02 115.724 132.169 111.212C132.411 112.584 123.436 104.432 123.564 104.194C122.354 104.764 120.504 102.125 119.489 102.41C118.383 103.42 117.74 106.775 115.743 107.658C115.364 110.444 115.636 127.607 116.573 131.882C115.733 133.896 113.998 137.981 113.777 138.212C113.674 138.318 113.961 138.994 114.611 139.739" stroke="black"/>
<path d="M99.435 165.245C102.47 159.879 99.2104 161.844 96.8865 163.191C93.674 165.958 88.1642 176.396 87.4816 180.852C86.799 185.309 88.4593 179.696 90.6382 179.696C91.1904 179.696 90.6756 182.34 91.3988 182.276C94.3415 180.434 93.6145 173.182 94.342 171.627C94.8367 170.57 97.7269 166.725 99.435 165.245Z" fill="#F7EFA5" stroke="black"/>
<path d="M167.064 140.857C170.1 135.491 166.211 136.844 163.887 138.191C160.674 140.958 155.164 151.396 154.482 155.852C153.799 160.309 158.481 155.041 158.752 154.406C158.969 153.898 160.469 153.644 161.192 153.58C164.135 151.738 162.307 148.193 162.123 146.746C161.977 145.588 165.356 142.338 167.064 140.857Z" fill="#F7EFA5" stroke="black"/>
<path d="M81.8098 151.524C85.4001 147.87 81.9876 148.119 79.8326 148.7C76.6588 150.231 69.9912 157.424 68.4848 160.854C66.9784 164.285 71.8696 161.063 72.2235 160.612C72.5066 160.251 73.7657 160.369 74.3599 160.474C77.118 159.628 76.4131 156.389 76.5772 155.188C76.7085 154.227 80.1203 152.345 81.8098 151.524Z" fill="#F7EFA5" stroke="black"/>
<path d="M90.3226 185.861C91.4345 183.872 92.8431 187.369 93.4084 189.367L91.9965 195.354C91.1352 200.989 90.0377 199.419 89.5965 197.929C89.3752 194.735 89.2107 187.85 90.3226 185.861Z" fill="#F7EFA5"/>
<path d="M89.4802 201.812C89.4848 199.68 91.061 200.646 91.8485 201.395C92.7503 203.775 92.7386 209.74 92.62 212.425C91.5715 209.775 89.4756 203.944 89.4802 201.812Z" fill="#F7EFA5"/>
<path d="M97.9589 200.317L95.949 188.919C92.879 189.46 94.2836 199.096 94.8175 200.871C95.2446 202.291 97.0897 201.094 97.9589 200.317Z" fill="#F7EFA5"/>
<path d="M96.0551 204.377C96.3197 203.068 97.5844 203.581 98.1837 204.002C99.4663 206.19 98.9233 210.316 98.4915 212.105C97.5691 210.075 95.7906 205.687 96.0551 204.377Z" fill="#F7EFA5"/>
<path d="M90.3226 185.861C91.4345 183.872 92.8431 187.369 93.4084 189.367L91.9965 195.354C91.1352 200.989 90.0377 199.419 89.5965 197.929C89.3752 194.735 89.2107 187.85 90.3226 185.861Z" stroke="black"/>
<path d="M89.4802 201.812C89.4848 199.68 91.061 200.646 91.8485 201.395C92.7503 203.775 92.7386 209.74 92.62 212.425C91.5715 209.775 89.4756 203.944 89.4802 201.812Z" stroke="black"/>
<path d="M97.9589 200.317L95.949 188.919C92.879 189.46 94.2836 199.096 94.8175 200.871C95.2446 202.291 97.0897 201.094 97.9589 200.317Z" stroke="black"/>
<path d="M96.0551 204.377C96.3197 203.068 97.5844 203.581 98.1837 204.002C99.4663 206.19 98.9233 210.316 98.4915 212.105C97.5691 210.075 95.7906 205.687 96.0551 204.377Z" stroke="black"/>
<path d="M86.9819 196.216L86.9819 184.642C83.7921 183.254 83.5746 194.376 83.7921 196.216C83.9661 197.689 85.9911 196.83 86.9819 196.216Z" fill="#F7EFA5"/>
<path d="M83.7921 200.134C84.2801 198.89 85.5315 200.541 86.0486 201.06C86.4671 205.014 86.4762 213.817 85.7402 215.504C85.1844 213.345 83.3041 201.378 83.7921 200.134Z" fill="#F7EFA5"/>
<path d="M86.9819 196.216L86.9819 184.642C83.7921 183.254 83.5746 194.376 83.7921 196.216C83.9661 197.689 85.9911 196.83 86.9819 196.216Z" stroke="black"/>
<path d="M83.7921 200.134C84.2801 198.89 85.5315 200.541 86.0486 201.06C86.4671 205.014 86.4762 213.817 85.7402 215.504C85.1844 213.345 83.3041 201.378 83.7921 200.134Z" stroke="black"/>
<path d="M68.3411 163.622C69.2291 162.034 70.3539 164.827 70.8054 166.422L69.6778 171.203C68.9901 175.703 68.1136 174.449 67.7613 173.26C67.5846 170.709 67.4531 165.211 68.3411 163.622Z" fill="#F7EFA5"/>
<path d="M67.6684 176.361C67.6721 174.658 68.9308 175.429 69.5597 176.027C70.2798 177.928 70.2705 182.691 70.1758 184.835C69.3385 182.72 67.6647 178.063 67.6684 176.361Z" fill="#F7EFA5"/>
<path d="M74.4393 175.167L72.8343 166.064C70.3827 166.496 71.5043 174.191 71.9307 175.609C72.2717 176.743 73.7452 175.787 74.4393 175.167Z" fill="#F7EFA5"/>
<path d="M72.919 178.409C73.1304 177.363 74.1403 177.773 74.6189 178.109C75.6432 179.857 75.2095 183.151 74.8646 184.58C74.1281 182.959 72.7077 179.455 72.919 178.409Z" fill="#F7EFA5"/>
<path d="M68.3411 163.622C69.2291 162.034 70.3539 164.827 70.8054 166.422L69.6778 171.203C68.9901 175.703 68.1136 174.449 67.7613 173.26C67.5846 170.709 67.4531 165.211 68.3411 163.622Z" stroke="black"/>
<path d="M67.6684 176.361C67.6721 174.658 68.9308 175.429 69.5597 176.027C70.2798 177.928 70.2705 182.691 70.1758 184.835C69.3385 182.72 67.6647 178.063 67.6684 176.361Z" stroke="black"/>
<path d="M74.4393 175.167L72.8343 166.064C70.3827 166.496 71.5043 174.191 71.9307 175.609C72.2717 176.743 73.7452 175.787 74.4393 175.167Z" stroke="black"/>
<path d="M72.919 178.409C73.1304 177.363 74.1403 177.773 74.6189 178.109C75.6432 179.857 75.2095 183.151 74.8646 184.58C74.1281 182.959 72.7077 179.455 72.919 178.409Z" stroke="black"/>
<path d="M65.6733 171.892V162.649C63.126 161.54 62.9523 170.422 63.126 171.892C63.2649 173.068 64.8821 172.382 65.6733 171.892Z" fill="#F7EFA5"/>
<path d="M63.126 175.021C63.5157 174.027 64.5151 175.346 64.928 175.759C65.2622 178.917 65.2694 185.948 64.6817 187.295C64.2379 185.57 62.7362 176.014 63.126 175.021Z" fill="#F7EFA5"/>
<path d="M65.6733 171.892V162.649C63.126 161.54 62.9523 170.422 63.126 171.892C63.2649 173.068 64.8821 172.382 65.6733 171.892Z" stroke="black"/>
<path d="M63.126 175.021C63.5157 174.027 64.5151 175.346 64.928 175.759C65.2622 178.917 65.2694 185.948 64.6817 187.295C64.2379 185.57 62.7362 176.014 63.126 175.021Z" stroke="black"/>
<path d="M178.359 98.3113C176.702 96.9594 176.473 94.6943 176.565 93.7307C179.11 92.1594 186.74 91.2937 196.898 100.402C198.403 102.488 203.355 107.159 211.121 109.154C213.724 110.557 218.63 113.41 217.429 113.597C221.511 114.699 229.062 118.345 227.462 124.264C227.42 124.419 227.372 124.575 227.317 124.733C226.345 127.544 222.899 127.724 218.89 126.791C216.836 126.313 214.635 125.543 212.542 124.686C209.265 123.343 206.256 121.786 204.505 120.8C203.546 120.261 202.963 119.893 202.92 119.825C202.65 119.402 200.133 115.039 191.36 115.618C189.033 116.245 184.641 116.346 185.697 111.736C185.779 110.224 185.519 107.045 183.814 106.425C183.837 106.033 180.254 99.7809 178.379 98.8466C178.373 98.6542 178.366 98.4748 178.359 98.3113Z" fill="#F7EFA5" stroke="black"/>
</svg>
