<svg width="1514" height="720" viewBox="0 0 1514 720" fill="none" xmlns="http://www.w3.org/2000/svg">
<g clip-path="url(#clip0)">
<rect width="1514" height="720" fill="white"/>
<rect y="0.577637" width="1514" height="719.428" fill="#79E0E7"/>
<path d="M1188.47 187.86C1190.96 191.664 1212.92 189.445 1223.59 187.86C1229.15 180.69 1224.08 179.385 1220.85 179.629C1218.65 165.582 1209.57 169.387 1205.3 173.045C1194.76 168.948 1193.59 174.752 1194.32 178.166C1186.86 180.214 1187.31 185.482 1188.47 187.86Z" fill="white" fill-opacity="0.5"/>
<path d="M844.211 351.204C846.699 355.008 868.659 352.789 879.328 351.204C884.888 344.034 879.816 342.73 876.585 342.974C874.39 328.927 865.306 332.731 861.038 336.389C850.503 332.292 849.332 338.096 850.064 341.51C842.602 343.559 843.053 348.826 844.211 351.204Z" fill="white" fill-opacity="0.5"/>
<path d="M1045.66 292.924C1049.44 298.699 1082.77 295.33 1098.96 292.924C1107.4 282.042 1099.7 280.062 1094.8 280.432C1091.47 259.112 1077.68 264.886 1071.2 270.438C1055.21 264.22 1053.43 273.029 1054.54 278.211C1043.22 281.32 1043.9 289.315 1045.66 292.924Z" fill="white" fill-opacity="0.5"/>
<path d="M1192.66 46.7174C1195.15 50.5217 1217.11 48.3026 1227.78 46.7174C1233.34 39.5476 1228.26 38.243 1225.03 38.487C1222.84 24.4403 1213.75 28.2446 1209.49 31.9026C1198.95 27.8057 1197.78 33.6096 1198.51 37.0237C1191.05 39.0722 1191.5 44.3397 1192.66 46.7174Z" fill="white" fill-opacity="0.5"/>
<path d="M363.605 314.317C366.093 318.121 388.053 315.902 398.722 314.317C404.282 307.147 399.21 305.842 395.979 306.086C393.784 292.039 384.7 295.844 380.432 299.502C369.897 295.405 368.726 301.209 369.458 304.623C361.996 306.671 362.447 311.939 363.605 314.317Z" fill="white" fill-opacity="0.5"/>
<path d="M622.41 349.488C626.929 356.4 666.824 352.368 686.207 349.488C696.308 336.463 687.093 334.093 681.223 334.536C677.235 309.017 660.732 315.929 652.979 322.574C633.84 315.131 631.713 325.676 633.043 331.878C619.486 335.599 620.305 345.169 622.41 349.488Z" fill="white" fill-opacity="0.5"/>
<path d="M1040.17 107.597C1043.32 112.42 1071.16 109.606 1084.68 107.597C1091.73 98.5082 1085.3 96.8545 1081.21 97.1637C1078.42 79.3574 1066.91 84.1799 1061.5 88.817C1048.14 83.6236 1046.66 90.981 1047.59 95.3088C1038.13 97.9056 1038.7 104.583 1040.17 107.597Z" fill="white" fill-opacity="0.5"/>
<path d="M242.837 53.0259C247.573 60.2702 289.391 56.0443 309.708 53.0259C320.296 39.3728 310.637 36.8886 304.484 37.3532C300.304 10.6048 283.006 17.8491 274.879 24.8149C254.818 17.0133 252.589 28.0655 253.982 34.5668C239.772 38.4676 240.631 48.4982 242.837 53.0259Z" fill="white" fill-opacity="0.5"/>
<path d="M824.493 46.7174C826.98 50.5217 848.94 48.3026 859.61 46.7174C865.17 39.5476 860.097 38.243 856.866 38.487C854.671 24.4403 845.587 28.2446 841.32 31.9026C830.784 27.8057 829.614 33.6096 830.345 37.0237C822.883 39.0722 823.334 44.3397 824.493 46.7174Z" fill="white" fill-opacity="0.5"/>
<path d="M874.594 193.611C876.425 196.496 892.59 194.813 900.444 193.611C904.537 188.175 900.803 187.185 898.425 187.37C896.809 176.719 890.122 179.604 886.98 182.378C879.225 179.271 878.364 183.672 878.902 186.261C873.409 187.814 873.741 191.808 874.594 193.611Z" fill="white" fill-opacity="0.5"/>
<path d="M1218.49 398.803C1220.32 401.688 1236.48 400.005 1244.34 398.803C1248.43 393.367 1244.69 392.378 1242.32 392.563C1240.7 381.911 1234.01 384.796 1230.87 387.57C1223.12 384.463 1222.25 388.864 1222.79 391.453C1217.3 393.006 1217.63 397 1218.49 398.803Z" fill="white" fill-opacity="0.5"/>
<path d="M386.105 113.258C388.593 117.062 410.553 114.843 421.222 113.258C426.782 106.088 421.71 104.784 418.479 105.028C416.284 90.9808 407.2 94.7851 402.932 98.4431C392.397 94.3462 391.226 100.15 391.958 103.564C384.496 105.613 384.947 110.88 386.105 113.258Z" fill="white" fill-opacity="0.5"/>
<path d="M618.564 82.4202C621.052 86.2245 643.012 84.0053 653.681 82.4202C659.241 75.2503 654.169 73.9458 650.938 74.1898C648.743 60.143 639.659 63.9473 635.391 67.6053C624.856 63.5084 623.686 69.3124 624.417 72.7265C616.955 74.775 617.406 80.0425 618.564 82.4202Z" fill="white" fill-opacity="0.5"/>
<path d="M452.232 207.114C455.964 212.82 488.904 209.492 504.908 207.114C513.248 196.359 505.639 194.402 500.793 194.768C497.5 173.698 483.874 179.405 477.473 184.892C461.67 178.746 459.914 187.452 461.012 192.573C449.818 195.646 450.495 203.547 452.232 207.114Z" fill="white" fill-opacity="0.5"/>
<path d="M214.123 209.475C217.854 215.182 250.795 211.853 266.798 209.475C275.139 198.72 267.53 196.764 262.683 197.129C259.391 176.059 245.765 181.766 239.363 187.253C223.561 181.107 221.805 189.813 222.902 194.935C211.709 198.007 212.386 205.909 214.123 209.475Z" fill="white" fill-opacity="0.5"/>
<path d="M223.48 439.352C227.211 445.058 260.151 441.73 276.155 439.352C284.495 428.597 276.887 426.64 272.04 427.006C268.748 405.936 255.122 411.643 248.72 417.13C232.917 410.984 231.162 419.69 232.259 424.811C221.065 427.884 221.742 435.785 223.48 439.352Z" fill="white" fill-opacity="0.5"/>
<path d="M1397.89 163.054C1401.62 168.76 1434.56 165.431 1450.56 163.054C1458.9 152.299 1451.29 150.342 1446.45 150.708C1443.15 129.638 1429.53 135.344 1423.13 140.831C1407.32 134.686 1405.57 143.392 1406.67 148.513C1395.47 151.586 1396.15 159.487 1397.89 163.054Z" fill="white" fill-opacity="0.5"/>
<path d="M1316.25 408.895C1319.98 414.602 1352.92 411.273 1368.93 408.895C1377.27 398.14 1369.66 396.184 1364.81 396.549C1361.52 375.479 1347.89 381.186 1341.49 386.673C1325.69 380.527 1323.93 389.233 1325.03 394.355C1313.84 397.427 1314.51 405.329 1316.25 408.895Z" fill="white" fill-opacity="0.5"/>
<path d="M16.9883 112.306C20.7195 118.012 53.6599 114.684 69.6637 112.306C78.0039 101.551 70.3953 99.5944 65.5485 99.9604C62.2564 78.8902 48.6302 84.5967 42.2287 90.0837C26.4261 83.9384 24.6702 92.6443 25.7676 97.7655C14.5741 100.838 15.2508 108.739 16.9883 112.306Z" fill="white" fill-opacity="0.5"/>
<path d="M1020.92 2.46232L1020.87 2.45383L1020.83 2.45383L1008.32 2.45384C1007.91 2.36495 1007.22 2.40075 1006.74 3.08239C1006.27 3.73721 1006.08 4.88455 1006.35 6.79273C1006.39 8.23368 1005.5 11.2549 1001.83 16.0573C997.561 21.648 997.096 28.1257 999.581 33.2905C1002.07 38.456 1007.48 42.249 1014.83 42.5412L1014.84 42.5416H1014.85C1022.63 42.5416 1028.15 39.1009 1030.46 33.9897C1032.76 28.8865 1031.79 22.2702 1026.92 16.0527C1026.68 15.7412 1026.43 15.43 1026.18 15.1173C1024.26 12.7263 1022.26 10.2397 1022.26 6.74929V6.72679L1022.26 6.70437C1022.24 6.459 1022.24 6.14027 1022.25 5.7574L1022.25 5.71115C1022.26 5.32242 1022.26 4.88272 1022.23 4.46733C1022.19 4.05841 1022.12 3.62317 1021.94 3.26034C1021.75 2.87677 1021.42 2.556 1020.92 2.46232Z" fill="#F8ECB2" stroke="#DED4A2"/>
<path d="M1008.32 2.48396L1008.41 2.51515H1008.5H1020.23H1020.43L1020.57 2.38577C1021.3 1.7191 1021.59 1.02841 1021.57 0.391986C1021.54 -0.222781 1021.23 -0.697263 1020.93 -0.956454L1020.75 -1.11525L1020.52 -1.07404L1014.95 -0.104064L1014.94 -0.182049L1021.09 -1.33201L1021.15 -1.34313L1021.21 -1.36818C1021.46 -1.48242 1021.68 -1.60797 1021.82 -1.7608C1021.9 -1.84048 1021.98 -1.95716 1022.01 -2.11222C1022.05 -2.28336 1022.01 -2.44539 1021.93 -2.57343C1021.79 -2.78293 1021.57 -2.87035 1021.46 -2.90675C1021.33 -2.95332 1021.18 -2.97992 1021.06 -2.99377L1020.99 -3.00144L1020.92 -2.99076L1007.79 -0.903064L1007.58 -0.869075L1007.46 -0.689907C1006.9 0.125462 1006.85 0.86805 1007.15 1.46657C1007.43 2.01952 1007.95 2.34379 1008.32 2.48396ZM1007.34 -2.98916L1007.19 -2.96373L1007.09 -2.86635C1006.9 -2.69251 1006.73 -2.45079 1006.74 -2.14661C1006.75 -1.84676 1006.92 -1.63635 1007.06 -1.5135C1007.34 -1.27699 1007.74 -1.14989 1007.99 -1.09503L1008.09 -1.07268L1008.19 -1.09227C1009.48 -1.3397 1011.68 -1.69666 1014.01 -2.07248L1014.16 -2.098C1016.54 -2.48205 1019.01 -2.88304 1020.7 -3.20088L1020.73 -3.20807L1020.77 -3.22105C1021.13 -3.35039 1021.44 -3.50455 1021.63 -3.71532C1021.73 -3.82991 1021.81 -3.97922 1021.83 -4.16045C1021.85 -4.34323 1021.8 -4.50146 1021.73 -4.62138C1021.6 -4.83678 1021.38 -4.97498 1021.23 -5.05563C1021.07 -5.14556 1020.89 -5.21301 1020.76 -5.25711L1020.68 -5.28185H1020.6C1020.54 -5.28185 1020.45 -5.26908 1020.38 -5.25978C1020.29 -5.24783 1020.18 -5.23056 1020.04 -5.20882C1019.86 -5.18044 1019.64 -5.14389 1019.38 -5.10044C1019.82 -5.17561 1020.18 -5.24128 1020.46 -5.30029C1020.71 -5.35263 1020.92 -5.40332 1021.07 -5.45572C1021.15 -5.48144 1021.23 -5.51414 1021.3 -5.55773C1021.33 -5.5723 1021.38 -5.60012 1021.42 -5.64458C1021.6 -5.74089 1021.77 -5.89521 1021.83 -6.14013C1021.9 -6.43584 1021.77 -6.67581 1021.67 -6.80325C1021.47 -7.05655 1021.15 -7.24551 1020.95 -7.34123L1020.87 -7.37783L1020.79 -7.38752C1020.72 -7.39494 1020.66 -7.39098 1020.62 -7.38885C1020.58 -7.38595 1020.53 -7.38099 1020.47 -7.37473C1020.35 -7.36214 1020.2 -7.34252 1020.02 -7.31739C1019.65 -7.26702 1019.16 -7.19251 1018.59 -7.10217C1017.44 -6.92137 1015.95 -6.67555 1014.47 -6.42839C1013.77 -6.3109 1013.06 -6.19322 1012.4 -6.08199C1011.67 -5.95893 1010.98 -5.84377 1010.39 -5.74548C1009.82 -5.652 1009.35 -5.57417 1009.01 -5.51977C1008.84 -5.49253 1008.7 -5.47144 1008.61 -5.45725C1008.56 -5.45012 1008.52 -5.44507 1008.5 -5.44191C1008.49 -5.44102 1008.48 -5.44039 1008.48 -5.43996C1007.47 -5.43299 1006.92 -4.86859 1006.77 -4.43805L1006.76 -4.42331L1006.76 -4.40828C1006.68 -4.10959 1006.85 -3.88698 1006.91 -3.81582C1007 -3.72149 1007.1 -3.64679 1007.18 -3.59351C1007.35 -3.48291 1007.55 -3.38923 1007.68 -3.33534L1007.81 -3.28154L1007.95 -3.30405C1011.21 -3.83121 1013.77 -4.22388 1015.72 -4.52513C1016.67 -4.67089 1017.48 -4.79525 1018.16 -4.90309C1018.5 -4.95674 1018.81 -5.00639 1019.09 -5.05262C1019.04 -5.04363 1018.98 -5.03441 1018.93 -5.02498C1018.01 -4.87002 1016.77 -4.6556 1015.41 -4.41754C1012.68 -3.94138 1009.47 -3.37003 1007.34 -2.98916ZM1007.74 -7.39083H1007.62L1007.49 -7.30719C1007.25 -7.14624 1007.05 -6.96424 1006.93 -6.74772C1006.8 -6.5045 1006.79 -6.2358 1006.91 -5.99592C1007.01 -5.78746 1007.18 -5.65558 1007.32 -5.57687C1007.46 -5.49397 1007.61 -5.43862 1007.74 -5.40495L1007.85 -5.37878L1007.95 -5.39544L1020.37 -7.39897L1020.94 -7.49046L1020.77 -8.03966C1020.59 -8.63347 1020.26 -9.09771 1019.96 -9.41225C1019.81 -9.57011 1019.67 -9.69625 1019.55 -9.78672C1019.48 -9.83145 1019.42 -9.87203 1019.36 -9.90403C1019.36 -9.90836 1019.35 -9.91283 1019.34 -9.91735C1019.18 -10.0642 1018.97 -10.1553 1018.79 -10.2173C1018.55 -10.302 1018.25 -10.3655 1017.93 -10.4144C1017.29 -10.5127 1016.48 -10.5623 1015.62 -10.5814C1013.91 -10.6197 1011.96 -10.5362 1010.69 -10.4477L1010.66 -10.4459L1010.64 -10.4415C1008.79 -10.1201 1008.1 -8.8317 1008 -8.1154L1007.92 -7.44936L1008.58 -7.55727L1013.6 -8.37403L1013.61 -8.30707C1012.59 -8.14615 1011.27 -7.93816 1010.14 -7.76046C1009.48 -7.65612 1008.87 -7.5623 1008.43 -7.49458C1008.21 -7.4607 1008.03 -7.43347 1007.91 -7.41476C1007.85 -7.40537 1007.8 -7.39832 1007.76 -7.39368L1007.74 -7.39083ZM1007.73 -7.3888C1007.72 -7.38826 1007.72 -7.38808 1007.72 -7.38813C1007.72 -7.38817 1007.72 -7.38845 1007.73 -7.3888Z" fill="#C0C0C0" stroke="#AFAFAF"/>
<path d="M1014.87 7.73272C1014.9 5.53387 1016.84 4.40683 1017.8 4.11816L1008.53 4.38967C1009.94 11.0059 1006.22 15.1814 1003.92 17.6827C994.397 28.0317 1004.51 40.3344 1012.06 40.3344C1002.78 35.7434 1003.45 28.4368 1005.77 26.3267C1013.6 18.5685 1015.1 10.8237 1014.87 7.92098C1014.86 8.77441 1014.84 9.93157 1014.87 7.73272Z" fill="white" fill-opacity="0.5"/>
<path d="M1023.52 20.7207C1019.16 14.2442 1019.67 9.34788 1020.06 6.19867C1020.37 7.80109 1019.5 10.4384 1022.96 15.1455C1028.04 20.786 1031.15 28.1107 1025.53 34.7419L1022.51 35.3094C1027.85 26.5294 1024.73 23.2578 1023.52 20.7207Z" fill="white" fill-opacity="0.5"/>
<path d="M460.382 720.005L1010.72 5.71313H1018.35L1513.56 720.005H460.382Z" fill="url(#paint0_linear)" fill-opacity="0.2"/>
<path d="M-2.61353 145.278L1002.06 17.0813L1010.55 5.7345H1018.5L1026.02 17.0813L1513.56 81.8759V720L1.94391 720L-2.61353 145.278Z" fill="url(#paint1_linear)" fill-opacity="0.15"/>
<path d="M509.16 289.952C504.936 288.512 501.096 287.072 497.64 285.632C494.184 284.096 491.208 282.272 488.712 280.16C486.216 278.048 484.248 275.552 482.808 272.672C481.464 269.696 480.792 266.096 480.792 261.872C480.792 253.712 483.912 247.184 490.152 242.288C496.488 237.392 505.32 234.944 516.648 234.944C520.776 234.944 524.616 235.232 528.168 235.808C531.72 236.384 534.744 237.296 537.24 238.544C539.832 239.696 541.848 241.232 543.288 243.152C544.728 244.976 545.448 247.136 545.448 249.632C545.448 252.128 544.872 254.288 543.72 256.112C542.568 257.84 541.176 259.328 539.544 260.576C537.432 259.232 534.6 258.08 531.048 257.12C527.496 256.064 523.608 255.536 519.384 255.536C515.064 255.536 511.896 256.16 509.88 257.408C507.864 258.56 506.856 260.048 506.856 261.872C506.856 263.312 507.48 264.512 508.728 265.472C509.976 266.336 511.848 267.152 514.344 267.92L521.976 270.368C531 273.248 537.912 276.944 542.712 281.456C547.608 285.872 550.056 291.92 550.056 299.6C550.056 307.76 546.84 314.384 540.408 319.472C533.976 324.464 524.52 326.96 512.04 326.96C507.624 326.96 503.496 326.576 499.656 325.808C495.912 325.136 492.6 324.128 489.72 322.784C486.936 321.344 484.728 319.616 483.096 317.6C481.56 315.488 480.792 313.088 480.792 310.4C480.792 307.616 481.608 305.264 483.24 303.344C484.872 301.328 486.648 299.792 488.568 298.736C491.256 300.848 494.52 302.672 498.36 304.208C502.296 305.744 506.568 306.512 511.176 306.512C515.88 306.512 519.192 305.792 521.112 304.352C523.032 302.912 523.992 301.232 523.992 299.312C523.992 297.392 523.224 295.952 521.688 294.992C520.152 293.936 517.992 292.928 515.208 291.968L509.16 289.952Z" fill="#3FDAE4"/>
<path d="M475.032 339.056H554.376V346.256H475.032V339.056Z" fill="#3FDAE4"/>
<path d="M509.16 289.952L508.998 290.425L509.001 290.426L509.16 289.952ZM497.64 285.632L497.436 286.089L497.447 286.094L497.64 285.632ZM482.808 272.672L482.352 272.878L482.356 272.887L482.36 272.896L482.808 272.672ZM490.152 242.288L489.846 241.892L489.843 241.895L490.152 242.288ZM528.168 235.808L528.248 235.315L528.168 235.808ZM537.24 238.544L537.016 238.991L537.026 238.996L537.037 239.001L537.24 238.544ZM543.288 243.152L542.887 243.452L542.895 243.462L543.288 243.152ZM543.72 256.112L544.136 256.39L544.142 256.379L543.72 256.112ZM539.544 260.576L539.275 260.998L539.57 261.185L539.847 260.973L539.544 260.576ZM531.048 257.12L530.905 257.6L530.917 257.603L531.048 257.12ZM509.88 257.408L510.128 257.842L510.135 257.838L510.143 257.833L509.88 257.408ZM508.728 265.472L508.423 265.868L508.433 265.876L508.443 265.883L508.728 265.472ZM514.344 267.92L514.496 267.444L514.491 267.442L514.344 267.92ZM521.976 270.368L521.823 270.844L521.824 270.844L521.976 270.368ZM542.712 281.456L542.369 281.821L542.377 281.827L542.712 281.456ZM540.408 319.472L540.714 319.867L540.718 319.864L540.408 319.472ZM499.656 325.808L499.754 325.318L499.744 325.316L499.656 325.808ZM489.72 322.784L489.49 323.228L489.499 323.233L489.508 323.237L489.72 322.784ZM483.096 317.6L482.691 317.894L482.699 317.905L482.707 317.915L483.096 317.6ZM483.24 303.344L483.621 303.668L483.628 303.659L483.24 303.344ZM488.568 298.736L488.876 298.343L488.616 298.139L488.327 298.298L488.568 298.736ZM498.36 304.208L498.174 304.672L498.178 304.674L498.36 304.208ZM521.112 304.352L521.412 304.752L521.112 304.352ZM521.688 294.992L521.404 295.404L521.413 295.41L521.423 295.416L521.688 294.992ZM515.208 291.968L515.371 291.495L515.366 291.494L515.208 291.968ZM509.321 289.479C505.105 288.042 501.276 286.606 497.832 285.171L497.447 286.094C500.915 287.539 504.766 288.982 508.998 290.425L509.321 289.479ZM497.843 285.175C494.423 283.656 491.489 281.855 489.035 279.778L488.389 280.542C490.926 282.689 493.944 284.537 497.437 286.089L497.843 285.175ZM489.035 279.778C486.589 277.709 484.664 275.267 483.255 272.449L482.36 272.896C483.831 275.837 485.842 278.387 488.389 280.542L489.035 279.778ZM483.263 272.466C481.956 269.571 481.292 266.045 481.292 261.872H480.292C480.292 266.147 480.971 269.821 482.352 272.878L483.263 272.466ZM481.292 261.872C481.292 253.861 484.345 247.48 490.46 242.681L489.843 241.895C483.478 246.889 480.292 253.564 480.292 261.872H481.292ZM490.457 242.684C496.676 237.878 505.385 235.444 516.648 235.444V234.444C505.254 234.444 496.299 236.906 489.846 241.892L490.457 242.684ZM516.648 235.444C520.753 235.444 524.566 235.731 528.088 236.302L528.248 235.315C524.666 234.734 520.799 234.444 516.648 234.444V235.444ZM528.088 236.302C531.603 236.872 534.576 237.771 537.016 238.991L537.463 238.097C534.911 236.821 531.836 235.896 528.248 235.315L528.088 236.302ZM537.037 239.001C539.565 240.125 541.507 241.612 542.888 243.452L543.688 242.852C542.188 240.852 540.098 239.268 537.443 238.087L537.037 239.001ZM542.895 243.462C544.26 245.191 544.948 247.24 544.948 249.632H545.948C545.948 247.033 545.195 244.761 543.68 242.842L542.895 243.462ZM544.948 249.632C544.948 252.049 544.391 254.113 543.297 255.845L544.142 256.379C545.352 254.463 545.948 252.207 545.948 249.632H544.948ZM543.304 255.835C542.182 257.517 540.828 258.965 539.24 260.179L539.847 260.973C541.524 259.691 542.953 258.163 544.136 256.389L543.304 255.835ZM539.812 260.154C537.642 258.774 534.758 257.605 531.178 256.637L530.917 257.603C534.441 258.555 537.221 259.691 539.275 260.998L539.812 260.154ZM531.19 256.641C527.586 255.569 523.649 255.036 519.384 255.036V256.036C523.566 256.036 527.405 256.559 530.905 257.599L531.19 256.641ZM519.384 255.036C515.036 255.036 511.753 255.66 509.616 256.983L510.143 257.833C512.038 256.66 515.091 256.036 519.384 256.036V255.036ZM509.632 256.974C507.509 258.187 506.356 259.818 506.356 261.872H507.356C507.356 260.278 508.218 258.933 510.128 257.842L509.632 256.974ZM506.356 261.872C506.356 263.483 507.065 264.824 508.423 265.868L509.032 265.076C507.894 264.2 507.356 263.141 507.356 261.872H506.356ZM508.443 265.883C509.753 266.79 511.681 267.624 514.197 268.398L514.491 267.442C512.014 266.68 510.198 265.882 509.012 265.061L508.443 265.883ZM514.191 268.396L521.823 270.844L522.128 269.892L514.496 267.444L514.191 268.396ZM521.824 270.844C530.805 273.711 537.642 277.377 542.369 281.82L543.054 281.092C538.181 276.511 531.194 272.785 522.128 269.892L521.824 270.844ZM542.377 281.827C547.15 286.133 549.556 292.036 549.556 299.6H550.556C550.556 291.804 548.065 285.612 543.046 281.085L542.377 281.827ZM549.556 299.6C549.556 307.606 546.41 314.086 540.097 319.08L540.718 319.864C547.269 314.682 550.556 307.914 550.556 299.6H549.556ZM540.101 319.077C533.793 323.973 524.465 326.46 512.04 326.46V327.46C524.575 327.46 534.159 324.955 540.714 319.867L540.101 319.077ZM512.04 326.46C507.652 326.46 503.558 326.079 499.754 325.318L499.558 326.298C503.434 327.074 507.595 327.46 512.04 327.46V326.46ZM499.744 325.316C496.034 324.65 492.765 323.654 489.931 322.331L489.508 323.237C492.434 324.603 495.789 325.622 499.567 326.3L499.744 325.316ZM489.949 322.34C487.214 320.925 485.065 319.238 483.484 317.286L482.707 317.915C484.39 319.994 486.657 321.763 489.49 323.228L489.949 322.34ZM483.5 317.306C482.028 315.282 481.292 312.986 481.292 310.4H480.292C480.292 313.19 481.091 315.694 482.691 317.894L483.5 317.306ZM481.292 310.4C481.292 307.721 482.074 305.488 483.621 303.668L482.859 303.02C481.142 305.04 480.292 307.511 480.292 310.4H481.292ZM483.628 303.659C485.227 301.684 486.955 300.194 488.809 299.174L488.327 298.298C486.34 299.39 484.516 300.972 482.851 303.03L483.628 303.659ZM488.259 299.129C490.991 301.276 494.299 303.122 498.174 304.672L498.545 303.744C494.741 302.222 491.52 300.42 488.876 298.343L488.259 299.129ZM498.178 304.674C502.177 306.234 506.511 307.012 511.176 307.012V306.012C506.624 306.012 502.414 305.254 498.541 303.742L498.178 304.674ZM511.176 307.012C515.9 307.012 519.354 306.295 521.412 304.752L520.812 303.952C519.029 305.289 515.859 306.012 511.176 306.012V307.012ZM521.412 304.752C523.423 303.244 524.492 301.429 524.492 299.312H523.492C523.492 301.036 522.641 302.58 520.812 303.952L521.412 304.752ZM524.492 299.312C524.492 297.232 523.645 295.626 521.953 294.568L521.423 295.416C522.802 296.278 523.492 297.552 523.492 299.312H524.492ZM521.971 294.58C520.383 293.488 518.176 292.463 515.371 291.495L515.045 292.441C517.808 293.394 519.921 294.384 521.404 295.404L521.971 294.58ZM515.366 291.494L509.318 289.478L509.001 290.426L515.049 292.442L515.366 291.494Z" fill="#6C3E21" fill-opacity="0.3"/>
<path d="M475.032 339.056V338.556H474.532V339.056H475.032ZM554.376 339.056H554.876V338.556H554.376V339.056ZM554.376 346.256V346.756H554.876V346.256H554.376ZM475.032 346.256H474.532V346.756H475.032V346.256ZM475.032 339.556H554.376V338.556H475.032V339.556ZM553.876 339.056V346.256H554.876V339.056H553.876ZM554.376 345.756H475.032V346.756H554.376V345.756ZM475.532 346.256V339.056H474.532V346.256H475.532Z" fill="#6C3E21" fill-opacity="0.3"/>
<path d="M601.164 227.322C600.492 226.266 599.868 224.826 599.292 223.002C598.716 221.178 598.428 219.258 598.428 217.242C598.428 213.498 599.244 210.81 600.876 209.178C602.604 207.546 604.812 206.73 607.5 206.73H670.284C670.956 207.786 671.58 209.226 672.156 211.05C672.732 212.874 673.02 214.794 673.02 216.81C673.02 220.554 672.156 223.242 670.428 224.874C668.796 226.506 666.636 227.322 663.948 227.322H647.964V293.85C646.908 294.138 645.228 294.426 642.924 294.714C640.716 295.002 638.508 295.146 636.3 295.146C634.092 295.146 632.124 294.954 630.396 294.57C628.764 294.282 627.372 293.706 626.22 292.842C625.068 291.978 624.204 290.778 623.628 289.242C623.052 287.706 622.764 285.69 622.764 283.194V227.322H601.164Z" fill="#95E335"/>
<path d="M595.836 308.826H675.9V316.026H595.836V308.826Z" fill="#95E335"/>
<path d="M601.164 227.322L600.742 227.59L600.89 227.822H601.164V227.322ZM599.292 223.002L598.815 223.152L599.292 223.002ZM600.876 209.178L600.533 208.814L600.528 208.819L600.523 208.824L600.876 209.178ZM670.284 206.73L670.706 206.461L670.559 206.23H670.284V206.73ZM672.156 211.05L672.633 210.899L672.156 211.05ZM670.428 224.874L670.085 224.51L670.08 224.515L670.075 224.52L670.428 224.874ZM647.964 227.322V226.822H647.464V227.322H647.964ZM647.964 293.85L648.096 294.332L648.464 294.232V293.85H647.964ZM642.924 294.714L642.862 294.218L642.859 294.218L642.924 294.714ZM630.396 294.57L630.505 294.082L630.494 294.079L630.483 294.077L630.396 294.57ZM626.22 292.842L626.52 292.442L626.22 292.842ZM623.628 289.242L623.16 289.417L623.628 289.242ZM622.764 227.322H623.264V226.822H622.764V227.322ZM601.586 227.053C600.946 226.048 600.338 224.653 599.769 222.851L598.815 223.152C599.398 224.998 600.038 226.484 600.742 227.59L601.586 227.053ZM599.769 222.851C599.209 221.078 598.928 219.209 598.928 217.242H597.928C597.928 219.306 598.223 221.277 598.815 223.152L599.769 222.851ZM598.928 217.242C598.928 213.551 599.735 211.026 601.23 209.531L600.523 208.824C598.753 210.594 597.928 213.444 597.928 217.242H598.928ZM601.219 209.541C602.842 208.009 604.922 207.23 607.5 207.23V206.23C604.703 206.23 602.366 207.083 600.533 208.814L601.219 209.541ZM607.5 207.23H670.284V206.23H607.5V207.23ZM669.862 206.998C670.502 208.004 671.11 209.398 671.679 211.2L672.633 210.899C672.05 209.053 671.41 207.568 670.706 206.461L669.862 206.998ZM671.679 211.2C672.239 212.973 672.52 214.842 672.52 216.81H673.52C673.52 214.745 673.225 212.774 672.633 210.899L671.679 211.2ZM672.52 216.81C672.52 220.494 671.668 223.015 670.085 224.51L670.771 225.237C672.644 223.468 673.52 220.614 673.52 216.81H672.52ZM670.075 224.52C668.552 226.043 666.527 226.822 663.948 226.822V227.822C666.745 227.822 669.04 226.969 670.782 225.227L670.075 224.52ZM663.948 226.822H647.964V227.822H663.948V226.822ZM647.464 227.322V293.85H648.464V227.322H647.464ZM647.833 293.367C646.813 293.645 645.163 293.93 642.862 294.218L642.986 295.21C645.294 294.921 647.003 294.63 648.096 294.332L647.833 293.367ZM642.859 294.218C640.673 294.503 638.486 294.646 636.3 294.646V295.646C638.53 295.646 640.76 295.5 642.989 295.21L642.859 294.218ZM636.3 294.646C634.12 294.646 632.19 294.456 630.505 294.082L630.288 295.058C632.059 295.451 634.064 295.646 636.3 295.646V294.646ZM630.483 294.077C628.917 293.801 627.6 293.252 626.52 292.442L625.92 293.242C627.144 294.16 628.612 294.763 630.309 295.062L630.483 294.077ZM626.52 292.442C625.455 291.643 624.644 290.526 624.096 289.066L623.16 289.417C623.765 291.03 624.682 292.313 625.92 293.242L626.52 292.442ZM624.096 289.066C623.549 287.608 623.264 285.658 623.264 283.194H622.264C622.264 285.722 622.555 287.804 623.16 289.417L624.096 289.066ZM623.264 283.194V227.322H622.264V283.194H623.264ZM622.764 226.822H601.164V227.822H622.764V226.822Z" fill="#6C3E21" fill-opacity="0.3"/>
<path d="M595.836 308.826V308.326H595.336V308.826H595.836ZM675.9 308.826H676.4V308.326H675.9V308.826ZM675.9 316.026V316.526H676.4V316.026H675.9ZM595.836 316.026H595.336V316.526H595.836V316.026ZM595.836 309.326H675.9V308.326H595.836V309.326ZM675.4 308.826V316.026H676.4V308.826H675.4ZM675.9 315.526H595.836V316.526H675.9V315.526ZM596.336 316.026V308.826H595.336V316.026H596.336Z" fill="#6C3E21" fill-opacity="0.3"/>
<path d="M726.915 190.323C726.915 186.195 728.115 182.931 730.515 180.531C732.915 178.131 736.179 176.931 740.307 176.931H787.827C788.499 177.987 789.075 179.379 789.555 181.107C790.131 182.835 790.419 184.659 790.419 186.579C790.419 190.227 789.603 192.819 787.971 194.355C786.435 195.891 784.371 196.659 781.779 196.659H751.395V210.051H783.795C784.467 211.107 785.043 212.499 785.523 214.227C786.099 215.859 786.387 217.635 786.387 219.555C786.387 223.203 785.619 225.795 784.083 227.331C782.547 228.867 780.483 229.635 777.891 229.635H751.395V244.755H788.403C789.075 245.811 789.651 247.203 790.131 248.931C790.707 250.659 790.995 252.483 790.995 254.403C790.995 258.051 790.179 260.691 788.547 262.323C787.011 263.859 784.947 264.627 782.355 264.627H740.307C736.179 264.627 732.915 263.427 730.515 261.027C728.115 258.627 726.915 255.363 726.915 251.235V190.323Z" fill="#F5863E"/>
<path d="M717.555 278.595H796.467V285.795H717.555V278.595Z" fill="#F5863E"/>
<path d="M787.827 176.931L788.248 176.663L788.101 176.431H787.827V176.931ZM789.555 181.107L789.073 181.241L789.076 181.253L789.08 181.265L789.555 181.107ZM787.971 194.355L787.628 193.991L787.622 193.996L787.617 194.002L787.971 194.355ZM751.395 196.659V196.159H750.895V196.659H751.395ZM751.395 210.051H750.895V210.551H751.395V210.051ZM783.795 210.051L784.216 209.783L784.069 209.551H783.795V210.051ZM785.523 214.227L785.041 214.361L785.045 214.378L785.051 214.394L785.523 214.227ZM751.395 229.635V229.135H750.895V229.635H751.395ZM751.395 244.755H750.895V245.255H751.395V244.755ZM788.403 244.755L788.824 244.487L788.677 244.255H788.403V244.755ZM790.131 248.931L789.649 249.065L789.652 249.077L789.656 249.089L790.131 248.931ZM788.547 262.323L788.193 261.97L788.547 262.323ZM730.515 261.027L730.868 260.674L730.515 261.027ZM727.415 190.323C727.415 186.297 728.582 183.171 730.868 180.885L730.161 180.178C727.648 182.691 726.415 186.093 726.415 190.323H727.415ZM730.868 180.885C733.155 178.598 736.281 177.431 740.307 177.431V176.431C736.077 176.431 732.674 177.664 730.161 180.178L730.868 180.885ZM740.307 177.431H787.827V176.431H740.307V177.431ZM787.405 177.2C788.042 178.2 788.601 179.542 789.073 181.241L790.036 180.973C789.548 179.217 788.956 177.774 788.248 176.663L787.405 177.2ZM789.08 181.265C789.638 182.94 789.919 184.71 789.919 186.579H790.919C790.919 184.608 790.623 182.731 790.029 180.949L789.08 181.265ZM789.919 186.579C789.919 190.173 789.112 192.595 787.628 193.991L788.313 194.719C790.094 193.044 790.919 190.282 790.919 186.579H789.919ZM787.617 194.002C786.193 195.426 784.266 196.159 781.779 196.159V197.159C784.476 197.159 786.677 196.356 788.324 194.709L787.617 194.002ZM781.779 196.159H751.395V197.159H781.779V196.159ZM750.895 196.659V210.051H751.895V196.659H750.895ZM751.395 210.551H783.795V209.551H751.395V210.551ZM783.373 210.32C784.01 211.32 784.569 212.662 785.041 214.361L786.004 214.093C785.516 212.337 784.924 210.894 784.216 209.783L783.373 210.32ZM785.051 214.394C785.606 215.967 785.887 217.686 785.887 219.555H786.887C786.887 217.585 786.591 215.752 785.994 214.061L785.051 214.394ZM785.887 219.555C785.887 223.156 785.125 225.582 783.729 226.978L784.436 227.685C786.113 226.009 786.887 223.251 786.887 219.555H785.887ZM783.729 226.978C782.305 228.402 780.378 229.135 777.891 229.135V230.135C780.588 230.135 782.789 229.332 784.436 227.685L783.729 226.978ZM777.891 229.135H751.395V230.135H777.891V229.135ZM750.895 229.635V244.755H751.895V229.635H750.895ZM751.395 245.255H788.403V244.255H751.395V245.255ZM787.981 245.024C788.618 246.024 789.177 247.366 789.649 249.065L790.612 248.797C790.124 247.041 789.532 245.598 788.824 244.487L787.981 245.024ZM789.656 249.089C790.214 250.764 790.495 252.534 790.495 254.403H791.495C791.495 252.432 791.199 250.555 790.605 248.773L789.656 249.089ZM790.495 254.403C790.495 257.993 789.689 260.474 788.193 261.97L788.9 262.677C790.668 260.909 791.495 258.109 791.495 254.403H790.495ZM788.193 261.97C786.769 263.394 784.842 264.127 782.355 264.127V265.127C785.052 265.127 787.253 264.324 788.9 262.677L788.193 261.97ZM782.355 264.127H740.307V265.127H782.355V264.127ZM740.307 264.127C736.281 264.127 733.155 262.96 730.868 260.674L730.161 261.381C732.674 263.894 736.077 265.127 740.307 265.127V264.127ZM730.868 260.674C728.582 258.387 727.415 255.261 727.415 251.235H726.415C726.415 255.465 727.648 258.867 730.161 261.381L730.868 260.674ZM727.415 251.235V190.323H726.415V251.235H727.415Z" fill="#6C3E21" fill-opacity="0.3"/>
<path d="M717.555 278.595V278.095H717.055V278.595H717.555ZM796.467 278.595H796.967V278.095H796.467V278.595ZM796.467 285.795V286.295H796.967V285.795H796.467ZM717.555 285.795H717.055V286.295H717.555V285.795ZM717.555 279.095H796.467V278.095H717.555V279.095ZM795.967 278.595V285.795H796.967V278.595H795.967ZM796.467 285.295H717.555V286.295H796.467V285.295ZM718.055 285.795V278.595H717.055V285.795H718.055Z" fill="#6C3E21" fill-opacity="0.3"/>
<path d="M878.368 187.165C882.4 187.165 885.472 186.253 887.584 184.429C889.792 182.509 890.896 179.629 890.896 175.789C890.896 172.141 889.744 169.357 887.44 167.437C885.232 165.421 881.968 164.413 877.648 164.413C876.112 164.413 874.816 164.461 873.76 164.557C872.8 164.557 871.792 164.653 870.736 164.845V187.165H878.368ZM870.88 233.389C869.824 233.677 868.144 233.965 865.84 234.253C863.632 234.541 861.424 234.685 859.216 234.685C857.008 234.685 855.04 234.493 853.312 234.109C851.68 233.821 850.288 233.245 849.136 232.381C847.984 231.517 847.12 230.317 846.544 228.781C845.968 227.245 845.68 225.229 845.68 222.733V154.909C845.68 152.893 846.208 151.357 847.264 150.301C848.416 149.149 849.952 148.237 851.872 147.565C855.136 146.413 858.832 145.597 862.96 145.117C867.184 144.541 871.408 144.253 875.632 144.253C888.88 144.253 899.008 147.085 906.016 152.749C913.024 158.413 916.528 166.093 916.528 175.789C916.528 180.493 915.76 184.765 914.224 188.605C912.784 192.349 910.576 195.613 907.6 198.397C904.72 201.085 901.024 203.197 896.512 204.733C892.096 206.173 886.96 206.893 881.104 206.893H870.88V233.389Z" fill="#FAFA3A"/>
<path d="M836.32 248.365H919.984V255.565H836.32V248.365Z" fill="#FAFA3A"/>
<path d="M887.584 184.429L887.911 184.807L887.912 184.806L887.584 184.429ZM887.44 167.437L887.103 167.806L887.111 167.814L887.12 167.821L887.44 167.437ZM873.76 164.557V165.057H873.783L873.805 165.055L873.76 164.557ZM870.736 164.845L870.647 164.353L870.236 164.428V164.845H870.736ZM870.736 187.165H870.236V187.665H870.736V187.165ZM870.88 233.389L871.012 233.871L871.38 233.771V233.389H870.88ZM865.84 234.253L865.778 233.757L865.775 233.757L865.84 234.253ZM853.312 234.109L853.421 233.621L853.41 233.618L853.399 233.617L853.312 234.109ZM849.136 232.381L848.836 232.781L849.136 232.381ZM846.544 228.781L846.076 228.957L846.544 228.781ZM847.264 150.301L847.618 150.655L847.264 150.301ZM851.872 147.565L852.037 148.037L852.039 148.036L851.872 147.565ZM862.96 145.117L863.018 145.614L863.028 145.612L862.96 145.117ZM914.224 188.605L913.76 188.419L913.757 188.425L914.224 188.605ZM907.6 198.397L907.941 198.762L907.942 198.762L907.6 198.397ZM896.512 204.733L896.667 205.208L896.673 205.206L896.512 204.733ZM870.88 206.893V206.393H870.38V206.893H870.88ZM878.368 187.665C882.468 187.665 885.675 186.738 887.911 184.807L887.257 184.051C885.269 185.768 882.333 186.665 878.368 186.665V187.665ZM887.912 184.806C890.261 182.764 891.396 179.726 891.396 175.789H890.396C890.396 179.532 889.323 182.254 887.256 184.052L887.912 184.806ZM891.396 175.789C891.396 172.028 890.203 169.088 887.76 167.053L887.12 167.821C889.285 169.626 890.396 172.254 890.396 175.789H891.396ZM887.777 167.068C885.443 164.937 882.038 163.913 877.648 163.913V164.913C881.898 164.913 885.021 165.905 887.103 167.806L887.777 167.068ZM877.648 163.913C876.103 163.913 874.791 163.961 873.715 164.059L873.805 165.055C874.841 164.961 876.121 164.913 877.648 164.913V163.913ZM873.76 164.057C872.767 164.057 871.729 164.156 870.647 164.353L870.826 165.337C871.855 165.15 872.833 165.057 873.76 165.057V164.057ZM870.236 164.845V187.165H871.236V164.845H870.236ZM870.736 187.665H878.368V186.665H870.736V187.665ZM870.749 232.907C869.729 233.185 868.079 233.469 865.778 233.757L865.902 234.749C868.21 234.461 869.919 234.169 871.012 233.871L870.749 232.907ZM865.775 233.757C863.589 234.042 861.402 234.185 859.216 234.185V235.185C861.446 235.185 863.676 235.04 865.905 234.749L865.775 233.757ZM859.216 234.185C857.036 234.185 855.106 233.995 853.421 233.621L853.204 234.597C854.975 234.991 856.98 235.185 859.216 235.185V234.185ZM853.399 233.617C851.833 233.34 850.516 232.791 849.436 231.981L848.836 232.781C850.06 233.699 851.528 234.302 853.225 234.601L853.399 233.617ZM849.436 231.981C848.371 231.182 847.56 230.065 847.012 228.605L846.076 228.957C846.681 230.569 847.598 231.852 848.836 232.781L849.436 231.981ZM847.012 228.605C846.465 227.147 846.18 225.197 846.18 222.733H845.18C845.18 225.261 845.471 227.343 846.076 228.957L847.012 228.605ZM846.18 222.733V154.909H845.18V222.733H846.18ZM846.18 154.909C846.18 152.978 846.685 151.588 847.618 150.655L846.911 149.947C845.732 151.126 845.18 152.808 845.18 154.909H846.18ZM847.618 150.655C848.705 149.567 850.171 148.69 852.037 148.037L851.707 147.093C849.733 147.784 848.127 148.731 846.911 149.947L847.618 150.655ZM852.039 148.036C855.261 146.899 858.92 146.09 863.018 145.614L862.902 144.62C858.744 145.104 855.011 145.927 851.706 147.093L852.039 148.036ZM863.028 145.612C867.23 145.039 871.431 144.753 875.632 144.753V143.753C871.385 143.753 867.139 144.043 862.893 144.622L863.028 145.612ZM875.632 144.753C888.818 144.753 898.816 147.573 905.702 153.138L906.33 152.36C899.2 146.597 888.943 143.753 875.632 143.753V144.753ZM905.702 153.138C912.583 158.699 916.028 166.231 916.028 175.789H917.028C917.028 165.955 913.466 158.127 906.33 152.36L905.702 153.138ZM916.028 175.789C916.028 180.438 915.269 184.646 913.76 188.419L914.688 188.791C916.251 184.884 917.028 180.548 917.028 175.789H916.028ZM913.757 188.425C912.345 192.098 910.18 195.299 907.259 198.032L907.942 198.762C910.972 195.927 913.223 192.6 914.691 188.784L913.757 188.425ZM907.259 198.031C904.44 200.662 900.81 202.742 896.351 204.26L896.673 205.206C901.238 203.652 905 201.508 907.941 198.762L907.259 198.031ZM896.357 204.258C892.002 205.678 886.921 206.393 881.104 206.393V207.393C887 207.393 892.19 206.668 896.667 205.208L896.357 204.258ZM881.104 206.393H870.88V207.393H881.104V206.393ZM870.38 206.893V233.389H871.38V206.893H870.38Z" fill="#6C3E21" fill-opacity="0.3"/>
<path d="M836.32 248.365V247.865H835.82V248.365H836.32ZM919.984 248.365H920.484V247.865H919.984V248.365ZM919.984 255.565V256.065H920.484V255.565H919.984ZM836.32 255.565H835.82V256.065H836.32V255.565ZM836.32 248.865H919.984V247.865H836.32V248.865ZM919.484 248.365V255.565H920.484V248.365H919.484ZM919.984 255.065H836.32V256.065H919.984V255.065ZM836.82 255.565V248.365H835.82V255.565H836.82Z" fill="#6C3E21" fill-opacity="0.3"/>
<path d="M993.784 169.03C989.56 167.59 985.72 166.15 982.264 164.71C978.808 163.174 975.832 161.35 973.336 159.238C970.84 157.126 968.872 154.63 967.432 151.75C966.088 148.774 965.416 145.174 965.416 140.95C965.416 132.79 968.536 126.262 974.776 121.366C981.112 116.47 989.944 114.022 1001.27 114.022C1005.4 114.022 1009.24 114.31 1012.79 114.886C1016.34 115.462 1019.37 116.374 1021.86 117.622C1024.46 118.774 1026.47 120.31 1027.91 122.23C1029.35 124.054 1030.07 126.214 1030.07 128.71C1030.07 131.206 1029.5 133.366 1028.34 135.19C1027.19 136.918 1025.8 138.406 1024.17 139.654C1022.06 138.31 1019.22 137.158 1015.67 136.198C1012.12 135.142 1008.23 134.614 1004.01 134.614C999.688 134.614 996.52 135.238 994.504 136.486C992.488 137.638 991.48 139.126 991.48 140.95C991.48 142.39 992.104 143.59 993.352 144.55C994.6 145.414 996.472 146.23 998.968 146.998L1006.6 149.446C1015.62 152.326 1022.54 156.022 1027.34 160.534C1032.23 164.95 1034.68 170.998 1034.68 178.678C1034.68 186.838 1031.46 193.462 1025.03 198.55C1018.6 203.542 1009.14 206.038 996.664 206.038C992.248 206.038 988.12 205.654 984.28 204.886C980.536 204.214 977.224 203.206 974.344 201.862C971.56 200.422 969.352 198.694 967.72 196.678C966.184 194.566 965.416 192.166 965.416 189.478C965.416 186.694 966.232 184.342 967.864 182.422C969.496 180.406 971.272 178.87 973.192 177.814C975.88 179.926 979.144 181.75 982.984 183.286C986.92 184.822 991.192 185.59 995.8 185.59C1000.5 185.59 1003.82 184.87 1005.74 183.43C1007.66 181.99 1008.62 180.31 1008.62 178.39C1008.62 176.47 1007.85 175.03 1006.31 174.07C1004.78 173.014 1002.62 172.006 999.832 171.046L993.784 169.03Z" fill="#FB5176"/>
<path d="M959.656 218.134H1039V225.334H959.656V218.134Z" fill="#FB5176"/>
<path d="M993.784 169.031L993.623 169.504L993.626 169.505L993.784 169.031ZM982.264 164.71L982.061 165.168L982.072 165.172L982.264 164.71ZM967.432 151.75L966.976 151.956L966.98 151.965L966.985 151.974L967.432 151.75ZM974.776 121.366L974.47 120.971L974.467 120.973L974.776 121.366ZM1012.79 114.886L1012.87 114.393L1012.79 114.886ZM1021.86 117.622L1021.64 118.07L1021.65 118.075L1021.66 118.079L1021.86 117.622ZM1027.91 122.23L1027.51 122.531L1027.52 122.54L1027.91 122.23ZM1028.34 135.19L1028.76 135.468L1028.77 135.457L1028.34 135.19ZM1024.17 139.654L1023.9 140.076L1024.19 140.264L1024.47 140.052L1024.17 139.654ZM1015.67 136.199L1015.53 136.678L1015.54 136.681L1015.67 136.199ZM994.504 136.486L994.752 136.921L994.76 136.916L994.767 136.912L994.504 136.486ZM993.352 144.55L993.047 144.947L993.057 144.954L993.067 144.962L993.352 144.55ZM998.968 146.998L999.121 146.522L999.115 146.521L998.968 146.998ZM1006.6 149.447L1006.45 149.923L1006.45 149.923L1006.6 149.447ZM1027.34 160.535L1026.99 160.899L1027 160.906L1027.34 160.535ZM1025.03 198.55L1025.34 198.946L1025.34 198.943L1025.03 198.55ZM984.28 204.886L984.378 204.396L984.368 204.394L984.28 204.886ZM974.344 201.863L974.114 202.307L974.123 202.311L974.132 202.316L974.344 201.863ZM967.72 196.678L967.315 196.973L967.323 196.983L967.331 196.993L967.72 196.678ZM967.864 182.423L968.245 182.746L968.252 182.737L967.864 182.423ZM973.192 177.814L973.501 177.421L973.241 177.217L972.951 177.376L973.192 177.814ZM982.984 183.286L982.798 183.751L982.802 183.752L982.984 183.286ZM1005.74 183.43L1006.04 183.83L1005.74 183.43ZM1006.31 174.07L1006.03 174.483L1006.04 174.489L1006.05 174.494L1006.31 174.07ZM999.832 171.046L999.995 170.574L999.99 170.572L999.832 171.046ZM993.945 168.557C989.73 167.12 985.9 165.684 982.456 164.249L982.072 165.172C985.539 166.617 989.39 168.061 993.623 169.504L993.945 168.557ZM982.467 164.254C979.048 162.734 976.113 160.934 973.659 158.857L973.013 159.62C975.55 161.767 978.568 163.615 982.061 165.167L982.467 164.254ZM973.659 158.857C971.214 156.788 969.288 154.345 967.879 151.527L966.985 151.974C968.455 154.916 970.466 157.465 973.013 159.62L973.659 158.857ZM967.888 151.545C966.58 148.649 965.916 145.124 965.916 140.951H964.916C964.916 145.225 965.596 148.9 966.976 151.956L967.888 151.545ZM965.916 140.951C965.916 132.939 968.969 126.558 975.084 121.76L974.467 120.973C968.102 125.967 964.916 132.642 964.916 140.951H965.916ZM975.082 121.762C981.3 116.957 990.01 114.522 1001.27 114.522V113.522C989.878 113.522 980.924 115.984 974.47 120.971L975.082 121.762ZM1001.27 114.522C1005.38 114.522 1009.19 114.809 1012.71 115.38L1012.87 114.393C1009.29 113.812 1005.42 113.522 1001.27 113.522V114.522ZM1012.71 115.38C1016.23 115.95 1019.2 116.85 1021.64 118.07L1022.09 117.175C1019.54 115.899 1016.46 114.975 1012.87 114.393L1012.71 115.38ZM1021.66 118.079C1024.19 119.203 1026.13 120.69 1027.51 122.53L1028.31 121.93C1026.81 119.931 1024.72 118.346 1022.07 117.166L1021.66 118.079ZM1027.52 122.54C1028.88 124.269 1029.57 126.318 1029.57 128.71H1030.57C1030.57 126.111 1029.82 123.84 1028.3 121.921L1027.52 122.54ZM1029.57 128.71C1029.57 131.127 1029.02 133.191 1027.92 134.923L1028.77 135.457C1029.98 133.542 1030.57 131.286 1030.57 128.71H1029.57ZM1027.93 134.913C1026.81 136.596 1025.45 138.043 1023.86 139.257L1024.47 140.052C1026.15 138.77 1027.58 137.241 1028.76 135.468L1027.93 134.913ZM1024.44 139.233C1022.27 137.852 1019.38 136.683 1015.8 135.716L1015.54 136.681C1019.07 137.634 1021.85 138.769 1023.9 140.076L1024.44 139.233ZM1015.81 135.719C1012.21 134.648 1008.27 134.115 1004.01 134.115V135.115C1008.19 135.115 1012.03 135.637 1015.53 136.678L1015.81 135.719ZM1004.01 134.115C999.66 134.115 996.377 134.739 994.241 136.061L994.767 136.912C996.662 135.738 999.715 135.115 1004.01 135.115V134.115ZM994.256 136.052C992.133 137.265 990.98 138.897 990.98 140.951H991.98C991.98 139.356 992.842 138.012 994.752 136.921L994.256 136.052ZM990.98 140.951C990.98 142.562 991.689 143.902 993.047 144.947L993.657 144.154C992.519 143.279 991.98 142.219 991.98 140.951H990.98ZM993.067 144.962C994.377 145.868 996.306 146.702 998.821 147.476L999.115 146.521C996.638 145.758 994.823 144.961 993.636 144.139L993.067 144.962ZM998.815 147.475L1006.45 149.923L1006.75 148.97L999.121 146.522L998.815 147.475ZM1006.45 149.923C1015.43 152.789 1022.27 156.455 1026.99 160.899L1027.68 160.17C1022.81 155.59 1015.82 151.864 1006.75 148.97L1006.45 149.923ZM1027 160.906C1031.77 165.211 1034.18 171.114 1034.18 178.678H1035.18C1035.18 170.883 1032.69 164.69 1027.67 160.163L1027 160.906ZM1034.18 178.678C1034.18 186.685 1031.03 193.165 1024.72 198.158L1025.34 198.943C1031.89 193.76 1035.18 186.992 1035.18 178.678H1034.18ZM1024.73 198.156C1018.42 203.052 1009.09 205.538 996.664 205.538V206.538C1009.2 206.538 1018.78 204.033 1025.34 198.945L1024.73 198.156ZM996.664 205.538C992.277 205.538 988.182 205.157 984.378 204.396L984.182 205.377C988.058 206.152 992.219 206.538 996.664 206.538V205.538ZM984.368 204.394C980.659 203.729 977.389 202.732 974.555 201.409L974.132 202.316C977.058 203.681 980.413 204.7 984.192 205.379L984.368 204.394ZM974.574 201.418C971.838 200.004 969.689 198.316 968.108 196.364L967.331 196.993C969.015 199.073 971.281 200.841 974.114 202.307L974.574 201.418ZM968.124 196.384C966.652 194.361 965.916 192.064 965.916 189.479H964.916C964.916 192.269 965.715 194.772 967.315 196.973L968.124 196.384ZM965.916 189.479C965.916 186.8 966.698 184.566 968.245 182.746L967.483 182.099C965.766 184.119 964.916 186.589 964.916 189.479H965.916ZM968.252 182.737C969.851 180.762 971.579 179.272 973.433 178.253L972.951 177.376C970.965 178.469 969.141 180.051 967.475 182.108L968.252 182.737ZM972.883 178.208C975.615 180.355 978.923 182.201 982.798 183.751L983.17 182.822C979.365 181.3 976.144 179.498 973.501 177.421L972.883 178.208ZM982.802 183.752C986.801 185.313 991.135 186.09 995.8 186.09V185.09C991.248 185.09 987.039 184.332 983.166 182.821L982.802 183.752ZM995.8 186.09C1000.52 186.09 1003.98 185.373 1006.04 183.83L1005.44 183.031C1003.65 184.368 1000.48 185.09 995.8 185.09V186.09ZM1006.04 183.83C1008.05 182.322 1009.12 180.507 1009.12 178.39H1008.12C1008.12 180.114 1007.26 181.659 1005.44 183.031L1006.04 183.83ZM1009.12 178.39C1009.12 176.311 1008.27 174.704 1006.58 173.646L1006.05 174.494C1007.43 175.357 1008.12 176.63 1008.12 178.39H1009.12ZM1006.6 173.658C1005.01 172.567 1002.8 171.541 999.995 170.574L999.669 171.519C1002.43 172.472 1004.54 173.462 1006.03 174.483L1006.6 173.658ZM999.99 170.572L993.942 168.556L993.626 169.505L999.674 171.521L999.99 170.572Z" fill="#6C3E21" fill-opacity="0.3"/>
<path d="M959.656 218.134V217.634H959.156V218.134H959.656ZM1039 218.134H1039.5V217.634H1039V218.134ZM1039 225.334V225.834H1039.5V225.334H1039ZM959.656 225.334H959.156V225.834H959.656V225.334ZM959.656 218.634H1039V217.634H959.656V218.634ZM1038.5 218.134V225.334H1039.5V218.134H1038.5ZM1039 224.834H959.656V225.834H1039V224.834ZM960.156 225.334V218.134H959.156V225.334H960.156Z" fill="#6C3E21" fill-opacity="0.3"/>
<path d="M1225.51 598.979C1267.27 547.509 1332.66 525.318 1360.13 520.656C1437.05 503.872 1480.51 519.544 1494.27 522.355C1508.04 525.165 1585.98 549.986 1635.83 629.132C1685.38 707.808 1691.21 792.325 1649.59 882.02C1608.3 971.012 1516.72 1015.77 1475.51 1021.36C1434.3 1026.96 1332.66 1032.55 1261.23 971.012C1189.8 909.473 1167.82 834.253 1167.82 772.408C1167.82 710.805 1173.32 663.315 1225.51 598.979Z" fill="#58F8CA"/>
<path d="M1388.07 1022.51C1205.28 829.194 1260.52 632.878 1310.99 558.885C1306.59 547.645 1309.15 539.216 1310.99 536.406C1249.32 561.133 1211.89 612.272 1200.87 634.751C1177.02 671.28 1141.96 771.873 1192.62 882.02C1243.27 992.167 1344.02 1021.58 1388.07 1022.51Z" fill="#83D62E"/>
<path d="M1239.41 584.174C1264.19 555.794 1297.48 541.956 1310.99 536.406C1303.51 551.945 1310.62 554.87 1313.74 555.794C1272.45 609.463 1260.75 706.556 1260.75 755.576C1230.83 713.4 1223.32 620.599 1239.41 584.174Z" fill="#88F134"/>
<path d="M1377.06 581.503L1476.16 1021.39C1518.01 1016.88 1548.66 996.952 1558.75 987.552C1688.13 780.866 1520.21 598.422 1423.86 542.026C1412.85 564.584 1388.07 577.743 1377.06 581.503Z" fill="#FA5075"/>
<path d="M1376.92 581.377C1336.56 588.124 1315.26 569.194 1309.65 558.885C1190.82 765.811 1312.46 954.369 1388.13 1022.78C1432.97 1029.53 1466.6 1023.72 1477.81 1019.97L1376.92 581.377Z" fill="#FAFA3A"/>
<path d="M1580.77 719.048C1538.93 635.876 1475.24 576.681 1445.88 556.076C1506.44 539.216 1556 567.315 1575.27 589.794C1583.52 598.224 1601.69 623.512 1608.3 657.231C1614.91 690.949 1590.87 712.492 1580.77 719.048Z" fill="#ABF9E4"/>
<path d="M1410.09 584.174C1414.5 566.191 1435.79 558.885 1445.88 556.075C1500.94 586.984 1561.5 674.09 1580.77 719.048C1567.56 728.039 1558.75 719.048 1553.24 713.428C1534.89 689.076 1492.68 639.81 1470.66 637.562C1448.63 635.314 1428.45 623.512 1421.11 617.893C1415.6 614.146 1405.69 602.157 1410.09 584.174Z" fill="#FCA8C0"/>
<path d="M1346.28 589.345C1305.33 580.706 1304.79 550.356 1309.83 536.405C1339.73 522.067 1373.84 515.819 1395.17 515.82C1414.44 515.82 1433.71 534.798 1424.14 552.047C1415.25 568.079 1387.24 597.984 1346.28 589.345Z" fill="#D27492"/>
<ellipse rx="218.11" ry="41.2328" transform="matrix(0.995509 0.0946716 -0.118714 0.992929 1395.15 314.889)" fill="black" fill-opacity="0.2"/>
<path d="M1433.63 106.251C1365.05 96.8402 1323.72 153.306 1311.63 182.716L1407.25 194.479C1404.62 187.421 1421.54 156.247 1430.34 141.542C1438.25 127.426 1435.83 112.133 1433.63 106.251Z" fill="#FDCD3B"/>
<path d="M1407.25 188.598C1357.13 167.423 1322.62 171.932 1314.92 176.834C1318.22 168.011 1321.52 165.07 1324.82 159.188C1340.64 149.777 1391.87 167.031 1410.55 176.834V179.775L1407.25 188.598Z" fill="#F3B759"/>
<path d="M1423.74 153.306C1384.17 134.484 1350.1 131.74 1344.6 135.661C1357.79 123.897 1361.09 122.917 1364.39 120.956C1380.21 111.545 1417.15 133.7 1430.34 141.542L1423.74 153.306Z" fill="#F5B752"/>
<path d="M1242.38 273.886C1155.32 219.772 1223.69 190.559 1268.76 182.716C1390.11 161.541 1547.95 250.358 1611.7 297.413C1630.17 304.471 1619.4 310.157 1611.7 312.118C1408.57 342.704 1280.85 299.374 1242.38 273.886Z" fill="#77D4B5"/>
<path d="M1212.7 197.42C1229.19 242.515 1346.58 329.763 1605.11 294.471C1534.76 239.574 1341.96 138.601 1212.7 197.42Z" fill="#85E8CB"/>
<path d="M1265.46 182.715C1287.44 194.479 1364.39 221.536 1483.1 223.889C1417.15 188.597 1321.52 170.952 1265.46 182.715Z" fill="#8CFDD7"/>
<path d="M1216 200.362C1229.19 188.598 1266.65 184.283 1265.46 182.716C1281.29 203.891 1305.03 218.988 1314.92 220.948V253.299C1304.37 260.357 1281.95 260.161 1272.05 259.181C1229.85 240.358 1216 210.165 1216 200.362Z" fill="#A3F6DA"/>
<path d="M1219.29 197.42C1232.48 185.656 1255.57 185.656 1255.57 185.656C1260.84 199.773 1288.54 220.948 1301.73 226.83V247.417H1272.05C1237.76 238.006 1220.39 208.204 1219.29 197.42Z" fill="#7CC5A6"/>
<ellipse cx="1354.49" cy="250.358" rx="23.0829" ry="20.5867" fill="#A8FCDB"/>
<ellipse cx="1354.49" cy="250.357" rx="16.4878" ry="14.7048" fill="#7DCFB1"/>
<ellipse cx="1486.4" cy="279.767" rx="23.0829" ry="20.5867" fill="#A8FCDB"/>
<ellipse cx="1486.4" cy="279.767" rx="16.4878" ry="14.7048" fill="#7DCFB1"/>
<ellipse cx="1420.44" cy="268.003" rx="23.0829" ry="20.5867" fill="#A8FCDB"/>
<ellipse cx="1420.44" cy="268.003" rx="16.4878" ry="14.7048" fill="#7DCFB1"/>
<ellipse rx="9.32292" ry="31.1217" transform="matrix(0.961078 0.276278 -0.339891 0.940465 1216.42 182.88)" fill="#F2C744"/>
<ellipse rx="9.32292" ry="31.1217" transform="matrix(0.961078 0.276278 -0.339891 0.940465 1192.67 243.97)" fill="#F2C744"/>
<ellipse cx="1202.81" cy="215.066" rx="9.89267" ry="8.82286" fill="#7DC1A8"/>
<path d="M1390.77 303.295C1361.75 279.767 1312.72 279.767 1291.84 282.708C1281.29 381.524 1335.81 421.913 1364.39 429.756C1380.21 425.05 1384.17 408.189 1384.17 400.346L1390.77 303.295Z" fill="#FEC73C"/>
<path d="M1384.17 382.7C1344.6 368.583 1316.02 376.818 1308.33 382.7C1305.03 376.819 1298.44 365.055 1301.73 365.055C1317.56 348.585 1366.58 360.153 1387.47 367.996C1386 367.455 1387.47 382.7 1384.17 382.7Z" fill="#F2B355"/>
<path d="M1295.14 335.645C1291.84 347.409 1288.54 306.235 1291.84 312.117C1302.26 295.848 1362.88 305.025 1389.79 314.7C1390.12 314.819 1390.44 314.939 1390.77 315.058L1389.79 314.7L1387.47 344.468V341.527C1321.52 312.117 1296.27 331.61 1295.14 335.645Z" fill="#F5B655"/>
<path d="M-416.93 760.715C-410.605 771.427 -396.33 793.385 -389.826 795.527C-381.694 798.205 -373.563 790.172 -368.142 784.816V784.816C-362.722 779.46 -370.853 795.527 -365.432 803.561C-360.915 811.595 -345.375 827.126 -319.356 824.984C-313.032 818.736 -300.384 805.168 -300.384 800.883C-296.77 808.917 -288.458 824.984 -284.121 824.984C-278.701 824.984 -275.99 830.34 -238.045 824.984C-236.238 816.058 -232.624 797.67 -232.624 795.527C-232.624 792.85 -213.651 816.95 -208.231 816.95C-202.81 816.95 -170.286 803.561 -170.286 798.205V768.749C-163.058 771.427 -148.061 776.782 -145.892 776.782C-143.182 776.782 -78.1333 766.071 22.1508 570.585C14.9227 525.953 6.43037 430.799 30.2817 407.234C60.0961 377.777 149.538 337.609 333.843 321.542C386.245 329.576 470.443 382.598 388.052 530.417C376.897 541.439 325.54 561.35 206.456 562.955C205.552 570.855 204.288 587.188 206.456 589.33C209.161 592.003 225.361 610.676 233.511 690.594C235.348 686.457 280.397 667.114 295.9 669.667C308.906 671.809 323 691.983 328.422 701.802C328.422 721.083 319.386 729.473 314.871 731.258C317.041 726.974 312.157 718.761 309.45 715.191C307.28 710.906 301.321 713.406 298.607 715.191C298.607 719.475 293.185 727.688 290.478 731.258C292.648 722.689 276.928 713.406 268.792 709.835C260.119 714.12 241.437 731.258 233.185 739.292C230.942 782.032 223.3 834.238 203.746 862.475C190.421 880.905 168.69 906.628 143.298 929.422C135.44 948.167 109.967 990.477 70.9371 1009.76C65.5163 1012.44 61.7218 1030.11 89.9097 1079.39C104.365 1081.17 138.155 1084.2 157.669 1082.06C165.8 1088.31 184.231 1102.42 192.904 1108.84C184.227 1107.95 162.158 1106.7 143.298 1108.84C144.475 1115.98 150.08 1132.41 163.09 1140.98C160.38 1142.76 153.333 1146.33 146.828 1146.33C104.365 1135.62 22.6929 1113.12 35.7025 1108.84C48.7122 1104.55 48.3508 1099.91 46.5436 1098.13C43.4982 1082.96 28.5638 1047.25 -6.81081 1025.83C-30.7877 1043.04 -52.903 1041.89 -56.4499 1041.89C-60.7865 1041.89 -58.2571 1061.53 -56.4499 1071.35C-58.6185 1077.77 -42.8981 1104.38 -34.7672 1116.88C-15.7945 1117.77 24.8608 1120.09 35.7025 1122.23C46.5435 1124.37 52.8681 1142.76 54.6752 1151.68C42.0263 1148.12 17.8142 1143.12 22.1508 1151.68C26.4873 1160.25 29.3781 1178.47 30.2817 1186.49C-80.8434 1167.75 -97.106 1151.68 -99.8161 1151.68C-101.985 1151.68 -100.72 1144.55 -99.8161 1140.98C-88.9743 1143.12 -84.4571 1134.73 -83.5542 1130.26C-102.526 1103.48 -184.493 1031.46 -186.548 1025.83C-194.363 1004.4 -188.355 991.013 -186.548 974.945C-336.16 944.953 -402.474 841.052 -416.93 792.85C-421.266 777.854 -418.736 765.178 -416.93 760.715Z" fill="#93E336"/>
<path d="M27.8859 905.321C21.3814 909.605 26.983 957.093 30.5967 980.302C99.9821 988.87 178.763 899.965 209.481 854.441C263.689 701.802 209.481 592.008 206.771 589.33C204.603 587.188 205.867 570.585 206.771 562.552C198.098 564.694 168.825 563.444 155.273 562.552C146.6 607.54 155.274 659.848 160.694 680.379C178.041 676.094 195.026 678.593 201.35 680.379C218.697 688.948 221.224 719.654 220.322 733.936L214.902 739.292L209.481 731.258C202.976 709.835 199.543 724.117 198.64 733.936C195.483 742.505 191.904 746.433 190.509 747.325L174.246 723.224C167.742 723.224 151.66 741.077 144.433 750.004C133.591 814.272 62.2175 880.327 27.8859 905.321Z" fill="#D0FF58"/>
<path d="M121.479 548.172C47.1458 562.029 43.2433 468.825 27.8843 425.979C12.7068 410.983 16.2907 559.951 27.8843 569.651C-207.918 1019.54 -411.195 774.104 -416.616 771.427C-420.953 769.284 -416.616 788.386 -413.905 798.205C-321.753 969.59 -167.262 969.59 -178.103 969.59C-186.776 969.59 -185.331 1005.29 -183.524 1023.15C-168.346 1046.72 -128.413 1072.24 -110.344 1082.06C-172.682 993.691 -145.579 993.691 -148.29 966.912C-150.458 945.489 -123.896 907.999 -110.344 891.931C-109.441 887.468 -108.718 878.006 -113.054 875.864C-117.391 873.721 -147.386 901.75 -161.841 916.032C-168.346 909.605 -164.552 884.79 -161.841 873.186C-154.613 858.011 -129.859 824.448 -88.6616 811.595C-37.1646 795.527 27.8843 611.221 47.9419 595.979C67.9989 580.736 101.237 611.316 113.765 595.979C126.292 580.642 153.13 550.647 121.479 548.172Z" fill="#7CDA3C"/>
<path d="M404.629 495.605L385.657 517.028L347.706 490.249L317.898 525.061L290.79 495.605L269.111 525.061L239.296 500.96" stroke="#4B940E"/>
<path d="M317.898 407.234C317.898 403.664 317.354 396.523 315.184 396.523L323.32 388.489C326.027 385.811 331.448 391.167 334.156 391.167C336.326 391.167 338.677 396.523 339.577 399.201C340.484 402.771 341.747 410.448 339.577 412.59C337.414 414.733 333.256 413.483 331.448 412.59L326.027 409.912L317.898 407.234Z" fill="#4B940E"/>
<path d="M147.141 479.537H130.878L120.037 487.571V500.96V506.316C123.651 508.101 131.42 511.672 133.589 511.672H147.141C149.308 511.672 151.658 506.316 152.561 503.638L157.982 495.604L152.561 484.893L147.141 479.537Z" fill="#4B940E"/>
</g>
<defs>
<linearGradient id="paint0_linear" x1="1015.11" y1="27.1709" x2="1015.11" y2="716.639" gradientUnits="userSpaceOnUse">
<stop stop-color="white"/>
<stop offset="1" stop-color="white" stop-opacity="0"/>
</linearGradient>
<linearGradient id="paint1_linear" x1="1066.95" y1="30.0455" x2="700.755" y2="720.56" gradientUnits="userSpaceOnUse">
<stop stop-color="white"/>
<stop offset="1" stop-color="white" stop-opacity="0"/>
</linearGradient>
<clipPath id="clip0">
<rect width="1514" height="720" fill="white"/>
</clipPath>
</defs>
</svg>
